<svg width="64" height="64" viewBox="0 0 64 64" fill="none" xmlns="http://www.w3.org/2000/svg">
<path d="M50.6247 16.8524H19.8907C15.3784 16.6913 10.9352 20.0755 10.0374 24.7028L7.11364 39.736C6.56112 42.3835 7.9194 47.2181 13.4907 47.3332L44.639 47.3102C49.1513 47.2871 53.1801 43.5346 53.9628 39.5518L56.8175 24.818C57.6693 21.1575 55.5283 16.9445 50.6247 16.8524ZM56.1038 25.1172L53.3412 39.2295C52.6045 43.0511 48.6678 46.6425 44.2707 46.6655H13.9741C8.56401 46.5504 7.25177 41.9231 7.78127 39.3907C7.78127 39.3907 10.5669 25.0021 10.5899 25.0021C11.4878 20.582 15.8619 17.3359 20.236 17.4971H50.1182C54.9067 17.5891 56.9326 21.6179 56.1038 25.1172Z" fill="white"/>
<path d="M49.5887 18.1416H20.5353C16.2763 18.0035 12.0403 21.0884 11.1885 25.3244L8.51798 39.0914C8.0115 41.5086 9.2777 45.9288 14.5266 46.0439H43.9714C48.2304 46.0209 52.052 42.5907 52.7657 38.9302L55.3902 25.4395C56.219 22.0783 54.2161 18.2337 49.5887 18.1416ZM21.7555 30.9187C29.6519 33.359 40.6563 34.7172 40.6563 34.7172L27.5339 42.4065L30.0663 35.1086C30.0663 35.0856 26.0835 33.0827 21.7555 30.9187ZM35.2692 39.2295L41.0246 35.8453L43.8103 45.3533L35.2692 39.2295ZM32.0231 29.0769L35.2001 18.7632L40.0807 32.4841C31.2404 32.0697 23.6663 30.7345 15.5396 27.8107C25.3699 29.2611 32.0231 29.0769 32.0231 29.0769ZM44.4088 32.392C43.3728 32.369 42.3369 32.346 41.3469 32.323L39.9656 28.4784L49.5657 28.5474L44.4088 32.392Z" fill="white"/>
</svg>
