<svg height="100%" id="track-svg" width="100%" xmlns="http://www.w3.org/2000/svg" xmlns:xlink="http://www.w3.org/1999/xlink" xmlns:ev="http://www.w3.org/2001/xml-events" style="overflow: hidden; "><g id="viewport-20250804125829008" class="svg-pan-zoom_viewport" transform="matrix(0.5353045341573405,0,0,0.5353045341573405,354.3667325458758,605.9535461504793)" style="transform: matrix(0.535305, 0, 0, 0.535305, 354.367, 605.954);"><g id="debug"><polyline fill="none" id="bb" points="-656.9909057617188,-224.1431274414062 497.4921264648438,-224.1431274414062 497.4921264648438,365.0833435058594 -656.9909057617188,365.0833435058594 -656.9909057617188,-224.1431274414062" stroke="none" stroke-width="3px"></polyline><circle cx="-79.7493896484375" cy="70.47012329101562" fill="none" id="centerpoint" r="5" stroke="none"></circle></g><g id="track"><path d="M98.4 -2.07 L106.92 -2.1 L109.0 -2.11 L111.6 -2.12 L114.19 -2.14 L116.77 -2.15 L118.83 -2.16 L121.41 -2.17 L123.46 -2.17 L126.02 -2.18 L128.57 -2.19 L130.6 -2.2 L133.14 -2.2 L135.67 -2.21 L137.68 -2.22 L140.19 -2.23 L142.7 -2.24 L144.71 -2.25 L147.2 -2.25 L149.69 -2.26 L151.67 -2.26 L154.14 -2.26 L156.6 -2.26 L158.57 -2.26 L161.02 -2.25 L163.46 -2.25 L165.41 -2.24 L167.83 -2.23 L170.25 -2.22 L172.18 -2.21 L174.58 -2.19 L176.98 -2.17 L178.89 -2.16 L181.27 -2.14 L183.64 -2.12 L185.53 -2.1 L187.89 -2.07 L190.24 -2.05 L192.11 -2.03 L194.45 -2.01 L196.79 -1.99 L198.65 -1.97 L200.98 -1.96 L203.29 -1.95 L205.14 -1.94 L207.44 -1.93 L209.73 -1.93 L211.56 -1.92 L213.83 -1.92 L216.1 -1.92 L217.91 -1.91 L220.16 -1.91 L222.4 -1.91 L224.19 -1.91 L226.42 -1.91 L228.63 -1.91 L230.4 -1.91 L232.6 -1.9 L234.79 -1.9 L236.53 -1.9 L238.7 -1.9 L240.86 -1.9 L242.58 -1.9 L244.72 -1.91 L246.85 -1.91 L248.55 -1.92 L250.66 -1.93 L252.76 -1.93 L254.43 -1.94 L256.51 -1.95 L258.17 -1.96 L260.23 -1.97 L262.27 -2.0 L264.31 -2.02 L265.93 -2.05 L267.95 -2.09 L269.95 -2.13 L271.55 -2.17 L273.53 -2.21 L275.51 -2.26 L277.08 -2.31 L279.03 -2.39 L280.97 -2.47 L282.51 -2.54 L284.44 -2.62 L286.38 -2.71 L287.92 -2.78 L289.84 -2.86 L291.76 -2.95 L293.29 -3.01 L295.2 -3.1 L297.09 -3.18 L298.59 -3.25 L300.46 -3.33 L302.32 -3.41 L303.8 -3.48 L305.63 -3.56 L307.45 -3.64 L308.9 -3.7 L310.7 -3.78 L312.49 -3.86 L313.91 -3.93 L315.67 -4.01 L317.07 -4.07 L318.8 -4.15 L320.52 -4.23 L322.22 -4.31 L323.58 -4.38 L325.26 -4.47 L326.59 -4.54 L328.24 -4.62 L329.88 -4.71 L331.18 -4.78 L332.8 -4.86 L334.4 -4.93 L335.68 -4.99 L337.25 -5.07 L338.8 -5.15 L340.03 -5.22 L341.56 -5.3 L343.08 -5.38 L344.29 -5.44 L345.79 -5.51 L347.27 -5.57 L348.46 -5.62 L349.93 -5.68 L351.38 -5.73 L352.53 -5.77 L353.96 -5.81 L355.38 -5.85 L356.51 -5.88 L357.91 -5.91 L359.02 -5.94 L360.4 -5.98 L361.77 -6.03 L363.13 -6.08 L364.21 -6.12 L365.56 -6.18 L366.9 -6.25 L367.97 -6.32 L369.29 -6.41 L370.62 -6.52 L371.67 -6.62 L372.99 -6.75 L374.3 -6.9 L375.35 -7.03 L376.66 -7.21 L377.98 -7.39 L379.02 -7.55 L380.33 -7.75 L381.64 -7.96 L382.68 -8.13 L383.99 -8.34 L385.3 -8.56 L386.35 -8.74 L387.65 -8.95 L388.7 -9.12 L390.01 -9.33 L391.32 -9.54 L392.36 -9.71 L393.66 -9.92 L394.96 -10.13 L396.25 -10.34 L397.28 -10.51 L398.57 -10.73 L399.59 -10.91 L400.87 -11.14 L402.15 -11.37 L403.17 -11.56 L404.43 -11.79 L405.69 -12.03 L406.69 -12.22 L407.92 -12.46 L409.15 -12.71 L410.12 -12.91 L411.32 -13.16 L412.51 -13.43 L413.45 -13.64 L414.62 -13.91 L415.77 -14.19 L416.69 -14.42 L417.82 -14.71 L418.94 -15.0 L419.83 -15.24 L420.92 -15.54 L422.0 -15.84 L422.86 -16.09 L423.92 -16.4 L424.98 -16.72 L425.81 -16.97 L426.84 -17.3 L427.85 -17.63 L428.66 -17.89 L429.65 -18.24 L430.63 -18.59 L431.41 -18.88 L432.37 -19.24 L433.31 -19.62 L434.06 -19.93 L434.98 -20.32 L435.9 -20.71 L436.62 -21.04 L437.51 -21.45 L438.4 -21.87 L439.1 -22.21 L439.96 -22.65 L440.81 -23.1 L441.49 -23.47 L442.31 -23.94 L443.13 -24.43 L443.78 -24.83 L444.58 -25.35 L445.36 -25.89 L445.98 -26.33 L446.74 -26.89 L447.34 -27.36 L448.07 -27.96 L448.8 -28.57 L449.37 -29.08 L450.07 -29.72 L450.75 -30.38 L451.29 -30.92 L451.95 -31.62 L452.6 -32.33 L453.11 -32.91 L453.74 -33.65 L454.36 -34.41 L454.85 -35.02 L455.45 -35.79 L456.04 -36.58 L456.51 -37.21 L457.08 -38.01 L457.65 -38.82 L458.1 -39.48 L458.66 -40.3 L459.22 -41.13 L459.66 -41.8 L460.21 -42.63 L460.77 -43.48 L461.21 -44.15 L461.76 -45.0 L462.31 -45.86 L462.74 -46.54 L463.29 -47.41 L463.84 -48.27 L464.28 -48.96 L464.82 -49.83 L465.37 -50.71 L465.81 -51.4 L466.36 -52.27 L466.9 -53.13 L467.33 -53.82 L467.86 -54.67 L468.39 -55.5 L468.8 -56.17 L469.31 -56.99 L469.82 -57.8 L470.22 -58.45 L470.7 -59.24 L471.18 -60.03 L471.56 -60.66 L472.02 -61.43 L472.48 -62.2 L472.84 -62.81 L473.28 -63.56 L473.63 -64.16 L474.06 -64.91 L474.49 -65.65 L474.82 -66.24 L475.24 -66.97 L475.65 -67.7 L475.98 -68.28 L476.38 -69.0 L476.77 -69.73 L477.08 -70.3 L477.46 -71.02 L477.84 -71.74 L478.14 -72.31 L478.5 -73.03 L478.86 -73.74 L479.21 -74.45 L479.49 -75.01 L479.83 -75.72 L480.09 -76.29 L480.42 -76.99 L480.73 -77.69 L480.98 -78.25 L481.28 -78.95 L481.56 -79.64 L481.82 -80.32 L482.02 -80.87 L482.26 -81.56 L482.44 -82.12 L482.65 -82.82 L482.86 -83.52 L483.02 -84.09 L483.23 -84.8 L483.44 -85.52 L483.62 -86.08 L483.84 -86.79 L484.06 -87.48 L484.23 -88.04 L484.43 -88.73 L484.62 -89.42 L484.77 -89.98 L484.94 -90.68 L485.1 -91.38 L485.22 -91.94 L485.36 -92.63 L485.48 -93.33 L485.57 -93.9 L485.67 -94.6 L485.75 -95.3 L485.81 -95.86 L485.87 -96.56 L485.92 -97.26 L485.95 -97.82 L485.98 -98.51 L486.0 -99.2 L486.01 -99.76 L486.01 -100.45 L486.01 -101.14 L486.0 -101.69 L485.98 -102.38 L485.95 -103.07 L485.92 -103.62 L485.88 -104.3 L485.82 -104.98 L485.76 -105.52 L485.68 -106.2 L485.59 -106.88 L485.5 -107.42 L485.38 -108.09 L485.25 -108.77 L485.14 -109.31 L484.99 -109.99 L484.83 -110.67 L484.69 -111.21 L484.5 -111.88 L484.3 -112.55 L484.13 -113.09 L483.91 -113.76 L483.72 -114.3 L483.48 -114.96 L483.22 -115.63 L482.96 -116.29 L482.73 -116.82 L482.45 -117.49 L482.21 -118.01 L481.9 -118.67 L481.58 -119.32 L481.32 -119.84 L480.98 -120.49 L480.63 -121.13 L480.35 -121.65 L479.98 -122.28 L479.6 -122.92 L479.28 -123.42 L478.88 -124.05 L478.47 -124.68 L478.13 -125.19 L477.69 -125.82 L477.24 -126.46 L476.87 -126.97 L476.4 -127.61 L475.92 -128.25 L475.53 -128.77 L475.02 -129.41 L474.51 -130.06 L474.08 -130.58 L473.54 -131.23 L472.98 -131.89 L472.52 -132.42 L471.94 -133.09 L471.35 -133.75 L470.87 -134.29 L470.26 -134.96 L469.65 -135.64 L469.15 -136.18 L468.51 -136.85 L467.87 -137.52 L467.35 -138.05 L466.7 -138.72 L466.04 -139.37 L465.5 -139.9 L464.83 -140.55 L464.14 -141.19 L463.59 -141.71 L462.89 -142.35 L462.19 -142.99 L461.62 -143.5 L460.91 -144.14 L460.19 -144.78 L459.61 -145.29 L458.89 -145.93 L458.15 -146.56 L457.56 -147.06 L456.82 -147.68 L456.07 -148.3 L455.47 -148.79 L454.71 -149.41 L453.94 -150.02 L453.32 -150.5 L452.54 -151.11 L451.75 -151.71 L451.12 -152.19 L450.32 -152.8 L449.51 -153.4 L448.86 -153.89 L448.04 -154.5 L447.21 -155.12 L446.54 -155.62 L445.69 -156.24 L444.84 -156.88 L444.15 -157.39 L443.28 -158.04 L442.4 -158.69 L441.69 -159.21 L440.79 -159.87 L439.88 -160.54 L439.15 -161.08 L438.23 -161.76 L437.3 -162.44 L436.54 -162.99 L435.59 -163.68 L434.64 -164.38 L433.86 -164.94 L432.89 -165.65 L431.91 -166.36 L431.12 -166.93 L430.13 -167.65 L429.13 -168.37 L428.33 -168.94 L427.33 -169.67 L426.32 -170.41 L425.5 -170.99 L424.49 -171.73 L423.46 -172.47 L422.64 -173.07 L421.61 -173.82 L420.57 -174.57 L419.75 -175.17 L418.71 -175.93 L417.69 -176.67 L416.88 -177.26 L415.88 -177.98 L414.88 -178.7 L414.1 -179.27 L413.12 -179.97 L412.16 -180.67 L411.39 -181.22 L410.45 -181.91 L409.51 -182.59 L408.77 -183.13 L407.85 -183.79 L406.95 -184.45 L406.23 -184.97 L405.35 -185.62 L404.48 -186.25 L403.79 -186.75 L402.93 -187.37 L402.09 -187.98 L401.43 -188.46 L400.61 -189.05 L399.8 -189.62 L399.16 -190.08 L398.38 -190.64 L397.6 -191.18 L396.99 -191.61 L396.23 -192.14 L395.48 -192.66 L394.89 -193.07 L394.17 -193.58 L393.45 -194.07 L392.88 -194.46 L392.19 -194.94 L391.5 -195.42 L390.96 -195.8 L390.3 -196.25 L389.65 -196.7 L389.14 -197.05 L388.5 -197.48 L387.88 -197.89 L387.38 -198.2 L386.78 -198.59 L386.17 -198.96 L385.7 -199.25 L385.12 -199.6 L384.65 -199.87 L384.09 -200.2 L383.53 -200.51 L382.98 -200.81 L382.55 -201.04 L382.02 -201.32 L381.61 -201.53 L381.1 -201.78 L380.6 -202.02 L380.2 -202.2 L379.72 -202.4 L379.24 -202.59 L378.86 -202.73 L378.4 -202.9 L377.94 -203.05 L377.58 -203.16 L377.14 -203.28 L376.7 -203.4 L376.36 -203.48 L375.94 -203.58 L375.53 -203.67 L375.2 -203.73 L374.8 -203.8 L374.41 -203.85 L374.1 -203.89 L373.7 -203.93 L373.3 -203.96 L372.97 -203.98 L372.56 -203.99 L372.15 -204.0 L371.81 -204.0 L371.38 -204.0 L370.93 -204.0 L370.57 -204.0 L370.1 -204.0 L369.63 -204.0 L369.23 -204.0 L368.73 -204.0 L368.32 -204.0 L367.79 -203.99 L367.25 -203.99 L366.81 -203.99 L366.25 -203.99 L365.67 -203.98 L365.19 -203.98 L364.59 -203.98 L363.96 -203.98 L363.46 -203.98 L362.81 -203.98 L362.14 -203.98 L361.6 -203.98 L360.9 -203.98 L360.19 -203.98 L359.61 -203.98 L358.87 -203.98 L358.11 -203.98 L357.49 -203.98 L356.7 -203.98 L355.9 -203.98 L355.25 -203.98 L354.42 -203.98 L353.57 -203.98 L352.89 -203.98 L352.01 -203.98 L351.12 -203.98 L350.4 -203.98 L349.48 -203.98 L348.55 -203.98 L347.8 -203.98 L346.84 -203.98 L345.87 -203.98 L345.09 -203.98 L344.09 -203.97 L343.08 -203.97 L342.27 -203.97 L341.23 -203.97 L340.18 -203.97 L339.34 -203.97 L338.27 -203.97 L337.19 -203.98 L336.32 -203.98 L335.23 -203.98 L334.12 -203.98 L333.23 -203.98 L332.1 -203.98 L330.96 -203.99 L330.03 -203.99 L328.86 -203.99 L327.67 -204.0 L326.72 -204.0 L325.5 -204.01 L324.28 -204.01 L323.28 -204.02 L322.03 -204.02 L321.02 -204.02 L319.74 -204.03 L318.44 -204.04 L317.13 -204.04 L316.07 -204.04 L314.74 -204.05 L313.39 -204.05 L312.3 -204.06 L310.92 -204.06 L309.53 -204.07 L308.4 -204.07 L306.97 -204.07 L305.81 -204.08 L304.34 -204.08 L302.84 -204.08 L301.62 -204.09 L300.08 -204.09 L298.51 -204.09 L297.24 -204.09 L295.62 -204.09 L293.97 -204.09 L292.63 -204.09 L290.92 -204.09 L289.19 -204.09 L287.77 -204.1 L285.98 -204.11 L284.15 -204.12 L282.66 -204.13 L280.77 -204.14 L278.85 -204.15 L277.3 -204.16 L275.32 -204.16 L273.32 -204.17 L271.69 -204.17 L269.61 -204.17 L267.5 -204.16 L265.79 -204.16 L263.62 -204.15 L261.42 -204.13 L259.64 -204.12 L257.38 -204.1 L255.07 -204.08 L253.2 -204.06 L250.82 -204.04 L248.4 -204.02 L246.44 -204.01 L243.94 -203.99 L241.41 -203.98 L239.36 -203.97 L236.77 -203.95 L234.13 -203.94 L232.0 -203.93 L229.31 -203.92 L226.57 -203.91 L224.36 -203.9 L221.56 -203.89 L218.73 -203.87 L216.44 -203.86 L213.56 -203.85 L210.64 -203.84 L208.28 -203.84 L205.29 -203.83 L202.27 -203.83 L199.83 -203.83 L196.74 -203.82 L193.61 -203.82 L191.07 -203.81 L187.88 -203.81 L184.65 -203.8 L182.05 -203.8 L178.79 -203.79 L175.53 -203.79 L172.92 -203.78 L169.67 -203.78 L166.41 -203.77 L163.81 -203.77 L160.56 -203.77 L157.31 -203.77 L154.72 -203.77 L151.48 -203.78 L148.24 -203.79 L145.65 -203.8 L142.41 -203.81 L139.18 -203.82 L135.95 -203.84 L133.37 -203.85 L130.14 -203.86 L127.57 -203.88 L124.35 -203.89 L121.13 -203.9 L117.92 -203.91 L115.36 -203.92 L112.15 -203.92 L109.59 -203.93 L106.39 -203.93 L103.19 -203.93 L100.63 -203.93 L97.44 -203.94 L94.25 -203.94 L91.7 -203.94 L88.52 -203.94 L85.34 -203.94 L82.8 -203.94 L79.62 -203.94 L76.45 -203.95 L73.92 -203.95 L70.75 -203.95 L67.59 -203.95 L65.07 -203.96 L61.91 -203.96 L58.76 -203.96 L56.24 -203.96 L53.1 -203.96 L49.96 -203.95 L47.45 -203.95 L44.31 -203.94 L41.18 -203.94 L38.68 -203.93 L35.56 -203.92 L32.44 -203.92 L29.94 -203.91 L26.83 -203.9 L23.72 -203.89 L21.24 -203.88 L18.13 -203.87 L15.04 -203.86 L12.56 -203.86 L9.47 -203.85 L6.38 -203.84 L3.92 -203.83 L0.84 -203.82 L-2.24 -203.81 L-4.69 -203.8 L-7.76 -203.79 L-10.83 -203.78 L-13.27 -203.77 L-16.33 -203.76 L-19.38 -203.74 L-21.81 -203.73 L-24.86 -203.72 L-27.89 -203.71 L-30.32 -203.7 L-33.35 -203.69 L-36.38 -203.69 L-38.8 -203.68 L-41.81 -203.68 L-44.83 -203.68 L-47.23 -203.69 L-50.24 -203.69 L-53.23 -203.7 L-55.63 -203.7 L-58.62 -203.71 L-61.6 -203.71 L-63.99 -203.71 L-66.96 -203.72 L-69.93 -203.72 L-72.31 -203.72 L-75.27 -203.72 L-78.22 -203.73 L-80.59 -203.73 L-83.53 -203.73 L-86.48 -203.73 L-88.83 -203.73 L-91.76 -203.74 L-94.69 -203.74 L-97.02 -203.74 L-99.94 -203.74 L-102.86 -203.74 L-105.76 -203.74 L-108.08 -203.74 L-110.98 -203.74 L-113.3 -203.74 L-116.18 -203.74 L-119.07 -203.74 L-121.37 -203.74 L-124.24 -203.74 L-127.11 -203.74 L-129.4 -203.74 L-132.26 -203.73 L-135.11 -203.73 L-137.39 -203.73 L-140.23 -203.73 L-143.06 -203.72 L-145.33 -203.72 L-148.15 -203.72 L-150.98 -203.72 L-153.23 -203.71 L-156.04 -203.71 L-158.84 -203.71 L-161.08 -203.71 L-163.88 -203.7 L-166.11 -203.7 L-168.89 -203.7 L-171.67 -203.7 L-174.45 -203.69 L-176.66 -203.69 L-179.42 -203.69 L-181.63 -203.69 L-184.38 -203.69 L-187.13 -203.69 L-189.32 -203.69 L-192.06 -203.69 L-194.79 -203.69 L-196.97 -203.69 L-199.7 -203.69 L-202.42 -203.69 L-204.59 -203.69 L-207.31 -203.69 L-210.01 -203.7 L-212.17 -203.7 L-214.87 -203.7 L-217.56 -203.71 L-220.24 -203.72 L-222.39 -203.72 L-225.06 -203.73 L-227.19 -203.74 L-229.85 -203.74 L-232.51 -203.75 L-234.63 -203.75 L-237.27 -203.76 L-239.91 -203.76 L-242.54 -203.77 L-244.64 -203.77 L-247.25 -203.78 L-249.34 -203.78 L-251.95 -203.79 L-254.55 -203.78 L-256.62 -203.78 L-259.2 -203.77 L-261.78 -203.77 L-264.35 -203.76 L-266.4 -203.75 L-268.96 -203.74 L-271.51 -203.73 L-273.55 -203.72 L-276.09 -203.71 L-278.11 -203.7 L-280.63 -203.68 L-283.15 -203.66 L-285.15 -203.65 L-287.66 -203.63 L-290.15 -203.62 L-292.14 -203.6 L-294.62 -203.59 L-297.09 -203.57 L-299.06 -203.56 L-301.52 -203.54 L-303.96 -203.53 L-305.92 -203.52 L-308.35 -203.51 L-310.78 -203.5 L-312.71 -203.49 L-315.12 -203.48 L-317.52 -203.47 L-319.44 -203.46 L-321.83 -203.45 L-324.21 -203.45 L-326.11 -203.45 L-328.47 -203.44 L-330.36 -203.44 L-332.71 -203.44 L-335.05 -203.45 L-336.92 -203.45 L-339.24 -203.45 L-341.56 -203.46 L-343.41 -203.46 L-345.71 -203.46 L-348.01 -203.47 L-350.3 -203.47 L-352.12 -203.47 L-354.39 -203.48 L-356.2 -203.48 L-358.46 -203.48 L-360.71 -203.48 L-362.5 -203.49 L-364.73 -203.49 L-366.96 -203.48 L-368.73 -203.48 L-370.94 -203.48 L-373.14 -203.48 L-374.9 -203.47 L-377.09 -203.47 L-379.27 -203.47 L-381.0 -203.46 L-383.17 -203.46 L-385.32 -203.46 L-387.04 -203.45 L-389.18 -203.45 L-391.31 -203.45 L-393.01 -203.44 L-395.12 -203.44 L-397.23 -203.43 L-398.91 -203.43 L-401.0 -203.42 L-403.09 -203.42 L-404.75 -203.42 L-406.82 -203.41 L-408.88 -203.41 L-410.52 -203.41 L-412.56 -203.41 L-414.59 -203.4 L-416.22 -203.4 L-418.24 -203.4 L-420.26 -203.4 L-421.86 -203.4 L-423.86 -203.39 L-425.85 -203.39 L-427.43 -203.39 L-429.39 -203.39 L-431.35 -203.39 L-433.29 -203.39 L-434.84 -203.39 L-436.76 -203.39 L-438.67 -203.4 L-440.2 -203.4 L-442.09 -203.4 L-443.6 -203.4 L-445.47 -203.4 L-447.33 -203.4 L-449.18 -203.41 L-450.66 -203.41 L-452.49 -203.41 L-454.31 -203.41 L-455.76 -203.41 L-457.56 -203.42 L-459.35 -203.42 L-460.77 -203.43 L-462.54 -203.43 L-464.3 -203.43 L-465.7 -203.44 L-467.44 -203.45 L-469.18 -203.45 L-470.56 -203.46 L-472.26 -203.47 L-473.62 -203.47 L-475.3 -203.47 L-476.97 -203.48 L-478.62 -203.47 L-479.93 -203.47 L-481.55 -203.46 L-483.17 -203.45 L-484.45 -203.44 L-486.03 -203.43 L-487.61 -203.42 L-488.85 -203.41 L-490.4 -203.39 L-491.93 -203.38 L-493.15 -203.36 L-494.66 -203.35 L-496.15 -203.33 L-497.34 -203.32 L-498.81 -203.3 L-500.27 -203.29 L-501.43 -203.28 L-502.86 -203.26 L-504.28 -203.25 L-505.4 -203.24 L-506.78 -203.23 L-508.14 -203.22 L-509.22 -203.22 L-510.55 -203.21 L-511.86 -203.2 L-512.9 -203.19 L-514.17 -203.17 L-515.43 -203.16 L-516.43 -203.15 L-517.66 -203.13 L-518.87 -203.12 L-519.82 -203.11 L-521.0 -203.09 L-522.15 -203.07 L-523.06 -203.06 L-524.18 -203.03 L-525.29 -203.01 L-526.16 -202.98 L-527.24 -202.95 L-528.3 -202.93 L-529.15 -202.91 L-530.21 -202.89 L-531.25 -202.89 L-532.08 -202.9 L-533.12 -202.92 L-534.16 -202.96 L-534.99 -203.0 L-536.03 -203.07 L-537.07 -203.16 L-537.91 -203.24 L-538.94 -203.33 L-539.96 -203.4 L-540.76 -203.44 L-541.74 -203.48 L-542.71 -203.51 L-543.47 -203.51 L-544.4 -203.51 L-545.32 -203.48 L-546.04 -203.46 L-546.93 -203.41 L-547.8 -203.35 L-548.48 -203.29 L-549.32 -203.2 L-549.98 -203.12 L-550.79 -203.01 L-551.59 -202.88 L-552.21 -202.77 L-552.98 -202.62 L-553.73 -202.46 L-554.32 -202.31 L-555.06 -202.12 L-555.79 -201.91 L-556.37 -201.73 L-557.1 -201.49 L-557.81 -201.23 L-558.38 -201.01 L-559.09 -200.73 L-559.78 -200.44 L-560.34 -200.2 L-561.02 -199.89 L-561.69 -199.56 L-562.23 -199.29 L-562.89 -198.95 L-563.54 -198.59 L-564.05 -198.29 L-564.69 -197.92 L-565.32 -197.53 L-565.82 -197.21 L-566.44 -196.8 L-567.06 -196.38 L-567.54 -196.03 L-568.15 -195.59 L-568.74 -195.14 L-569.21 -194.77 L-569.79 -194.3 L-570.36 -193.82 L-570.81 -193.43 L-571.37 -192.93 L-571.92 -192.42 L-572.35 -192.0 L-572.88 -191.47 L-573.41 -190.93 L-573.82 -190.5 L-574.33 -189.94 L-574.83 -189.37 L-575.22 -188.92 L-575.71 -188.34 L-576.18 -187.75 L-576.55 -187.27 L-577.0 -186.67 L-577.45 -186.06 L-577.79 -185.56 L-578.21 -184.94 L-578.61 -184.31 L-578.93 -183.8 L-579.31 -183.15 L-579.68 -182.49 L-579.96 -181.96 L-580.31 -181.29 L-580.63 -180.61 L-580.89 -180.07 L-581.19 -179.38 L-581.47 -178.69 L-581.69 -178.13 L-581.95 -177.44 L-582.15 -176.88 L-582.38 -176.18 L-582.6 -175.48 L-582.81 -174.79 L-582.96 -174.23 L-583.15 -173.53 L-583.29 -172.98 L-583.46 -172.29 L-583.62 -171.61 L-583.74 -171.06 L-583.89 -170.39 L-584.03 -169.72 L-584.13 -169.18 L-584.25 -168.5 L-584.37 -167.83 L-584.47 -167.29 L-584.58 -166.61 L-584.68 -165.93 L-584.77 -165.39 L-584.87 -164.71 L-584.97 -164.02 L-585.04 -163.47 L-585.13 -162.78 L-585.23 -162.07 L-585.3 -161.51 L-585.39 -160.79 L-585.48 -160.06 L-585.56 -159.47 L-585.65 -158.72 L-585.74 -157.96 L-585.82 -157.34 L-585.91 -156.55 L-586.01 -155.74 L-586.09 -155.09 L-586.19 -154.26 L-586.3 -153.4 L-586.38 -152.71 L-586.49 -151.83 L-586.6 -150.93 L-586.69 -150.19 L-586.81 -149.25 L-586.93 -148.29 L-587.05 -147.31 L-587.15 -146.51 L-587.27 -145.49 L-587.4 -144.45 L-587.5 -143.61 L-587.63 -142.53 L-587.73 -141.65 L-587.87 -140.54 L-588.0 -139.4 L-588.14 -138.24 L-588.25 -137.3 L-588.39 -136.11 L-588.53 -134.89 L-588.65 -133.91 L-588.8 -132.67 L-588.95 -131.41 L-589.07 -130.39 L-589.22 -129.1 L-589.38 -127.81 L-589.5 -126.77 L-589.66 -125.46 L-589.82 -124.15 L-589.95 -123.1 L-590.11 -121.78 L-590.27 -120.46 L-590.39 -119.4 L-590.56 -118.07 L-590.72 -116.74 L-590.85 -115.68 L-591.01 -114.34 L-591.17 -113.0 L-591.3 -111.92 L-591.47 -110.58 L-591.63 -109.24 L-591.76 -108.19 L-591.93 -106.88 L-592.09 -105.59 L-592.21 -104.57 L-592.37 -103.31 L-592.53 -102.06 L-592.65 -101.07 L-592.8 -99.83 L-592.95 -98.6 L-593.07 -97.63 L-593.22 -96.42 L-593.37 -95.22 L-593.49 -94.27 L-593.64 -93.08 L-593.79 -91.9 L-593.91 -90.96 L-594.06 -89.8 L-594.21 -88.63 L-594.33 -87.7 L-594.49 -86.55 L-594.66 -85.4 L-594.8 -84.48 L-594.97 -83.34 L-595.15 -82.21 L-595.3 -81.31 L-595.5 -80.18 L-595.7 -79.07 L-595.87 -78.18 L-596.09 -77.08 L-596.31 -75.98 L-596.5 -75.11 L-596.74 -74.02 L-597.0 -72.94 L-597.21 -72.08 L-597.48 -71.01 L-597.77 -69.94 L-598.01 -69.09 L-598.32 -68.03 L-598.64 -66.98 L-598.9 -66.14 L-599.24 -65.1 L-599.6 -64.07 L-599.89 -63.24 L-600.27 -62.22 L-600.67 -61.2 L-600.99 -60.39 L-601.41 -59.38 L-601.84 -58.38 L-602.2 -57.59 L-602.65 -56.6 L-603.11 -55.62 L-603.49 -54.84 L-603.97 -53.87 L-604.46 -52.91 L-604.86 -52.15 L-605.36 -51.2 L-605.87 -50.26 L-606.28 -49.5 L-606.79 -48.57 L-607.31 -47.64 L-607.73 -46.89 L-608.26 -45.97 L-608.8 -45.05 L-609.23 -44.31 L-609.78 -43.4 L-610.33 -42.5 L-610.78 -41.78 L-611.34 -40.88 L-611.91 -39.99 L-612.37 -39.28 L-612.94 -38.4 L-613.52 -37.52 L-613.98 -36.81 L-614.56 -35.94 L-615.02 -35.24 L-615.6 -34.37 L-616.17 -33.5 L-616.64 -32.8 L-617.21 -31.93 L-617.79 -31.06 L-618.25 -30.37 L-618.83 -29.51 L-619.41 -28.64 L-619.87 -27.95 L-620.45 -27.09 L-621.02 -26.23 L-621.49 -25.54 L-622.06 -24.68 L-622.64 -23.82 L-623.1 -23.13 L-623.67 -22.28 L-624.25 -21.42 L-624.7 -20.74 L-625.27 -19.89 L-625.84 -19.03 L-626.29 -18.35 L-626.85 -17.49 L-627.41 -16.64 L-627.85 -15.95 L-628.4 -15.1 L-628.95 -14.24 L-629.38 -13.55 L-629.92 -12.7 L-630.46 -11.84 L-630.88 -11.15 L-631.41 -10.29 L-631.93 -9.42 L-632.34 -8.73 L-632.85 -7.87 L-633.35 -7.0 L-633.74 -6.31 L-634.22 -5.44 L-634.69 -4.56 L-635.05 -3.86 L-635.5 -2.97 L-635.93 -2.08 L-636.26 -1.37 L-636.67 -0.47 L-637.06 0.43 L-637.37 1.16 L-637.74 2.07 L-638.09 2.99 L-638.36 3.72 L-638.68 4.65 L-638.99 5.58 L-639.23 6.32 L-639.51 7.26 L-639.77 8.2 L-639.97 8.95 L-640.2 9.9 L-640.42 10.85 L-640.59 11.61 L-640.77 12.57 L-640.95 13.52 L-641.08 14.29 L-641.22 15.25 L-641.35 16.21 L-641.44 16.98 L-641.53 17.94 L-641.61 18.9 L-641.67 19.68 L-641.71 20.64 L-641.75 21.6 L-641.76 22.37 L-641.76 23.33 L-641.74 24.3 L-641.71 25.06 L-641.66 26.02 L-641.59 26.98 L-641.52 27.74 L-641.42 28.69 L-641.3 29.64 L-641.19 30.4 L-641.04 31.35 L-640.87 32.29 L-640.72 33.04 L-640.52 33.98 L-640.31 34.91 L-640.13 35.65 L-639.89 36.57 L-639.63 37.49 L-639.41 38.22 L-639.13 39.13 L-638.83 40.03 L-638.58 40.75 L-638.26 41.64 L-637.92 42.52 L-637.64 43.23 L-637.28 44.1 L-636.9 44.96 L-636.51 45.82 L-636.19 46.5 L-635.78 47.34 L-635.44 48.01 L-635.0 48.84 L-634.55 49.66 L-634.08 50.47 L-633.7 51.12 L-633.22 51.91 L-632.72 52.7 L-632.31 53.32 L-631.8 54.09 L-631.37 54.71 L-630.84 55.46 L-630.29 56.21 L-629.84 56.8 L-629.27 57.53 L-628.7 58.26 L-628.23 58.83 L-627.63 59.55 L-627.02 60.26 L-626.52 60.83 L-625.89 61.53 L-625.26 62.24 L-624.74 62.8 L-624.09 63.5 L-623.44 64.21 L-622.91 64.77 L-622.25 65.47 L-621.57 66.18 L-620.89 66.89 L-620.34 67.46 L-619.64 68.18 L-619.08 68.76 L-618.37 69.48 L-617.65 70.22 L-617.06 70.81 L-616.32 71.56 L-615.58 72.31 L-614.82 73.07 L-614.21 73.68 L-613.44 74.45 L-612.66 75.23 L-612.02 75.85 L-611.22 76.65 L-610.4 77.45 L-609.74 78.11 L-608.9 78.93 L-608.04 79.77 L-607.35 80.45 L-606.47 81.31 L-605.58 82.18 L-604.86 82.89 L-603.95 83.78 L-603.03 84.68 L-602.28 85.42 L-601.34 86.34 L-600.38 87.27 L-599.61 88.03 L-598.63 88.97 L-597.65 89.93 L-596.85 90.7 L-595.85 91.67 L-594.83 92.65 L-594.01 93.45 L-592.98 94.44 L-591.94 95.45 L-591.1 96.26 L-590.04 97.28 L-588.97 98.31 L-588.11 99.15 L-587.02 100.2 L-585.92 101.27 L-585.03 102.13 L-583.91 103.21 L-582.78 104.3 L-581.87 105.18 L-580.74 106.27 L-579.6 107.37 L-578.69 108.25 L-577.55 109.35 L-576.4 110.45 L-575.48 111.34 L-574.33 112.44 L-573.18 113.55 L-572.25 114.44 L-571.09 115.56 L-569.93 116.68 L-569.0 117.58 L-567.83 118.71 L-566.66 119.84 L-565.72 120.75 L-564.55 121.89 L-563.37 123.03 L-562.43 123.95 L-561.24 125.09 L-560.06 126.23 L-559.12 127.14 L-557.95 128.27 L-556.79 129.39 L-555.87 130.27 L-554.73 131.37 L-553.6 132.46 L-552.7 133.32 L-551.59 134.38 L-550.48 135.43 L-549.61 136.27 L-548.51 137.32 L-547.43 138.35 L-546.57 139.16 L-545.5 140.17 L-544.45 141.16 L-543.62 141.95 L-542.58 142.92 L-541.56 143.89 L-540.75 144.66 L-539.75 145.63 L-538.77 146.59 L-538.0 147.35 L-537.04 148.3 L-536.09 149.24 L-535.34 149.99 L-534.41 150.91 L-533.49 151.83 L-532.76 152.56 L-531.85 153.46 L-530.96 154.36 L-530.24 155.07 L-529.36 155.95 L-528.49 156.83 L-527.8 157.53 L-526.94 158.4 L-526.09 159.27 L-525.42 159.96 L-524.59 160.83 L-523.78 161.7 L-523.14 162.4 L-522.34 163.28 L-521.72 163.99 L-520.96 164.89 L-520.21 165.79 L-519.62 166.52 L-518.91 167.45 L-518.21 168.37 L-517.66 169.12 L-516.99 170.06 L-516.34 171.01 L-515.84 171.78 L-515.22 172.74 L-514.62 173.72 L-514.15 174.5 L-513.59 175.49 L-513.04 176.48 L-512.61 177.28 L-512.09 178.28 L-511.58 179.29 L-511.18 180.1 L-510.7 181.12 L-510.22 182.14 L-509.85 182.97 L-509.39 184.0 L-508.95 185.04 L-508.6 185.87 L-508.16 186.91 L-507.73 187.96 L-507.38 188.81 L-506.94 189.87 L-506.5 190.94 L-506.15 191.81 L-505.7 192.89 L-505.25 193.99 L-504.89 194.87 L-504.43 195.98 L-503.97 197.11 L-503.59 198.02 L-503.11 199.18 L-502.63 200.34 L-502.23 201.29 L-501.73 202.49 L-501.21 203.71 L-500.8 204.7 L-500.27 205.95 L-499.74 207.22 L-499.3 208.25 L-498.75 209.55 L-498.2 210.87 L-497.75 211.94 L-497.18 213.3 L-496.72 214.39 L-496.14 215.78 L-495.55 217.18 L-495.08 218.31 L-494.49 219.74 L-493.89 221.18 L-493.4 222.34 L-492.79 223.81 L-492.18 225.28 L-491.69 226.47 L-491.07 227.96 L-490.57 229.15 L-489.94 230.66 L-489.31 232.17 L-488.68 233.69 L-488.17 234.9 L-487.54 236.43 L-486.9 237.95 L-486.39 239.18 L-485.75 240.71 L-485.1 242.24 L-484.59 243.47 L-483.94 245.01 L-483.29 246.55 L-482.77 247.78 L-482.13 249.3 L-481.5 250.81 L-480.99 252.01 L-480.37 253.49 L-479.75 254.97 L-479.26 256.13 L-478.65 257.58 L-478.05 259.02 L-477.58 260.16 L-476.99 261.58 L-476.4 262.99 L-475.94 264.11 L-475.36 265.5 L-474.8 266.87 L-474.35 267.96 L-473.8 269.31 L-473.25 270.64 L-472.82 271.69 L-472.29 272.98 L-471.75 274.26 L-471.33 275.27 L-470.8 276.51 L-470.28 277.73 L-469.86 278.7 L-469.34 279.89 L-468.83 281.07 L-468.43 282.0 L-467.93 283.14 L-467.43 284.26 L-467.04 285.15 L-466.56 286.24 L-466.07 287.31 L-465.68 288.15 L-465.2 289.19 L-464.73 290.21 L-464.35 291.03 L-463.89 292.03 L-463.44 293.03 L-463.09 293.82 L-462.66 294.8 L-462.24 295.76 L-461.91 296.52 L-461.5 297.45 L-461.1 298.38 L-460.79 299.12 L-460.42 300.05 L-460.06 300.96 L-459.79 301.7 L-459.46 302.61 L-459.16 303.51 L-458.93 304.24 L-458.66 305.14 L-458.42 306.03 L-458.23 306.75 L-458.02 307.63 L-457.84 308.52 L-457.7 309.22 L-457.55 310.09 L-457.41 310.96 L-457.32 311.64 L-457.22 312.49 L-457.13 313.33 L-457.08 313.99 L-457.02 314.81 L-456.97 315.61 L-456.94 316.25 L-456.91 317.03 L-456.9 317.81 L-456.89 318.42 L-456.9 319.18 L-456.92 319.92 L-456.94 320.5 L-456.98 321.22 L-457.02 321.92 L-457.06 322.46 L-457.12 323.13 L-457.17 323.77 L-457.21 324.28 L-457.26 324.89 L-457.3 325.5 L-457.34 325.97 L-457.37 326.54 L-457.41 327.1 L-457.44 327.53 L-457.47 328.06 L-457.5 328.56 L-457.53 328.95 L-457.56 329.43 L-457.58 329.88 L-457.59 330.22 L-457.6 330.63 L-457.6 331.02 L-457.61 331.32 L-457.61 331.68 L-457.6 332.02 L-457.59 332.29 L-457.57 332.62 L-457.54 332.95 L-457.5 333.22 L-457.45 333.55 L-457.37 333.88 L-457.31 334.15 L-457.21 334.49 L-457.09 334.83 L-456.98 335.11 L-456.82 335.45 L-456.65 335.8 L-456.5 336.08 L-456.29 336.43 L-456.08 336.78 L-455.9 337.07 L-455.66 337.44 L-455.41 337.82 L-455.19 338.14 L-454.92 338.54 L-454.62 338.95 L-454.37 339.28 L-454.05 339.71 L-453.72 340.14 L-453.45 340.49 L-453.1 340.92 L-452.74 341.35 L-452.45 341.69 L-452.08 342.11 L-451.71 342.53 L-451.4 342.86 L-451.01 343.27 L-450.61 343.67 L-450.28 343.99 L-449.87 344.38 L-449.53 344.69 L-449.11 345.06 L-448.68 345.43 L-448.34 345.71 L-447.91 346.06 L-447.48 346.39 L-447.14 346.64 L-446.71 346.95 L-446.27 347.24 L-445.93 347.47 L-445.49 347.74 L-445.05 347.99 L-444.7 348.19 L-444.27 348.42 L-443.83 348.63 L-443.48 348.8 L-443.04 348.99 L-442.61 349.17 L-442.26 349.3 L-441.82 349.46 L-441.39 349.6 L-441.05 349.7 L-440.62 349.82 L-440.2 349.92 L-439.86 350.0 L-439.45 350.09 L-439.04 350.16 L-438.73 350.22 L-438.33 350.27 L-437.95 350.32 L-437.65 350.36 L-437.27 350.39 L-436.89 350.42 L-436.59 350.43 L-436.21 350.44 L-435.83 350.45 L-435.52 350.45 L-435.14 350.45 L-434.76 350.44 L-434.45 350.42 L-434.06 350.4 L-433.67 350.37 L-433.36 350.34 L-432.96 350.3 L-432.56 350.26 L-432.24 350.22 L-431.83 350.16 L-431.51 350.11 L-431.1 350.04 L-430.68 349.97 L-430.26 349.89 L-429.92 349.83 L-429.49 349.74 L-429.15 349.66 L-428.71 349.57 L-428.27 349.47 L-427.91 349.39 L-427.46 349.29 L-427.01 349.19 L-426.64 349.1 L-426.18 348.99 L-425.7 348.88 L-425.31 348.79 L-424.81 348.67 L-424.3 348.55 L-423.88 348.45 L-423.35 348.32 L-422.81 348.2 L-422.37 348.09 L-421.81 347.96 L-421.23 347.83 L-420.76 347.72 L-420.16 347.57 L-419.55 347.43 L-419.04 347.3 L-418.39 347.15 L-417.73 346.99 L-417.19 346.86 L-416.49 346.69 L-415.79 346.52 L-415.21 346.38 L-414.47 346.2 L-413.72 346.01 L-413.11 345.86 L-412.33 345.66 L-411.54 345.47 L-410.9 345.3 L-410.09 345.1 L-409.27 344.89 L-408.61 344.73 L-407.78 344.52 L-406.95 344.31 L-406.28 344.14 L-405.45 343.92 L-404.63 343.7 L-403.98 343.53 L-403.18 343.32 L-402.38 343.1 L-401.75 342.93 L-400.97 342.72 L-400.21 342.52 L-399.6 342.35 L-398.85 342.15 L-398.12 341.95 L-397.54 341.79 L-396.82 341.59 L-396.12 341.39 L-395.57 341.24 L-394.89 341.04 L-394.22 340.84 L-393.69 340.69 L-393.03 340.49 L-392.39 340.3 L-391.88 340.16 L-391.26 339.98 L-390.67 339.8 L-390.21 339.65 L-389.65 339.47 L-389.13 339.27 L-388.72 339.11 L-388.24 338.9 L-387.77 338.68 L-387.4 338.5 L-386.96 338.27 L-386.54 338.02 L-386.21 337.82 L-385.81 337.56 L-385.42 337.3 L-385.12 337.08 L-384.76 336.8 L-384.42 336.51 L-384.15 336.28 L-383.83 335.99 L-383.52 335.7 L-383.29 335.46 L-383.01 335.16 L-382.74 334.86 L-382.54 334.63 L-382.3 334.33 L-382.07 334.03 L-381.9 333.8 L-381.69 333.5 L-381.5 333.22 L-381.35 332.99 L-381.18 332.71 L-381.02 332.44 L-380.9 332.23 L-380.76 331.98 L-380.63 331.72 L-380.54 331.53 L-380.43 331.28 L-380.33 331.03 L-380.25 330.84 L-380.17 330.59 L-380.09 330.35 L-380.03 330.16 L-379.97 329.93 L-379.91 329.7 L-379.88 329.51 L-379.83 329.29 L-379.8 329.06 L-379.77 328.89 L-379.75 328.67 L-379.73 328.46 L-379.72 328.29 L-379.71 328.07 L-379.71 327.85 L-379.71 327.68 L-379.72 327.46 L-379.74 327.24 L-379.76 327.06 L-379.78 326.83 L-379.81 326.6 L-379.84 326.41 L-379.87 326.18 L-379.91 325.94 L-379.94 325.74 L-379.98 325.49 L-380.02 325.23 L-380.05 325.02 L-380.09 324.74 L-380.14 324.44 L-380.18 324.2 L-380.23 323.88 L-380.29 323.55 L-380.33 323.27 L-380.39 322.91 L-380.45 322.52 L-380.5 322.2 L-380.58 321.77 L-380.65 321.32 L-380.71 320.94 L-380.8 320.45 L-380.88 319.93 L-380.96 319.49 L-381.05 318.92 L-381.15 318.33 L-381.24 317.84 L-381.35 317.21 L-381.47 316.54 L-381.56 315.99 L-381.69 315.28 L-381.82 314.54 L-381.93 313.93 L-382.07 313.14 L-382.22 312.32 L-382.34 311.65 L-382.49 310.78 L-382.66 309.89 L-382.79 309.16 L-382.96 308.22 L-383.13 307.26 L-383.27 306.47 L-383.45 305.47 L-383.64 304.45 L-383.79 303.62 L-383.97 302.58 L-384.16 301.52 L-384.31 300.66 L-384.5 299.59 L-384.69 298.49 L-384.84 297.61 L-385.04 296.5 L-385.19 295.61 L-385.39 294.49 L-385.59 293.35 L-385.8 292.21 L-385.97 291.3 L-386.17 290.14 L-386.34 289.21 L-386.56 288.04 L-386.77 286.86 L-386.95 285.91 L-387.17 284.72 L-387.39 283.52 L-387.57 282.56 L-387.8 281.34 L-388.03 280.12 L-388.22 279.14 L-388.45 277.9 L-388.67 276.65 L-388.85 275.65 L-389.08 274.39 L-389.3 273.12 L-389.48 272.1 L-389.7 270.82 L-389.92 269.52 L-390.1 268.48 L-390.32 267.18 L-390.55 265.86 L-390.73 264.79 L-390.96 263.45 L-391.19 262.09 L-391.38 260.99 L-391.62 259.61 L-391.86 258.2 L-392.06 257.07 L-392.32 255.63 L-392.57 254.18 L-392.78 253.01 L-393.05 251.53 L-393.31 250.04 L-393.53 248.84 L-393.8 247.34 L-394.08 245.83 L-394.3 244.62 L-394.58 243.11 L-394.86 241.59 L-395.09 240.37 L-395.38 238.85 L-395.67 237.32 L-395.91 236.1 L-396.22 234.56 L-396.53 233.03 L-396.78 231.8 L-397.1 230.26 L-397.43 228.73 L-397.69 227.49 L-398.03 225.95 L-398.36 224.4 L-398.63 223.16 L-398.96 221.6 L-399.28 220.03 L-399.54 218.77 L-399.84 217.18 L-400.14 215.6 L-400.37 214.33 L-400.67 212.74 L-400.95 211.14 L-401.18 209.86 L-401.47 208.27 L-401.76 206.67 L-401.99 205.39 L-402.28 203.79 L-402.51 202.52 L-402.8 200.93 L-403.09 199.35 L-403.33 198.09 L-403.62 196.52 L-403.92 194.95 L-404.15 193.7 L-404.45 192.15 L-404.75 190.59 L-405.05 189.05 L-405.29 187.81 L-405.6 186.27 L-405.84 185.04 L-406.14 183.51 L-406.44 181.99 L-406.69 180.77 L-406.99 179.25 L-407.28 177.73 L-407.52 176.52 L-407.8 175.01 L-408.09 173.51 L-408.31 172.31 L-408.59 170.81 L-408.87 169.32 L-409.09 168.14 L-409.36 166.66 L-409.63 165.18 L-409.85 164.01 L-410.13 162.55 L-410.4 161.09 L-410.62 159.92 L-410.89 158.47 L-411.16 157.01 L-411.38 155.85 L-411.65 154.41 L-411.92 152.96 L-412.14 151.81 L-412.42 150.37 L-412.69 148.93 L-412.91 147.79 L-413.18 146.35 L-413.45 144.92 L-413.66 143.78 L-413.93 142.35 L-414.19 140.93 L-414.39 139.79 L-414.64 138.36 L-414.88 136.93 L-415.06 135.79 L-415.27 134.35 L-415.47 132.91 L-415.61 131.76 L-415.77 130.32 L-415.9 128.87 L-416.0 127.71 L-416.1 126.25 L-416.17 124.79 L-416.21 123.62 L-416.25 122.15 L-416.26 120.68 L-416.26 119.49 L-416.24 118.02 L-416.21 116.54 L-416.17 115.37 L-416.11 113.9 L-416.04 112.44 L-415.97 111.27 L-415.88 109.81 L-415.78 108.37 L-415.69 107.21 L-415.57 105.77 L-415.44 104.33 L-415.32 103.18 L-415.17 101.76 L-415.02 100.34 L-414.89 99.21 L-414.72 97.8 L-414.55 96.4 L-414.41 95.28 L-414.22 93.88 L-414.02 92.49 L-413.86 91.38 L-413.65 90.0 L-413.44 88.63 L-413.26 87.54 L-413.04 86.18 L-412.81 84.83 L-412.62 83.75 L-412.38 82.41 L-412.13 81.08 L-411.92 80.02 L-411.65 78.7 L-411.37 77.39 L-411.14 76.35 L-410.85 75.05 L-410.55 73.77 L-410.31 72.75 L-410.01 71.48 L-409.7 70.22 L-409.45 69.22 L-409.14 67.98 L-408.83 66.74 L-408.57 65.76 L-408.25 64.54 L-407.92 63.33 L-407.65 62.37 L-407.31 61.18 L-406.97 60.0 L-406.69 59.06 L-406.34 57.89 L-405.99 56.74 L-405.7 55.82 L-405.33 54.68 L-404.96 53.54 L-404.66 52.64 L-404.28 51.53 L-403.89 50.43 L-403.57 49.55 L-403.18 48.47 L-402.78 47.39 L-402.47 46.54 L-402.07 45.48 L-401.67 44.43 L-401.35 43.6 L-400.94 42.57 L-400.61 41.75 L-400.2 40.73 L-399.78 39.73 L-399.44 38.93 L-399.01 37.94 L-398.56 36.96 L-398.2 36.19 L-397.74 35.23 L-397.27 34.28 L-396.89 33.53 L-396.41 32.6 L-395.92 31.68 L-395.53 30.96 L-395.03 30.06 L-394.53 29.16 L-394.12 28.45 L-393.6 27.58 L-393.07 26.71 L-392.63 26.02 L-392.08 25.17 L-391.52 24.32 L-391.06 23.66 L-390.48 22.83 L-390.01 22.18 L-389.42 21.37 L-388.81 20.58 L-388.2 19.79 L-387.71 19.17 L-387.09 18.39 L-386.46 17.63 L-385.95 17.03 L-385.31 16.28 L-384.79 15.69 L-384.14 14.96 L-383.48 14.24 L-382.82 13.53 L-382.28 12.96 L-381.6 12.27 L-380.91 11.59 L-380.36 11.05 L-379.65 10.39 L-378.94 9.74 L-378.37 9.23 L-377.66 8.6 L-376.94 7.98 L-376.36 7.5 L-375.64 6.9 L-375.06 6.42 L-374.34 5.84 L-373.62 5.26 L-373.04 4.8 L-372.32 4.23 L-371.6 3.67 L-371.02 3.23 L-370.3 2.68 L-369.58 2.14 L-369.01 1.71 L-368.29 1.19 L-367.57 0.67 L-366.99 0.26 L-366.27 -0.25 L-365.54 -0.74 L-364.95 -1.12 L-364.22 -1.59 L-363.49 -2.04 L-362.9 -2.39 L-362.16 -2.82 L-361.43 -3.24 L-360.85 -3.56 L-360.12 -3.96 L-359.39 -4.35 L-358.81 -4.65 L-358.08 -5.01 L-357.35 -5.36 L-356.77 -5.62 L-356.03 -5.94 L-355.29 -6.23 L-354.7 -6.45 L-353.95 -6.7 L-353.19 -6.94 L-352.57 -7.11 L-351.8 -7.3 L-351.02 -7.47 L-350.4 -7.6 L-349.61 -7.74 L-348.82 -7.86 L-348.19 -7.95 L-347.39 -8.05 L-346.59 -8.13 L-345.96 -8.19 L-345.16 -8.26 L-344.36 -8.32 L-343.72 -8.36 L-342.92 -8.41 L-342.11 -8.46 L-341.47 -8.5 L-340.66 -8.54 L-339.84 -8.57 L-339.18 -8.6 L-338.36 -8.63 L-337.53 -8.66 L-336.86 -8.68 L-336.01 -8.7 L-335.16 -8.72 L-334.48 -8.74 L-333.61 -8.75 L-332.75 -8.77 L-332.05 -8.79 L-331.19 -8.8 L-330.31 -8.82 L-329.61 -8.83 L-328.74 -8.84 L-327.86 -8.85 L-327.15 -8.86 L-326.27 -8.87 L-325.56 -8.88 L-324.67 -8.89 L-323.78 -8.89 L-322.89 -8.9 L-322.18 -8.91 L-321.28 -8.91 L-320.56 -8.91 L-319.66 -8.92 L-318.76 -8.92 L-317.85 -8.92 L-317.12 -8.92 L-316.21 -8.92 L-315.3 -8.92 L-314.56 -8.92 L-313.64 -8.91 L-312.72 -8.91 L-311.98 -8.9 L-311.06 -8.89 L-310.13 -8.87 L-309.38 -8.86 L-308.45 -8.84 L-307.51 -8.82 L-306.76 -8.8 L-305.82 -8.77 L-304.88 -8.74 L-304.12 -8.71 L-303.17 -8.68 L-302.41 -8.64 L-301.45 -8.59 L-300.49 -8.53 L-299.72 -8.47 L-298.75 -8.38 L-297.79 -8.28 L-297.02 -8.19 L-296.05 -8.07 L-295.08 -7.94 L-294.31 -7.83 L-293.34 -7.68 L-292.37 -7.52 L-291.59 -7.39 L-290.62 -7.21 L-289.65 -7.04 L-288.88 -6.89 L-287.9 -6.71 L-286.92 -6.53 L-286.13 -6.38 L-285.14 -6.19 L-284.15 -6.01 L-283.36 -5.86 L-282.36 -5.67 L-281.56 -5.52 L-280.55 -5.33 L-279.54 -5.14 L-278.73 -4.99 L-277.7 -4.8 L-276.67 -4.61 L-275.84 -4.46 L-274.8 -4.27 L-273.75 -4.08 L-272.91 -3.93 L-271.85 -3.74 L-270.78 -3.54 L-269.93 -3.39 L-268.85 -3.2 L-267.78 -3.02 L-266.92 -2.87 L-265.84 -2.7 L-264.76 -2.54 L-263.9 -2.42 L-262.82 -2.28 L-261.73 -2.16 L-260.85 -2.08 L-259.75 -2.0 L-258.64 -1.93 L-257.73 -1.88 L-256.58 -1.84 L-255.41 -1.81 L-254.46 -1.79 L-253.25 -1.77 L-252.01 -1.76 L-251.0 -1.75 L-249.72 -1.74 L-248.67 -1.74 L-247.34 -1.73 L-245.98 -1.73 L-244.87 -1.74 L-243.46 -1.74 L-242.02 -1.74 L-240.55 -1.75 L-239.36 -1.75 L-237.83 -1.76 L-236.28 -1.76 L-235.02 -1.77 L-233.42 -1.77 L-231.8 -1.78 L-230.47 -1.78 L-228.79 -1.78 L-227.09 -1.79 L-225.71 -1.79 L-223.96 -1.79 L-222.54 -1.79 L-220.75 -1.8 L-218.92 -1.8 L-217.45 -1.8 L-215.58 -1.8 L-213.69 -1.81 L-212.15 -1.81 L-210.22 -1.81 L-208.27 -1.81 L-206.69 -1.81 L-204.71 -1.81 L-202.72 -1.81 L-201.11 -1.81 L-199.1 -1.81 L-197.07 -1.81 L-195.45 -1.81 L-193.4 -1.81 L-191.34 -1.81 L-189.69 -1.81 L-187.61 -1.8 L-185.52 -1.8 L-183.84 -1.8 L-181.72 -1.8 L-179.6 -1.8 L-177.89 -1.8 L-175.73 -1.8 L-173.56 -1.8 L-171.82 -1.79 L-169.62 -1.79 L-167.4 -1.79 L-165.62 -1.79 L-163.38 -1.79 L-161.12 -1.79 L-159.31 -1.79 L-157.02 -1.78 L-154.73 -1.78 L-152.88 -1.78 L-150.56 -1.77 L-148.22 -1.77 L-146.34 -1.77 L-143.97 -1.77 L-141.59 -1.76 L-139.68 -1.76 L-137.27 -1.76 L-134.85 -1.76 L-132.9 -1.77 L-130.45 -1.77 L-127.99 -1.78 L-126.0 -1.78 L-123.5 -1.79 L-120.99 -1.8 L-118.96 -1.81 L-116.4 -1.82 L-113.82 -1.83 L-111.75 -1.84 L-109.14 -1.85 L-107.05 -1.87 L-104.42 -1.88 L-101.79 -1.9 L-99.16 -1.91 L-97.04 -1.93 L-94.4 -1.94 L-91.75 -1.96 L-89.62 -1.98 L-86.96 -2.0 L-84.83 -2.01 L-82.15 -2.02 L-79.48 -2.04 L-77.33 -2.04 L-74.64 -2.05 L-71.94 -2.05 L-69.78 -2.04 L-67.08 -2.04 L-64.37 -2.03 L-61.65 -2.03 L-59.47 -2.02 L-56.75 -2.01 L-54.02 -2.0 L-51.83 -1.99 L-49.09 -1.98 L-46.34 -1.97 L-44.13 -1.96 L-41.37 -1.95 L-38.6 -1.94 L-36.39 -1.93 L-33.62 -1.93 L-30.84 -1.93 L-28.61 -1.93 L-25.82 -1.94 L-23.02 -1.95 L-20.78 -1.96 L-17.97 -1.97 L-15.15 -1.98 L-12.9 -1.99 L-10.07 -2.01 L-7.24 -2.03 L-4.97 -2.04 L-2.13 -2.06 L0.72 -2.08 L3.0 -2.09 L5.86 -2.1 L8.72 -2.12 L11.02 -2.12 L13.89 -2.13 L16.77 -2.13 L19.08 -2.13 L21.98 -2.13 L24.87 -2.12 L27.2 -2.11 L30.1 -2.1 L33.02 -2.09 L35.35 -2.08 L38.28 -2.06 L41.21 -2.05 L43.56 -2.04 L46.5 -2.03 L49.45 -2.01 L51.81 -2.0 L54.76 -1.99 L57.71 -1.99 L60.06 -1.98 L62.99 -1.98 L65.92 -1.98 L68.27 -1.98 L71.19 -1.98 L74.1 -1.98 L76.43 -1.99 L79.34 -1.99 L82.24 -2.0 L84.56 -2.01 L87.45 -2.02 L90.34 -2.04 L92.64 -2.05 L95.52 -2.06 L98.4 -2.07L104.0 12.04 L101.67 12.04 L99.34 12.04 L97.47 12.04 L95.13 12.04 L92.79 12.04 L90.91 12.04 L88.56 12.04 L86.2 12.05 L84.31 12.05 L81.93 12.05 L79.55 12.06 L77.64 12.06 L75.24 12.06 L72.84 12.07 L70.91 12.07 L68.51 12.07 L66.12 12.08 L64.2 12.08 L61.81 12.09 L59.43 12.09 L57.53 12.1 L55.15 12.1 L52.78 12.1 L50.89 12.11 L48.53 12.11 L46.17 12.11 L44.29 12.12 L41.95 12.12 L39.6 12.12 L37.73 12.12 L35.4 12.13 L33.07 12.13 L31.2 12.13 L28.88 12.13 L26.57 12.13 L24.72 12.13 L22.41 12.14 L20.11 12.14 L18.27 12.14 L15.98 12.14 L13.69 12.14 L11.86 12.14 L9.59 12.13 L7.31 12.13 L5.5 12.13 L3.23 12.13 L0.97 12.13 L-0.83 12.12 L-3.08 12.12 L-5.33 12.12 L-7.12 12.12 L-9.36 12.12 L-11.59 12.12 L-13.38 12.13 L-15.6 12.13 L-17.82 12.13 L-19.59 12.14 L-21.8 12.14 L-24.01 12.15 L-25.77 12.15 L-27.97 12.16 L-30.17 12.16 L-31.92 12.17 L-34.1 12.18 L-36.28 12.18 L-38.03 12.19 L-40.2 12.19 L-42.37 12.2 L-44.1 12.2 L-46.26 12.21 L-48.41 12.22 L-50.13 12.22 L-52.28 12.22 L-54.42 12.23 L-56.13 12.23 L-58.27 12.23 L-60.4 12.23 L-62.1 12.23 L-64.22 12.23 L-66.34 12.23 L-68.03 12.22 L-70.14 12.22 L-72.25 12.21 L-73.93 12.2 L-76.03 12.19 L-77.7 12.19 L-79.79 12.18 L-81.87 12.17 L-83.54 12.16 L-85.61 12.15 L-87.69 12.14 L-89.34 12.13 L-91.41 12.13 L-93.47 12.12 L-95.11 12.12 L-97.16 12.12 L-99.2 12.12 L-100.81 12.12 L-102.81 12.12 L-104.8 12.12 L-106.37 12.12 L-108.31 12.13 L-109.84 12.13 L-111.73 12.14 L-113.6 12.14 L-115.45 12.15 L-116.92 12.16 L-118.72 12.16 L-120.51 12.17 L-121.92 12.17 L-123.67 12.18 L-125.39 12.18 L-126.75 12.18 L-128.43 12.19 L-130.09 12.19 L-131.4 12.19 L-133.03 12.19 L-134.64 12.19 L-135.92 12.19 L-137.51 12.2 L-139.09 12.2 L-140.35 12.2 L-141.91 12.2 L-143.46 12.2 L-144.69 12.2 L-146.21 12.2 L-147.72 12.2 L-148.93 12.2 L-150.42 12.2 L-151.91 12.2 L-153.1 12.2 L-154.58 12.2 L-156.06 12.2 L-157.24 12.2 L-158.72 12.2 L-160.19 12.21 L-161.36 12.21 L-162.82 12.21 L-164.28 12.21 L-165.45 12.21 L-166.9 12.21 L-168.36 12.22 L-169.51 12.22 L-170.96 12.23 L-172.12 12.23 L-173.56 12.23 L-174.99 12.24 L-176.43 12.24 L-177.57 12.25 L-179.0 12.25 L-180.14 12.25 L-181.56 12.26 L-182.98 12.26 L-184.12 12.27 L-185.53 12.27 L-186.94 12.28 L-188.07 12.28 L-189.48 12.28 L-190.88 12.29 L-192.0 12.29 L-193.39 12.29 L-194.79 12.3 L-195.9 12.3 L-197.29 12.3 L-198.68 12.31 L-199.78 12.31 L-201.16 12.31 L-202.54 12.31 L-203.64 12.32 L-205.01 12.32 L-206.38 12.32 L-207.47 12.32 L-208.84 12.32 L-210.2 12.32 L-211.29 12.32 L-212.64 12.32 L-213.99 12.32 L-215.07 12.32 L-216.42 12.31 L-217.76 12.31 L-218.84 12.31 L-220.18 12.31 L-221.24 12.31 L-222.58 12.31 L-223.91 12.31 L-224.97 12.31 L-226.3 12.31 L-227.62 12.3 L-228.68 12.3 L-229.99 12.3 L-231.31 12.3 L-232.62 12.29 L-233.67 12.29 L-234.97 12.29 L-236.01 12.29 L-237.32 12.29 L-238.61 12.28 L-239.65 12.28 L-240.94 12.28 L-242.23 12.28 L-243.26 12.28 L-244.55 12.28 L-245.83 12.27 L-246.85 12.27 L-248.12 12.27 L-249.39 12.27 L-250.4 12.27 L-251.66 12.27 L-252.92 12.27 L-253.91 12.28 L-255.15 12.28 L-256.37 12.28 L-257.34 12.28 L-258.54 12.28 L-259.72 12.28 L-260.66 12.28 L-261.83 12.28 L-262.97 12.28 L-263.88 12.28 L-265.0 12.28 L-265.89 12.28 L-266.98 12.29 L-268.05 12.29 L-269.11 12.29 L-269.95 12.29 L-270.98 12.29 L-271.8 12.3 L-272.81 12.3 L-273.8 12.3 L-274.58 12.3 L-275.55 12.31 L-276.51 12.31 L-277.27 12.31 L-278.21 12.32 L-279.14 12.32 L-279.87 12.33 L-280.78 12.33 L-281.68 12.34 L-282.39 12.34 L-283.27 12.34 L-283.97 12.35 L-284.84 12.35 L-285.7 12.36 L-286.38 12.36 L-287.22 12.37 L-288.05 12.37 L-288.71 12.38 L-289.53 12.38 L-290.34 12.39 L-290.98 12.39 L-291.77 12.4 L-292.56 12.4 L-293.19 12.41 L-293.96 12.42 L-294.74 12.42 L-295.35 12.43 L-296.12 12.44 L-296.88 12.45 L-297.49 12.46 L-298.24 12.47 L-299.0 12.49 L-299.6 12.5 L-300.35 12.52 L-301.1 12.54 L-301.7 12.56 L-302.44 12.59 L-303.18 12.63 L-303.77 12.66 L-304.51 12.71 L-305.25 12.76 L-305.84 12.81 L-306.58 12.87 L-307.32 12.95 L-307.92 13.01 L-308.67 13.1 L-309.42 13.2 L-310.02 13.28 L-310.77 13.39 L-311.53 13.5 L-312.14 13.6 L-312.91 13.72 L-313.68 13.85 L-314.3 13.96 L-315.08 14.11 L-315.86 14.26 L-316.48 14.39 L-317.27 14.56 L-318.06 14.73 L-318.69 14.88 L-319.48 15.07 L-320.28 15.26 L-320.92 15.43 L-321.72 15.64 L-322.52 15.86 L-323.17 16.04 L-323.98 16.27 L-324.79 16.5 L-325.44 16.7 L-326.26 16.95 L-327.08 17.2 L-327.73 17.41 L-328.55 17.68 L-329.37 17.96 L-330.02 18.18 L-330.83 18.47 L-331.64 18.76 L-332.28 19.0 L-333.08 19.3 L-333.88 19.61 L-334.51 19.86 L-335.3 20.18 L-336.08 20.5 L-336.71 20.76 L-337.48 21.09 L-338.26 21.42 L-338.87 21.69 L-339.64 22.03 L-340.4 22.38 L-341.01 22.65 L-341.76 23.0 L-342.51 23.36 L-343.11 23.64 L-343.85 24.01 L-344.58 24.37 L-345.17 24.67 L-345.89 25.04 L-346.61 25.43 L-347.33 25.82 L-347.9 26.14 L-348.62 26.54 L-349.32 26.95 L-349.89 27.28 L-350.58 27.7 L-351.28 28.12 L-351.83 28.47 L-352.51 28.91 L-353.06 29.26 L-353.73 29.7 L-354.41 30.16 L-355.08 30.62 L-355.61 31.0 L-356.27 31.48 L-356.93 31.96 L-357.46 32.36 L-358.11 32.86 L-358.63 33.27 L-359.28 33.79 L-359.93 34.32 L-360.45 34.74 L-361.09 35.28 L-361.73 35.83 L-362.24 36.27 L-362.88 36.83 L-363.51 37.4 L-364.15 37.98 L-364.65 38.44 L-365.27 39.03 L-365.9 39.62 L-366.39 40.1 L-367.01 40.7 L-367.63 41.31 L-368.12 41.81 L-368.73 42.43 L-369.34 43.05 L-369.82 43.56 L-370.43 44.2 L-371.03 44.84 L-371.51 45.36 L-372.1 46.0 L-372.7 46.65 L-373.16 47.18 L-373.75 47.84 L-374.32 48.51 L-374.78 49.05 L-375.35 49.73 L-375.91 50.42 L-376.36 50.97 L-376.91 51.67 L-377.45 52.38 L-377.88 52.94 L-378.42 53.66 L-378.94 54.39 L-379.36 54.97 L-379.87 55.7 L-380.27 56.3 L-380.77 57.04 L-381.26 57.8 L-381.65 58.4 L-382.12 59.17 L-382.58 59.94 L-382.95 60.56 L-383.4 61.35 L-383.84 62.14 L-384.19 62.78 L-384.61 63.59 L-385.03 64.4 L-385.37 65.05 L-385.78 65.87 L-386.18 66.7 L-386.5 67.36 L-386.89 68.2 L-387.28 69.03 L-387.58 69.71 L-387.96 70.55 L-388.33 71.4 L-388.62 72.09 L-388.98 72.95 L-389.33 73.81 L-389.61 74.5 L-389.95 75.37 L-390.29 76.25 L-390.56 76.95 L-390.89 77.83 L-391.22 78.71 L-391.47 79.42 L-391.79 80.31 L-392.11 81.2 L-392.36 81.91 L-392.66 82.81 L-392.96 83.7 L-393.2 84.42 L-393.49 85.33 L-393.77 86.24 L-394.0 86.96 L-394.28 87.87 L-394.55 88.79 L-394.77 89.52 L-395.03 90.44 L-395.29 91.36 L-395.5 92.1 L-395.74 93.02 L-395.99 93.95 L-396.18 94.7 L-396.41 95.63 L-396.64 96.56 L-396.82 97.31 L-397.03 98.25 L-397.2 99.0 L-397.4 99.94 L-397.6 100.89 L-397.75 101.64 L-397.92 102.59 L-398.1 103.54 L-398.23 104.31 L-398.38 105.26 L-398.53 106.22 L-398.64 106.99 L-398.78 107.95 L-398.91 108.91 L-399.0 109.68 L-399.12 110.65 L-399.22 111.61 L-399.3 112.39 L-399.39 113.36 L-399.47 114.33 L-399.54 115.11 L-399.61 116.08 L-399.67 117.05 L-399.71 117.83 L-399.76 118.81 L-399.79 119.79 L-399.82 120.57 L-399.84 121.55 L-399.86 122.54 L-399.87 123.32 L-399.88 124.31 L-399.89 125.3 L-399.89 126.09 L-399.89 127.08 L-399.89 128.07 L-399.88 128.86 L-399.88 129.85 L-399.86 130.84 L-399.85 131.62 L-399.84 132.61 L-399.82 133.59 L-399.81 134.37 L-399.79 135.35 L-399.77 136.32 L-399.76 137.1 L-399.74 138.07 L-399.72 139.03 L-399.71 139.81 L-399.69 140.77 L-399.67 141.73 L-399.66 142.49 L-399.64 143.45 L-399.62 144.4 L-399.61 145.16 L-399.59 146.11 L-399.57 147.05 L-399.56 147.81 L-399.54 148.75 L-399.52 149.68 L-399.51 150.43 L-399.49 151.36 L-399.47 152.29 L-399.45 153.03 L-399.43 153.96 L-399.41 154.88 L-399.39 155.62 L-399.37 156.54 L-399.35 157.45 L-399.33 158.18 L-399.3 159.09 L-399.27 160.0 L-399.24 160.73 L-399.21 161.63 L-399.17 162.53 L-399.14 163.25 L-399.08 164.14 L-399.04 164.85 L-398.96 165.72 L-398.87 166.59 L-398.79 167.28 L-398.67 168.14 L-398.53 169.0 L-398.42 169.69 L-398.26 170.55 L-398.11 171.41 L-397.98 172.1 L-397.82 172.97 L-397.67 173.83 L-397.55 174.52 L-397.41 175.38 L-397.27 176.23 L-397.16 176.91 L-397.02 177.76 L-396.88 178.61 L-396.77 179.29 L-396.63 180.14 L-396.49 181.0 L-396.37 181.69 L-396.22 182.55 L-396.07 183.42 L-395.95 184.12 L-395.8 185.0 L-395.65 185.88 L-395.52 186.6 L-395.36 187.49 L-395.2 188.39 L-395.07 189.12 L-394.9 190.03 L-394.73 190.95 L-394.59 191.69 L-394.41 192.62 L-394.23 193.56 L-394.09 194.32 L-393.91 195.27 L-393.73 196.23 L-393.59 197.01 L-393.41 197.98 L-393.23 198.96 L-393.08 199.75 L-392.89 200.75 L-392.7 201.76 L-392.55 202.57 L-392.36 203.6 L-392.16 204.64 L-392.0 205.49 L-391.8 206.55 L-391.6 207.62 L-391.43 208.49 L-391.23 209.59 L-391.02 210.7 L-390.85 211.6 L-390.64 212.74 L-390.43 213.89 L-390.25 214.83 L-390.03 216.01 L-389.8 217.21 L-389.62 218.19 L-389.39 219.42 L-389.15 220.68 L-388.97 221.69 L-388.73 222.98 L-388.48 224.29 L-388.29 225.34 L-388.04 226.68 L-387.79 228.03 L-387.59 229.13 L-387.33 230.52 L-387.07 231.92 L-386.85 233.05 L-386.58 234.49 L-386.31 235.94 L-386.08 237.11 L-385.8 238.58 L-385.52 240.06 L-385.29 241.25 L-385.01 242.73 L-384.72 244.2 L-384.5 245.37 L-384.21 246.84 L-383.93 248.3 L-383.71 249.47 L-383.42 250.92 L-383.14 252.37 L-382.92 253.53 L-382.63 254.97 L-382.35 256.41 L-382.13 257.56 L-381.85 258.99 L-381.57 260.42 L-381.35 261.56 L-381.08 262.98 L-380.8 264.39 L-380.58 265.52 L-380.3 266.93 L-380.03 268.33 L-379.81 269.45 L-379.53 270.85 L-379.26 272.24 L-379.05 273.36 L-378.78 274.75 L-378.51 276.13 L-378.3 277.23 L-378.04 278.61 L-377.78 279.98 L-377.58 281.08 L-377.33 282.45 L-377.12 283.54 L-376.87 284.89 L-376.62 286.24 L-376.42 287.32 L-376.18 288.65 L-375.94 289.97 L-375.74 291.01 L-375.51 292.3 L-375.27 293.58 L-375.09 294.58 L-374.86 295.82 L-374.63 297.05 L-374.45 298.01 L-374.23 299.21 L-374.01 300.38 L-373.84 301.3 L-373.63 302.44 L-373.42 303.56 L-373.25 304.43 L-373.05 305.5 L-372.86 306.54 L-372.7 307.36 L-372.52 308.35 L-372.34 309.31 L-372.2 310.07 L-372.03 310.99 L-371.87 311.88 L-371.75 312.58 L-371.6 313.44 L-371.45 314.28 L-371.33 314.94 L-371.19 315.74 L-371.09 316.36 L-370.95 317.13 L-370.82 317.87 L-370.72 318.45 L-370.6 319.15 L-370.48 319.84 L-370.36 320.51 L-370.27 321.04 L-370.16 321.67 L-370.05 322.29 L-369.97 322.78 L-369.87 323.37 L-369.77 323.95 L-369.7 324.4 L-369.6 324.95 L-369.53 325.39 L-369.44 325.92 L-369.36 326.44 L-369.29 326.84 L-369.21 327.34 L-369.14 327.83 L-369.08 328.22 L-369.01 328.69 L-368.94 329.15 L-368.89 329.52 L-368.83 329.96 L-368.77 330.39 L-368.73 330.73 L-368.68 331.15 L-368.63 331.56 L-368.59 331.88 L-368.54 332.28 L-368.5 332.68 L-368.47 332.99 L-368.43 333.37 L-368.39 333.75 L-368.37 334.05 L-368.34 334.42 L-368.32 334.79 L-368.31 335.08 L-368.3 335.45 L-368.3 335.81 L-368.32 336.1 L-368.35 336.46 L-368.39 336.81 L-368.43 337.08 L-368.49 337.42 L-368.57 337.75 L-368.64 338.01 L-368.74 338.33 L-368.85 338.64 L-368.95 338.88 L-369.08 339.17 L-369.22 339.46 L-369.35 339.68 L-369.51 339.95 L-369.68 340.21 L-369.82 340.42 L-370.0 340.67 L-370.2 340.92 L-370.41 341.17 L-370.58 341.36 L-370.82 341.61 L-371.02 341.81 L-371.29 342.07 L-371.58 342.32 L-371.82 342.53 L-372.15 342.78 L-372.49 343.02 L-372.78 343.22 L-373.16 343.46 L-373.56 343.69 L-373.9 343.87 L-374.33 344.1 L-374.78 344.31 L-375.16 344.49 L-375.64 344.69 L-376.13 344.89 L-376.54 345.04 L-377.05 345.22 L-377.58 345.4 L-378.01 345.53 L-378.56 345.71 L-379.11 345.89 L-379.57 346.03 L-380.15 346.22 L-380.75 346.4 L-381.23 346.54 L-381.85 346.72 L-382.48 346.9 L-382.99 347.05 L-383.64 347.23 L-384.3 347.41 L-384.84 347.56 L-385.52 347.74 L-386.21 347.92 L-386.77 348.06 L-387.48 348.24 L-388.2 348.42 L-388.79 348.57 L-389.53 348.75 L-390.27 348.93 L-390.87 349.08 L-391.63 349.27 L-392.4 349.46 L-393.01 349.62 L-393.78 349.81 L-394.55 350.0 L-395.17 350.16 L-395.94 350.34 L-396.71 350.53 L-397.32 350.67 L-398.09 350.84 L-398.85 351.01 L-399.46 351.14 L-400.22 351.31 L-400.97 351.47 L-401.57 351.61 L-402.31 351.78 L-403.05 351.96 L-403.64 352.1 L-404.37 352.29 L-405.1 352.47 L-405.68 352.62 L-406.39 352.81 L-407.09 353.0 L-407.65 353.15 L-408.34 353.33 L-409.02 353.51 L-409.55 353.65 L-410.21 353.82 L-410.85 353.99 L-411.37 354.13 L-412.0 354.29 L-412.62 354.45 L-413.12 354.58 L-413.74 354.74 L-414.36 354.89 L-414.85 355.02 L-415.46 355.17 L-416.06 355.32 L-416.55 355.45 L-417.15 355.6 L-417.75 355.75 L-418.22 355.87 L-418.82 356.02 L-419.41 356.17 L-419.89 356.29 L-420.49 356.44 L-421.1 356.6 L-421.59 356.72 L-422.21 356.88 L-422.83 357.04 L-423.33 357.17 L-423.96 357.34 L-424.6 357.5 L-425.11 357.64 L-425.74 357.8 L-426.38 357.97 L-426.88 358.1 L-427.51 358.27 L-428.02 358.4 L-428.65 358.56 L-429.27 358.73 L-429.78 358.86 L-430.4 359.03 L-431.03 359.19 L-431.52 359.32 L-432.15 359.47 L-432.77 359.63 L-433.26 359.76 L-433.88 359.91 L-434.5 360.07 L-434.99 360.19 L-435.6 360.34 L-436.21 360.49 L-436.69 360.61 L-437.28 360.75 L-437.86 360.89 L-438.32 361.0 L-438.88 361.13 L-439.44 361.26 L-439.88 361.36 L-440.44 361.49 L-440.99 361.6 L-441.43 361.69 L-441.99 361.78 L-442.54 361.87 L-442.99 361.94 L-443.54 362.01 L-444.1 362.07 L-444.54 362.11 L-445.1 362.15 L-445.65 362.18 L-446.1 362.19 L-446.65 362.2 L-447.2 362.19 L-447.64 362.18 L-448.19 362.15 L-448.75 362.1 L-449.19 362.06 L-449.74 361.99 L-450.3 361.9 L-450.75 361.82 L-451.3 361.71 L-451.85 361.58 L-452.29 361.47 L-452.83 361.32 L-453.36 361.15 L-453.78 361.01 L-454.3 360.81 L-454.82 360.6 L-455.22 360.43 L-455.72 360.2 L-456.21 359.96 L-456.6 359.75 L-457.08 359.48 L-457.57 359.2 L-457.95 358.97 L-458.44 358.67 L-458.92 358.35 L-459.3 358.09 L-459.79 357.75 L-460.27 357.4 L-460.66 357.1 L-461.14 356.73 L-461.61 356.33 L-461.98 356.02 L-462.44 355.61 L-462.89 355.19 L-463.23 354.85 L-463.65 354.41 L-464.06 353.96 L-464.38 353.59 L-464.77 353.13 L-465.14 352.66 L-465.42 352.27 L-465.77 351.79 L-466.03 351.4 L-466.36 350.9 L-466.67 350.4 L-466.96 349.89 L-467.19 349.48 L-467.46 348.97 L-467.67 348.55 L-467.92 348.02 L-468.15 347.49 L-468.32 347.06 L-468.53 346.52 L-468.72 345.98 L-468.85 345.54 L-469.01 345.0 L-469.16 344.45 L-469.26 344.0 L-469.37 343.45 L-469.47 342.9 L-469.54 342.45 L-469.61 341.9 L-469.67 341.35 L-469.7 340.9 L-469.73 340.35 L-469.75 339.8 L-469.75 339.36 L-469.74 338.81 L-469.71 338.27 L-469.68 337.84 L-469.64 337.3 L-469.59 336.77 L-469.54 336.35 L-469.48 335.83 L-469.42 335.42 L-469.36 334.9 L-469.29 334.39 L-469.23 333.87 L-469.17 333.46 L-469.11 332.95 L-469.06 332.53 L-468.99 332.01 L-468.93 331.49 L-468.88 331.07 L-468.82 330.54 L-468.76 330.0 L-468.72 329.57 L-468.67 329.03 L-468.62 328.48 L-468.59 328.04 L-468.56 327.48 L-468.54 326.93 L-468.53 326.36 L-468.53 325.91 L-468.54 325.34 L-468.56 324.76 L-468.58 324.29 L-468.62 323.7 L-468.66 323.1 L-468.71 322.62 L-468.78 322.01 L-468.86 321.38 L-468.93 320.88 L-469.03 320.23 L-469.13 319.58 L-469.23 319.04 L-469.35 318.37 L-469.48 317.68 L-469.6 317.12 L-469.76 316.41 L-469.92 315.69 L-470.06 315.11 L-470.25 314.37 L-470.46 313.61 L-470.63 313.0 L-470.86 312.23 L-471.1 311.44 L-471.29 310.8 L-471.55 309.99 L-471.81 309.17 L-472.02 308.5 L-472.29 307.66 L-472.51 306.97 L-472.8 306.1 L-473.09 305.22 L-473.32 304.5 L-473.62 303.59 L-473.93 302.66 L-474.24 301.71 L-474.49 300.95 L-474.8 299.98 L-475.12 298.99 L-475.38 298.19 L-475.71 297.19 L-476.04 296.17 L-476.31 295.34 L-476.65 294.3 L-476.93 293.46 L-477.29 292.4 L-477.64 291.34 L-477.93 290.48 L-478.28 289.4 L-478.64 288.32 L-478.93 287.45 L-479.3 286.37 L-479.66 285.27 L-479.96 284.4 L-480.33 283.3 L-480.7 282.19 L-481.01 281.31 L-481.39 280.2 L-481.79 279.09 L-482.12 278.2 L-482.54 277.09 L-482.97 275.98 L-483.33 275.09 L-483.79 273.97 L-484.27 272.85 L-484.66 271.95 L-485.16 270.81 L-485.66 269.67 L-486.07 268.74 L-486.58 267.58 L-487.1 266.4 L-487.53 265.44 L-488.07 264.24 L-488.62 263.02 L-489.07 262.03 L-489.65 260.78 L-490.23 259.52 L-490.71 258.49 L-491.31 257.19 L-491.91 255.87 L-492.39 254.81 L-493.0 253.46 L-493.61 252.1 L-494.1 251.0 L-494.72 249.63 L-495.34 248.26 L-495.83 247.16 L-496.45 245.8 L-497.06 244.43 L-497.54 243.34 L-498.14 241.99 L-498.74 240.63 L-499.22 239.55 L-499.81 238.2 L-500.4 236.85 L-500.87 235.77 L-501.45 234.43 L-502.03 233.09 L-502.49 232.02 L-503.06 230.68 L-503.62 229.35 L-504.07 228.29 L-504.63 226.96 L-505.19 225.63 L-505.63 224.58 L-506.18 223.26 L-506.62 222.2 L-507.16 220.89 L-507.71 219.58 L-508.14 218.54 L-508.68 217.24 L-509.22 215.95 L-509.65 214.92 L-510.18 213.65 L-510.71 212.4 L-511.13 211.4 L-511.64 210.17 L-512.16 208.95 L-512.57 207.99 L-513.07 206.8 L-513.57 205.63 L-513.97 204.7 L-514.46 203.56 L-514.94 202.44 L-515.32 201.56 L-515.79 200.47 L-516.25 199.4 L-516.61 198.57 L-517.05 197.54 L-517.49 196.53 L-517.83 195.74 L-518.25 194.77 L-518.66 193.81 L-518.98 193.07 L-519.38 192.15 L-519.77 191.25 L-520.08 190.54 L-520.47 189.67 L-520.84 188.81 L-521.15 188.13 L-521.52 187.29 L-521.9 186.46 L-522.2 185.8 L-522.57 184.98 L-522.96 184.17 L-523.27 183.53 L-523.67 182.74 L-524.08 181.95 L-524.41 181.33 L-524.84 180.57 L-525.19 179.97 L-525.64 179.22 L-526.1 178.49 L-526.48 177.91 L-526.96 177.2 L-527.46 176.49 L-527.86 175.94 L-528.39 175.25 L-528.93 174.57 L-529.37 174.03 L-529.93 173.34 L-530.51 172.65 L-530.98 172.09 L-531.58 171.39 L-532.2 170.69 L-532.69 170.12 L-533.32 169.4 L-533.96 168.68 L-534.49 168.09 L-535.15 167.36 L-535.83 166.62 L-536.38 166.02 L-537.08 165.27 L-537.79 164.52 L-538.37 163.91 L-539.11 163.14 L-539.85 162.37 L-540.46 161.74 L-541.23 160.96 L-542.01 160.17 L-542.64 159.54 L-543.45 158.74 L-544.26 157.92 L-544.91 157.27 L-545.74 156.44 L-546.57 155.6 L-547.24 154.93 L-548.1 154.07 L-548.96 153.21 L-549.66 152.51 L-550.55 151.62 L-551.44 150.72 L-552.17 150.0 L-553.09 149.08 L-553.84 148.34 L-554.78 147.41 L-555.73 146.46 L-556.5 145.69 L-557.48 144.72 L-558.47 143.73 L-559.27 142.93 L-560.27 141.93 L-561.29 140.9 L-562.12 140.08 L-563.16 139.04 L-564.22 137.98 L-565.07 137.13 L-566.14 136.06 L-567.23 134.98 L-568.32 133.9 L-569.2 133.03 L-570.29 131.94 L-571.18 131.07 L-572.29 129.96 L-573.41 128.85 L-574.32 127.95 L-575.46 126.82 L-576.61 125.68 L-577.77 124.53 L-578.69 123.61 L-579.85 122.47 L-581.01 121.32 L-581.93 120.41 L-583.08 119.27 L-583.99 118.36 L-585.14 117.22 L-586.28 116.09 L-587.42 114.97 L-588.33 114.07 L-589.47 112.94 L-590.38 112.05 L-591.51 110.94 L-592.63 109.83 L-593.74 108.73 L-594.62 107.85 L-595.71 106.76 L-596.78 105.68 L-597.64 104.82 L-598.69 103.75 L-599.73 102.69 L-600.56 101.85 L-601.59 100.8 L-602.61 99.75 L-603.42 98.93 L-604.42 97.91 L-605.41 96.9 L-606.2 96.1 L-607.18 95.11 L-608.16 94.14 L-608.93 93.36 L-609.89 92.41 L-610.84 91.46 L-611.6 90.71 L-612.52 89.78 L-613.26 89.05 L-614.17 88.14 L-615.06 87.25 L-615.77 86.54 L-616.65 85.66 L-617.52 84.8 L-618.21 84.11 L-619.06 83.25 L-619.91 82.41 L-620.59 81.74 L-621.42 80.91 L-622.24 80.09 L-622.89 79.44 L-623.7 78.64 L-624.49 77.85 L-625.12 77.22 L-625.9 76.44 L-626.67 75.67 L-627.28 75.06 L-628.04 74.3 L-628.79 73.55 L-629.52 72.8 L-630.11 72.21 L-630.83 71.48 L-631.4 70.9 L-632.1 70.18 L-632.79 69.46 L-633.34 68.89 L-634.01 68.18 L-634.67 67.47 L-635.2 66.9 L-635.84 66.19 L-636.47 65.49 L-636.97 64.92 L-637.59 64.21 L-638.19 63.5 L-638.66 62.92 L-639.24 62.2 L-639.8 61.48 L-640.25 60.89 L-640.79 60.15 L-641.32 59.4 L-641.73 58.8 L-642.23 58.04 L-642.72 57.27 L-643.11 56.66 L-643.57 55.88 L-643.93 55.26 L-644.38 54.47 L-644.81 53.68 L-645.23 52.88 L-645.56 52.23 L-645.97 51.42 L-646.28 50.76 L-646.67 49.93 L-647.05 49.1 L-647.35 48.42 L-647.7 47.57 L-648.05 46.72 L-648.31 46.03 L-648.63 45.16 L-648.94 44.29 L-649.18 43.59 L-649.46 42.71 L-649.73 41.83 L-649.94 41.12 L-650.2 40.23 L-650.44 39.34 L-650.62 38.62 L-650.84 37.72 L-651.06 36.82 L-651.22 36.11 L-651.41 35.21 L-651.59 34.31 L-651.72 33.59 L-651.88 32.7 L-652.02 31.8 L-652.12 31.08 L-652.24 30.19 L-652.35 29.3 L-652.43 28.58 L-652.51 27.69 L-652.58 26.8 L-652.62 26.09 L-652.67 25.2 L-652.71 24.31 L-652.73 23.61 L-652.74 22.72 L-652.75 21.84 L-652.74 21.14 L-652.72 20.27 L-652.69 19.39 L-652.66 18.7 L-652.6 17.83 L-652.54 16.97 L-652.48 16.28 L-652.4 15.42 L-652.3 14.57 L-652.22 13.89 L-652.1 13.04 L-651.97 12.19 L-651.86 11.51 L-651.72 10.67 L-651.56 9.82 L-651.42 9.15 L-651.24 8.3 L-651.05 7.46 L-650.88 6.78 L-650.67 5.94 L-650.45 5.09 L-650.26 4.42 L-650.01 3.58 L-649.81 2.91 L-649.55 2.07 L-649.27 1.23 L-649.04 0.56 L-648.74 -0.27 L-648.42 -1.1 L-648.1 -1.93 L-647.83 -2.59 L-647.48 -3.41 L-647.2 -4.07 L-646.83 -4.89 L-646.45 -5.71 L-646.13 -6.36 L-645.73 -7.18 L-645.31 -8.01 L-644.96 -8.66 L-644.52 -9.49 L-644.06 -10.31 L-643.68 -10.98 L-643.2 -11.81 L-642.71 -12.65 L-642.31 -13.33 L-641.79 -14.19 L-641.27 -15.06 L-640.83 -15.76 L-640.28 -16.65 L-639.72 -17.54 L-639.25 -18.26 L-638.67 -19.17 L-638.07 -20.1 L-637.59 -20.85 L-636.97 -21.8 L-636.34 -22.76 L-635.83 -23.54 L-635.18 -24.53 L-634.52 -25.53 L-633.98 -26.35 L-633.3 -27.38 L-632.61 -28.42 L-632.05 -29.27 L-631.34 -30.34 L-630.76 -31.21 L-630.03 -32.31 L-629.29 -33.42 L-628.7 -34.32 L-627.95 -35.46 L-627.2 -36.6 L-626.46 -37.73 L-625.87 -38.63 L-625.15 -39.74 L-624.58 -40.62 L-623.88 -41.7 L-623.19 -42.77 L-622.65 -43.61 L-621.99 -44.65 L-621.34 -45.69 L-620.83 -46.5 L-620.2 -47.52 L-619.59 -48.52 L-619.0 -49.52 L-618.53 -50.32 L-617.96 -51.32 L-617.4 -52.31 L-616.96 -53.1 L-616.43 -54.1 L-615.91 -55.09 L-615.5 -55.89 L-615.0 -56.89 L-614.6 -57.69 L-614.12 -58.69 L-613.64 -59.7 L-613.27 -60.5 L-612.81 -61.51 L-612.36 -62.51 L-612.01 -63.32 L-611.58 -64.33 L-611.17 -65.34 L-610.85 -66.14 L-610.46 -67.16 L-610.08 -68.18 L-609.8 -69.0 L-609.46 -70.04 L-609.13 -71.09 L-608.87 -71.93 L-608.57 -73.0 L-608.27 -74.08 L-608.04 -74.95 L-607.77 -76.05 L-607.51 -77.16 L-607.31 -78.05 L-607.07 -79.18 L-606.84 -80.32 L-606.66 -81.23 L-606.45 -82.4 L-606.24 -83.57 L-606.08 -84.52 L-605.89 -85.73 L-605.7 -86.94 L-605.55 -87.92 L-605.36 -89.15 L-605.18 -90.4 L-605.03 -91.41 L-604.86 -92.68 L-604.68 -93.97 L-604.55 -95.01 L-604.37 -96.32 L-604.21 -97.64 L-604.07 -98.71 L-603.9 -100.06 L-603.73 -101.42 L-603.6 -102.52 L-603.43 -103.9 L-603.29 -105.02 L-603.12 -106.42 L-602.94 -107.85 L-602.76 -109.29 L-602.62 -110.46 L-602.44 -111.93 L-602.3 -113.11 L-602.12 -114.6 L-601.94 -116.09 L-601.79 -117.28 L-601.61 -118.75 L-601.43 -120.21 L-601.28 -121.38 L-601.1 -122.82 L-600.92 -124.24 L-600.78 -125.37 L-600.61 -126.78 L-600.44 -128.16 L-600.31 -129.26 L-600.14 -130.62 L-599.98 -131.96 L-599.85 -133.02 L-599.69 -134.32 L-599.54 -135.59 L-599.42 -136.6 L-599.27 -137.83 L-599.13 -139.04 L-599.02 -139.99 L-598.88 -141.16 L-598.74 -142.3 L-598.63 -143.2 L-598.5 -144.3 L-598.37 -145.38 L-598.27 -146.22 L-598.14 -147.27 L-598.02 -148.29 L-597.92 -149.09 L-597.8 -150.08 L-597.68 -151.05 L-597.59 -151.81 L-597.47 -152.75 L-597.36 -153.68 L-597.26 -154.42 L-597.15 -155.33 L-597.03 -156.24 L-596.94 -156.96 L-596.83 -157.86 L-596.71 -158.76 L-596.62 -159.47 L-596.51 -160.35 L-596.39 -161.22 L-596.3 -161.91 L-596.19 -162.77 L-596.07 -163.62 L-595.98 -164.3 L-595.86 -165.14 L-595.74 -165.97 L-595.64 -166.64 L-595.52 -167.46 L-595.41 -168.11 L-595.28 -168.92 L-595.14 -169.73 L-595.0 -170.53 L-594.89 -171.17 L-594.75 -171.96 L-594.63 -172.59 L-594.47 -173.37 L-594.31 -174.15 L-594.18 -174.77 L-594.0 -175.55 L-593.82 -176.33 L-593.66 -176.95 L-593.45 -177.72 L-593.23 -178.5 L-593.05 -179.11 L-592.81 -179.88 L-592.56 -180.65 L-592.35 -181.26 L-592.07 -182.01 L-591.78 -182.76 L-591.54 -183.36 L-591.23 -184.09 L-590.9 -184.82 L-590.62 -185.4 L-590.27 -186.12 L-589.89 -186.83 L-589.59 -187.39 L-589.19 -188.09 L-588.78 -188.78 L-588.45 -189.32 L-588.02 -190.0 L-587.58 -190.67 L-587.22 -191.2 L-586.77 -191.86 L-586.31 -192.52 L-585.93 -193.04 L-585.45 -193.69 L-584.97 -194.33 L-584.57 -194.84 L-584.07 -195.48 L-583.55 -196.1 L-583.13 -196.6 L-582.6 -197.22 L-582.06 -197.82 L-581.63 -198.31 L-581.07 -198.9 L-580.5 -199.49 L-580.04 -199.95 L-579.45 -200.52 L-578.86 -201.08 L-578.38 -201.53 L-577.77 -202.07 L-577.14 -202.61 L-576.64 -203.03 L-576.0 -203.55 L-575.35 -204.06 L-574.82 -204.46 L-574.16 -204.95 L-573.49 -205.42 L-572.94 -205.79 L-572.25 -206.25 L-571.56 -206.7 L-571.0 -207.05 L-570.29 -207.48 L-569.57 -207.89 L-568.99 -208.22 L-568.26 -208.61 L-567.52 -208.99 L-566.93 -209.29 L-566.18 -209.66 L-565.43 -210.01 L-564.82 -210.28 L-564.06 -210.61 L-563.44 -210.87 L-562.67 -211.18 L-561.89 -211.48 L-561.26 -211.71 L-560.47 -211.99 L-559.68 -212.26 L-559.04 -212.46 L-558.24 -212.71 L-557.43 -212.94 L-556.78 -213.11 L-555.96 -213.31 L-555.13 -213.5 L-554.47 -213.63 L-553.64 -213.79 L-552.81 -213.93 L-552.14 -214.02 L-551.3 -214.13 L-550.46 -214.23 L-549.78 -214.29 L-548.94 -214.36 L-548.09 -214.41 L-547.41 -214.45 L-546.56 -214.48 L-545.7 -214.5 L-545.01 -214.52 L-544.14 -214.54 L-543.27 -214.55 L-542.56 -214.56 L-541.67 -214.57 L-540.77 -214.58 L-540.04 -214.59 L-539.12 -214.59 L-538.19 -214.6 L-537.43 -214.6 L-536.47 -214.6 L-535.5 -214.6 L-534.71 -214.6 L-533.72 -214.59 L-532.72 -214.58 L-531.9 -214.58 L-530.87 -214.57 L-529.83 -214.57 L-528.98 -214.56 L-527.91 -214.56 L-526.82 -214.55 L-525.94 -214.55 L-524.82 -214.54 L-523.69 -214.53 L-522.77 -214.53 L-521.62 -214.52 L-520.44 -214.51 L-519.5 -214.5 L-518.3 -214.49 L-517.09 -214.48 L-516.1 -214.47 L-514.86 -214.47 L-513.6 -214.46 L-512.57 -214.46 L-511.28 -214.45 L-509.97 -214.45 L-508.9 -214.45 L-507.56 -214.45 L-506.19 -214.45 L-505.09 -214.45 L-503.69 -214.46 L-502.28 -214.46 L-501.15 -214.47 L-499.72 -214.48 L-498.27 -214.48 L-497.11 -214.49 L-495.63 -214.5 L-494.15 -214.51 L-492.95 -214.52 L-491.44 -214.53 L-489.91 -214.54 L-488.68 -214.55 L-487.13 -214.56 L-485.56 -214.56 L-484.3 -214.57 L-482.71 -214.57 L-481.1 -214.57 L-479.81 -214.57 L-478.18 -214.57 L-476.86 -214.57 L-475.21 -214.57 L-473.55 -214.57 L-471.88 -214.56 L-470.53 -214.56 L-468.84 -214.56 L-467.14 -214.55 L-465.77 -214.55 L-464.05 -214.54 L-462.31 -214.54 L-460.92 -214.54 L-459.16 -214.53 L-457.4 -214.53 L-455.97 -214.52 L-454.19 -214.52 L-452.39 -214.52 L-450.95 -214.52 L-449.13 -214.51 L-447.31 -214.51 L-445.84 -214.51 L-443.99 -214.51 L-442.13 -214.52 L-440.64 -214.52 L-438.76 -214.53 L-436.87 -214.53 L-435.35 -214.53 L-433.44 -214.54 L-431.52 -214.54 L-429.98 -214.54 L-428.04 -214.55 L-426.09 -214.55 L-424.53 -214.55 L-422.57 -214.56 L-420.6 -214.56 L-419.02 -214.56 L-417.04 -214.56 L-415.04 -214.56 L-413.44 -214.56 L-411.43 -214.56 L-409.42 -214.56 L-407.79 -214.56 L-405.76 -214.56 L-403.72 -214.56 L-402.08 -214.56 L-400.02 -214.56 L-397.95 -214.56 L-396.29 -214.56 L-394.21 -214.56 L-392.12 -214.56 L-390.44 -214.57 L-388.33 -214.57 L-386.22 -214.58 L-384.52 -214.59 L-382.39 -214.59 L-380.25 -214.6 L-378.53 -214.6 L-376.38 -214.61 L-374.22 -214.62 L-372.48 -214.62 L-370.3 -214.63 L-368.55 -214.63 L-366.36 -214.64 L-364.16 -214.64 L-361.95 -214.64 L-360.18 -214.64 L-357.95 -214.64 L-355.72 -214.64 L-353.93 -214.64 L-351.68 -214.64 L-349.42 -214.63 L-347.61 -214.63 L-345.34 -214.63 L-343.06 -214.63 L-341.23 -214.63 L-338.94 -214.62 L-337.1 -214.62 L-334.79 -214.61 L-332.47 -214.61 L-330.61 -214.6 L-328.28 -214.6 L-325.94 -214.6 L-324.06 -214.59 L-321.71 -214.59 L-319.34 -214.59 L-317.45 -214.59 L-315.07 -214.59 L-312.68 -214.59 L-310.77 -214.59 L-308.37 -214.59 L-305.96 -214.59 L-304.03 -214.6 L-301.6 -214.6 L-299.17 -214.61 L-297.22 -214.61 L-294.77 -214.61 L-292.32 -214.62 L-290.35 -214.62 L-287.88 -214.62 L-285.4 -214.63 L-283.41 -214.63 L-280.92 -214.63 L-278.42 -214.63 L-276.41 -214.63 L-273.9 -214.63 L-271.88 -214.63 L-269.35 -214.63 L-266.81 -214.62 L-264.78 -214.62 L-262.23 -214.62 L-259.67 -214.62 L-257.62 -214.62 L-255.05 -214.61 L-252.48 -214.61 L-250.41 -214.61 L-247.82 -214.61 L-245.22 -214.61 L-243.14 -214.61 L-240.53 -214.61 L-237.91 -214.61 L-235.81 -214.61 L-233.18 -214.61 L-230.55 -214.61 L-228.44 -214.61 L-225.79 -214.61 L-223.14 -214.62 L-221.01 -214.62 L-218.35 -214.63 L-215.68 -214.64 L-213.53 -214.64 L-210.85 -214.65 L-208.17 -214.66 L-206.01 -214.66 L-203.31 -214.67 L-200.62 -214.68 L-198.46 -214.69 L-195.75 -214.7 L-193.03 -214.71 L-190.86 -214.72 L-188.14 -214.73 L-185.41 -214.74 L-183.22 -214.75 L-180.48 -214.75 L-177.74 -214.76 L-175.54 -214.76 L-172.78 -214.77 L-170.02 -214.77 L-167.81 -214.77 L-165.04 -214.77 L-162.26 -214.77 L-160.03 -214.77 L-157.25 -214.77 L-154.46 -214.77 L-152.22 -214.76 L-149.42 -214.76 L-146.61 -214.76 L-144.36 -214.76 L-141.54 -214.75 L-138.72 -214.75 L-136.45 -214.74 L-133.62 -214.74 L-130.78 -214.73 L-128.51 -214.72 L-125.66 -214.72 L-122.8 -214.71 L-120.52 -214.7 L-117.65 -214.7 L-114.78 -214.69 L-112.48 -214.69 L-109.6 -214.68 L-106.72 -214.68 L-104.41 -214.67 L-101.51 -214.67 L-98.61 -214.66 L-96.29 -214.66 L-93.38 -214.66 L-90.46 -214.66 L-88.13 -214.66 L-85.2 -214.66 L-82.27 -214.66 L-79.93 -214.66 L-76.99 -214.67 L-74.04 -214.67 L-71.69 -214.67 L-68.73 -214.67 L-65.77 -214.68 L-63.4 -214.68 L-60.44 -214.68 L-57.46 -214.69 L-55.08 -214.69 L-52.1 -214.69 L-49.12 -214.7 L-46.72 -214.7 L-43.73 -214.71 L-40.73 -214.71 L-38.33 -214.71 L-35.32 -214.71 L-32.31 -214.72 L-29.9 -214.72 L-26.88 -214.72 L-23.85 -214.73 L-21.43 -214.73 L-18.4 -214.73 L-15.36 -214.74 L-12.93 -214.74 L-9.89 -214.74 L-6.84 -214.75 L-4.39 -214.75 L-1.34 -214.75 L1.72 -214.76 L4.17 -214.76 L7.24 -214.76 L10.31 -214.77 L12.77 -214.77 L15.85 -214.78 L18.93 -214.78 L21.4 -214.78 L24.5 -214.79 L26.97 -214.79 L30.07 -214.79 L33.17 -214.79 L36.28 -214.78 L38.77 -214.78 L41.88 -214.77 L45.0 -214.76 L47.5 -214.76 L50.62 -214.75 L53.75 -214.74 L56.25 -214.73 L59.38 -214.72 L62.52 -214.71 L65.04 -214.71 L68.18 -214.7 L71.33 -214.69 L73.84 -214.69 L76.99 -214.69 L80.12 -214.68 L82.62 -214.68 L85.75 -214.67 L88.86 -214.67 L91.35 -214.67 L94.45 -214.66 L97.55 -214.66 L100.02 -214.66 L103.11 -214.66 L106.19 -214.66 L108.65 -214.66 L111.71 -214.66 L114.78 -214.66 L117.22 -214.67 L120.27 -214.67 L123.31 -214.68 L125.74 -214.69 L128.77 -214.7 L131.8 -214.71 L134.21 -214.72 L137.23 -214.73 L140.23 -214.75 L142.64 -214.76 L145.63 -214.77 L148.62 -214.78 L151.01 -214.78 L153.99 -214.79 L156.37 -214.8 L159.34 -214.81 L162.3 -214.81 L164.67 -214.82 L167.62 -214.82 L170.56 -214.82 L172.91 -214.82 L175.85 -214.82 L178.78 -214.82 L181.11 -214.82 L184.03 -214.82 L186.94 -214.81 L189.85 -214.81 L192.17 -214.81 L195.06 -214.81 L197.37 -214.81 L200.26 -214.81 L203.13 -214.81 L205.43 -214.81 L208.3 -214.81 L211.16 -214.81 L213.45 -214.81 L216.3 -214.81 L219.14 -214.81 L221.41 -214.82 L224.24 -214.82 L227.07 -214.82 L229.32 -214.82 L232.14 -214.82 L234.95 -214.82 L237.19 -214.83 L239.98 -214.83 L242.75 -214.83 L244.96 -214.83 L247.72 -214.83 L250.46 -214.84 L252.64 -214.84 L255.36 -214.85 L258.06 -214.85 L260.22 -214.86 L262.9 -214.86 L265.56 -214.87 L267.69 -214.87 L270.33 -214.88 L272.95 -214.88 L275.04 -214.88 L277.63 -214.89 L280.21 -214.89 L282.26 -214.89 L284.81 -214.9 L287.34 -214.9 L289.34 -214.9 L291.83 -214.91 L293.81 -214.91 L296.26 -214.91 L298.69 -214.92 L300.61 -214.92 L302.99 -214.92 L305.35 -214.93 L307.22 -214.93 L309.53 -214.94 L311.82 -214.94 L313.62 -214.95 L315.85 -214.95 L318.04 -214.96 L319.78 -214.97 L321.91 -214.98 L324.02 -214.98 L325.68 -214.99 L327.73 -215.0 L329.74 -215.01 L331.33 -215.02 L333.29 -215.03 L335.21 -215.05 L336.73 -215.06 L338.6 -215.07 L340.44 -215.09 L341.89 -215.1 L343.68 -215.11 L345.44 -215.12 L346.82 -215.13 L348.52 -215.13 L350.2 -215.13 L351.52 -215.12 L353.14 -215.11 L354.72 -215.09 L355.97 -215.06 L357.51 -215.03 L359.02 -214.99 L360.21 -214.95 L361.68 -214.89 L363.14 -214.82 L364.29 -214.75 L365.72 -214.63 L367.14 -214.49 L368.27 -214.36 L369.68 -214.16 L371.07 -213.94 L372.18 -213.75 L373.56 -213.48 L374.93 -213.19 L376.02 -212.93 L377.37 -212.59 L378.71 -212.22 L379.77 -211.9 L381.08 -211.49 L382.38 -211.04 L383.41 -210.67 L384.69 -210.18 L385.95 -209.67 L386.96 -209.24 L388.2 -208.7 L389.42 -208.14 L390.4 -207.69 L391.62 -207.12 L392.59 -206.66 L393.81 -206.08 L395.02 -205.5 L396.23 -204.91 L397.2 -204.44 L398.41 -203.85 L399.63 -203.26 L400.59 -202.79 L401.81 -202.2 L403.03 -201.61 L404.0 -201.13 L405.23 -200.54 L406.45 -199.94 L407.44 -199.46 L408.66 -198.86 L409.89 -198.26 L410.88 -197.78 L412.11 -197.17 L413.34 -196.56 L414.33 -196.07 L415.56 -195.46 L416.79 -194.84 L417.77 -194.34 L419.0 -193.72 L420.22 -193.09 L421.2 -192.59 L422.42 -191.95 L423.62 -191.31 L424.59 -190.8 L425.79 -190.16 L426.98 -189.51 L427.93 -188.99 L429.12 -188.34 L430.3 -187.68 L431.24 -187.15 L432.41 -186.49 L433.57 -185.82 L434.5 -185.28 L435.65 -184.6 L436.8 -183.91 L437.71 -183.36 L438.85 -182.67 L439.97 -181.98 L440.87 -181.42 L441.99 -180.72 L443.1 -180.01 L443.99 -179.45 L445.09 -178.74 L446.19 -178.02 L447.06 -177.44 L448.14 -176.71 L449.22 -175.98 L450.08 -175.4 L451.14 -174.66 L452.2 -173.92 L453.04 -173.32 L454.09 -172.57 L455.13 -171.81 L455.95 -171.2 L456.96 -170.44 L457.96 -169.66 L458.75 -169.04 L459.73 -168.27 L460.69 -167.49 L461.45 -166.87 L462.38 -166.09 L463.3 -165.32 L464.01 -164.7 L464.89 -163.93 L465.76 -163.17 L466.44 -162.56 L467.27 -161.8 L468.09 -161.04 L468.73 -160.44 L469.52 -159.7 L470.3 -158.96 L470.91 -158.38 L471.67 -157.65 L472.41 -156.93 L473.0 -156.36 L473.72 -155.66 L474.43 -154.96 L474.98 -154.41 L475.67 -153.72 L476.34 -153.04 L476.86 -152.51 L477.51 -151.85 L478.15 -151.19 L478.66 -150.67 L479.29 -150.01 L479.92 -149.36 L480.42 -148.84 L481.04 -148.19 L481.65 -147.54 L482.13 -147.02 L482.73 -146.36 L483.33 -145.71 L483.8 -145.18 L484.39 -144.52 L484.97 -143.86 L485.43 -143.33 L486.0 -142.67 L486.56 -142.0 L487.01 -141.47 L487.57 -140.8 L488.12 -140.13 L488.55 -139.59 L489.09 -138.92 L489.52 -138.38 L490.05 -137.7 L490.57 -137.02 L491.09 -136.35 L491.5 -135.8 L492.01 -135.12 L492.51 -134.43 L492.9 -133.88 L493.38 -133.2 L493.75 -132.65 L494.2 -131.97 L494.64 -131.3 L495.07 -130.62 L495.41 -130.08 L495.82 -129.4 L496.14 -128.86 L496.53 -128.18 L496.9 -127.5 L497.26 -126.81 L497.53 -126.26 L497.87 -125.57 L498.19 -124.87 L498.44 -124.31 L498.73 -123.61 L499.01 -122.9 L499.23 -122.34 L499.48 -121.63 L499.73 -120.92 L499.92 -120.35 L500.14 -119.63 L500.35 -118.92 L500.51 -118.35 L500.7 -117.64 L500.87 -116.92 L501.01 -116.35 L501.17 -115.64 L501.32 -114.92 L501.43 -114.35 L501.56 -113.64 L501.67 -112.92 L501.76 -112.35 L501.86 -111.64 L501.93 -111.07 L502.01 -110.36 L502.08 -109.66 L502.14 -109.09 L502.19 -108.39 L502.24 -107.69 L502.27 -107.13 L502.3 -106.42 L502.31 -105.73 L502.32 -105.17 L502.32 -104.47 L502.31 -103.78 L502.3 -103.23 L502.27 -102.54 L502.23 -101.86 L502.2 -101.31 L502.14 -100.63 L502.08 -99.96 L502.03 -99.42 L501.95 -98.75 L501.86 -98.08 L501.78 -97.55 L501.68 -96.89 L501.57 -96.23 L501.48 -95.7 L501.35 -95.05 L501.22 -94.39 L501.1 -93.86 L500.95 -93.21 L500.8 -92.55 L500.66 -92.02 L500.49 -91.36 L500.31 -90.7 L500.16 -90.16 L499.96 -89.5 L499.75 -88.84 L499.58 -88.31 L499.36 -87.65 L499.13 -87.0 L498.94 -86.47 L498.69 -85.81 L498.44 -85.15 L498.24 -84.61 L497.98 -83.95 L497.72 -83.28 L497.5 -82.74 L497.22 -82.07 L496.95 -81.39 L496.72 -80.85 L496.44 -80.16 L496.16 -79.48 L495.93 -78.92 L495.65 -78.23 L495.38 -77.53 L495.15 -76.96 L494.88 -76.25 L494.61 -75.54 L494.4 -74.96 L494.15 -74.24 L493.9 -73.51 L493.71 -72.93 L493.48 -72.18 L493.26 -71.43 L493.09 -70.83 L492.87 -70.06 L492.67 -69.29 L492.5 -68.66 L492.29 -67.87 L492.08 -67.08 L491.91 -66.44 L491.69 -65.63 L491.46 -64.82 L491.28 -64.17 L491.05 -63.35 L490.81 -62.53 L490.61 -61.86 L490.37 -61.03 L490.11 -60.18 L489.91 -59.5 L489.64 -58.64 L489.37 -57.77 L489.15 -57.06 L488.87 -56.18 L488.58 -55.28 L488.34 -54.56 L488.04 -53.65 L487.72 -52.74 L487.46 -52.01 L487.13 -51.09 L486.78 -50.16 L486.5 -49.42 L486.13 -48.49 L485.76 -47.55 L485.45 -46.8 L485.05 -45.86 L484.64 -44.92 L484.3 -44.17 L483.87 -43.24 L483.43 -42.31 L483.07 -41.58 L482.61 -40.67 L482.14 -39.77 L481.75 -39.05 L481.26 -38.17 L480.76 -37.29 L480.36 -36.6 L479.84 -35.73 L479.31 -34.87 L478.88 -34.19 L478.33 -33.34 L477.88 -32.67 L477.32 -31.83 L476.75 -31.0 L476.28 -30.34 L475.69 -29.52 L475.09 -28.7 L474.61 -28.06 L474.0 -27.26 L473.38 -26.47 L472.88 -25.84 L472.25 -25.06 L471.61 -24.29 L471.09 -23.68 L470.44 -22.92 L469.79 -22.17 L469.26 -21.58 L468.58 -20.85 L467.9 -20.12 L467.35 -19.55 L466.66 -18.85 L465.95 -18.15 L465.38 -17.6 L464.65 -16.92 L463.91 -16.25 L463.31 -15.73 L462.55 -15.08 L461.78 -14.45 L461.15 -13.96 L460.36 -13.36 L459.55 -12.77 L458.9 -12.31 L458.07 -11.74 L457.23 -11.19 L456.55 -10.75 L455.69 -10.22 L454.82 -9.7 L453.94 -9.19 L453.23 -8.79 L452.33 -8.3 L451.61 -7.92 L450.7 -7.45 L449.79 -6.99 L448.87 -6.54 L448.12 -6.18 L447.19 -5.74 L446.25 -5.32 L445.49 -4.98 L444.55 -4.58 L443.78 -4.26 L442.83 -3.87 L441.86 -3.49 L441.09 -3.19 L440.12 -2.84 L439.15 -2.49 L438.37 -2.21 L437.39 -1.88 L436.41 -1.55 L435.62 -1.3 L434.62 -0.99 L433.62 -0.69 L432.82 -0.45 L431.81 -0.16 L430.8 0.11 L429.98 0.33 L428.95 0.59 L427.92 0.84 L427.09 1.04 L426.05 1.27 L425.01 1.5 L424.17 1.68 L423.11 1.9 L422.26 2.07 L421.19 2.28 L420.11 2.48 L419.02 2.67 L418.14 2.82 L417.04 3.0 L415.93 3.18 L415.03 3.31 L413.91 3.47 L413.0 3.59 L411.86 3.74 L410.71 3.87 L409.79 3.98 L408.63 4.11 L407.45 4.24 L406.51 4.34 L405.32 4.46 L404.12 4.58 L403.15 4.68 L401.93 4.8 L400.7 4.91 L399.71 5.01 L398.46 5.13 L397.2 5.24 L396.18 5.34 L394.9 5.45 L393.61 5.57 L392.57 5.66 L391.25 5.78 L389.93 5.9 L388.86 5.99 L387.52 6.11 L386.17 6.23 L385.08 6.33 L383.7 6.45 L382.32 6.57 L381.2 6.67 L379.8 6.79 L378.38 6.92 L377.24 7.02 L375.8 7.14 L374.35 7.27 L373.18 7.38 L371.72 7.5 L370.24 7.63 L369.06 7.74 L367.56 7.86 L366.06 7.99 L364.85 8.09 L363.32 8.21 L361.79 8.34 L360.56 8.44 L359.01 8.56 L357.44 8.68 L356.19 8.77 L354.61 8.89 L353.02 9.0 L351.75 9.1 L350.14 9.21 L348.53 9.32 L347.23 9.41 L345.6 9.52 L343.97 9.63 L342.65 9.72 L340.99 9.82 L339.33 9.93 L337.99 10.01 L336.31 10.12 L334.62 10.22 L333.26 10.3 L331.56 10.39 L329.84 10.49 L328.46 10.56 L326.74 10.65 L325.0 10.74 L323.61 10.81 L321.86 10.89 L320.1 10.97 L318.68 11.03 L316.9 11.1 L315.11 11.17 L313.67 11.22 L311.86 11.28 L310.03 11.33 L308.56 11.37 L306.72 11.42 L304.87 11.47 L303.37 11.5 L301.5 11.54 L299.61 11.57 L298.1 11.59 L296.19 11.62 L294.27 11.64 L292.73 11.65 L290.8 11.65 L288.85 11.66 L287.29 11.66 L285.32 11.67 L283.35 11.67 L281.76 11.67 L279.76 11.68 L277.76 11.68 L276.15 11.69 L274.12 11.69 L272.09 11.7 L270.45 11.71 L268.4 11.73 L266.33 11.75 L264.67 11.76 L262.58 11.78 L260.48 11.8 L258.79 11.82 L256.68 11.84 L254.55 11.85 L252.84 11.87 L250.69 11.89 L248.53 11.9 L246.8 11.92 L244.62 11.93 L242.43 11.95 L240.68 11.96 L238.47 11.97 L236.7 11.98 L234.48 11.99 L232.25 12.0 L230.46 12.01 L228.21 12.01 L225.95 12.02 L224.14 12.03 L221.87 12.03 L219.59 12.04 L217.76 12.04 L215.46 12.05 L213.17 12.05 L211.32 12.06 L209.01 12.06 L206.69 12.07 L204.83 12.07 L202.5 12.08 L200.16 12.09 L198.28 12.09 L195.92 12.1 L193.56 12.11 L191.66 12.11 L189.28 12.12 L186.89 12.13 L184.98 12.13 L182.57 12.14 L180.16 12.14 L178.23 12.15 L175.8 12.15 L173.37 12.16 L171.41 12.16 L168.96 12.17 L166.51 12.17 L164.54 12.17 L162.07 12.18 L159.59 12.18 L157.6 12.18 L155.11 12.19 L152.6 12.19 L150.6 12.19 L148.08 12.2 L145.56 12.2 L143.54 12.21 L141.0 12.21 L138.97 12.21 L136.42 12.22 L133.87 12.22 L131.31 12.22 L129.25 12.23 L126.68 12.23 L124.61 12.23 L122.02 12.23 L119.42 12.23 L117.34 12.23 L114.73 12.23 L112.12 12.23 L110.02 12.22 L107.4 12.22L104.0 12.04" fill="#bebebe" id="track-outline" stroke="black" stroke-width="0.3px"></path><line fill="black" stroke="black" stroke-width="5px" x1="104.0003656383225" x2="98.39513634995092" y1="12.04410695880651" y2="-2.069291569292545"></line></g></g></svg>