<svg height="100%" id="track-svg" width="100%" xmlns="http://www.w3.org/2000/svg" xmlns:xlink="http://www.w3.org/1999/xlink" xmlns:ev="http://www.w3.org/2001/xml-events" style="overflow: hidden; "><g id="viewport-20250804105119905" class="svg-pan-zoom_viewport" transform="matrix(0.60998700286188,0,0,0.60998700286188,155.3823088132064,767.1346195485737)" style="transform: matrix(0.609987, 0, 0, 0.609987, 155.382, 767.135);"><g id="debug"><polyline fill="none" id="bb" points="-249.7305297851562,-633.4031982421875 763.4058227539062,-633.4031982421875 763.4058227539062,229.8382568359375 -249.7305297851562,229.8382568359375 -249.7305297851562,-633.4031982421875" stroke="none" stroke-width="3px"></polyline><circle cx="256.837646484375" cy="-201.782470703125" fill="none" id="centerpoint" r="5" stroke="none"></circle></g><g id="track"><path d="M650.28 -256.53 L648.95 -257.74 L650.64 -256.46 L651.98 -255.44 L653.65 -254.17 L655.31 -252.91 L656.64 -251.9 L658.29 -250.65 L659.6 -249.65 L661.24 -248.41 L662.87 -247.17 L664.17 -246.18 L665.8 -244.94 L667.09 -243.96 L668.7 -242.74 L670.3 -241.52 L671.57 -240.56 L673.15 -239.35 L674.41 -238.4 L675.98 -237.21 L677.53 -236.02 L678.77 -235.08 L680.31 -233.91 L681.54 -232.98 L683.06 -231.83 L684.57 -230.67 L685.77 -229.76 L687.26 -228.62 L688.74 -227.49 L689.92 -226.58 L691.38 -225.47 L692.54 -224.58 L693.98 -223.47 L695.42 -222.37 L696.55 -221.5 L697.97 -220.42 L699.09 -219.56 L700.49 -218.5 L701.88 -217.44 L702.98 -216.6 L704.35 -215.56 L705.7 -214.53 L706.78 -213.71 L708.12 -212.69 L709.18 -211.88 L710.5 -210.88 L711.81 -209.89 L712.85 -209.1 L714.14 -208.12 L715.16 -207.35 L716.43 -206.39 L717.69 -205.44 L718.69 -204.69 L719.93 -203.75 L720.93 -203.0 L722.16 -202.07 L723.4 -201.14 L724.39 -200.4 L725.6 -199.49 L726.81 -198.58 L727.76 -197.87 L728.94 -196.98 L729.88 -196.28 L731.03 -195.41 L732.17 -194.56 L733.08 -193.88 L734.19 -193.04 L735.3 -192.2 L736.18 -191.55 L737.26 -190.73 L738.11 -190.09 L739.17 -189.3 L740.0 -188.68 L741.04 -187.91 L742.06 -187.15 L742.86 -186.55 L743.86 -185.8 L744.84 -185.08 L745.62 -184.5 L746.58 -183.78 L747.34 -183.22 L748.29 -182.51 L749.22 -181.82 L749.95 -181.27 L750.86 -180.59 L751.75 -179.91 L752.46 -179.38 L753.34 -178.72 L754.03 -178.2 L754.88 -177.56 L755.72 -176.92 L756.38 -176.41 L757.2 -175.79 L757.84 -175.3 L758.63 -174.68 L759.41 -174.08 L760.02 -173.6 L760.77 -173.02 L761.36 -172.55 L762.08 -171.98 L762.79 -171.42 L763.34 -170.96 L764.03 -170.4 L764.69 -169.82 L765.21 -169.36 L765.84 -168.77 L766.33 -168.29 L766.92 -167.68 L767.37 -167.19 L767.91 -166.56 L768.43 -165.93 L768.83 -165.42 L769.31 -164.77 L769.76 -164.11 L770.1 -163.58 L770.51 -162.92 L770.82 -162.38 L771.18 -161.71 L771.52 -161.04 L771.78 -160.5 L772.08 -159.83 L772.3 -159.29 L772.56 -158.63 L772.8 -157.96 L772.98 -157.43 L773.18 -156.76 L773.36 -156.09 L773.49 -155.55 L773.63 -154.86 L773.73 -154.3 L773.84 -153.6 L773.92 -152.9 L773.96 -152.33 L774.0 -151.62 L774.01 -151.04 L774.01 -150.32 L773.97 -149.59 L773.93 -149.02 L773.86 -148.3 L773.77 -147.59 L773.68 -147.02 L773.55 -146.33 L773.44 -145.79 L773.28 -145.12 L773.1 -144.46 L772.94 -143.94 L772.73 -143.3 L772.55 -142.79 L772.3 -142.15 L772.04 -141.53 L771.81 -141.03 L771.5 -140.41 L771.18 -139.8 L770.9 -139.32 L770.54 -138.72 L770.23 -138.26 L769.82 -137.68 L769.49 -137.23 L769.05 -136.67 L768.59 -136.13 L768.21 -135.7 L767.72 -135.18 L767.22 -134.67 L766.82 -134.28 L766.29 -133.8 L765.76 -133.34 L765.33 -132.98 L764.78 -132.54 L764.32 -132.2 L763.74 -131.78 L763.27 -131.46 L762.67 -131.06 L762.05 -130.68 L761.55 -130.38 L760.92 -130.01 L760.28 -129.65 L759.76 -129.37 L759.1 -129.02 L758.57 -128.75 L757.9 -128.41 L757.21 -128.07 L756.66 -127.8 L755.97 -127.47 L755.4 -127.21 L754.7 -126.87 L753.98 -126.54 L753.4 -126.27 L752.67 -125.94 L751.94 -125.6 L751.34 -125.33 L750.59 -124.98 L749.99 -124.71 L749.22 -124.36 L748.45 -124.01 L747.82 -123.72 L747.03 -123.36 L746.39 -123.07 L745.58 -122.71 L744.77 -122.34 L744.11 -122.04 L743.27 -121.67 L742.44 -121.29 L741.76 -120.99 L740.9 -120.61 L740.22 -120.3 L739.35 -119.91 L738.65 -119.59 L737.76 -119.2 L736.87 -118.79 L736.15 -118.47 L735.23 -118.06 L734.3 -117.64 L733.55 -117.31 L732.6 -116.88 L731.83 -116.54 L730.85 -116.1 L729.86 -115.66 L729.06 -115.3 L728.04 -114.85 L727.22 -114.48 L726.17 -114.01 L725.11 -113.54 L724.25 -113.15 L723.17 -112.67 L722.07 -112.18 L721.17 -111.78 L720.05 -111.28 L719.14 -110.87 L717.98 -110.36 L716.81 -109.83 L715.86 -109.41 L714.65 -108.87 L713.67 -108.42 L712.43 -107.86 L711.17 -107.29 L710.14 -106.83 L708.84 -106.24 L707.52 -105.64 L706.44 -105.16 L705.08 -104.54 L703.97 -104.04 L702.57 -103.41 L701.14 -102.76 L699.98 -102.24 L698.52 -101.57 L697.33 -101.03 L695.81 -100.34 L694.28 -99.64 L693.03 -99.06 L691.45 -98.34 L690.17 -97.75 L688.54 -97.0 L686.89 -96.24 L685.56 -95.62 L683.87 -94.85 L682.5 -94.22 L680.78 -93.43 L679.04 -92.64 L677.63 -91.99 L675.85 -91.19 L674.05 -90.37 L672.6 -89.72 L670.77 -88.89 L669.29 -88.22 L667.43 -87.39 L665.56 -86.54 L664.04 -85.86 L662.14 -84.99 L660.6 -84.29 L658.66 -83.41 L656.7 -82.52 L655.13 -81.8 L653.15 -80.89 L651.15 -79.98 L649.55 -79.25 L647.53 -78.33 L645.91 -77.59 L643.89 -76.66 L641.87 -75.74 L640.26 -75.0 L638.25 -74.09 L636.65 -73.35 L634.66 -72.44 L632.68 -71.53 L631.1 -70.81 L629.13 -69.9 L627.17 -69.01 L625.61 -68.29 L623.67 -67.4 L622.12 -66.69 L620.2 -65.81 L618.29 -64.93 L616.76 -64.23 L614.86 -63.35 L613.35 -62.66 L611.47 -61.8 L609.6 -60.94 L608.1 -60.26 L606.23 -59.4 L604.75 -58.72 L602.89 -57.88 L601.05 -57.04 L599.59 -56.37 L597.77 -55.54 L596.32 -54.88 L594.52 -54.05 L592.73 -53.23 L591.3 -52.58 L589.53 -51.77 L587.78 -50.97 L586.38 -50.33 L584.64 -49.54 L583.26 -48.91 L581.54 -48.13 L579.83 -47.36 L578.47 -46.75 L576.78 -45.99 L575.11 -45.24 L573.78 -44.64 L572.13 -43.9 L570.82 -43.31 L569.2 -42.57 L567.59 -41.84 L566.3 -41.25 L564.72 -40.53 L563.45 -39.95 L561.89 -39.24 L560.33 -38.53 L559.1 -37.97 L557.57 -37.28 L556.35 -36.73 L554.85 -36.04 L553.35 -35.37 L552.17 -34.84 L550.69 -34.18 L549.22 -33.54 L548.05 -33.04 L546.6 -32.42 L545.45 -31.94 L544.02 -31.34 L542.6 -30.77 L541.48 -30.32 L540.08 -29.77 L538.96 -29.34 L537.58 -28.82 L536.21 -28.32 L535.13 -27.93 L533.78 -27.45 L532.72 -27.07 L531.39 -26.62 L530.09 -26.17 L529.05 -25.83 L527.76 -25.41 L526.49 -25.0 L525.48 -24.69 L524.23 -24.31 L523.24 -24.01 L522.02 -23.65 L520.81 -23.3 L519.85 -23.03 L518.66 -22.7 L517.73 -22.44 L516.57 -22.13 L515.42 -21.84 L514.51 -21.61 L513.38 -21.34 L512.49 -21.14 L511.37 -20.91 L510.25 -20.7 L509.36 -20.55 L508.26 -20.38 L507.38 -20.27 L506.28 -20.15 L505.19 -20.06 L504.32 -20.01 L503.25 -19.97 L502.18 -19.96 L501.33 -19.97 L500.27 -20.01 L499.42 -20.07 L498.37 -20.16 L497.32 -20.28 L496.49 -20.4 L495.46 -20.57 L494.65 -20.72 L493.65 -20.93 L492.65 -21.17 L491.87 -21.38 L490.9 -21.66 L489.95 -21.96 L489.2 -22.22 L488.27 -22.56 L487.53 -22.85 L486.63 -23.23 L485.74 -23.63 L485.03 -23.97 L484.16 -24.42 L483.48 -24.79 L482.63 -25.29 L481.79 -25.8 L481.13 -26.23 L480.32 -26.78 L479.69 -27.23 L478.9 -27.81 L478.13 -28.41 L477.52 -28.9 L476.76 -29.54 L476.01 -30.19 L475.42 -30.73 L474.69 -31.41 L474.11 -31.97 L473.38 -32.69 L472.66 -33.41 L472.08 -34.0 L471.36 -34.75 L470.78 -35.36 L470.06 -36.13 L469.33 -36.92 L468.75 -37.56 L468.03 -38.37 L467.44 -39.03 L466.72 -39.86 L465.98 -40.71 L465.4 -41.4 L464.66 -42.26 L464.07 -42.97 L463.32 -43.85 L462.57 -44.75 L461.96 -45.48 L461.2 -46.41 L460.43 -47.34 L459.8 -48.1 L459.02 -49.06 L458.38 -49.83 L457.58 -50.81 L456.77 -51.8 L456.11 -52.6 L455.29 -53.61 L454.45 -54.64 L453.77 -55.46 L452.92 -56.51 L452.23 -57.36 L451.36 -58.43 L450.47 -59.51 L449.76 -60.38 L448.86 -61.48 L448.14 -62.37 L447.22 -63.49 L446.29 -64.62 L445.54 -65.54 L444.59 -66.7 L443.82 -67.64 L442.85 -68.83 L441.88 -70.03 L441.09 -71.01 L440.09 -72.24 L439.09 -73.49 L438.28 -74.49 L437.26 -75.77 L436.44 -76.79 L435.4 -78.09 L434.35 -79.4 L433.5 -80.46 L432.42 -81.8 L431.55 -82.88 L430.45 -84.25 L429.34 -85.64 L428.45 -86.76 L427.32 -88.17 L426.41 -89.31 L425.26 -90.75 L424.1 -92.2 L423.17 -93.37 L422.01 -94.85 L420.83 -96.34 L419.89 -97.53 L418.71 -99.04 L417.76 -100.25 L416.57 -101.78 L415.37 -103.32 L414.41 -104.55 L413.21 -106.11 L412.25 -107.36 L411.04 -108.93 L409.82 -110.51 L408.84 -111.78 L407.61 -113.38 L406.38 -114.99 L405.38 -116.29 L404.14 -117.93 L403.14 -119.24 L401.89 -120.89 L400.64 -122.56 L399.64 -123.89 L398.39 -125.56 L397.4 -126.9 L396.16 -128.56 L394.93 -130.23 L393.95 -131.56 L392.74 -133.21 L391.77 -134.53 L390.57 -136.17 L389.37 -137.81 L388.42 -139.11 L387.25 -140.73 L386.08 -142.34 L385.15 -143.62 L383.99 -145.21 L383.08 -146.48 L381.94 -148.06 L380.81 -149.63 L379.92 -150.88 L378.81 -152.43 L377.93 -153.67 L376.83 -155.21 L375.75 -156.73 L374.89 -157.95 L373.82 -159.46 L372.98 -160.67 L371.93 -162.16 L370.9 -163.65 L370.09 -164.84 L369.07 -166.31 L368.08 -167.78 L367.28 -168.94 L366.3 -170.38 L365.53 -171.53 L364.56 -172.95 L363.6 -174.36 L362.83 -175.48 L361.87 -176.85 L361.1 -177.92 L360.13 -179.25 L359.16 -180.55 L358.37 -181.57 L357.37 -182.82 L356.36 -184.05 L355.54 -185.01 L354.51 -186.2 L353.67 -187.13 L352.62 -188.27 L351.55 -189.39 L350.69 -190.27 L349.6 -191.34 L348.49 -192.39 L347.59 -193.22 L346.44 -194.23 L345.51 -195.03 L344.34 -196.01 L343.14 -196.97 L342.17 -197.72 L340.94 -198.64 L339.94 -199.37 L338.68 -200.26 L337.4 -201.14 L336.37 -201.82 L335.06 -202.65 L334.0 -203.31 L332.66 -204.11 L331.31 -204.91 L330.22 -205.53 L328.84 -206.3 L327.74 -206.9 L326.35 -207.64 L324.95 -208.36 L323.82 -208.92 L322.39 -209.61 L321.24 -210.15 L319.8 -210.82 L318.35 -211.46 L317.18 -211.97 L315.72 -212.6 L314.25 -213.2 L313.07 -213.68 L311.59 -214.26 L310.41 -214.71 L308.93 -215.26 L307.44 -215.8 L306.25 -216.22 L304.76 -216.74 L303.57 -217.14 L302.07 -217.63 L300.56 -218.12 L299.35 -218.5 L297.83 -218.96 L296.31 -219.41 L295.09 -219.76 L293.55 -220.19 L292.32 -220.52 L290.77 -220.92 L289.22 -221.3 L287.97 -221.6 L286.41 -221.96 L285.15 -222.23 L283.59 -222.57 L282.02 -222.89 L280.77 -223.14 L279.22 -223.44 L277.98 -223.67 L276.44 -223.95 L274.91 -224.21 L273.69 -224.42 L272.17 -224.66 L270.66 -224.89 L269.46 -225.07 L267.97 -225.28 L266.78 -225.43 L265.3 -225.6 L263.84 -225.76 L262.68 -225.87 L261.23 -225.98 L260.08 -226.06 L258.65 -226.13 L257.23 -226.19 L256.1 -226.23 L254.7 -226.25 L253.31 -226.26 L252.21 -226.25 L250.83 -226.23 L249.74 -226.2 L248.39 -226.14 L247.04 -226.07 L245.98 -226.0 L244.65 -225.9 L243.59 -225.8 L242.29 -225.67 L240.99 -225.5 L239.95 -225.36 L238.66 -225.15 L237.62 -224.96 L236.33 -224.71 L235.04 -224.43 L234.01 -224.19 L232.73 -223.86 L231.45 -223.51 L230.42 -223.22 L229.15 -222.82 L228.13 -222.49 L226.85 -222.06 L225.58 -221.61 L224.56 -221.23 L223.28 -220.75 L222.0 -220.24 L220.98 -219.83 L219.69 -219.29 L218.65 -218.85 L217.35 -218.29 L216.04 -217.71 L214.98 -217.24 L213.65 -216.64 L212.58 -216.15 L211.23 -215.54 L209.87 -214.92 L208.78 -214.41 L207.41 -213.78 L206.3 -213.27 L204.92 -212.62 L203.53 -211.97 L202.41 -211.45 L201.02 -210.79 L199.9 -210.27 L198.52 -209.61 L197.14 -208.96 L196.04 -208.43 L194.68 -207.78 L193.59 -207.26 L192.25 -206.62 L190.91 -205.98 L189.85 -205.46 L188.54 -204.83 L187.23 -204.2 L186.19 -203.69 L184.91 -203.06 L183.89 -202.56 L182.63 -201.94 L181.37 -201.33 L180.38 -200.83 L179.15 -200.22 L178.17 -199.74 L176.96 -199.13 L175.76 -198.53 L174.81 -198.05 L173.64 -197.46 L172.47 -196.87 L171.55 -196.39 L170.41 -195.8 L169.51 -195.32 L168.41 -194.71 L167.34 -194.1 L166.49 -193.6 L165.45 -192.95 L164.63 -192.43 L163.63 -191.75 L162.65 -191.05 L161.89 -190.47 L160.94 -189.74 L160.2 -189.13 L159.29 -188.35 L158.39 -187.55 L157.69 -186.89 L156.82 -186.05 L155.97 -185.18 L155.3 -184.47 L154.47 -183.56 L153.83 -182.82 L153.03 -181.88 L152.26 -180.91 L151.65 -180.13 L150.9 -179.13 L150.32 -178.32 L149.61 -177.29 L148.91 -176.25 L148.37 -175.4 L147.7 -174.32 L147.06 -173.23 L146.56 -172.35 L145.95 -171.23 L145.48 -170.32 L144.9 -169.17 L144.34 -168.01 L143.9 -167.06 L143.36 -165.87 L142.95 -164.9 L142.43 -163.67 L141.92 -162.43 L141.52 -161.42 L141.02 -160.15 L140.53 -158.87 L140.14 -157.83 L139.66 -156.53 L139.27 -155.47 L138.79 -154.14 L138.41 -153.07 L137.93 -151.72 L137.46 -150.37 L137.08 -149.28 L136.62 -147.91 L136.16 -146.54 L135.79 -145.43 L135.35 -144.05 L134.99 -142.95 L134.56 -141.57 L134.13 -140.19 L133.81 -139.1 L133.41 -137.73 L133.1 -136.64 L132.74 -135.27 L132.38 -133.91 L132.11 -132.82 L131.78 -131.46 L131.48 -130.11 L131.24 -129.03 L130.97 -127.69 L130.77 -126.61 L130.53 -125.26 L130.3 -123.92 L130.14 -122.85 L129.96 -121.51 L129.83 -120.44 L129.68 -119.1 L129.56 -117.77 L129.48 -116.7 L129.39 -115.36 L129.33 -114.03 L129.3 -112.97 L129.28 -111.64 L129.27 -110.57 L129.29 -109.24 L129.34 -107.92 L129.39 -106.86 L129.47 -105.54 L129.55 -104.48 L129.68 -103.16 L129.83 -101.84 L129.96 -100.79 L130.16 -99.47 L130.33 -98.42 L130.56 -97.1 L130.82 -95.78 L131.04 -94.73 L131.34 -93.41 L131.65 -92.1 L131.92 -91.05 L132.27 -89.74 L132.56 -88.7 L132.94 -87.39 L133.34 -86.08 L133.67 -85.04 L134.1 -83.74 L134.46 -82.7 L134.92 -81.41 L135.4 -80.12 L135.8 -79.1 L136.32 -77.82 L136.74 -76.8 L137.29 -75.54 L137.85 -74.28 L138.32 -73.27 L138.91 -72.02 L139.52 -70.77 L140.02 -69.78 L140.65 -68.54 L141.17 -67.55 L141.83 -66.31 L142.51 -65.07 L143.06 -64.07 L143.76 -62.82 L144.33 -61.82 L145.05 -60.56 L145.79 -59.29 L146.39 -58.26 L147.14 -56.96 L147.91 -55.65 L148.53 -54.6 L149.31 -53.26 L149.95 -52.19 L150.77 -50.82 L151.59 -49.44 L152.26 -48.31 L153.11 -46.89 L153.79 -45.74 L154.66 -44.28 L155.54 -42.8 L156.25 -41.61 L157.15 -40.09 L157.87 -38.87 L158.79 -37.32 L159.72 -35.76 L160.47 -34.5 L161.41 -32.9 L162.37 -31.29 L163.13 -29.99 L164.1 -28.35 L164.88 -27.03 L165.86 -25.38 L166.85 -23.71 L167.64 -22.38 L168.62 -20.71 L169.41 -19.39 L170.39 -17.74 L171.37 -16.1 L172.15 -14.79 L173.12 -13.17 L173.9 -11.89 L174.86 -10.29 L175.81 -8.7 L176.57 -7.44 L177.52 -5.87 L178.46 -4.32 L179.21 -3.08 L180.14 -1.55 L180.88 -0.33 L181.79 1.19 L182.7 2.69 L183.43 3.89 L184.32 5.37 L185.04 6.55 L185.92 8.02 L186.8 9.47 L187.49 10.62 L188.36 12.06 L189.04 13.2 L189.89 14.61 L190.73 16.01 L191.4 17.12 L192.23 18.5 L193.05 19.86 L193.7 20.95 L194.52 22.29 L195.16 23.35 L195.96 24.67 L196.75 25.98 L197.38 27.01 L198.16 28.3 L198.93 29.57 L199.54 30.57 L200.3 31.82 L200.9 32.81 L201.64 34.03 L202.38 35.25 L202.96 36.2 L203.67 37.39 L204.24 38.33 L204.95 39.49 L205.64 40.64 L206.2 41.55 L206.88 42.67 L207.42 43.56 L208.1 44.66 L208.76 45.74 L209.29 46.59 L209.94 47.65 L210.46 48.48 L211.11 49.51 L211.75 50.53 L212.26 51.33 L212.88 52.31 L213.51 53.28 L214.01 54.05 L214.62 55.0 L215.11 55.74 L215.71 56.67 L216.31 57.58 L216.77 58.3 L217.35 59.2 L217.8 59.92 L218.34 60.81 L218.87 61.69 L219.28 62.4 L219.78 63.28 L220.16 63.98 L220.62 64.85 L221.07 65.71 L221.41 66.4 L221.82 67.26 L222.21 68.1 L222.51 68.78 L222.87 69.62 L223.14 70.29 L223.46 71.12 L223.76 71.94 L223.99 72.6 L224.25 73.43 L224.45 74.09 L224.66 74.93 L224.85 75.78 L224.98 76.47 L225.12 77.33 L225.22 78.21 L225.28 78.91 L225.33 79.79 L225.34 80.5 L225.33 81.39 L225.29 82.29 L225.24 83.0 L225.14 83.88 L225.04 84.58 L224.9 85.44 L224.72 86.3 L224.56 86.97 L224.34 87.8 L224.15 88.45 L223.88 89.25 L223.59 90.04 L223.34 90.65 L223.01 91.4 L222.65 92.14 L222.36 92.72 L221.97 93.42 L221.64 93.97 L221.22 94.64 L220.77 95.29 L220.4 95.79 L219.92 96.41 L219.53 96.88 L219.02 97.46 L218.5 98.01 L218.07 98.44 L217.53 98.95 L216.98 99.44 L216.53 99.82 L215.96 100.27 L215.49 100.62 L214.89 101.03 L214.28 101.42 L213.78 101.72 L213.13 102.07 L212.6 102.34 L211.94 102.66 L211.26 102.95 L210.71 103.16 L210.03 103.42 L209.49 103.6 L208.8 103.82 L208.12 104.02 L207.57 104.16 L206.88 104.33 L206.33 104.45 L205.64 104.58 L204.94 104.69 L204.37 104.77 L203.67 104.86 L202.96 104.93 L202.38 104.97 L201.66 105.02 L201.08 105.05 L200.34 105.08 L199.59 105.1 L198.99 105.1 L198.22 105.1 L197.59 105.1 L196.8 105.08 L196.0 105.05 L195.34 105.03 L194.51 104.99 L193.66 104.95 L192.98 104.91 L192.1 104.85 L191.39 104.81 L190.5 104.74 L189.58 104.67 L188.85 104.61 L187.91 104.54 L187.16 104.47 L186.21 104.38 L185.25 104.29 L184.48 104.22 L183.5 104.11 L182.72 104.03 L181.74 103.92 L180.75 103.8 L179.95 103.7 L178.95 103.58 L177.95 103.44 L177.15 103.33 L176.14 103.18 L175.34 103.05 L174.33 102.88 L173.32 102.7 L172.51 102.55 L171.51 102.35 L170.51 102.15 L169.71 101.97 L168.72 101.75 L167.94 101.57 L166.96 101.34 L166.18 101.14 L165.22 100.89 L164.26 100.62 L163.5 100.39 L162.54 100.08 L161.59 99.74 L160.83 99.45 L159.88 99.06 L159.13 98.72 L158.19 98.27 L157.25 97.8 L156.5 97.4 L155.58 96.88 L154.84 96.44 L153.93 95.88 L153.02 95.29 L152.3 94.81 L151.41 94.19 L150.52 93.55 L149.81 93.03 L148.93 92.36 L148.23 91.8 L147.35 91.08 L146.47 90.34 L145.77 89.73 L144.89 88.94 L144.18 88.29 L143.3 87.45 L142.4 86.59 L141.68 85.89 L140.78 84.99 L139.86 84.06 L139.12 83.3 L138.18 82.33 L137.41 81.55 L136.45 80.54 L135.47 79.52 L134.67 78.69 L133.66 77.63 L132.84 76.77 L131.8 75.68 L130.75 74.57 L129.9 73.67 L128.82 72.52 L127.95 71.58 L126.84 70.4 L125.72 69.2 L124.82 68.22 L123.68 66.99 L122.76 65.99 L121.61 64.72 L120.46 63.46 L119.54 62.44 L118.4 61.18 L117.26 59.92 L116.37 58.92 L115.27 57.66 L114.4 56.65 L113.34 55.4 L112.3 54.14 L111.49 53.13 L110.49 51.86 L109.51 50.58 L108.76 49.56 L107.83 48.29 L107.11 47.27 L106.22 46.01 L105.36 44.75 L104.69 43.75 L103.87 42.49 L103.22 41.48 L102.44 40.22 L101.68 38.95 L101.1 37.93 L100.39 36.66 L99.84 35.64 L99.18 34.38 L98.54 33.12 L98.05 32.11 L97.46 30.86 L97.0 29.87 L96.44 28.63 L95.91 27.39 L95.5 26.41 L95.01 25.19 L94.63 24.21 L94.17 22.99 L93.72 21.78 L93.37 20.82 L92.95 19.64 L92.55 18.47 L92.23 17.55 L91.84 16.42 L91.46 15.31 L91.15 14.44 L90.78 13.36 L90.49 12.51 L90.13 11.47 L89.77 10.45 L89.48 9.65 L89.12 8.66 L88.83 7.88 L88.45 6.93 L88.07 6.0 L87.76 5.28 L87.36 4.4 L87.03 3.71 L86.6 2.86 L86.16 2.03 L85.79 1.39 L85.31 0.6 L84.92 -0.01 L84.41 -0.76 L83.89 -1.49 L83.46 -2.06 L82.92 -2.74 L82.36 -3.4 L81.9 -3.91 L81.31 -4.53 L80.82 -5.01 L80.19 -5.6 L79.55 -6.15 L79.03 -6.58 L78.36 -7.1 L77.81 -7.5 L77.11 -7.97 L76.39 -8.43 L75.79 -8.78 L75.02 -9.2 L74.4 -9.52 L73.6 -9.9 L72.8 -10.26 L72.14 -10.53 L71.3 -10.85 L70.46 -11.15 L69.78 -11.37 L68.92 -11.63 L68.22 -11.82 L67.34 -12.03 L66.45 -12.23 L65.73 -12.37 L64.82 -12.52 L64.08 -12.63 L63.15 -12.75 L62.22 -12.85 L61.46 -12.92 L60.51 -13.0 L59.55 -13.07 L58.77 -13.12 L57.8 -13.17 L57.02 -13.21 L56.03 -13.26 L55.03 -13.3 L54.23 -13.34 L53.21 -13.38 L52.39 -13.41 L51.35 -13.44 L50.3 -13.48 L49.46 -13.51 L48.39 -13.55 L47.52 -13.59 L46.44 -13.63 L45.34 -13.68 L44.45 -13.73 L43.34 -13.78 L42.23 -13.84 L41.35 -13.89 L40.26 -13.95 L39.4 -14.0 L38.33 -14.07 L37.29 -14.13 L36.46 -14.18 L35.44 -14.25 L34.64 -14.31 L33.65 -14.38 L32.68 -14.45 L31.91 -14.5 L30.97 -14.58 L30.23 -14.64 L29.32 -14.71 L28.42 -14.79 L27.71 -14.85 L26.85 -14.93 L26.17 -14.99 L25.34 -15.06 L24.52 -15.13 L23.88 -15.19 L23.1 -15.25 L22.33 -15.32 L21.73 -15.36 L21.0 -15.41 L20.42 -15.45 L19.72 -15.49 L19.03 -15.52 L18.5 -15.54 L17.85 -15.56 L17.34 -15.57 L16.71 -15.58 L16.1 -15.58 L15.63 -15.57 L15.04 -15.55 L14.45 -15.52 L13.99 -15.48 L13.41 -15.42 L12.95 -15.35 L12.37 -15.25 L11.8 -15.12 L11.34 -15.0 L10.77 -14.83 L10.32 -14.68 L9.76 -14.47 L9.2 -14.23 L8.76 -14.03 L8.22 -13.75 L7.69 -13.46 L7.28 -13.21 L6.78 -12.88 L6.39 -12.61 L5.92 -12.26 L5.46 -11.89 L5.1 -11.59 L4.67 -11.2 L4.26 -10.79 L3.95 -10.46 L3.57 -10.04 L3.29 -9.69 L2.95 -9.26 L2.62 -8.82 L2.37 -8.46 L2.08 -8.0 L1.86 -7.64 L1.6 -7.17 L1.37 -6.7 L1.19 -6.32 L0.99 -5.83 L0.84 -5.44 L0.66 -4.93 L0.51 -4.42 L0.4 -4.0 L0.28 -3.47 L0.2 -3.04 L0.12 -2.5 L0.06 -1.95 L0.03 -1.5 L0.0 -0.94 L0.0 -0.38 L0.01 0.06 L0.04 0.61 L0.08 1.05 L0.14 1.59 L0.22 2.13 L0.29 2.56 L0.41 3.09 L0.51 3.51 L0.66 4.04 L0.82 4.57 L0.97 5.0 L1.16 5.53 L1.33 5.95 L1.56 6.48 L1.79 7.01 L1.99 7.43 L2.25 7.97 L2.52 8.5 L2.75 8.94 L3.05 9.48 L3.3 9.92 L3.62 10.48 L3.95 11.05 L4.23 11.52 L4.58 12.11 L4.87 12.59 L5.25 13.2 L5.63 13.82 L5.95 14.33 L6.36 14.98 L6.69 15.51 L7.11 16.18 L7.55 16.86 L7.9 17.42 L8.35 18.13 L8.81 18.86 L9.19 19.45 L9.67 20.2 L10.06 20.81 L10.56 21.59 L11.06 22.38 L11.48 23.03 L12.0 23.86 L12.43 24.53 L12.98 25.38 L13.54 26.25 L13.99 26.97 L14.57 27.87 L15.04 28.61 L15.64 29.55 L16.25 30.5 L16.75 31.28 L17.38 32.26 L18.02 33.26 L18.54 34.07 L19.2 35.09 L19.86 36.13 L20.4 36.97 L21.08 38.03 L21.63 38.88 L22.33 39.97 L23.04 41.06 L23.61 41.95 L24.34 43.07 L24.93 43.97 L25.67 45.12 L26.43 46.28 L27.04 47.21 L27.82 48.4 L28.45 49.36 L29.25 50.57 L30.06 51.8 L30.73 52.79 L31.56 54.04 L32.24 55.05 L33.09 56.32 L33.96 57.61 L34.66 58.64 L35.54 59.94 L36.43 61.25 L37.14 62.3 L38.05 63.62 L38.78 64.68 L39.7 66.01 L40.64 67.35 L41.39 68.42 L42.35 69.77 L43.13 70.86 L44.11 72.23 L45.1 73.62 L45.91 74.73 L46.92 76.14 L47.95 77.56 L48.78 78.7 L49.82 80.14 L50.67 81.3 L51.73 82.75 L52.8 84.22 L53.66 85.39 L54.73 86.85 L55.59 88.02 L56.67 89.47 L57.73 90.91 L58.59 92.05 L59.64 93.47 L60.49 94.6 L61.54 95.99 L62.58 97.37 L63.42 98.47 L64.45 99.83 L65.28 100.91 L66.3 102.25 L67.33 103.57 L68.14 104.62 L69.15 105.93 L70.15 107.22 L70.95 108.24 L71.94 109.51 L72.73 110.52 L73.7 111.77 L74.67 113.0 L75.45 113.99 L76.42 115.22 L77.19 116.19 L78.15 117.39 L79.1 118.58 L79.86 119.52 L80.79 120.68 L81.54 121.6 L82.46 122.73 L83.37 123.85 L84.1 124.74 L84.99 125.83 L85.88 126.91 L86.58 127.77 L87.44 128.82 L88.13 129.65 L88.98 130.68 L89.83 131.69 L90.5 132.49 L91.33 133.48 L91.99 134.26 L92.8 135.22 L93.6 136.16 L94.24 136.91 L95.02 137.82 L95.8 138.72 L96.41 139.42 L97.17 140.29 L97.77 140.98 L98.52 141.83 L99.26 142.66 L99.84 143.32 L100.57 144.14 L101.28 144.94 L101.84 145.57 L102.54 146.35 L103.09 146.96 L103.77 147.72 L104.3 148.31 L104.96 149.05 L105.62 149.77 L106.13 150.35 L106.76 151.05 L107.39 151.74 L107.88 152.29 L108.48 152.96 L108.96 153.49 L109.54 154.15 L110.11 154.8 L110.56 155.3 L111.11 155.93 L111.54 156.42 L112.07 157.03 L112.58 157.62 L112.98 158.09 L113.47 158.66 L113.86 159.12 L114.32 159.67 L114.78 160.22 L115.13 160.65 L115.56 161.18 L115.97 161.71 L116.28 162.12 L116.66 162.63 L116.96 163.03 L117.3 163.53 L117.64 164.02 L117.89 164.41 L118.19 164.89 L118.42 165.27 L118.7 165.74 L118.95 166.21 L119.14 166.58 L119.37 167.04 L119.57 167.5 L119.73 167.86 L119.91 168.31 L120.04 168.66 L120.19 169.09 L120.32 169.52 L120.42 169.85 L120.54 170.27 L120.62 170.59 L120.71 171.0 L120.79 171.4 L120.84 171.73 L120.9 172.14 L120.95 172.55 L120.98 172.89 L121.02 173.31 L121.03 173.66 L121.04 174.09 L121.04 174.54 L121.02 174.9 L121.0 175.35 L120.97 175.72 L120.92 176.19 L120.85 176.66 L120.78 177.04 L120.69 177.52 L120.6 177.9 L120.48 178.39 L120.34 178.88 L120.21 179.28 L120.03 179.77 L119.84 180.28 L119.44 181.18 L119.23 181.58 L118.96 182.08 L118.66 182.58 L118.41 182.98 L118.07 183.47 L117.79 183.86 L117.41 184.34 L117.01 184.81 L116.68 185.18 L116.25 185.63 L115.8 186.07 L115.43 186.42 L114.95 186.84 L114.55 187.16 L114.05 187.56 L113.63 187.86 L113.1 188.23 L112.55 188.58 L112.11 188.85 L111.54 189.17 L110.95 189.48 L110.48 189.71 L109.87 189.99 L109.38 190.2 L108.75 190.44 L108.11 190.67 L107.58 190.83 L106.92 191.03 L106.24 191.21 L105.7 191.34 L105.01 191.49 L104.44 191.61 L103.73 191.74 L103.01 191.87 L102.42 191.97 L101.67 192.08 L101.07 192.16 L100.3 192.26 L99.52 192.35 L98.89 192.42 L98.09 192.51 L97.44 192.57 L96.62 192.66 L95.78 192.74 L95.11 192.81 L94.25 192.9 L93.56 192.97 L92.67 193.07 L91.77 193.16 L91.04 193.24 L90.11 193.35 L89.16 193.45 L88.39 193.54 L87.4 193.66 L86.59 193.75 L85.57 193.87 L84.52 193.99 L83.67 194.1 L82.59 194.22 L81.7 194.33 L80.57 194.46 L79.42 194.6 L78.48 194.71 L77.29 194.85 L76.31 194.97 L75.08 195.11 L73.82 195.26 L72.8 195.37 L71.51 195.52 L70.21 195.67 L69.16 195.79 L67.84 195.94 L66.77 196.06 L65.43 196.21 L64.08 196.36 L63.0 196.48 L61.63 196.64 L60.26 196.79 L59.15 196.91 L57.76 197.07 L56.64 197.19 L55.24 197.35 L53.82 197.51 L52.68 197.64 L51.25 197.8 L50.1 197.93 L48.65 198.09 L47.2 198.26 L46.02 198.39 L44.55 198.56 L43.36 198.7 L41.87 198.88 L40.37 199.05 L39.15 199.2 L37.63 199.38 L36.09 199.56 L34.84 199.71 L33.28 199.91 L32.01 200.06 L30.41 200.25 L28.8 200.45 L27.5 200.61 L25.85 200.81 L24.53 200.97 L22.85 201.17 L21.16 201.37 L19.8 201.54 L18.07 201.75 L16.68 201.91 L14.93 202.12 L13.16 202.34 L11.73 202.51 L9.93 202.72 L8.11 202.94 L6.65 203.12 L4.81 203.34 L3.33 203.52 L1.46 203.74 L-0.42 203.97 L-1.93 204.16 L-3.84 204.39 L-5.37 204.58 L-7.3 204.83 L-9.24 205.07 L-10.8 205.27 L-12.77 205.52 L-14.36 205.72 L-16.36 205.98 L-18.37 206.23 L-20.0 206.43 L-22.04 206.69 L-24.09 206.94 L-25.74 207.15 L-27.81 207.41 L-29.47 207.61 L-31.53 207.87 L-33.59 208.12 L-35.23 208.32 L-37.29 208.57 L-38.93 208.77 L-40.97 209.03 L-43.02 209.28 L-44.65 209.48 L-46.68 209.74 L-48.3 209.94 L-50.31 210.19 L-52.31 210.44 L-53.9 210.63 L-55.88 210.88 L-57.85 211.12 L-59.41 211.3 L-61.36 211.54 L-62.91 211.72 L-64.83 211.95 L-66.75 212.17 L-68.27 212.35 L-70.16 212.57 L-71.66 212.74 L-73.53 212.95 L-75.39 213.17 L-76.86 213.33 L-78.7 213.54 L-80.15 213.71 L-81.96 213.91 L-83.76 214.12 L-85.19 214.28 L-86.96 214.48 L-88.72 214.68 L-90.12 214.84 L-91.86 215.04 L-93.23 215.2 L-94.95 215.39 L-96.64 215.59 L-97.99 215.75 L-99.66 215.94 L-100.99 216.1 L-102.64 216.3 L-104.27 216.49 L-105.57 216.65 L-107.18 216.85 L-108.77 217.05 L-110.03 217.21 L-111.6 217.41 L-112.84 217.57 L-114.39 217.77 L-115.91 217.97 L-117.12 218.12 L-118.62 218.32 L-119.81 218.47 L-121.29 218.67 L-122.75 218.85 L-123.9 219.0 L-125.34 219.19 L-126.47 219.33 L-127.88 219.51 L-129.27 219.68 L-130.37 219.81 L-131.73 219.97 L-132.81 220.1 L-134.15 220.26 L-135.47 220.41 L-136.51 220.53 L-137.8 220.67 L-139.08 220.81 L-140.09 220.92 L-141.34 221.06 L-142.33 221.16 L-143.55 221.29 L-144.76 221.41 L-145.72 221.51 L-146.9 221.63 L-148.07 221.74 L-148.99 221.82 L-150.13 221.92 L-151.03 222.0 L-152.15 222.08 L-153.25 222.16 L-154.12 222.21 L-155.19 222.26 L-156.05 222.3 L-157.1 222.32 L-158.15 222.33 L-158.98 222.32 L-160.01 222.3 L-160.83 222.26 L-161.84 222.19 L-162.83 222.1 L-163.62 222.02 L-164.59 221.89 L-165.54 221.75 L-166.29 221.62 L-167.21 221.45 L-167.93 221.3 L-168.82 221.11 L-169.69 220.9 L-170.37 220.72 L-171.21 220.48 L-171.88 220.28 L-172.69 220.02 L-173.5 219.74 L-174.13 219.5 L-174.91 219.18 L-175.68 218.84 L-176.28 218.55 L-177.01 218.18 L-177.59 217.86 L-178.29 217.45 L-178.98 217.03 L-179.51 216.67 L-180.16 216.21 L-180.66 215.84 L-181.28 215.34 L-181.87 214.83 L-182.33 214.41 L-182.89 213.87 L-183.32 213.42 L-183.84 212.84 L-184.34 212.25 L-184.72 211.75 L-185.18 211.12 L-185.54 210.6 L-185.96 209.94 L-186.36 209.25 L-186.67 208.69 L-187.03 207.97 L-187.37 207.24 L-187.63 206.65 L-187.93 205.91 L-188.16 205.3 L-188.44 204.54 L-188.7 203.77 L-188.89 203.14 L-189.12 202.35 L-189.3 201.72 L-189.51 200.92 L-189.71 200.12 L-189.86 199.47 L-190.05 198.65 L-190.23 197.83 L-190.36 197.17 L-190.53 196.33 L-190.67 195.66 L-190.83 194.83 L-190.99 193.99 L-191.11 193.33 L-191.26 192.51 L-191.38 191.86 L-191.52 191.06 L-191.66 190.27 L-191.77 189.65 L-191.9 188.89 L-192.01 188.29 L-192.14 187.55 L-192.27 186.83 L-192.37 186.26 L-192.5 185.55 L-192.63 184.86 L-192.73 184.32 L-192.86 183.66 L-192.96 183.14 L-193.1 182.49 L-193.23 181.87 L-193.34 181.38 L-193.47 180.77 L-193.61 180.18 L-193.72 179.72 L-193.87 179.16 L-193.99 178.72 L-194.14 178.18 L-194.26 177.75 L-194.42 177.24 L-194.58 176.74 L-194.71 176.34 L-194.88 175.86 L-195.06 175.39 L-195.2 175.03 L-195.38 174.58 L-195.53 174.23 L-195.71 173.8 L-195.89 173.38 L-196.03 173.05 L-196.21 172.65 L-196.35 172.34 L-196.52 171.96 L-196.7 171.6 L-196.84 171.31 L-197.01 170.97 L-197.18 170.64 L-197.31 170.38 L-197.48 170.08 L-197.61 169.84 L-197.78 169.54 L-197.97 169.25 L-198.12 169.02 L-198.32 168.74 L-198.49 168.51 L-198.71 168.23 L-198.93 167.96 L-199.12 167.75 L-199.36 167.49 L-199.6 167.24 L-199.8 167.04 L-200.05 166.81 L-200.25 166.63 L-200.5 166.42 L-200.71 166.25 L-200.97 166.05 L-201.23 165.86 L-201.44 165.71 L-201.71 165.52 L-201.99 165.35 L-202.22 165.21 L-202.52 165.04 L-202.77 164.91 L-203.09 164.75 L-203.42 164.6 L-203.7 164.48 L-204.06 164.34 L-204.44 164.2 L-204.75 164.1 L-205.15 163.97 L-205.49 163.88 L-205.93 163.77 L-206.38 163.66 L-206.75 163.58 L-207.22 163.47 L-207.6 163.38 L-208.09 163.26 L-208.59 163.14 L-208.99 163.03 L-209.51 162.89 L-209.92 162.77 L-210.44 162.6 L-210.96 162.42 L-211.38 162.27 L-211.9 162.07 L-212.41 161.86 L-212.81 161.68 L-213.31 161.45 L-213.7 161.26 L-214.18 161.01 L-214.66 160.75 L-215.04 160.53 L-215.51 160.25 L-215.89 160.01 L-216.36 159.69 L-216.82 159.37 L-217.19 159.09 L-217.64 158.74 L-218.0 158.45 L-218.43 158.08 L-218.86 157.69 L-219.19 157.38 L-219.6 156.98 L-219.91 156.65 L-220.3 156.24 L-220.67 155.81 L-220.97 155.46 L-221.33 155.0 L-221.68 154.53 L-221.96 154.15 L-222.3 153.64 L-222.56 153.23 L-222.88 152.7 L-223.19 152.15 L-223.43 151.69 L-223.72 151.11 L-223.95 150.64 L-224.23 150.03 L-224.5 149.41 L-224.72 148.91 L-224.98 148.26 L-225.24 147.6 L-225.45 147.07 L-225.71 146.38 L-225.92 145.82 L-226.17 145.11 L-226.43 144.39 L-226.63 143.8 L-226.89 143.05 L-227.1 142.44 L-227.35 141.67 L-227.61 140.88 L-227.82 140.24 L-228.09 139.43 L-228.36 138.6 L-228.57 137.93 L-228.85 137.08 L-229.07 136.39 L-229.35 135.52 L-229.64 134.63 L-229.87 133.91 L-230.17 132.99 L-230.4 132.25 L-230.71 131.31 L-231.02 130.35 L-231.26 129.58 L-231.58 128.59 L-231.84 127.8 L-232.17 126.78 L-232.5 125.75 L-232.77 124.91 L-233.11 123.85 L-233.39 122.99 L-233.74 121.89 L-234.1 120.78 L-234.39 119.88 L-234.76 118.75 L-235.13 117.6 L-235.42 116.68 L-235.8 115.52 L-236.1 114.58 L-236.48 113.4 L-236.86 112.21 L-237.17 111.24 L-237.56 110.03 L-237.88 109.06 L-238.27 107.83 L-238.67 106.6 L-238.99 105.61 L-239.4 104.37 L-239.8 103.13 L-240.12 102.13 L-240.53 100.9 L-240.85 99.91 L-241.24 98.69 L-241.64 97.48 L-241.95 96.52 L-242.34 95.34 L-242.64 94.41 L-243.02 93.26 L-243.39 92.12 L-243.69 91.22 L-244.05 90.11 L-244.41 89.01 L-244.7 88.15 L-245.05 87.08 L-245.33 86.24 L-245.67 85.2 L-246.01 84.18 L-246.27 83.37 L-246.6 82.37 L-246.86 81.58 L-247.18 80.61 L-247.49 79.65 L-247.73 78.89 L-248.04 77.96 L-248.27 77.22 L-248.57 76.31 L-248.85 75.42 L-249.08 74.71 L-249.35 73.83 L-249.57 73.14 L-249.83 72.29 L-250.08 71.45 L-250.28 70.79 L-250.52 69.97 L-250.75 69.16 L-250.93 68.52 L-251.14 67.73 L-251.3 67.11 L-251.49 66.34 L-251.68 65.58 L-251.81 64.98 L-251.97 64.24 L-252.12 63.5 L-252.22 62.91 L-252.33 62.17 L-252.4 61.58 L-252.47 60.85 L-252.5 60.1 L-252.52 59.5 L-252.51 58.74 L-252.48 58.12 L-252.42 57.34 L-252.34 56.55 L-252.25 55.91 L-252.12 55.1 L-251.99 54.45 L-251.8 53.63 L-251.59 52.81 L-251.4 52.15 L-251.14 51.34 L-250.86 50.53 L-250.62 49.9 L-250.3 49.12 L-250.04 48.5 L-249.7 47.74 L-249.34 46.98 L-249.04 46.38 L-248.65 45.63 L-248.33 45.04 L-247.9 44.3 L-247.45 43.57 L-247.08 42.99 L-246.59 42.27 L-246.08 41.56 L-245.65 41.0 L-245.1 40.31 L-244.65 39.77 L-244.07 39.1 L-243.47 38.44 L-242.97 37.92 L-242.34 37.28 L-241.82 36.77 L-241.15 36.15 L-240.47 35.55 L-239.91 35.07 L-239.19 34.48 L-238.6 34.02 L-237.85 33.45 L-237.09 32.89 L-236.47 32.45 L-235.69 31.91 L-235.06 31.48 L-234.27 30.95 L-233.47 30.41 L-232.84 29.99 L-232.04 29.46 L-231.24 28.92 L-230.6 28.49 L-229.8 27.95 L-229.17 27.52 L-228.37 26.97 L-227.57 26.41 L-226.93 25.96 L-226.13 25.39 L-225.48 24.92 L-224.68 24.33 L-223.87 23.73 L-223.22 23.24 L-222.41 22.63 L-221.6 22.0 L-220.95 21.49 L-220.13 20.85 L-219.47 20.33 L-218.65 19.67 L-217.83 19.0 L-217.17 18.45 L-216.35 17.76 L-215.69 17.21 L-214.87 16.5 L-214.05 15.77 L-213.39 15.18 L-212.56 14.43 L-211.9 13.81 L-211.08 13.04 L-210.26 12.25 L-209.6 11.6 L-208.79 10.79 L-207.98 9.97 L-207.35 9.31 L-206.56 8.46 L-205.94 7.78 L-205.17 6.92 L-204.41 6.04 L-203.81 5.33 L-203.07 4.43 L-202.49 3.7 L-201.76 2.78 L-201.05 1.84 L-200.49 1.09 L-199.8 0.13 L-199.25 -0.64 L-198.57 -1.61 L-197.9 -2.59 L-197.37 -3.39 L-196.72 -4.39 L-196.09 -5.4 L-195.59 -6.21 L-194.99 -7.24 L-194.51 -8.08 L-193.93 -9.13 L-193.37 -10.19 L-192.93 -11.05 L-192.39 -12.14 L-191.98 -13.01 L-191.47 -14.12 L-190.98 -15.23 L-190.6 -16.13 L-190.14 -17.27 L-189.79 -18.18 L-189.36 -19.33 L-188.95 -20.49 L-188.64 -21.43 L-188.26 -22.6 L-187.9 -23.79 L-187.63 -24.75 L-187.3 -25.95 L-187.05 -26.92 L-186.74 -28.13 L-186.45 -29.36 L-186.23 -30.34 L-185.96 -31.57 L-185.76 -32.56 L-185.51 -33.8 L-185.29 -35.05 L-185.11 -36.05 L-184.9 -37.31 L-184.7 -38.57 L-184.55 -39.58 L-184.37 -40.85 L-184.23 -41.87 L-184.06 -43.15 L-183.9 -44.43 L-183.77 -45.46 L-183.62 -46.75 L-183.5 -47.78 L-183.36 -49.07 L-183.22 -50.37 L-183.11 -51.41 L-182.97 -52.71 L-182.83 -54.02 L-182.72 -55.07 L-182.58 -56.38 L-182.47 -57.43 L-182.32 -58.74 L-182.18 -60.05 L-182.06 -61.09 L-181.92 -62.4 L-181.8 -63.44 L-181.66 -64.74 L-181.51 -66.04 L-181.38 -67.07 L-181.22 -68.36 L-181.08 -69.39 L-180.89 -70.67 L-180.7 -71.95 L-180.53 -72.96 L-180.32 -74.22 L-180.13 -75.23 L-179.89 -76.48 L-179.63 -77.72 L-179.4 -78.71 L-179.11 -79.94 L-178.79 -81.16 L-178.53 -82.13 L-178.17 -83.33 L-177.87 -84.29 L-177.48 -85.48 L-177.07 -86.65 L-176.72 -87.58 L-176.27 -88.74 L-175.9 -89.65 L-175.43 -90.78 L-174.93 -91.9 L-174.53 -92.78 L-174.0 -93.88 L-173.46 -94.96 L-173.02 -95.81 L-172.44 -96.86 L-171.97 -97.7 L-171.37 -98.73 L-170.76 -99.74 L-170.25 -100.54 L-169.61 -101.53 L-169.09 -102.31 L-168.43 -103.28 L-167.75 -104.23 L-167.19 -104.98 L-166.49 -105.9 L-165.91 -106.63 L-165.18 -107.53 L-164.42 -108.42 L-163.81 -109.11 L-163.03 -109.97 L-162.23 -110.82 L-161.58 -111.48 L-160.75 -112.3 L-160.08 -112.95 L-159.21 -113.74 L-158.34 -114.52 L-157.62 -115.14 L-156.71 -115.89 L-155.97 -116.48 L-155.03 -117.21 L-154.08 -117.92 L-153.31 -118.47 L-152.33 -119.15 L-151.34 -119.82 L-150.54 -120.34 L-149.54 -120.99 L-148.72 -121.5 L-147.69 -122.12 L-146.66 -122.73 L-145.82 -123.21 L-144.77 -123.8 L-143.92 -124.26 L-142.85 -124.84 L-141.78 -125.4 L-140.91 -125.85 L-139.81 -126.39 L-138.71 -126.93 L-137.83 -127.36 L-136.71 -127.88 L-135.81 -128.29 L-134.69 -128.8 L-133.78 -129.2 L-132.64 -129.69 L-131.5 -130.18 L-130.58 -130.56 L-129.44 -131.04 L-128.29 -131.51 L-127.36 -131.89 L-126.2 -132.36 L-125.04 -132.82 L-124.1 -133.19 L-122.93 -133.64 L-122.0 -134.0 L-120.83 -134.45 L-119.9 -134.81 L-118.74 -135.25 L-117.59 -135.69 L-116.67 -136.04 L-115.52 -136.49 L-114.39 -136.93 L-113.49 -137.29 L-112.36 -137.75 L-111.47 -138.12 L-110.37 -138.58 L-109.27 -139.06 L-108.4 -139.45 L-107.33 -139.95 L-106.48 -140.37 L-105.43 -140.89 L-104.39 -141.44 L-103.56 -141.89 L-102.54 -142.47 L-101.54 -143.07 L-100.75 -143.57 L-99.77 -144.2 L-98.99 -144.72 L-98.04 -145.39 L-97.1 -146.08 L-96.36 -146.65 L-95.45 -147.38 L-94.72 -147.97 L-93.83 -148.74 L-92.96 -149.52 L-92.27 -150.16 L-91.41 -150.98 L-90.58 -151.81 L-89.92 -152.49 L-89.11 -153.36 L-88.47 -154.06 L-87.69 -154.95 L-86.92 -155.86 L-86.32 -156.59 L-85.57 -157.52 L-84.99 -158.27 L-84.29 -159.22 L-83.59 -160.17 L-83.05 -160.95 L-82.39 -161.93 L-81.87 -162.72 L-81.24 -163.72 L-80.63 -164.74 L-80.15 -165.56 L-79.57 -166.59 L-79.0 -167.64 L-78.55 -168.49 L-78.01 -169.57 L-77.59 -170.44 L-77.08 -171.54 L-76.57 -172.66 L-76.18 -173.56 L-75.69 -174.7 L-75.31 -175.63 L-74.84 -176.79 L-74.37 -177.97 L-74.0 -178.92 L-73.54 -180.11 L-73.17 -181.08 L-72.72 -182.29 L-72.26 -183.51 L-71.9 -184.48 L-71.45 -185.71 L-70.99 -186.94 L-70.63 -187.92 L-70.18 -189.15 L-69.82 -190.14 L-69.37 -191.38 L-68.92 -192.62 L-68.56 -193.62 L-68.11 -194.87 L-67.75 -195.87 L-67.3 -197.13 L-66.84 -198.38 L-66.47 -199.39 L-66.0 -200.65 L-65.53 -201.91 L-65.15 -202.91 L-64.66 -204.16 L-64.27 -205.16 L-63.78 -206.4 L-63.38 -207.39 L-62.87 -208.61 L-62.36 -209.83 L-61.94 -210.8 L-61.41 -212.0 L-60.87 -213.19 L-60.44 -214.13 L-59.88 -215.3 L-59.43 -216.23 L-58.86 -217.39 L-58.29 -218.53 L-57.82 -219.44 L-57.22 -220.56 L-56.74 -221.45 L-56.13 -222.55 L-55.5 -223.64 L-55.0 -224.5 L-54.36 -225.57 L-53.71 -226.62 L-53.18 -227.46 L-52.51 -228.49 L-51.97 -229.3 L-51.29 -230.31 L-50.59 -231.3 L-50.03 -232.09 L-49.32 -233.06 L-48.73 -233.83 L-47.99 -234.78 L-47.24 -235.71 L-46.62 -236.44 L-45.84 -237.35 L-45.05 -238.23 L-44.4 -238.93 L-43.58 -239.79 L-42.93 -240.47 L-42.1 -241.31 L-41.26 -242.13 L-40.59 -242.78 L-39.74 -243.59 L-39.06 -244.22 L-38.21 -245.0 L-37.34 -245.78 L-36.65 -246.39 L-35.77 -247.14 L-34.89 -247.89 L-34.18 -248.47 L-33.28 -249.19 L-32.56 -249.76 L-31.65 -250.46 L-30.92 -251.02 L-30.0 -251.7 L-29.08 -252.37 L-28.33 -252.9 L-27.39 -253.56 L-26.45 -254.21 L-25.68 -254.73 L-24.72 -255.37 L-23.95 -255.88 L-22.97 -256.52 L-21.99 -257.16 L-21.2 -257.68 L-20.2 -258.32 L-19.19 -258.97 L-18.38 -259.48 L-17.35 -260.14 L-16.52 -260.66 L-15.48 -261.31 L-14.42 -261.97 L-13.58 -262.5 L-12.52 -263.15 L-11.66 -263.68 L-10.59 -264.34 L-9.51 -265.0 L-8.65 -265.53 L-7.57 -266.2 L-6.7 -266.73 L-5.62 -267.4 L-4.53 -268.06 L-3.66 -268.6 L-2.57 -269.27 L-1.48 -269.94 L-0.61 -270.49 L0.48 -271.17 L1.36 -271.71 L2.45 -272.4 L3.55 -273.09 L4.42 -273.64 L5.53 -274.34 L6.41 -274.9 L7.52 -275.6 L8.64 -276.31 L9.54 -276.88 L10.67 -277.6 L11.58 -278.18 L12.73 -278.91 L13.88 -279.64 L14.81 -280.23 L15.98 -280.97 L17.16 -281.72 L18.11 -282.32 L19.3 -283.07 L20.26 -283.68 L21.47 -284.44 L22.69 -285.21 L23.67 -285.82 L24.9 -286.6 L25.89 -287.22 L27.14 -288.01 L28.4 -288.8 L29.41 -289.43 L30.68 -290.23 L31.7 -290.87 L32.99 -291.69 L34.28 -292.5 L35.32 -293.16 L36.63 -293.99 L37.95 -294.83 L39.01 -295.5 L40.34 -296.35 L41.41 -297.03 L42.76 -297.88 L44.11 -298.73 L45.2 -299.42 L46.56 -300.28 L47.65 -300.98 L49.02 -301.84 L50.39 -302.71 L51.48 -303.41 L52.86 -304.28 L54.24 -305.16 L55.35 -305.86 L56.73 -306.74 L57.85 -307.44 L59.24 -308.33 L60.64 -309.21 L61.76 -309.91 L63.16 -310.8 L64.29 -311.51 L65.7 -312.39 L67.12 -313.28 L68.25 -313.99 L69.67 -314.89 L71.1 -315.78 L72.24 -316.5 L73.67 -317.39 L74.82 -318.11 L76.26 -319.01 L77.71 -319.91 L78.86 -320.63 L80.31 -321.54 L81.47 -322.26 L82.92 -323.16 L84.37 -324.06 L85.52 -324.78 L86.97 -325.68 L88.12 -326.39 L89.56 -327.28 L90.99 -328.16 L92.14 -328.87 L93.57 -329.75 L94.71 -330.44 L96.13 -331.31 L97.55 -332.18 L98.67 -332.87 L100.08 -333.73 L101.48 -334.59 L102.59 -335.28 L103.98 -336.14 L105.09 -336.82 L106.47 -337.68 L107.85 -338.53 L108.94 -339.2 L110.3 -340.05 L111.38 -340.73 L112.72 -341.59 L114.05 -342.44 L115.1 -343.14 L116.4 -344.01 L117.69 -344.9 L118.7 -345.61 L119.95 -346.52 L120.94 -347.26 L122.16 -348.2 L123.37 -349.15 L124.32 -349.92 L125.49 -350.9 L126.42 -351.69 L127.56 -352.69 L128.68 -353.7 L129.57 -354.52 L130.66 -355.56 L131.52 -356.41 L132.57 -357.48 L133.61 -358.56 L134.42 -359.44 L135.43 -360.56 L136.42 -361.69 L137.2 -362.61 L138.17 -363.76 L138.93 -364.69 L139.86 -365.86 L140.78 -367.05 L141.51 -368.01 L142.4 -369.22 L143.1 -370.19 L143.96 -371.42 L144.8 -372.66 L145.46 -373.66 L146.27 -374.92 L146.9 -375.94 L147.67 -377.22 L148.43 -378.51 L149.02 -379.55 L149.75 -380.86 L150.46 -382.18 L151.01 -383.24 L151.68 -384.58 L152.21 -385.65 L152.84 -386.99 L153.46 -388.34 L153.93 -389.43 L154.51 -390.79 L154.96 -391.88 L155.5 -393.24 L156.03 -394.61 L156.44 -395.71 L156.93 -397.08 L157.41 -398.45 L157.78 -399.55 L158.22 -400.92 L158.56 -402.02 L158.96 -403.39 L159.34 -404.76 L159.63 -405.86 L159.97 -407.23 L160.23 -408.32 L160.54 -409.7 L160.82 -411.06 L161.03 -412.16 L161.28 -413.52 L161.5 -414.89 L161.67 -415.99 L161.87 -417.35 L162.02 -418.44 L162.19 -419.8 L162.35 -421.15 L162.47 -422.23 L162.6 -423.58 L162.7 -424.65 L162.8 -425.99 L162.88 -427.33 L162.94 -428.4 L162.98 -429.73 L163.01 -431.05 L163.01 -432.11 L163.0 -433.44 L162.98 -434.5 L162.93 -435.82 L162.87 -436.87 L162.78 -438.18 L162.68 -439.5 L162.58 -440.55 L162.44 -441.87 L162.28 -443.19 L162.15 -444.24 L161.96 -445.55 L161.79 -446.59 L161.56 -447.9 L161.31 -449.2 L161.1 -450.25 L160.82 -451.56 L160.53 -452.86 L160.28 -453.91 L159.95 -455.21 L159.68 -456.25 L159.33 -457.55 L159.03 -458.6 L158.64 -459.92 L158.24 -461.25 L157.91 -462.31 L157.48 -463.65 L157.04 -465.0 L156.67 -466.08 L156.21 -467.44 L155.83 -468.54 L155.34 -469.93 L154.85 -471.32 L154.45 -472.44 L153.95 -473.84 L153.45 -475.26 L153.04 -476.39 L152.53 -477.81 L152.12 -478.95 L151.6 -480.38 L151.08 -481.82 L150.66 -482.97 L150.13 -484.42 L149.71 -485.58 L149.18 -487.04 L148.64 -488.49 L148.22 -489.66 L147.68 -491.12 L147.25 -492.29 L146.71 -493.75 L146.17 -495.21 L145.74 -496.38 L145.19 -497.84 L144.75 -499.01 L144.2 -500.47 L143.65 -501.93 L143.21 -503.09 L142.66 -504.55 L142.1 -506.01 L141.66 -507.18 L141.1 -508.64 L140.65 -509.81 L140.1 -511.28 L139.54 -512.74 L139.09 -513.91 L138.53 -515.38 L138.09 -516.55 L137.53 -518.01 L136.98 -519.48 L136.53 -520.65 L135.98 -522.12 L135.42 -523.59 L134.98 -524.76 L134.43 -526.23 L133.99 -527.41 L133.44 -528.88 L132.89 -530.36 L132.45 -531.54 L131.91 -533.01 L131.47 -534.19 L130.93 -535.66 L130.4 -537.13 L129.97 -538.29 L129.44 -539.74 L129.02 -540.9 L128.5 -542.33 L127.98 -543.76 L127.56 -544.89 L127.05 -546.3 L126.53 -547.7 L126.13 -548.81 L125.62 -550.19 L125.21 -551.29 L124.71 -552.66 L124.21 -554.01 L123.82 -555.1 L123.32 -556.44 L122.83 -557.78 L122.44 -558.84 L121.95 -560.15 L121.57 -561.2 L121.09 -562.49 L120.71 -563.52 L120.24 -564.79 L119.78 -566.05 L119.4 -567.05 L118.94 -568.3 L118.48 -569.53 L118.11 -570.5 L117.65 -571.71 L117.29 -572.67 L116.84 -573.85 L116.39 -575.03 L116.03 -575.96 L115.59 -577.11 L115.14 -578.25 L114.79 -579.16 L114.36 -580.28 L114.01 -581.17 L113.58 -582.27 L113.16 -583.36 L112.83 -584.22 L112.41 -585.29 L112.08 -586.14 L111.68 -587.19 L111.28 -588.23 L110.96 -589.05 L110.57 -590.07 L110.18 -591.07 L109.88 -591.87 L109.51 -592.86 L109.21 -593.64 L108.85 -594.61 L108.5 -595.57 L108.22 -596.33 L107.88 -597.27 L107.61 -598.01 L107.28 -598.93 L107.03 -599.66 L106.71 -600.56 L106.4 -601.45 L106.16 -602.15 L105.87 -603.02 L105.58 -603.88 L105.36 -604.57 L105.1 -605.41 L104.9 -606.09 L104.66 -606.92 L104.44 -607.74 L104.27 -608.4 L104.07 -609.21 L103.93 -609.85 L103.76 -610.65 L103.62 -611.44 L103.52 -612.07 L103.41 -612.85 L103.31 -613.62 L103.26 -614.23 L103.2 -614.98 L103.17 -615.58 L103.15 -616.33 L103.15 -617.06 L103.16 -617.65 L103.2 -618.37 L103.24 -618.95 L103.3 -619.67 L103.39 -620.37 L103.47 -620.93 L103.59 -621.63 L103.69 -622.18 L103.84 -622.87 L104.01 -623.55 L104.16 -624.1 L104.36 -624.78 L104.58 -625.45 L104.77 -625.98 L106.01 -628.92 L106.31 -629.53 L106.56 -630.01 L106.9 -630.61 L107.24 -631.19 L107.53 -631.66 L107.9 -632.23 L108.28 -632.79 L108.59 -633.23 L108.98 -633.76 L109.31 -634.18 L109.71 -634.69 L110.14 -635.19 L110.48 -635.59 L110.93 -636.07 L111.3 -636.46 L111.77 -636.92 L112.25 -637.38 L112.64 -637.73 L113.15 -638.17 L113.56 -638.51 L114.09 -638.92 L114.63 -639.32 L115.07 -639.63 L115.63 -640.01 L116.21 -640.38 L116.68 -640.66 L117.27 -641.0 L117.75 -641.26 L118.35 -641.57 L118.96 -641.87 L119.45 -642.11 L120.06 -642.38 L120.55 -642.59 L121.16 -642.84 L121.77 -643.08 L122.27 -643.26 L122.89 -643.48 L123.51 -643.68 L124.01 -643.83 L124.64 -644.0 L125.14 -644.13 L125.77 -644.28 L126.4 -644.41 L126.91 -644.51 L127.55 -644.61 L128.06 -644.69 L128.7 -644.77 L129.33 -644.83 L129.84 -644.88 L130.48 -644.92 L130.99 -644.94 L131.62 -644.96 L132.24 -644.97 L132.74 -644.97 L133.36 -644.95 L133.86 -644.93 L134.47 -644.89 L135.09 -644.84 L135.57 -644.79 L136.18 -644.71 L136.79 -644.62 L137.28 -644.54 L137.9 -644.42 L138.39 -644.31 L139.0 -644.16 L139.62 -644.0 L140.11 -643.85 L140.72 -643.66 L141.33 -643.45 L141.81 -643.27 L142.41 -643.03 L142.89 -642.84 L143.49 -642.58 L144.08 -642.32 L144.56 -642.09 L145.15 -641.81 L145.62 -641.56 L146.2 -641.25 L146.79 -640.93 L147.26 -640.66 L147.84 -640.31 L148.42 -639.96 L148.89 -639.67 L149.48 -639.29 L149.94 -638.99 L150.53 -638.59 L151.11 -638.19 L151.58 -637.86 L152.17 -637.44 L152.64 -637.1 L153.23 -636.67 L153.83 -636.23 L154.31 -635.87 L154.92 -635.42 L155.41 -635.05 L156.04 -634.59 L156.67 -634.11 L157.18 -633.73 L157.82 -633.25 L158.48 -632.76 L159.01 -632.36 L159.68 -631.85 L160.22 -631.44 L160.91 -630.92 L161.62 -630.39 L162.19 -629.96 L162.91 -629.42 L163.5 -628.98 L164.25 -628.43 L165.0 -627.86 L165.62 -627.41 L166.39 -626.83 L167.03 -626.36 L167.82 -625.76 L168.63 -625.16 L169.29 -624.67 L170.12 -624.05 L170.97 -623.42 L171.66 -622.9 L172.53 -622.25 L173.23 -621.73 L174.12 -621.06 L175.03 -620.38 L175.76 -619.83 L176.7 -619.13 L177.45 -618.56 L178.4 -617.84 L179.37 -617.11 L180.16 -616.52 L181.15 -615.77 L181.96 -615.16 L182.98 -614.39 L184.01 -613.61 L184.85 -612.97 L185.91 -612.17 L186.99 -611.35 L187.87 -610.69 L188.98 -609.85 L189.88 -609.17 L191.02 -608.31 L191.94 -607.62 L193.11 -606.73 L194.29 -605.83 L195.25 -605.1 L196.47 -604.17 L197.7 -603.23 L198.7 -602.47 L199.96 -601.51 L200.98 -600.73 L202.27 -599.75 L203.58 -598.75 L204.64 -597.94 L205.97 -596.92 L207.31 -595.88 L208.4 -595.04 L209.77 -593.98 L210.87 -593.13 L212.27 -592.05 L213.68 -590.96 L214.83 -590.09 L216.27 -588.98 L217.44 -588.09 L218.92 -586.97 L220.42 -585.83 L221.62 -584.92 L223.14 -583.77 L224.68 -582.61 L225.91 -581.68 L227.47 -580.5 L228.73 -579.54 L230.32 -578.34 L231.92 -577.12 L233.2 -576.14 L234.82 -574.9 L236.13 -573.9 L237.77 -572.63 L239.43 -571.35 L240.77 -570.32 L242.45 -569.02 L243.81 -567.96 L245.52 -566.64 L247.25 -565.3 L248.65 -564.22 L250.42 -562.87 L251.85 -561.77 L253.65 -560.39 L255.47 -559.0 L256.94 -557.87 L258.79 -556.45 L260.67 -555.02 L262.18 -553.87 L264.09 -552.42 L265.63 -551.25 L267.58 -549.78 L269.54 -548.3 L271.12 -547.11 L273.11 -545.61 L274.72 -544.41 L276.74 -542.89 L278.75 -541.37 L280.37 -540.15 L282.39 -538.62 L284.42 -537.07 L286.04 -535.83 L288.07 -534.28 L289.7 -533.02 L291.74 -531.45 L293.78 -529.88 L295.42 -528.62 L297.47 -527.03 L299.11 -525.76 L301.17 -524.17 L303.24 -522.58 L304.9 -521.3 L306.98 -519.7 L308.64 -518.42 L310.73 -516.81 L312.82 -515.19 L314.5 -513.9 L316.6 -512.28 L318.71 -510.65 L320.39 -509.35 L322.51 -507.71 L324.2 -506.4 L326.33 -504.76 L328.46 -503.11 L330.16 -501.79 L332.3 -500.13 L334.01 -498.81 L336.16 -497.15 L338.32 -495.48 L340.04 -494.15 L342.21 -492.48 L343.95 -491.14 L346.12 -489.47 L348.3 -487.79 L350.05 -486.44 L352.24 -484.75 L354.44 -483.07 L356.19 -481.71 L358.39 -480.02 L360.58 -478.33 L362.33 -476.97 L364.53 -475.28 L366.28 -473.93 L368.47 -472.24 L370.66 -470.56 L372.41 -469.21 L374.6 -467.52 L376.34 -466.17 L378.53 -464.49 L380.71 -462.81 L382.45 -461.47 L384.63 -459.8 L386.38 -458.46 L388.56 -456.79 L390.74 -455.12 L392.48 -453.79 L394.65 -452.13 L396.39 -450.8 L398.56 -449.14 L400.73 -447.49 L402.47 -446.16 L404.64 -444.51 L406.37 -443.19 L408.54 -441.55 L410.7 -439.9 L412.43 -438.59 L414.59 -436.95 L416.74 -435.31 L418.47 -434.0 L420.62 -432.36 L422.34 -431.05 L424.48 -429.42 L426.63 -427.78 L428.34 -426.48 L430.48 -424.85 L432.61 -423.22 L434.32 -421.92 L436.45 -420.29 L438.15 -418.99 L440.27 -417.37 L442.4 -415.75 L444.09 -414.46 L446.21 -412.84 L447.9 -411.55 L450.01 -409.94 L452.12 -408.32 L453.81 -407.04 L455.91 -405.43 L458.01 -403.82 L459.69 -402.54 L461.79 -400.93 L463.46 -399.65 L465.55 -398.05 L467.64 -396.45 L469.31 -395.17 L471.39 -393.58 L473.05 -392.31 L475.13 -390.72 L477.21 -389.13 L478.86 -387.86 L480.93 -386.28 L482.59 -385.01 L484.65 -383.43 L486.71 -381.85 L488.36 -380.59 L490.42 -379.02 L492.06 -377.75 L494.11 -376.18 L496.15 -374.61 L497.79 -373.35 L499.83 -371.78 L501.86 -370.21 L503.49 -368.96 L505.52 -367.39 L507.14 -366.14 L509.17 -364.58 L511.19 -363.02 L512.8 -361.78 L514.82 -360.22 L516.83 -358.67 L518.44 -357.43 L520.45 -355.89 L522.05 -354.65 L524.05 -353.11 L525.65 -351.88 L527.65 -350.34 L529.65 -348.81 L531.24 -347.59 L533.23 -346.06 L535.22 -344.53 L536.81 -343.31 L538.79 -341.79 L540.37 -340.57 L542.34 -339.05 L544.31 -337.53 L545.89 -336.32 L547.85 -334.8 L549.81 -333.29 L551.37 -332.08 L553.33 -330.57 L554.89 -329.36 L556.83 -327.85 L558.78 -326.35 L560.33 -325.15 L562.27 -323.65 L563.81 -322.46 L565.75 -320.97 L567.68 -319.49 L569.23 -318.31 L571.16 -316.83 L572.7 -315.65 L574.62 -314.18 L576.54 -312.71 L578.08 -311.54 L579.99 -310.08 L581.9 -308.62 L583.43 -307.45 L585.33 -306.0 L586.86 -304.83 L588.75 -303.38 L590.65 -301.94 L592.16 -300.79 L594.05 -299.35 L595.56 -298.2 L597.44 -296.76 L599.31 -295.33 L600.81 -294.19 L602.67 -292.77 L604.16 -291.64 L606.02 -290.22 L607.86 -288.81 L609.34 -287.69 L611.17 -286.29 L612.64 -285.18 L614.46 -283.79 L616.28 -282.4 L617.73 -281.3 L619.54 -279.92 L621.34 -278.55 L622.78 -277.46 L624.56 -276.1 L625.99 -275.02 L627.76 -273.67 L629.53 -272.32 L630.94 -271.25 L632.7 -269.91 L634.1 -268.84 L635.84 -267.52 L637.58 -266.19 L638.97 -265.13 L640.71 -263.81 L642.44 -262.49 L643.81 -261.45 L645.52 -260.14 L646.89 -259.11 L648.59 -257.82 L650.28 -256.53L638.02 -246.78 L636.37 -248.04 L635.04 -249.06 L633.37 -250.33 L631.69 -251.61 L630.35 -252.64 L628.66 -253.93 L627.3 -254.97 L625.6 -256.27 L623.89 -257.58 L622.51 -258.63 L620.79 -259.95 L619.4 -261.01 L617.67 -262.35 L616.27 -263.42 L614.52 -264.76 L612.76 -266.11 L611.35 -267.19 L609.58 -268.55 L607.8 -269.92 L606.37 -271.01 L604.57 -272.39 L602.77 -273.77 L601.33 -274.88 L599.51 -276.27 L598.06 -277.39 L596.23 -278.79 L594.39 -280.19 L592.92 -281.32 L591.08 -282.73 L589.6 -283.87 L587.74 -285.29 L585.88 -286.71 L584.38 -287.85 L582.51 -289.28 L580.63 -290.72 L579.13 -291.87 L577.25 -293.31 L575.74 -294.46 L573.85 -295.91 L571.96 -297.36 L570.44 -298.52 L568.54 -299.98 L567.02 -301.15 L565.11 -302.61 L563.21 -304.08 L561.68 -305.25 L559.77 -306.72 L558.24 -307.9 L556.33 -309.37 L554.41 -310.85 L552.87 -312.03 L550.95 -313.51 L549.02 -315.0 L547.48 -316.18 L545.55 -317.67 L544.0 -318.86 L542.06 -320.35 L540.12 -321.83 L538.57 -323.03 L536.64 -324.52 L535.08 -325.71 L533.14 -327.2 L531.19 -328.7 L529.64 -329.9 L527.69 -331.4 L526.13 -332.6 L524.17 -334.1 L522.21 -335.61 L520.64 -336.81 L518.68 -338.31 L517.11 -339.52 L515.14 -341.02 L513.17 -342.53 L511.59 -343.74 L509.61 -345.25 L507.63 -346.76 L506.05 -347.97 L504.06 -349.49 L502.48 -350.7 L500.49 -352.22 L498.5 -353.74 L496.91 -354.96 L494.91 -356.49 L493.32 -357.71 L491.32 -359.24 L489.32 -360.77 L487.72 -362.0 L485.72 -363.53 L483.71 -365.07 L482.11 -366.3 L480.1 -367.83 L478.49 -369.07 L476.47 -370.61 L474.46 -372.15 L472.84 -373.39 L470.82 -374.93 L469.2 -376.17 L467.18 -377.72 L465.15 -379.26 L463.53 -380.5 L461.49 -382.06 L459.46 -383.61 L457.83 -384.85 L455.79 -386.41 L454.16 -387.66 L452.12 -389.22 L450.48 -390.47 L448.44 -392.03 L446.39 -393.6 L444.75 -394.85 L442.7 -396.42 L440.65 -397.99 L439.0 -399.25 L436.95 -400.82 L435.3 -402.08 L433.24 -403.66 L431.18 -405.24 L429.53 -406.5 L427.46 -408.09 L425.81 -409.35 L423.74 -410.94 L421.67 -412.53 L420.01 -413.8 L417.93 -415.39 L415.86 -416.98 L414.19 -418.26 L412.11 -419.85 L410.45 -421.13 L408.36 -422.73 L406.28 -424.33 L404.61 -425.61 L402.52 -427.22 L400.85 -428.5 L398.75 -430.1 L396.66 -431.71 L394.98 -433.0 L392.88 -434.6 L390.78 -436.21 L389.1 -437.5 L386.99 -439.11 L385.31 -440.39 L383.2 -442.0 L381.51 -443.29 L379.4 -444.9 L377.29 -446.51 L375.6 -447.8 L373.49 -449.42 L371.37 -451.03 L369.68 -452.32 L367.56 -453.93 L365.86 -455.23 L363.74 -456.84 L361.63 -458.46 L359.93 -459.75 L357.82 -461.37 L355.71 -462.98 L354.02 -464.27 L351.92 -465.87 L350.25 -467.16 L348.15 -468.76 L346.07 -470.36 L344.41 -471.64 L342.33 -473.24 L340.68 -474.51 L338.61 -476.11 L336.55 -477.69 L334.91 -478.96 L332.86 -480.54 L331.22 -481.81 L329.18 -483.38 L327.14 -484.95 L325.52 -486.2 L323.49 -487.76 L321.46 -489.32 L319.85 -490.56 L317.83 -492.11 L316.22 -493.34 L314.21 -494.88 L312.2 -496.42 L310.6 -497.64 L308.6 -499.17 L306.61 -500.69 L305.02 -501.91 L303.03 -503.42 L301.45 -504.63 L299.47 -506.14 L297.5 -507.64 L295.92 -508.84 L293.96 -510.33 L292.39 -511.53 L290.44 -513.01 L288.49 -514.5 L286.93 -515.68 L284.99 -517.15 L283.44 -518.33 L281.51 -519.8 L279.58 -521.26 L278.04 -522.42 L276.12 -523.87 L274.2 -525.31 L272.67 -526.46 L270.76 -527.89 L269.23 -529.02 L267.32 -530.43 L265.41 -531.84 L263.89 -532.96 L261.99 -534.35 L260.47 -535.45 L258.57 -536.83 L256.67 -538.2 L255.15 -539.28 L253.26 -540.64 L251.37 -541.98 L249.86 -543.05 L247.98 -544.39 L246.47 -545.44 L244.59 -546.76 L243.09 -547.81 L241.21 -549.1 L239.33 -550.39 L237.83 -551.41 L235.96 -552.68 L234.09 -553.94 L232.59 -554.94 L230.72 -556.19 L229.22 -557.18 L227.36 -558.41 L225.5 -559.63 L224.02 -560.6 L222.17 -561.81 L220.33 -563.01 L218.87 -563.96 L217.06 -565.14 L215.63 -566.08 L213.86 -567.23 L212.12 -568.36 L210.75 -569.26 L209.06 -570.35 L207.74 -571.22 L206.11 -572.27 L204.51 -573.3 L203.26 -574.11 L201.73 -575.09 L200.53 -575.86 L199.06 -576.8 L197.62 -577.71 L196.49 -578.42 L195.11 -579.28 L193.75 -580.11 L192.69 -580.76 L191.38 -581.55 L190.36 -582.16 L189.11 -582.91 L187.88 -583.64 L186.92 -584.2 L185.75 -584.89 L184.83 -585.43 L183.7 -586.09 L182.59 -586.74 L181.72 -587.25 L180.65 -587.87 L179.81 -588.36 L178.76 -588.96 L177.74 -589.55 L176.94 -590.01 L175.94 -590.58 L174.97 -591.14 L174.2 -591.59 L173.25 -592.13 L172.5 -592.56 L171.57 -593.09 L170.66 -593.61 L169.94 -594.02 L169.05 -594.53 L168.17 -595.03 L167.47 -595.43 L166.61 -595.92 L165.93 -596.3 L165.09 -596.78 L164.43 -597.15 L163.61 -597.61 L162.8 -598.07 L162.15 -598.43 L161.36 -598.87 L160.57 -599.31 L159.95 -599.66 L159.17 -600.1 L158.55 -600.44 L157.78 -600.87 L157.02 -601.29 L156.41 -601.63 L155.66 -602.05 L155.06 -602.39 L154.31 -602.8 L153.57 -603.22 L152.98 -603.55 L152.24 -603.96 L151.51 -604.37 L150.93 -604.7 L150.22 -605.1 L149.66 -605.42 L148.97 -605.81 L148.28 -606.2 L147.74 -606.5 L147.08 -606.88 L146.56 -607.17 L145.92 -607.54 L145.29 -607.9 L144.8 -608.18 L144.19 -608.53 L143.71 -608.8 L143.12 -609.14 L142.54 -609.47 L142.09 -609.73 L141.53 -610.06 L140.98 -610.37 L140.55 -610.62 L140.02 -610.93 L139.6 -611.17 L139.08 -611.47 L138.57 -611.76 L138.17 -612.0 L137.67 -612.29 L137.18 -612.57 L136.8 -612.79 L136.32 -613.07 L135.94 -613.29 L135.48 -613.57 L135.03 -613.84 L134.67 -614.05 L134.23 -614.31 L133.89 -614.52 L133.48 -614.77 L133.16 -614.97 L132.77 -615.2 L132.39 -615.43 L132.09 -615.61 L131.73 -615.82 L131.38 -616.02 L131.1 -616.17 L130.75 -616.36 L130.48 -616.5 L130.13 -616.68 L129.77 -616.85 L129.49 -616.97 L129.13 -617.12 L128.85 -617.22 L128.51 -617.34 L128.18 -617.44 L127.92 -617.51 L127.6 -617.59 L127.29 -617.65 L127.04 -617.69 L126.73 -617.73 L126.49 -617.76 L126.19 -617.78 L125.9 -617.8 L125.68 -617.8 L125.4 -617.81 L125.18 -617.8 L124.91 -617.79 L124.65 -617.77 L124.45 -617.75 L124.21 -617.72 L123.97 -617.68 L123.79 -617.65 L123.56 -617.61 L123.39 -617.57 L123.18 -617.53 L122.98 -617.47 L122.82 -617.43 L122.62 -617.37 L122.47 -617.32 L122.28 -617.26 L122.1 -617.19 L121.95 -617.13 L121.77 -617.06 L121.59 -616.98 L121.45 -616.92 L121.29 -616.84 L121.15 -616.78 L120.99 -616.69 L120.83 -616.61 L120.71 -616.54 L120.55 -616.45 L120.43 -616.38 L120.28 -616.29 L120.14 -616.2 L120.02 -616.12 L119.89 -616.03 L119.78 -615.95 L119.64 -615.85 L119.51 -615.76 L119.41 -615.68 L119.28 -615.58 L119.16 -615.48 L119.06 -615.39 L118.94 -615.29 L118.85 -615.21 L118.74 -615.11 L118.63 -615.0 L118.54 -614.92 L118.43 -614.81 L118.35 -614.73 L118.25 -614.62 L118.15 -614.51 L118.07 -614.43 L117.98 -614.32 L117.88 -614.21 L117.81 -614.12 L117.72 -614.0 L117.64 -613.91 L117.54 -613.78 L117.44 -613.64 L117.35 -613.52 L117.24 -613.36 L117.14 -613.22 L117.02 -613.03 L116.89 -612.83 L116.78 -612.66 L116.65 -612.42 L116.54 -612.22 L116.41 -611.96 L116.29 -611.7 L116.2 -611.48 L116.09 -611.21 L115.99 -610.94 L115.92 -610.72 L115.83 -610.45 L115.77 -610.23 L115.7 -609.95 L115.64 -609.68 L115.6 -609.47 L115.55 -609.2 L115.52 -608.98 L115.48 -608.72 L115.46 -608.46 L115.44 -608.26 L115.43 -608.0 L115.42 -607.81 L115.42 -607.56 L115.42 -607.32 L115.43 -607.13 L115.44 -606.9 L115.46 -606.68 L115.48 -606.5 L115.5 -606.28 L115.53 -606.11 L115.56 -605.91 L115.59 -605.71 L115.62 -605.55 L115.66 -605.36 L115.7 -605.22 L115.74 -605.04 L115.79 -604.87 L115.82 -604.73 L115.88 -604.55 L115.92 -604.4 L115.99 -604.22 L116.05 -604.03 L116.11 -603.87 L116.19 -603.66 L116.28 -603.44 L116.36 -603.26 L116.47 -603.03 L116.56 -602.83 L116.69 -602.57 L116.83 -602.31 L116.95 -602.09 L117.12 -601.82 L117.29 -601.53 L117.45 -601.3 L117.65 -601.0 L117.82 -600.76 L118.05 -600.45 L118.29 -600.14 L118.49 -599.88 L118.76 -599.55 L118.99 -599.29 L119.28 -598.94 L119.59 -598.59 L119.85 -598.29 L120.18 -597.91 L120.46 -597.6 L120.82 -597.2 L121.19 -596.77 L121.5 -596.42 L121.89 -595.97 L122.21 -595.6 L122.62 -595.11 L123.04 -594.61 L123.39 -594.19 L123.82 -593.64 L124.25 -593.07 L124.6 -592.6 L125.03 -592.0 L125.38 -591.5 L125.81 -590.87 L126.25 -590.22 L126.6 -589.68 L127.04 -589.0 L127.39 -588.43 L127.82 -587.71 L128.24 -586.96 L128.58 -586.35 L128.99 -585.57 L129.4 -584.76 L129.72 -584.11 L130.11 -583.28 L130.42 -582.6 L130.8 -581.73 L131.18 -580.85 L131.47 -580.13 L131.83 -579.21 L132.12 -578.47 L132.47 -577.52 L132.83 -576.56 L133.11 -575.78 L133.47 -574.79 L133.83 -573.79 L134.11 -572.97 L134.48 -571.93 L134.77 -571.09 L135.13 -570.02 L135.5 -568.94 L135.8 -568.06 L136.17 -566.94 L136.47 -566.04 L136.85 -564.89 L137.23 -563.73 L137.54 -562.79 L137.94 -561.6 L138.26 -560.63 L138.67 -559.4 L139.08 -558.16 L139.42 -557.15 L139.85 -555.88 L140.2 -554.85 L140.64 -553.54 L141.09 -552.22 L141.46 -551.14 L141.93 -549.78 L142.4 -548.41 L142.79 -547.29 L143.27 -545.88 L143.67 -544.74 L144.16 -543.3 L144.66 -541.85 L145.06 -540.69 L145.57 -539.23 L145.98 -538.04 L146.5 -536.55 L147.03 -535.04 L147.45 -533.82 L147.99 -532.28 L148.54 -530.73 L148.98 -529.47 L149.53 -527.89 L149.97 -526.61 L150.53 -525.01 L151.1 -523.38 L151.55 -522.08 L152.12 -520.44 L152.58 -519.12 L153.15 -517.47 L153.71 -515.81 L154.17 -514.49 L154.74 -512.83 L155.19 -511.51 L155.76 -509.85 L156.32 -508.21 L156.77 -506.89 L157.34 -505.25 L157.91 -503.62 L158.36 -502.31 L158.92 -500.69 L159.37 -499.4 L159.93 -497.79 L160.5 -496.19 L160.95 -494.92 L161.51 -493.33 L161.96 -492.07 L162.51 -490.5 L163.07 -488.94 L163.51 -487.7 L164.06 -486.16 L164.5 -484.93 L165.04 -483.41 L165.58 -481.9 L166.0 -480.71 L166.52 -479.22 L167.03 -477.75 L167.43 -476.59 L167.93 -475.15 L168.31 -474.0 L168.79 -472.59 L169.26 -471.18 L169.62 -470.06 L170.06 -468.68 L170.41 -467.58 L170.82 -466.22 L171.23 -464.86 L171.54 -463.78 L171.92 -462.44 L172.21 -461.38 L172.56 -460.05 L172.9 -458.73 L173.16 -457.68 L173.47 -456.36 L173.77 -455.06 L173.99 -454.01 L174.26 -452.71 L174.47 -451.67 L174.71 -450.36 L174.93 -449.06 L175.09 -448.02 L175.28 -446.71 L175.45 -445.4 L175.57 -444.34 L175.71 -443.02 L175.8 -441.96 L175.89 -440.63 L175.96 -439.29 L176.0 -438.22 L176.03 -436.88 L176.05 -435.81 L176.06 -434.46 L176.06 -433.11 L176.05 -432.02 L176.03 -430.66 L176.0 -429.56 L175.96 -428.19 L175.91 -426.8 L175.86 -425.69 L175.78 -424.3 L175.7 -423.17 L175.6 -421.77 L175.48 -420.36 L175.37 -419.22 L175.22 -417.8 L175.04 -416.37 L174.89 -415.22 L174.69 -413.79 L174.52 -412.63 L174.28 -411.19 L174.03 -409.74 L173.81 -408.58 L173.52 -407.13 L173.28 -405.97 L172.95 -404.51 L172.61 -403.06 L172.32 -401.89 L171.93 -400.44 L171.53 -399.0 L171.2 -397.84 L170.76 -396.4 L170.4 -395.25 L169.93 -393.81 L169.54 -392.67 L169.04 -391.24 L168.51 -389.81 L168.08 -388.67 L167.52 -387.25 L166.95 -385.84 L166.47 -384.71 L165.87 -383.31 L165.37 -382.19 L164.72 -380.79 L164.06 -379.4 L163.52 -378.3 L162.83 -376.92 L162.12 -375.55 L161.54 -374.46 L160.8 -373.1 L160.19 -372.02 L159.42 -370.68 L158.62 -369.34 L157.98 -368.28 L157.15 -366.97 L156.48 -365.92 L155.62 -364.62 L154.75 -363.34 L154.03 -362.32 L153.12 -361.06 L152.19 -359.81 L151.43 -358.81 L150.47 -357.59 L149.69 -356.61 L148.7 -355.41 L147.9 -354.45 L146.89 -353.27 L145.86 -352.09 L145.03 -351.15 L143.97 -349.99 L142.91 -348.84 L142.04 -347.93 L140.94 -346.79 L140.05 -345.9 L138.92 -344.79 L137.78 -343.7 L136.85 -342.83 L135.67 -341.77 L134.47 -340.72 L133.5 -339.9 L132.27 -338.89 L131.27 -338.1 L130.01 -337.13 L128.73 -336.18 L127.7 -335.43 L126.41 -334.51 L125.36 -333.78 L124.05 -332.88 L122.72 -331.99 L121.65 -331.29 L120.31 -330.41 L119.24 -329.72 L117.89 -328.86 L116.54 -328.01 L115.45 -327.32 L114.09 -326.48 L113.0 -325.8 L111.63 -324.95 L110.27 -324.11 L109.17 -323.43 L107.81 -322.59 L106.44 -321.74 L105.35 -321.06 L103.98 -320.21 L102.89 -319.53 L101.53 -318.68 L100.16 -317.83 L99.07 -317.14 L97.71 -316.29 L96.63 -315.61 L95.27 -314.76 L93.92 -313.91 L92.84 -313.24 L91.49 -312.39 L90.14 -311.55 L89.07 -310.88 L87.73 -310.05 L86.66 -309.38 L85.32 -308.55 L83.99 -307.72 L82.93 -307.06 L81.6 -306.24 L80.54 -305.58 L79.22 -304.76 L77.91 -303.94 L76.85 -303.29 L75.54 -302.47 L74.23 -301.66 L73.18 -301.02 L71.88 -300.21 L70.84 -299.56 L69.54 -298.76 L68.51 -298.12 L67.22 -297.32 L65.93 -296.52 L64.91 -295.88 L63.64 -295.09 L62.37 -294.3 L61.36 -293.67 L60.1 -292.88 L58.85 -292.1 L57.85 -291.47 L56.61 -290.7 L55.61 -290.07 L54.38 -289.3 L53.14 -288.53 L52.15 -287.91 L50.92 -287.14 L49.94 -286.53 L48.72 -285.76 L47.5 -284.99 L46.52 -284.38 L45.3 -283.62 L44.33 -283.01 L43.12 -282.25 L41.92 -281.49 L40.95 -280.89 L39.75 -280.13 L38.8 -279.53 L37.6 -278.78 L36.41 -278.03 L35.46 -277.44 L34.27 -276.69 L33.09 -275.95 L32.14 -275.35 L30.96 -274.61 L30.02 -274.02 L28.84 -273.28 L27.67 -272.55 L26.73 -271.96 L25.56 -271.23 L24.63 -270.64 L23.47 -269.91 L22.31 -269.19 L21.38 -268.61 L20.22 -267.88 L19.07 -267.16 L18.14 -266.58 L16.99 -265.86 L16.08 -265.28 L14.93 -264.56 L13.79 -263.85 L12.87 -263.27 L11.73 -262.56 L10.82 -261.99 L9.69 -261.28 L8.56 -260.57 L7.66 -260.01 L6.55 -259.3 L5.66 -258.74 L4.55 -258.05 L3.45 -257.36 L2.58 -256.81 L1.49 -256.13 L0.63 -255.59 L-0.43 -254.92 L-1.49 -254.26 L-2.33 -253.73 L-3.37 -253.07 L-4.4 -252.42 L-5.22 -251.91 L-6.23 -251.27 L-7.03 -250.76 L-8.02 -250.13 L-9.0 -249.5 L-9.78 -249.01 L-10.74 -248.39 L-11.51 -247.91 L-12.45 -247.3 L-13.38 -246.7 L-14.11 -246.23 L-15.02 -245.64 L-15.74 -245.17 L-16.62 -244.58 L-17.49 -244.0 L-18.18 -243.53 L-19.04 -242.94 L-19.88 -242.35 L-20.54 -241.87 L-21.37 -241.27 L-22.03 -240.78 L-22.85 -240.16 L-23.67 -239.53 L-24.32 -239.02 L-25.13 -238.37 L-25.93 -237.71 L-26.57 -237.17 L-27.36 -236.49 L-27.99 -235.93 L-28.78 -235.22 L-29.56 -234.5 L-30.18 -233.91 L-30.95 -233.16 L-31.56 -232.55 L-32.32 -231.78 L-33.08 -230.99 L-33.68 -230.35 L-34.43 -229.54 L-35.02 -228.88 L-35.75 -228.05 L-36.47 -227.2 L-37.03 -226.5 L-37.73 -225.62 L-38.29 -224.9 L-38.97 -223.99 L-39.65 -223.06 L-40.18 -222.31 L-40.85 -221.36 L-41.5 -220.4 L-42.02 -219.62 L-42.65 -218.64 L-43.16 -217.84 L-43.77 -216.83 L-44.38 -215.8 L-44.86 -214.98 L-45.45 -213.93 L-45.91 -213.08 L-46.48 -212.01 L-47.03 -210.93 L-47.47 -210.05 L-48.01 -208.94 L-48.43 -208.05 L-48.95 -206.92 L-49.46 -205.77 L-49.86 -204.85 L-50.36 -203.69 L-50.85 -202.51 L-51.24 -201.57 L-51.72 -200.37 L-52.1 -199.41 L-52.57 -198.21 L-53.04 -196.99 L-53.41 -196.01 L-53.87 -194.78 L-54.24 -193.78 L-54.69 -192.54 L-55.15 -191.28 L-55.52 -190.27 L-55.97 -189.01 L-56.43 -187.74 L-56.79 -186.72 L-57.24 -185.45 L-57.6 -184.44 L-58.05 -183.17 L-58.5 -181.91 L-58.86 -180.9 L-59.31 -179.65 L-59.66 -178.65 L-60.11 -177.4 L-60.56 -176.16 L-60.92 -175.18 L-61.38 -173.96 L-61.74 -172.99 L-62.2 -171.78 L-62.67 -170.59 L-63.05 -169.64 L-63.54 -168.47 L-64.03 -167.3 L-64.43 -166.38 L-64.94 -165.24 L-65.36 -164.33 L-65.9 -163.21 L-66.45 -162.1 L-66.89 -161.23 L-67.47 -160.14 L-67.94 -159.28 L-68.54 -158.22 L-69.16 -157.16 L-69.66 -156.33 L-70.29 -155.3 L-70.81 -154.48 L-71.46 -153.46 L-72.13 -152.46 L-72.68 -151.66 L-73.37 -150.67 L-74.09 -149.69 L-74.67 -148.92 L-75.42 -147.98 L-76.03 -147.23 L-76.81 -146.31 L-77.6 -145.42 L-78.24 -144.71 L-79.05 -143.84 L-79.88 -142.99 L-80.55 -142.32 L-81.41 -141.49 L-82.1 -140.84 L-82.97 -140.05 L-83.86 -139.28 L-84.58 -138.67 L-85.48 -137.92 L-86.21 -137.34 L-87.13 -136.63 L-88.06 -135.93 L-88.8 -135.38 L-89.74 -134.7 L-90.49 -134.16 L-91.44 -133.5 L-92.4 -132.85 L-93.17 -132.34 L-94.14 -131.72 L-94.93 -131.23 L-95.92 -130.63 L-96.92 -130.05 L-97.72 -129.59 L-98.74 -129.04 L-99.76 -128.5 L-100.58 -128.07 L-101.61 -127.56 L-102.44 -127.16 L-103.49 -126.66 L-104.54 -126.18 L-105.38 -125.79 L-106.44 -125.32 L-107.29 -124.94 L-108.37 -124.47 L-109.45 -124.01 L-110.31 -123.64 L-111.4 -123.19 L-112.5 -122.73 L-113.38 -122.38 L-114.49 -121.93 L-115.38 -121.58 L-116.49 -121.14 L-117.61 -120.71 L-118.5 -120.36 L-119.62 -119.94 L-120.51 -119.6 L-121.61 -119.19 L-122.71 -118.77 L-123.58 -118.44 L-124.65 -118.03 L-125.51 -117.7 L-126.56 -117.29 L-127.6 -116.88 L-128.42 -116.55 L-129.43 -116.14 L-130.43 -115.72 L-131.22 -115.39 L-132.19 -114.96 L-132.96 -114.62 L-133.9 -114.18 L-134.83 -113.73 L-135.57 -113.37 L-136.48 -112.9 L-137.19 -112.53 L-138.08 -112.04 L-138.96 -111.54 L-139.65 -111.14 L-140.52 -110.62 L-141.37 -110.09 L-142.06 -109.66 L-142.9 -109.11 L-143.58 -108.66 L-144.42 -108.08 L-145.25 -107.5 L-145.91 -107.02 L-146.73 -106.41 L-147.38 -105.92 L-148.17 -105.29 L-148.95 -104.64 L-149.57 -104.12 L-150.32 -103.45 L-150.91 -102.91 L-151.63 -102.21 L-152.33 -101.51 L-152.88 -100.93 L-153.56 -100.21 L-154.08 -99.61 L-154.72 -98.86 L-155.34 -98.09 L-155.83 -97.47 L-156.42 -96.67 L-157.0 -95.86 L-157.45 -95.2 L-158.01 -94.37 L-158.44 -93.69 L-158.96 -92.82 L-159.48 -91.93 L-159.88 -91.21 L-160.37 -90.3 L-160.85 -89.37 L-161.23 -88.62 L-161.69 -87.67 L-162.04 -86.9 L-162.48 -85.93 L-162.9 -84.94 L-163.22 -84.14 L-163.62 -83.13 L-163.92 -82.32 L-164.29 -81.29 L-164.63 -80.25 L-164.9 -79.41 L-165.21 -78.34 L-165.45 -77.48 L-165.74 -76.39 L-166.02 -75.29 L-166.22 -74.4 L-166.47 -73.28 L-166.65 -72.38 L-166.87 -71.24 L-167.07 -70.08 L-167.22 -69.15 L-167.39 -67.98 L-167.56 -66.8 L-167.68 -65.84 L-167.81 -64.64 L-167.92 -63.67 L-168.04 -62.46 L-168.15 -61.23 L-168.23 -60.24 L-168.33 -58.99 L-168.4 -57.98 L-168.5 -56.71 L-168.59 -55.44 L-168.67 -54.42 L-168.77 -53.13 L-168.85 -52.1 L-168.96 -50.81 L-169.07 -49.52 L-169.17 -48.49 L-169.29 -47.2 L-169.42 -45.91 L-169.53 -44.89 L-169.68 -43.61 L-169.8 -42.59 L-169.97 -41.31 L-170.15 -40.04 L-170.3 -39.03 L-170.49 -37.76 L-170.65 -36.75 L-170.87 -35.48 L-171.09 -34.22 L-171.27 -33.21 L-171.51 -31.95 L-171.77 -30.69 L-171.98 -29.69 L-172.26 -28.43 L-172.49 -27.43 L-172.8 -26.19 L-173.12 -24.95 L-173.38 -23.97 L-173.73 -22.74 L-174.02 -21.77 L-174.39 -20.56 L-174.78 -19.35 L-175.11 -18.39 L-175.52 -17.2 L-175.86 -16.26 L-176.31 -15.08 L-176.76 -13.92 L-177.13 -12.99 L-177.61 -11.84 L-178.09 -10.69 L-178.49 -9.78 L-179.0 -8.65 L-179.41 -7.75 L-179.93 -6.63 L-180.46 -5.52 L-180.89 -4.64 L-181.44 -3.54 L-181.88 -2.66 L-182.45 -1.58 L-183.04 -0.5 L-183.52 0.36 L-184.13 1.41 L-184.63 2.25 L-185.27 3.29 L-185.92 4.31 L-186.46 5.12 L-187.13 6.12 L-187.82 7.11 L-188.37 7.89 L-189.07 8.86 L-189.65 9.63 L-190.37 10.59 L-191.1 11.53 L-191.7 12.28 L-192.44 13.2 L-193.2 14.12 L-193.81 14.84 L-194.57 15.74 L-195.19 16.45 L-195.97 17.34 L-196.75 18.22 L-197.38 18.91 L-198.18 19.77 L-198.82 20.46 L-199.63 21.3 L-200.45 22.13 L-201.11 22.79 L-201.94 23.6 L-202.6 24.25 L-203.44 25.04 L-204.29 25.82 L-204.97 26.45 L-205.82 27.21 L-206.51 27.82 L-207.37 28.57 L-208.24 29.3 L-208.93 29.88 L-209.79 30.58 L-210.65 31.27 L-211.34 31.81 L-212.18 32.46 L-212.85 32.98 L-213.68 33.6 L-214.5 34.22 L-215.15 34.69 L-215.94 35.28 L-216.56 35.73 L-217.32 36.29 L-218.07 36.83 L-218.65 37.25 L-219.36 37.76 L-220.05 38.27 L-220.6 38.66 L-221.26 39.15 L-221.78 39.54 L-222.41 40.02 L-223.03 40.49 L-223.52 40.88 L-224.11 41.35 L-224.57 41.74 L-225.14 42.22 L-225.7 42.71 L-226.14 43.11 L-226.69 43.61 L-227.12 44.02 L-227.66 44.55 L-228.19 45.09 L-228.61 45.52 L-229.14 46.08 L-229.66 46.65 L-230.06 47.11 L-230.55 47.7 L-230.93 48.17 L-231.38 48.77 L-231.81 49.38 L-232.14 49.86 L-232.53 50.47 L-232.81 50.96 L-233.15 51.57 L-233.47 52.19 L-233.71 52.68 L-233.98 53.3 L-234.18 53.8 L-234.42 54.43 L-234.63 55.07 L-234.79 55.58 L-234.97 56.24 L-235.11 56.77 L-235.27 57.44 L-235.42 58.13 L-235.52 58.69 L-235.65 59.4 L-235.76 60.13 L-235.83 60.72 L-235.92 61.46 L-235.98 62.07 L-236.05 62.84 L-236.11 63.62 L-236.15 64.26 L-236.18 65.06 L-236.2 65.87 L-236.2 66.53 L-236.18 67.35 L-236.16 68.01 L-236.11 68.85 L-236.06 69.52 L-235.97 70.36 L-235.87 71.22 L-235.77 71.9 L-235.64 72.78 L-235.49 73.66 L-235.36 74.37 L-235.18 75.28 L-235.03 76.01 L-234.83 76.93 L-234.61 77.87 L-234.43 78.63 L-234.19 79.59 L-233.93 80.56 L-233.72 81.35 L-233.44 82.34 L-233.21 83.15 L-232.91 84.17 L-232.6 85.19 L-232.34 86.02 L-232.01 87.08 L-231.74 87.93 L-231.38 89.01 L-231.02 90.1 L-230.73 90.99 L-230.36 92.11 L-229.98 93.24 L-229.67 94.16 L-229.28 95.33 L-228.96 96.28 L-228.57 97.48 L-228.17 98.7 L-227.85 99.68 L-227.44 100.93 L-227.11 101.94 L-226.7 103.21 L-226.29 104.49 L-225.95 105.52 L-225.53 106.81 L-225.2 107.84 L-224.78 109.12 L-224.38 110.38 L-224.05 111.38 L-223.66 112.61 L-223.27 113.82 L-222.96 114.78 L-222.58 115.95 L-222.28 116.88 L-221.91 118.01 L-221.55 119.13 L-221.27 120.0 L-220.92 121.08 L-220.64 121.92 L-220.3 122.96 L-219.96 123.98 L-219.7 124.79 L-219.37 125.77 L-219.11 126.55 L-218.8 127.51 L-218.49 128.45 L-218.25 129.18 L-217.95 130.09 L-217.65 130.98 L-217.42 131.68 L-217.14 132.54 L-216.92 133.22 L-216.65 134.05 L-216.39 134.86 L-216.18 135.5 L-215.92 136.29 L-215.67 137.05 L-215.47 137.65 L-215.22 138.39 L-215.02 138.96 L-214.77 139.66 L-214.53 140.34 L-214.33 140.88 L-214.08 141.53 L-213.88 142.04 L-213.62 142.66 L-213.36 143.26 L-213.15 143.73 L-212.87 144.3 L-212.65 144.73 L-212.35 145.26 L-212.05 145.77 L-211.8 146.16 L-211.49 146.62 L-211.23 146.98 L-210.9 147.39 L-210.57 147.79 L-210.3 148.09 L-209.97 148.44 L-209.63 148.77 L-209.36 149.02 L-209.02 149.31 L-208.76 149.53 L-208.43 149.78 L-208.1 150.01 L-207.84 150.19 L-207.53 150.39 L-207.28 150.54 L-206.97 150.71 L-206.67 150.87 L-206.43 150.99 L-206.14 151.12 L-205.85 151.25 L-205.63 151.34 L-205.35 151.45 L-205.13 151.53 L-204.87 151.62 L-204.61 151.7 L-204.41 151.76 L-204.15 151.83 L-203.95 151.89 L-203.7 151.96 L-203.45 152.02 L-203.24 152.07 L-202.96 152.14 L-202.67 152.21 L-202.43 152.27 L-202.12 152.35 L-201.85 152.42 L-201.5 152.5 L-201.21 152.58 L-200.83 152.68 L-200.44 152.79 L-200.11 152.88 L-199.68 153.0 L-199.23 153.14 L-198.86 153.25 L-198.39 153.41 L-198.0 153.54 L-197.5 153.73 L-196.99 153.92 L-196.58 154.1 L-196.05 154.32 L-195.62 154.52 L-195.07 154.77 L-194.52 155.05 L-194.08 155.29 L-193.52 155.6 L-192.96 155.93 L-192.52 156.21 L-191.96 156.58 L-191.53 156.89 L-190.99 157.29 L-190.48 157.71 L-190.08 158.05 L-189.59 158.5 L-189.21 158.87 L-188.76 159.34 L-188.31 159.83 L-187.97 160.24 L-187.54 160.76 L-187.13 161.3 L-186.81 161.75 L-186.41 162.32 L-186.1 162.8 L-185.73 163.41 L-185.37 164.03 L-185.09 164.55 L-184.75 165.21 L-184.48 165.75 L-184.17 166.44 L-183.86 167.15 L-183.63 167.73 L-183.35 168.47 L-183.13 169.06 L-182.87 169.82 L-182.61 170.6 L-182.41 171.23 L-182.17 172.03 L-181.93 172.84 L-181.75 173.51 L-181.54 174.34 L-181.37 175.02 L-181.18 175.86 L-180.99 176.7 L-180.85 177.37 L-180.69 178.21 L-180.56 178.87 L-180.42 179.7 L-180.28 180.51 L-180.17 181.16 L-180.05 181.95 L-179.95 182.57 L-179.84 183.33 L-179.73 184.07 L-179.65 184.65 L-179.55 185.36 L-179.45 186.05 L-179.37 186.58 L-179.27 187.22 L-179.19 187.73 L-179.09 188.33 L-178.98 188.92 L-178.89 189.38 L-178.77 189.94 L-178.68 190.37 L-178.55 190.92 L-178.41 191.47 L-178.28 191.91 L-178.12 192.46 L-177.94 193.01 L-177.79 193.46 L-177.58 194.01 L-177.41 194.46 L-177.17 195.02 L-176.96 195.46 L-176.69 196.02 L-176.39 196.56 L-176.13 196.99 L-175.81 197.52 L-175.46 198.03 L-175.17 198.43 L-174.8 198.89 L-174.5 199.25 L-174.11 199.68 L-173.72 200.08 L-173.4 200.39 L-172.99 200.74 L-172.66 201.01 L-172.25 201.33 L-171.83 201.62 L-171.49 201.83 L-171.06 202.08 L-170.62 202.31 L-170.26 202.49 L-169.78 202.7 L-169.39 202.86 L-168.89 203.06 L-168.36 203.25 L-167.93 203.4 L-167.38 203.58 L-166.92 203.73 L-166.33 203.91 L-165.72 204.09 L-165.23 204.24 L-164.59 204.42 L-163.94 204.6 L-163.41 204.73 L-162.73 204.89 L-162.18 205.01 L-161.47 205.15 L-160.75 205.29 L-160.16 205.39 L-159.4 205.5 L-158.79 205.59 L-158.01 205.69 L-157.21 205.77 L-156.56 205.83 L-155.74 205.89 L-154.9 205.93 L-154.22 205.95 L-153.36 205.96 L-152.66 205.96 L-151.77 205.94 L-150.87 205.91 L-150.13 205.87 L-149.2 205.81 L-148.44 205.76 L-147.48 205.68 L-146.5 205.6 L-145.7 205.52 L-144.7 205.42 L-143.89 205.34 L-142.85 205.23 L-141.81 205.1 L-140.96 205.0 L-139.88 204.86 L-138.79 204.72 L-137.91 204.61 L-136.79 204.46 L-135.88 204.34 L-134.73 204.19 L-133.57 204.03 L-132.62 203.91 L-131.43 203.76 L-130.46 203.64 L-129.23 203.48 L-127.98 203.33 L-126.97 203.2 L-125.69 203.05 L-124.39 202.89 L-123.33 202.76 L-122.0 202.6 L-120.92 202.47 L-119.56 202.31 L-118.19 202.15 L-117.08 202.01 L-115.67 201.84 L-114.53 201.71 L-113.09 201.54 L-111.64 201.36 L-110.46 201.22 L-108.98 201.05 L-107.78 200.9 L-106.26 200.72 L-104.73 200.54 L-103.5 200.4 L-101.96 200.21 L-100.41 200.03 L-99.16 199.88 L-97.59 199.7 L-96.32 199.54 L-94.72 199.35 L-93.1 199.16 L-91.8 199.0 L-90.16 198.81 L-88.84 198.65 L-87.18 198.44 L-85.5 198.24 L-84.15 198.07 L-82.45 197.86 L-80.74 197.64 L-79.36 197.46 L-77.62 197.24 L-76.22 197.06 L-74.46 196.82 L-72.69 196.59 L-71.26 196.4 L-69.46 196.16 L-68.01 195.97 L-66.19 195.74 L-64.35 195.5 L-62.87 195.32 L-61.01 195.08 L-59.52 194.9 L-57.64 194.66 L-55.74 194.43 L-54.22 194.24 L-52.3 194.0 L-50.38 193.76 L-48.82 193.56 L-46.87 193.32 L-45.31 193.12 L-43.33 192.87 L-41.35 192.63 L-39.76 192.43 L-37.76 192.18 L-36.16 191.99 L-34.17 191.74 L-32.2 191.5 L-30.64 191.31 L-28.7 191.07 L-26.78 190.84 L-25.26 190.65 L-23.37 190.42 L-21.87 190.24 L-20.01 190.01 L-18.16 189.78 L-16.69 189.59 L-14.86 189.37 L-13.4 189.19 L-11.59 188.97 L-9.79 188.75 L-8.35 188.57 L-6.57 188.35 L-5.16 188.18 L-3.4 187.96 L-1.65 187.74 L-0.25 187.56 L1.48 187.34 L3.21 187.12 L4.58 186.94 L6.29 186.71 L7.65 186.53 L9.34 186.31 L11.01 186.09 L12.34 185.91 L13.99 185.68 L15.29 185.5 L16.91 185.27 L18.51 185.04 L19.77 184.86 L21.34 184.64 L22.89 184.41 L24.12 184.22 L25.65 183.99 L26.85 183.81 L28.36 183.57 L29.84 183.33 L31.03 183.14 L32.5 182.9 L33.68 182.71 L35.14 182.47 L36.59 182.23 L37.74 182.04 L39.17 181.8 L40.31 181.61 L41.72 181.38 L43.12 181.15 L44.22 180.96 L45.59 180.73 L46.95 180.51 L48.03 180.33 L49.36 180.11 L50.42 179.94 L51.73 179.72 L53.03 179.5 L54.06 179.33 L55.34 179.12 L56.35 178.95 L57.6 178.74 L58.83 178.53 L59.81 178.36 L61.02 178.16 L61.97 178.0 L63.15 177.8 L64.3 177.6 L65.22 177.44 L66.34 177.25 L67.45 177.06 L68.32 176.91 L69.4 176.73 L70.24 176.59 L71.28 176.41 L72.29 176.24 L73.09 176.1 L74.07 175.94 L74.84 175.81 L75.78 175.65 L76.7 175.5 L77.41 175.38 L78.28 175.23 L78.95 175.12 L79.77 174.99 L80.56 174.86 L81.16 174.77 L81.9 174.65 L82.61 174.53 L83.16 174.44 L83.83 174.34 L84.35 174.25 L84.97 174.15 L85.57 174.06 L86.03 173.99 L86.58 173.9 L87.11 173.81 L87.52 173.75 L88.01 173.67 L88.39 173.61 L88.84 173.53 L89.19 173.48 L89.61 173.41 L90.01 173.34 L90.31 173.28 L90.69 173.21 L91.05 173.15 L91.33 173.09 L91.67 173.02 L91.93 172.96 L92.26 172.88 L92.57 172.79 L92.81 172.72 L93.1 172.62 L93.33 172.54 L93.61 172.43 L93.87 172.32 L94.08 172.22 L94.33 172.1 L94.57 171.97 L94.76 171.86 L94.98 171.72 L95.16 171.61 L95.38 171.46 L95.59 171.32 L95.75 171.2 L95.95 171.05 L96.1 170.92 L96.28 170.77 L96.46 170.62 L96.6 170.49 L96.76 170.34 L96.88 170.21 L97.03 170.06 L97.17 169.91 L97.27 169.79 L97.4 169.64 L97.52 169.5 L97.61 169.38 L97.72 169.24 L97.8 169.13 L97.89 169.0 L97.99 168.86 L98.06 168.76 L98.14 168.63 L98.21 168.52 L98.28 168.39 L98.36 168.25 L98.42 168.14 L98.5 168.0 L98.57 167.86 L98.63 167.74 L98.71 167.58 L98.77 167.45 L98.85 167.27 L98.94 167.08 L99.01 166.92 L99.09 166.7 L99.17 166.51 L99.26 166.26 L99.35 165.99 L99.42 165.77 L99.5 165.47 L99.57 165.22 L99.63 164.9 L99.69 164.55 L99.72 164.27 L99.76 163.9 L99.77 163.6 L99.78 163.23 L99.77 162.87 L99.76 162.58 L99.73 162.22 L99.69 161.88 L99.65 161.6 L99.59 161.27 L99.54 161.01 L99.46 160.69 L99.37 160.37 L99.3 160.12 L99.19 159.81 L99.1 159.56 L98.97 159.24 L98.83 158.92 L98.71 158.66 L98.55 158.34 L98.37 158.01 L98.22 157.75 L98.02 157.42 L97.84 157.16 L97.61 156.83 L97.36 156.5 L97.14 156.23 L96.86 155.89 L96.56 155.55 L96.3 155.27 L95.96 154.92 L95.67 154.64 L95.3 154.28 L94.98 153.99 L94.56 153.63 L94.13 153.26 L93.76 152.97 L93.28 152.6 L92.78 152.22 L92.37 151.92 L91.82 151.54 L91.37 151.24 L90.78 150.85 L90.18 150.45 L89.69 150.12 L89.06 149.71 L88.54 149.36 L87.88 148.93 L87.21 148.47 L86.67 148.1 L85.97 147.62 L85.27 147.11 L84.71 146.7 L84.0 146.16 L83.43 145.72 L82.71 145.16 L81.98 144.58 L81.4 144.1 L80.66 143.49 L80.07 142.99 L79.32 142.35 L78.58 141.69 L77.97 141.15 L77.22 140.46 L76.61 139.89 L75.84 139.17 L75.08 138.42 L74.47 137.82 L73.7 137.04 L72.93 136.25 L72.31 135.6 L71.53 134.78 L70.91 134.11 L70.13 133.25 L69.34 132.38 L68.71 131.68 L67.91 130.77 L67.26 130.03 L66.46 129.1 L65.65 128.14 L65.0 127.36 L64.19 126.37 L63.37 125.36 L62.72 124.54 L61.89 123.5 L61.23 122.66 L60.39 121.59 L59.72 120.72 L58.87 119.62 L58.01 118.5 L57.32 117.6 L56.45 116.46 L55.57 115.31 L54.87 114.39 L53.99 113.23 L53.28 112.29 L52.38 111.11 L51.48 109.91 L50.75 108.95 L49.83 107.73 L48.91 106.5 L48.17 105.5 L47.23 104.25 L46.48 103.23 L45.53 101.96 L44.58 100.66 L43.82 99.62 L42.86 98.31 L42.09 97.25 L41.12 95.91 L40.14 94.57 L39.35 93.48 L38.36 92.11 L37.37 90.73 L36.57 89.62 L35.57 88.22 L34.77 87.1 L33.77 85.68 L32.76 84.27 L31.96 83.14 L30.97 81.73 L30.19 80.6 L29.22 79.21 L28.27 77.83 L27.52 76.73 L26.59 75.37 L25.85 74.29 L24.94 72.96 L24.04 71.63 L23.33 70.58 L22.45 69.28 L21.58 67.99 L20.9 66.96 L20.04 65.69 L19.37 64.69 L18.54 63.44 L17.71 62.21 L17.06 61.23 L16.25 60.02 L15.61 59.07 L14.82 57.88 L14.03 56.7 L13.41 55.77 L12.64 54.62 L12.03 53.7 L11.27 52.57 L10.52 51.45 L9.92 50.56 L9.19 49.45 L8.46 48.36 L7.89 47.5 L7.17 46.43 L6.61 45.58 L5.91 44.53 L5.22 43.49 L4.67 42.67 L4.0 41.64 L3.46 40.83 L2.8 39.83 L2.15 38.84 L1.64 38.05 L1.0 37.08 L0.37 36.12 L-0.12 35.36 L-0.73 34.42 L-1.21 33.68 L-1.8 32.76 L-2.38 31.86 L-2.85 31.15 L-3.41 30.27 L-3.86 29.57 L-4.41 28.71 L-4.96 27.86 L-5.38 27.19 L-5.91 26.36 L-6.32 25.71 L-6.83 24.9 L-7.33 24.1 L-7.72 23.47 L-8.21 22.69 L-8.59 22.08 L-9.05 21.32 L-9.51 20.57 L-9.87 19.97 L-10.3 19.24 L-10.73 18.51 L-11.06 17.94 L-11.46 17.23 L-11.77 16.66 L-12.15 15.96 L-12.51 15.26 L-12.79 14.71 L-13.13 14.03 L-13.39 13.48 L-13.7 12.8 L-14.0 12.12 L-14.23 11.58 L-14.51 10.91 L-14.77 10.23 L-14.96 9.69 L-15.2 9.01 L-15.38 8.47 L-15.59 7.79 L-15.79 7.1 L-15.94 6.55 L-16.11 5.86 L-16.23 5.31 L-16.37 4.62 L-16.5 3.93 L-16.58 3.37 L-16.67 2.67 L-16.73 2.12 L-16.79 1.43 L-16.84 0.73 L-16.86 0.18 L-16.87 -0.52 L-16.87 -1.22 L-16.85 -1.79 L-16.81 -2.49 L-16.77 -3.06 L-16.71 -3.77 L-16.63 -4.49 L-16.55 -5.07 L-16.44 -5.79 L-16.31 -6.51 L-16.19 -7.09 L-16.03 -7.82 L-15.88 -8.41 L-15.69 -9.13 L-15.47 -9.86 L-15.28 -10.43 L-15.03 -11.15 L-14.82 -11.72 L-14.53 -12.43 L-14.22 -13.13 L-13.96 -13.7 L-13.62 -14.4 L-13.33 -14.96 L-12.95 -15.66 L-12.54 -16.36 L-12.21 -16.91 L-11.77 -17.6 L-11.4 -18.15 L-10.92 -18.82 L-10.43 -19.48 L-10.02 -20.0 L-9.48 -20.63 L-8.93 -21.25 L-8.48 -21.74 L-7.9 -22.33 L-7.42 -22.8 L-6.8 -23.37 L-6.16 -23.93 L-5.63 -24.37 L-4.95 -24.9 L-4.4 -25.32 L-3.68 -25.84 L-2.95 -26.33 L-2.35 -26.72 L-1.58 -27.19 L-0.95 -27.55 L-0.15 -27.98 L0.67 -28.39 L1.33 -28.7 L2.18 -29.07 L3.04 -29.42 L3.73 -29.69 L4.61 -29.99 L5.32 -30.21 L6.21 -30.46 L7.11 -30.69 L7.83 -30.85 L8.74 -31.03 L9.48 -31.15 L10.41 -31.29 L11.34 -31.4 L12.1 -31.48 L13.06 -31.55 L14.02 -31.61 L14.8 -31.64 L15.77 -31.66 L16.56 -31.68 L17.56 -31.68 L18.58 -31.68 L19.4 -31.67 L20.44 -31.65 L21.28 -31.63 L22.35 -31.59 L23.43 -31.56 L24.3 -31.52 L25.4 -31.47 L26.3 -31.42 L27.43 -31.36 L28.57 -31.29 L29.49 -31.23 L30.66 -31.16 L31.61 -31.1 L32.8 -31.02 L34.0 -30.94 L34.98 -30.88 L36.21 -30.8 L37.46 -30.72 L38.47 -30.65 L39.74 -30.57 L40.76 -30.51 L42.06 -30.43 L43.36 -30.34 L44.4 -30.28 L45.69 -30.19 L46.73 -30.12 L48.02 -30.04 L49.3 -29.95 L50.32 -29.88 L51.59 -29.79 L52.85 -29.7 L53.85 -29.63 L55.08 -29.54 L56.07 -29.47 L57.28 -29.38 L58.49 -29.28 L59.44 -29.21 L60.63 -29.11 L61.8 -29.01 L62.73 -28.92 L63.89 -28.8 L64.8 -28.7 L65.93 -28.56 L67.05 -28.41 L67.94 -28.28 L69.04 -28.11 L69.91 -27.97 L70.98 -27.77 L72.05 -27.56 L72.9 -27.38 L73.95 -27.13 L74.77 -26.92 L75.8 -26.63 L76.8 -26.32 L77.6 -26.06 L78.57 -25.71 L79.34 -25.41 L80.29 -25.02 L81.21 -24.61 L81.94 -24.26 L82.83 -23.8 L83.71 -23.33 L84.39 -22.93 L85.22 -22.41 L85.88 -21.98 L86.67 -21.43 L87.45 -20.85 L88.06 -20.37 L88.79 -19.75 L89.37 -19.24 L90.08 -18.59 L90.76 -17.91 L91.3 -17.35 L91.97 -16.63 L92.62 -15.88 L93.12 -15.27 L93.75 -14.48 L94.23 -13.84 L94.83 -13.02 L95.41 -12.17 L95.87 -11.47 L96.42 -10.59 L96.85 -9.86 L97.37 -8.94 L97.88 -8.0 L98.27 -7.24 L98.76 -6.27 L99.14 -5.48 L99.61 -4.48 L100.08 -3.46 L100.45 -2.63 L100.91 -1.57 L101.27 -0.71 L101.71 0.38 L102.16 1.48 L102.51 2.38 L102.95 3.52 L103.38 4.67 L103.72 5.6 L104.15 6.79 L104.5 7.75 L104.93 8.96 L105.37 10.19 L105.72 11.19 L106.16 12.44 L106.53 13.46 L106.99 14.74 L107.47 16.03 L107.86 17.08 L108.37 18.39 L108.89 19.7 L109.33 20.76 L109.89 22.09 L110.36 23.16 L110.96 24.5 L111.57 25.84 L112.07 26.91 L112.72 28.25 L113.26 29.34 L113.94 30.69 L114.65 32.05 L115.23 33.14 L115.97 34.51 L116.58 35.6 L117.37 36.97 L118.18 38.33 L118.86 39.41 L119.72 40.77 L120.43 41.86 L121.34 43.21 L122.26 44.55 L123.02 45.62 L124.0 46.94 L125.01 48.25 L125.84 49.29 L126.89 50.58 L127.75 51.6 L128.85 52.86 L129.95 54.1 L130.84 55.09 L131.95 56.32 L133.06 57.53 L133.95 58.49 L135.06 59.68 L135.95 60.62 L137.04 61.78 L138.13 62.93 L138.99 63.84 L140.06 64.96 L140.9 65.84 L141.93 66.92 L142.94 67.97 L143.74 68.8 L144.71 69.81 L145.47 70.6 L146.41 71.56 L147.33 72.49 L148.06 73.21 L148.95 74.08 L149.83 74.92 L150.53 75.56 L151.4 76.34 L152.09 76.94 L152.96 77.67 L153.83 78.37 L154.53 78.9 L155.4 79.55 L156.1 80.04 L156.98 80.63 L157.84 81.19 L158.53 81.61 L159.38 82.11 L160.23 82.58 L160.91 82.93 L161.75 83.34 L162.41 83.65 L163.23 84.01 L164.04 84.34 L164.68 84.58 L165.47 84.86 L166.1 85.06 L166.87 85.28 L167.63 85.48 L168.23 85.62 L168.97 85.76 L169.55 85.86 L170.28 85.96 L171.0 86.03 L171.58 86.07 L172.3 86.1 L172.88 86.11 L173.63 86.12 L174.4 86.13 L175.02 86.14 L175.82 86.15 L176.63 86.18 L177.28 86.2 L178.11 86.23 L178.79 86.26 L179.64 86.3 L180.52 86.34 L181.22 86.37 L182.12 86.42 L182.85 86.45 L183.77 86.51 L184.7 86.56 L185.46 86.6 L186.4 86.66 L187.35 86.72 L188.09 86.77 L189.01 86.83 L189.73 86.87 L190.61 86.93 L191.46 86.99 L192.14 87.03 L192.95 87.08 L193.59 87.12 L194.37 87.17 L195.13 87.21 L195.73 87.24 L196.45 87.27 L197.15 87.3 L197.7 87.32 L198.38 87.33 L198.91 87.34 L199.56 87.34 L200.07 87.33 L200.69 87.3 L201.3 87.26 L201.77 87.21 L202.35 87.13 L202.9 87.04 L203.34 86.95 L203.87 86.82 L204.28 86.7 L204.79 86.54 L205.27 86.36 L205.64 86.2 L206.09 85.99 L206.52 85.76 L206.85 85.57 L207.25 85.32 L207.55 85.11 L207.91 84.83 L208.25 84.55 L208.51 84.31 L208.82 84.01 L209.06 83.76 L209.34 83.45 L209.61 83.12 L209.82 82.85 L210.08 82.49 L210.27 82.2 L210.51 81.82 L210.73 81.42 L210.9 81.1 L211.09 80.68 L211.28 80.24 L211.41 79.89 L211.57 79.43 L211.68 79.05 L211.8 78.57 L211.9 78.07 L211.96 77.67 L212.03 77.15 L212.08 76.73 L212.11 76.2 L212.14 75.64 L212.15 75.19 L212.15 74.62 L212.14 74.04 L212.12 73.56 L212.08 72.96 L212.04 72.48 L211.96 71.87 L211.87 71.26 L211.77 70.77 L211.64 70.18 L211.52 69.71 L211.35 69.13 L211.15 68.56 L210.99 68.11 L210.77 67.56 L210.53 67.03 L210.33 66.61 L210.07 66.11 L209.86 65.71 L209.58 65.23 L209.35 64.85 L209.06 64.37 L208.74 63.89 L208.48 63.5 L208.14 63.02 L207.78 62.52 L207.48 62.13 L207.08 61.62 L206.75 61.22 L206.32 60.7 L205.87 60.18 L205.5 59.76 L205.02 59.22 L204.62 58.79 L204.1 58.23 L203.57 57.67 L203.14 57.21 L202.58 56.62 L202.02 56.02 L201.56 55.53 L200.97 54.89 L200.5 54.37 L199.91 53.7 L199.32 53.02 L198.84 52.46 L198.24 51.75 L197.75 51.16 L197.14 50.42 L196.53 49.66 L196.04 49.05 L195.42 48.26 L194.92 47.61 L194.3 46.79 L193.68 45.95 L193.18 45.27 L192.56 44.39 L191.93 43.51 L191.43 42.79 L190.8 41.87 L190.3 41.13 L189.66 40.19 L189.03 39.22 L188.52 38.44 L187.88 37.45 L187.37 36.64 L186.72 35.62 L186.07 34.57 L185.55 33.73 L184.9 32.66 L184.25 31.57 L183.72 30.69 L183.06 29.57 L182.52 28.66 L181.85 27.52 L181.16 26.36 L180.61 25.42 L179.91 24.23 L179.35 23.27 L178.63 22.05 L177.91 20.82 L177.32 19.82 L176.58 18.56 L175.98 17.55 L175.23 16.27 L174.46 14.97 L173.84 13.92 L173.06 12.6 L172.26 11.27 L171.62 10.2 L170.82 8.85 L170.18 7.78 L169.36 6.42 L168.55 5.05 L167.89 3.94 L167.05 2.55 L166.38 1.43 L165.54 0.02 L164.69 -1.41 L164.0 -2.56 L163.14 -4.01 L162.45 -5.17 L161.57 -6.64 L160.69 -8.12 L159.98 -9.31 L159.09 -10.81 L158.19 -12.32 L157.47 -13.54 L156.56 -15.07 L155.82 -16.3 L154.89 -17.85 L153.96 -19.41 L153.21 -20.67 L152.26 -22.24 L151.5 -23.51 L150.54 -25.11 L149.57 -26.71 L148.79 -28.01 L147.81 -29.63 L147.02 -30.94 L146.03 -32.58 L145.03 -34.23 L144.24 -35.56 L143.24 -37.21 L142.25 -38.86 L141.47 -40.18 L140.49 -41.8 L139.73 -43.09 L138.78 -44.68 L137.85 -46.25 L137.11 -47.49 L136.2 -49.01 L135.49 -50.21 L134.6 -51.68 L133.73 -53.13 L133.04 -54.27 L132.2 -55.68 L131.37 -57.05 L130.72 -58.13 L129.93 -59.46 L129.3 -60.5 L128.53 -61.78 L127.78 -63.03 L127.2 -64.02 L126.49 -65.23 L125.94 -66.18 L125.27 -67.35 L124.62 -68.51 L124.11 -69.42 L123.51 -70.54 L122.92 -71.64 L122.47 -72.5 L121.93 -73.57 L121.51 -74.41 L121.01 -75.44 L120.52 -76.45 L120.15 -77.25 L119.69 -78.23 L119.34 -79.0 L118.92 -79.95 L118.51 -80.89 L118.2 -81.63 L117.81 -82.54 L117.51 -83.27 L117.15 -84.17 L116.8 -85.08 L116.53 -85.81 L116.21 -86.72 L115.89 -87.65 L115.64 -88.39 L115.34 -89.33 L115.11 -90.09 L114.83 -91.04 L114.57 -92.01 L114.36 -92.79 L114.11 -93.77 L113.92 -94.57 L113.7 -95.57 L113.5 -96.59 L113.35 -97.41 L113.18 -98.44 L113.06 -99.27 L112.93 -100.32 L112.82 -101.37 L112.74 -102.22 L112.66 -103.29 L112.59 -104.37 L112.55 -105.24 L112.51 -106.33 L112.5 -107.21 L112.5 -108.32 L112.52 -109.44 L112.55 -110.34 L112.61 -111.47 L112.67 -112.38 L112.77 -113.53 L112.89 -114.68 L113.0 -115.61 L113.15 -116.77 L113.33 -117.95 L113.48 -118.9 L113.69 -120.1 L113.87 -121.06 L114.12 -122.28 L114.33 -123.25 L114.61 -124.48 L114.91 -125.72 L115.17 -126.71 L115.5 -127.97 L115.86 -129.23 L116.16 -130.26 L116.54 -131.54 L116.87 -132.57 L117.28 -133.87 L117.71 -135.18 L118.07 -136.24 L118.52 -137.58 L118.98 -138.92 L119.36 -140.01 L119.85 -141.37 L120.25 -142.47 L120.75 -143.85 L121.27 -145.25 L121.69 -146.37 L122.21 -147.79 L122.63 -148.92 L123.16 -150.35 L123.69 -151.77 L124.1 -152.9 L124.62 -154.31 L125.04 -155.43 L125.55 -156.81 L126.06 -158.18 L126.46 -159.26 L126.96 -160.59 L127.45 -161.9 L127.84 -162.94 L128.33 -164.21 L128.71 -165.22 L129.18 -166.46 L129.65 -167.68 L130.03 -168.65 L130.49 -169.84 L130.86 -170.77 L131.33 -171.93 L131.8 -173.06 L132.18 -173.96 L132.65 -175.06 L133.04 -175.93 L133.52 -176.99 L134.02 -178.04 L134.43 -178.87 L134.95 -179.88 L135.48 -180.87 L135.92 -181.66 L136.48 -182.62 L136.94 -183.38 L137.53 -184.31 L138.13 -185.22 L138.63 -185.94 L139.27 -186.83 L139.79 -187.54 L140.46 -188.41 L141.15 -189.27 L141.71 -189.96 L142.42 -190.81 L143.0 -191.49 L143.74 -192.33 L144.51 -193.16 L145.13 -193.82 L145.93 -194.64 L146.74 -195.44 L147.41 -196.07 L148.26 -196.84 L148.96 -197.45 L149.84 -198.2 L150.75 -198.94 L151.49 -199.51 L152.42 -200.22 L153.38 -200.91 L154.17 -201.46 L155.16 -202.13 L155.96 -202.65 L156.99 -203.3 L158.03 -203.94 L158.87 -204.44 L159.94 -205.07 L160.81 -205.56 L161.9 -206.17 L163.01 -206.78 L163.91 -207.26 L165.04 -207.87 L165.95 -208.35 L167.11 -208.95 L168.27 -209.55 L169.21 -210.03 L170.39 -210.63 L171.58 -211.23 L172.54 -211.71 L173.75 -212.31 L174.73 -212.8 L175.96 -213.41 L177.2 -214.01 L178.19 -214.5 L179.45 -215.11 L180.46 -215.6 L181.72 -216.21 L183.0 -216.82 L184.01 -217.3 L185.28 -217.9 L186.3 -218.38 L187.57 -218.97 L188.83 -219.56 L189.84 -220.03 L191.1 -220.61 L192.36 -221.19 L193.36 -221.66 L194.61 -222.24 L195.61 -222.71 L196.86 -223.29 L198.1 -223.87 L199.09 -224.34 L200.33 -224.92 L201.56 -225.5 L202.55 -225.97 L203.77 -226.55 L204.75 -227.01 L205.98 -227.59 L206.96 -228.06 L208.18 -228.63 L209.4 -229.2 L210.38 -229.66 L211.6 -230.22 L212.83 -230.77 L213.81 -231.21 L215.04 -231.75 L216.02 -232.18 L217.25 -232.71 L218.49 -233.22 L219.47 -233.62 L220.71 -234.11 L221.7 -234.5 L222.94 -234.96 L224.19 -235.42 L225.19 -235.77 L226.44 -236.2 L227.69 -236.61 L228.69 -236.93 L229.96 -237.31 L230.97 -237.6 L232.24 -237.94 L233.51 -238.26 L234.53 -238.49 L235.81 -238.77 L236.84 -238.96 L238.12 -239.19 L239.4 -239.39 L240.43 -239.53 L241.71 -239.68 L242.74 -239.78 L244.02 -239.89 L245.31 -239.97 L246.34 -240.02 L247.63 -240.06 L248.93 -240.08 L249.97 -240.08 L251.27 -240.07 L252.31 -240.05 L253.62 -240.02 L254.93 -239.97 L255.99 -239.93 L257.32 -239.87 L258.38 -239.82 L259.73 -239.74 L261.08 -239.64 L262.16 -239.56 L263.52 -239.44 L264.89 -239.31 L265.99 -239.2 L267.37 -239.05 L268.47 -238.92 L269.86 -238.74 L271.25 -238.56 L272.37 -238.41 L273.78 -238.2 L274.9 -238.03 L276.32 -237.8 L277.74 -237.56 L278.88 -237.36 L280.31 -237.1 L281.46 -236.89 L282.89 -236.6 L284.34 -236.31 L285.49 -236.07 L286.94 -235.75 L288.4 -235.42 L289.57 -235.15 L291.03 -234.8 L292.21 -234.51 L293.68 -234.13 L295.15 -233.75 L296.33 -233.43 L297.8 -233.02 L298.98 -232.69 L300.45 -232.27 L301.92 -231.83 L303.08 -231.48 L304.54 -231.02 L305.7 -230.65 L307.14 -230.17 L308.58 -229.67 L309.72 -229.27 L311.14 -228.76 L312.56 -228.23 L313.69 -227.81 L315.09 -227.27 L316.21 -226.83 L317.61 -226.27 L319.0 -225.71 L320.12 -225.25 L321.51 -224.67 L322.62 -224.2 L324.01 -223.6 L325.4 -223.0 L326.51 -222.51 L327.9 -221.89 L329.29 -221.25 L330.4 -220.74 L331.78 -220.08 L332.89 -219.54 L334.27 -218.86 L335.65 -218.16 L336.74 -217.59 L338.1 -216.85 L339.18 -216.25 L340.51 -215.48 L341.83 -214.68 L342.88 -214.03 L344.16 -213.19 L345.18 -212.51 L346.43 -211.63 L347.65 -210.73 L348.62 -210.0 L349.82 -209.06 L351.0 -208.11 L351.94 -207.34 L353.1 -206.35 L354.02 -205.54 L355.16 -204.52 L356.28 -203.47 L357.17 -202.63 L358.28 -201.55 L359.15 -200.68 L360.24 -199.58 L361.32 -198.46 L362.18 -197.56 L363.25 -196.41 L364.31 -195.25 L365.15 -194.3 L366.19 -193.1 L367.02 -192.13 L368.04 -190.91 L369.05 -189.66 L369.86 -188.66 L370.85 -187.39 L371.64 -186.36 L372.61 -185.06 L373.58 -183.76 L374.36 -182.7 L375.32 -181.38 L376.08 -180.31 L377.04 -178.97 L378.0 -177.62 L378.76 -176.53 L379.71 -175.17 L380.67 -173.8 L381.44 -172.7 L382.41 -171.31 L383.18 -170.2 L384.16 -168.81 L385.14 -167.41 L385.93 -166.28 L386.92 -164.87 L387.71 -163.74 L388.71 -162.31 L389.72 -160.89 L390.52 -159.74 L391.54 -158.3 L392.35 -157.14 L393.38 -155.69 L394.41 -154.23 L395.24 -153.07 L396.27 -151.6 L397.32 -150.13 L398.16 -148.96 L399.21 -147.48 L400.05 -146.31 L401.11 -144.83 L402.17 -143.36 L403.02 -142.19 L404.08 -140.72 L404.92 -139.55 L405.98 -138.09 L407.04 -136.64 L407.89 -135.48 L408.95 -134.03 L410.01 -132.6 L410.86 -131.45 L411.92 -130.03 L412.76 -128.9 L413.82 -127.49 L414.88 -126.09 L415.72 -124.97 L416.77 -123.58 L417.61 -122.46 L418.65 -121.08 L419.68 -119.7 L420.51 -118.6 L421.55 -117.23 L422.37 -116.15 L423.41 -114.79 L424.44 -113.45 L425.26 -112.38 L426.29 -111.05 L427.11 -109.99 L428.13 -108.68 L429.14 -107.38 L429.95 -106.34 L430.95 -105.06 L431.95 -103.78 L432.74 -102.76 L433.73 -101.5 L434.52 -100.49 L435.5 -99.24 L436.48 -97.99 L437.25 -97.0 L438.22 -95.78 L438.99 -94.8 L439.94 -93.59 L440.89 -92.39 L441.65 -91.44 L442.58 -90.26 L443.51 -89.09 L444.25 -88.16 L445.17 -87.01 L445.9 -86.1 L446.81 -84.97 L447.72 -83.85 L448.43 -82.96 L449.33 -81.86 L450.03 -80.99 L450.9 -79.92 L451.76 -78.87 L452.44 -78.04 L453.27 -77.01 L453.93 -76.21 L454.74 -75.22 L455.54 -74.24 L456.17 -73.47 L456.94 -72.53 L457.69 -71.6 L458.29 -70.88 L459.02 -69.98 L459.6 -69.27 L460.31 -68.41 L461.01 -67.55 L461.57 -66.88 L462.25 -66.05 L462.79 -65.4 L463.45 -64.6 L464.1 -63.81 L464.61 -63.19 L465.25 -62.42 L465.74 -61.82 L466.36 -61.07 L466.97 -60.34 L467.45 -59.76 L468.05 -59.04 L468.63 -58.34 L469.1 -57.78 L469.67 -57.09 L470.13 -56.54 L470.69 -55.87 L471.25 -55.2 L471.69 -54.67 L472.23 -54.02 L472.66 -53.5 L473.2 -52.86 L473.73 -52.23 L474.15 -51.73 L474.67 -51.12 L475.18 -50.51 L475.59 -50.02 L476.09 -49.42 L476.5 -48.95 L476.99 -48.37 L477.49 -47.79 L477.88 -47.33 L478.37 -46.77 L478.76 -46.33 L479.24 -45.79 L479.72 -45.25 L480.1 -44.83 L480.58 -44.31 L481.06 -43.8 L481.45 -43.4 L481.94 -42.91 L482.33 -42.53 L482.82 -42.05 L483.32 -41.6 L483.73 -41.24 L484.24 -40.8 L484.66 -40.46 L485.18 -40.04 L485.71 -39.64 L486.14 -39.33 L486.68 -38.95 L487.13 -38.65 L487.69 -38.3 L488.26 -37.96 L488.73 -37.7 L489.32 -37.4 L489.91 -37.12 L490.39 -36.91 L490.99 -36.67 L491.48 -36.49 L492.09 -36.29 L492.71 -36.12 L493.21 -35.99 L493.84 -35.84 L494.36 -35.74 L495.01 -35.62 L495.68 -35.51 L496.22 -35.44 L496.91 -35.35 L497.48 -35.29 L498.19 -35.22 L498.92 -35.17 L499.51 -35.13 L500.26 -35.1 L501.03 -35.08 L501.65 -35.07 L502.44 -35.07 L503.08 -35.09 L503.88 -35.12 L504.7 -35.17 L505.36 -35.23 L506.21 -35.32 L506.89 -35.4 L507.75 -35.51 L508.63 -35.65 L509.34 -35.76 L510.24 -35.93 L510.97 -36.07 L511.9 -36.27 L512.84 -36.48 L513.6 -36.65 L514.57 -36.89 L515.55 -37.13 L516.34 -37.34 L517.34 -37.6 L518.16 -37.82 L519.18 -38.11 L520.22 -38.42 L521.06 -38.67 L522.12 -38.99 L522.98 -39.26 L524.07 -39.61 L525.16 -39.98 L526.05 -40.28 L527.17 -40.67 L528.08 -40.99 L529.22 -41.4 L530.37 -41.83 L531.31 -42.18 L532.49 -42.63 L533.44 -43.01 L534.65 -43.49 L535.88 -43.98 L536.87 -44.39 L538.12 -44.9 L539.39 -45.43 L540.41 -45.87 L541.71 -46.42 L542.75 -46.87 L544.08 -47.44 L545.42 -48.02 L546.51 -48.49 L547.88 -49.09 L549.26 -49.7 L550.38 -50.19 L551.79 -50.8 L552.92 -51.3 L554.34 -51.92 L555.77 -52.55 L556.92 -53.06 L558.38 -53.71 L559.55 -54.23 L561.03 -54.89 L562.52 -55.56 L563.72 -56.1 L565.23 -56.78 L566.76 -57.47 L567.99 -58.02 L569.53 -58.73 L570.78 -59.3 L572.35 -60.01 L573.62 -60.59 L575.21 -61.33 L576.81 -62.06 L578.1 -62.66 L579.73 -63.41 L581.37 -64.17 L582.69 -64.78 L584.35 -65.54 L585.69 -66.16 L587.38 -66.94 L589.08 -67.71 L590.44 -68.34 L592.17 -69.12 L593.55 -69.75 L595.29 -70.54 L597.05 -71.34 L598.46 -71.98 L600.24 -72.79 L602.02 -73.6 L603.46 -74.25 L605.27 -75.07 L606.72 -75.73 L608.55 -76.56 L610.39 -77.39 L611.87 -78.06 L613.73 -78.9 L615.23 -79.57 L617.1 -80.41 L618.98 -81.25 L620.49 -81.93 L622.38 -82.77 L624.28 -83.62 L625.81 -84.3 L627.73 -85.16 L629.27 -85.85 L631.2 -86.71 L633.15 -87.58 L634.71 -88.28 L636.67 -89.16 L638.24 -89.86 L640.21 -90.74 L642.17 -91.62 L643.73 -92.32 L645.67 -93.19 L647.59 -94.06 L649.12 -94.75 L651.01 -95.6 L652.5 -96.28 L654.36 -97.12 L656.19 -97.95 L657.65 -98.62 L659.45 -99.44 L660.88 -100.09 L662.66 -100.9 L664.42 -101.7 L665.82 -102.34 L667.55 -103.13 L668.94 -103.76 L670.65 -104.54 L672.35 -105.32 L673.71 -105.94 L675.39 -106.71 L676.72 -107.32 L678.37 -108.07 L680.01 -108.82 L681.31 -109.41 L682.91 -110.14 L684.5 -110.87 L685.76 -111.44 L687.32 -112.15 L688.55 -112.71 L690.08 -113.4 L691.58 -114.08 L692.77 -114.62 L694.24 -115.28 L695.39 -115.81 L696.82 -116.45 L698.22 -117.08 L699.32 -117.58 L700.67 -118.2 L702.01 -118.8 L703.06 -119.27 L704.35 -119.85 L705.37 -120.31 L706.62 -120.87 L707.84 -121.42 L708.81 -121.85 L710.0 -122.39 L710.93 -122.8 L712.08 -123.32 L713.2 -123.82 L714.09 -124.22 L715.18 -124.7 L716.03 -125.09 L717.09 -125.56 L718.13 -126.03 L718.95 -126.39 L719.95 -126.85 L720.94 -127.29 L721.72 -127.64 L722.69 -128.08 L723.45 -128.42 L724.39 -128.85 L725.31 -129.27 L726.05 -129.6 L726.95 -130.01 L727.84 -130.41 L728.55 -130.73 L729.42 -131.12 L730.11 -131.43 L730.96 -131.82 L731.62 -132.12 L732.44 -132.49 L733.24 -132.85 L733.87 -133.14 L734.63 -133.49 L735.39 -133.83 L735.97 -134.1 L736.69 -134.43 L737.26 -134.69 L737.95 -135.02 L738.63 -135.33 L739.15 -135.58 L739.8 -135.9 L740.3 -136.14 L740.9 -136.45 L741.49 -136.76 L741.95 -137.01 L742.51 -137.32 L742.94 -137.57 L743.47 -137.89 L743.99 -138.22 L744.39 -138.48 L744.88 -138.82 L745.36 -139.17 L745.73 -139.45 L746.18 -139.82 L746.53 -140.12 L746.95 -140.5 L747.35 -140.9 L747.66 -141.22 L748.03 -141.63 L748.37 -142.06 L748.64 -142.41 L748.96 -142.85 L749.2 -143.22 L749.48 -143.69 L749.74 -144.17 L749.94 -144.56 L750.16 -145.06 L750.33 -145.47 L750.51 -145.99 L750.67 -146.51 L750.78 -146.93 L750.89 -147.45 L750.97 -147.87 L751.03 -148.39 L751.07 -148.92 L751.09 -149.35 L751.11 -149.89 L751.1 -150.33 L751.07 -150.89 L751.03 -151.46 L750.98 -151.92 L750.91 -152.51 L750.83 -153.1 L750.74 -153.59 L750.63 -154.2 L750.53 -154.7 L750.39 -155.32 L750.24 -155.95 L750.1 -156.46 L749.92 -157.1 L749.76 -157.61 L749.54 -158.24 L749.3 -158.87 L749.1 -159.37 L748.83 -159.97 L748.54 -160.56 L748.29 -161.03 L747.97 -161.59 L747.7 -162.02 L747.36 -162.55 L746.99 -163.05 L746.69 -163.44 L746.31 -163.91 L745.98 -164.27 L745.56 -164.71 L745.13 -165.13 L744.77 -165.46 L744.32 -165.85 L743.85 -166.24 L743.47 -166.56 L742.98 -166.95 L742.57 -167.27 L742.05 -167.68 L741.51 -168.11 L741.07 -168.46 L740.5 -168.9 L740.04 -169.27 L739.44 -169.73 L738.84 -170.2 L738.34 -170.59 L737.71 -171.08 L737.19 -171.47 L736.53 -171.98 L735.86 -172.49 L735.32 -172.91 L734.62 -173.44 L734.06 -173.87 L733.34 -174.42 L732.6 -174.97 L732.01 -175.43 L731.25 -176.0 L730.49 -176.58 L729.86 -177.05 L729.07 -177.65 L728.43 -178.14 L727.61 -178.75 L726.79 -179.38 L726.12 -179.89 L725.27 -180.53 L724.58 -181.05 L723.71 -181.72 L722.83 -182.39 L722.11 -182.93 L721.21 -183.62 L720.29 -184.32 L719.55 -184.89 L718.61 -185.6 L717.85 -186.19 L716.89 -186.92 L715.91 -187.67 L715.12 -188.28 L714.11 -189.04 L713.3 -189.67 L712.27 -190.46 L711.23 -191.26 L710.38 -191.91 L709.31 -192.73 L708.23 -193.56 L707.35 -194.24 L706.24 -195.09 L705.34 -195.77 L704.21 -196.64 L703.06 -197.51 L702.12 -198.21 L700.94 -199.1 L699.99 -199.82 L698.78 -200.73 L697.57 -201.65 L696.58 -202.39 L695.34 -203.32 L694.09 -204.27 L693.08 -205.02 L691.82 -205.97 L690.82 -206.73 L689.55 -207.68 L688.54 -208.45 L687.26 -209.41 L685.97 -210.39 L684.92 -211.17 L683.61 -212.17 L682.29 -213.17 L681.23 -213.97 L679.89 -214.99 L678.81 -215.81 L677.45 -216.84 L676.08 -217.88 L674.97 -218.72 L673.58 -219.77 L672.46 -220.62 L671.06 -221.69 L669.64 -222.77 L668.5 -223.64 L667.06 -224.74 L665.62 -225.84 L664.45 -226.73 L662.99 -227.84 L661.81 -228.74 L660.33 -229.87 L658.84 -231.01 L657.63 -231.92 L656.12 -233.07 L654.91 -234.0 L653.38 -235.16 L651.84 -236.33 L650.6 -237.27 L649.04 -238.46 L647.48 -239.65 L646.22 -240.61 L644.64 -241.81 L643.37 -242.78 L641.77 -244.0L638.02 -246.78" fill="#bebebe" id="track-outline" stroke="black" stroke-width="0.3px"></path><line fill="black" stroke="black" stroke-width="5px" x1="638.0193719401956" x2="650.2836541458964" y1="-246.7812615066767" y2="-256.5312381312251"></line></g></g></svg>