<svg height="100%" id="track-svg" width="100%" xmlns="http://www.w3.org/2000/svg" xmlns:xlink="http://www.w3.org/1999/xlink" xmlns:ev="http://www.w3.org/2001/xml-events" style="overflow: hidden; "><g id="viewport-20250804103647437" class="svg-pan-zoom_viewport" transform="matrix(0.7154880300150144,0,0,0.7154880300150144,446.8223447240863,736.5616276201773)" style="transform: matrix(0.715488, 0, 0, 0.715488, 446.822, 736.562);"><g id="debug"><polyline fill="none" id="bb" points="-619.5001220703125,-737.5338134765625 244.2460021972656,-737.5338134765625 244.2460021972656,480.4107971191406 -619.5001220703125,480.4107971191406 -619.5001220703125,-737.5338134765625" stroke="none" stroke-width="3px"></polyline><circle cx="-187.62704467773438" cy="-128.56146240234375" fill="none" id="centerpoint" r="5" stroke="none"></circle></g><g id="track"><path d="M206.69 -263.96 L206.92 -267.99 L207.04 -270.85 L207.13 -273.13 L207.25 -275.97 L207.38 -278.82 L207.47 -281.08 L207.59 -283.92 L207.72 -286.74 L207.82 -289.0 L207.94 -291.81 L208.07 -294.62 L208.17 -296.87 L208.29 -299.67 L208.42 -302.46 L208.52 -304.7 L208.65 -307.5 L208.78 -310.31 L208.88 -312.55 L209.01 -315.34 L209.13 -318.14 L209.23 -320.36 L209.36 -323.15 L209.46 -325.37 L209.59 -328.14 L209.71 -330.91 L209.81 -333.12 L209.94 -335.87 L210.06 -338.63 L210.16 -340.82 L210.29 -343.56 L210.41 -346.3 L210.51 -348.48 L210.63 -351.21 L210.76 -353.93 L210.86 -356.1 L210.98 -358.81 L211.11 -361.51 L211.21 -363.67 L211.34 -366.36 L211.44 -368.51 L211.56 -371.18 L211.68 -373.86 L211.78 -375.99 L211.89 -378.65 L212.01 -381.31 L212.1 -383.42 L212.21 -386.07 L212.31 -388.7 L212.4 -390.81 L212.5 -393.43 L212.61 -396.05 L212.69 -398.14 L212.79 -400.74 L212.89 -403.34 L212.97 -405.41 L213.06 -407.99 L213.16 -410.57 L213.23 -412.62 L213.33 -415.19 L213.42 -417.74 L213.49 -419.78 L213.59 -422.32 L213.68 -424.86 L213.76 -426.88 L213.86 -429.4 L213.96 -431.91 L214.04 -433.92 L214.14 -436.41 L214.24 -438.9 L214.33 -440.89 L214.43 -443.36 L214.53 -445.83 L214.61 -447.79 L214.71 -450.24 L214.8 -452.2 L214.9 -454.63 L215.0 -457.06 L215.09 -459.0 L215.19 -461.41 L215.3 -463.82 L215.39 -465.73 L215.5 -468.12 L215.61 -470.5 L215.7 -472.4 L215.82 -474.77 L215.94 -477.13 L216.03 -479.01 L216.15 -481.35 L216.27 -483.68 L216.37 -485.55 L216.49 -487.87 L216.61 -490.19 L216.71 -492.04 L216.82 -494.34 L216.94 -496.63 L217.03 -498.46 L217.14 -500.74 L217.23 -502.55 L217.33 -504.81 L217.43 -507.06 L217.51 -508.85 L217.6 -511.09 L217.69 -513.31 L217.76 -515.08 L217.84 -517.29 L217.92 -519.49 L217.98 -521.24 L218.05 -523.41 L218.12 -525.58 L218.18 -527.31 L218.24 -529.46 L218.3 -531.6 L218.35 -533.3 L218.4 -535.42 L218.45 -537.53 L218.49 -539.21 L218.54 -541.29 L218.59 -543.37 L218.63 -545.03 L218.67 -547.09 L218.72 -549.13 L218.76 -550.76 L218.82 -552.79 L218.87 -554.81 L218.91 -556.41 L218.96 -558.41 L219.0 -560.0 L219.05 -561.97 L219.11 -563.94 L219.16 -565.89 L219.2 -567.45 L219.25 -569.38 L219.3 -571.3 L219.35 -572.83 L219.4 -574.74 L219.45 -576.63 L219.5 -578.13 L219.55 -580.0 L219.6 -581.86 L219.65 -583.34 L219.7 -585.18 L219.74 -586.65 L219.79 -588.46 L219.84 -590.27 L219.88 -591.71 L219.92 -593.5 L219.97 -595.27 L220.01 -597.03 L220.05 -598.44 L220.09 -600.19 L220.13 -601.58 L220.17 -603.3 L220.21 -605.01 L220.24 -606.37 L220.28 -608.05 L220.32 -609.72 L220.35 -611.37 L220.38 -612.68 L220.41 -614.31 L220.44 -615.6 L220.47 -617.2 L220.5 -618.78 L220.53 -620.04 L220.56 -621.6 L220.58 -623.14 L220.6 -624.36 L220.62 -625.88 L220.64 -627.39 L220.66 -628.58 L220.67 -630.06 L220.68 -631.53 L220.68 -632.68 L220.68 -634.11 L220.67 -635.24 L220.65 -636.64 L220.63 -638.02 L220.6 -639.1 L220.54 -640.45 L220.47 -641.78 L220.4 -642.85 L220.3 -644.17 L220.17 -645.49 L220.06 -646.54 L219.9 -647.85 L219.72 -649.16 L219.56 -650.21 L219.35 -651.51 L219.12 -652.81 L218.92 -653.85 L218.65 -655.14 L218.36 -656.43 L218.11 -657.46 L217.79 -658.75 L217.45 -660.02 L217.16 -661.04 L216.79 -662.31 L216.39 -663.58 L216.06 -664.58 L215.63 -665.84 L215.19 -667.09 L214.82 -668.09 L214.34 -669.34 L213.86 -670.59 L213.46 -671.58 L212.95 -672.82 L212.54 -673.82 L212.01 -675.06 L211.49 -676.3 L210.95 -677.54 L210.52 -678.53 L209.99 -679.75 L209.47 -680.95 L209.05 -681.9 L208.53 -683.07 L208.13 -684.0 L207.62 -685.14 L207.13 -686.26 L206.74 -687.15 L206.26 -688.24 L205.79 -689.32 L205.41 -690.17 L204.96 -691.22 L204.51 -692.25 L204.16 -693.06 L203.72 -694.06 L203.3 -695.04 L202.96 -695.81 L202.55 -696.75 L202.14 -697.68 L201.82 -698.41 L201.43 -699.3 L201.04 -700.18 L200.74 -700.87 L200.36 -701.71 L200.0 -702.53 L199.71 -703.18 L199.35 -703.97 L199.0 -704.75 L198.73 -705.35 L198.4 -706.1 L198.07 -706.82 L197.82 -707.38 L197.5 -708.07 L197.26 -708.61 L196.96 -709.27 L196.67 -709.9 L196.44 -710.4 L196.15 -711.0 L195.88 -711.58 L195.6 -712.14 L195.39 -712.57 L195.12 -713.1 L194.92 -713.5 L194.66 -713.99 L194.4 -714.45 L194.2 -714.81 L193.95 -715.24 L193.7 -715.65 L193.51 -715.97 L193.27 -716.35 L193.03 -716.71 L192.85 -716.98 L192.63 -717.31 L192.41 -717.62 L192.24 -717.85 L192.04 -718.13 L191.84 -718.39 L191.69 -718.58 L191.5 -718.82 L191.31 -719.05 L191.16 -719.22 L190.97 -719.42 L190.78 -719.62 L190.62 -719.78 L190.42 -719.96 L190.21 -720.14 L190.04 -720.28 L189.83 -720.45 L189.6 -720.61 L189.42 -720.73 L189.19 -720.87 L188.95 -721.01 L188.76 -721.11 L188.51 -721.24 L188.31 -721.33 L188.06 -721.43 L187.8 -721.53 L187.59 -721.6 L187.32 -721.68 L187.05 -721.76 L186.83 -721.81 L186.56 -721.87 L186.28 -721.93 L186.06 -721.96 L185.78 -722.0 L185.5 -722.03 L185.28 -722.05 L185.0 -722.07 L184.71 -722.08 L184.49 -722.09 L184.21 -722.08 L183.98 -722.08 L183.7 -722.06 L183.41 -722.04 L183.18 -722.02 L182.89 -721.98 L182.61 -721.94 L182.37 -721.9 L182.08 -721.85 L181.78 -721.78 L181.55 -721.73 L181.25 -721.66 L180.94 -721.57 L180.7 -721.5 L180.38 -721.4 L180.06 -721.29 L179.81 -721.2 L179.48 -721.08 L179.15 -720.96 L178.88 -720.85 L178.54 -720.72 L178.19 -720.57 L177.9 -720.45 L177.53 -720.28 L177.15 -720.1 L176.83 -719.95 L176.43 -719.76 L176.09 -719.59 L175.66 -719.38 L175.21 -719.16 L174.85 -718.98 L174.37 -718.74 L173.89 -718.49 L173.49 -718.29 L172.98 -718.03 L172.45 -717.76 L172.02 -717.54 L171.47 -717.25 L170.9 -716.96 L170.43 -716.72 L169.83 -716.41 L169.22 -716.09 L168.72 -715.83 L168.08 -715.5 L167.42 -715.16 L166.87 -714.88 L166.17 -714.52 L165.45 -714.14 L164.85 -713.84 L164.08 -713.44 L163.29 -713.04 L162.63 -712.7 L161.79 -712.27 L161.1 -711.92 L160.21 -711.47 L159.3 -711.01 L158.55 -710.62 L157.59 -710.14 L156.61 -709.64 L155.81 -709.23 L154.79 -708.72 L153.75 -708.19 L152.91 -707.76 L151.84 -707.22 L150.75 -706.66 L149.86 -706.21 L148.73 -705.63 L147.57 -705.04 L146.63 -704.55 L145.44 -703.94 L144.24 -703.33 L143.26 -702.82 L142.03 -702.19 L140.79 -701.55 L139.78 -701.03 L138.51 -700.37 L137.22 -699.71 L136.19 -699.17 L134.88 -698.5 L133.82 -697.95 L132.49 -697.27 L131.14 -696.57 L129.78 -695.87 L128.68 -695.31 L127.29 -694.6 L126.17 -694.02 L124.77 -693.3 L123.35 -692.58 L122.2 -691.99 L120.76 -691.25 L119.3 -690.51 L118.13 -689.91 L116.66 -689.16 L115.17 -688.39 L113.97 -687.78 L112.45 -687.0 L110.92 -686.21 L109.68 -685.57 L108.12 -684.76 L106.53 -683.94 L105.25 -683.27 L103.62 -682.43 L102.3 -681.73 L100.62 -680.86 L98.92 -679.96 L97.53 -679.23 L95.77 -678.3 L93.98 -677.36 L92.52 -676.59 L90.68 -675.62 L88.81 -674.63 L86.92 -673.63 L85.39 -672.81 L83.46 -671.78 L81.9 -670.94 L79.92 -669.87 L77.93 -668.78 L76.32 -667.9 L74.28 -666.78 L72.22 -665.65 L70.55 -664.73 L68.45 -663.58 L66.32 -662.41 L64.61 -661.46 L62.45 -660.26 L60.27 -659.06 L58.52 -658.09 L56.31 -656.86 L54.08 -655.62 L52.29 -654.63 L50.02 -653.37 L47.74 -652.1 L45.9 -651.08 L43.59 -649.8 L41.26 -648.5 L39.37 -647.45 L37.01 -646.14 L35.1 -645.08 L32.71 -643.75 L30.31 -642.42 L28.38 -641.35 L25.97 -640.02 L23.55 -638.68 L21.61 -637.61 L19.18 -636.27 L16.75 -634.92 L14.8 -633.85 L12.36 -632.5 L9.92 -631.14 L7.96 -630.06 L5.51 -628.7 L3.54 -627.61 L1.08 -626.24 L-1.38 -624.88 L-3.36 -623.78 L-5.83 -622.41 L-8.31 -621.03 L-10.29 -619.92 L-12.78 -618.54 L-15.27 -617.16 L-17.27 -616.05 L-19.77 -614.66 L-22.27 -613.27 L-24.28 -612.15 L-26.79 -610.76 L-29.31 -609.36 L-31.33 -608.24 L-33.86 -606.84 L-36.4 -605.44 L-38.43 -604.32 L-40.98 -602.92 L-43.02 -601.79 L-45.57 -600.39 L-48.13 -598.98 L-50.18 -597.85 L-52.75 -596.43 L-55.32 -595.01 L-57.38 -593.88 L-59.96 -592.45 L-62.55 -591.03 L-64.62 -589.88 L-67.21 -588.44 L-69.8 -587.0 L-71.88 -585.85 L-74.48 -584.4 L-77.09 -582.95 L-79.18 -581.79 L-81.79 -580.33 L-84.41 -578.87 L-86.51 -577.7 L-89.14 -576.23 L-91.76 -574.77 L-93.86 -573.59 L-96.48 -572.13 L-98.58 -570.96 L-101.19 -569.5 L-103.8 -568.05 L-105.88 -566.89 L-108.48 -565.44 L-111.07 -564.0 L-113.15 -562.85 L-115.73 -561.41 L-118.32 -559.98 L-120.38 -558.84 L-122.96 -557.42 L-125.53 -556.0 L-127.58 -554.87 L-130.14 -553.46 L-132.7 -552.06 L-134.74 -550.93 L-137.28 -549.53 L-139.32 -548.41 L-141.85 -547.01 L-144.38 -545.62 L-146.4 -544.51 L-148.92 -543.12 L-151.44 -541.73 L-153.45 -540.62 L-155.95 -539.24 L-158.45 -537.86 L-160.44 -536.75 L-162.93 -535.38 L-165.41 -534.0 L-167.4 -532.9 L-169.87 -531.53 L-172.33 -530.17 L-174.3 -529.08 L-176.76 -527.71 L-179.21 -526.35 L-181.17 -525.26 L-183.6 -523.9 L-186.04 -522.55 L-187.98 -521.46 L-190.4 -520.11 L-192.81 -518.75 L-194.74 -517.67 L-197.15 -516.32 L-199.55 -514.98 L-201.47 -513.9 L-203.86 -512.56 L-206.25 -511.22 L-208.16 -510.15 L-210.55 -508.81 L-212.45 -507.74 L-214.82 -506.42 L-217.19 -505.09 L-219.08 -504.03 L-221.44 -502.72 L-223.79 -501.4 L-225.67 -500.35 L-228.02 -499.05 L-230.36 -497.74 L-232.22 -496.7 L-234.55 -495.41 L-236.87 -494.11 L-238.72 -493.08 L-241.03 -491.79 L-243.34 -490.51 L-245.18 -489.48 L-247.47 -488.21 L-249.76 -486.94 L-251.59 -485.92 L-253.87 -484.66 L-255.68 -483.65 L-257.95 -482.4 L-260.21 -481.15 L-262.02 -480.15 L-264.27 -478.91 L-266.51 -477.67 L-268.3 -476.68 L-270.53 -475.45 L-272.76 -474.23 L-274.54 -473.25 L-276.75 -472.03 L-278.96 -470.82 L-280.72 -469.85 L-282.91 -468.65 L-285.1 -467.44 L-286.84 -466.49 L-289.02 -465.29 L-290.75 -464.34 L-292.91 -463.15 L-295.06 -461.96 L-296.78 -461.02 L-298.92 -459.84 L-301.06 -458.67 L-302.76 -457.73 L-304.88 -456.56 L-306.99 -455.39 L-308.67 -454.46 L-310.77 -453.3 L-312.86 -452.15 L-314.53 -451.23 L-316.6 -450.07 L-318.67 -448.93 L-320.32 -448.01 L-322.38 -446.87 L-324.43 -445.73 L-326.06 -444.82 L-328.09 -443.69 L-330.12 -442.56 L-331.74 -441.66 L-333.75 -440.53 L-335.76 -439.41 L-337.36 -438.52 L-339.35 -437.41 L-341.34 -436.3 L-342.92 -435.42 L-344.9 -434.32 L-346.87 -433.22 L-348.45 -432.35 L-350.41 -431.26 L-352.36 -430.18 L-353.92 -429.32 L-355.86 -428.25 L-357.79 -427.18 L-359.33 -426.33 L-361.25 -425.28 L-362.78 -424.44 L-364.68 -423.39 L-366.57 -422.35 L-368.08 -421.53 L-369.95 -420.5 L-371.82 -419.48 L-373.31 -418.66 L-375.16 -417.65 L-377.0 -416.64 L-378.47 -415.84 L-380.29 -414.85 L-382.1 -413.86 L-383.55 -413.07 L-385.35 -412.09 L-386.78 -411.31 L-388.55 -410.34 L-390.32 -409.37 L-391.73 -408.6 L-393.48 -407.65 L-395.22 -406.7 L-396.61 -405.94 L-398.33 -405.0 L-400.04 -404.06 L-401.41 -403.32 L-403.1 -402.39 L-404.79 -401.47 L-406.13 -400.74 L-407.8 -399.83 L-409.46 -398.92 L-410.78 -398.2 L-412.42 -397.3 L-414.05 -396.41 L-415.36 -395.7 L-416.98 -394.82 L-418.58 -393.94 L-419.86 -393.24 L-421.44 -392.37 L-423.02 -391.51 L-424.27 -390.83 L-425.82 -389.99 L-427.36 -389.15 L-428.58 -388.48 L-430.1 -387.65 L-431.6 -386.84 L-432.8 -386.18 L-434.28 -385.38 L-435.74 -384.58 L-436.91 -383.94 L-438.35 -383.16 L-439.78 -382.38 L-440.91 -381.76 L-442.32 -380.98 L-443.71 -380.21 L-444.8 -379.6 L-446.17 -378.84 L-447.24 -378.23 L-448.58 -377.48 L-449.9 -376.72 L-451.19 -375.96 L-452.21 -375.35 L-453.45 -374.57 L-454.68 -373.79 L-455.64 -373.16 L-456.82 -372.36 L-457.74 -371.72 L-458.88 -370.9 L-460.0 -370.07 L-461.1 -369.24 L-461.96 -368.56 L-463.03 -367.71 L-463.87 -367.02 L-464.91 -366.16 L-465.94 -365.29 L-466.75 -364.59 L-467.74 -363.7 L-468.72 -362.82 L-469.49 -362.1 L-470.44 -361.21 L-471.37 -360.31 L-472.11 -359.58 L-473.01 -358.67 L-473.91 -357.75 L-474.61 -357.01 L-475.48 -356.08 L-476.33 -355.15 L-477.01 -354.41 L-477.84 -353.47 L-478.65 -352.53 L-479.3 -351.78 L-480.09 -350.84 L-480.86 -349.89 L-481.47 -349.12 L-482.23 -348.16 L-482.97 -347.19 L-483.56 -346.4 L-484.29 -345.41 L-484.86 -344.61 L-485.57 -343.6 L-486.27 -342.58 L-486.82 -341.76 L-487.5 -340.72 L-488.17 -339.68 L-488.71 -338.84 L-489.38 -337.78 L-490.04 -336.72 L-490.58 -335.86 L-491.24 -334.78 L-491.92 -333.7 L-492.46 -332.82 L-493.13 -331.72 L-493.82 -330.61 L-494.37 -329.72 L-495.05 -328.6 L-495.75 -327.47 L-496.3 -326.56 L-497.01 -325.42 L-497.73 -324.27 L-498.31 -323.33 L-499.04 -322.16 L-499.78 -320.97 L-500.38 -320.02 L-501.14 -318.81 L-501.75 -317.84 L-502.53 -316.61 L-503.31 -315.37 L-503.94 -314.37 L-504.74 -313.11 L-505.54 -311.83 L-506.19 -310.8 L-507.01 -309.51 L-507.83 -308.19 L-508.5 -307.14 L-509.33 -305.81 L-510.18 -304.47 L-510.85 -303.39 L-511.7 -302.04 L-512.55 -300.68 L-513.23 -299.6 L-514.08 -298.24 L-514.93 -296.88 L-515.61 -295.79 L-516.46 -294.43 L-517.31 -293.06 L-517.99 -291.96 L-518.83 -290.59 L-519.67 -289.22 L-520.33 -288.13 L-521.17 -286.76 L-521.83 -285.66 L-522.66 -284.29 L-523.48 -282.93 L-524.31 -281.56 L-524.96 -280.47 L-525.79 -279.11 L-526.61 -277.75 L-527.28 -276.66 L-528.11 -275.31 L-528.78 -274.23 L-529.62 -272.88 L-530.46 -271.54 L-531.13 -270.47 L-531.97 -269.14 L-532.8 -267.82 L-533.46 -266.75 L-534.28 -265.43 L-535.1 -264.1 L-535.75 -263.04 L-536.56 -261.72 L-537.37 -260.4 L-538.02 -259.33 L-538.83 -258.0 L-539.64 -256.67 L-540.29 -255.61 L-541.1 -254.27 L-541.75 -253.22 L-542.55 -251.91 L-543.35 -250.61 L-543.98 -249.58 L-544.76 -248.31 L-545.55 -247.04 L-546.17 -246.04 L-546.93 -244.8 L-547.69 -243.57 L-548.29 -242.6 L-549.03 -241.41 L-549.76 -240.23 L-550.34 -239.29 L-551.06 -238.14 L-551.77 -237.01 L-552.33 -236.12 L-553.02 -235.01 L-553.7 -233.92 L-554.24 -233.06 L-554.91 -232.01 L-555.57 -230.96 L-556.09 -230.14 L-556.73 -229.13 L-557.36 -228.13 L-557.86 -227.35 L-558.47 -226.38 L-559.08 -225.43 L-559.56 -224.68 L-560.14 -223.75 L-560.72 -222.84 L-561.17 -222.13 L-561.73 -221.25 L-562.27 -220.39 L-562.69 -219.71 L-563.21 -218.87 L-563.61 -218.21 L-564.11 -217.4 L-564.6 -216.6 L-564.98 -215.97 L-565.46 -215.2 L-565.92 -214.45 L-566.29 -213.86 L-566.74 -213.14 L-567.17 -212.44 L-567.51 -211.89 L-567.91 -211.22 L-568.29 -210.56 L-568.59 -210.04 L-568.93 -209.41 L-569.26 -208.78 L-569.5 -208.28 L-569.79 -207.67 L-570.06 -207.07 L-570.26 -206.59 L-570.5 -205.99 L-570.72 -205.4 L-570.88 -204.94 L-571.07 -204.36 L-571.24 -203.78 L-571.36 -203.32 L-571.49 -202.75 L-571.61 -202.18 L-571.69 -201.73 L-571.78 -201.16 L-571.85 -200.59 L-571.89 -200.15 L-571.93 -199.59 L-571.95 -199.14 L-571.95 -198.59 L-571.95 -198.05 L-571.93 -197.62 L-571.89 -197.08 L-571.84 -196.55 L-571.79 -196.13 L-571.72 -195.6 L-571.63 -195.08 L-571.55 -194.67 L-571.43 -194.16 L-571.31 -193.66 L-571.2 -193.25 L-571.06 -192.76 L-570.9 -192.26 L-570.77 -191.87 L-570.6 -191.38 L-570.41 -190.9 L-570.26 -190.51 L-570.06 -190.03 L-569.85 -189.54 L-569.67 -189.16 L-569.45 -188.68 L-569.26 -188.3 L-569.02 -187.83 L-568.76 -187.35 L-568.55 -186.97 L-568.27 -186.48 L-567.98 -185.99 L-567.74 -185.58 L-567.43 -185.07 L-567.12 -184.54 L-566.86 -184.11 L-566.53 -183.56 L-566.2 -183.01 L-565.93 -182.56 L-565.58 -181.98 L-565.22 -181.39 L-564.92 -180.91 L-564.55 -180.29 L-564.16 -179.66 L-563.84 -179.14 L-563.44 -178.47 L-563.02 -177.79 L-562.68 -177.23 L-562.25 -176.52 L-561.8 -175.79 L-561.43 -175.19 L-560.96 -174.43 L-560.48 -173.65 L-560.09 -173.02 L-559.58 -172.21 L-559.07 -171.38 L-558.66 -170.71 L-558.13 -169.86 L-557.6 -169.0 L-557.18 -168.3 L-556.65 -167.43 L-556.23 -166.74 L-555.72 -165.88 L-555.21 -165.04 L-554.82 -164.37 L-554.33 -163.54 L-553.85 -162.72 L-553.39 -161.91 L-553.02 -161.26 L-552.58 -160.46 L-552.23 -159.83 L-551.81 -159.03 L-551.42 -158.24 L-551.11 -157.6 L-550.75 -156.79 L-550.41 -155.99 L-550.15 -155.34 L-549.85 -154.53 L-549.58 -153.71 L-549.37 -153.06 L-549.13 -152.24 L-548.92 -151.43 L-548.77 -150.77 L-548.59 -149.96 L-548.47 -149.31 L-548.34 -148.49 L-548.22 -147.68 L-548.15 -147.04 L-548.08 -146.23 L-548.02 -145.43 L-547.99 -144.79 L-547.98 -144.0 L-547.98 -143.21 L-547.99 -142.58 L-548.03 -141.81 L-548.09 -141.03 L-548.15 -140.42 L-548.24 -139.66 L-548.34 -138.9 L-548.44 -138.31 L-548.58 -137.56 L-548.74 -136.83 L-548.88 -136.25 L-549.07 -135.53 L-549.23 -134.96 L-549.44 -134.26 L-549.66 -133.56 L-549.9 -132.87 L-550.1 -132.32 L-550.37 -131.65 L-550.59 -131.12 L-550.88 -130.46 L-551.19 -129.82 L-551.45 -129.31 L-551.78 -128.69 L-552.13 -128.07 L-552.41 -127.59 L-552.79 -126.99 L-553.19 -126.39 L-553.52 -125.92 L-553.96 -125.32 L-554.42 -124.72 L-554.81 -124.23 L-555.31 -123.62 L-555.83 -123.01 L-556.27 -122.51 L-556.84 -121.87 L-557.43 -121.23 L-557.91 -120.7 L-558.54 -120.03 L-559.19 -119.35 L-559.73 -118.79 L-560.42 -118.09 L-561.13 -117.36 L-561.71 -116.76 L-562.46 -116.0 L-563.23 -115.21 L-563.86 -114.56 L-564.66 -113.73 L-565.48 -112.88 L-566.16 -112.17 L-567.01 -111.27 L-567.89 -110.35 L-568.6 -109.59 L-569.5 -108.62 L-570.4 -107.62 L-571.13 -106.81 L-572.04 -105.77 L-572.95 -104.72 L-573.68 -103.86 L-574.58 -102.77 L-575.29 -101.9 L-576.16 -100.79 L-577.03 -99.67 L-577.71 -98.77 L-578.55 -97.63 L-579.38 -96.49 L-580.03 -95.56 L-580.84 -94.4 L-581.64 -93.23 L-582.43 -92.05 L-583.05 -91.1 L-583.82 -89.9 L-584.43 -88.94 L-585.19 -87.73 L-585.93 -86.51 L-586.52 -85.53 L-587.25 -84.31 L-587.97 -83.07 L-588.54 -82.08 L-589.24 -80.84 L-589.94 -79.59 L-590.49 -78.58 L-591.16 -77.32 L-591.82 -76.06 L-592.34 -75.04 L-592.98 -73.76 L-593.61 -72.47 L-594.1 -71.44 L-594.71 -70.14 L-595.3 -68.83 L-595.76 -67.79 L-596.32 -66.47 L-596.86 -65.14 L-597.29 -64.08 L-597.8 -62.74 L-598.2 -61.67 L-598.68 -60.32 L-599.15 -58.96 L-599.52 -57.87 L-599.96 -56.5 L-600.4 -55.13 L-600.73 -54.02 L-601.14 -52.64 L-601.54 -51.26 L-601.84 -50.14 L-602.21 -48.75 L-602.57 -47.35 L-602.85 -46.23 L-603.18 -44.82 L-603.5 -43.41 L-603.75 -42.28 L-604.05 -40.87 L-604.33 -39.45 L-604.55 -38.31 L-604.81 -36.88 L-605.06 -35.46 L-605.25 -34.31 L-605.47 -32.88 L-605.68 -31.44 L-605.84 -30.29 L-606.02 -28.85 L-606.19 -27.41 L-606.32 -26.26 L-606.46 -24.81 L-606.6 -23.36 L-606.69 -22.2 L-606.8 -20.75 L-606.89 -19.29 L-606.95 -18.13 L-607.01 -16.67 L-607.05 -15.51 L-607.09 -14.05 L-607.11 -12.59 L-607.12 -11.42 L-607.11 -9.95 L-607.09 -8.49 L-607.06 -7.32 L-607.0 -5.85 L-606.94 -4.38 L-606.88 -3.21 L-606.78 -1.74 L-606.67 -0.27 L-606.58 0.91 L-606.44 2.38 L-606.28 3.85 L-606.15 5.03 L-605.97 6.5 L-605.77 7.97 L-605.61 9.15 L-605.38 10.62 L-605.14 12.1 L-604.94 13.28 L-604.67 14.75 L-604.39 16.23 L-604.15 17.41 L-603.84 18.88 L-603.52 20.35 L-603.24 21.53 L-602.88 23.0 L-602.5 24.47 L-602.19 25.64 L-601.78 27.11 L-601.44 28.28 L-601.0 29.75 L-600.54 31.21 L-600.16 32.38 L-599.67 33.84 L-599.27 35.01 L-598.74 36.46 L-598.2 37.92 L-597.64 39.36 L-597.18 40.52 L-596.59 41.96 L-596.11 43.12 L-595.49 44.56 L-594.85 46.01 L-594.32 47.18 L-593.65 48.64 L-592.97 50.11 L-592.41 51.29 L-591.7 52.77 L-590.97 54.27 L-590.38 55.47 L-589.63 56.98 L-588.86 58.51 L-588.24 59.74 L-587.45 61.29 L-586.65 62.86 L-586.0 64.13 L-585.17 65.73 L-584.33 67.34 L-583.66 68.65 L-582.8 70.29 L-581.94 71.94 L-581.24 73.27 L-580.35 74.95 L-579.64 76.3 L-578.75 77.99 L-577.84 79.7 L-577.12 81.07 L-576.21 82.79 L-575.29 84.51 L-574.56 85.89 L-573.65 87.62 L-572.74 89.34 L-572.01 90.71 L-571.1 92.43 L-570.2 94.13 L-569.49 95.49 L-568.6 97.17 L-567.72 98.85 L-567.02 100.19 L-566.14 101.85 L-565.28 103.51 L-564.6 104.82 L-563.74 106.46 L-562.9 108.09 L-562.23 109.38 L-561.4 110.99 L-560.58 112.59 L-559.92 113.86 L-559.11 115.43 L-558.3 117.0 L-557.66 118.24 L-556.87 119.79 L-556.24 121.02 L-555.45 122.54 L-554.68 124.05 L-553.9 125.55 L-553.29 126.74 L-552.53 128.22 L-551.78 129.68 L-551.18 130.85 L-550.43 132.29 L-549.69 133.72 L-549.1 134.86 L-548.37 136.27 L-547.64 137.66 L-547.06 138.77 L-546.34 140.14 L-545.63 141.5 L-545.06 142.58 L-544.35 143.92 L-543.79 144.99 L-543.09 146.31 L-542.39 147.61 L-541.84 148.65 L-541.15 149.93 L-540.47 151.19 L-539.94 152.19 L-539.27 153.43 L-538.61 154.66 L-538.1 155.63 L-537.46 156.83 L-536.84 158.01 L-536.35 158.95 L-535.75 160.11 L-535.16 161.27 L-534.7 162.18 L-534.13 163.33 L-533.58 164.46 L-533.15 165.37 L-532.63 166.49 L-532.12 167.61 L-531.72 168.5 L-531.24 169.61 L-530.77 170.72 L-530.4 171.6 L-529.96 172.7 L-529.61 173.58 L-529.2 174.69 L-528.81 175.8 L-528.51 176.69 L-528.16 177.8 L-527.83 178.91 L-527.59 179.8 L-527.3 180.92 L-527.03 182.04 L-526.84 182.94 L-526.62 184.07 L-526.43 185.2 L-526.3 186.1 L-526.15 187.23 L-526.03 188.36 L-525.95 189.26 L-525.88 190.39 L-525.83 191.29 L-525.79 192.4 L-525.76 193.52 L-525.76 194.4 L-525.76 195.51 L-525.78 196.61 L-525.8 197.48 L-525.85 198.58 L-525.91 199.66 L-525.97 200.53 L-526.06 201.61 L-526.17 202.68 L-526.27 203.54 L-526.41 204.6 L-526.57 205.66 L-526.71 206.5 L-526.9 207.55 L-527.11 208.58 L-527.29 209.4 L-527.53 210.43 L-527.73 211.24 L-528.01 212.24 L-528.29 213.24 L-528.54 214.03 L-528.86 215.01 L-529.19 215.98 L-529.47 216.75 L-529.83 217.7 L-530.21 218.64 L-530.61 219.56 L-530.93 220.3 L-531.34 221.2 L-531.67 221.92 L-532.1 222.81 L-532.53 223.68 L-532.87 224.37 L-533.31 225.23 L-533.76 226.08 L-534.12 226.75 L-534.58 227.58 L-535.06 228.4 L-535.44 229.05 L-535.93 229.86 L-536.43 230.67 L-536.83 231.31 L-537.34 232.11 L-537.86 232.91 L-538.28 233.56 L-538.81 234.39 L-539.34 235.22 L-539.78 235.9 L-540.34 236.76 L-540.78 237.46 L-541.35 238.35 L-541.92 239.26 L-542.38 240.0 L-542.96 240.95 L-543.54 241.92 L-544.12 242.92 L-544.59 243.74 L-545.19 244.79 L-545.67 245.66 L-546.28 246.77 L-546.9 247.92 L-547.41 248.86 L-548.05 250.06 L-548.69 251.3 L-549.22 252.31 L-549.88 253.6 L-550.55 254.92 L-551.09 255.99 L-551.77 257.35 L-552.45 258.71 L-552.98 259.8 L-553.65 261.14 L-554.3 262.48 L-554.82 263.54 L-555.45 264.85 L-555.95 265.89 L-556.57 267.18 L-557.17 268.45 L-557.65 269.45 L-558.23 270.69 L-558.81 271.92 L-559.26 272.89 L-559.81 274.09 L-560.35 275.27 L-560.77 276.2 L-561.29 277.36 L-561.8 278.49 L-562.2 279.39 L-562.69 280.5 L-563.17 281.6 L-563.54 282.46 L-564.0 283.53 L-564.36 284.37 L-564.79 285.41 L-565.21 286.43 L-565.53 287.24 L-565.92 288.24 L-566.28 289.22 L-566.56 289.99 L-566.9 290.95 L-567.21 291.9 L-567.45 292.65 L-567.72 293.59 L-567.96 294.52 L-568.15 295.26 L-568.35 296.18 L-568.54 297.1 L-568.67 297.82 L-568.81 298.72 L-568.93 299.61 L-569.02 300.31 L-569.1 301.19 L-569.17 302.05 L-569.21 302.73 L-569.24 303.57 L-569.26 304.4 L-569.26 305.06 L-569.25 305.86 L-569.23 306.66 L-569.19 307.28 L-569.14 308.04 L-569.07 308.79 L-569.0 309.37 L-568.91 310.09 L-568.8 310.8 L-568.7 311.35 L-568.57 312.03 L-568.43 312.68 L-568.31 313.2 L-568.15 313.82 L-568.01 314.31 L-567.84 314.9 L-567.65 315.47 L-567.49 315.92 L-567.29 316.45 L-567.08 316.97 L-566.91 317.36 L-566.69 317.83 L-566.46 318.28 L-566.27 318.63 L-566.04 319.05 L-565.79 319.45 L-565.59 319.75 L-565.33 320.12 L-565.07 320.48 L-564.85 320.75 L-564.56 321.09 L-564.26 321.41 L-564.0 321.67 L-563.67 321.98 L-563.31 322.29 L-563.02 322.52 L-562.63 322.81 L-562.21 323.09 L-561.87 323.31 L-561.42 323.57 L-560.95 323.82 L-560.55 324.01 L-560.03 324.25 L-559.48 324.48 L-559.02 324.67 L-558.42 324.89 L-557.8 325.1 L-557.28 325.27 L-556.59 325.48 L-555.89 325.68 L-555.3 325.84 L-554.53 326.04 L-553.73 326.24 L-553.07 326.4 L-552.22 326.61 L-551.33 326.82 L-550.61 326.99 L-549.67 327.21 L-548.7 327.44 L-547.89 327.62 L-546.87 327.86 L-545.81 328.1 L-544.94 328.3 L-543.83 328.56 L-542.68 328.82 L-541.74 329.03 L-540.54 329.31 L-539.3 329.59 L-538.29 329.82 L-536.99 330.12 L-535.66 330.42 L-534.58 330.67 L-533.2 330.99 L-531.79 331.31 L-530.65 331.57 L-529.21 331.9 L-527.74 332.24 L-526.55 332.51 L-525.05 332.85 L-523.53 333.2 L-522.29 333.48 L-520.73 333.83 L-519.14 334.19 L-517.85 334.48 L-516.21 334.85 L-514.55 335.22 L-513.21 335.53 L-511.5 335.91 L-509.77 336.29 L-508.36 336.61 L-506.58 337.0 L-504.78 337.4 L-503.32 337.72 L-501.47 338.12 L-499.59 338.53 L-498.08 338.85 L-496.16 339.27 L-494.22 339.68 L-492.66 340.01 L-490.68 340.42 L-489.09 340.75 L-487.08 341.17 L-485.06 341.58 L-483.43 341.91 L-481.38 342.33 L-479.31 342.74 L-477.65 343.07 L-475.56 343.48 L-473.46 343.88 L-471.77 344.21 L-469.65 344.62 L-467.52 345.03 L-465.81 345.36 L-463.66 345.77 L-461.51 346.18 L-459.78 346.51 L-457.61 346.92 L-455.43 347.34 L-453.68 347.67 L-451.48 348.09 L-449.27 348.51 L-447.5 348.84 L-445.28 349.26 L-443.05 349.69 L-441.26 350.03 L-439.02 350.46 L-436.76 350.89 L-434.95 351.23 L-432.68 351.67 L-430.39 352.11 L-428.56 352.46 L-426.26 352.9 L-424.41 353.26 L-422.08 353.71 L-419.74 354.16 L-417.39 354.61 L-415.5 354.97 L-413.12 355.43 L-410.72 355.89 L-408.79 356.27 L-406.37 356.73 L-404.42 357.11 L-401.97 357.58 L-399.51 358.06 L-397.52 358.44 L-395.02 358.92 L-392.51 359.4 L-390.48 359.79 L-387.94 360.27 L-385.37 360.77 L-382.79 361.26 L-380.71 361.65 L-378.09 362.15 L-375.98 362.55 L-373.32 363.06 L-370.64 363.57 L-367.94 364.08 L-365.77 364.49 L-363.05 365.0 L-360.87 365.42 L-358.15 365.93 L-355.44 366.44 L-353.27 366.85 L-350.57 367.36 L-347.87 367.87 L-345.71 368.28 L-343.03 368.79 L-340.34 369.3 L-338.2 369.71 L-335.52 370.21 L-332.86 370.72 L-330.73 371.12 L-328.07 371.63 L-325.41 372.13 L-323.3 372.53 L-320.65 373.03 L-318.02 373.53 L-315.91 373.92 L-313.28 374.42 L-310.66 374.91 L-308.57 375.3 L-305.96 375.79 L-303.36 376.28 L-301.28 376.67 L-298.69 377.16 L-296.62 377.55 L-294.04 378.04 L-291.46 378.52 L-289.41 378.91 L-286.84 379.4 L-284.29 379.89 L-282.25 380.28 L-279.71 380.76 L-277.17 381.25 L-275.15 381.63 L-272.62 382.12 L-270.11 382.6 L-268.1 382.98 L-265.59 383.46 L-263.1 383.94 L-261.11 384.32 L-258.62 384.79 L-256.15 385.27 L-254.17 385.64 L-251.71 386.11 L-249.75 386.49 L-247.3 386.96 L-244.86 387.42 L-242.91 387.8 L-240.48 388.26 L-238.06 388.73 L-236.13 389.1 L-233.73 389.56 L-231.33 390.02 L-229.41 390.39 L-227.03 390.86 L-224.65 391.32 L-222.76 391.69 L-220.4 392.15 L-218.04 392.61 L-216.17 392.98 L-213.83 393.43 L-211.49 393.89 L-209.63 394.25 L-207.31 394.7 L-205.0 395.14 L-203.15 395.5 L-200.85 395.94 L-198.55 396.39 L-196.71 396.74 L-194.43 397.18 L-192.15 397.62 L-190.33 397.97 L-188.07 398.4 L-185.81 398.83 L-184.02 399.17 L-181.77 399.59 L-179.54 400.01 L-177.76 400.34 L-175.54 400.76 L-173.77 401.09 L-171.57 401.5 L-169.38 401.91 L-167.63 402.23 L-165.45 402.64 L-163.28 403.04 L-161.55 403.36 L-159.4 403.76 L-157.26 404.16 L-155.55 404.48 L-153.43 404.87 L-151.31 405.26 L-149.63 405.58 L-147.53 405.97 L-145.45 406.36 L-143.79 406.67 L-141.72 407.06 L-139.66 407.44 L-138.02 407.75 L-135.98 408.13 L-133.96 408.51 L-132.34 408.82 L-130.33 409.19 L-128.33 409.57 L-126.74 409.87 L-124.76 410.25 L-122.79 410.62 L-121.22 410.91 L-119.27 411.28 L-117.33 411.65 L-115.78 411.94 L-113.86 412.31 L-111.95 412.67 L-110.42 412.96 L-108.53 413.32 L-106.64 413.68 L-105.14 413.97 L-103.28 414.32 L-101.79 414.61 L-99.94 414.96 L-98.1 415.32 L-96.64 415.6 L-94.81 415.95 L-93.0 416.31 L-91.55 416.59 L-89.76 416.93 L-87.98 417.28 L-86.56 417.55 L-84.81 417.89 L-83.06 418.23 L-81.67 418.5 L-79.95 418.83 L-78.24 419.16 L-76.89 419.42 L-75.2 419.75 L-73.53 420.07 L-72.2 420.33 L-70.56 420.65 L-68.92 420.96 L-67.62 421.21 L-66.01 421.52 L-64.42 421.83 L-63.15 422.08 L-61.58 422.39 L-60.33 422.63 L-58.78 422.93 L-57.24 423.23 L-56.02 423.47 L-54.51 423.77 L-53.01 424.06 L-51.83 424.29 L-50.35 424.58 L-48.89 424.86 L-47.73 425.09 L-46.28 425.37 L-44.86 425.65 L-43.72 425.86 L-42.33 426.12 L-40.95 426.38 L-39.85 426.57 L-38.5 426.8 L-37.17 427.02 L-36.11 427.19 L-34.8 427.39 L-33.77 427.55 L-32.48 427.73 L-31.21 427.89 L-30.2 428.02 L-28.95 428.16 L-27.7 428.29 L-26.71 428.39 L-25.48 428.5 L-24.25 428.59 L-23.28 428.65 L-22.06 428.71 L-20.85 428.76 L-19.89 428.79 L-18.68 428.8 L-17.48 428.81 L-16.51 428.8 L-15.31 428.77 L-14.12 428.73 L-13.16 428.69 L-11.97 428.62 L-10.78 428.54 L-9.84 428.46 L-8.66 428.34 L-7.71 428.23 L-6.54 428.09 L-5.37 427.92 L-4.43 427.77 L-3.26 427.57 L-2.09 427.35 L-1.15 427.17 L0.03 426.92 L1.2 426.65 L2.14 426.43 L3.32 426.13 L4.49 425.82 L5.44 425.56 L6.62 425.22 L7.8 424.87 L8.75 424.59 L9.94 424.22 L11.14 423.85 L12.1 423.55 L13.3 423.18 L14.5 422.8 L15.47 422.49 L16.68 422.1 L17.9 421.72 L18.88 421.4 L20.1 421.01 L21.33 420.62 L22.31 420.3 L23.55 419.91 L24.79 419.51 L25.78 419.19 L27.02 418.79 L28.27 418.38 L29.28 418.06 L30.53 417.65 L31.79 417.25 L32.81 416.92 L34.07 416.51 L35.35 416.1 L36.37 415.77 L37.65 415.35 L38.93 414.94 L39.96 414.6 L41.25 414.18 L42.55 413.76 L43.59 413.43 L44.89 413.01 L46.2 412.58 L47.25 412.24 L48.57 411.82 L49.62 411.48 L50.93 411.06 L52.22 410.65 L53.5 410.24 L54.5 409.92 L55.75 409.52 L56.73 409.2 L57.94 408.81 L59.13 408.42 L60.08 408.11 L61.24 407.73 L62.38 407.36 L63.29 407.06 L64.4 406.69 L65.5 406.33 L66.36 406.04 L67.42 405.68 L68.47 405.33 L69.29 405.05 L70.3 404.71 L71.3 404.37 L72.08 404.1 L73.05 403.77 L74.0 403.45 L74.75 403.19 L75.67 402.87 L76.58 402.56 L77.29 402.31 L78.17 402.01 L79.04 401.71 L79.73 401.47 L80.58 401.18 L81.41 400.9 L82.07 400.67 L82.88 400.4 L83.67 400.13 L84.3 399.91 L85.08 399.65 L85.71 399.46 L86.5 399.22 L87.3 399.01 L87.95 398.86 L88.76 398.69 L89.57 398.55 L90.22 398.46 L91.04 398.39 L91.86 398.34 L92.52 398.32 L93.34 398.33 L94.16 398.37 L94.81 398.43 L95.62 398.52 L96.42 398.64 L97.05 398.75 L97.83 398.91 L98.6 399.1 L99.21 399.26 L99.96 399.48 L100.7 399.71 L101.28 399.91 L101.99 400.17 L102.56 400.39 L103.26 400.66 L103.94 400.96 L104.49 401.2 L105.15 401.52 L105.81 401.85 L106.33 402.13 L106.96 402.5 L107.59 402.88 L108.09 403.21 L108.7 403.62 L109.3 404.06 L109.78 404.41 L110.36 404.87 L110.95 405.34 L111.41 405.72 L111.99 406.22 L112.58 406.72 L113.05 407.14 L113.65 407.67 L114.25 408.21 L114.73 408.66 L115.35 409.23 L115.98 409.81 L116.49 410.29 L117.13 410.9 L117.79 411.53 L118.33 412.04 L119.02 412.69 L119.72 413.36 L120.3 413.91 L121.03 414.62 L121.78 415.34 L122.39 415.93 L123.18 416.69 L123.98 417.47 L124.64 418.11 L125.48 418.92 L126.34 419.76 L127.05 420.44 L127.95 421.32 L128.87 422.21 L129.62 422.93 L130.57 423.85 L131.33 424.58 L132.28 425.5 L133.21 426.4 L133.95 427.12 L134.86 428.0 L135.75 428.87 L136.46 429.56 L137.33 430.41 L138.19 431.24 L138.86 431.9 L139.69 432.72 L140.51 433.52 L141.16 434.15 L141.95 434.92 L142.73 435.69 L143.35 436.29 L144.1 437.03 L144.84 437.76 L145.42 438.33 L146.14 439.04 L146.83 439.73 L147.38 440.27 L148.06 440.93 L148.59 441.46 L149.24 442.1 L149.87 442.73 L150.37 443.22 L150.98 443.83 L151.57 444.43 L152.03 444.89 L152.6 445.46 L153.15 446.02 L153.58 446.45 L154.11 446.98 L154.63 447.49 L155.03 447.89 L155.52 448.38 L156.0 448.86 L156.38 449.23 L156.83 449.68 L157.28 450.12 L157.62 450.46 L158.04 450.88 L158.44 451.28 L158.75 451.59 L159.13 451.97 L159.42 452.26 L159.77 452.61 L160.12 452.95 L160.45 453.27 L160.71 453.51 L161.02 453.81 L161.32 454.09 L161.55 454.31 L161.83 454.57 L162.05 454.77 L162.31 455.0 L162.55 455.22 L162.73 455.38 L162.93 455.57 L163.13 455.75 L163.27 455.88 L163.44 456.04 L163.6 456.18 L163.72 456.3 L163.88 456.43 L164.03 456.56 L164.15 456.66 L164.31 456.78 L164.44 456.87 L164.61 456.98 L164.78 457.09 L164.91 457.17 L165.09 457.26 L165.27 457.35 L165.41 457.42 L165.6 457.5 L165.78 457.57 L165.93 457.63 L166.12 457.69 L166.31 457.75 L166.47 457.79 L166.66 457.83 L166.86 457.87 L167.02 457.89 L167.23 457.92 L167.44 457.94 L167.6 457.95 L167.81 457.96 L168.03 457.96 L168.21 457.95 L168.44 457.93 L168.68 457.91 L168.88 457.88 L169.13 457.83 L169.34 457.79 L169.59 457.7 L169.83 457.6 L170.0 457.52 L170.21 457.42 L170.41 457.32 L170.55 457.24 L170.71 457.15 L170.86 457.06 L170.96 456.99 L171.08 456.92 L171.18 456.85 L171.25 456.8 L171.33 456.74 L171.41 456.69 L171.47 456.64 L171.54 456.59 L171.61 456.53 L171.66 456.49 L171.74 456.42 L171.82 456.36 L171.88 456.3 L171.97 456.22 L172.05 456.13 L172.12 456.06 L172.21 455.97 L172.3 455.88 L172.36 455.81 L172.44 455.71 L172.51 455.64 L172.58 455.54 L172.66 455.44 L172.72 455.36 L172.79 455.26 L172.86 455.15 L172.93 455.05 L172.98 454.96 L173.04 454.85 L173.09 454.77 L173.15 454.66 L173.21 454.55 L173.25 454.46 L173.3 454.34 L173.35 454.23 L173.39 454.14 L173.44 454.02 L173.48 453.9 L173.51 453.8 L173.55 453.67 L173.58 453.54 L173.61 453.43 L173.64 453.3 L173.67 453.16 L173.69 453.05 L173.71 452.91 L173.73 452.77 L173.75 452.65 L173.76 452.51 L173.77 452.39 L173.79 452.24 L173.8 452.09 L173.81 451.97 L173.83 451.82 L173.84 451.67 L173.85 451.54 L173.86 451.38 L173.87 451.22 L173.88 451.09 L173.9 450.91 L173.91 450.73 L173.92 450.58 L173.93 450.39 L173.95 450.19 L173.96 450.01 L173.98 449.79 L173.99 449.55 L174.01 449.36 L174.03 449.1 L174.05 448.83 L174.06 448.6 L174.08 448.3 L174.11 447.99 L174.13 447.73 L174.15 447.39 L174.17 447.04 L174.2 446.74 L174.22 446.36 L174.25 445.95 L174.28 445.62 L174.31 445.18 L174.34 444.73 L174.37 444.35 L174.4 443.86 L174.44 443.34 L174.47 442.92 L174.51 442.37 L174.55 441.81 L174.58 441.34 L174.62 440.74 L174.66 440.12 L174.69 439.61 L174.73 438.96 L174.77 438.43 L174.81 437.76 L174.85 437.07 L174.9 436.36 L174.93 435.79 L174.98 435.06 L175.01 434.46 L175.06 433.7 L175.11 432.92 L175.15 432.29 L175.2 431.48 L175.25 430.65 L175.29 429.97 L175.34 429.11 L175.4 428.24 L175.44 427.52 L175.5 426.61 L175.55 425.69 L175.6 424.93 L175.65 423.97 L175.71 422.98 L175.76 422.18 L175.82 421.15 L175.89 420.1 L175.94 419.24 L176.0 418.14 L176.07 417.02 L176.13 416.1 L176.19 414.92 L176.25 413.97 L176.32 412.75 L176.39 411.5 L176.45 410.49 L176.52 409.21 L176.59 407.91 L176.65 406.86 L176.73 405.54 L176.8 404.21 L176.86 403.14 L176.93 401.8 L177.01 400.46 L177.07 399.38 L177.14 398.02 L177.21 396.66 L177.27 395.56 L177.35 394.19 L177.42 392.81 L177.49 391.7 L177.56 390.31 L177.64 388.91 L177.7 387.79 L177.79 386.39 L177.85 385.27 L177.93 383.85 L178.02 382.44 L178.09 381.3 L178.17 379.88 L178.26 378.45 L178.33 377.3 L178.42 375.85 L178.51 374.4 L178.59 373.23 L178.68 371.75 L178.77 370.27 L178.85 369.07 L178.94 367.56 L179.02 366.34 L179.12 364.8 L179.21 363.25 L179.29 362.0 L179.39 360.42 L179.48 358.83 L179.58 357.22 L179.66 355.92 L179.76 354.28 L179.83 352.96 L179.93 351.3 L180.03 349.62 L180.1 348.27 L180.2 346.56 L180.29 344.84 L180.36 343.45 L180.45 341.7 L180.54 339.94 L180.62 338.51 L180.71 336.72 L180.8 334.91 L180.87 333.46 L180.97 331.62 L181.06 329.77 L181.13 328.28 L181.23 326.4 L181.32 324.51 L181.39 322.98 L181.48 321.06 L181.57 319.13 L181.63 317.57 L181.71 315.61 L181.78 313.64 L181.84 312.05 L181.92 310.04 L181.99 308.02 L182.05 306.4 L182.13 304.35 L182.19 302.71 L182.27 300.64 L182.35 298.55 L182.43 296.44 L182.5 294.75 L182.58 292.61 L182.65 290.9 L182.74 288.73 L182.83 286.55 L182.91 284.8 L183.0 282.59 L183.1 280.36 L183.18 278.56 L183.29 276.3 L183.39 274.03 L183.47 272.19 L183.58 269.88 L183.69 267.55 L183.78 265.68 L183.89 263.32 L184.0 260.94 L184.09 259.02 L184.2 256.61 L184.31 254.17 L184.4 252.21 L184.52 249.74 L184.63 247.26 L184.72 245.25 L184.84 242.73 L184.95 240.18 L185.04 238.13 L185.15 235.55 L185.26 232.94 L185.35 230.84 L185.46 228.19 L185.58 225.52 L185.67 223.36 L185.78 220.64 L185.9 217.9 L185.99 215.68 L186.11 212.89 L186.23 210.07 L186.33 207.79 L186.45 204.92 L186.55 202.61 L186.68 199.68 L186.81 196.73 L186.91 194.34 L187.04 191.34 L187.18 188.31 L187.28 185.88 L187.42 182.83 L187.56 179.77 L187.67 177.31 L187.8 174.24 L187.94 171.17 L188.05 168.7 L188.19 165.61 L188.32 162.51 L188.43 160.03 L188.57 156.92 L188.7 153.8 L188.81 151.31 L188.95 148.18 L189.08 145.04 L189.19 142.53 L189.32 139.38 L189.46 136.23 L189.57 133.7 L189.7 130.53 L189.84 127.36 L189.97 124.17 L190.08 121.62 L190.22 118.43 L190.33 115.87 L190.47 112.66 L190.61 109.45 L190.72 106.87 L190.87 103.64 L191.01 100.41 L191.12 97.81 L191.27 94.57 L191.41 91.31 L191.53 88.7 L191.67 85.44 L191.82 82.16 L191.93 79.54 L192.08 76.25 L192.22 72.97 L192.34 70.35 L192.48 67.07 L192.59 64.44 L192.73 61.16 L192.87 57.88 L193.01 54.6 L193.12 51.97 L193.25 48.69 L193.36 46.07 L193.5 42.78 L193.64 39.5 L193.75 36.88 L193.89 33.6 L194.03 30.31 L194.14 27.69 L194.28 24.41 L194.42 21.13 L194.53 18.51 L194.67 15.22 L194.81 11.95 L194.92 9.32 L195.06 6.04 L195.19 2.76 L195.31 0.13 L195.45 -3.15 L195.59 -6.42 L195.7 -9.04 L195.84 -12.31 L195.99 -15.58 L196.1 -18.2 L196.24 -21.46 L196.35 -24.07 L196.49 -27.33 L196.64 -30.59 L196.75 -33.19 L196.89 -36.45 L197.04 -39.7 L197.15 -42.3 L197.29 -45.54 L197.43 -48.78 L197.55 -51.38 L197.68 -54.62 L197.82 -57.85 L197.93 -60.44 L198.06 -63.67 L198.2 -66.9 L198.3 -69.48 L198.44 -72.7 L198.57 -75.92 L198.68 -78.49 L198.81 -81.71 L198.95 -84.92 L199.06 -87.49 L199.2 -90.7 L199.31 -93.26 L199.45 -96.46 L199.59 -99.66 L199.71 -102.22 L199.85 -105.41 L199.99 -108.6 L200.11 -111.15 L200.25 -114.33 L200.4 -117.51 L200.51 -120.06 L200.66 -123.23 L200.8 -126.4 L200.91 -128.93 L201.06 -132.1 L201.2 -135.26 L201.31 -137.79 L201.44 -140.94 L201.56 -143.47 L201.69 -146.62 L201.83 -149.76 L201.94 -152.28 L202.08 -155.41 L202.22 -158.55 L202.33 -161.06 L202.47 -164.19 L202.61 -167.31 L202.73 -169.81 L202.87 -172.93 L203.01 -176.04 L203.13 -178.53 L203.27 -181.64 L203.41 -184.74 L203.52 -187.22 L203.66 -190.32 L203.79 -193.41 L203.9 -195.88 L204.03 -198.97 L204.13 -201.43 L204.26 -204.51 L204.39 -207.59 L204.49 -210.04 L204.62 -213.11 L204.75 -216.17 L204.85 -218.62 L204.97 -221.67 L205.1 -224.72 L205.19 -227.16 L205.32 -230.2 L205.44 -233.24 L205.53 -235.67 L205.66 -238.7 L205.78 -241.72 L205.87 -244.14 L205.99 -247.15 L206.12 -250.17 L206.21 -252.57 L206.34 -255.58 L206.46 -258.57 L206.56 -260.97 L206.69 -263.96L221.25 -262.86 L221.16 -260.44 L221.04 -257.41 L220.91 -254.37 L220.81 -251.94 L220.68 -248.9 L220.55 -245.86 L220.44 -243.42 L220.3 -240.37 L220.15 -237.32 L220.04 -234.87 L219.9 -231.81 L219.75 -228.74 L219.64 -226.28 L219.5 -223.21 L219.35 -220.13 L219.24 -217.66 L219.09 -214.57 L218.98 -212.1 L218.83 -209.01 L218.68 -205.91 L218.57 -203.43 L218.42 -200.32 L218.28 -197.21 L218.13 -194.1 L218.02 -191.61 L217.88 -188.49 L217.77 -185.99 L217.63 -182.87 L217.49 -179.74 L217.38 -177.23 L217.25 -174.09 L217.12 -170.95 L217.01 -168.44 L216.88 -165.29 L216.75 -162.14 L216.65 -159.61 L216.52 -156.46 L216.39 -153.3 L216.29 -150.76 L216.16 -147.6 L216.03 -144.43 L215.92 -141.89 L215.79 -138.71 L215.66 -135.53 L215.55 -132.99 L215.42 -129.8 L215.28 -126.61 L215.17 -124.06 L215.04 -120.87 L214.9 -117.67 L214.79 -115.11 L214.66 -111.91 L214.52 -108.7 L214.4 -106.14 L214.26 -102.93 L214.15 -100.36 L214.0 -97.14 L213.86 -93.92 L213.74 -91.34 L213.59 -88.12 L213.45 -84.89 L213.33 -82.31 L213.17 -79.08 L213.02 -75.85 L212.9 -73.26 L212.75 -70.02 L212.6 -66.78 L212.49 -64.19 L212.34 -60.94 L212.2 -57.69 L212.09 -55.09 L211.96 -51.84 L211.86 -49.23 L211.73 -45.98 L211.6 -42.71 L211.5 -40.1 L211.38 -36.84 L211.26 -33.57 L211.16 -30.95 L211.04 -27.68 L210.92 -24.41 L210.82 -21.78 L210.7 -18.51 L210.58 -15.22 L210.48 -12.6 L210.35 -9.31 L210.22 -6.02 L210.12 -3.4 L209.99 -0.12 L209.85 3.14 L209.74 5.75 L209.6 9.01 L209.46 12.26 L209.35 14.85 L209.2 18.08 L209.09 20.67 L208.94 23.89 L208.79 27.1 L208.67 29.67 L208.52 32.87 L208.36 36.07 L208.24 38.62 L208.09 41.8 L207.94 44.97 L207.82 47.51 L207.68 50.67 L207.53 53.82 L207.42 56.34 L207.27 59.49 L207.13 62.63 L207.02 65.13 L206.89 68.26 L206.75 71.37 L206.64 73.86 L206.51 76.97 L206.4 79.45 L206.26 82.55 L206.13 85.64 L206.0 88.72 L205.89 91.18 L205.76 94.25 L205.65 96.7 L205.52 99.76 L205.39 102.81 L205.26 105.85 L205.15 108.29 L205.02 111.32 L204.89 114.34 L204.78 116.76 L204.65 119.78 L204.54 122.18 L204.41 125.19 L204.28 128.18 L204.17 130.58 L204.04 133.56 L203.92 136.54 L203.81 138.92 L203.69 141.89 L203.56 144.85 L203.46 147.21 L203.34 150.16 L203.22 153.11 L203.12 155.46 L203.0 158.39 L202.87 161.32 L202.77 163.65 L202.65 166.57 L202.52 169.48 L202.42 171.8 L202.3 174.7 L202.17 177.59 L202.07 179.9 L201.95 182.78 L201.82 185.65 L201.72 187.95 L201.6 190.81 L201.48 193.67 L201.38 195.95 L201.26 198.8 L201.14 201.64 L201.04 203.9 L200.92 206.73 L200.82 208.99 L200.7 211.8 L200.57 214.61 L200.45 217.42 L200.36 219.65 L200.24 222.45 L200.14 224.67 L200.03 227.45 L199.91 230.22 L199.82 232.42 L199.71 235.15 L199.6 237.86 L199.51 240.01 L199.4 242.68 L199.3 245.32 L199.21 247.41 L199.11 250.01 L199.01 252.57 L198.92 254.6 L198.82 257.12 L198.72 259.61 L198.64 261.58 L198.55 264.03 L198.47 265.96 L198.37 268.36 L198.28 270.73 L198.18 273.07 L198.1 274.93 L198.01 277.23 L197.93 279.05 L197.84 281.3 L197.75 283.53 L197.66 285.73 L197.58 287.48 L197.49 289.64 L197.4 291.78 L197.33 293.48 L197.24 295.57 L197.15 297.65 L197.08 299.29 L196.99 301.33 L196.92 302.94 L196.83 304.94 L196.74 306.92 L196.67 308.49 L196.58 310.42 L196.49 312.34 L196.4 314.24 L196.33 315.74 L196.24 317.6 L196.17 319.08 L196.08 320.91 L196.0 322.72 L195.93 324.16 L195.84 325.94 L195.75 327.7 L195.68 329.1 L195.59 330.84 L195.51 332.56 L195.44 333.93 L195.35 335.63 L195.27 337.31 L195.21 338.65 L195.13 340.31 L195.05 341.96 L194.99 343.27 L194.92 344.9 L194.84 346.52 L194.79 347.81 L194.71 349.42 L194.64 351.02 L194.59 352.3 L194.52 353.89 L194.45 355.48 L194.39 356.75 L194.32 358.33 L194.27 359.59 L194.19 361.16 L194.12 362.73 L194.07 363.98 L194.0 365.54 L193.93 367.1 L193.87 368.65 L193.82 369.89 L193.75 371.43 L193.71 372.67 L193.65 374.21 L193.59 375.75 L193.54 376.97 L193.48 378.51 L193.42 380.03 L193.38 381.25 L193.32 382.77 L193.26 384.29 L193.21 385.5 L193.15 387.01 L193.09 388.52 L193.05 389.73 L192.98 391.23 L192.92 392.73 L192.87 393.92 L192.81 395.41 L192.75 396.9 L192.7 398.09 L192.64 399.57 L192.58 401.05 L192.53 402.23 L192.47 403.7 L192.42 404.88 L192.36 406.34 L192.3 407.8 L192.25 408.97 L192.19 410.43 L192.13 411.88 L192.09 413.04 L192.03 414.49 L191.96 415.93 L191.92 417.08 L191.85 418.52 L191.79 419.94 L191.75 421.07 L191.69 422.48 L191.63 423.87 L191.58 424.96 L191.52 426.31 L191.47 427.65 L191.42 428.69 L191.37 429.99 L191.31 431.26 L191.27 432.26 L191.22 433.49 L191.17 434.71 L191.13 435.66 L191.07 436.84 L191.02 438.01 L190.98 438.92 L190.93 440.05 L190.88 441.17 L190.85 442.05 L190.8 443.13 L190.76 443.99 L190.71 445.05 L190.66 446.09 L190.63 446.91 L190.58 447.93 L190.54 448.93 L190.5 449.72 L190.46 450.69 L190.42 451.65 L190.39 452.41 L190.35 453.34 L190.31 454.26 L190.28 454.98 L190.24 455.88 L190.2 456.75 L190.17 457.44 L190.13 458.29 L190.09 459.12 L190.05 459.78 L189.99 460.6 L189.91 461.39 L189.84 462.02 L189.74 462.8 L189.61 463.56 L189.5 464.15 L189.34 464.89 L189.2 465.46 L189.0 466.16 L188.79 466.84 L188.6 467.37 L188.35 468.02 L188.08 468.65 L187.85 469.13 L187.54 469.72 L187.22 470.29 L186.95 470.72 L186.6 471.25 L186.24 471.75 L185.93 472.13 L185.54 472.59 L185.14 473.02 L184.81 473.36 L184.39 473.75 L183.95 474.13 L183.6 474.41 L183.14 474.75 L182.67 475.07 L182.29 475.31 L181.8 475.6 L181.31 475.86 L180.91 476.05 L180.4 476.28 L179.88 476.48 L179.45 476.63 L178.91 476.81 L178.35 476.97 L177.88 477.09 L177.29 477.22 L176.68 477.33 L176.19 477.41 L175.55 477.48 L175.03 477.53 L174.37 477.56 L173.7 477.58 L173.02 477.57 L172.47 477.54 L171.78 477.5 L171.22 477.45 L170.52 477.37 L169.8 477.27 L169.23 477.18 L168.51 477.06 L167.78 476.9 L167.19 476.77 L166.46 476.57 L165.72 476.36 L165.13 476.17 L164.4 475.9 L163.67 475.61 L163.08 475.36 L162.36 475.03 L161.63 474.67 L161.05 474.37 L160.33 473.97 L159.61 473.55 L159.04 473.2 L158.32 472.74 L157.75 472.35 L157.04 471.85 L156.33 471.32 L155.76 470.89 L155.06 470.33 L154.35 469.75 L153.65 469.16 L153.09 468.67 L152.39 468.05 L151.82 467.54 L151.12 466.89 L150.42 466.23 L149.85 465.69 L149.14 465.02 L148.42 464.33 L147.84 463.78 L147.11 463.08 L146.38 462.38 L145.79 461.81 L145.05 461.1 L144.3 460.38 L143.69 459.8 L142.93 459.06 L142.16 458.32 L141.55 457.73 L140.77 456.97 L139.99 456.21 L139.36 455.6 L138.58 454.82 L137.78 454.05 L137.15 453.42 L136.35 452.63 L135.54 451.84 L134.89 451.2 L134.07 450.4 L133.25 449.6 L132.59 448.95 L131.75 448.15 L130.91 447.33 L130.23 446.68 L129.38 445.86 L128.7 445.21 L127.84 444.38 L126.98 443.56 L126.29 442.91 L125.44 442.1 L124.6 441.29 L123.93 440.65 L123.09 439.86 L122.27 439.08 L121.62 438.46 L120.81 437.7 L120.01 436.94 L119.37 436.34 L118.59 435.6 L117.82 434.87 L117.21 434.3 L116.46 433.59 L115.73 432.88 L115.15 432.33 L114.43 431.65 L113.73 430.98 L113.17 430.45 L112.5 429.8 L111.83 429.17 L111.31 428.68 L110.68 428.07 L110.06 427.48 L109.58 427.02 L108.98 426.46 L108.41 425.91 L107.96 425.49 L107.41 424.96 L106.88 424.46 L106.46 424.06 L105.96 423.58 L105.46 423.11 L105.08 422.74 L104.61 422.3 L104.16 421.87 L103.81 421.53 L103.39 421.13 L102.98 420.74 L102.66 420.44 L102.28 420.08 L101.91 419.73 L101.63 419.46 L101.29 419.14 L100.97 418.83 L100.72 418.6 L100.42 418.33 L100.14 418.07 L99.92 417.88 L99.65 417.66 L99.4 417.45 L99.2 417.3 L98.95 417.13 L98.71 416.96 L98.52 416.83 L98.3 416.69 L98.08 416.55 L97.91 416.45 L97.7 416.33 L97.5 416.22 L97.35 416.13 L97.16 416.04 L96.98 415.95 L96.83 415.89 L96.65 415.81 L96.47 415.74 L96.33 415.69 L96.16 415.63 L96.01 415.59 L95.84 415.54 L95.66 415.49 L95.52 415.45 L95.34 415.42 L95.16 415.38 L95.02 415.36 L94.84 415.33 L94.65 415.31 L94.5 415.3 L94.3 415.28 L94.1 415.27 L93.92 415.26 L93.69 415.26 L93.45 415.26 L93.24 415.27 L92.97 415.28 L92.68 415.3 L92.44 415.33 L92.12 415.36 L91.79 415.41 L91.51 415.45 L91.14 415.51 L90.84 415.56 L90.44 415.63 L90.03 415.71 L89.68 415.78 L89.23 415.88 L88.77 415.97 L88.39 416.06 L87.89 416.17 L87.38 416.29 L86.96 416.39 L86.42 416.53 L85.86 416.67 L85.4 416.79 L84.8 416.94 L84.2 417.1 L83.7 417.23 L83.06 417.41 L82.41 417.59 L81.88 417.74 L81.2 417.94 L80.5 418.15 L79.93 418.33 L79.19 418.55 L78.59 418.74 L77.83 418.97 L77.04 419.22 L76.4 419.41 L75.59 419.67 L74.76 419.93 L74.08 420.14 L73.22 420.42 L72.34 420.7 L71.62 420.93 L70.71 421.22 L69.78 421.52 L69.02 421.77 L68.06 422.07 L67.08 422.39 L66.28 422.64 L65.27 422.96 L64.24 423.29 L63.4 423.55 L62.34 423.88 L61.26 424.22 L60.38 424.5 L59.27 424.84 L58.14 425.2 L57.23 425.48 L56.07 425.84 L55.14 426.13 L53.95 426.51 L52.75 426.88 L51.77 427.19 L50.54 427.57 L49.29 427.96 L48.27 428.28 L46.99 428.68 L45.69 429.09 L44.64 429.41 L43.31 429.83 L41.97 430.24 L40.88 430.58 L39.5 431.01 L38.39 431.35 L36.99 431.79 L35.57 432.22 L34.43 432.57 L33.0 433.01 L31.55 433.46 L30.38 433.82 L28.91 434.26 L27.43 434.71 L26.24 435.07 L24.76 435.51 L23.28 435.95 L22.09 436.3 L20.6 436.73 L19.12 437.15 L17.93 437.49 L16.44 437.9 L14.95 438.3 L13.76 438.6 L12.27 438.98 L10.77 439.34 L9.57 439.62 L8.07 439.95 L6.87 440.21 L5.37 440.51 L3.86 440.8 L2.65 441.02 L1.14 441.28 L-0.37 441.52 L-1.58 441.7 L-3.1 441.9 L-4.61 442.09 L-5.83 442.23 L-7.35 442.38 L-8.87 442.51 L-10.09 442.6 L-11.61 442.69 L-13.14 442.76 L-14.36 442.8 L-15.89 442.82 L-17.42 442.82 L-18.64 442.8 L-20.16 442.75 L-21.69 442.68 L-22.91 442.61 L-24.44 442.49 L-25.97 442.36 L-27.19 442.23 L-28.71 442.06 L-30.24 441.86 L-31.47 441.69 L-33.0 441.46 L-34.54 441.21 L-35.78 441.0 L-37.34 440.73 L-38.91 440.45 L-40.18 440.23 L-41.78 439.94 L-43.39 439.65 L-44.68 439.41 L-46.31 439.1 L-47.62 438.84 L-49.27 438.52 L-50.94 438.2 L-52.28 437.94 L-53.96 437.61 L-55.67 437.28 L-57.04 437.01 L-58.76 436.68 L-60.15 436.41 L-61.9 436.07 L-63.66 435.73 L-65.07 435.45 L-66.86 435.11 L-68.65 434.77 L-70.1 434.49 L-71.91 434.14 L-73.74 433.8 L-75.21 433.52 L-77.06 433.17 L-78.92 432.82 L-80.41 432.54 L-82.28 432.18 L-84.16 431.83 L-85.67 431.54 L-87.57 431.18 L-89.48 430.82 L-91.01 430.52 L-92.94 430.16 L-94.87 429.79 L-96.43 429.49 L-98.38 429.12 L-100.34 428.74 L-101.92 428.44 L-103.9 428.06 L-105.5 427.76 L-107.5 427.37 L-109.51 426.99 L-111.53 426.6 L-113.15 426.29 L-115.19 425.9 L-117.24 425.5 L-118.88 425.18 L-120.95 424.79 L-122.61 424.47 L-124.7 424.06 L-126.79 423.66 L-128.47 423.33 L-130.59 422.92 L-132.71 422.51 L-134.41 422.18 L-136.55 421.76 L-138.7 421.35 L-140.43 421.01 L-142.59 420.59 L-144.77 420.17 L-146.51 419.83 L-148.7 419.41 L-150.9 418.98 L-152.67 418.64 L-154.88 418.21 L-157.11 417.78 L-158.89 417.44 L-161.13 417.01 L-163.38 416.58 L-165.18 416.23 L-167.44 415.79 L-169.71 415.36 L-171.53 415.01 L-173.82 414.57 L-176.1 414.14 L-177.93 413.79 L-180.23 413.35 L-182.07 413.0 L-184.38 412.56 L-186.7 412.12 L-189.03 411.68 L-190.9 411.32 L-193.24 410.88 L-195.59 410.43 L-197.47 410.07 L-199.84 409.62 L-201.73 409.26 L-204.11 408.81 L-206.49 408.36 L-208.4 407.99 L-210.8 407.54 L-213.21 407.08 L-215.14 406.72 L-217.56 406.26 L-219.98 405.8 L-221.93 405.43 L-224.37 404.96 L-226.82 404.5 L-228.78 404.12 L-231.24 403.65 L-233.22 403.28 L-235.69 402.81 L-238.17 402.33 L-240.66 401.86 L-242.66 401.48 L-245.16 401.01 L-247.67 400.53 L-249.68 400.15 L-252.21 399.68 L-254.23 399.29 L-256.77 398.81 L-259.31 398.33 L-261.35 397.95 L-263.9 397.47 L-266.46 396.99 L-268.51 396.6 L-271.08 396.12 L-273.65 395.63 L-275.7 395.25 L-278.26 394.77 L-280.82 394.29 L-282.85 393.91 L-285.4 393.43 L-287.93 392.96 L-289.96 392.58 L-292.49 392.11 L-294.51 391.73 L-297.02 391.26 L-299.53 390.79 L-301.54 390.42 L-304.04 389.95 L-306.54 389.48 L-308.53 389.11 L-311.02 388.65 L-313.5 388.19 L-315.48 387.82 L-317.95 387.35 L-320.42 386.89 L-322.39 386.52 L-324.84 386.06 L-327.29 385.6 L-329.25 385.23 L-331.69 384.77 L-333.64 384.4 L-336.07 383.94 L-338.49 383.47 L-340.43 383.1 L-342.84 382.64 L-345.24 382.19 L-347.17 381.82 L-349.56 381.36 L-351.95 380.91 L-353.86 380.55 L-356.24 380.1 L-358.61 379.65 L-360.51 379.29 L-362.87 378.84 L-365.23 378.4 L-367.12 378.05 L-369.47 377.61 L-371.81 377.17 L-373.68 376.82 L-376.02 376.39 L-377.88 376.04 L-380.21 375.61 L-382.53 375.18 L-384.38 374.83 L-386.69 374.4 L-389.0 373.98 L-390.84 373.64 L-393.13 373.21 L-395.42 372.78 L-397.25 372.44 L-399.53 372.02 L-401.8 371.6 L-403.62 371.26 L-405.89 370.83 L-408.15 370.4 L-409.95 370.06 L-412.2 369.64 L-414.44 369.21 L-416.23 368.87 L-418.47 368.44 L-420.25 368.09 L-422.47 367.67 L-424.69 367.24 L-426.91 366.81 L-428.67 366.47 L-430.88 366.04 L-432.64 365.7 L-434.83 365.28 L-437.02 364.86 L-438.77 364.52 L-440.95 364.1 L-443.13 363.68 L-444.86 363.34 L-447.03 362.92 L-449.19 362.5 L-450.92 362.17 L-453.07 361.75 L-455.22 361.34 L-456.94 361.01 L-459.08 360.59 L-461.21 360.18 L-462.91 359.85 L-465.03 359.44 L-466.72 359.12 L-468.82 358.71 L-470.9 358.31 L-472.96 357.91 L-474.61 357.59 L-476.64 357.2 L-478.66 356.82 L-480.27 356.51 L-482.26 356.13 L-483.84 355.83 L-485.79 355.46 L-487.73 355.09 L-489.27 354.8 L-491.18 354.44 L-493.07 354.08 L-494.57 353.8 L-496.43 353.45 L-498.28 353.1 L-499.75 352.83 L-501.57 352.49 L-503.37 352.15 L-504.81 351.88 L-506.59 351.55 L-508.37 351.22 L-509.77 350.95 L-511.52 350.62 L-513.26 350.29 L-514.64 350.03 L-516.35 349.71 L-518.05 349.39 L-519.39 349.14 L-521.07 348.82 L-522.73 348.51 L-524.04 348.26 L-525.68 347.96 L-527.3 347.66 L-528.58 347.42 L-530.18 347.12 L-531.76 346.83 L-533.01 346.6 L-534.57 346.31 L-535.8 346.08 L-537.33 345.8 L-538.83 345.51 L-540.03 345.29 L-541.51 345.02 L-542.96 344.75 L-544.41 344.48 L-545.54 344.27 L-546.95 344.0 L-548.06 343.8 L-549.43 343.54 L-550.78 343.29 L-552.1 343.04 L-553.15 342.84 L-554.43 342.6 L-555.69 342.37 L-556.69 342.18 L-557.91 341.95 L-558.87 341.77 L-560.05 341.55 L-561.21 341.33 L-562.12 341.16 L-563.25 340.94 L-564.36 340.74 L-565.24 340.57 L-566.32 340.37 L-567.38 340.17 L-568.22 340.02 L-569.25 339.83 L-570.27 339.64 L-571.07 339.5 L-572.05 339.32 L-573.02 339.15 L-573.78 339.01 L-574.71 338.84 L-575.63 338.68 L-576.35 338.55 L-577.24 338.39 L-578.12 338.23 L-578.81 338.11 L-579.66 337.96 L-580.5 337.81 L-581.16 337.69 L-581.97 337.55 L-582.77 337.4 L-583.39 337.29 L-584.15 337.16 L-584.9 337.02 L-585.48 336.92 L-586.19 336.79 L-586.89 336.67 L-587.43 336.57 L-588.1 336.44 L-588.74 336.32 L-589.25 336.23 L-589.87 336.1 L-590.47 335.98 L-590.94 335.88 L-591.51 335.75 L-592.06 335.61 L-592.5 335.5 L-593.02 335.35 L-593.53 335.2 L-593.92 335.06 L-594.4 334.89 L-594.86 334.7 L-595.21 334.54 L-595.64 334.33 L-595.96 334.16 L-596.36 333.93 L-596.73 333.7 L-597.01 333.5 L-597.35 333.25 L-597.68 332.99 L-597.92 332.78 L-598.21 332.52 L-598.48 332.24 L-598.69 332.02 L-598.93 331.75 L-599.16 331.47 L-599.33 331.25 L-599.54 330.96 L-599.73 330.68 L-599.87 330.46 L-600.04 330.17 L-600.19 329.89 L-600.31 329.66 L-600.45 329.38 L-600.57 329.1 L-600.67 328.87 L-600.78 328.59 L-600.87 328.31 L-600.95 328.09 L-601.03 327.81 L-601.09 327.59 L-601.15 327.31 L-601.22 327.03 L-601.26 326.8 L-601.31 326.51 L-601.35 326.21 L-601.38 325.96 L-601.41 325.65 L-601.44 325.32 L-601.45 325.05 L-601.47 324.7 L-601.49 324.33 L-601.5 324.02 L-601.5 323.63 L-601.5 323.22 L-601.5 322.88 L-601.49 322.44 L-601.48 321.99 L-601.48 321.62 L-601.46 321.14 L-601.45 320.65 L-601.44 320.24 L-601.42 319.71 L-601.4 319.17 L-601.38 318.72 L-601.36 318.14 L-601.33 317.55 L-601.3 317.06 L-601.26 316.43 L-601.21 315.79 L-601.17 315.26 L-601.1 314.59 L-601.05 314.04 L-600.97 313.35 L-600.88 312.63 L-600.8 312.05 L-600.7 311.32 L-600.58 310.57 L-600.48 309.96 L-600.34 309.19 L-600.19 308.4 L-600.06 307.77 L-599.89 306.96 L-599.71 306.15 L-599.55 305.49 L-599.35 304.66 L-599.14 303.81 L-598.96 303.13 L-598.73 302.27 L-598.48 301.4 L-598.27 300.7 L-598.01 299.81 L-597.73 298.92 L-597.5 298.2 L-597.21 297.28 L-596.97 296.55 L-596.65 295.63 L-596.32 294.7 L-596.05 293.95 L-595.69 293.01 L-595.33 292.07 L-595.03 291.31 L-594.64 290.36 L-594.23 289.41 L-593.9 288.64 L-593.47 287.68 L-593.03 286.72 L-592.66 285.95 L-592.2 284.99 L-591.72 284.03 L-591.32 283.27 L-590.82 282.32 L-590.3 281.39 L-589.87 280.65 L-589.33 279.74 L-588.77 278.83 L-588.31 278.11 L-587.72 277.21 L-587.12 276.32 L-586.63 275.62 L-586.02 274.75 L-585.39 273.88 L-584.88 273.19 L-584.24 272.34 L-583.6 271.48 L-583.07 270.8 L-582.42 269.96 L-581.76 269.11 L-581.23 268.44 L-580.58 267.59 L-579.92 266.75 L-579.4 266.07 L-578.74 265.21 L-578.22 264.53 L-577.57 263.67 L-576.92 262.8 L-576.39 262.11 L-575.74 261.24 L-575.08 260.37 L-574.55 259.67 L-573.88 258.79 L-573.22 257.92 L-572.68 257.21 L-572.01 256.33 L-571.34 255.45 L-570.8 254.75 L-570.13 253.87 L-569.59 253.17 L-568.92 252.29 L-568.25 251.42 L-567.72 250.73 L-567.05 249.86 L-566.38 248.99 L-565.85 248.3 L-565.19 247.44 L-564.54 246.59 L-564.02 245.91 L-563.38 245.07 L-562.75 244.24 L-562.25 243.59 L-561.63 242.78 L-561.01 241.98 L-560.53 241.35 L-559.93 240.57 L-559.34 239.79 L-558.88 239.18 L-558.3 238.42 L-557.73 237.67 L-557.28 237.08 L-556.72 236.35 L-556.17 235.63 L-555.73 235.06 L-555.19 234.35 L-554.66 233.65 L-554.24 233.1 L-553.72 232.42 L-553.31 231.88 L-552.8 231.21 L-552.3 230.55 L-551.9 230.03 L-551.41 229.38 L-550.92 228.74 L-550.54 228.23 L-550.06 227.6 L-549.6 226.98 L-549.23 226.48 L-548.79 225.86 L-548.35 225.23 L-548.0 224.73 L-547.58 224.1 L-547.16 223.47 L-546.84 222.96 L-546.44 222.33 L-546.05 221.68 L-545.75 221.17 L-545.37 220.52 L-545.01 219.87 L-544.72 219.35 L-544.38 218.69 L-544.04 218.03 L-543.78 217.5 L-543.45 216.83 L-543.14 216.16 L-542.9 215.63 L-542.6 214.95 L-542.37 214.41 L-542.09 213.73 L-541.82 213.04 L-541.61 212.5 L-541.36 211.81 L-541.12 211.12 L-540.93 210.56 L-540.7 209.87 L-540.49 209.17 L-540.32 208.6 L-540.12 207.89 L-539.93 207.17 L-539.78 206.59 L-539.6 205.86 L-539.47 205.27 L-539.31 204.53 L-539.16 203.78 L-539.03 203.03 L-538.93 202.43 L-538.82 201.66 L-538.72 200.89 L-538.65 200.28 L-538.57 199.5 L-538.52 198.87 L-538.46 198.09 L-538.42 197.3 L-538.4 196.66 L-538.38 195.86 L-538.38 195.06 L-538.39 194.41 L-538.41 193.6 L-538.45 192.78 L-538.49 192.13 L-538.55 191.3 L-538.61 190.64 L-538.7 189.81 L-538.8 188.97 L-538.89 188.3 L-539.02 187.46 L-539.16 186.62 L-539.29 185.94 L-539.46 185.09 L-539.64 184.24 L-539.8 183.56 L-540.01 182.71 L-540.24 181.86 L-540.44 181.18 L-540.7 180.33 L-540.98 179.48 L-541.22 178.79 L-541.53 177.93 L-541.86 177.07 L-542.14 176.37 L-542.51 175.49 L-542.89 174.6 L-543.21 173.88 L-543.62 172.98 L-544.03 172.05 L-544.38 171.31 L-544.83 170.36 L-545.29 169.4 L-545.67 168.61 L-546.15 167.62 L-546.65 166.62 L-547.05 165.8 L-547.56 164.77 L-548.09 163.72 L-548.52 162.87 L-549.06 161.8 L-549.62 160.71 L-550.07 159.83 L-550.65 158.71 L-551.23 157.58 L-551.71 156.67 L-552.31 155.51 L-552.8 154.57 L-553.42 153.39 L-554.05 152.18 L-554.57 151.21 L-555.21 149.99 L-555.87 148.75 L-556.41 147.74 L-557.08 146.48 L-557.77 145.2 L-558.33 144.17 L-559.03 142.86 L-559.74 141.55 L-560.31 140.5 L-561.02 139.17 L-561.74 137.82 L-562.32 136.74 L-563.05 135.38 L-563.78 134.0 L-564.37 132.88 L-565.11 131.48 L-565.71 130.35 L-566.45 128.93 L-567.2 127.49 L-567.81 126.33 L-568.57 124.87 L-569.33 123.4 L-569.95 122.22 L-570.72 120.72 L-571.5 119.22 L-572.29 117.7 L-572.92 116.48 L-573.72 114.94 L-574.36 113.7 L-575.16 112.14 L-575.98 110.57 L-576.63 109.3 L-577.45 107.71 L-578.28 106.1 L-578.95 104.81 L-579.8 103.19 L-580.64 101.56 L-581.33 100.24 L-582.18 98.59 L-583.05 96.93 L-583.74 95.59 L-584.62 93.91 L-585.49 92.22 L-586.2 90.87 L-587.09 89.16 L-587.98 87.44 L-588.69 86.07 L-589.59 84.35 L-590.49 82.61 L-591.22 81.22 L-592.13 79.47 L-592.86 78.06 L-593.78 76.29 L-594.71 74.51 L-595.45 73.08 L-596.38 71.29 L-597.3 69.51 L-598.03 68.1 L-598.92 66.35 L-599.81 64.63 L-600.5 63.27 L-601.36 61.6 L-602.19 59.96 L-602.85 58.66 L-603.64 57.05 L-604.41 55.47 L-605.01 54.22 L-605.73 52.67 L-606.43 51.12 L-606.97 49.9 L-607.61 48.37 L-608.23 46.85 L-608.71 45.65 L-609.29 44.15 L-609.84 42.65 L-610.27 41.47 L-610.79 40.0 L-611.28 38.54 L-611.67 37.38 L-612.13 35.94 L-612.49 34.8 L-612.93 33.39 L-613.35 31.98 L-613.68 30.87 L-614.07 29.48 L-614.45 28.1 L-614.75 27.0 L-615.1 25.63 L-615.45 24.26 L-615.71 23.17 L-616.03 21.81 L-616.33 20.46 L-616.57 19.38 L-616.85 18.02 L-617.12 16.67 L-617.33 15.59 L-617.57 14.23 L-617.81 12.88 L-617.99 11.79 L-618.2 10.43 L-618.4 9.07 L-618.54 7.98 L-618.72 6.61 L-618.88 5.24 L-619.0 4.14 L-619.14 2.77 L-619.27 1.39 L-619.36 0.29 L-619.46 -1.09 L-619.55 -2.48 L-619.62 -3.59 L-619.69 -4.98 L-619.75 -6.37 L-619.79 -7.48 L-619.83 -8.88 L-619.85 -10.28 L-619.86 -11.4 L-619.86 -12.8 L-619.85 -13.92 L-619.82 -15.32 L-619.79 -16.72 L-619.75 -17.84 L-619.69 -19.25 L-619.61 -20.65 L-619.55 -21.77 L-619.45 -23.18 L-619.34 -24.58 L-619.25 -25.71 L-619.12 -27.12 L-618.98 -28.53 L-618.85 -29.65 L-618.68 -31.06 L-618.5 -32.47 L-618.35 -33.6 L-618.14 -35.0 L-617.91 -36.41 L-617.73 -37.53 L-617.48 -38.93 L-617.22 -40.33 L-617.0 -41.45 L-616.72 -42.85 L-616.43 -44.25 L-616.19 -45.37 L-615.87 -46.77 L-615.55 -48.17 L-615.27 -49.28 L-614.92 -50.67 L-614.63 -51.79 L-614.25 -53.17 L-613.86 -54.56 L-613.54 -55.66 L-613.12 -57.04 L-612.69 -58.42 L-612.34 -59.52 L-611.9 -60.89 L-611.44 -62.26 L-611.06 -63.35 L-610.58 -64.71 L-610.18 -65.8 L-609.68 -67.16 L-609.16 -68.51 L-608.74 -69.58 L-608.2 -70.93 L-607.66 -72.26 L-607.21 -73.32 L-606.64 -74.64 L-606.06 -75.95 L-605.59 -76.99 L-604.99 -78.29 L-604.37 -79.58 L-603.88 -80.6 L-603.24 -81.87 L-602.6 -83.13 L-602.08 -84.14 L-601.41 -85.38 L-600.74 -86.62 L-600.19 -87.6 L-599.5 -88.82 L-598.79 -90.03 L-598.22 -90.99 L-597.5 -92.18 L-596.92 -93.12 L-596.19 -94.29 L-595.45 -95.45 L-594.7 -96.61 L-594.1 -97.52 L-593.34 -98.65 L-592.74 -99.54 L-591.99 -100.64 L-591.24 -101.72 L-590.49 -102.78 L-589.9 -103.62 L-589.17 -104.65 L-588.58 -105.46 L-587.85 -106.46 L-587.12 -107.44 L-586.53 -108.21 L-585.8 -109.14 L-585.07 -110.06 L-584.48 -110.77 L-583.76 -111.65 L-583.03 -112.5 L-582.46 -113.16 L-581.74 -113.97 L-581.04 -114.75 L-580.49 -115.36 L-579.81 -116.1 L-579.14 -116.81 L-578.63 -117.37 L-577.99 -118.04 L-577.38 -118.7 L-576.9 -119.2 L-576.32 -119.81 L-575.75 -120.41 L-575.3 -120.86 L-574.77 -121.42 L-574.25 -121.95 L-573.84 -122.36 L-573.35 -122.86 L-572.88 -123.33 L-572.51 -123.7 L-572.07 -124.14 L-571.64 -124.57 L-571.32 -124.89 L-570.92 -125.29 L-570.54 -125.66 L-570.25 -125.96 L-569.9 -126.31 L-569.62 -126.59 L-569.29 -126.92 L-568.97 -127.24 L-568.73 -127.49 L-568.43 -127.79 L-568.14 -128.08 L-567.93 -128.3 L-567.66 -128.57 L-567.41 -128.84 L-567.21 -129.05 L-566.98 -129.3 L-566.75 -129.54 L-566.57 -129.73 L-566.36 -129.97 L-566.15 -130.21 L-565.99 -130.4 L-565.79 -130.64 L-565.59 -130.89 L-565.43 -131.09 L-565.23 -131.35 L-565.04 -131.61 L-564.88 -131.82 L-564.7 -132.09 L-564.52 -132.36 L-564.38 -132.57 L-564.2 -132.85 L-564.03 -133.12 L-563.89 -133.34 L-563.71 -133.62 L-563.55 -133.89 L-563.42 -134.12 L-563.27 -134.39 L-563.15 -134.61 L-563.01 -134.89 L-562.87 -135.18 L-562.76 -135.41 L-562.63 -135.72 L-562.49 -136.03 L-562.39 -136.29 L-562.26 -136.63 L-562.13 -136.98 L-562.03 -137.27 L-561.91 -137.64 L-561.79 -138.02 L-561.7 -138.34 L-561.59 -138.74 L-561.49 -139.16 L-561.41 -139.5 L-561.32 -139.94 L-561.25 -140.29 L-561.18 -140.75 L-561.11 -141.22 L-561.06 -141.7 L-561.02 -142.09 L-560.99 -142.58 L-560.97 -142.98 L-560.96 -143.49 L-560.96 -144.0 L-560.97 -144.42 L-561.0 -144.95 L-561.04 -145.48 L-561.08 -145.91 L-561.14 -146.46 L-561.22 -147.0 L-561.3 -147.44 L-561.41 -147.99 L-561.51 -148.44 L-561.65 -148.99 L-561.81 -149.55 L-561.95 -150.0 L-562.14 -150.55 L-562.34 -151.11 L-562.52 -151.56 L-562.76 -152.11 L-563.02 -152.67 L-563.24 -153.11 L-563.53 -153.67 L-563.83 -154.23 L-564.08 -154.69 L-564.41 -155.28 L-564.76 -155.88 L-565.05 -156.37 L-565.41 -157.0 L-565.79 -157.64 L-566.1 -158.17 L-566.5 -158.84 L-566.91 -159.53 L-567.24 -160.09 L-567.67 -160.81 L-568.1 -161.53 L-568.46 -162.12 L-568.92 -162.88 L-569.39 -163.64 L-569.77 -164.27 L-570.26 -165.06 L-570.65 -165.71 L-571.16 -166.53 L-571.67 -167.37 L-572.09 -168.06 L-572.62 -168.92 L-573.16 -169.8 L-573.6 -170.52 L-574.15 -171.41 L-574.69 -172.29 L-575.11 -172.98 L-575.63 -173.84 L-576.04 -174.51 L-576.54 -175.33 L-577.02 -176.14 L-577.4 -176.77 L-577.86 -177.55 L-578.31 -178.32 L-578.65 -178.94 L-579.08 -179.7 L-579.48 -180.46 L-579.8 -181.07 L-580.17 -181.82 L-580.53 -182.57 L-580.81 -183.16 L-581.14 -183.9 L-581.39 -184.48 L-581.7 -185.21 L-581.99 -185.92 L-582.21 -186.49 L-582.47 -187.19 L-582.73 -187.89 L-582.92 -188.44 L-583.15 -189.12 L-583.36 -189.8 L-583.52 -190.34 L-583.71 -191.01 L-583.89 -191.67 L-584.02 -192.2 L-584.16 -192.86 L-584.3 -193.51 L-584.39 -194.04 L-584.5 -194.69 L-584.6 -195.35 L-584.67 -195.87 L-584.74 -196.54 L-584.8 -197.2 L-584.84 -197.74 L-584.87 -198.41 L-584.88 -198.95 L-584.88 -199.63 L-584.86 -200.3 L-584.83 -200.84 L-584.78 -201.52 L-584.71 -202.2 L-584.64 -202.74 L-584.53 -203.41 L-584.41 -204.08 L-584.31 -204.62 L-584.16 -205.29 L-584.0 -205.97 L-583.86 -206.51 L-583.68 -207.19 L-583.52 -207.74 L-583.32 -208.42 L-583.1 -209.11 L-582.92 -209.67 L-582.67 -210.37 L-582.41 -211.07 L-582.19 -211.63 L-581.89 -212.33 L-581.58 -213.03 L-581.31 -213.59 L-580.97 -214.29 L-580.6 -214.98 L-580.29 -215.53 L-579.9 -216.22 L-579.49 -216.91 L-579.16 -217.47 L-578.73 -218.16 L-578.3 -218.87 L-577.95 -219.45 L-577.51 -220.18 L-577.06 -220.92 L-576.7 -221.53 L-576.24 -222.29 L-575.78 -223.07 L-575.4 -223.71 L-574.92 -224.51 L-574.43 -225.32 L-574.03 -225.97 L-573.52 -226.8 L-573.0 -227.64 L-572.59 -228.32 L-572.06 -229.17 L-571.53 -230.04 L-571.09 -230.74 L-570.55 -231.62 L-570.0 -232.51 L-569.55 -233.23 L-568.99 -234.14 L-568.53 -234.88 L-567.96 -235.81 L-567.38 -236.75 L-566.91 -237.5 L-566.32 -238.46 L-565.72 -239.43 L-565.23 -240.21 L-564.62 -241.2 L-564.0 -242.2 L-563.49 -243.01 L-562.85 -244.04 L-562.2 -245.08 L-561.67 -245.91 L-561.01 -246.97 L-560.33 -248.05 L-559.79 -248.92 L-559.09 -250.01 L-558.53 -250.9 L-557.82 -252.03 L-557.1 -253.17 L-556.51 -254.1 L-555.76 -255.27 L-555.0 -256.45 L-554.39 -257.41 L-553.62 -258.63 L-552.84 -259.85 L-552.21 -260.85 L-551.41 -262.1 L-550.6 -263.37 L-549.95 -264.38 L-549.14 -265.66 L-548.31 -266.96 L-547.65 -268.01 L-546.81 -269.33 L-545.97 -270.67 L-545.29 -271.75 L-544.44 -273.11 L-543.57 -274.48 L-542.88 -275.59 L-542.0 -276.99 L-541.12 -278.4 L-540.42 -279.54 L-539.52 -280.97 L-538.8 -282.14 L-537.9 -283.6 L-536.99 -285.06 L-536.27 -286.24 L-535.36 -287.7 L-534.46 -289.17 L-533.74 -290.34 L-532.85 -291.81 L-531.95 -293.27 L-531.24 -294.44 L-530.35 -295.89 L-529.45 -297.35 L-528.74 -298.51 L-527.84 -299.96 L-526.95 -301.4 L-526.24 -302.56 L-525.35 -304.0 L-524.46 -305.44 L-523.75 -306.58 L-522.86 -308.02 L-521.98 -309.45 L-521.27 -310.59 L-520.39 -312.02 L-519.5 -313.44 L-518.8 -314.58 L-517.92 -316.0 L-517.04 -317.42 L-516.34 -318.55 L-515.47 -319.96 L-514.6 -321.36 L-513.91 -322.47 L-513.05 -323.85 L-512.2 -325.22 L-511.53 -326.3 L-510.7 -327.63 L-509.88 -328.95 L-509.23 -329.99 L-508.44 -331.28 L-507.65 -332.54 L-507.02 -333.54 L-506.26 -334.78 L-505.5 -336.0 L-504.9 -336.96 L-504.16 -338.15 L-503.43 -339.32 L-502.86 -340.25 L-502.15 -341.39 L-501.45 -342.52 L-500.89 -343.41 L-500.21 -344.51 L-499.66 -345.38 L-499.0 -346.46 L-498.33 -347.51 L-497.68 -348.56 L-497.17 -349.38 L-496.53 -350.4 L-496.02 -351.2 L-495.39 -352.2 L-494.75 -353.17 L-494.23 -353.95 L-493.58 -354.9 L-492.91 -355.84 L-492.36 -356.57 L-491.66 -357.48 L-490.95 -358.37 L-490.37 -359.07 L-489.63 -359.94 L-488.87 -360.79 L-488.26 -361.47 L-487.49 -362.32 L-486.86 -362.99 L-486.06 -363.84 L-485.25 -364.7 L-484.6 -365.38 L-483.76 -366.24 L-482.91 -367.1 L-482.23 -367.79 L-481.35 -368.65 L-480.46 -369.5 L-479.56 -370.35 L-478.82 -371.03 L-477.89 -371.87 L-476.95 -372.72 L-476.18 -373.39 L-475.21 -374.22 L-474.22 -375.05 L-473.42 -375.71 L-472.41 -376.54 L-471.38 -377.36 L-470.54 -378.02 L-469.48 -378.84 L-468.62 -379.49 L-467.52 -380.31 L-466.4 -381.13 L-465.5 -381.78 L-464.34 -382.6 L-463.17 -383.41 L-462.22 -384.06 L-461.01 -384.87 L-459.77 -385.67 L-458.77 -386.3 L-457.5 -387.09 L-456.22 -387.87 L-455.17 -388.5 L-453.85 -389.27 L-452.52 -390.04 L-451.44 -390.66 L-450.08 -391.44 L-448.7 -392.22 L-447.59 -392.85 L-446.19 -393.65 L-444.78 -394.44 L-443.64 -395.09 L-442.2 -395.89 L-440.75 -396.71 L-439.58 -397.36 L-438.1 -398.19 L-436.61 -399.02 L-435.41 -399.69 L-433.9 -400.54 L-432.37 -401.39 L-431.14 -402.07 L-429.6 -402.93 L-428.04 -403.8 L-426.78 -404.5 L-425.2 -405.39 L-423.6 -406.27 L-422.32 -406.99 L-420.7 -407.89 L-419.08 -408.79 L-417.78 -409.51 L-416.15 -410.42 L-414.83 -411.15 L-413.17 -412.07 L-411.51 -412.99 L-410.17 -413.73 L-408.49 -414.67 L-406.8 -415.61 L-405.44 -416.36 L-403.73 -417.31 L-402.01 -418.26 L-400.63 -419.03 L-398.9 -420.0 L-397.16 -420.98 L-395.75 -421.76 L-393.99 -422.75 L-392.22 -423.74 L-390.8 -424.53 L-389.01 -425.53 L-387.21 -426.53 L-385.76 -427.34 L-383.94 -428.35 L-382.11 -429.36 L-380.64 -430.18 L-378.8 -431.19 L-376.95 -432.21 L-375.47 -433.03 L-373.6 -434.05 L-371.73 -435.08 L-370.23 -435.91 L-368.34 -436.94 L-366.45 -437.98 L-364.94 -438.82 L-363.03 -439.87 L-361.12 -440.92 L-359.58 -441.77 L-357.66 -442.83 L-355.72 -443.89 L-354.17 -444.74 L-352.23 -445.81 L-350.66 -446.67 L-348.7 -447.75 L-346.74 -448.84 L-344.77 -449.93 L-343.19 -450.8 L-341.2 -451.9 L-339.21 -453.01 L-337.62 -453.89 L-335.62 -455.01 L-334.01 -455.9 L-332.0 -457.03 L-329.98 -458.16 L-328.36 -459.06 L-326.33 -460.2 L-324.29 -461.34 L-322.65 -462.26 L-320.6 -463.4 L-318.54 -464.55 L-316.89 -465.48 L-314.81 -466.63 L-313.15 -467.56 L-311.06 -468.73 L-308.97 -469.89 L-307.29 -470.83 L-305.18 -472.0 L-303.07 -473.18 L-301.37 -474.13 L-299.24 -475.31 L-297.11 -476.5 L-295.39 -477.45 L-293.25 -478.65 L-291.09 -479.84 L-289.36 -480.8 L-287.19 -482.01 L-285.02 -483.21 L-283.27 -484.18 L-281.08 -485.4 L-278.88 -486.61 L-277.12 -487.59 L-274.91 -488.81 L-272.69 -490.04 L-270.91 -491.02 L-268.68 -492.25 L-266.89 -493.24 L-264.65 -494.47 L-262.39 -495.71 L-260.59 -496.7 L-258.32 -497.95 L-256.05 -499.19 L-254.23 -500.19 L-251.95 -501.45 L-249.66 -502.71 L-247.83 -503.72 L-245.53 -504.98 L-243.22 -506.25 L-241.38 -507.27 L-239.06 -508.54 L-236.74 -509.82 L-234.87 -510.85 L-232.54 -512.13 L-230.2 -513.42 L-228.33 -514.46 L-225.98 -515.75 L-223.63 -517.06 L-221.74 -518.1 L-219.38 -519.41 L-217.49 -520.47 L-215.12 -521.79 L-212.75 -523.11 L-210.85 -524.17 L-208.47 -525.49 L-206.09 -526.82 L-204.18 -527.89 L-201.78 -529.22 L-199.38 -530.55 L-197.46 -531.62 L-195.05 -532.96 L-192.63 -534.3 L-190.7 -535.38 L-188.27 -536.72 L-185.84 -538.07 L-183.89 -539.15 L-181.45 -540.51 L-179.01 -541.87 L-177.05 -542.96 L-174.59 -544.32 L-172.62 -545.42 L-170.16 -546.79 L-167.69 -548.16 L-165.71 -549.26 L-163.23 -550.64 L-160.75 -552.02 L-158.76 -553.13 L-156.26 -554.52 L-153.76 -555.9 L-151.75 -557.02 L-149.24 -558.41 L-146.72 -559.8 L-144.71 -560.92 L-142.18 -562.32 L-139.64 -563.71 L-137.61 -564.83 L-135.06 -566.23 L-133.02 -567.36 L-130.47 -568.76 L-127.91 -570.17 L-125.85 -571.3 L-123.29 -572.72 L-120.72 -574.13 L-118.68 -575.26 L-116.12 -576.67 L-113.57 -578.08 L-111.53 -579.2 L-108.99 -580.61 L-106.45 -582.01 L-104.43 -583.13 L-101.9 -584.53 L-99.38 -585.93 L-97.37 -587.04 L-94.86 -588.44 L-92.35 -589.83 L-90.35 -590.94 L-87.86 -592.33 L-85.86 -593.44 L-83.37 -594.83 L-80.89 -596.21 L-78.91 -597.31 L-76.43 -598.69 L-73.96 -600.06 L-71.98 -601.15 L-69.52 -602.52 L-67.06 -603.88 L-65.1 -604.97 L-62.65 -606.33 L-60.2 -607.68 L-58.25 -608.76 L-55.81 -610.11 L-53.37 -611.45 L-51.43 -612.52 L-49.0 -613.86 L-46.58 -615.19 L-44.64 -616.26 L-42.23 -617.58 L-39.82 -618.91 L-37.9 -619.97 L-35.5 -621.29 L-33.1 -622.61 L-31.19 -623.66 L-28.82 -624.97 L-26.45 -626.27 L-24.57 -627.31 L-22.24 -628.59 L-19.92 -629.87 L-18.08 -630.88 L-15.79 -632.15 L-13.52 -633.4 L-11.72 -634.39 L-9.48 -635.62 L-7.27 -636.85 L-5.51 -637.82 L-3.33 -639.02 L-1.17 -640.21 L0.54 -641.16 L2.67 -642.34 L4.78 -643.51 L6.46 -644.45 L8.55 -645.61 L10.61 -646.76 L12.25 -647.67 L14.29 -648.81 L16.3 -649.93 L17.9 -650.82 L19.89 -651.93 L21.86 -653.02 L23.42 -653.89 L25.35 -654.97 L27.27 -656.03 L28.79 -656.88 L30.68 -657.93 L32.55 -658.97 L34.03 -659.8 L35.87 -660.83 L37.69 -661.84 L39.14 -662.65 L40.93 -663.66 L42.71 -664.65 L44.12 -665.44 L45.88 -666.43 L47.27 -667.21 L49.0 -668.17 L50.71 -669.13 L52.41 -670.09 L53.76 -670.84 L55.44 -671.78 L56.77 -672.52 L58.42 -673.45 L60.06 -674.36 L61.36 -675.08 L62.98 -675.98 L64.58 -676.87 L65.86 -677.58 L67.44 -678.45 L69.01 -679.32 L70.25 -680.01 L71.8 -680.87 L73.34 -681.72 L74.56 -682.39 L76.07 -683.23 L77.58 -684.06 L78.77 -684.73 L80.25 -685.55 L81.72 -686.37 L82.89 -687.02 L84.33 -687.82 L85.77 -688.62 L86.91 -689.26 L88.32 -690.05 L89.73 -690.83 L90.84 -691.45 L92.22 -692.22 L93.6 -692.98 L94.69 -693.59 L96.04 -694.34 L97.12 -694.94 L98.45 -695.68 L99.78 -696.41 L100.83 -697.0 L102.13 -697.72 L103.43 -698.44 L104.45 -699.02 L105.72 -699.72 L106.98 -700.42 L107.98 -700.98 L109.22 -701.67 L110.45 -702.35 L111.42 -702.89 L112.63 -703.56 L113.83 -704.23 L114.78 -704.76 L115.96 -705.41 L117.13 -706.06 L118.06 -706.57 L119.21 -707.21 L120.13 -707.71 L121.26 -708.34 L122.39 -708.96 L123.28 -709.46 L124.39 -710.07 L125.49 -710.68 L126.58 -711.28 L127.45 -711.76 L128.53 -712.36 L129.61 -712.95 L130.46 -713.43 L131.52 -714.02 L132.37 -714.49 L133.43 -715.08 L134.49 -715.66 L135.33 -716.13 L136.38 -716.71 L137.43 -717.3 L138.26 -717.76 L139.31 -718.34 L140.35 -718.92 L141.18 -719.38 L142.21 -719.96 L143.24 -720.53 L144.05 -720.99 L145.07 -721.55 L146.08 -722.12 L146.87 -722.56 L147.86 -723.11 L148.83 -723.65 L149.59 -724.08 L150.52 -724.6 L151.44 -725.11 L152.16 -725.51 L153.04 -726.01 L153.73 -726.4 L154.58 -726.87 L155.41 -727.34 L156.07 -727.71 L156.88 -728.16 L157.67 -728.61 L158.29 -728.96 L159.07 -729.39 L159.83 -729.82 L160.43 -730.16 L161.17 -730.58 L161.9 -731.0 L162.63 -731.41 L163.21 -731.73 L163.92 -732.14 L164.49 -732.45 L165.19 -732.85 L165.87 -733.24 L166.42 -733.54 L167.08 -733.92 L167.73 -734.28 L168.37 -734.63 L168.87 -734.91 L169.49 -735.24 L169.97 -735.5 L170.57 -735.81 L171.16 -736.11 L171.62 -736.34 L172.19 -736.62 L172.77 -736.88 L173.34 -737.14 L173.8 -737.33 L174.38 -737.56 L174.85 -737.74 L175.43 -737.95 L176.02 -738.14 L176.49 -738.29 L177.09 -738.46 L177.69 -738.61 L178.17 -738.72 L178.77 -738.85 L179.37 -738.96 L179.85 -739.04 L180.45 -739.12 L181.06 -739.19 L181.54 -739.24 L182.15 -739.29 L182.76 -739.32 L183.25 -739.34 L183.86 -739.35 L184.47 -739.35 L184.97 -739.33 L185.58 -739.31 L186.2 -739.27 L186.69 -739.23 L187.31 -739.16 L187.93 -739.08 L188.42 -739.01 L189.04 -738.91 L189.65 -738.79 L190.14 -738.69 L190.75 -738.55 L191.36 -738.4 L191.85 -738.27 L192.45 -738.09 L193.06 -737.9 L193.54 -737.74 L194.13 -737.52 L194.73 -737.29 L195.2 -737.09 L195.79 -736.82 L196.25 -736.6 L196.83 -736.31 L197.39 -736.0 L199.89 -734.39 L200.41 -734.0 L200.82 -733.68 L201.32 -733.27 L201.82 -732.85 L202.2 -732.5 L202.68 -732.05 L203.05 -731.68 L203.51 -731.22 L203.96 -730.74 L204.31 -730.34 L204.73 -729.84 L205.15 -729.33 L205.47 -728.9 L205.85 -728.36 L206.23 -727.81 L206.51 -727.36 L206.86 -726.8 L207.19 -726.22 L207.45 -725.76 L207.76 -725.17 L208.05 -724.59 L208.29 -724.11 L208.58 -723.52 L208.86 -722.92 L209.1 -722.44 L209.39 -721.83 L209.69 -721.21 L209.93 -720.7 L210.24 -720.06 L210.49 -719.54 L210.81 -718.88 L211.13 -718.2 L211.39 -717.65 L211.72 -716.96 L212.05 -716.25 L212.31 -715.68 L212.65 -714.95 L212.98 -714.21 L213.25 -713.61 L213.59 -712.85 L213.94 -712.08 L214.22 -711.45 L214.58 -710.65 L214.94 -709.85 L215.23 -709.19 L215.6 -708.36 L215.97 -707.52 L216.27 -706.84 L216.66 -705.97 L217.04 -705.1 L217.36 -704.39 L217.76 -703.5 L218.16 -702.6 L218.49 -701.87 L218.9 -700.95 L219.32 -700.02 L219.66 -699.27 L220.09 -698.34 L220.51 -697.4 L220.85 -696.65 L221.27 -695.71 L221.6 -694.97 L222.02 -694.04 L222.44 -693.11 L222.77 -692.36 L223.19 -691.44 L223.6 -690.52 L223.93 -689.78 L224.34 -688.86 L224.75 -687.94 L225.08 -687.21 L225.49 -686.29 L225.89 -685.38 L226.22 -684.65 L226.62 -683.74 L227.02 -682.83 L227.34 -682.1 L227.74 -681.19 L228.13 -680.27 L228.44 -679.54 L228.83 -678.63 L229.21 -677.71 L229.52 -676.97 L229.89 -676.04 L230.26 -675.1 L230.55 -674.35 L230.9 -673.41 L231.18 -672.65 L231.52 -671.7 L231.85 -670.74 L232.11 -669.97 L232.43 -669.01 L232.74 -668.04 L232.98 -667.26 L233.27 -666.28 L233.55 -665.29 L233.76 -664.5 L234.03 -663.51 L234.28 -662.52 L234.47 -661.72 L234.71 -660.71 L234.94 -659.71 L235.11 -658.9 L235.32 -657.89 L235.52 -656.87 L235.67 -656.06 L235.86 -655.04 L236.03 -654.01 L236.17 -653.19 L236.33 -652.16 L236.48 -651.13 L236.59 -650.3 L236.72 -649.26 L236.84 -648.22 L236.93 -647.39 L237.04 -646.34 L237.11 -645.5 L237.19 -644.45 L237.26 -643.4 L237.31 -642.56 L237.35 -641.5 L237.39 -640.44 L237.41 -639.6 L237.43 -638.54 L237.43 -637.47 L237.43 -636.62 L237.42 -635.55 L237.4 -634.48 L237.38 -633.62 L237.35 -632.53 L237.32 -631.44 L237.29 -630.57 L237.25 -629.46 L237.21 -628.35 L237.18 -627.45 L237.13 -626.31 L237.09 -625.17 L237.05 -624.25 L237.01 -623.09 L236.96 -621.91 L236.92 -620.97 L236.87 -619.77 L236.83 -618.81 L236.78 -617.59 L236.73 -616.36 L236.69 -615.37 L236.64 -614.12 L236.59 -612.85 L236.55 -611.83 L236.49 -610.54 L236.44 -609.24 L236.39 -608.19 L236.34 -606.86 L236.28 -605.53 L236.23 -604.45 L236.18 -603.09 L236.12 -601.71 L236.07 -600.6 L236.01 -599.2 L235.95 -597.79 L235.9 -596.65 L235.83 -595.21 L235.77 -593.77 L235.72 -592.6 L235.65 -591.13 L235.58 -589.64 L235.53 -588.45 L235.46 -586.95 L235.39 -585.43 L235.33 -584.21 L235.25 -582.67 L235.18 -581.11 L235.11 -579.85 L235.04 -578.27 L234.96 -576.67 L234.9 -575.38 L234.82 -573.76 L234.74 -572.12 L234.67 -570.8 L234.59 -569.14 L234.51 -567.46 L234.44 -566.1 L234.36 -564.4 L234.28 -562.68 L234.22 -561.29 L234.13 -559.54 L234.06 -558.13 L233.98 -556.36 L233.9 -554.57 L233.82 -552.78 L233.75 -551.34 L233.67 -549.53 L233.59 -547.71 L233.53 -546.24 L233.45 -544.4 L233.37 -542.55 L233.31 -541.05 L233.24 -539.18 L233.16 -537.29 L233.11 -535.77 L233.03 -533.87 L232.98 -532.33 L232.9 -530.4 L232.83 -528.47 L232.76 -526.52 L232.7 -524.95 L232.63 -522.98 L232.57 -521.39 L232.49 -519.4 L232.42 -517.4 L232.36 -515.79 L232.28 -513.77 L232.19 -511.73 L232.13 -510.1 L232.04 -508.04 L231.95 -505.98 L231.88 -504.32 L231.78 -502.23 L231.68 -500.14 L231.6 -498.45 L231.5 -496.34 L231.39 -494.21 L231.31 -492.51 L231.2 -490.36 L231.09 -488.21 L231.01 -486.48 L230.9 -484.3 L230.8 -482.12 L230.72 -480.37 L230.62 -478.16 L230.51 -475.95 L230.43 -474.17 L230.33 -471.95 L230.22 -469.71 L230.14 -467.91 L230.04 -465.65 L229.95 -463.39 L229.87 -461.57 L229.78 -459.3 L229.69 -457.01 L229.61 -455.18 L229.51 -452.89 L229.43 -451.05 L229.34 -448.73 L229.25 -446.41 L229.17 -444.55 L229.08 -442.22 L228.98 -439.88 L228.9 -438.0 L228.8 -435.64 L228.7 -433.27 L228.6 -430.9 L228.52 -428.99 L228.42 -426.61 L228.34 -424.69 L228.24 -422.29 L228.14 -419.88 L228.03 -417.46 L227.95 -415.51 L227.85 -413.08 L227.75 -410.64 L227.66 -408.68 L227.56 -406.22 L227.48 -404.25 L227.37 -401.78 L227.27 -399.3 L227.18 -397.31 L227.08 -394.81 L226.98 -392.31 L226.9 -390.3 L226.79 -387.79 L226.69 -385.26 L226.61 -383.24 L226.51 -380.7 L226.41 -378.15 L226.33 -376.11 L226.23 -373.55 L226.13 -370.98 L226.04 -368.92 L225.94 -366.34 L225.85 -364.27 L225.74 -361.68 L225.62 -359.08 L225.5 -356.47 L225.4 -354.38 L225.28 -351.76 L225.17 -349.66 L225.04 -347.03 L224.91 -344.39 L224.8 -342.28 L224.67 -339.63 L224.53 -336.97 L224.42 -334.84 L224.28 -332.17 L224.14 -329.5 L224.03 -327.37 L223.89 -324.69 L223.76 -322.01 L223.65 -319.86 L223.53 -317.17 L223.4 -314.47 L223.3 -312.31 L223.19 -309.6 L223.1 -307.43 L222.99 -304.71 L222.87 -301.98 L222.76 -299.25 L222.68 -297.06 L222.56 -294.32 L222.45 -291.57 L222.36 -289.37 L222.25 -286.62 L222.16 -284.41 L222.05 -281.64 L221.94 -278.87 L221.85 -276.65 L221.74 -273.86 L221.62 -271.07 L221.53 -268.84 L221.42 -266.04L221.25 -262.86" fill="#bebebe" id="track-outline" stroke="black" stroke-width="0.3px"></path><line fill="black" stroke="black" stroke-width="5px" x1="221.253565992415" x2="206.6907409548759" y1="-262.8556602905504" y2="-263.9586334890686"></line></g></g></svg>