<svg height="100%" id="track-svg" width="100%" xmlns="http://www.w3.org/2000/svg" xmlns:xlink="http://www.w3.org/1999/xlink" xmlns:ev="http://www.w3.org/2001/xml-events" style="overflow: hidden; "><g id="viewport-20250804103736085" class="svg-pan-zoom_viewport" transform="matrix(0.833395136004753,0,0,0.833395136004753,419.5630595357985,753.3334138029805)" style="transform: matrix(0.833395, 0, 0, 0.833395, 419.563, 753.333);"><g id="debug"><polyline fill="none" id="bb" points="-498.4383239746094,-736.440185546875 243.1066589355469,-736.440185546875 243.1066589355469,476.8598327636719 -498.4383239746094,476.8598327636719 -498.4383239746094,-736.440185546875" stroke="none" stroke-width="3px"></polyline><circle cx="-127.66583251953125" cy="-129.79010009765625" fill="none" id="centerpoint" r="5" stroke="none"></circle></g><g id="track"><path d="M206.59 -259.88 L206.96 -265.98 L207.09 -268.83 L207.2 -271.1 L207.33 -273.94 L207.46 -276.77 L207.56 -279.03 L207.69 -281.85 L207.82 -284.67 L207.93 -286.91 L208.05 -289.72 L208.18 -292.52 L208.31 -295.32 L208.41 -297.56 L208.54 -300.36 L208.65 -302.6 L208.78 -305.4 L208.9 -308.2 L209.01 -310.44 L209.14 -313.23 L209.26 -316.01 L209.36 -318.24 L209.49 -321.02 L209.61 -323.79 L209.71 -326.0 L209.84 -328.76 L209.96 -331.52 L210.05 -333.72 L210.17 -336.46 L210.29 -339.2 L210.39 -341.39 L210.51 -344.12 L210.61 -346.3 L210.73 -349.02 L210.85 -351.73 L210.97 -354.44 L211.07 -356.6 L211.19 -359.3 L211.28 -361.45 L211.4 -364.14 L211.52 -366.82 L211.64 -369.49 L211.74 -371.62 L211.86 -374.28 L211.95 -376.4 L212.07 -379.05 L212.18 -381.69 L212.28 -383.8 L212.39 -386.43 L212.51 -389.05 L212.6 -391.15 L212.71 -393.75 L212.82 -396.36 L212.91 -398.43 L213.02 -401.02 L213.13 -403.6 L213.21 -405.66 L213.32 -408.23 L213.42 -410.79 L213.51 -412.84 L213.61 -415.38 L213.71 -417.92 L213.79 -419.95 L213.9 -422.48 L213.98 -424.49 L214.08 -427.0 L214.18 -429.5 L214.26 -431.5 L214.36 -433.99 L214.47 -436.47 L214.55 -438.45 L214.65 -440.91 L214.75 -443.37 L214.83 -445.33 L214.93 -447.77 L215.03 -450.21 L215.11 -452.15 L215.22 -454.57 L215.32 -456.98 L215.4 -458.9 L215.5 -461.3 L215.6 -463.69 L215.68 -465.59 L215.78 -467.96 L215.88 -470.33 L215.96 -472.21 L216.06 -474.56 L216.17 -476.9 L216.25 -478.77 L216.36 -481.1 L216.44 -482.95 L216.55 -485.26 L216.65 -487.57 L216.74 -489.4 L216.84 -491.69 L216.95 -493.97 L217.03 -495.79 L217.13 -498.05 L217.23 -500.3 L217.31 -502.1 L217.4 -504.34 L217.49 -506.57 L217.57 -508.35 L217.65 -510.56 L217.74 -512.77 L217.8 -514.53 L217.88 -516.72 L217.96 -518.9 L218.02 -520.64 L218.1 -522.82 L218.18 -524.98 L218.24 -526.71 L218.31 -528.85 L218.37 -530.99 L218.42 -532.69 L218.47 -534.8 L218.53 -536.91 L218.56 -538.58 L218.61 -540.67 L218.65 -542.75 L218.69 -544.4 L218.73 -546.45 L218.77 -548.5 L218.8 -550.12 L218.84 -552.15 L218.87 -553.76 L218.91 -555.77 L218.95 -557.76 L218.98 -559.35 L219.02 -561.32 L219.06 -563.28 L219.09 -564.85 L219.14 -566.79 L219.18 -568.72 L219.21 -570.26 L219.26 -572.17 L219.31 -574.07 L219.34 -575.58 L219.39 -577.46 L219.44 -579.33 L219.47 -580.82 L219.52 -582.67 L219.57 -584.5 L219.6 -585.97 L219.64 -587.79 L219.69 -589.6 L219.72 -591.04 L219.76 -592.83 L219.8 -594.24 L219.84 -596.0 L219.88 -597.75 L219.92 -599.13 L219.96 -600.85 L220.0 -602.56 L220.04 -603.91 L220.08 -605.59 L220.12 -607.25 L220.16 -608.57 L220.2 -610.2 L220.24 -611.83 L220.28 -613.11 L220.32 -614.71 L220.37 -616.29 L220.4 -617.54 L220.45 -619.09 L220.49 -620.63 L220.53 -621.86 L220.57 -623.37 L220.62 -624.87 L220.66 -626.05 L220.71 -627.52 L220.76 -628.99 L220.8 -630.15 L220.85 -631.59 L220.88 -633.0 L220.9 -634.11 L220.9 -635.48 L220.9 -636.56 L220.87 -637.89 L220.83 -639.2 L220.78 -640.24 L220.71 -641.52 L220.61 -642.78 L220.53 -643.77 L220.41 -644.99 L220.28 -646.2 L220.16 -647.15 L220.01 -648.32 L219.83 -649.48 L219.69 -650.41 L219.49 -651.55 L219.28 -652.7 L219.09 -653.61 L218.86 -654.74 L218.6 -655.87 L218.39 -656.77 L218.11 -657.88 L217.81 -659.0 L217.57 -659.88 L217.25 -660.99 L216.92 -662.08 L216.64 -662.96 L216.28 -664.04 L215.91 -665.13 L215.61 -665.99 L215.21 -667.07 L214.81 -668.16 L214.48 -669.02 L214.06 -670.11 L213.63 -671.19 L213.28 -672.06 L212.84 -673.14 L212.39 -674.23 L212.03 -675.1 L211.57 -676.19 L211.11 -677.28 L210.74 -678.17 L210.26 -679.28 L209.88 -680.18 L209.39 -681.32 L208.9 -682.47 L208.5 -683.4 L208.0 -684.57 L207.5 -685.74 L207.11 -686.66 L206.62 -687.8 L206.14 -688.91 L205.77 -689.8 L205.3 -690.89 L204.84 -691.96 L204.48 -692.8 L204.04 -693.84 L203.6 -694.86 L203.26 -695.67 L202.83 -696.66 L202.41 -697.63 L202.09 -698.39 L201.68 -699.33 L201.28 -700.25 L200.97 -700.97 L200.58 -701.86 L200.28 -702.55 L199.9 -703.4 L199.53 -704.23 L199.24 -704.88 L198.88 -705.67 L198.52 -706.45 L198.24 -707.06 L197.89 -707.8 L197.55 -708.52 L197.28 -709.09 L196.95 -709.78 L196.63 -710.45 L196.38 -710.97 L196.06 -711.6 L195.76 -712.22 L195.52 -712.7 L195.22 -713.28 L194.93 -713.84 L194.7 -714.27 L194.41 -714.79 L194.13 -715.29 L193.91 -715.67 L193.64 -716.14 L193.37 -716.58 L193.16 -716.91 L192.9 -717.31 L192.64 -717.69 L192.43 -717.97 L192.18 -718.31 L191.93 -718.62 L191.73 -718.86 L191.49 -719.13 L191.25 -719.38 L191.06 -719.57 L190.83 -719.8 L190.6 -720.01 L190.42 -720.16 L190.2 -720.34 L190.02 -720.48 L189.78 -720.65 L189.54 -720.81 L189.34 -720.93 L189.08 -721.07 L188.82 -721.21 L188.61 -721.31 L188.35 -721.43 L188.08 -721.55 L187.86 -721.63 L187.59 -721.73 L187.32 -721.83 L187.09 -721.89 L186.81 -721.97 L186.53 -722.04 L186.3 -722.08 L186.01 -722.14 L185.73 -722.18 L185.5 -722.21 L185.21 -722.24 L184.92 -722.26 L184.69 -722.27 L184.4 -722.28 L184.11 -722.28 L183.88 -722.27 L183.59 -722.26 L183.3 -722.23 L183.07 -722.21 L182.78 -722.17 L182.49 -722.12 L182.26 -722.08 L181.97 -722.02 L181.68 -721.95 L181.45 -721.89 L181.17 -721.81 L180.88 -721.72 L180.66 -721.65 L180.37 -721.55 L180.09 -721.45 L179.86 -721.37 L179.58 -721.25 L179.29 -721.14 L179.06 -721.04 L178.77 -720.92 L178.48 -720.79 L178.24 -720.68 L177.93 -720.54 L177.62 -720.39 L177.37 -720.27 L177.04 -720.11 L176.71 -719.95 L176.43 -719.81 L176.07 -719.64 L175.7 -719.45 L175.39 -719.3 L174.99 -719.09 L174.57 -718.88 L174.23 -718.71 L173.78 -718.48 L173.3 -718.24 L172.91 -718.04 L172.41 -717.78 L171.88 -717.51 L171.44 -717.29 L170.88 -717.0 L170.42 -716.76 L169.82 -716.45 L169.2 -716.13 L168.69 -715.87 L168.03 -715.53 L167.35 -715.18 L166.65 -714.82 L166.07 -714.53 L165.33 -714.15 L164.57 -713.76 L163.94 -713.44 L163.14 -713.03 L162.32 -712.61 L161.66 -712.27 L160.81 -711.83 L159.94 -711.39 L159.24 -711.03 L158.34 -710.57 L157.62 -710.2 L156.69 -709.73 L155.76 -709.25 L154.99 -708.86 L154.02 -708.36 L153.03 -707.85 L152.23 -707.44 L151.21 -706.92 L150.17 -706.39 L149.32 -705.95 L148.25 -705.4 L147.15 -704.84 L146.25 -704.38 L145.11 -703.8 L143.95 -703.2 L143.0 -702.72 L141.8 -702.1 L140.56 -701.47 L139.56 -700.95 L138.28 -700.3 L136.97 -699.63 L135.91 -699.09 L134.56 -698.4 L133.2 -697.7 L132.09 -697.13 L130.68 -696.41 L129.25 -695.68 L128.08 -695.09 L126.61 -694.34 L125.11 -693.58 L123.89 -692.96 L122.35 -692.17 L121.1 -691.54 L119.52 -690.73 L117.91 -689.91 L116.61 -689.24 L114.95 -688.39 L113.27 -687.53 L111.57 -686.66 L110.19 -685.94 L108.44 -685.04 L107.02 -684.31 L105.22 -683.37 L103.4 -682.42 L101.92 -681.65 L100.05 -680.68 L98.16 -679.68 L96.62 -678.88 L94.69 -677.85 L92.73 -676.81 L91.14 -675.97 L89.14 -674.9 L87.12 -673.81 L85.49 -672.93 L83.43 -671.8 L81.34 -670.67 L79.66 -669.74 L77.53 -668.58 L75.38 -667.39 L73.64 -666.44 L71.44 -665.23 L69.67 -664.25 L67.42 -663.02 L65.16 -661.77 L63.33 -660.76 L61.02 -659.49 L58.69 -658.2 L56.8 -657.16 L54.43 -655.85 L52.02 -654.52 L50.08 -653.45 L47.64 -652.1 L45.17 -650.73 L43.18 -649.63 L40.67 -648.25 L38.14 -646.85 L36.09 -645.72 L33.52 -644.3 L30.92 -642.86 L28.83 -641.71 L26.2 -640.25 L23.55 -638.79 L21.41 -637.61 L18.74 -636.13 L16.59 -634.95 L13.9 -633.46 L11.21 -631.97 L9.05 -630.78 L6.35 -629.28 L3.64 -627.78 L1.47 -626.58 L-1.25 -625.07 L-3.97 -623.56 L-6.15 -622.35 L-8.88 -620.83 L-11.62 -619.31 L-13.82 -618.1 L-16.55 -616.58 L-19.29 -615.06 L-21.47 -613.84 L-24.2 -612.33 L-26.93 -610.81 L-29.1 -609.6 L-31.82 -608.09 L-34.53 -606.58 L-36.7 -605.38 L-39.41 -603.87 L-42.11 -602.37 L-44.27 -601.17 L-46.96 -599.67 L-49.12 -598.47 L-51.81 -596.98 L-54.49 -595.49 L-56.64 -594.3 L-59.31 -592.81 L-61.99 -591.33 L-64.12 -590.14 L-66.79 -588.66 L-69.45 -587.19 L-71.58 -586.01 L-74.23 -584.54 L-76.88 -583.07 L-78.99 -581.89 L-81.63 -580.43 L-84.27 -578.97 L-86.37 -577.8 L-89.0 -576.34 L-91.62 -574.89 L-93.72 -573.73 L-96.33 -572.28 L-98.94 -570.84 L-101.02 -569.68 L-103.62 -568.24 L-106.21 -566.8 L-108.28 -565.65 L-110.87 -564.22 L-113.45 -562.79 L-115.51 -561.65 L-118.08 -560.23 L-120.64 -558.81 L-122.69 -557.68 L-125.25 -556.27 L-127.8 -554.86 L-129.83 -553.73 L-132.37 -552.33 L-134.91 -550.92 L-136.93 -549.8 L-139.45 -548.4 L-141.97 -547.0 L-143.98 -545.89 L-146.49 -544.5 L-148.99 -543.1 L-150.99 -541.99 L-153.48 -540.61 L-155.97 -539.23 L-157.95 -538.12 L-160.43 -536.75 L-162.9 -535.37 L-164.87 -534.28 L-167.33 -532.91 L-169.79 -531.54 L-171.75 -530.45 L-174.2 -529.09 L-176.64 -527.73 L-178.59 -526.65 L-181.02 -525.29 L-183.45 -523.94 L-185.39 -522.86 L-187.82 -521.51 L-189.75 -520.43 L-192.16 -519.09 L-194.57 -517.75 L-196.5 -516.68 L-198.9 -515.35 L-201.3 -514.03 L-203.21 -512.97 L-205.6 -511.64 L-207.98 -510.33 L-209.88 -509.27 L-212.25 -507.96 L-214.61 -506.65 L-216.5 -505.61 L-218.85 -504.31 L-221.21 -503.01 L-223.08 -501.97 L-225.43 -500.68 L-227.76 -499.4 L-229.62 -498.37 L-231.95 -497.09 L-234.27 -495.82 L-236.12 -494.8 L-238.42 -493.52 L-240.72 -492.26 L-242.55 -491.24 L-244.84 -489.98 L-247.12 -488.72 L-248.94 -487.71 L-251.2 -486.45 L-253.46 -485.2 L-255.27 -484.2 L-257.51 -482.95 L-259.75 -481.7 L-261.54 -480.7 L-263.76 -479.46 L-265.97 -478.21 L-267.74 -477.22 L-269.94 -475.98 L-272.13 -474.74 L-273.88 -473.76 L-276.07 -472.53 L-278.24 -471.3 L-279.98 -470.33 L-282.15 -469.12 L-284.31 -467.91 L-286.03 -466.95 L-288.18 -465.76 L-290.33 -464.57 L-292.04 -463.62 L-294.17 -462.44 L-296.29 -461.27 L-297.98 -460.33 L-300.1 -459.17 L-302.2 -458.0 L-303.88 -457.08 L-305.97 -455.92 L-308.05 -454.77 L-309.71 -453.85 L-311.78 -452.7 L-313.44 -451.79 L-315.49 -450.65 L-317.54 -449.51 L-319.18 -448.61 L-321.21 -447.48 L-323.24 -446.35 L-324.86 -445.45 L-326.88 -444.33 L-328.9 -443.21 L-330.5 -442.31 L-332.5 -441.2 L-334.5 -440.09 L-336.09 -439.21 L-338.07 -438.1 L-340.04 -437.01 L-341.61 -436.13 L-343.57 -435.05 L-345.51 -433.96 L-347.07 -433.1 L-349.0 -432.02 L-350.93 -430.95 L-352.46 -430.1 L-354.37 -429.04 L-356.27 -427.99 L-357.78 -427.15 L-359.66 -426.1 L-361.54 -425.06 L-363.03 -424.23 L-364.89 -423.2 L-366.37 -422.38 L-368.21 -421.35 L-370.04 -420.34 L-371.86 -419.33 L-373.31 -418.52 L-375.12 -417.53 L-376.56 -416.73 L-378.35 -415.75 L-380.13 -414.78 L-381.55 -414.0 L-383.32 -413.04 L-385.07 -412.08 L-386.47 -411.32 L-388.21 -410.38 L-389.94 -409.44 L-391.32 -408.69 L-393.04 -407.76 L-394.75 -406.85 L-396.11 -406.12 L-397.8 -405.21 L-399.48 -404.31 L-400.82 -403.6 L-402.48 -402.71 L-404.13 -401.83 L-405.45 -401.12 L-407.08 -400.25 L-408.71 -399.38 L-410.0 -398.69 L-411.61 -397.83 L-413.21 -396.97 L-414.49 -396.29 L-416.07 -395.44 L-417.32 -394.76 L-418.88 -393.92 L-420.42 -393.09 L-421.64 -392.42 L-423.16 -391.6 L-424.66 -390.77 L-425.85 -390.12 L-427.33 -389.31 L-428.8 -388.51 L-429.96 -387.87 L-431.41 -387.08 L-432.84 -386.29 L-433.97 -385.67 L-435.38 -384.9 L-436.77 -384.13 L-437.87 -383.52 L-439.24 -382.76 L-440.6 -382.01 L-441.67 -381.41 L-443.0 -380.67 L-444.32 -379.94 L-445.36 -379.35 L-446.66 -378.63 L-447.93 -377.91 L-448.95 -377.33 L-450.19 -376.61 L-451.41 -375.88 L-452.37 -375.29 L-453.54 -374.56 L-454.69 -373.81 L-455.59 -373.22 L-456.69 -372.47 L-457.56 -371.87 L-458.62 -371.12 L-459.66 -370.36 L-460.47 -369.76 L-461.47 -369.01 L-462.45 -368.25 L-463.22 -367.65 L-464.16 -366.91 L-464.89 -366.31 L-465.79 -365.58 L-466.67 -364.84 L-467.36 -364.25 L-468.2 -363.53 L-469.02 -362.8 L-469.65 -362.23 L-470.43 -361.51 L-471.19 -360.8 L-471.78 -360.23 L-472.51 -359.53 L-473.21 -358.84 L-473.76 -358.3 L-474.43 -357.62 L-475.09 -356.95 L-475.6 -356.43 L-476.22 -355.78 L-476.82 -355.15 L-477.29 -354.64 L-477.86 -354.02 L-478.41 -353.42 L-478.84 -352.94 L-479.36 -352.35 L-479.86 -351.77 L-480.24 -351.32 L-480.71 -350.76 L-481.07 -350.32 L-481.51 -349.77 L-481.93 -349.24 L-482.25 -348.82 L-482.64 -348.3 L-483.0 -347.79 L-483.29 -347.38 L-483.62 -346.88 L-483.94 -346.39 L-484.18 -346.0 L-484.47 -345.52 L-484.74 -345.04 L-484.94 -344.67 L-485.18 -344.21 L-485.4 -343.76 L-485.57 -343.4 L-485.77 -342.97 L-485.96 -342.54 L-486.11 -342.21 L-486.28 -341.79 L-486.44 -341.37 L-486.56 -341.03 L-486.71 -340.61 L-486.84 -340.19 L-486.94 -339.84 L-487.05 -339.4 L-487.16 -338.96 L-487.24 -338.6 L-487.33 -338.14 L-487.41 -337.69 L-487.47 -337.32 L-487.53 -336.86 L-487.59 -336.4 L-487.63 -336.03 L-487.68 -335.56 L-487.71 -335.09 L-487.74 -334.72 L-487.76 -334.24 L-487.78 -333.77 L-487.78 -333.39 L-487.78 -332.91 L-487.77 -332.43 L-487.76 -332.04 L-487.73 -331.56 L-487.69 -331.07 L-487.66 -330.68 L-487.61 -330.19 L-487.54 -329.69 L-487.48 -329.29 L-487.4 -328.79 L-487.3 -328.28 L-487.21 -327.87 L-487.1 -327.35 L-486.99 -326.93 L-486.86 -326.4 L-486.71 -325.86 L-486.55 -325.32 L-486.41 -324.89 L-486.23 -324.34 L-486.07 -323.89 L-485.87 -323.32 L-485.65 -322.75 L-485.47 -322.28 L-485.23 -321.68 L-484.98 -321.08 L-484.78 -320.58 L-484.51 -319.96 L-484.24 -319.32 L-484.01 -318.81 L-483.71 -318.16 L-483.4 -317.5 L-483.15 -316.96 L-482.81 -316.28 L-482.47 -315.6 L-482.19 -315.05 L-481.82 -314.35 L-481.44 -313.64 L-481.13 -313.06 L-480.73 -312.34 L-480.32 -311.6 L-479.99 -311.01 L-479.55 -310.27 L-479.2 -309.67 L-478.74 -308.92 L-478.27 -308.17 L-477.78 -307.41 L-477.39 -306.81 L-476.88 -306.06 L-476.37 -305.31 L-475.95 -304.71 L-475.43 -303.97 L-475.0 -303.37 L-474.46 -302.63 L-473.91 -301.89 L-473.46 -301.31 L-472.9 -300.57 L-472.33 -299.84 L-471.86 -299.26 L-471.27 -298.54 L-470.67 -297.82 L-470.18 -297.24 L-469.57 -296.53 L-468.94 -295.82 L-468.43 -295.25 L-467.79 -294.55 L-467.13 -293.86 L-466.6 -293.3 L-465.93 -292.61 L-465.24 -291.92 L-464.68 -291.37 L-463.97 -290.68 L-463.39 -290.12 L-462.66 -289.43 L-461.91 -288.74 L-461.3 -288.19 L-460.53 -287.5 L-459.74 -286.81 L-459.1 -286.26 L-458.29 -285.58 L-457.46 -284.9 L-456.79 -284.37 L-455.94 -283.7 L-455.07 -283.04 L-454.37 -282.52 L-453.47 -281.87 L-452.56 -281.22 L-451.82 -280.7 L-450.88 -280.07 L-449.92 -279.44 L-449.14 -278.94 L-448.15 -278.32 L-447.14 -277.71 L-446.32 -277.22 L-445.27 -276.61 L-444.2 -276.0 L-443.33 -275.52 L-442.23 -274.91 L-441.11 -274.31 L-440.2 -273.83 L-439.05 -273.22 L-437.89 -272.62 L-436.95 -272.14 L-435.77 -271.54 L-434.59 -270.93 L-433.63 -270.45 L-432.44 -269.85 L-431.48 -269.37 L-430.27 -268.77 L-429.06 -268.17 L-428.08 -267.68 L-426.86 -267.08 L-425.64 -266.47 L-424.65 -265.98 L-423.41 -265.37 L-422.16 -264.75 L-421.15 -264.25 L-419.88 -263.62 L-418.59 -262.98 L-417.55 -262.47 L-416.23 -261.82 L-414.9 -261.15 L-413.83 -260.62 L-412.46 -259.94 L-411.09 -259.25 L-409.97 -258.69 L-408.56 -257.98 L-407.13 -257.27 L-405.98 -256.69 L-404.51 -255.95 L-403.03 -255.2 L-401.83 -254.6 L-400.31 -253.83 L-399.08 -253.21 L-397.53 -252.43 L-395.95 -251.63 L-394.36 -250.83 L-393.07 -250.17 L-391.44 -249.35 L-389.79 -248.52 L-388.46 -247.85 L-386.77 -247.01 L-385.41 -246.33 L-383.7 -245.47 L-381.98 -244.62 L-380.26 -243.76 L-378.89 -243.08 L-377.19 -242.24 L-375.84 -241.57 L-374.15 -240.74 L-372.48 -239.93 L-371.14 -239.28 L-369.48 -238.47 L-367.84 -237.67 L-366.53 -237.03 L-364.9 -236.23 L-363.29 -235.43 L-362.01 -234.79 L-360.43 -234.01 L-358.85 -233.24 L-357.6 -232.63 L-356.04 -231.87 L-354.5 -231.1 L-353.27 -230.49 L-351.76 -229.72 L-350.56 -229.11 L-349.07 -228.36 L-347.59 -227.63 L-346.41 -227.07 L-344.95 -226.38 L-343.49 -225.72 L-342.32 -225.21 L-340.87 -224.59 L-339.42 -224.0 L-338.27 -223.55 L-336.81 -223.01 L-335.36 -222.5 L-334.19 -222.11 L-332.72 -221.65 L-331.54 -221.3 L-330.06 -220.89 L-328.57 -220.5 L-327.37 -220.2 L-325.87 -219.85 L-324.37 -219.53 L-323.17 -219.28 L-321.66 -218.98 L-320.15 -218.71 L-318.95 -218.5 L-317.44 -218.26 L-315.92 -218.04 L-314.71 -217.88 L-313.2 -217.7 L-311.69 -217.53 L-310.48 -217.41 L-308.97 -217.28 L-307.46 -217.18 L-306.25 -217.11 L-304.74 -217.04 L-303.23 -216.99 L-302.02 -216.97 L-300.52 -216.95 L-299.01 -216.96 L-297.81 -216.98 L-296.31 -217.02 L-295.11 -217.06 L-293.62 -217.13 L-292.12 -217.22 L-290.93 -217.3 L-289.44 -217.42 L-287.96 -217.56 L-286.78 -217.68 L-285.31 -217.85 L-283.84 -218.04 L-282.67 -218.2 L-281.21 -218.42 L-279.75 -218.65 L-278.59 -218.85 L-277.14 -219.12 L-275.7 -219.4 L-274.55 -219.64 L-273.13 -219.95 L-271.7 -220.28 L-270.57 -220.56 L-269.16 -220.92 L-267.76 -221.3 L-266.64 -221.61 L-265.25 -222.02 L-263.87 -222.45 L-262.77 -222.8 L-261.41 -223.25 L-260.05 -223.73 L-258.97 -224.12 L-257.62 -224.62 L-256.29 -225.13 L-255.23 -225.55 L-253.91 -226.09 L-252.6 -226.65 L-251.56 -227.11 L-250.27 -227.69 L-248.98 -228.29 L-247.96 -228.77 L-246.69 -229.39 L-245.44 -230.02 L-244.44 -230.53 L-243.2 -231.19 L-242.21 -231.72 L-240.99 -232.4 L-239.78 -233.09 L-238.82 -233.64 L-237.63 -234.35 L-236.45 -235.07 L-235.51 -235.66 L-234.35 -236.4 L-233.2 -237.15 L-232.28 -237.76 L-231.15 -238.52 L-230.03 -239.3 L-229.15 -239.94 L-228.05 -240.73 L-226.97 -241.55 L-226.11 -242.2 L-225.05 -243.03 L-224.0 -243.87 L-223.17 -244.55 L-222.14 -245.41 L-221.12 -246.27 L-220.31 -246.97 L-219.32 -247.85 L-218.34 -248.74 L-217.57 -249.46 L-216.62 -250.37 L-215.88 -251.1 L-214.95 -252.03 L-214.05 -252.96 L-213.33 -253.72 L-212.45 -254.67 L-211.58 -255.63 L-210.72 -256.6 L-210.04 -257.38 L-209.21 -258.35 L-208.55 -259.13 L-207.73 -260.12 L-206.93 -261.11 L-206.3 -261.9 L-205.53 -262.9 L-204.76 -263.9 L-204.16 -264.7 L-203.41 -265.71 L-202.68 -266.73 L-202.1 -267.54 L-201.39 -268.56 L-200.69 -269.58 L-200.14 -270.4 L-199.46 -271.44 L-198.8 -272.48 L-198.29 -273.32 L-197.65 -274.37 L-197.04 -275.44 L-196.56 -276.29 L-195.97 -277.37 L-195.4 -278.46 L-194.96 -279.33 L-194.42 -280.44 L-193.9 -281.55 L-193.49 -282.45 L-192.99 -283.59 L-192.5 -284.74 L-192.11 -285.66 L-191.64 -286.82 L-191.17 -287.99 L-190.81 -288.94 L-190.35 -290.12 L-189.9 -291.32 L-189.54 -292.28 L-189.09 -293.5 L-188.65 -294.74 L-188.29 -295.73 L-187.84 -296.99 L-187.47 -298.0 L-187.02 -299.28 L-186.57 -300.57 L-186.2 -301.62 L-185.74 -302.93 L-185.28 -304.26 L-184.91 -305.33 L-184.44 -306.69 L-183.97 -308.06 L-183.59 -309.16 L-183.1 -310.56 L-182.61 -311.97 L-182.21 -313.11 L-181.7 -314.55 L-181.19 -316.0 L-180.78 -317.17 L-180.25 -318.65 L-179.71 -320.15 L-179.27 -321.36 L-178.71 -322.89 L-178.14 -324.44 L-177.68 -325.69 L-177.09 -327.27 L-176.49 -328.87 L-175.99 -330.17 L-175.37 -331.8 L-174.73 -333.46 L-174.21 -334.8 L-173.55 -336.5 L-173.01 -337.86 L-172.32 -339.58 L-171.62 -341.32 L-170.89 -343.07 L-170.31 -344.48 L-169.56 -346.24 L-168.95 -347.65 L-168.18 -349.42 L-167.39 -351.17 L-166.76 -352.57 L-165.95 -354.3 L-165.12 -356.03 L-164.45 -357.4 L-163.6 -359.1 L-162.73 -360.79 L-162.02 -362.14 L-161.12 -363.8 L-160.2 -365.45 L-159.45 -366.76 L-158.49 -368.39 L-157.51 -370.0 L-156.71 -371.28 L-155.69 -372.86 L-154.65 -374.43 L-153.81 -375.67 L-152.74 -377.21 L-151.65 -378.74 L-150.77 -379.94 L-149.66 -381.44 L-148.54 -382.93 L-147.64 -384.11 L-146.5 -385.57 L-145.58 -386.73 L-144.43 -388.17 L-143.27 -389.59 L-142.33 -390.72 L-141.15 -392.13 L-139.95 -393.51 L-138.99 -394.61 L-137.77 -395.96 L-136.54 -397.29 L-135.55 -398.34 L-134.29 -399.64 L-133.03 -400.92 L-132.0 -401.93 L-130.71 -403.17 L-129.41 -404.39 L-128.36 -405.36 L-127.03 -406.54 L-125.7 -407.71 L-124.63 -408.63 L-123.28 -409.76 L-122.2 -410.65 L-120.84 -411.75 L-119.47 -412.83 L-118.1 -413.89 L-117.01 -414.73 L-115.63 -415.77 L-114.53 -416.59 L-113.15 -417.59 L-111.77 -418.59 L-110.66 -419.37 L-109.27 -420.33 L-107.87 -421.27 L-106.75 -422.01 L-105.35 -422.92 L-103.93 -423.81 L-102.8 -424.5 L-101.37 -425.34 L-99.93 -426.16 L-98.78 -426.8 L-97.33 -427.58 L-95.87 -428.34 L-94.7 -428.93 L-93.24 -429.65 L-91.77 -430.34 L-90.59 -430.88 L-89.12 -431.54 L-87.64 -432.18 L-86.47 -432.67 L-84.99 -433.28 L-83.51 -433.87 L-82.33 -434.32 L-80.84 -434.87 L-79.36 -435.4 L-78.18 -435.81 L-76.7 -436.3 L-75.51 -436.69 L-74.04 -437.16 L-72.57 -437.61 L-71.4 -437.96 L-69.93 -438.39 L-68.47 -438.81 L-67.3 -439.12 L-65.83 -439.5 L-64.37 -439.86 L-63.21 -440.14 L-61.75 -440.46 L-60.3 -440.77 L-59.14 -441.0 L-57.69 -441.27 L-56.25 -441.52 L-55.1 -441.7 L-53.67 -441.92 L-52.24 -442.12 L-51.1 -442.27 L-49.69 -442.44 L-48.27 -442.6 L-47.15 -442.71 L-45.75 -442.83 L-44.36 -442.93 L-43.25 -443.0 L-41.87 -443.08 L-40.78 -443.13 L-39.41 -443.18 L-38.06 -443.22 L-36.99 -443.24 L-35.65 -443.26 L-34.32 -443.27 L-33.27 -443.26 L-31.95 -443.25 L-30.65 -443.22 L-29.62 -443.18 L-28.33 -443.13 L-27.06 -443.07 L-26.05 -443.0 L-24.79 -442.91 L-23.54 -442.81 L-22.56 -442.72 L-21.33 -442.6 L-20.35 -442.5 L-19.14 -442.36 L-17.95 -442.21 L-17.0 -442.09 L-15.82 -441.93 L-14.65 -441.75 L-13.72 -441.61 L-12.57 -441.42 L-11.44 -441.22 L-10.54 -441.06 L-9.43 -440.85 L-8.33 -440.63 L-7.46 -440.44 L-6.38 -440.21 L-5.32 -439.97 L-4.48 -439.78 L-3.44 -439.53 L-2.42 -439.28 L-1.6 -439.06 L-0.6 -438.79 L0.39 -438.49 L1.18 -438.25 L2.15 -437.93 L3.1 -437.58 L3.86 -437.29 L4.79 -436.91 L5.71 -436.51 L6.43 -436.17 L7.32 -435.72 L8.2 -435.26 L8.89 -434.87 L9.74 -434.38 L10.57 -433.86 L11.22 -433.44 L12.02 -432.9 L12.8 -432.34 L13.41 -431.88 L14.16 -431.29 L14.89 -430.69 L15.46 -430.2 L16.15 -429.59 L16.83 -428.96 L17.36 -428.45 L18.01 -427.81 L18.51 -427.3 L19.13 -426.65 L19.73 -425.99 L20.19 -425.46 L20.76 -424.79 L21.31 -424.11 L21.74 -423.57 L22.26 -422.89 L22.76 -422.2 L23.15 -421.64 L23.63 -420.94 L24.08 -420.24 L24.43 -419.68 L24.86 -418.97 L25.26 -418.25 L25.58 -417.68 L25.95 -416.95 L26.24 -416.37 L26.58 -415.63 L26.9 -414.89 L27.15 -414.29 L27.44 -413.53 L27.71 -412.78 L27.91 -412.17 L28.15 -411.41 L28.38 -410.65 L28.54 -410.04 L28.73 -409.27 L28.9 -408.5 L29.03 -407.88 L29.17 -407.11 L29.3 -406.33 L29.39 -405.71 L29.48 -404.92 L29.56 -404.14 L29.62 -403.5 L29.67 -402.71 L29.71 -401.91 L29.73 -401.27 L29.75 -400.45 L29.75 -399.79 L29.74 -398.95 L29.72 -398.09 L29.69 -397.4 L29.66 -396.52 L29.61 -395.61 L29.58 -394.88 L29.53 -393.94 L29.48 -392.97 L29.44 -392.19 L29.39 -391.18 L29.34 -390.15 L29.29 -389.31 L29.24 -388.24 L29.19 -387.15 L29.14 -386.26 L29.08 -385.12 L29.03 -383.97 L28.98 -383.03 L28.93 -381.84 L28.87 -380.63 L28.82 -379.65 L28.77 -378.4 L28.71 -377.14 L28.66 -376.12 L28.61 -374.82 L28.55 -373.51 L28.5 -372.44 L28.44 -371.09 L28.38 -369.73 L28.33 -368.62 L28.27 -367.22 L28.21 -365.8 L28.16 -364.66 L28.09 -363.21 L28.03 -361.74 L27.97 -360.55 L27.91 -359.05 L27.84 -357.53 L27.79 -356.3 L27.72 -354.75 L27.65 -353.19 L27.6 -351.92 L27.53 -350.32 L27.46 -348.7 L27.4 -347.4 L27.33 -345.75 L27.26 -344.08 L27.2 -342.74 L27.13 -341.04 L27.05 -339.32 L26.99 -337.94 L26.92 -336.19 L26.84 -334.43 L26.78 -333.0 L26.71 -331.2 L26.63 -329.39 L26.57 -327.92 L26.49 -326.07 L26.41 -324.2 L26.35 -322.69 L26.27 -320.78 L26.18 -318.85 L26.12 -317.29 L26.03 -315.33 L25.95 -313.35 L25.88 -311.75 L25.79 -309.73 L25.72 -308.1 L25.63 -306.05 L25.54 -303.97 L25.46 -302.31 L25.37 -300.2 L25.27 -298.08 L25.2 -296.37 L25.1 -294.22 L25.0 -292.04 L24.92 -290.29 L24.82 -288.08 L24.71 -285.86 L24.63 -284.06 L24.53 -281.8 L24.42 -279.52 L24.34 -277.68 L24.23 -275.36 L24.13 -273.03 L24.04 -271.15 L23.94 -268.78 L23.83 -266.39 L23.75 -264.46 L23.65 -262.04 L23.54 -259.59 L23.46 -257.63 L23.36 -255.15 L23.25 -252.65 L23.17 -250.65 L23.06 -248.13 L22.95 -245.59 L22.87 -243.55 L22.76 -240.99 L22.67 -238.93 L22.56 -236.34 L22.45 -233.74 L22.36 -231.65 L22.24 -229.02 L22.13 -226.37 L22.04 -224.25 L21.92 -221.58 L21.8 -218.89 L21.71 -216.73 L21.59 -214.01 L21.47 -211.27 L21.37 -209.07 L21.25 -206.31 L21.13 -203.53 L21.03 -201.3 L20.91 -198.5 L20.78 -195.7 L20.69 -193.45 L20.56 -190.64 L20.44 -187.82 L20.34 -185.56 L20.21 -182.73 L20.09 -179.89 L19.99 -177.62 L19.87 -174.77 L19.75 -171.92 L19.65 -169.63 L19.53 -166.77 L19.41 -163.9 L19.31 -161.6 L19.19 -158.72 L19.07 -155.83 L18.98 -153.51 L18.86 -150.61 L18.74 -147.7 L18.64 -145.37 L18.52 -142.45 L18.39 -139.53 L18.29 -137.19 L18.17 -134.25 L18.04 -131.31 L17.94 -128.96 L17.81 -126.0 L17.68 -123.05 L17.58 -120.68 L17.45 -117.72 L17.32 -114.77 L17.21 -112.41 L17.08 -109.46 L16.95 -106.52 L16.85 -104.17 L16.72 -101.24 L16.6 -98.32 L16.5 -95.98 L16.37 -93.07 L16.24 -90.16 L16.14 -87.83 L16.01 -84.93 L15.88 -82.03 L15.77 -79.72 L15.64 -76.84 L15.54 -74.53 L15.41 -71.66 L15.29 -68.79 L15.19 -66.5 L15.06 -63.64 L14.94 -60.78 L14.84 -58.5 L14.72 -55.66 L14.61 -52.82 L14.51 -50.55 L14.39 -47.72 L14.28 -44.9 L14.18 -42.64 L14.07 -39.83 L13.95 -37.02 L13.86 -34.78 L13.74 -31.98 L13.63 -29.18 L13.54 -26.95 L13.42 -24.17 L13.3 -21.39 L13.21 -19.17 L13.1 -16.41 L12.98 -13.65 L12.89 -11.44 L12.77 -8.69 L12.65 -5.94 L12.55 -3.75 L12.42 -1.01 L12.3 1.73 L12.19 3.92 L12.06 6.65 L11.93 9.37 L11.82 11.54 L11.69 14.25 L11.58 16.41 L11.45 19.11 L11.32 21.8 L11.22 23.95 L11.09 26.63 L10.96 29.31 L10.87 31.44 L10.75 34.1 L10.63 36.76 L10.53 38.88 L10.42 41.52 L10.31 44.16 L10.22 46.27 L10.12 48.89 L10.01 51.51 L9.92 53.6 L9.82 56.21 L9.71 58.81 L9.63 60.88 L9.53 63.47 L9.43 66.04 L9.35 68.1 L9.25 70.67 L9.18 72.71 L9.09 75.26 L9.0 77.8 L8.93 79.83 L8.84 82.36 L8.76 84.88 L8.7 86.9 L8.61 89.4 L8.53 91.9 L8.47 93.9 L8.38 96.38 L8.3 98.86 L8.24 100.83 L8.16 103.3 L8.08 105.75 L8.01 107.71 L7.93 110.15 L7.85 112.58 L7.78 114.52 L7.69 116.94 L7.6 119.34 L7.53 121.26 L7.43 123.66 L7.33 126.04 L7.24 127.94 L7.12 130.32 L6.99 132.68 L6.88 134.57 L6.73 136.91 L6.61 138.79 L6.44 141.12 L6.26 143.44 L6.08 145.75 L5.93 147.6 L5.74 149.9 L5.53 152.18 L5.36 154.01 L5.15 156.28 L4.92 158.54 L4.73 160.35 L4.5 162.61 L4.3 164.4 L4.06 166.64 L3.8 168.87 L3.59 170.64 L3.33 172.85 L3.06 175.04 L2.78 177.23 L2.56 178.97 L2.28 181.14 L2.05 182.86 L1.76 185.01 L1.47 187.15 L1.23 188.85 L0.94 190.96 L0.64 193.07 L0.4 194.74 L0.1 196.83 L-0.2 198.9 L-0.44 200.55 L-0.74 202.6 L-1.04 204.64 L-1.28 206.27 L-1.58 208.29 L-1.89 210.3 L-2.13 211.9 L-2.43 213.89 L-2.73 215.87 L-2.97 217.45 L-3.26 219.4 L-3.56 221.35 L-3.8 222.91 L-4.09 224.84 L-4.38 226.75 L-4.62 228.28 L-4.91 230.18 L-5.2 232.08 L-5.44 233.59 L-5.73 235.46 L-5.96 236.95 L-6.25 238.81 L-6.54 240.65 L-6.83 242.48 L-7.05 243.94 L-7.33 245.75 L-7.55 247.19 L-7.83 248.97 L-8.11 250.75 L-8.33 252.16 L-8.6 253.9 L-8.87 255.64 L-9.13 257.36 L-9.35 258.73 L-9.61 260.42 L-9.82 261.77 L-10.09 263.44 L-10.36 265.1 L-10.58 266.41 L-10.86 268.04 L-11.14 269.65 L-11.36 270.93 L-11.64 272.52 L-11.94 274.09 L-12.18 275.34 L-12.5 276.9 L-12.83 278.45 L-13.12 279.68 L-13.49 281.22 L-13.89 282.75 L-14.24 283.98 L-14.69 285.5 L-15.18 287.02 L-15.59 288.22 L-16.13 289.72 L-16.7 291.22 L-17.19 292.4 L-17.82 293.88 L-18.47 295.34 L-19.01 296.51 L-19.7 297.95 L-20.4 299.39 L-20.96 300.53 L-21.66 301.96 L-22.37 303.39 L-22.93 304.53 L-23.63 305.96 L-24.18 307.1 L-24.88 308.52 L-25.57 309.95 L-26.12 311.09 L-26.81 312.51 L-27.5 313.94 L-28.04 315.08 L-28.73 316.51 L-29.4 317.93 L-29.94 319.07 L-30.62 320.49 L-31.28 321.92 L-31.82 323.06 L-32.48 324.48 L-33.15 325.9 L-33.68 327.04 L-34.34 328.46 L-35.0 329.88 L-35.53 331.01 L-36.19 332.43 L-36.72 333.56 L-37.38 334.97 L-38.03 336.38 L-38.69 337.78 L-39.21 338.91 L-39.87 340.32 L-40.4 341.45 L-41.06 342.87 L-41.72 344.28 L-42.25 345.42 L-42.92 346.84 L-43.58 348.26 L-44.12 349.41 L-44.78 350.83 L-45.45 352.26 L-45.99 353.41 L-46.66 354.83 L-47.32 356.25 L-47.84 357.37 L-48.49 358.76 L-49.13 360.14 L-49.64 361.24 L-50.27 362.6 L-50.9 363.94 L-51.39 365.01 L-52.0 366.32 L-52.61 367.62 L-53.09 368.64 L-53.68 369.91 L-54.27 371.16 L-54.73 372.15 L-55.3 373.36 L-55.87 374.56 L-56.31 375.51 L-56.86 376.68 L-57.4 377.83 L-57.83 378.74 L-58.35 379.86 L-58.87 380.96 L-59.28 381.83 L-59.78 382.9 L-60.28 383.95 L-60.67 384.78 L-61.15 385.81 L-61.62 386.82 L-61.99 387.61 L-62.44 388.59 L-62.89 389.54 L-63.24 390.3 L-63.67 391.22 L-64.01 391.95 L-64.42 392.84 L-64.83 393.72 L-65.15 394.41 L-65.54 395.25 L-65.93 396.08 L-66.23 396.73 L-66.6 397.52 L-66.96 398.3 L-67.24 398.91 L-67.58 399.65 L-67.91 400.37 L-68.17 400.94 L-68.49 401.64 L-68.8 402.31 L-69.04 402.84 L-69.33 403.49 L-69.61 404.12 L-69.83 404.61 L-70.09 405.21 L-70.35 405.79 L-70.55 406.24 L-70.79 406.78 L-71.02 407.31 L-71.19 407.71 L-71.4 408.21 L-71.55 408.58 L-71.72 409.04 L-71.88 409.49 L-72.0 409.83 L-72.13 410.24 L-72.24 410.64 L-72.32 410.95 L-72.41 411.32 L-72.48 411.67 L-72.53 411.95 L-72.59 412.28 L-72.63 412.59 L-72.66 412.84 L-72.69 413.13 L-72.71 413.42 L-72.72 413.64 L-72.73 413.91 L-72.73 414.18 L-72.73 414.39 L-72.71 414.64 L-72.69 414.9 L-72.67 415.1 L-72.63 415.34 L-72.58 415.58 L-72.54 415.77 L-72.48 416.0 L-72.42 416.23 L-72.36 416.41 L-72.29 416.62 L-72.21 416.84 L-72.14 417.0 L-72.05 417.21 L-71.95 417.4 L-71.87 417.56 L-71.77 417.75 L-71.66 417.93 L-71.58 418.07 L-71.47 418.24 L-71.36 418.41 L-71.26 418.54 L-71.15 418.69 L-71.05 418.81 L-70.93 418.96 L-70.81 419.1 L-70.72 419.21 L-70.6 419.34 L-70.47 419.47 L-70.37 419.57 L-70.25 419.69 L-70.12 419.81 L-70.02 419.9 L-69.88 420.0 L-69.75 420.11 L-69.64 420.19 L-69.51 420.28 L-69.4 420.36 L-69.26 420.45 L-69.12 420.53 L-69.01 420.6 L-68.87 420.68 L-68.72 420.75 L-68.58 420.82 L-68.47 420.88 L-68.32 420.95 L-68.21 421.0 L-68.06 421.06 L-67.92 421.12 L-67.8 421.16 L-67.65 421.22 L-67.49 421.27 L-67.37 421.31 L-67.2 421.36 L-67.04 421.41 L-66.9 421.45 L-66.73 421.5 L-66.56 421.55 L-66.41 421.58 L-66.23 421.63 L-66.04 421.67 L-65.85 421.72 L-65.69 421.75 L-65.48 421.8 L-65.31 421.83 L-65.09 421.88 L-64.87 421.92 L-64.68 421.96 L-64.45 422.0 L-64.2 422.05 L-64.0 422.09 L-63.73 422.14 L-63.47 422.19 L-63.25 422.24 L-62.97 422.29 L-62.69 422.34 L-62.46 422.39 L-62.17 422.44 L-61.88 422.5 L-61.64 422.54 L-61.34 422.6 L-61.04 422.65 L-60.79 422.7 L-60.47 422.76 L-60.15 422.82 L-59.89 422.87 L-59.55 422.93 L-59.19 423.0 L-58.9 423.05 L-58.53 423.12 L-58.21 423.18 L-57.81 423.26 L-57.39 423.34 L-56.95 423.42 L-56.59 423.49 L-56.12 423.58 L-55.73 423.65 L-55.24 423.74 L-54.72 423.84 L-54.3 423.92 L-53.76 424.02 L-53.2 424.12 L-52.74 424.21 L-52.15 424.32 L-51.55 424.43 L-51.06 424.52 L-50.44 424.63 L-49.8 424.75 L-49.27 424.85 L-48.61 424.97 L-47.92 425.09 L-47.36 425.2 L-46.65 425.33 L-46.06 425.44 L-45.31 425.57 L-44.54 425.71 L-43.91 425.83 L-43.11 425.97 L-42.28 426.12 L-41.61 426.24 L-40.75 426.39 L-39.87 426.54 L-39.15 426.67 L-38.22 426.83 L-37.28 426.99 L-36.5 427.12 L-35.51 427.28 L-34.5 427.45 L-33.67 427.58 L-32.62 427.73 L-31.56 427.89 L-30.7 428.0 L-29.61 428.14 L-28.53 428.26 L-27.65 428.36 L-26.56 428.46 L-25.46 428.55 L-24.58 428.62 L-23.47 428.69 L-22.36 428.75 L-21.47 428.79 L-20.36 428.83 L-19.24 428.86 L-18.34 428.87 L-17.22 428.88 L-16.32 428.87 L-15.19 428.85 L-14.06 428.81 L-13.16 428.77 L-12.02 428.7 L-10.88 428.62 L-9.97 428.54 L-8.83 428.43 L-7.69 428.3 L-6.78 428.18 L-5.64 428.02 L-4.49 427.84 L-3.58 427.68 L-2.43 427.47 L-1.29 427.24 L-0.37 427.04 L0.78 426.78 L1.93 426.51 L2.85 426.27 L4.0 425.97 L5.16 425.65 L6.08 425.39 L7.24 425.06 L8.41 424.71 L9.35 424.43 L10.54 424.07 L11.73 423.7 L12.7 423.4 L13.91 423.02 L15.14 422.64 L16.13 422.33 L17.39 421.93 L18.66 421.53 L19.69 421.21 L20.99 420.8 L22.3 420.38 L23.37 420.04 L24.72 419.61 L26.09 419.17 L27.2 418.81 L28.6 418.36 L29.73 417.99 L31.16 417.53 L32.59 417.07 L33.75 416.7 L35.19 416.23 L36.64 415.76 L37.81 415.38 L39.27 414.91 L40.73 414.44 L41.89 414.06 L43.34 413.6 L44.77 413.14 L45.9 412.78 L47.31 412.33 L48.69 411.88 L49.79 411.53 L51.15 411.09 L52.49 410.66 L53.55 410.32 L54.86 409.89 L56.15 409.47 L57.17 409.14 L58.43 408.73 L59.67 408.32 L60.65 408.0 L61.86 407.6 L63.05 407.21 L64.0 406.89 L65.16 406.51 L66.3 406.13 L67.2 405.83 L68.32 405.46 L69.41 405.09 L70.27 404.8 L71.33 404.44 L72.38 404.09 L73.2 403.81 L74.22 403.46 L75.01 403.19 L75.99 402.86 L76.96 402.53 L77.9 402.21 L78.64 401.95 L79.55 401.64 L80.26 401.39 L81.13 401.08 L81.99 400.78 L82.66 400.54 L83.48 400.25 L84.3 399.97 L84.94 399.75 L85.74 399.49 L86.54 399.26 L87.18 399.09 L87.99 398.89 L88.79 398.73 L89.43 398.61 L90.24 398.5 L91.05 398.42 L91.7 398.38 L92.51 398.35 L93.32 398.36 L93.97 398.38 L94.77 398.44 L95.57 398.53 L96.2 398.61 L96.98 398.75 L97.76 398.9 L98.37 399.03 L99.13 399.22 L99.88 399.42 L100.47 399.6 L101.2 399.84 L101.93 400.09 L102.5 400.3 L103.21 400.59 L103.91 400.9 L104.47 401.17 L105.16 401.51 L105.85 401.88 L106.39 402.19 L107.06 402.6 L107.71 403.02 L108.23 403.37 L108.87 403.82 L109.38 404.19 L110.0 404.67 L110.62 405.15 L111.11 405.55 L111.71 406.06 L112.32 406.57 L112.8 406.99 L113.4 407.52 L113.99 408.06 L114.47 408.5 L115.07 409.06 L115.68 409.62 L116.18 410.09 L116.81 410.68 L117.45 411.28 L117.97 411.77 L118.63 412.4 L119.3 413.04 L119.85 413.56 L120.55 414.23 L121.26 414.91 L121.83 415.47 L122.57 416.18 L123.32 416.9 L123.94 417.5 L124.72 418.26 L125.52 419.03 L126.18 419.67 L127.01 420.48 L127.69 421.14 L128.56 421.98 L129.45 422.84 L130.17 423.54 L131.08 424.43 L132.01 425.34 L132.76 426.07 L133.69 426.99 L134.62 427.89 L135.35 428.61 L136.26 429.5 L137.15 430.37 L137.85 431.06 L138.71 431.92 L139.56 432.75 L140.23 433.42 L141.06 434.23 L141.88 435.03 L142.52 435.66 L143.31 436.44 L144.09 437.2 L144.7 437.8 L145.45 438.54 L146.19 439.26 L146.78 439.83 L147.49 440.53 L148.19 441.22 L148.74 441.76 L149.41 442.42 L150.07 443.07 L150.59 443.58 L151.23 444.2 L151.85 444.82 L152.33 445.29 L152.93 445.88 L153.51 446.45 L153.97 446.9 L154.53 447.45 L155.07 447.98 L155.49 448.4 L156.01 448.91 L156.41 449.31 L156.91 449.79 L157.39 450.27 L157.85 450.72 L158.22 451.08 L158.66 451.51 L159.09 451.93 L159.43 452.25 L159.83 452.65 L160.15 452.95 L160.54 453.33 L160.91 453.68 L161.19 453.96 L161.54 454.29 L161.86 454.61 L162.12 454.86 L162.42 455.15 L162.71 455.43 L162.93 455.63 L163.19 455.87 L163.44 456.09 L163.62 456.24 L163.84 456.43 L164.04 456.59 L164.2 456.71 L164.39 456.85 L164.54 456.96 L164.73 457.08 L164.92 457.19 L165.07 457.28 L165.26 457.38 L165.46 457.47 L165.62 457.54 L165.83 457.63 L166.04 457.7 L166.21 457.76 L166.43 457.82 L166.65 457.87 L166.84 457.91 L167.08 457.95 L167.32 457.99 L167.52 458.0 L167.77 458.02 L168.02 458.02 L168.23 458.02 L168.49 458.0 L168.75 457.97 L168.97 457.94 L169.24 457.89 L169.52 457.83 L169.74 457.77 L170.01 457.67 L170.26 457.55 L170.45 457.44 L170.66 457.31 L170.86 457.18 L171.01 457.07 L171.18 456.95 L171.34 456.82 L171.45 456.73 L171.58 456.62 L171.69 456.52 L171.77 456.45 L171.86 456.37 L171.92 456.32 L171.98 456.26 L172.03 456.2 L172.07 456.16 L172.12 456.11 L172.17 456.06 L172.21 456.01 L172.27 455.96 L172.33 455.89 L172.38 455.84 L172.44 455.76 L172.5 455.68 L172.56 455.61 L172.62 455.53 L172.68 455.44 L172.73 455.37 L172.8 455.28 L172.86 455.19 L172.9 455.12 L172.96 455.03 L173.0 454.96 L173.05 454.86 L173.11 454.77 L173.15 454.7 L173.19 454.6 L173.24 454.5 L173.28 454.42 L173.32 454.32 L173.36 454.22 L173.39 454.14 L173.43 454.03 L173.46 453.92 L173.49 453.83 L173.52 453.72 L173.55 453.61 L173.57 453.52 L173.6 453.41 L173.63 453.29 L173.65 453.2 L173.67 453.08 L173.69 452.96 L173.71 452.86 L173.73 452.74 L173.76 452.61 L173.77 452.51 L173.8 452.38 L173.82 452.24 L173.83 452.13 L173.86 451.98 L173.88 451.82 L173.9 451.69 L173.92 451.51 L173.94 451.36 L173.96 451.17 L173.98 450.97 L174.0 450.75 L174.01 450.57 L174.03 450.34 L174.05 450.14 L174.07 449.88 L174.09 449.61 L174.1 449.39 L174.13 449.1 L174.15 448.79 L174.17 448.54 L174.19 448.21 L174.21 447.88 L174.23 447.6 L174.26 447.24 L174.28 446.87 L174.3 446.56 L174.33 446.16 L174.36 445.74 L174.38 445.39 L174.41 444.94 L174.43 444.57 L174.46 444.09 L174.49 443.59 L174.51 443.17 L174.54 442.64 L174.57 442.08 L174.6 441.62 L174.63 441.02 L174.67 440.41 L174.69 439.9 L174.73 439.24 L174.77 438.56 L174.8 437.99 L174.84 437.27 L174.88 436.51 L174.92 435.88 L174.96 435.08 L175.01 434.24 L175.05 433.55 L175.1 432.66 L175.15 431.74 L175.19 430.99 L175.24 430.02 L175.3 429.02 L175.34 428.2 L175.4 427.15 L175.45 426.28 L175.51 425.18 L175.58 424.06 L175.63 423.14 L175.7 421.97 L175.77 420.78 L175.82 419.81 L175.9 418.59 L175.97 417.35 L176.03 416.35 L176.11 415.09 L176.18 413.8 L176.24 412.77 L176.32 411.46 L176.4 410.13 L176.47 409.06 L176.55 407.7 L176.63 406.33 L176.69 405.23 L176.78 403.83 L176.86 402.41 L176.93 401.26 L177.01 399.81 L177.1 398.34 L177.17 397.15 L177.26 395.64 L177.33 394.42 L177.42 392.88 L177.51 391.31 L177.59 390.05 L177.68 388.44 L177.78 386.82 L177.86 385.5 L177.96 383.84 L178.07 382.16 L178.15 380.8 L178.25 379.07 L178.36 377.33 L178.45 375.92 L178.56 374.14 L178.67 372.33 L178.76 370.87 L178.87 369.03 L178.99 367.16 L179.08 365.65 L179.2 363.74 L179.32 361.8 L179.41 360.24 L179.53 358.26 L179.65 356.27 L179.74 354.65 L179.86 352.61 L179.97 350.55 L180.07 348.88 L180.18 346.78 L180.3 344.66 L180.39 342.94 L180.5 340.78 L180.61 338.6 L180.7 336.83 L180.81 334.61 L180.92 332.37 L181.0 330.56 L181.11 328.29 L181.21 325.99 L181.29 324.14 L181.39 321.81 L181.47 319.93 L181.56 317.56 L181.66 315.18 L181.76 312.77 L181.84 310.83 L181.93 308.39 L182.03 305.93 L182.12 303.95 L182.22 301.46 L182.3 299.45 L182.41 296.93 L182.52 294.38 L182.6 292.33 L182.72 289.75 L182.83 287.15 L182.92 285.05 L183.04 282.41 L183.16 279.74 L183.26 277.59 L183.39 274.89 L183.51 272.16 L183.62 269.96 L183.75 267.18 L183.88 264.38 L183.99 262.13 L184.13 259.28 L184.26 256.41 L184.37 254.1 L184.51 251.19 L184.65 248.26 L184.76 245.89 L184.9 242.92 L185.04 239.92 L185.15 237.51 L185.29 234.47 L185.43 231.42 L185.54 228.97 L185.68 225.89 L185.82 222.81 L185.93 220.34 L186.07 217.24 L186.21 214.14 L186.31 211.65 L186.45 208.54 L186.58 205.42 L186.69 202.92 L186.82 199.78 L186.95 196.64 L187.06 194.13 L187.19 190.97 L187.32 187.81 L187.42 185.28 L187.55 182.1 L187.68 178.92 L187.79 176.37 L187.92 173.18 L188.05 169.98 L188.15 167.42 L188.29 164.2 L188.42 160.98 L188.53 158.4 L188.66 155.17 L188.77 152.57 L188.9 149.33 L189.04 146.07 L189.14 143.46 L189.28 140.2 L189.42 136.92 L189.53 134.3 L189.66 131.01 L189.8 127.71 L189.91 125.07 L190.05 121.76 L190.2 118.45 L190.31 115.79 L190.45 112.46 L190.6 109.12 L190.71 106.45 L190.85 103.1 L191.0 99.74 L191.11 97.05 L191.26 93.69 L191.4 90.32 L191.52 87.62 L191.66 84.26 L191.8 80.89 L191.91 78.21 L192.06 74.85 L192.2 71.49 L192.31 68.81 L192.45 65.46 L192.57 62.78 L192.71 59.43 L192.85 56.09 L192.97 53.41 L193.11 50.07 L193.25 46.74 L193.37 44.07 L193.51 40.74 L193.66 37.41 L193.78 34.74 L193.92 31.42 L194.07 28.1 L194.19 25.44 L194.33 22.12 L194.48 18.81 L194.59 16.16 L194.74 12.85 L194.88 9.54 L195.0 6.9 L195.15 3.6 L195.29 0.3 L195.41 -2.34 L195.56 -5.64 L195.71 -8.93 L195.83 -11.56 L195.98 -14.85 L196.13 -18.13 L196.25 -20.76 L196.4 -24.04 L196.52 -26.66 L196.67 -29.93 L196.82 -33.2 L196.94 -35.82 L197.08 -39.09 L197.23 -42.35 L197.34 -44.96 L197.49 -48.22 L197.63 -51.47 L197.74 -54.08 L197.88 -57.33 L198.02 -60.58 L198.13 -63.17 L198.26 -66.42 L198.4 -69.66 L198.51 -72.25 L198.65 -75.49 L198.76 -78.07 L198.89 -81.3 L199.03 -84.53 L199.17 -87.76 L199.28 -90.34 L199.41 -93.56 L199.52 -96.13 L199.66 -99.35 L199.79 -102.56 L199.9 -105.13 L200.04 -108.33 L200.17 -111.54 L200.28 -114.1 L200.41 -117.3 L200.55 -120.5 L200.66 -123.05 L200.79 -126.24 L200.93 -129.43 L201.04 -131.98 L201.17 -135.16 L201.28 -137.71 L201.42 -140.89 L201.56 -144.06 L201.69 -147.23 L201.8 -149.77 L201.94 -152.94 L202.06 -155.47 L202.2 -158.64 L202.34 -161.8 L202.45 -164.33 L202.59 -167.49 L202.73 -170.65 L202.85 -173.17 L202.99 -176.32 L203.1 -178.83 L203.24 -181.97 L203.38 -185.11 L203.49 -187.62 L203.62 -190.75 L203.76 -193.88 L203.87 -196.38 L204.0 -199.5 L204.13 -202.62 L204.24 -205.11 L204.37 -208.22 L204.5 -211.33 L204.61 -213.81 L204.74 -216.91 L204.87 -220.01 L204.98 -222.48 L205.11 -225.57 L205.25 -228.66 L205.35 -231.12 L205.49 -234.2 L205.62 -237.27 L205.73 -239.73 L205.86 -242.79 L205.99 -245.85 L206.1 -248.3 L206.23 -251.35 L206.36 -254.4 L206.46 -256.84 L206.59 -259.88L221.41 -266.63 L221.28 -263.62 L221.16 -260.59 L221.05 -258.17 L220.92 -255.14 L220.79 -252.11 L220.69 -249.68 L220.55 -246.64 L220.42 -243.59 L220.31 -241.15 L220.17 -238.1 L220.06 -235.65 L219.93 -232.59 L219.79 -229.52 L219.66 -226.45 L219.55 -223.99 L219.41 -220.91 L219.3 -218.45 L219.17 -215.36 L219.03 -212.27 L218.92 -209.8 L218.78 -206.7 L218.64 -203.6 L218.52 -201.12 L218.38 -198.01 L218.24 -194.9 L218.12 -192.41 L217.98 -189.29 L217.84 -186.17 L217.72 -183.67 L217.58 -180.54 L217.43 -177.4 L217.32 -174.9 L217.18 -171.76 L217.04 -168.61 L216.92 -166.1 L216.78 -162.95 L216.64 -159.8 L216.53 -157.27 L216.39 -154.11 L216.25 -150.95 L216.14 -148.42 L216.0 -145.25 L215.86 -142.08 L215.75 -139.54 L215.62 -136.36 L215.51 -133.82 L215.38 -130.63 L215.24 -127.45 L215.14 -124.89 L215.0 -121.7 L214.87 -118.51 L214.76 -115.95 L214.62 -112.74 L214.47 -109.54 L214.36 -106.97 L214.22 -103.76 L214.07 -100.55 L213.95 -97.98 L213.81 -94.76 L213.66 -91.54 L213.54 -88.97 L213.39 -85.74 L213.25 -82.51 L213.13 -79.93 L212.99 -76.7 L212.84 -73.46 L212.72 -70.87 L212.58 -67.63 L212.46 -65.04 L212.32 -61.8 L212.17 -58.56 L212.06 -55.96 L211.91 -52.72 L211.77 -49.47 L211.65 -46.87 L211.51 -43.61 L211.37 -40.35 L211.25 -37.75 L211.11 -34.48 L210.97 -31.22 L210.86 -28.6 L210.72 -25.33 L210.58 -22.06 L210.47 -19.44 L210.33 -16.16 L210.22 -13.53 L210.08 -10.25 L209.94 -6.97 L209.83 -4.33 L209.68 -1.04 L209.54 2.25 L209.43 4.89 L209.29 8.18 L209.15 11.49 L209.03 14.13 L208.89 17.43 L208.75 20.74 L208.63 23.39 L208.49 26.71 L208.35 30.02 L208.23 32.68 L208.09 36.0 L207.97 38.66 L207.82 41.98 L207.68 45.31 L207.56 47.97 L207.42 51.31 L207.27 54.64 L207.15 57.31 L207.01 60.65 L206.87 63.99 L206.75 66.67 L206.61 70.02 L206.47 73.37 L206.36 76.05 L206.22 79.4 L206.08 82.76 L205.97 85.43 L205.83 88.77 L205.69 92.11 L205.58 94.77 L205.44 98.09 L205.3 101.4 L205.19 104.04 L205.05 107.34 L204.91 110.63 L204.8 113.26 L204.66 116.54 L204.52 119.81 L204.41 122.42 L204.27 125.67 L204.14 128.92 L204.03 131.52 L203.89 134.75 L203.76 137.98 L203.65 140.56 L203.52 143.77 L203.38 146.98 L203.28 149.55 L203.14 152.74 L203.04 155.29 L202.91 158.48 L202.77 161.65 L202.67 164.19 L202.53 167.35 L202.4 170.51 L202.29 173.03 L202.16 176.17 L202.02 179.31 L201.91 181.81 L201.78 184.94 L201.64 188.06 L201.54 190.54 L201.4 193.65 L201.27 196.75 L201.16 199.22 L201.03 202.31 L200.89 205.39 L200.79 207.84 L200.66 210.91 L200.53 213.97 L200.43 216.42 L200.3 219.46 L200.2 221.9 L200.07 224.94 L199.94 227.97 L199.84 230.39 L199.72 233.4 L199.6 236.41 L199.5 238.82 L199.38 241.82 L199.26 244.81 L199.16 247.19 L199.04 250.16 L198.93 253.1 L198.83 255.43 L198.72 258.33 L198.61 261.2 L198.52 263.48 L198.41 266.31 L198.3 269.1 L198.21 271.32 L198.1 274.08 L197.99 276.8 L197.91 278.97 L197.8 281.65 L197.69 284.31 L197.61 286.42 L197.5 289.03 L197.4 291.63 L197.31 293.69 L197.21 296.24 L197.12 298.26 L197.02 300.77 L196.92 303.26 L196.83 305.23 L196.73 307.68 L196.63 310.1 L196.55 312.02 L196.44 314.4 L196.34 316.75 L196.26 318.62 L196.16 320.93 L196.06 323.21 L195.98 325.03 L195.87 327.27 L195.77 329.49 L195.69 331.25 L195.58 333.42 L195.48 335.58 L195.4 337.28 L195.29 339.39 L195.19 341.48 L195.1 343.14 L195.0 345.19 L194.9 347.23 L194.82 348.84 L194.72 350.85 L194.62 352.84 L194.54 354.43 L194.45 356.4 L194.35 358.37 L194.27 359.94 L194.18 361.89 L194.1 363.46 L194.01 365.4 L193.92 367.35 L193.85 368.9 L193.76 370.83 L193.67 372.76 L193.6 374.3 L193.52 376.22 L193.44 378.13 L193.37 379.66 L193.3 381.56 L193.22 383.46 L193.16 384.97 L193.08 386.85 L193.0 388.73 L192.94 390.23 L192.87 392.09 L192.79 393.95 L192.73 395.42 L192.66 397.26 L192.58 399.08 L192.52 400.53 L192.45 402.32 L192.37 404.1 L192.31 405.5 L192.24 407.24 L192.18 408.62 L192.1 410.32 L192.03 412.0 L191.95 413.66 L191.9 414.97 L191.82 416.59 L191.75 418.2 L191.69 419.47 L191.62 421.03 L191.57 422.27 L191.5 423.79 L191.43 425.28 L191.38 426.45 L191.31 427.89 L191.25 429.3 L191.2 430.4 L191.14 431.74 L191.09 433.05 L191.04 434.08 L190.99 435.34 L190.94 436.56 L190.9 437.52 L190.85 438.71 L190.8 439.86 L190.77 440.77 L190.72 441.89 L190.68 442.99 L190.65 443.85 L190.61 444.92 L190.57 445.75 L190.53 446.78 L190.5 447.79 L190.47 448.58 L190.43 449.56 L190.4 450.51 L190.37 451.26 L190.34 452.19 L190.31 453.09 L190.29 453.8 L190.26 454.67 L190.23 455.52 L190.21 456.19 L190.18 457.01 L190.16 457.66 L190.13 458.45 L190.1 459.22 L190.06 459.83 L190.02 460.59 L189.96 461.32 L189.9 461.91 L189.82 462.62 L189.71 463.32 L189.62 463.86 L189.49 464.53 L189.34 465.18 L189.21 465.69 L189.03 466.31 L188.83 466.91 L188.66 467.38 L188.44 467.95 L188.25 468.39 L187.99 468.93 L187.73 469.45 L187.5 469.86 L187.21 470.35 L186.9 470.84 L186.64 471.21 L186.31 471.67 L185.96 472.1 L185.67 472.44 L185.3 472.84 L184.93 473.23 L184.61 473.52 L184.22 473.87 L183.81 474.2 L183.47 474.46 L183.05 474.76 L182.7 474.99 L182.25 475.25 L181.8 475.5 L181.34 475.74 L180.96 475.91 L180.48 476.11 L180.09 476.26 L179.57 476.45 L179.05 476.61 L178.61 476.74 L178.06 476.88 L177.49 477.01 L177.02 477.1 L176.43 477.2 L175.82 477.28 L175.32 477.33 L174.69 477.39 L172.2 477.43 L171.65 477.4 L170.97 477.36 L170.41 477.3 L169.71 477.22 L169.0 477.11 L168.43 477.02 L167.72 476.87 L167.0 476.71 L166.42 476.56 L165.69 476.35 L164.96 476.12 L164.37 475.92 L163.64 475.65 L162.91 475.35 L162.32 475.1 L161.58 474.75 L160.84 474.39 L160.26 474.08 L159.53 473.66 L158.8 473.22 L158.22 472.85 L157.51 472.36 L156.8 471.85 L156.24 471.42 L155.54 470.86 L154.85 470.28 L154.3 469.8 L153.61 469.19 L152.91 468.56 L152.36 468.04 L151.65 467.37 L150.93 466.69 L150.35 466.14 L149.62 465.43 L149.02 464.86 L148.26 464.12 L147.48 463.38 L146.86 462.77 L146.06 461.99 L145.25 461.21 L144.6 460.57 L143.76 459.76 L142.91 458.94 L142.22 458.28 L141.35 457.43 L140.64 456.75 L139.74 455.88 L138.83 454.99 L138.1 454.28 L137.16 453.37 L136.21 452.45 L135.44 451.71 L134.47 450.77 L133.48 449.81 L132.67 449.04 L131.66 448.06 L130.84 447.26 L129.8 446.26 L128.75 445.25 L127.9 444.43 L126.83 443.41 L125.78 442.39 L124.95 441.6 L123.93 440.62 L122.94 439.67 L122.17 438.93 L121.22 438.02 L120.3 437.14 L119.58 436.45 L118.7 435.61 L117.85 434.79 L117.19 434.15 L116.37 433.37 L115.58 432.61 L114.96 432.01 L114.21 431.28 L113.46 430.57 L112.88 430.01 L112.17 429.33 L111.47 428.66 L110.92 428.13 L110.24 427.49 L109.59 426.86 L109.07 426.37 L108.45 425.77 L107.96 425.3 L107.36 424.73 L106.78 424.18 L106.21 423.64 L105.78 423.22 L105.24 422.72 L104.73 422.23 L104.33 421.84 L103.84 421.38 L103.46 421.03 L103.01 420.59 L102.57 420.18 L102.23 419.86 L101.82 419.47 L101.43 419.1 L101.12 418.82 L100.75 418.48 L100.4 418.15 L100.12 417.91 L99.79 417.61 L99.46 417.34 L99.2 417.14 L98.89 416.91 L98.58 416.69 L98.33 416.53 L98.03 416.35 L97.73 416.17 L97.49 416.05 L97.18 415.9 L96.88 415.77 L96.64 415.67 L96.33 415.55 L96.03 415.45 L95.78 415.38 L95.47 415.3 L95.16 415.23 L94.92 415.19 L94.61 415.14 L94.3 415.11 L94.06 415.09 L93.75 415.07 L93.5 415.07 L93.17 415.07 L92.82 415.08 L92.54 415.1 L92.17 415.13 L91.79 415.18 L91.47 415.22 L91.05 415.29 L90.61 415.37 L90.24 415.44 L89.77 415.53 L89.27 415.64 L88.87 415.73 L88.34 415.85 L87.8 415.98 L87.35 416.09 L86.78 416.23 L86.19 416.39 L85.7 416.52 L85.08 416.68 L84.45 416.86 L83.92 417.01 L83.26 417.21 L82.71 417.37 L82.01 417.57 L81.29 417.79 L80.7 417.97 L79.95 418.2 L79.19 418.44 L78.56 418.63 L77.77 418.89 L76.95 419.15 L76.28 419.36 L75.44 419.63 L74.57 419.91 L73.86 420.13 L72.96 420.42 L72.04 420.71 L71.3 420.94 L70.35 421.24 L69.38 421.55 L68.59 421.79 L67.59 422.1 L66.57 422.42 L65.74 422.67 L64.69 422.99 L63.83 423.25 L62.75 423.58 L61.65 423.92 L60.76 424.19 L59.63 424.53 L58.49 424.88 L57.56 425.16 L56.38 425.52 L55.19 425.89 L54.23 426.18 L53.0 426.56 L51.77 426.94 L50.76 427.25 L49.5 427.64 L48.21 428.04 L47.17 428.37 L45.86 428.78 L44.53 429.19 L43.45 429.53 L42.08 429.95 L40.7 430.38 L39.59 430.72 L38.18 431.16 L36.76 431.6 L35.62 431.95 L34.21 432.38 L33.09 432.72 L31.7 433.14 L30.34 433.56 L29.0 433.96 L27.94 434.28 L26.63 434.68 L25.6 434.99 L24.34 435.37 L23.09 435.74 L22.1 436.04 L20.89 436.4 L19.68 436.75 L18.72 437.03 L17.53 437.38 L16.35 437.72 L15.4 437.98 L14.22 438.31 L13.04 438.63 L12.1 438.88 L10.92 439.19 L9.75 439.49 L8.81 439.72 L7.63 440.0 L6.46 440.26 L5.52 440.47 L4.35 440.71 L3.18 440.95 L2.25 441.12 L1.08 441.34 L-0.08 441.54 L-1.01 441.69 L-2.17 441.87 L-3.33 442.04 L-4.26 442.16 L-5.42 442.3 L-6.58 442.43 L-7.5 442.52 L-8.65 442.61 L-9.57 442.68 L-10.72 442.74 L-11.87 442.79 L-13.02 442.82 L-13.94 442.83 L-15.09 442.83 L-16.0 442.81 L-17.14 442.79 L-18.27 442.74 L-19.18 442.7 L-20.29 442.64 L-21.4 442.57 L-22.28 442.51 L-23.36 442.44 L-24.45 442.35 L-25.3 442.29 L-26.37 442.2 L-27.43 442.11 L-28.26 442.03 L-29.31 441.93 L-30.34 441.82 L-31.15 441.72 L-32.16 441.6 L-33.16 441.47 L-33.95 441.36 L-34.93 441.22 L-35.89 441.07 L-36.65 440.95 L-37.6 440.8 L-38.34 440.68 L-39.27 440.52 L-40.19 440.35 L-40.92 440.22 L-41.82 440.05 L-42.71 439.89 L-43.42 439.75 L-44.3 439.58 L-45.17 439.41 L-45.87 439.27 L-46.72 439.1 L-47.58 438.93 L-48.26 438.8 L-49.1 438.63 L-49.95 438.46 L-50.62 438.33 L-51.46 438.17 L-52.29 438.0 L-52.95 437.87 L-53.77 437.71 L-54.58 437.55 L-55.23 437.43 L-56.02 437.27 L-56.8 437.12 L-57.42 436.99 L-58.17 436.85 L-58.91 436.7 L-59.5 436.59 L-60.21 436.44 L-60.78 436.33 L-61.47 436.2 L-62.15 436.06 L-62.68 435.96 L-63.34 435.83 L-63.98 435.7 L-64.48 435.6 L-65.1 435.48 L-65.71 435.36 L-66.19 435.26 L-66.77 435.15 L-67.35 435.03 L-67.8 434.94 L-68.35 434.84 L-68.89 434.73 L-69.31 434.64 L-69.83 434.54 L-70.34 434.44 L-70.74 434.36 L-71.23 434.27 L-71.71 434.17 L-72.08 434.1 L-72.54 434.01 L-72.98 433.92 L-73.33 433.85 L-73.76 433.76 L-74.18 433.66 L-74.51 433.58 L-74.91 433.47 L-75.23 433.37 L-75.62 433.24 L-76.0 433.1 L-76.3 432.97 L-76.67 432.81 L-77.03 432.64 L-77.32 432.49 L-77.66 432.31 L-78.01 432.11 L-78.28 431.95 L-78.61 431.74 L-78.93 431.52 L-79.18 431.34 L-79.5 431.11 L-79.8 430.87 L-80.04 430.67 L-80.33 430.42 L-80.61 430.16 L-80.84 429.95 L-81.11 429.68 L-81.37 429.4 L-81.57 429.17 L-81.82 428.88 L-82.06 428.59 L-82.25 428.35 L-82.48 428.04 L-82.7 427.73 L-82.87 427.48 L-83.07 427.15 L-83.23 426.89 L-83.42 426.56 L-83.59 426.22 L-83.73 425.95 L-83.89 425.6 L-84.04 425.25 L-84.16 424.97 L-84.29 424.61 L-84.42 424.25 L-84.51 423.95 L-84.62 423.58 L-84.71 423.21 L-84.79 422.91 L-84.87 422.53 L-84.93 422.14 L-84.98 421.83 L-85.03 421.45 L-85.08 421.05 L-85.1 420.74 L-85.12 420.34 L-85.14 419.95 L-85.15 419.63 L-85.15 419.23 L-85.14 418.83 L-85.13 418.51 L-85.12 418.09 L-85.1 417.75 L-85.07 417.32 L-85.03 416.87 L-84.99 416.42 L-84.95 416.05 L-84.89 415.58 L-84.84 415.2 L-84.77 414.71 L-84.7 414.21 L-84.63 413.81 L-84.54 413.3 L-84.44 412.77 L-84.36 412.35 L-84.25 411.81 L-84.13 411.26 L-84.03 410.81 L-83.91 410.24 L-83.77 409.66 L-83.65 409.19 L-83.5 408.59 L-83.33 407.97 L-83.19 407.48 L-83.0 406.85 L-82.8 406.21 L-82.63 405.7 L-82.42 405.04 L-82.19 404.38 L-82.0 403.85 L-81.76 403.17 L-81.5 402.49 L-81.29 401.93 L-81.02 401.23 L-80.73 400.52 L-80.49 399.94 L-80.19 399.22 L-79.87 398.49 L-79.6 397.9 L-79.27 397.15 L-78.92 396.4 L-78.64 395.79 L-78.28 395.02 L-77.91 394.24 L-77.62 393.61 L-77.24 392.81 L-76.85 391.99 L-76.54 391.33 L-76.14 390.49 L-75.74 389.63 L-75.41 388.94 L-74.99 388.06 L-74.57 387.17 L-74.22 386.44 L-73.78 385.52 L-73.34 384.59 L-72.98 383.83 L-72.52 382.87 L-72.15 382.09 L-71.68 381.1 L-71.2 380.1 L-70.82 379.29 L-70.33 378.25 L-69.83 377.2 L-69.43 376.35 L-68.92 375.27 L-68.4 374.17 L-67.98 373.28 L-67.45 372.15 L-66.91 371.0 L-66.48 370.07 L-65.93 368.89 L-65.37 367.69 L-64.91 366.72 L-64.34 365.48 L-63.76 364.24 L-63.29 363.23 L-62.69 361.95 L-62.09 360.65 L-61.6 359.6 L-60.99 358.27 L-60.36 356.93 L-59.86 355.85 L-59.23 354.48 L-58.6 353.11 L-58.08 352.0 L-57.44 350.59 L-56.92 349.46 L-56.26 348.04 L-55.6 346.6 L-54.93 345.15 L-54.4 343.99 L-53.73 342.53 L-53.06 341.08 L-52.53 339.92 L-51.86 338.47 L-51.33 337.32 L-50.66 335.87 L-50.0 334.43 L-49.47 333.28 L-48.8 331.84 L-48.14 330.41 L-47.61 329.27 L-46.95 327.84 L-46.3 326.41 L-45.77 325.27 L-45.12 323.85 L-44.47 322.42 L-43.95 321.29 L-43.29 319.87 L-42.65 318.46 L-42.13 317.33 L-41.48 315.92 L-40.83 314.51 L-40.31 313.39 L-39.67 311.98 L-39.02 310.58 L-38.5 309.47 L-37.86 308.07 L-37.22 306.68 L-36.7 305.57 L-36.06 304.18 L-35.42 302.79 L-34.91 301.68 L-34.28 300.3 L-33.65 298.92 L-33.15 297.82 L-32.54 296.44 L-31.94 295.07 L-31.47 293.97 L-30.9 292.59 L-30.36 291.2 L-29.94 290.1 L-29.44 288.71 L-28.98 287.32 L-28.63 286.2 L-28.22 284.79 L-27.92 283.66 L-27.57 282.25 L-27.26 280.83 L-27.03 279.69 L-26.78 278.24 L-26.54 276.78 L-26.36 275.59 L-26.14 274.09 L-25.92 272.58 L-25.74 271.37 L-25.51 269.84 L-25.28 268.29 L-25.09 267.04 L-24.85 265.47 L-24.61 263.89 L-24.42 262.61 L-24.17 261.0 L-23.97 259.7 L-23.72 258.06 L-23.46 256.41 L-23.2 254.75 L-22.99 253.41 L-22.73 251.72 L-22.46 250.02 L-22.24 248.65 L-21.96 246.92 L-21.68 245.18 L-21.45 243.78 L-21.16 242.02 L-20.93 240.6 L-20.63 238.81 L-20.34 237.01 L-20.04 235.2 L-19.79 233.74 L-19.48 231.91 L-19.24 230.44 L-18.92 228.59 L-18.61 226.73 L-18.36 225.24 L-18.05 223.36 L-17.73 221.48 L-17.47 219.96 L-17.15 218.06 L-16.83 216.14 L-16.57 214.6 L-16.25 212.67 L-15.93 210.72 L-15.67 209.16 L-15.35 207.19 L-15.09 205.61 L-14.77 203.63 L-14.45 201.63 L-14.13 199.63 L-13.88 198.01 L-13.56 195.99 L-13.25 193.95 L-13.0 192.31 L-12.69 190.25 L-12.39 188.18 L-12.15 186.52 L-11.85 184.43 L-11.61 182.75 L-11.32 180.63 L-11.03 178.51 L-10.8 176.81 L-10.52 174.67 L-10.24 172.51 L-10.03 170.78 L-9.77 168.61 L-9.51 166.43 L-9.31 164.67 L-9.06 162.47 L-8.82 160.26 L-8.63 158.48 L-8.39 156.25 L-8.17 154.01 L-7.99 152.21 L-7.77 149.96 L-7.56 147.69 L-7.4 145.87 L-7.2 143.59 L-7.0 141.31 L-6.85 139.48 L-6.68 137.18 L-6.5 134.87 L-6.37 133.02 L-6.21 130.69 L-6.06 128.36 L-5.94 126.49 L-5.79 124.13 L-5.65 121.78 L-5.54 119.88 L-5.4 117.51 L-5.26 115.13 L-5.12 112.74 L-5.01 110.82 L-4.87 108.41 L-4.76 106.48 L-4.63 104.06 L-4.5 101.63 L-4.4 99.68 L-4.27 97.24 L-4.15 94.79 L-4.05 92.82 L-3.93 90.35 L-3.82 87.88 L-3.73 85.89 L-3.62 83.4 L-3.51 80.9 L-3.42 78.9 L-3.32 76.39 L-3.21 73.86 L-3.13 71.84 L-3.02 69.3 L-2.92 66.76 L-2.84 64.72 L-2.73 62.16 L-2.63 59.6 L-2.54 57.54 L-2.44 54.96 L-2.33 52.37 L-2.24 50.3 L-2.13 47.7 L-2.02 45.09 L-1.93 43.0 L-1.82 40.38 L-1.7 37.76 L-1.61 35.65 L-1.5 33.01 L-1.38 30.37 L-1.29 28.25 L-1.18 25.59 L-1.06 22.93 L-0.97 20.79 L-0.86 18.12 L-0.75 15.44 L-0.66 13.29 L-0.55 10.6 L-0.46 8.44 L-0.36 5.73 L-0.25 3.02 L-0.16 0.85 L-0.06 -1.87 L0.05 -4.6 L0.13 -6.78 L0.24 -9.52 L0.34 -12.27 L0.43 -14.46 L0.54 -17.22 L0.64 -19.98 L0.73 -22.19 L0.84 -24.96 L0.96 -27.73 L1.05 -29.96 L1.17 -32.74 L1.28 -35.53 L1.38 -37.76 L1.5 -40.55 L1.63 -43.35 L1.73 -45.59 L1.86 -48.4 L1.98 -51.21 L2.09 -53.46 L2.22 -56.28 L2.35 -59.11 L2.46 -61.38 L2.59 -64.21 L2.73 -67.06 L2.84 -69.33 L2.97 -72.19 L3.11 -75.04 L3.22 -77.33 L3.35 -80.2 L3.48 -83.07 L3.59 -85.38 L3.72 -88.26 L3.82 -90.57 L3.95 -93.46 L4.08 -96.36 L4.18 -98.68 L4.3 -101.58 L4.42 -104.48 L4.52 -106.79 L4.64 -109.68 L4.76 -112.56 L4.86 -114.86 L4.98 -117.73 L5.09 -120.59 L5.19 -122.88 L5.31 -125.73 L5.42 -128.58 L5.52 -130.85 L5.64 -133.69 L5.75 -136.52 L5.85 -138.78 L5.97 -141.6 L6.06 -143.85 L6.18 -146.65 L6.3 -149.45 L6.39 -151.69 L6.51 -154.48 L6.62 -157.27 L6.72 -159.49 L6.84 -162.26 L6.96 -165.03 L7.05 -167.24 L7.17 -170.0 L7.29 -172.75 L7.38 -174.95 L7.5 -177.69 L7.62 -180.42 L7.71 -182.61 L7.83 -185.33 L7.95 -188.05 L8.04 -190.22 L8.16 -192.93 L8.28 -195.63 L8.37 -197.79 L8.49 -200.49 L8.58 -202.64 L8.69 -205.32 L8.81 -208.0 L8.92 -210.67 L9.01 -212.8 L9.13 -215.46 L9.24 -218.12 L9.33 -220.24 L9.45 -222.89 L9.56 -225.53 L9.65 -227.64 L9.76 -230.27 L9.88 -232.89 L9.97 -234.99 L10.08 -237.6 L10.17 -239.69 L10.28 -242.3 L10.39 -244.9 L10.5 -247.5 L10.59 -249.57 L10.7 -252.15 L10.79 -254.22 L10.9 -256.8 L11.01 -259.37 L11.12 -261.93 L11.21 -263.98 L11.32 -266.54 L11.43 -269.09 L11.51 -271.13 L11.62 -273.67 L11.71 -275.7 L11.82 -278.23 L11.92 -280.76 L12.01 -282.77 L12.12 -285.28 L12.22 -287.76 L12.31 -289.73 L12.41 -292.18 L12.52 -294.59 L12.6 -296.5 L12.7 -298.86 L12.8 -301.19 L12.88 -303.04 L12.98 -305.32 L13.08 -307.58 L13.16 -309.36 L13.25 -311.57 L13.35 -313.75 L13.42 -315.48 L13.51 -317.61 L13.61 -319.73 L13.68 -321.4 L13.77 -323.46 L13.86 -325.5 L13.93 -327.12 L14.02 -329.12 L14.1 -331.09 L14.17 -332.66 L14.26 -334.59 L14.34 -336.51 L14.41 -338.03 L14.49 -339.91 L14.58 -341.77 L14.64 -343.25 L14.73 -345.08 L14.81 -346.88 L14.87 -348.31 L14.95 -350.08 L15.03 -351.83 L15.09 -353.22 L15.17 -354.93 L15.24 -356.63 L15.3 -357.97 L15.37 -359.62 L15.44 -361.26 L15.5 -362.55 L15.57 -364.15 L15.63 -365.72 L15.68 -366.96 L15.75 -368.48 L15.8 -369.67 L15.86 -371.14 L15.91 -372.58 L15.97 -373.99 L16.01 -375.09 L16.07 -376.44 L16.11 -377.5 L16.16 -378.8 L16.22 -380.07 L16.26 -381.07 L16.31 -382.28 L16.36 -383.47 L16.4 -384.4 L16.45 -385.53 L16.5 -386.64 L16.53 -387.5 L16.58 -388.56 L16.62 -389.58 L16.65 -390.39 L16.68 -391.36 L16.71 -392.31 L16.73 -393.06 L16.74 -393.96 L16.74 -394.85 L16.74 -395.54 L16.72 -396.4 L16.68 -397.23 L16.64 -397.89 L16.58 -398.7 L16.5 -399.5 L16.43 -400.13 L16.32 -400.92 L16.2 -401.69 L16.09 -402.3 L15.93 -403.07 L15.76 -403.82 L15.61 -404.42 L15.41 -405.16 L15.23 -405.75 L15.0 -406.47 L14.74 -407.19 L14.52 -407.75 L14.24 -408.45 L13.93 -409.13 L13.67 -409.67 L13.33 -410.34 L12.98 -410.99 L12.68 -411.5 L12.29 -412.13 L11.88 -412.76 L11.55 -413.26 L11.11 -413.87 L10.65 -414.48 L10.28 -414.96 L9.79 -415.56 L9.29 -416.14 L8.88 -416.6 L8.36 -417.17 L7.82 -417.73 L7.37 -418.16 L6.8 -418.7 L6.33 -419.11 L5.73 -419.62 L5.12 -420.12 L4.62 -420.5 L3.97 -420.97 L3.31 -421.43 L2.77 -421.78 L2.08 -422.21 L1.38 -422.62 L0.8 -422.93 L0.07 -423.31 L-0.69 -423.68 L-1.3 -423.95 L-2.08 -424.29 L-2.88 -424.61 L-3.53 -424.85 L-4.36 -425.14 L-5.21 -425.41 L-5.9 -425.62 L-6.78 -425.88 L-7.5 -426.07 L-8.42 -426.3 L-9.36 -426.53 L-10.12 -426.7 L-11.09 -426.92 L-12.08 -427.12 L-12.88 -427.28 L-13.91 -427.47 L-14.95 -427.66 L-15.8 -427.79 L-16.88 -427.95 L-17.98 -428.1 L-18.88 -428.22 L-20.01 -428.35 L-21.17 -428.48 L-22.11 -428.58 L-23.29 -428.7 L-24.49 -428.8 L-25.46 -428.88 L-26.7 -428.97 L-27.94 -429.06 L-28.95 -429.11 L-30.23 -429.18 L-31.52 -429.24 L-32.56 -429.27 L-33.88 -429.31 L-35.2 -429.32 L-36.27 -429.33 L-37.59 -429.32 L-38.92 -429.29 L-39.99 -429.25 L-41.32 -429.19 L-42.66 -429.11 L-43.74 -429.03 L-45.08 -428.91 L-46.42 -428.78 L-47.5 -428.66 L-48.86 -428.49 L-50.22 -428.31 L-51.31 -428.15 L-52.67 -427.94 L-54.04 -427.71 L-55.13 -427.52 L-56.5 -427.27 L-57.88 -427.0 L-58.97 -426.78 L-60.35 -426.48 L-61.73 -426.17 L-62.83 -425.92 L-64.21 -425.58 L-65.59 -425.22 L-66.69 -424.93 L-68.07 -424.55 L-69.18 -424.23 L-70.56 -423.82 L-71.93 -423.39 L-73.03 -423.04 L-74.41 -422.58 L-75.78 -422.1 L-76.88 -421.7 L-78.25 -421.19 L-79.61 -420.65 L-80.7 -420.22 L-82.06 -419.65 L-83.41 -419.06 L-84.5 -418.58 L-85.84 -417.96 L-87.19 -417.33 L-88.26 -416.8 L-89.59 -416.13 L-90.91 -415.44 L-91.97 -414.87 L-93.29 -414.15 L-94.34 -413.55 L-95.64 -412.79 L-96.94 -412.02 L-97.97 -411.38 L-99.26 -410.57 L-100.53 -409.74 L-101.55 -409.07 L-102.82 -408.21 L-104.08 -407.34 L-105.08 -406.63 L-106.33 -405.73 L-107.57 -404.82 L-108.55 -404.07 L-109.78 -403.13 L-111.0 -402.16 L-111.97 -401.39 L-113.17 -400.4 L-114.36 -399.4 L-115.31 -398.58 L-116.49 -397.55 L-117.43 -396.72 L-118.59 -395.67 L-119.75 -394.6 L-120.67 -393.74 L-121.82 -392.65 L-122.95 -391.55 L-123.85 -390.65 L-124.97 -389.53 L-126.08 -388.39 L-126.96 -387.47 L-128.06 -386.31 L-129.14 -385.14 L-129.99 -384.19 L-131.06 -382.99 L-132.11 -381.78 L-132.94 -380.8 L-133.97 -379.56 L-134.98 -378.31 L-135.79 -377.3 L-136.78 -376.02 L-137.76 -374.74 L-138.54 -373.7 L-139.5 -372.39 L-140.44 -371.06 L-141.19 -370.0 L-142.12 -368.65 L-142.85 -367.57 L-143.75 -366.2 L-144.64 -364.83 L-145.35 -363.72 L-146.22 -362.33 L-147.08 -360.92 L-147.76 -359.79 L-148.6 -358.37 L-149.43 -356.94 L-150.08 -355.8 L-150.89 -354.35 L-151.68 -352.9 L-152.3 -351.73 L-153.06 -350.25 L-153.79 -348.77 L-154.37 -347.57 L-155.06 -346.07 L-155.61 -344.85 L-156.27 -343.31 L-156.91 -341.76 L-157.42 -340.5 L-158.04 -338.91 L-158.64 -337.3 L-159.13 -335.99 L-159.72 -334.34 L-160.32 -332.68 L-160.8 -331.34 L-161.4 -329.66 L-162.01 -327.96 L-162.5 -326.6 L-163.13 -324.88 L-163.76 -323.15 L-164.27 -321.77 L-164.91 -320.03 L-165.56 -318.28 L-166.09 -316.87 L-166.75 -315.1 L-167.41 -313.32 L-167.95 -311.9 L-168.63 -310.12 L-169.3 -308.36 L-169.84 -306.96 L-170.51 -305.23 L-171.05 -303.86 L-171.73 -302.18 L-172.39 -300.51 L-172.93 -299.19 L-173.59 -297.57 L-174.24 -295.97 L-174.76 -294.71 L-175.41 -293.16 L-176.05 -291.63 L-176.56 -290.42 L-177.19 -288.93 L-177.82 -287.45 L-178.32 -286.29 L-178.94 -284.85 L-179.56 -283.43 L-180.07 -282.3 L-180.7 -280.9 L-181.34 -279.52 L-181.86 -278.42 L-182.53 -277.06 L-183.2 -275.71 L-183.75 -274.64 L-184.45 -273.31 L-185.17 -271.99 L-185.75 -270.95 L-186.48 -269.65 L-187.24 -268.37 L-187.85 -267.35 L-188.62 -266.09 L-189.42 -264.84 L-190.06 -263.85 L-190.88 -262.62 L-191.71 -261.4 L-192.39 -260.44 L-193.25 -259.24 L-194.13 -258.06 L-194.84 -257.12 L-195.74 -255.95 L-196.65 -254.79 L-197.4 -253.88 L-198.34 -252.74 L-199.29 -251.62 L-200.07 -250.73 L-201.05 -249.63 L-202.04 -248.54 L-202.84 -247.67 L-203.85 -246.61 L-204.87 -245.55 L-205.69 -244.72 L-206.72 -243.69 L-207.76 -242.67 L-208.59 -241.87 L-209.64 -240.88 L-210.69 -239.9 L-211.54 -239.12 L-212.61 -238.17 L-213.69 -237.22 L-214.55 -236.48 L-215.64 -235.56 L-216.74 -234.66 L-217.63 -233.95 L-218.74 -233.08 L-219.87 -232.21 L-220.77 -231.54 L-221.9 -230.7 L-223.04 -229.88 L-223.96 -229.24 L-225.1 -228.44 L-226.25 -227.65 L-227.18 -227.03 L-228.34 -226.27 L-229.5 -225.51 L-230.43 -224.92 L-231.59 -224.18 L-232.75 -223.47 L-233.67 -222.9 L-234.83 -222.21 L-235.99 -221.53 L-236.92 -220.99 L-238.08 -220.34 L-239.01 -219.83 L-240.18 -219.2 L-241.35 -218.59 L-242.29 -218.11 L-243.47 -217.53 L-244.65 -216.97 L-245.6 -216.52 L-246.79 -215.99 L-247.99 -215.47 L-248.95 -215.07 L-250.15 -214.59 L-251.36 -214.12 L-252.32 -213.75 L-253.54 -213.31 L-254.76 -212.88 L-255.74 -212.55 L-256.97 -212.14 L-258.2 -211.74 L-259.19 -211.43 L-260.43 -211.04 L-261.67 -210.67 L-262.67 -210.37 L-263.92 -210.01 L-265.18 -209.65 L-266.19 -209.38 L-267.46 -209.05 L-268.47 -208.79 L-269.74 -208.48 L-271.02 -208.19 L-272.04 -207.96 L-273.32 -207.69 L-274.61 -207.44 L-275.64 -207.24 L-276.93 -207.01 L-278.22 -206.8 L-279.26 -206.64 L-280.56 -206.45 L-281.86 -206.27 L-282.9 -206.14 L-284.2 -205.99 L-285.51 -205.85 L-286.55 -205.74 L-287.87 -205.62 L-289.18 -205.51 L-290.23 -205.43 L-291.54 -205.34 L-292.86 -205.26 L-293.92 -205.21 L-295.24 -205.16 L-296.55 -205.12 L-297.61 -205.1 L-298.93 -205.09 L-300.25 -205.09 L-301.3 -205.1 L-302.62 -205.12 L-303.94 -205.16 L-305.0 -205.2 L-306.32 -205.26 L-307.64 -205.33 L-308.69 -205.4 L-310.01 -205.5 L-311.33 -205.6 L-312.38 -205.7 L-313.69 -205.84 L-315.01 -205.99 L-316.06 -206.12 L-317.37 -206.29 L-318.67 -206.47 L-319.72 -206.62 L-321.03 -206.83 L-322.07 -207.0 L-323.38 -207.23 L-324.68 -207.46 L-325.72 -207.67 L-327.02 -207.93 L-328.32 -208.2 L-329.36 -208.43 L-330.65 -208.73 L-331.94 -209.05 L-332.97 -209.31 L-334.25 -209.65 L-335.53 -210.01 L-336.55 -210.31 L-337.82 -210.69 L-339.09 -211.09 L-340.1 -211.42 L-341.35 -211.84 L-342.6 -212.28 L-343.6 -212.65 L-344.84 -213.11 L-346.08 -213.59 L-347.06 -213.97 L-348.29 -214.47 L-349.52 -214.98 L-350.5 -215.39 L-351.72 -215.93 L-352.7 -216.36 L-353.92 -216.92 L-355.13 -217.48 L-356.1 -217.94 L-357.32 -218.52 L-358.54 -219.11 L-359.52 -219.59 L-360.75 -220.19 L-361.98 -220.79 L-362.97 -221.28 L-364.21 -221.89 L-365.45 -222.51 L-366.45 -223.0 L-367.71 -223.63 L-368.97 -224.25 L-369.99 -224.76 L-371.26 -225.39 L-372.54 -226.03 L-373.57 -226.55 L-374.85 -227.2 L-376.14 -227.85 L-377.18 -228.37 L-378.48 -229.02 L-379.79 -229.67 L-380.84 -230.2 L-382.17 -230.86 L-383.23 -231.38 L-384.56 -232.05 L-385.9 -232.71 L-386.97 -233.25 L-388.32 -233.92 L-389.67 -234.59 L-390.76 -235.13 L-392.12 -235.81 L-393.49 -236.49 L-394.58 -237.04 L-395.96 -237.72 L-397.34 -238.41 L-398.45 -238.96 L-399.84 -239.65 L-401.24 -240.34 L-402.36 -240.89 L-403.77 -241.59 L-405.18 -242.28 L-406.31 -242.84 L-407.73 -243.54 L-409.16 -244.24 L-410.31 -244.81 L-411.74 -245.51 L-413.18 -246.22 L-414.33 -246.79 L-415.77 -247.5 L-417.2 -248.21 L-418.34 -248.77 L-419.76 -249.48 L-421.17 -250.17 L-422.3 -250.73 L-423.69 -251.42 L-425.08 -252.1 L-426.17 -252.65 L-427.53 -253.32 L-428.61 -253.86 L-429.95 -254.52 L-431.27 -255.17 L-432.31 -255.69 L-433.6 -256.33 L-434.88 -256.96 L-435.89 -257.46 L-437.14 -258.09 L-438.38 -258.7 L-439.36 -259.19 L-440.58 -259.79 L-441.78 -260.39 L-442.73 -260.87 L-443.9 -261.46 L-445.06 -262.05 L-445.98 -262.52 L-447.12 -263.11 L-448.24 -263.71 L-449.13 -264.19 L-450.24 -264.79 L-451.12 -265.28 L-452.21 -265.89 L-453.28 -266.52 L-454.14 -267.03 L-455.2 -267.67 L-456.25 -268.33 L-457.08 -268.86 L-458.12 -269.54 L-459.14 -270.22 L-459.94 -270.78 L-460.94 -271.48 L-461.93 -272.2 L-462.71 -272.78 L-463.68 -273.51 L-464.64 -274.25 L-465.4 -274.86 L-466.33 -275.62 L-467.25 -276.39 L-467.98 -277.01 L-468.88 -277.79 L-469.77 -278.59 L-470.47 -279.23 L-471.34 -280.04 L-472.2 -280.85 L-472.87 -281.51 L-473.71 -282.33 L-474.54 -283.16 L-475.19 -283.82 L-475.99 -284.66 L-476.62 -285.33 L-477.4 -286.17 L-478.16 -287.01 L-478.76 -287.69 L-479.5 -288.53 L-480.22 -289.38 L-480.79 -290.06 L-481.48 -290.91 L-482.16 -291.76 L-482.7 -292.44 L-483.35 -293.29 L-483.87 -293.97 L-484.5 -294.83 L-485.12 -295.68 L-485.61 -296.37 L-486.2 -297.23 L-486.79 -298.08 L-487.24 -298.77 L-487.8 -299.62 L-488.35 -300.47 L-488.78 -301.15 L-489.31 -301.99 L-489.82 -302.84 L-490.23 -303.52 L-490.73 -304.37 L-491.22 -305.22 L-491.6 -305.9 L-492.07 -306.76 L-492.54 -307.61 L-492.91 -308.3 L-493.36 -309.16 L-493.8 -310.02 L-494.14 -310.71 L-494.57 -311.57 L-494.98 -312.43 L-495.3 -313.11 L-495.7 -313.96 L-496.07 -314.8 L-496.37 -315.47 L-496.72 -316.3 L-497.07 -317.12 L-497.33 -317.77 L-497.65 -318.58 L-497.89 -319.23 L-498.19 -320.03 L-498.47 -320.83 L-498.68 -321.46 L-498.93 -322.26 L-499.17 -323.06 L-499.34 -323.7 L-499.55 -324.5 L-499.73 -325.31 L-499.86 -325.95 L-500.01 -326.76 L-500.13 -327.57 L-500.24 -328.38 L-500.31 -329.03 L-500.38 -329.83 L-500.42 -330.48 L-500.45 -331.28 L-500.47 -332.08 L-500.47 -332.72 L-500.46 -333.52 L-500.44 -334.31 L-500.41 -334.93 L-500.36 -335.72 L-500.3 -336.5 L-500.25 -337.12 L-500.17 -337.89 L-500.07 -338.66 L-499.98 -339.28 L-499.86 -340.04 L-499.72 -340.8 L-499.6 -341.41 L-499.43 -342.16 L-499.24 -342.91 L-499.09 -343.5 L-498.87 -344.24 L-498.64 -344.97 L-498.44 -345.55 L-498.18 -346.27 L-497.9 -346.99 L-497.66 -347.56 L-497.35 -348.28 L-497.03 -348.99 L-496.75 -349.56 L-496.4 -350.27 L-496.03 -350.98 L-495.73 -351.55 L-495.33 -352.26 L-494.92 -352.96 L-494.57 -353.53 L-494.13 -354.23 L-493.76 -354.79 L-493.28 -355.48 L-492.78 -356.17 L-492.37 -356.72 L-491.84 -357.41 L-491.3 -358.09 L-490.86 -358.63 L-490.29 -359.32 L-489.71 -360.0 L-489.23 -360.55 L-488.62 -361.24 L-487.99 -361.93 L-487.48 -362.47 L-486.82 -363.16 L-486.15 -363.84 L-485.61 -364.39 L-484.93 -365.08 L-484.24 -365.77 L-483.68 -366.34 L-482.97 -367.05 L-482.24 -367.76 L-481.65 -368.34 L-480.9 -369.06 L-480.13 -369.78 L-479.5 -370.36 L-478.71 -371.08 L-478.07 -371.67 L-477.25 -372.4 L-476.42 -373.14 L-475.57 -373.87 L-474.88 -374.47 L-474.0 -375.21 L-473.1 -375.94 L-472.38 -376.53 L-471.45 -377.27 L-470.51 -378.01 L-469.75 -378.59 L-468.78 -379.33 L-467.99 -379.91 L-466.99 -380.64 L-465.98 -381.37 L-465.15 -381.94 L-464.11 -382.66 L-463.04 -383.38 L-462.18 -383.94 L-461.09 -384.65 L-459.98 -385.35 L-459.09 -385.91 L-457.95 -386.61 L-456.79 -387.32 L-455.85 -387.89 L-454.65 -388.6 L-453.44 -389.32 L-452.45 -389.9 L-451.2 -390.62 L-449.93 -391.34 L-448.9 -391.92 L-447.61 -392.65 L-446.3 -393.38 L-445.25 -393.97 L-443.92 -394.72 L-442.58 -395.46 L-441.49 -396.06 L-440.13 -396.82 L-438.75 -397.58 L-437.64 -398.2 L-436.23 -398.98 L-435.1 -399.6 L-433.68 -400.39 L-432.25 -401.19 L-431.09 -401.83 L-429.63 -402.65 L-428.16 -403.47 L-426.98 -404.13 L-425.48 -404.97 L-423.98 -405.81 L-422.77 -406.5 L-421.24 -407.36 L-419.71 -408.23 L-418.47 -408.92 L-416.9 -409.8 L-415.33 -410.69 L-414.07 -411.4 L-412.49 -412.29 L-410.9 -413.19 L-409.62 -413.92 L-408.02 -414.84 L-406.4 -415.76 L-405.1 -416.5 L-403.47 -417.43 L-401.82 -418.36 L-400.5 -419.11 L-398.83 -420.05 L-397.49 -420.81 L-395.81 -421.76 L-394.11 -422.71 L-392.75 -423.48 L-391.04 -424.43 L-389.31 -425.4 L-387.93 -426.17 L-386.19 -427.14 L-384.43 -428.12 L-383.03 -428.9 L-381.26 -429.89 L-379.48 -430.88 L-378.04 -431.67 L-376.25 -432.67 L-374.44 -433.67 L-372.98 -434.47 L-371.15 -435.48 L-369.31 -436.49 L-367.83 -437.3 L-365.97 -438.32 L-364.11 -439.34 L-362.61 -440.17 L-360.72 -441.2 L-358.83 -442.23 L-357.31 -443.07 L-355.4 -444.12 L-353.48 -445.17 L-351.94 -446.01 L-350.01 -447.08 L-348.46 -447.93 L-346.52 -449.01 L-344.56 -450.09 L-343.0 -450.96 L-341.03 -452.05 L-339.06 -453.14 L-337.47 -454.03 L-335.49 -455.13 L-333.5 -456.25 L-331.9 -457.14 L-329.91 -458.26 L-327.9 -459.39 L-326.3 -460.29 L-324.28 -461.42 L-322.25 -462.55 L-320.62 -463.46 L-318.58 -464.59 L-316.52 -465.73 L-314.88 -466.63 L-312.81 -467.77 L-310.74 -468.91 L-309.07 -469.83 L-306.98 -470.97 L-305.3 -471.89 L-303.2 -473.04 L-301.09 -474.19 L-299.4 -475.11 L-297.28 -476.27 L-295.15 -477.43 L-293.44 -478.37 L-291.3 -479.54 L-289.15 -480.72 L-287.43 -481.67 L-285.27 -482.85 L-283.1 -484.05 L-281.36 -485.0 L-279.19 -486.21 L-277.0 -487.41 L-275.25 -488.38 L-273.05 -489.6 L-270.85 -490.82 L-269.08 -491.8 L-266.87 -493.03 L-264.65 -494.26 L-262.86 -495.25 L-260.63 -496.49 L-258.38 -497.73 L-256.59 -498.73 L-254.33 -499.98 L-252.07 -501.23 L-250.25 -502.23 L-247.98 -503.49 L-245.7 -504.75 L-243.87 -505.76 L-241.58 -507.02 L-239.28 -508.29 L-237.44 -509.31 L-235.13 -510.59 L-232.81 -511.87 L-230.96 -512.9 L-228.63 -514.19 L-226.77 -515.23 L-224.44 -516.52 L-222.11 -517.82 L-220.24 -518.86 L-217.9 -520.16 L-215.55 -521.47 L-213.67 -522.52 L-211.31 -523.83 L-208.95 -525.15 L-207.06 -526.2 L-204.69 -527.52 L-202.31 -528.85 L-200.41 -529.91 L-198.02 -531.24 L-195.63 -532.57 L-193.71 -533.64 L-191.31 -534.98 L-188.9 -536.32 L-186.97 -537.39 L-184.55 -538.73 L-182.13 -540.08 L-180.18 -541.16 L-177.75 -542.51 L-175.31 -543.86 L-173.35 -544.94 L-170.9 -546.3 L-168.45 -547.66 L-166.48 -548.75 L-164.02 -550.11 L-161.54 -551.48 L-159.56 -552.58 L-157.08 -553.95 L-154.6 -555.32 L-152.6 -556.43 L-150.11 -557.81 L-147.61 -559.19 L-145.6 -560.3 L-143.09 -561.7 L-140.58 -563.09 L-138.56 -564.21 L-136.04 -565.61 L-134.01 -566.73 L-131.48 -568.14 L-128.94 -569.54 L-126.39 -570.96 L-124.35 -572.09 L-121.79 -573.5 L-119.23 -574.92 L-117.18 -576.06 L-114.61 -577.48 L-112.03 -578.9 L-109.96 -580.05 L-107.38 -581.48 L-104.78 -582.91 L-102.71 -584.06 L-100.1 -585.5 L-97.5 -586.94 L-95.41 -588.1 L-92.79 -589.54 L-90.7 -590.7 L-88.07 -592.16 L-85.44 -593.61 L-83.34 -594.78 L-80.7 -596.24 L-78.06 -597.7 L-75.94 -598.88 L-73.29 -600.34 L-71.17 -601.52 L-68.51 -602.99 L-65.85 -604.47 L-63.72 -605.65 L-61.05 -607.13 L-58.37 -608.62 L-56.23 -609.81 L-53.55 -611.3 L-50.86 -612.79 L-48.71 -613.98 L-46.02 -615.48 L-43.32 -616.97 L-41.16 -618.17 L-38.45 -619.67 L-35.74 -621.17 L-33.57 -622.37 L-30.86 -623.87 L-28.13 -625.37 L-25.95 -626.58 L-23.22 -628.08 L-20.49 -629.59 L-18.3 -630.8 L-15.56 -632.31 L-12.82 -633.82 L-10.63 -635.03 L-7.89 -636.53 L-5.16 -638.04 L-2.98 -639.24 L-0.26 -640.74 L1.91 -641.93 L4.62 -643.43 L7.31 -644.92 L9.47 -646.11 L12.14 -647.59 L14.79 -649.07 L16.9 -650.24 L19.52 -651.69 L22.11 -653.14 L24.17 -654.29 L26.73 -655.71 L29.26 -657.13 L31.28 -658.25 L33.77 -659.64 L36.25 -661.02 L38.22 -662.11 L40.65 -663.47 L42.58 -664.54 L44.98 -665.87 L47.35 -667.19 L49.22 -668.24 L51.55 -669.53 L53.85 -670.81 L55.67 -671.83 L57.93 -673.08 L60.15 -674.33 L61.92 -675.31 L64.1 -676.52 L66.25 -677.72 L67.96 -678.67 L70.07 -679.85 L72.15 -681.01 L73.8 -681.93 L75.85 -683.06 L77.87 -684.18 L79.46 -685.07 L81.44 -686.17 L83.4 -687.26 L84.95 -688.12 L86.86 -689.18 L88.75 -690.23 L90.25 -691.07 L92.1 -692.1 L93.57 -692.91 L95.38 -693.92 L97.16 -694.92 L98.93 -695.91 L100.33 -696.69 L102.05 -697.65 L103.42 -698.41 L105.11 -699.35 L106.78 -700.27 L108.1 -701.01 L109.73 -701.91 L111.34 -702.8 L112.61 -703.51 L114.19 -704.38 L115.75 -705.24 L116.98 -705.93 L118.51 -706.77 L120.02 -707.61 L121.22 -708.28 L122.7 -709.1 L124.17 -709.92 L125.33 -710.56 L126.77 -711.36 L128.2 -712.16 L129.33 -712.78 L130.73 -713.56 L132.11 -714.33 L133.21 -714.94 L134.57 -715.7 L135.92 -716.45 L136.99 -717.04 L138.31 -717.78 L139.62 -718.5 L140.66 -719.08 L141.94 -719.8 L142.97 -720.36 L144.23 -721.07 L145.48 -721.76 L146.47 -722.31 L147.7 -722.99 L148.91 -723.66 L149.86 -724.19 L151.03 -724.84 L152.18 -725.47 L153.08 -725.98 L154.19 -726.59 L155.28 -727.19 L156.13 -727.67 L157.17 -728.25 L158.2 -728.82 L159.0 -729.27 L159.98 -729.82 L160.94 -730.36 L161.69 -730.78 L162.61 -731.3 L163.51 -731.81 L164.22 -732.21 L165.08 -732.69 L165.92 -733.17 L166.58 -733.54 L167.4 -733.99 L168.19 -734.44 L168.82 -734.78 L169.59 -735.2 L170.35 -735.6 L170.96 -735.91 L171.7 -736.27 L172.44 -736.62 L173.02 -736.89 L173.74 -737.2 L174.31 -737.44 L175.02 -737.71 L175.72 -737.97 L176.28 -738.15 L176.97 -738.37 L177.66 -738.55 L178.22 -738.69 L178.9 -738.84 L179.58 -738.96 L180.26 -739.06 L180.8 -739.13 L181.47 -739.19 L182.01 -739.23 L182.67 -739.27 L183.34 -739.28 L183.86 -739.29 L184.52 -739.28 L185.18 -739.25 L185.7 -739.22 L186.36 -739.17 L187.01 -739.1 L187.53 -739.04 L188.18 -738.94 L188.83 -738.84 L189.35 -738.74 L190.01 -738.61 L190.67 -738.46 L191.19 -738.33 L191.86 -738.16 L192.52 -737.97 L193.05 -737.8 L193.71 -737.58 L194.24 -737.39 L194.89 -737.14 L195.54 -736.87 L196.18 -736.58 L196.69 -736.33 L197.32 -736.0 L197.82 -735.73 L198.44 -735.37 L199.06 -734.99 L199.54 -734.67 L200.14 -734.26 L200.73 -733.83 L201.2 -733.47 L201.77 -733.01 L202.34 -732.52 L202.78 -732.12 L203.32 -731.61 L203.85 -731.08 L204.26 -730.64 L204.75 -730.07 L205.23 -729.49 L205.6 -729.01 L206.05 -728.4 L206.47 -727.77 L206.79 -727.26 L207.18 -726.59 L207.54 -725.91 L207.82 -725.36 L208.15 -724.65 L208.41 -724.08 L208.73 -723.37 L209.04 -722.65 L209.3 -722.06 L209.63 -721.32 L209.96 -720.56 L210.24 -719.95 L210.58 -719.17 L210.92 -718.38 L211.2 -717.74 L211.56 -716.93 L211.92 -716.1 L212.21 -715.44 L212.59 -714.59 L212.97 -713.73 L213.28 -713.03 L213.67 -712.15 L214.07 -711.25 L214.39 -710.52 L214.8 -709.59 L215.22 -708.65 L215.55 -707.89 L215.97 -706.93 L216.4 -705.96 L216.75 -705.17 L217.19 -704.17 L217.63 -703.17 L217.99 -702.35 L218.44 -701.33 L218.9 -700.29 L219.27 -699.45 L219.74 -698.4 L220.21 -697.34 L220.6 -696.48 L221.08 -695.4 L221.57 -694.31 L221.96 -693.44 L222.45 -692.36 L222.94 -691.28 L223.33 -690.42 L223.82 -689.34 L224.31 -688.26 L224.7 -687.4 L225.19 -686.33 L225.69 -685.26 L226.08 -684.4 L226.57 -683.33 L227.05 -682.25 L227.44 -681.39 L227.92 -680.3 L228.4 -679.22 L228.77 -678.34 L229.23 -677.24 L229.68 -676.14 L230.03 -675.25 L230.46 -674.14 L230.87 -673.02 L231.2 -672.12 L231.59 -670.99 L231.97 -669.84 L232.27 -668.93 L232.63 -667.77 L232.91 -666.84 L233.25 -665.67 L233.58 -664.5 L233.83 -663.55 L234.13 -662.37 L234.41 -661.17 L234.64 -660.21 L234.9 -659.0 L235.15 -657.78 L235.34 -656.8 L235.57 -655.58 L235.78 -654.34 L235.94 -653.35 L236.12 -652.1 L236.29 -650.84 L236.42 -649.83 L236.57 -648.56 L236.7 -647.29 L236.79 -646.26 L236.9 -644.97 L237.0 -643.67 L237.06 -642.63 L237.13 -641.31 L237.19 -639.99 L237.22 -638.93 L237.25 -637.6 L237.27 -636.26 L237.27 -635.17 L237.26 -633.81 L237.25 -632.44 L237.22 -631.34 L237.19 -629.94 L237.15 -628.52 L237.11 -627.37 L237.06 -625.92 L237.01 -624.46 L236.97 -623.27 L236.91 -621.78 L236.85 -620.26 L236.8 -619.05 L236.73 -617.52 L236.66 -615.97 L236.61 -614.73 L236.53 -613.16 L236.47 -611.89 L236.4 -610.3 L236.32 -608.69 L236.26 -607.39 L236.19 -605.75 L236.12 -604.1 L236.06 -602.77 L235.98 -601.09 L235.91 -599.4 L235.85 -598.04 L235.77 -596.32 L235.7 -594.58 L235.64 -593.18 L235.56 -591.42 L235.48 -589.65 L235.42 -588.22 L235.34 -586.43 L235.26 -584.63 L235.19 -583.18 L235.11 -581.35 L235.03 -579.52 L234.97 -578.05 L234.89 -576.19 L234.81 -574.33 L234.74 -572.83 L234.66 -570.94 L234.58 -569.04 L234.51 -567.52 L234.43 -565.6 L234.35 -563.67 L234.28 -562.12 L234.2 -560.17 L234.12 -558.21 L234.05 -556.63 L233.97 -554.65 L233.88 -552.65 L233.82 -551.05 L233.73 -549.04 L233.65 -547.01 L233.58 -545.39 L233.5 -543.34 L233.42 -541.28 L233.35 -539.63 L233.27 -537.55 L233.19 -535.46 L233.12 -533.79 L233.04 -531.68 L232.96 -529.56 L232.9 -527.85 L232.82 -525.71 L232.74 -523.56 L232.68 -521.83 L232.61 -519.66 L232.53 -517.48 L232.47 -515.73 L232.39 -513.53 L232.31 -511.32 L232.24 -509.54 L232.16 -507.32 L232.07 -505.08 L232.0 -503.29 L231.91 -501.04 L231.82 -498.79 L231.75 -496.98 L231.66 -494.71 L231.57 -492.43 L231.49 -490.61 L231.39 -488.32 L231.3 -486.03 L231.23 -484.19 L231.15 -481.87 L231.06 -479.55 L230.99 -477.69 L230.9 -475.35 L230.81 -473.0 L230.73 -471.12 L230.62 -468.76 L230.52 -466.39 L230.43 -464.49 L230.32 -462.11 L230.2 -459.72 L230.11 -457.81 L229.98 -455.4 L229.86 -453.0 L229.76 -451.06 L229.63 -448.64 L229.49 -446.2 L229.38 -444.25 L229.24 -441.8 L229.09 -439.35 L228.97 -437.38 L228.83 -434.91 L228.69 -432.44 L228.58 -430.45 L228.44 -427.96 L228.31 -425.46 L228.2 -423.45 L228.08 -420.94 L227.96 -418.42 L227.86 -416.39 L227.75 -413.85 L227.67 -411.82 L227.56 -409.27 L227.46 -406.71 L227.38 -404.65 L227.27 -402.08 L227.17 -399.5 L227.09 -397.43 L226.98 -394.83 L226.88 -392.23 L226.8 -390.14 L226.69 -387.53 L226.58 -384.91 L226.49 -382.8 L226.38 -380.17 L226.27 -377.53 L226.18 -375.41 L226.06 -372.76 L225.95 -370.1 L225.86 -367.97 L225.75 -365.3 L225.63 -362.63 L225.54 -360.49 L225.43 -357.81 L225.31 -355.13 L225.21 -352.97 L225.09 -350.28 L224.96 -347.58 L224.86 -345.41 L224.73 -342.7 L224.6 -339.99 L224.5 -337.81 L224.37 -335.08 L224.25 -332.35 L224.15 -330.16 L224.02 -327.42 L223.9 -324.68 L223.8 -322.47 L223.68 -319.72 L223.59 -317.51 L223.47 -314.74 L223.36 -311.97 L223.27 -309.74 L223.16 -306.96 L223.04 -304.17 L222.96 -301.93 L222.84 -299.13 L222.73 -296.33 L222.64 -294.08 L222.53 -291.27 L222.41 -288.45 L222.32 -286.19 L222.21 -283.35 L222.09 -280.52 L222.0 -278.25 L221.88 -275.4 L221.77 -272.55L221.41 -266.63" fill="#bebebe" id="track-outline" stroke="black" stroke-width="0.3px"></path><line fill="black" stroke="black" stroke-width="5px" x1="221.4070271238685" x2="206.5916791722179" y1="-266.6319538039155" y2="-259.876493224781"></line></g></g></svg>