<svg height="100%" id="track-svg" width="100%" xmlns="http://www.w3.org/2000/svg" xmlns:xlink="http://www.w3.org/1999/xlink" xmlns:ev="http://www.w3.org/2001/xml-events" style="overflow: hidden; "><g id="viewport-20250804110956374" class="svg-pan-zoom_viewport" transform="matrix(0.47641392905824614,0,0,0.47641392905824614,305.1081715894113,726.5259541614903)" style="transform: matrix(0.476414, 0, 0, 0.476414, 305.108, 726.526);"><g id="debug"><polyline fill="none" id="bb" points="-635.4266357421875,-816.0313720703125 661.7646484375,-816.0313720703125 661.7646484375,466.9907531738281 -635.4266357421875,466.9907531738281 -635.4266357421875,-816.0313720703125" stroke="none" stroke-width="3px"></polyline><circle cx="13.16900634765625" cy="-174.520263671875" fill="none" id="centerpoint" r="5" stroke="none"></circle></g><g id="track"><path d="M-6.99 4.8 L3.27 -2.66 L5.93 -4.69 L8.57 -6.72 L10.69 -8.34 L13.34 -10.37 L15.45 -11.99 L18.09 -14.01 L20.73 -16.03 L22.84 -17.65 L25.48 -19.66 L28.11 -21.68 L30.22 -23.29 L32.85 -25.3 L35.48 -27.31 L37.58 -28.92 L40.2 -30.93 L42.82 -32.94 L44.91 -34.54 L47.53 -36.55 L50.14 -38.55 L52.23 -40.15 L54.84 -42.16 L57.45 -44.16 L59.53 -45.76 L62.13 -47.76 L64.73 -49.76 L66.81 -51.36 L69.4 -53.35 L71.99 -55.35 L74.06 -56.94 L76.65 -58.93 L79.24 -60.92 L81.31 -62.51 L83.89 -64.49 L85.96 -66.08 L88.54 -68.06 L91.12 -70.04 L93.7 -72.01 L95.76 -73.59 L98.33 -75.57 L100.9 -77.54 L102.96 -79.11 L105.53 -81.08 L107.58 -82.65 L110.15 -84.61 L112.71 -86.57 L114.76 -88.13 L117.32 -90.09 L119.87 -92.04 L121.92 -93.61 L124.47 -95.56 L127.02 -97.5 L129.06 -99.06 L131.61 -101.0 L134.16 -102.95 L136.2 -104.5 L138.74 -106.43 L141.28 -108.37 L143.31 -109.92 L145.85 -111.85 L148.38 -113.78 L150.41 -115.32 L152.94 -117.25 L155.47 -119.18 L157.49 -120.71 L160.02 -122.64 L162.54 -124.56 L164.55 -126.09 L167.07 -128.01 L169.59 -129.92 L171.6 -131.46 L174.12 -133.37 L176.63 -135.28 L178.64 -136.81 L181.15 -138.72 L183.66 -140.62 L185.66 -142.15 L188.17 -144.05 L190.67 -145.94 L192.66 -147.46 L195.16 -149.36 L197.15 -150.87 L199.64 -152.76 L202.12 -154.65 L204.6 -156.54 L206.58 -158.05 L209.06 -159.94 L211.03 -161.44 L213.5 -163.33 L215.96 -165.21 L218.42 -167.09 L220.38 -168.59 L222.83 -170.47 L224.79 -171.97 L227.23 -173.85 L229.67 -175.72 L231.62 -177.22 L234.05 -179.1 L236.47 -180.97 L238.41 -182.46 L240.83 -184.33 L243.25 -186.19 L245.18 -187.68 L247.59 -189.54 L250.0 -191.4 L251.92 -192.88 L254.32 -194.73 L256.72 -196.58 L258.63 -198.05 L261.02 -199.89 L263.41 -201.73 L265.32 -203.2 L267.7 -205.03 L270.07 -206.86 L271.97 -208.33 L274.34 -210.15 L276.7 -211.98 L278.59 -213.44 L280.94 -215.26 L282.82 -216.71 L285.17 -218.53 L287.51 -220.35 L289.37 -221.8 L291.71 -223.61 L294.03 -225.42 L295.89 -226.86 L298.21 -228.66 L300.53 -230.46 L302.38 -231.89 L304.69 -233.69 L307.0 -235.47 L308.84 -236.9 L311.14 -238.68 L313.44 -240.46 L315.27 -241.87 L317.56 -243.64 L319.85 -245.41 L321.67 -246.81 L323.95 -248.57 L326.23 -250.32 L328.05 -251.72 L330.33 -253.46 L332.14 -254.85 L334.41 -256.58 L336.67 -258.31 L338.47 -259.69 L340.73 -261.41 L342.97 -263.13 L344.77 -264.51 L347.01 -266.22 L349.24 -267.94 L351.02 -269.31 L353.25 -271.01 L355.47 -272.72 L357.24 -274.08 L359.45 -275.78 L361.65 -277.48 L363.42 -278.84 L365.61 -280.53 L367.81 -282.22 L369.56 -283.56 L371.75 -285.24 L373.93 -286.92 L375.67 -288.26 L377.84 -289.93 L380.01 -291.6 L381.74 -292.93 L383.91 -294.6 L386.06 -296.26 L387.78 -297.58 L389.93 -299.23 L392.08 -300.88 L393.79 -302.2 L395.93 -303.85 L398.06 -305.49 L399.77 -306.8 L401.89 -308.44 L404.01 -310.08 L405.7 -311.39 L407.81 -313.01 L409.92 -314.64 L411.6 -315.94 L413.69 -317.56 L415.36 -318.85 L417.45 -320.46 L419.53 -322.06 L421.19 -323.34 L423.27 -324.94 L425.34 -326.52 L427.4 -328.1 L429.06 -329.36 L431.12 -330.93 L433.17 -332.49 L434.82 -333.73 L436.86 -335.28 L438.5 -336.51 L440.54 -338.05 L442.58 -339.58 L444.21 -340.79 L446.23 -342.31 L448.26 -343.82 L449.87 -345.02 L451.88 -346.52 L453.89 -348.02 L455.48 -349.21 L457.48 -350.69 L459.46 -352.18 L461.04 -353.36 L463.01 -354.83 L464.98 -356.31 L466.54 -357.48 L468.49 -358.94 L470.43 -360.4 L471.98 -361.57 L473.91 -363.02 L475.83 -364.47 L477.37 -365.63 L479.28 -367.07 L480.8 -368.21 L482.7 -369.64 L484.59 -371.07 L486.48 -372.49 L487.98 -373.62 L489.85 -375.04 L491.35 -376.16 L493.21 -377.56 L495.07 -378.96 L496.91 -380.35 L498.39 -381.46 L500.23 -382.84 L501.69 -383.94 L503.52 -385.32 L505.35 -386.69 L506.8 -387.78 L508.61 -389.15 L510.42 -390.5 L511.85 -391.58 L513.64 -392.93 L515.43 -394.28 L516.85 -395.35 L518.61 -396.68 L520.37 -398.0 L521.77 -399.06 L523.52 -400.38 L525.25 -401.69 L526.64 -402.73 L528.36 -404.03 L530.07 -405.33 L531.43 -406.36 L533.12 -407.64 L534.81 -408.92 L536.15 -409.94 L537.82 -411.21 L539.48 -412.47 L540.8 -413.47 L542.44 -414.72 L544.08 -415.96 L545.38 -416.95 L547.0 -418.17 L548.62 -419.39 L549.9 -420.36 L551.5 -421.57 L553.09 -422.77 L554.35 -423.73 L555.93 -424.91 L557.49 -426.09 L558.74 -427.03 L560.29 -428.2 L561.83 -429.36 L563.06 -430.28 L564.58 -431.43 L566.1 -432.58 L567.3 -433.48 L568.81 -434.62 L570.3 -435.75 L571.5 -436.64 L572.98 -437.76 L574.44 -438.86 L575.61 -439.74 L577.07 -440.83 L578.51 -441.92 L579.65 -442.78 L581.07 -443.85 L582.49 -444.91 L583.61 -445.75 L585.0 -446.79 L586.38 -447.82 L587.47 -448.64 L588.83 -449.66 L589.91 -450.47 L591.25 -451.47 L592.58 -452.47 L593.63 -453.25 L594.94 -454.23 L596.23 -455.2 L597.26 -455.97 L598.53 -456.92 L599.8 -457.87 L600.8 -458.62 L602.04 -459.55 L603.27 -460.47 L604.49 -461.39 L605.46 -462.11 L606.66 -463.01 L607.62 -463.73 L608.8 -464.61 L609.97 -465.49 L610.9 -466.18 L612.05 -467.03 L613.18 -467.88 L614.07 -468.54 L615.18 -469.37 L616.27 -470.18 L617.13 -470.82 L618.19 -471.61 L619.24 -472.39 L620.07 -473.0 L621.09 -473.76 L622.1 -474.51 L622.89 -475.1 L623.87 -475.83 L624.84 -476.55 L625.6 -477.11 L626.54 -477.81 L627.46 -478.5 L628.19 -479.05 L629.08 -479.72 L629.96 -480.38 L630.65 -480.9 L631.5 -481.54 L632.33 -482.17 L632.98 -482.66 L633.78 -483.28 L634.4 -483.77 L635.16 -484.37 L635.9 -484.96 L636.48 -485.43 L637.18 -486.02 L637.86 -486.59 L638.39 -487.05 L639.03 -487.63 L639.65 -488.2 L640.13 -488.65 L640.7 -489.22 L641.26 -489.79 L641.68 -490.25 L642.19 -490.82 L642.68 -491.4 L643.06 -491.86 L643.51 -492.45 L643.94 -493.04 L644.26 -493.52 L644.65 -494.12 L645.02 -494.73 L645.29 -495.22 L645.62 -495.84 L645.93 -496.46 L646.16 -496.97 L646.43 -497.6 L646.68 -498.25 L646.86 -498.77 L647.08 -499.42 L647.28 -500.07 L647.43 -500.6 L647.59 -501.25 L647.74 -501.91 L647.85 -502.43 L647.97 -503.09 L648.07 -503.75 L648.14 -504.27 L648.21 -504.92 L648.25 -505.44 L648.29 -506.09 L648.31 -506.73 L648.31 -507.24 L648.3 -507.88 L648.28 -508.51 L648.24 -509.01 L648.19 -509.63 L648.12 -510.24 L648.05 -510.73 L647.95 -511.33 L647.84 -511.93 L647.75 -512.39 L647.61 -512.97 L647.46 -513.54 L647.33 -513.99 L647.16 -514.55 L646.98 -515.1 L646.82 -515.53 L646.61 -516.06 L646.4 -516.58 L646.21 -517.0 L645.98 -517.5 L645.74 -518.01 L645.54 -518.4 L645.28 -518.88 L645.02 -519.36 L644.81 -519.73 L644.53 -520.18 L644.25 -520.63 L644.02 -520.99 L643.71 -521.43 L643.4 -521.87 L643.14 -522.22 L642.8 -522.65 L642.46 -523.08 L642.17 -523.42 L641.8 -523.84 L641.42 -524.25 L641.11 -524.58 L640.71 -524.99 L640.37 -525.31 L639.94 -525.71 L639.49 -526.1 L639.12 -526.42 L638.65 -526.82 L638.15 -527.21 L637.75 -527.53 L637.23 -527.92 L636.69 -528.31 L636.25 -528.63 L635.68 -529.02 L635.09 -529.42 L634.61 -529.74 L633.98 -530.14 L633.34 -530.54 L632.81 -530.86 L632.13 -531.27 L631.44 -531.68 L630.86 -532.01 L630.12 -532.42 L629.36 -532.83 L628.74 -533.15 L627.95 -533.56 L627.13 -533.96 L626.47 -534.27 L625.63 -534.66 L624.77 -535.04 L624.07 -535.34 L623.2 -535.71 L622.31 -536.06 L621.59 -536.34 L620.69 -536.67 L619.77 -537.0 L619.04 -537.25 L618.1 -537.56 L617.35 -537.8 L616.4 -538.09 L615.43 -538.36 L614.47 -538.63 L613.68 -538.83 L612.69 -539.06 L611.89 -539.24 L610.88 -539.46 L609.86 -539.65 L609.03 -539.8 L607.99 -539.97 L606.93 -540.13 L606.07 -540.24 L604.99 -540.37 L603.91 -540.49 L603.03 -540.56 L601.93 -540.65 L600.83 -540.71 L599.94 -540.75 L598.83 -540.77 L597.7 -540.77 L596.8 -540.76 L595.66 -540.73 L594.51 -540.67 L593.59 -540.62 L592.44 -540.53 L591.51 -540.44 L590.35 -540.32 L589.18 -540.18 L588.01 -540.01 L587.07 -539.86 L585.89 -539.66 L584.95 -539.49 L583.76 -539.24 L582.57 -538.97 L581.61 -538.74 L580.41 -538.43 L579.2 -538.1 L578.23 -537.81 L577.01 -537.44 L575.79 -537.04 L574.81 -536.71 L573.59 -536.27 L572.37 -535.81 L571.39 -535.42 L570.16 -534.91 L568.92 -534.38 L567.92 -533.93 L566.66 -533.36 L565.39 -532.76 L564.37 -532.27 L563.08 -531.63 L561.78 -530.98 L560.73 -530.43 L559.4 -529.74 L558.06 -529.02 L556.98 -528.43 L555.61 -527.67 L554.23 -526.88 L553.13 -526.24 L551.74 -525.41 L550.33 -524.56 L549.2 -523.85 L547.77 -522.95 L546.32 -522.02 L545.15 -521.25 L543.68 -520.29 L542.19 -519.3 L540.99 -518.5 L539.48 -517.48 L537.95 -516.46 L536.73 -515.62 L535.2 -514.57 L533.67 -513.51 L532.45 -512.66 L530.93 -511.57 L529.42 -510.46 L528.22 -509.57 L526.73 -508.43 L525.53 -507.51 L524.05 -506.34 L522.56 -505.16 L521.39 -504.21 L519.93 -503.02 L518.49 -501.83 L517.36 -500.87 L515.95 -499.66 L514.57 -498.45 L513.49 -497.48 L512.14 -496.26 L510.82 -495.04 L509.78 -494.06 L508.49 -492.83 L507.22 -491.61 L506.22 -490.63 L504.99 -489.4 L503.78 -488.18 L502.82 -487.2 L501.64 -485.97 L500.71 -485.0 L499.57 -483.78 L498.44 -482.56 L497.55 -481.6 L496.44 -480.39 L495.34 -479.2 L494.48 -478.25 L493.4 -477.07 L492.33 -475.9 L491.49 -474.98 L490.44 -473.83 L489.4 -472.69 L488.57 -471.78 L487.54 -470.65 L486.53 -469.54 L485.72 -468.65 L484.73 -467.56 L483.74 -466.48 L482.97 -465.63 L482.01 -464.57 L481.06 -463.52 L480.31 -462.7 L479.39 -461.68 L478.48 -460.67 L477.77 -459.88 L476.89 -458.89 L476.02 -457.92 L475.33 -457.16 L474.49 -456.21 L473.82 -455.46 L473.0 -454.54 L472.19 -453.63 L471.4 -452.74 L470.77 -452.03 L469.99 -451.16 L469.23 -450.31 L468.63 -449.63 L467.89 -448.8 L467.3 -448.15 L466.58 -447.35 L465.87 -446.57 L465.3 -445.95 L464.61 -445.19 L463.93 -444.44 L463.39 -443.85 L462.72 -443.12 L462.06 -442.39 L461.53 -441.83 L460.87 -441.13 L460.34 -440.58 L459.67 -439.9 L458.99 -439.25 L458.44 -438.74 L457.74 -438.13 L457.04 -437.53 L456.48 -437.08 L455.77 -436.53 L455.05 -436.01 L454.47 -435.61 L453.75 -435.13 L453.16 -434.76 L452.41 -434.32 L451.66 -433.9 L451.05 -433.58 L450.29 -433.2 L449.51 -432.84 L448.89 -432.57 L448.1 -432.25 L447.31 -431.94 L446.68 -431.72 L445.88 -431.45 L445.07 -431.21 L444.43 -431.03 L443.62 -430.83 L442.81 -430.65 L442.16 -430.51 L441.34 -430.37 L440.53 -430.24 L439.88 -430.16 L439.07 -430.07 L438.25 -430.0 L437.6 -429.96 L436.8 -429.93 L435.99 -429.92 L435.35 -429.92 L434.55 -429.94 L433.75 -429.98 L433.12 -430.03 L432.33 -430.1 L431.54 -430.19 L430.92 -430.27 L430.15 -430.4 L429.38 -430.54 L428.77 -430.67 L428.01 -430.85 L427.26 -431.05 L426.67 -431.23 L425.93 -431.46 L425.2 -431.72 L424.62 -431.94 L423.91 -432.23 L423.2 -432.54 L422.64 -432.79 L421.95 -433.13 L421.41 -433.41 L420.74 -433.78 L420.08 -434.16 L419.56 -434.48 L418.93 -434.89 L418.3 -435.32 L417.81 -435.67 L417.21 -436.12 L416.62 -436.58 L416.15 -436.96 L415.58 -437.45 L415.02 -437.95 L414.57 -438.36 L414.03 -438.89 L413.49 -439.43 L413.07 -439.87 L412.55 -440.43 L412.03 -441.0 L411.63 -441.46 L411.13 -442.04 L410.63 -442.64 L410.24 -443.12 L409.75 -443.72 L409.36 -444.21 L408.88 -444.83 L408.38 -445.46 L407.99 -445.97 L407.5 -446.61 L407.0 -447.27 L406.6 -447.8 L406.1 -448.47 L405.6 -449.15 L405.19 -449.7 L404.68 -450.4 L404.18 -451.12 L403.77 -451.7 L403.25 -452.43 L402.74 -453.18 L402.32 -453.79 L401.79 -454.56 L401.26 -455.34 L400.83 -455.98 L400.29 -456.8 L399.86 -457.46 L399.31 -458.3 L398.77 -459.17 L398.34 -459.88 L397.8 -460.78 L397.26 -461.71 L396.84 -462.47 L396.32 -463.44 L395.81 -464.42 L395.41 -465.22 L394.91 -466.25 L394.4 -467.29 L394.0 -468.14 L393.5 -469.23 L392.99 -470.34 L392.59 -471.24 L392.09 -472.38 L391.59 -473.54 L391.2 -474.47 L390.72 -475.65 L390.26 -476.84 L389.9 -477.8 L389.46 -479.01 L389.04 -480.22 L388.72 -481.2 L388.33 -482.44 L387.96 -483.68 L387.68 -484.68 L387.34 -485.93 L387.03 -487.19 L386.78 -488.2 L386.5 -489.47 L386.23 -490.75 L386.02 -491.77 L385.78 -493.05 L385.56 -494.33 L385.39 -495.36 L385.2 -496.65 L385.06 -497.68 L384.91 -498.98 L384.78 -500.28 L384.66 -501.58 L384.59 -502.63 L384.51 -503.94 L384.45 -505.25 L384.41 -506.3 L384.39 -507.62 L384.38 -508.94 L384.38 -510.0 L384.4 -511.32 L384.44 -512.65 L384.49 -513.71 L384.57 -515.05 L384.66 -516.38 L384.75 -517.45 L384.89 -518.79 L385.01 -519.86 L385.17 -521.2 L385.36 -522.54 L385.53 -523.61 L385.75 -524.95 L385.99 -526.28 L386.2 -527.35 L386.48 -528.68 L386.78 -530.02 L387.03 -531.08 L387.37 -532.4 L387.73 -533.73 L388.03 -534.79 L388.42 -536.1 L388.84 -537.42 L389.19 -538.46 L389.64 -539.77 L390.1 -541.07 L390.49 -542.1 L390.99 -543.39 L391.51 -544.68 L391.94 -545.7 L392.49 -546.97 L393.06 -548.24 L393.53 -549.24 L394.14 -550.49 L394.76 -551.72 L395.28 -552.7 L395.95 -553.91 L396.65 -555.12 L397.22 -556.07 L397.96 -557.26 L398.57 -558.2 L399.35 -559.36 L400.15 -560.52 L400.98 -561.66 L401.65 -562.56 L402.5 -563.69 L403.2 -564.58 L404.08 -565.69 L404.98 -566.79 L405.71 -567.67 L406.64 -568.76 L407.59 -569.83 L408.36 -570.68 L409.34 -571.74 L410.35 -572.78 L411.16 -573.61 L412.2 -574.63 L413.26 -575.64 L414.12 -576.44 L415.22 -577.43 L416.33 -578.42 L417.24 -579.2 L418.38 -580.18 L419.55 -581.16 L420.5 -581.94 L421.7 -582.92 L422.92 -583.89 L423.91 -584.67 L425.16 -585.64 L426.43 -586.59 L427.46 -587.35 L428.76 -588.29 L430.07 -589.21 L431.13 -589.93 L432.46 -590.83 L433.79 -591.72 L434.86 -592.42 L436.2 -593.27 L437.53 -594.11 L438.59 -594.76 L439.92 -595.55 L441.24 -596.32 L442.29 -596.92 L443.61 -597.65 L444.92 -598.37 L445.97 -598.93 L447.27 -599.61 L448.31 -600.13 L449.6 -600.77 L450.88 -601.39 L451.9 -601.86 L453.16 -602.44 L454.41 -603.0 L455.4 -603.43 L456.63 -603.95 L457.84 -604.46 L458.8 -604.85 L459.99 -605.33 L461.16 -605.8 L462.32 -606.25 L463.23 -606.6 L464.36 -607.03 L465.25 -607.37 L466.35 -607.78 L467.44 -608.18 L468.5 -608.57 L469.34 -608.87 L470.38 -609.24 L471.2 -609.53 L472.2 -609.89 L473.19 -610.24 L473.96 -610.52 L474.91 -610.86 L475.83 -611.2 L476.56 -611.47 L477.44 -611.82 L478.3 -612.17 L478.98 -612.45 L479.81 -612.8 L480.61 -613.17 L481.24 -613.47 L482.02 -613.85 L482.77 -614.24 L483.37 -614.56 L484.1 -614.97 L484.82 -615.4 L485.39 -615.74 L486.08 -616.19 L486.75 -616.65 L487.28 -617.02 L487.93 -617.51 L488.57 -618.01 L489.07 -618.42 L489.68 -618.94 L490.29 -619.48 L490.76 -619.91 L491.33 -620.47 L491.9 -621.04 L492.34 -621.5 L492.88 -622.09 L493.41 -622.69 L493.82 -623.17 L494.32 -623.78 L494.81 -624.4 L495.19 -624.9 L495.66 -625.54 L496.02 -626.05 L496.45 -626.7 L496.88 -627.35 L497.29 -628.01 L497.6 -628.54 L497.98 -629.22 L498.35 -629.89 L498.64 -630.44 L498.98 -631.12 L499.24 -631.68 L499.56 -632.37 L499.86 -633.07 L500.14 -633.77 L500.36 -634.33 L500.62 -635.04 L500.86 -635.75 L501.04 -636.32 L501.26 -637.03 L501.42 -637.6 L501.61 -638.32 L501.79 -639.04 L501.92 -639.62 L502.07 -640.33 L502.2 -641.06 L502.3 -641.63 L502.41 -642.35 L502.5 -643.07 L502.57 -643.65 L502.64 -644.37 L502.7 -645.09 L502.74 -645.66 L502.78 -646.37 L502.81 -647.09 L502.82 -647.66 L502.82 -648.36 L502.82 -649.06 L502.8 -649.62 L502.77 -650.32 L502.73 -651.01 L502.68 -651.56 L502.61 -652.25 L502.53 -652.93 L502.46 -653.47 L502.36 -654.13 L502.24 -654.8 L502.14 -655.32 L502.0 -655.97 L501.85 -656.62 L501.72 -657.13 L501.55 -657.76 L501.37 -658.38 L501.22 -658.87 L501.01 -659.48 L500.8 -660.08 L500.62 -660.56 L500.39 -661.14 L500.14 -661.72 L499.94 -662.17 L499.69 -662.73 L499.42 -663.28 L499.21 -663.72 L498.93 -664.25 L498.65 -664.78 L498.43 -665.19 L498.14 -665.7 L497.84 -666.2 L497.6 -666.59 L497.29 -667.08 L497.04 -667.47 L496.72 -667.95 L496.39 -668.43 L496.12 -668.82 L495.77 -669.3 L495.42 -669.78 L495.13 -670.16 L494.76 -670.64 L494.38 -671.13 L494.06 -671.53 L493.65 -672.02 L493.23 -672.53 L492.88 -672.94 L492.43 -673.45 L491.97 -673.98 L491.59 -674.4 L491.1 -674.94 L490.6 -675.5 L490.18 -675.95 L489.65 -676.53 L489.1 -677.13 L488.64 -677.61 L488.06 -678.24 L487.46 -678.88 L486.97 -679.4 L486.33 -680.07 L485.68 -680.76 L485.14 -681.33 L484.45 -682.05 L483.73 -682.79 L483.15 -683.4 L482.39 -684.17 L481.77 -684.81 L480.98 -685.62 L480.16 -686.44 L479.32 -687.29 L478.63 -687.97 L477.74 -688.85 L476.83 -689.73 L476.09 -690.45 L475.14 -691.36 L474.37 -692.09 L473.38 -693.01 L472.38 -693.93 L471.57 -694.68 L470.54 -695.61 L469.5 -696.54 L468.66 -697.3 L467.59 -698.24 L466.51 -699.18 L465.63 -699.94 L464.53 -700.88 L463.41 -701.83 L462.51 -702.58 L461.37 -703.52 L460.22 -704.45 L459.3 -705.2 L458.14 -706.12 L456.98 -707.03 L456.04 -707.76 L454.87 -708.66 L453.69 -709.56 L452.74 -710.27 L451.55 -711.15 L450.36 -712.03 L449.4 -712.73 L448.19 -713.59 L446.98 -714.45 L446.01 -715.13 L444.8 -715.98 L443.58 -716.82 L442.6 -717.48 L441.37 -718.31 L440.14 -719.12 L439.15 -719.77 L437.9 -720.57 L436.65 -721.37 L435.65 -722.0 L434.4 -722.79 L433.14 -723.57 L432.13 -724.19 L430.87 -724.97 L429.85 -725.58 L428.58 -726.35 L427.31 -727.12 L426.3 -727.73 L425.02 -728.49 L423.75 -729.25 L422.73 -729.86 L421.45 -730.61 L420.18 -731.37 L419.16 -731.97 L417.88 -732.72 L416.6 -733.48 L415.58 -734.08 L414.3 -734.84 L413.02 -735.61 L412.0 -736.22 L410.72 -737.0 L409.43 -737.78 L408.41 -738.41 L407.12 -739.21 L405.83 -740.01 L404.79 -740.65 L403.5 -741.46 L402.21 -742.28 L401.17 -742.94 L399.86 -743.76 L398.53 -744.6 L397.46 -745.27 L396.1 -746.12 L394.72 -746.99 L393.6 -747.69 L392.19 -748.57 L390.76 -749.46 L389.6 -750.18 L388.14 -751.09 L386.97 -751.83 L385.49 -752.75 L384.01 -753.67 L382.83 -754.41 L381.37 -755.32 L379.92 -756.23 L378.76 -756.96 L377.33 -757.85 L375.9 -758.74 L374.77 -759.44 L373.36 -760.31 L371.96 -761.18 L370.85 -761.86 L369.48 -762.72 L368.11 -763.57 L367.03 -764.24 L365.68 -765.08 L364.34 -765.91 L363.27 -766.56 L361.95 -767.38 L360.64 -768.19 L359.6 -768.83 L358.31 -769.63 L357.03 -770.42 L356.01 -771.05 L354.74 -771.83 L353.73 -772.45 L352.49 -773.22 L351.26 -773.98 L350.04 -774.73 L349.07 -775.33 L347.88 -776.07 L346.94 -776.65 L345.77 -777.38 L344.62 -778.09 L343.71 -778.65 L342.58 -779.35 L341.47 -780.04 L340.59 -780.58 L339.51 -781.26 L338.44 -781.92 L337.59 -782.45 L336.55 -783.1 L335.53 -783.75 L334.72 -784.26 L333.72 -784.89 L332.74 -785.51 L331.96 -786.0 L331.01 -786.61 L330.06 -787.21 L329.32 -787.68 L328.41 -788.27 L327.51 -788.85 L326.81 -789.3 L325.94 -789.87 L325.09 -790.42 L324.42 -790.86 L323.59 -791.39 L322.78 -791.92 L322.15 -792.34 L321.37 -792.85 L320.6 -793.35 L320.0 -793.75 L319.26 -794.23 L318.54 -794.71 L317.97 -795.08 L317.28 -795.54 L316.6 -795.99 L316.07 -796.35 L315.42 -796.78 L314.78 -797.2 L314.29 -797.53 L313.68 -797.93 L313.21 -798.24 L312.63 -798.63 L312.07 -798.99 L311.63 -799.28 L311.09 -799.63 L310.57 -799.96 L310.16 -800.22 L309.65 -800.53 L309.17 -800.82 L308.79 -801.05 L308.32 -801.32 L307.87 -801.59 L307.52 -801.79 L307.09 -802.03 L306.68 -802.26 L306.36 -802.43 L305.97 -802.64 L305.6 -802.83 L305.31 -802.98 L304.96 -803.15 L304.63 -803.31 L304.37 -803.43 L304.06 -803.57 L303.76 -803.7 L303.53 -803.79 L303.26 -803.89 L303.01 -803.98 L302.82 -804.05 L302.59 -804.12 L302.37 -804.19 L302.2 -804.23 L302.0 -804.29 L301.8 -804.33 L301.65 -804.37 L301.46 -804.4 L301.27 -804.44 L301.12 -804.46 L300.93 -804.48 L300.74 -804.51 L300.58 -804.52 L300.39 -804.53 L300.19 -804.54 L300.03 -804.55 L299.83 -804.55 L299.67 -804.55 L299.47 -804.54 L299.26 -804.52 L299.1 -804.51 L298.89 -804.49 L298.69 -804.46 L298.52 -804.44 L298.32 -804.4 L298.11 -804.36 L297.94 -804.32 L297.73 -804.27 L297.52 -804.21 L297.35 -804.16 L297.14 -804.09 L296.93 -804.01 L296.76 -803.95 L296.55 -803.86 L296.34 -803.77 L296.17 -803.69 L295.96 -803.59 L295.75 -803.48 L295.58 -803.4 L295.37 -803.28 L295.16 -803.16 L294.99 -803.06 L294.78 -802.94 L294.61 -802.84 L294.4 -802.7 L294.18 -802.57 L294.01 -802.46 L293.8 -802.32 L293.58 -802.17 L293.4 -802.05 L293.17 -801.89 L292.92 -801.72 L292.72 -801.58 L292.45 -801.39 L292.16 -801.2 L291.93 -801.04 L291.62 -800.82 L291.3 -800.6 L291.02 -800.41 L290.67 -800.17 L290.3 -799.91 L290.0 -799.7 L289.6 -799.43 L289.19 -799.14 L288.84 -798.9 L288.4 -798.59 L287.93 -798.27 L287.55 -798.01 L287.05 -797.66 L286.53 -797.3 L286.1 -797.01 L285.54 -796.62 L285.09 -796.31 L284.49 -795.9 L283.88 -795.48 L283.38 -795.13 L282.74 -794.69 L282.07 -794.23 L281.53 -793.86 L280.84 -793.38 L280.13 -792.89 L279.55 -792.49 L278.81 -791.98 L278.06 -791.46 L277.44 -791.04 L276.66 -790.5 L275.87 -789.95 L275.22 -789.5 L274.39 -788.93 L273.55 -788.35 L272.87 -787.88 L271.99 -787.28 L271.11 -786.66 L270.38 -786.16 L269.46 -785.53 L268.52 -784.88 L267.76 -784.35 L266.79 -783.68 L265.8 -783.0 L265.0 -782.44 L263.99 -781.74 L262.96 -781.02 L262.12 -780.44 L261.06 -779.7 L259.98 -778.95 L259.11 -778.35 L258.01 -777.58 L256.89 -776.8 L255.98 -776.18 L254.84 -775.38 L253.92 -774.74 L252.75 -773.93 L251.57 -773.11 L250.38 -772.29 L249.42 -771.62 L248.2 -770.77 L247.22 -770.09 L245.98 -769.23 L244.72 -768.36 L243.45 -767.48 L242.43 -766.77 L241.13 -765.88 L239.83 -764.97 L238.77 -764.24 L237.44 -763.32 L236.37 -762.58 L235.01 -761.65 L233.64 -760.71 L232.53 -759.94 L231.13 -758.98 L229.72 -758.01 L228.58 -757.23 L227.13 -756.24 L225.67 -755.24 L224.49 -754.43 L223.0 -753.41 L221.49 -752.38 L220.27 -751.54 L218.73 -750.49 L217.17 -749.43 L215.91 -748.57 L214.3 -747.48 L212.68 -746.38 L211.36 -745.49 L209.7 -744.36 L208.01 -743.21 L206.64 -742.28 L204.91 -741.1 L203.15 -739.91 L201.74 -738.95 L199.94 -737.73 L198.13 -736.49 L196.66 -735.49 L194.81 -734.23 L192.94 -732.95 L191.43 -731.92 L189.53 -730.61 L187.61 -729.29 L186.06 -728.23 L184.12 -726.9 L182.18 -725.57 L180.63 -724.5 L178.69 -723.17 L176.77 -721.84 L175.23 -720.78 L173.32 -719.46 L171.41 -718.15 L169.9 -717.1 L168.01 -715.79 L166.12 -714.48 L164.62 -713.44 L162.75 -712.15 L160.89 -710.86 L159.41 -709.84 L157.56 -708.56 L156.08 -707.54 L154.25 -706.28 L152.42 -705.02 L150.6 -703.77 L149.15 -702.78 L147.34 -701.54 L145.55 -700.31 L144.12 -699.33 L142.33 -698.11 L140.56 -696.9 L139.15 -695.93 L137.39 -694.74 L135.64 -693.55 L134.25 -692.6 L132.52 -691.42 L130.79 -690.25 L129.42 -689.32 L127.72 -688.16 L126.02 -687.01 L124.67 -686.1 L122.99 -684.96 L121.32 -683.83 L120.0 -682.93 L118.35 -681.81 L116.71 -680.69 L115.41 -679.8 L113.79 -678.69 L112.19 -677.59 L110.92 -676.71 L109.33 -675.61 L107.77 -674.51 L106.53 -673.63 L105.0 -672.52 L103.79 -671.64 L102.29 -670.52 L100.8 -669.4 L99.34 -668.27 L98.18 -667.37 L96.74 -666.25 L95.61 -665.34 L94.21 -664.21 L92.83 -663.08 L91.74 -662.18 L90.39 -661.04 L89.07 -659.91 L88.02 -658.99 L86.73 -657.85 L85.45 -656.71 L84.44 -655.79 L83.19 -654.63 L81.96 -653.48 L80.98 -652.55 L79.77 -651.38 L78.57 -650.21 L77.62 -649.26 L76.45 -648.08 L75.28 -646.88 L74.36 -645.91 L73.21 -644.7 L72.3 -643.72 L71.17 -642.5 L70.05 -641.26 L69.16 -640.27 L68.05 -639.02 L66.96 -637.76 L66.09 -636.75 L65.0 -635.47 L63.92 -634.19 L63.07 -633.16 L62.0 -631.87 L60.94 -630.57 L60.1 -629.52 L59.05 -628.21 L58.01 -626.89 L57.19 -625.83 L56.16 -624.49 L55.15 -623.15 L54.34 -622.06 L53.34 -620.71 L52.35 -619.34 L51.56 -618.24 L50.59 -616.85 L49.64 -615.46 L48.88 -614.34 L47.94 -612.92 L47.02 -611.5 L46.29 -610.35 L45.39 -608.91 L44.68 -607.75 L43.8 -606.28 L42.93 -604.81 L42.25 -603.62 L41.39 -602.13 L40.55 -600.63 L39.87 -599.42 L39.03 -597.91 L38.2 -596.39 L37.53 -595.17 L36.7 -593.64 L35.87 -592.1 L35.2 -590.85 L34.36 -589.29 L33.51 -587.71 L32.83 -586.44 L31.97 -584.84 L31.11 -583.22 L30.41 -581.91 L29.53 -580.27 L28.64 -578.61 L27.92 -577.26 L27.01 -575.57 L26.09 -573.86 L25.35 -572.47 L24.41 -570.73 L23.46 -568.96 L22.7 -567.54 L21.73 -565.74 L20.75 -563.92 L19.96 -562.45 L18.97 -560.59 L17.96 -558.71 L17.15 -557.2 L16.13 -555.29 L15.3 -553.75 L14.26 -551.81 L13.22 -549.85 L12.17 -547.89 L11.33 -546.33 L10.29 -544.38 L9.46 -542.83 L8.43 -540.9 L7.41 -538.97 L6.59 -537.44 L5.58 -535.54 L4.57 -533.64 L3.77 -532.13 L2.77 -530.25 L1.79 -528.39 L1.0 -526.9 L0.02 -525.05 L-0.95 -523.21 L-1.72 -521.74 L-2.68 -519.92 L-3.63 -518.1 L-4.39 -516.66 L-5.33 -514.86 L-6.26 -513.08 L-7.01 -511.66 L-7.93 -509.89 L-8.85 -508.13 L-9.58 -506.74 L-10.49 -505.0 L-11.4 -503.27 L-12.11 -501.89 L-13.01 -500.18 L-13.71 -498.82 L-14.6 -497.12 L-15.48 -495.44 L-16.18 -494.09 L-17.05 -492.42 L-17.91 -490.76 L-18.59 -489.45 L-19.44 -487.81 L-20.28 -486.18 L-20.94 -484.89 L-21.77 -483.28 L-22.58 -481.68 L-23.23 -480.41 L-24.03 -478.84 L-24.8 -477.27 L-25.41 -476.02 L-26.15 -474.47 L-26.87 -472.93 L-27.42 -471.69 L-28.09 -470.16 L-28.73 -468.64 L-29.22 -467.42 L-29.82 -465.89 L-30.39 -464.36 L-30.83 -463.13 L-31.36 -461.58 L-31.77 -460.34 L-32.26 -458.78 L-32.74 -457.22 L-33.1 -455.96 L-33.55 -454.39 L-33.97 -452.81 L-34.29 -451.54 L-34.67 -449.95 L-35.03 -448.36 L-35.3 -447.08 L-35.61 -445.47 L-35.89 -443.86 L-36.1 -442.56 L-36.34 -440.94 L-36.55 -439.31 L-36.69 -438.0 L-36.86 -436.36 L-36.99 -434.71 L-37.09 -433.39 L-37.18 -431.73 L-37.24 -430.4 L-37.29 -428.73 L-37.32 -427.05 L-37.33 -425.71 L-37.32 -424.03 L-37.3 -422.34 L-37.26 -420.98 L-37.2 -419.29 L-37.12 -417.59 L-37.04 -416.22 L-36.92 -414.5 L-36.79 -412.76 L-36.68 -411.36 L-36.53 -409.59 L-36.37 -407.8 L-36.23 -406.35 L-36.06 -404.53 L-35.88 -402.69 L-35.73 -401.21 L-35.55 -399.33 L-35.35 -397.42 L-35.2 -395.89 L-35.0 -393.95 L-34.83 -392.38 L-34.62 -390.39 L-34.41 -388.39 L-34.24 -386.76 L-34.02 -384.71 L-33.79 -382.63 L-33.6 -380.94 L-33.37 -378.81 L-33.13 -376.65 L-32.94 -374.91 L-32.69 -372.71 L-32.44 -370.48 L-32.24 -368.69 L-31.99 -366.44 L-31.73 -364.18 L-31.53 -362.37 L-31.27 -360.12 L-31.01 -357.88 L-30.81 -356.1 L-30.56 -353.88 L-30.3 -351.67 L-30.1 -349.91 L-29.85 -347.72 L-29.65 -345.97 L-29.4 -343.8 L-29.15 -341.64 L-28.95 -339.92 L-28.7 -337.78 L-28.46 -335.65 L-28.26 -333.95 L-28.02 -331.84 L-27.78 -329.74 L-27.59 -328.07 L-27.34 -326.0 L-27.1 -323.93 L-26.91 -322.28 L-26.68 -320.24 L-26.44 -318.2 L-26.26 -316.58 L-26.03 -314.57 L-25.81 -312.57 L-25.63 -310.97 L-25.4 -308.99 L-25.22 -307.42 L-25.0 -305.46 L-24.78 -303.51 L-24.6 -301.95 L-24.39 -300.02 L-24.19 -298.08 L-24.03 -296.53 L-23.83 -294.61 L-23.64 -292.7 L-23.5 -291.18 L-23.33 -289.29 L-23.2 -287.78 L-23.07 -285.9 L-22.95 -284.02 L-22.87 -282.53 L-22.78 -280.67 L-22.72 -278.81 L-22.68 -277.34 L-22.65 -275.5 L-22.64 -273.66 L-22.65 -272.2 L-22.67 -270.38 L-22.7 -268.58 L-22.75 -267.14 L-22.82 -265.34 L-22.91 -263.56 L-22.99 -262.14 L-23.11 -260.37 L-23.25 -258.62 L-23.37 -257.22 L-23.53 -255.48 L-23.72 -253.75 L-23.88 -252.38 L-24.09 -250.67 L-24.32 -248.98 L-24.52 -247.63 L-24.78 -245.96 L-25.06 -244.29 L-25.29 -242.97 L-25.6 -241.33 L-25.92 -239.7 L-26.19 -238.41 L-26.54 -236.81 L-26.84 -235.53 L-27.21 -233.95 L-27.6 -232.39 L-27.92 -231.15 L-28.33 -229.61 L-28.75 -228.08 L-29.09 -226.87 L-29.52 -225.37 L-29.96 -223.88 L-30.32 -222.7 L-30.78 -221.23 L-31.24 -219.78 L-31.61 -218.63 L-32.08 -217.21 L-32.55 -215.79 L-32.94 -214.67 L-33.44 -213.28 L-33.94 -211.91 L-34.36 -210.82 L-34.88 -209.47 L-35.42 -208.14 L-35.85 -207.09 L-36.4 -205.78 L-36.96 -204.5 L-37.42 -203.48 L-38.0 -202.22 L-38.58 -200.98 L-39.05 -200.01 L-39.64 -198.8 L-40.23 -197.62 L-40.71 -196.68 L-41.3 -195.52 L-41.89 -194.37 L-42.36 -193.47 L-42.95 -192.35 L-43.53 -191.25 L-44.0 -190.38 L-44.58 -189.3 L-45.16 -188.24 L-45.61 -187.4 L-46.17 -186.36 L-46.73 -185.33 L-47.17 -184.52 L-47.74 -183.51 L-48.19 -182.71 L-48.77 -181.74 L-49.36 -180.78 L-49.83 -180.02 L-50.43 -179.1 L-51.04 -178.19 L-51.54 -177.47 L-52.16 -176.6 L-52.8 -175.74 L-53.31 -175.07 L-53.96 -174.24 L-54.62 -173.44 L-55.15 -172.81 L-55.82 -172.04 L-56.49 -171.29 L-57.03 -170.7 L-57.71 -169.98 L-58.39 -169.28 L-58.94 -168.73 L-59.63 -168.06 L-60.33 -167.41 L-60.89 -166.9 L-61.6 -166.28 L-62.32 -165.68 L-62.9 -165.21 L-63.63 -164.65 L-64.37 -164.11 L-64.97 -163.69 L-65.73 -163.19 L-66.34 -162.81 L-67.11 -162.34 L-67.89 -161.91 L-68.52 -161.57 L-69.32 -161.17 L-70.13 -160.8 L-70.78 -160.52 L-71.61 -160.18 L-72.44 -159.87 L-73.12 -159.64 L-73.97 -159.37 L-74.83 -159.13 L-75.52 -158.95 L-76.39 -158.75 L-77.27 -158.57 L-77.97 -158.44 L-78.86 -158.31 L-79.75 -158.19 L-80.47 -158.12 L-81.36 -158.04 L-82.26 -157.99 L-82.97 -157.95 L-83.87 -157.93 L-84.77 -157.92 L-85.49 -157.93 L-86.38 -157.95 L-87.28 -157.98 L-87.99 -158.03 L-88.88 -158.1 L-89.59 -158.18 L-90.47 -158.29 L-91.35 -158.43 L-92.05 -158.55 L-92.91 -158.73 L-93.77 -158.92 L-94.45 -159.1 L-95.3 -159.33 L-96.14 -159.59 L-96.8 -159.81 L-97.62 -160.11 L-98.43 -160.42 L-99.07 -160.69 L-99.86 -161.04 L-100.64 -161.41 L-101.25 -161.72 L-102.01 -162.13 L-102.75 -162.55 L-103.33 -162.9 L-104.05 -163.36 L-104.76 -163.82 L-105.31 -164.21 L-105.99 -164.7 L-106.66 -165.2 L-107.19 -165.62 L-107.84 -166.15 L-108.47 -166.71 L-108.98 -167.16 L-109.59 -167.74 L-110.2 -168.34 L-110.67 -168.83 L-111.26 -169.45 L-111.83 -170.08 L-112.29 -170.59 L-112.85 -171.24 L-113.4 -171.91 L-113.83 -172.45 L-114.38 -173.13 L-114.81 -173.69 L-115.36 -174.4 L-115.9 -175.13 L-116.34 -175.72 L-116.9 -176.47 L-117.46 -177.24 L-117.91 -177.87 L-118.49 -178.67 L-119.07 -179.49 L-119.55 -180.16 L-120.15 -181.01 L-120.76 -181.88 L-121.27 -182.58 L-121.9 -183.48 L-122.55 -184.4 L-123.08 -185.15 L-123.76 -186.1 L-124.45 -187.07 L-125.01 -187.86 L-125.72 -188.87 L-126.44 -189.89 L-127.03 -190.72 L-127.78 -191.78 L-128.54 -192.85 L-129.16 -193.73 L-129.95 -194.84 L-130.75 -195.97 L-131.4 -196.88 L-132.23 -198.05 L-133.07 -199.23 L-133.75 -200.19 L-134.61 -201.41 L-135.49 -202.64 L-136.21 -203.65 L-137.11 -204.92 L-138.02 -206.2 L-138.76 -207.25 L-139.7 -208.56 L-140.46 -209.63 L-141.42 -210.98 L-142.39 -212.34 L-143.18 -213.45 L-144.16 -214.84 L-145.16 -216.24 L-145.97 -217.38 L-146.99 -218.81 L-148.02 -220.27 L-148.86 -221.44 L-149.91 -222.93 L-150.98 -224.43 L-151.84 -225.65 L-152.93 -227.19 L-154.03 -228.75 L-154.92 -230.01 L-156.03 -231.59 L-156.93 -232.86 L-158.05 -234.45 L-159.17 -236.04 L-160.07 -237.31 L-161.2 -238.9 L-162.32 -240.49 L-163.21 -241.76 L-164.33 -243.34 L-165.44 -244.91 L-166.33 -246.17 L-167.43 -247.73 L-168.31 -248.97 L-169.4 -250.52 L-170.48 -252.05 L-171.34 -253.28 L-172.41 -254.8 L-173.47 -256.31 L-174.32 -257.51 L-175.37 -259.0 L-176.42 -260.49 L-177.25 -261.67 L-178.28 -263.13 L-179.3 -264.58 L-180.12 -265.74 L-181.14 -267.17 L-182.15 -268.59 L-182.95 -269.72 L-183.95 -271.13 L-184.93 -272.52 L-185.72 -273.62 L-186.7 -274.99 L-187.66 -276.36 L-188.43 -277.44 L-189.39 -278.77 L-190.34 -280.1 L-191.09 -281.16 L-192.03 -282.46 L-192.96 -283.76 L-193.7 -284.79 L-194.62 -286.07 L-195.54 -287.33 L-196.26 -288.33 L-197.17 -289.57 L-198.07 -290.79 L-198.79 -291.76 L-199.69 -292.96 L-200.58 -294.15 L-201.29 -295.09 L-202.18 -296.24 L-203.07 -297.39 L-203.78 -298.3 L-204.66 -299.42 L-205.54 -300.52 L-206.24 -301.4 L-207.11 -302.47 L-207.98 -303.53 L-208.68 -304.37 L-209.55 -305.39 L-210.43 -306.39 L-211.13 -307.18 L-212.01 -308.14 L-212.72 -308.9 L-213.62 -309.83 L-214.53 -310.75 L-215.27 -311.47 L-216.19 -312.36 L-217.13 -313.24 L-217.9 -313.92 L-218.86 -314.76 L-219.83 -315.59 L-220.62 -316.23 L-221.62 -317.02 L-222.63 -317.8 L-223.45 -318.4 L-224.49 -319.15 L-225.53 -319.87 L-226.38 -320.44 L-227.44 -321.15 L-228.52 -321.83 L-229.38 -322.37 L-230.47 -323.03 L-231.57 -323.67 L-232.45 -324.18 L-233.56 -324.79 L-234.68 -325.4 L-235.58 -325.86 L-236.7 -326.44 L-237.84 -326.99 L-238.76 -327.43 L-239.9 -327.95 L-241.06 -328.46 L-241.99 -328.86 L-243.15 -329.34 L-244.32 -329.81 L-245.26 -330.17 L-246.44 -330.6 L-247.63 -331.02 L-248.58 -331.34 L-249.77 -331.72 L-250.97 -332.09 L-251.93 -332.37 L-253.13 -332.7 L-254.34 -333.01 L-255.31 -333.24 L-256.52 -333.52 L-257.74 -333.77 L-258.71 -333.96 L-259.93 -334.18 L-261.15 -334.38 L-262.13 -334.52 L-263.36 -334.68 L-264.59 -334.83 L-265.57 -334.93 L-266.8 -335.04 L-268.03 -335.14 L-269.01 -335.21 L-270.24 -335.28 L-271.47 -335.33 L-272.45 -335.36 L-273.68 -335.38 L-274.9 -335.39 L-275.88 -335.38 L-277.11 -335.36 L-278.33 -335.32 L-279.31 -335.28 L-280.54 -335.21 L-281.52 -335.15 L-282.75 -335.06 L-283.98 -334.95 L-285.21 -334.83 L-286.2 -334.72 L-287.43 -334.57 L-288.42 -334.44 L-289.65 -334.27 L-290.88 -334.08 L-291.87 -333.91 L-293.1 -333.69 L-294.34 -333.46 L-295.34 -333.26 L-296.6 -332.99 L-297.86 -332.71 L-298.88 -332.48 L-300.16 -332.18 L-301.46 -331.86 L-302.5 -331.59 L-303.82 -331.24 L-305.14 -330.88 L-306.2 -330.58 L-307.54 -330.2 L-308.88 -329.8 L-309.96 -329.47 L-311.3 -329.06 L-312.38 -328.72 L-313.72 -328.29 L-315.05 -327.85 L-316.12 -327.49 L-317.46 -327.04 L-318.79 -326.58 L-319.85 -326.21 L-321.17 -325.74 L-322.5 -325.26 L-323.55 -324.87 L-324.87 -324.38 L-326.18 -323.88 L-327.23 -323.48 L-328.54 -322.97 L-329.58 -322.56 L-330.88 -322.04 L-332.18 -321.51 L-333.22 -321.08 L-334.52 -320.55 L-335.81 -320.0 L-336.84 -319.57 L-338.13 -319.02 L-339.16 -318.57 L-340.45 -318.01 L-341.72 -317.45 L-342.74 -316.99 L-344.01 -316.4 L-345.26 -315.8 L-346.26 -315.31 L-347.5 -314.69 L-348.73 -314.05 L-349.71 -313.52 L-350.92 -312.85 L-351.88 -312.3 L-353.08 -311.6 L-354.27 -310.89 L-355.22 -310.3 L-356.39 -309.56 L-357.55 -308.81 L-358.48 -308.2 L-359.62 -307.42 L-360.76 -306.63 L-361.66 -305.98 L-362.78 -305.17 L-363.88 -304.33 L-364.76 -303.66 L-365.85 -302.8 L-366.92 -301.94 L-367.77 -301.23 L-368.82 -300.34 L-369.86 -299.43 L-370.68 -298.69 L-371.7 -297.76 L-372.7 -296.81 L-373.49 -296.04 L-374.46 -295.07 L-375.23 -294.28 L-376.18 -293.27 L-377.11 -292.25 L-378.03 -291.21 L-378.75 -290.37 L-379.64 -289.3 L-380.34 -288.44 L-381.2 -287.34 L-382.04 -286.23 L-382.71 -285.33 L-383.52 -284.19 L-384.32 -283.04 L-384.95 -282.11 L-385.72 -280.93 L-386.47 -279.74 L-387.07 -278.78 L-387.8 -277.56 L-388.51 -276.33 L-389.07 -275.34 L-389.76 -274.09 L-390.3 -273.09 L-390.96 -271.82 L-391.61 -270.54 L-392.12 -269.51 L-392.75 -268.21 L-393.36 -266.9 L-393.85 -265.85 L-394.44 -264.53 L-395.02 -263.2 L-395.48 -262.12 L-396.04 -260.78 L-396.58 -259.42 L-397.01 -258.34 L-397.54 -256.97 L-398.06 -255.59 L-398.46 -254.49 L-398.95 -253.1 L-399.43 -251.71 L-399.81 -250.58 L-400.27 -249.18 L-400.63 -248.04 L-401.06 -246.62 L-401.49 -245.2 L-401.82 -244.05 L-402.22 -242.61 L-402.61 -241.17 L-402.99 -239.72 L-403.28 -238.56 L-403.63 -237.1 L-403.91 -235.92 L-404.24 -234.45 L-404.56 -232.98 L-404.81 -231.79 L-405.11 -230.31 L-405.4 -228.82 L-405.62 -227.62 L-405.89 -226.13 L-406.14 -224.62 L-406.33 -223.42 L-406.56 -221.9 L-406.78 -220.39 L-406.95 -219.17 L-407.14 -217.65 L-407.29 -216.43 L-407.46 -214.9 L-407.62 -213.36 L-407.74 -212.13 L-407.87 -210.59 L-408.0 -209.05 L-408.08 -207.81 L-408.18 -206.26 L-408.26 -204.71 L-408.31 -203.46 L-408.37 -201.9 L-408.41 -200.34 L-408.43 -199.09 L-408.44 -197.53 L-408.44 -195.96 L-408.43 -194.7 L-408.4 -193.13 L-408.35 -191.55 L-408.31 -190.29 L-408.23 -188.71 L-408.15 -187.13 L-408.07 -185.86 L-407.96 -184.28 L-407.83 -182.69 L-407.72 -181.42 L-407.57 -179.83 L-407.41 -178.24 L-407.27 -176.96 L-407.08 -175.37 L-406.92 -174.1 L-406.71 -172.5 L-406.48 -170.91 L-406.29 -169.63 L-406.03 -168.04 L-405.76 -166.44 L-405.54 -165.17 L-405.23 -163.57 L-404.91 -161.98 L-404.65 -160.71 L-404.29 -159.12 L-403.92 -157.53 L-403.6 -156.27 L-403.2 -154.68 L-402.77 -153.1 L-402.41 -151.83 L-401.96 -150.25 L-401.48 -148.67 L-401.1 -147.41 L-400.59 -145.84 L-400.08 -144.26 L-399.65 -143.0 L-399.11 -141.43 L-398.55 -139.87 L-398.08 -138.62 L-397.49 -137.06 L-396.89 -135.5 L-396.39 -134.25 L-395.75 -132.7 L-395.11 -131.15 L-394.58 -129.91 L-393.91 -128.36 L-393.23 -126.81 L-392.68 -125.57 L-391.98 -124.02 L-391.27 -122.47 L-390.7 -121.22 L-389.97 -119.65 L-389.23 -118.08 L-388.63 -116.81 L-387.87 -115.21 L-387.25 -113.93 L-386.47 -112.31 L-385.68 -110.68 L-384.88 -109.04 L-384.22 -107.71 L-383.4 -106.05 L-382.73 -104.71 L-381.89 -103.02 L-381.04 -101.31 L-380.36 -99.93 L-379.52 -98.21 L-378.68 -96.49 L-378.01 -95.12 L-377.19 -93.42 L-376.37 -91.73 L-375.73 -90.39 L-374.93 -88.72 L-374.13 -87.06 L-373.5 -85.75 L-372.71 -84.12 L-371.92 -82.5 L-371.3 -81.22 L-370.52 -79.63 L-369.74 -78.06 L-369.12 -76.81 L-368.35 -75.26 L-367.59 -73.73 L-366.98 -72.51 L-366.23 -71.0 L-365.48 -69.5 L-364.89 -68.31 L-364.16 -66.84 L-363.43 -65.38 L-362.86 -64.23 L-362.14 -62.79 L-361.44 -61.37 L-360.88 -60.24 L-360.18 -58.84 L-359.5 -57.45 L-358.96 -56.35 L-358.28 -54.99 L-357.75 -53.91 L-357.09 -52.57 L-356.44 -51.24 L-355.92 -50.19 L-355.28 -48.89 L-354.65 -47.6 L-354.15 -46.57 L-353.54 -45.3 L-352.94 -44.04 L-352.46 -43.04 L-351.88 -41.8 L-351.32 -40.57 L-350.88 -39.58 L-350.35 -38.36 L-349.83 -37.13 L-349.44 -36.16 L-348.96 -34.94 L-348.51 -33.74 L-348.17 -32.78 L-347.76 -31.58 L-347.37 -30.39 L-347.07 -29.44 L-346.72 -28.26 L-346.38 -27.09 L-346.13 -26.16 L-345.83 -25.0 L-345.56 -23.85 L-345.34 -22.94 L-345.1 -21.81 L-344.86 -20.68 L-344.69 -19.78 L-344.48 -18.66 L-344.3 -17.55 L-344.16 -16.67 L-344.0 -15.58 L-343.86 -14.5 L-343.75 -13.64 L-343.63 -12.58 L-343.54 -11.73 L-343.43 -10.69 L-343.34 -9.66 L-343.26 -8.63 L-343.21 -7.82 L-343.17 -6.8 L-343.15 -5.98 L-343.15 -4.95 L-343.18 -3.93 L-343.22 -3.11 L-343.31 -2.09 L-343.42 -1.06 L-343.54 -0.24 L-343.71 0.78 L-343.91 1.8 L-344.1 2.62 L-344.35 3.63 L-344.64 4.63 L-344.89 5.43 L-345.23 6.42 L-345.59 7.4 L-345.9 8.17 L-346.32 9.13 L-346.76 10.07 L-347.13 10.82 L-347.63 11.75 L-348.14 12.67 L-348.57 13.39 L-349.13 14.29 L-349.71 15.17 L-350.19 15.87 L-350.81 16.74 L-351.44 17.59 L-351.96 18.26 L-352.62 19.1 L-353.29 19.94 L-353.83 20.61 L-354.52 21.45 L-355.22 22.3 L-355.79 22.99 L-356.51 23.87 L-357.24 24.75 L-357.83 25.46 L-358.57 26.37 L-359.33 27.28 L-359.94 28.02 L-360.71 28.96 L-361.5 29.9 L-362.13 30.67 L-362.93 31.64 L-363.75 32.62 L-364.4 33.42 L-365.24 34.42 L-366.08 35.44 L-366.76 36.27 L-367.62 37.31 L-368.49 38.37 L-369.2 39.22 L-370.09 40.31 L-371.0 41.41 L-371.73 42.29 L-372.65 43.41 L-373.4 44.32 L-374.34 45.46 L-375.29 46.61 L-376.06 47.53 L-377.02 48.7 L-377.99 49.87 L-378.77 50.82 L-379.75 52.0 L-380.73 53.19 L-381.52 54.15 L-382.51 55.36 L-383.51 56.58 L-384.31 57.55 L-385.32 58.78 L-386.33 60.02 L-387.15 61.01 L-388.18 62.27 L-389.21 63.53 L-390.05 64.54 L-391.09 65.82 L-392.15 67.11 L-393.0 68.14 L-394.07 69.44 L-395.15 70.76 L-396.02 71.82 L-397.11 73.15 L-398.21 74.5 L-399.1 75.58 L-400.22 76.95 L-401.13 78.06 L-402.27 79.45 L-403.43 80.87 L-404.36 82.01 L-405.54 83.45 L-406.74 84.91 L-407.7 86.09 L-408.92 87.58 L-410.16 89.09 L-411.16 90.31 L-412.42 91.85 L-413.7 93.41 L-414.73 94.67 L-416.03 96.27 L-417.35 97.88 L-418.41 99.18 L-419.76 100.82 L-421.12 102.49 L-422.22 103.83 L-423.61 105.53 L-425.01 107.25 L-426.15 108.64 L-427.58 110.39 L-429.03 112.17 L-430.2 113.59 L-431.67 115.39 L-433.14 117.19 L-434.33 118.64 L-435.81 120.45 L-437.3 122.27 L-438.49 123.72 L-439.98 125.55 L-441.48 127.37 L-442.68 128.84 L-444.19 130.67 L-445.7 132.51 L-446.91 133.98 L-448.43 135.82 L-449.96 137.67 L-451.18 139.14 L-452.71 141.0 L-453.93 142.48 L-455.47 144.34 L-457.01 146.2 L-458.24 147.7 L-459.78 149.57 L-461.33 151.44 L-462.57 152.94 L-464.12 154.83 L-465.68 156.71 L-466.92 158.21 L-468.46 160.08 L-470.01 161.95 L-471.23 163.44 L-472.77 165.3 L-474.29 167.15 L-475.51 168.62 L-477.03 170.46 L-478.54 172.29 L-479.75 173.76 L-481.25 175.59 L-482.76 177.42 L-483.97 178.89 L-485.48 180.72 L-486.99 182.56 L-488.2 184.02 L-489.71 185.85 L-490.92 187.32 L-492.43 189.15 L-493.93 190.98 L-495.13 192.43 L-496.63 194.25 L-498.12 196.06 L-499.31 197.51 L-500.79 199.3 L-502.27 201.1 L-503.44 202.52 L-504.91 204.3 L-506.37 206.07 L-507.53 207.49 L-508.99 209.24 L-510.43 210.99 L-511.58 212.39 L-513.02 214.13 L-514.45 215.85 L-515.58 217.23 L-517.0 218.95 L-518.12 220.32 L-519.53 222.02 L-520.92 223.71 L-522.03 225.06 L-523.41 226.75 L-524.78 228.42 L-525.87 229.75 L-527.24 231.41 L-528.59 233.06 L-529.67 234.37 L-531.01 236.01 L-532.34 237.63 L-533.4 238.93 L-534.72 240.54 L-536.03 242.14 L-537.07 243.41 L-538.37 245.0 L-539.66 246.57 L-540.69 247.83 L-541.98 249.38 L-543.26 250.92 L-544.28 252.15 L-545.55 253.67 L-546.82 255.19 L-547.83 256.39 L-549.08 257.89 L-550.33 259.37 L-551.33 260.55 L-552.56 262.02 L-553.79 263.47 L-554.78 264.63 L-556.0 266.08 L-557.22 267.51 L-558.19 268.65 L-559.39 270.07 L-560.58 271.47 L-561.53 272.59 L-562.71 273.97 L-563.87 275.35 L-564.8 276.44 L-565.94 277.8 L-566.84 278.88 L-567.95 280.23 L-569.06 281.57 L-569.92 282.63 L-571.0 283.95 L-572.06 285.27 L-572.9 286.31 L-573.94 287.61 L-574.97 288.9 L-575.78 289.92 L-576.78 291.19 L-577.77 292.45 L-578.55 293.46 L-579.51 294.7 L-580.45 295.94 L-581.19 296.93 L-582.1 298.16 L-582.99 299.38 L-583.7 300.35 L-584.56 301.56 L-585.41 302.77 L-586.06 303.73 L-586.85 304.93 L-587.61 306.12 L-588.2 307.07 L-588.9 308.27 L-589.58 309.47 L-590.1 310.43 L-590.73 311.65 L-591.33 312.88 L-591.79 313.88 L-592.34 315.14 L-592.86 316.41 L-593.27 317.44 L-593.74 318.73 L-594.19 320.04 L-594.53 321.09 L-594.93 322.42 L-595.23 323.5 L-595.59 324.84 L-595.92 326.2 L-596.18 327.29 L-596.48 328.66 L-596.76 330.04 L-596.98 331.15 L-597.24 332.54 L-597.5 333.94 L-597.7 335.06 L-597.95 336.47 L-598.2 337.88 L-598.4 339.02 L-598.64 340.46 L-598.88 341.91 L-599.07 343.09 L-599.32 344.58 L-599.56 346.09 L-599.76 347.31 L-600.0 348.86 L-600.25 350.42 L-600.44 351.69 L-600.69 353.29 L-600.94 354.91 L-601.14 356.22 L-601.39 357.88 L-601.65 359.55 L-601.85 360.9 L-602.12 362.6 L-602.38 364.31 L-602.6 365.67 L-602.87 367.39 L-603.14 369.1 L-603.36 370.46 L-603.64 372.15 L-603.91 373.82 L-604.12 375.15 L-604.39 376.79 L-604.66 378.42 L-604.87 379.71 L-605.14 381.31 L-605.4 382.89 L-605.61 384.14 L-605.88 385.7 L-606.14 387.23 L-606.35 388.45 L-606.61 389.95 L-606.81 391.15 L-607.07 392.63 L-607.32 394.1 L-607.53 395.26 L-607.78 396.69 L-608.03 398.1 L-608.23 399.22 L-608.48 400.59 L-608.72 401.95 L-608.91 403.02 L-609.14 404.34 L-609.37 405.63 L-609.55 406.66 L-609.77 407.92 L-609.99 409.16 L-610.16 410.14 L-610.37 411.34 L-610.56 412.52 L-610.72 413.45 L-610.9 414.6 L-611.08 415.73 L-611.22 416.62 L-611.38 417.71 L-611.53 418.78 L-611.65 419.62 L-611.79 420.66 L-611.92 421.67 L-612.02 422.47 L-612.15 423.44 L-612.26 424.4 L-612.35 425.15 L-612.46 426.07 L-612.56 426.98 L-612.63 427.68 L-612.72 428.53 L-612.79 429.36 L-612.84 430.01 L-612.88 430.79 L-612.91 431.55 L-612.91 432.14 L-612.91 432.85 L-612.89 433.55 L-612.86 434.1 L-612.8 434.78 L-612.72 435.45 L-612.65 435.99 L-612.53 436.65 L-612.43 437.17 L-612.28 437.81 L-612.12 438.45 L-611.98 438.95 L-611.78 439.56 L-611.57 440.17 L-611.39 440.64 L-611.14 441.22 L-610.88 441.8 L-610.66 442.25 L-610.36 442.8 L-610.03 443.33 L-609.76 443.76 L-609.41 444.27 L-609.03 444.78 L-608.71 445.17 L-608.3 445.65 L-607.88 446.12 L-607.53 446.48 L-607.09 446.91 L-606.64 447.33 L-606.28 447.65 L-605.81 448.04 L-605.35 448.41 L-604.97 448.69 L-604.49 449.02 L-604.01 449.34 L-603.62 449.58 L-603.13 449.87 L-602.64 450.14 L-602.25 450.34 L-601.75 450.58 L-601.36 450.76 L-600.86 450.97 L-600.37 451.16 L-599.88 451.34 L-599.49 451.48 L-599.01 451.63 L-598.63 451.74 L-598.16 451.87 L-597.69 451.99 L-597.31 452.07 L-596.83 452.17 L-596.36 452.25 L-595.97 452.3 L-595.49 452.36 L-595.01 452.4 L-594.62 452.42 L-594.13 452.44 L-593.64 452.44 L-593.25 452.44 L-592.76 452.42 L-592.27 452.39 L-591.88 452.35 L-591.39 452.29 L-590.9 452.22 L-590.51 452.15 L-590.02 452.05 L-589.53 451.94 L-589.14 451.85 L-588.66 451.72 L-588.19 451.58 L-587.81 451.46 L-587.35 451.3 L-586.89 451.13 L-586.52 450.98 L-586.07 450.79 L-585.62 450.59 L-585.26 450.43 L-584.81 450.21 L-584.37 449.98 L-584.02 449.79 L-583.58 449.54 L-583.23 449.34 L-582.79 449.07 L-582.35 448.79 L-581.91 448.5 L-581.54 448.26 L-581.08 447.94 L-580.62 447.61 L-580.24 447.33 L-579.75 446.97 L-579.36 446.68 L-578.85 446.3 L-578.33 445.91 L-577.9 445.58 L-577.35 445.16 L-576.78 444.72 L-576.3 444.36 L-575.7 443.89 L-575.07 443.4 L-574.55 443.0 L-573.88 442.48 L-573.19 441.94 L-572.62 441.49 L-571.89 440.92 L-571.14 440.32 L-570.52 439.82 L-569.73 439.19 L-568.91 438.52 L-568.23 437.98 L-567.37 437.27 L-566.48 436.55 L-565.75 435.96 L-564.82 435.2 L-563.86 434.43 L-563.07 433.79 L-562.07 432.98 L-561.04 432.14 L-560.2 431.46 L-559.12 430.59 L-558.01 429.69 L-557.1 428.96 L-555.95 428.02 L-555.0 427.26 L-553.8 426.28 L-552.57 425.29 L-551.56 424.48 L-550.28 423.45 L-548.97 422.39 L-547.9 421.53 L-546.53 420.44 L-545.15 419.32 L-544.03 418.43 L-542.61 417.29 L-541.19 416.15 L-540.04 415.23 L-538.59 414.08 L-537.13 412.91 L-535.95 411.98 L-534.46 410.8 L-532.97 409.61 L-531.76 408.65 L-530.24 407.44 L-528.71 406.23 L-527.48 405.25 L-525.92 404.02 L-524.36 402.78 L-523.09 401.78 L-521.5 400.52 L-519.89 399.26 L-518.59 398.24 L-516.96 396.95 L-515.3 395.66 L-513.97 394.62 L-512.28 393.31 L-510.58 391.98 L-509.2 390.91 L-507.47 389.56 L-505.71 388.2 L-504.29 387.09 L-502.49 385.7 L-500.68 384.3 L-499.22 383.16 L-497.37 381.73 L-495.87 380.57 L-493.99 379.11 L-492.08 377.64 L-490.54 376.44 L-488.6 374.94 L-486.64 373.42 L-485.05 372.19 L-483.05 370.64 L-481.02 369.07 L-479.39 367.8 L-477.32 366.2 L-475.24 364.58 L-473.55 363.27 L-471.42 361.62 L-469.27 359.95 L-467.53 358.6 L-465.33 356.89 L-463.56 355.51 L-461.31 353.76 L-459.05 352.0 L-457.21 350.58 L-454.9 348.78 L-452.57 346.96 L-450.68 345.49 L-448.3 343.65 L-445.91 341.78 L-443.97 340.28 L-441.53 338.38 L-439.07 336.47 L-437.09 334.93 L-434.6 332.99 L-432.09 331.04 L-430.06 329.47 L-427.51 327.49 L-424.94 325.5 L-422.87 323.9 L-420.27 321.89 L-417.66 319.86 L-415.55 318.24 L-412.91 316.2 L-410.25 314.14 L-408.12 312.49 L-405.43 310.42 L-402.73 308.34 L-400.57 306.68 L-397.85 304.58 L-395.12 302.49 L-392.94 300.81 L-390.2 298.71 L-387.46 296.61 L-385.26 294.92 L-382.51 292.81 L-379.75 290.69 L-377.54 289.0 L-374.76 286.87 L-372.54 285.17 L-369.76 283.04 L-366.97 280.9 L-364.18 278.76 L-361.94 277.04 L-359.13 274.89 L-356.32 272.74 L-354.07 271.01 L-351.24 268.85 L-348.41 266.69 L-346.14 264.95 L-343.3 262.78 L-341.02 261.04 L-338.17 258.86 L-335.31 256.67 L-333.02 254.93 L-330.16 252.74 L-327.3 250.56 L-325.01 248.82 L-322.16 246.63 L-319.3 244.45 L-317.02 242.71 L-314.17 240.53 L-311.31 238.35 L-309.03 236.6 L-306.19 234.42 L-303.34 232.24 L-301.06 230.5 L-298.22 228.32 L-295.37 226.14 L-292.53 223.97 L-290.26 222.22 L-287.42 220.05 L-285.15 218.31 L-282.31 216.13 L-279.48 213.96 L-277.21 212.22 L-274.38 210.04 L-271.55 207.87 L-269.29 206.13 L-266.46 203.95 L-263.64 201.78 L-261.38 200.04 L-258.55 197.87 L-255.73 195.69 L-253.48 193.95 L-250.66 191.78 L-248.41 190.04 L-245.59 187.87 L-242.78 185.7 L-240.53 183.97 L-237.72 181.8 L-234.91 179.63 L-232.66 177.9 L-229.85 175.74 L-227.04 173.57 L-224.79 171.84 L-221.98 169.69 L-219.18 167.53 L-216.93 165.8 L-214.12 163.65 L-211.31 161.5 L-209.07 159.78 L-206.26 157.64 L-204.02 155.92 L-201.21 153.78 L-198.41 151.64 L-196.16 149.92 L-193.36 147.79 L-190.56 145.65 L-188.33 143.94 L-185.53 141.8 L-182.73 139.66 L-180.5 137.95 L-177.7 135.82 L-174.91 133.69 L-172.68 131.98 L-169.89 129.85 L-167.11 127.72 L-164.88 126.01 L-162.09 123.89 L-159.87 122.18 L-157.09 120.06 L-154.31 117.93 L-152.08 116.23 L-149.31 114.11 L-146.53 111.99 L-144.31 110.29 L-141.54 108.17 L-138.76 106.05 L-136.55 104.36 L-133.78 102.25 L-131.01 100.13 L-128.8 98.44 L-126.03 96.33 L-123.27 94.22 L-121.06 92.53 L-118.3 90.42 L-116.1 88.73 L-113.34 86.62 L-110.59 84.51 L-108.39 82.83 L-105.65 80.72 L-102.9 78.61 L-100.71 76.93 L-97.97 74.82 L-95.23 72.71 L-93.04 71.03 L-90.31 68.93 L-87.57 66.82 L-85.39 65.14 L-82.65 63.04 L-79.93 60.95 L-77.74 59.27 L-75.02 57.17 L-72.29 55.08 L-70.11 53.41 L-67.39 51.32 L-64.68 49.22 L-62.5 47.55 L-59.79 45.46 L-57.08 43.37 L-54.92 41.7 L-52.21 39.61 L-49.51 37.53 L-47.34 35.86 L-44.64 33.77 L-41.95 31.69 L-39.79 30.02 L-37.09 27.94 L-34.4 25.86 L-32.25 24.2 L-29.56 22.12 L-26.87 20.05 L-24.72 18.39 L-22.03 16.32 L-19.34 14.26 L-17.19 12.61 L-14.51 10.55 L-12.36 8.9 L-9.67 6.85 L-6.99 4.8L1.37 16.78 L-1.31 18.84 L-3.45 20.48 L-6.13 22.54 L-8.82 24.59 L-10.97 26.24 L-13.66 28.3 L-16.35 30.36 L-18.5 32.01 L-21.19 34.08 L-23.89 36.15 L-26.05 37.8 L-28.74 39.88 L-31.44 41.95 L-33.6 43.61 L-36.3 45.69 L-38.47 47.35 L-41.17 49.43 L-43.88 51.51 L-46.05 53.18 L-48.76 55.26 L-51.47 57.35 L-53.64 59.02 L-56.36 61.1 L-59.08 63.19 L-61.25 64.86 L-63.97 66.95 L-66.7 69.04 L-68.88 70.72 L-71.61 72.81 L-74.34 74.9 L-76.52 76.58 L-79.26 78.68 L-82.0 80.77 L-84.19 82.45 L-86.93 84.55 L-89.67 86.65 L-91.87 88.33 L-94.61 90.43 L-96.81 92.11 L-99.56 94.21 L-102.31 96.32 L-104.51 98.0 L-107.27 100.11 L-110.02 102.21 L-112.23 103.9 L-114.99 106.01 L-117.75 108.13 L-119.95 109.82 L-122.71 111.94 L-125.48 114.06 L-127.69 115.75 L-130.45 117.87 L-133.22 120.0 L-135.43 121.69 L-138.2 123.82 L-140.97 125.95 L-143.19 127.65 L-145.96 129.78 L-148.74 131.91 L-150.96 133.62 L-153.73 135.75 L-156.51 137.88 L-158.74 139.59 L-161.52 141.72 L-164.31 143.86 L-166.54 145.56 L-169.33 147.7 L-172.12 149.83 L-174.35 151.54 L-177.15 153.68 L-179.94 155.81 L-182.18 157.52 L-184.98 159.66 L-187.78 161.81 L-190.01 163.52 L-192.81 165.67 L-195.61 167.81 L-197.85 169.53 L-200.65 171.68 L-202.89 173.41 L-205.7 175.56 L-208.5 177.71 L-210.74 179.44 L-213.55 181.6 L-216.36 183.76 L-218.6 185.48 L-221.41 187.64 L-224.22 189.81 L-226.47 191.54 L-229.28 193.7 L-232.09 195.86 L-234.34 197.59 L-237.14 199.75 L-239.94 201.9 L-242.18 203.61 L-244.96 205.76 L-247.74 207.89 L-249.96 209.6 L-252.73 211.73 L-255.5 213.85 L-257.7 215.54 L-260.46 217.66 L-263.21 219.77 L-265.4 221.45 L-268.14 223.55 L-270.87 225.65 L-273.05 227.32 L-275.77 229.41 L-278.49 231.5 L-280.65 233.16 L-283.36 235.24 L-286.05 237.31 L-288.21 238.96 L-290.89 241.03 L-293.58 243.09 L-295.72 244.74 L-298.39 246.79 L-301.06 248.84 L-303.18 250.48 L-305.84 252.52 L-308.49 254.55 L-310.61 256.18 L-313.25 258.21 L-315.88 260.23 L-317.99 261.85 L-320.61 263.86 L-323.23 265.88 L-325.33 267.48 L-327.94 269.49 L-330.54 271.49 L-332.62 273.08 L-335.22 275.08 L-337.81 277.06 L-339.89 278.65 L-342.47 280.63 L-345.05 282.6 L-347.11 284.17 L-349.67 286.14 L-352.24 288.1 L-354.28 289.66 L-356.83 291.62 L-359.38 293.57 L-361.41 295.13 L-363.95 297.07 L-365.97 298.62 L-368.5 300.56 L-371.02 302.49 L-373.03 304.03 L-375.54 305.96 L-378.05 307.88 L-380.55 309.8 L-382.54 311.33 L-385.03 313.24 L-387.02 314.77 L-389.5 316.68 L-391.97 318.58 L-393.95 320.1 L-396.41 321.99 L-398.87 323.88 L-400.83 325.39 L-403.28 327.28 L-405.73 329.16 L-407.68 330.66 L-410.11 332.54 L-412.54 334.41 L-414.48 335.9 L-416.91 337.76 L-419.32 339.62 L-421.25 341.11 L-423.66 342.96 L-426.06 344.8 L-427.98 346.28 L-430.38 348.12 L-432.76 349.96 L-434.66 351.43 L-437.03 353.27 L-438.92 354.75 L-441.27 356.59 L-443.62 358.44 L-445.49 359.91 L-447.83 361.75 L-450.16 363.59 L-452.03 365.06 L-454.35 366.89 L-456.67 368.71 L-458.53 370.17 L-460.84 371.98 L-463.15 373.8 L-464.99 375.25 L-467.29 377.05 L-469.59 378.85 L-471.42 380.29 L-473.71 382.09 L-475.99 383.88 L-477.81 385.31 L-480.07 387.08 L-482.31 388.84 L-484.09 390.24 L-486.3 391.98 L-488.49 393.7 L-490.22 395.06 L-492.37 396.75 L-494.5 398.42 L-496.18 399.75 L-498.26 401.39 L-500.31 403.01 L-501.94 404.29 L-503.94 405.87 L-505.53 407.11 L-507.48 408.65 L-509.39 410.16 L-510.9 411.36 L-512.76 412.82 L-514.59 414.27 L-516.02 415.4 L-517.79 416.8 L-519.52 418.17 L-520.89 419.25 L-522.57 420.58 L-524.22 421.88 L-525.52 422.91 L-527.12 424.16 L-528.68 425.4 L-529.91 426.37 L-531.42 427.56 L-532.9 428.72 L-534.06 429.63 L-535.48 430.76 L-536.88 431.86 L-537.98 432.73 L-539.33 433.79 L-540.65 434.84 L-541.69 435.66 L-542.97 436.67 L-544.22 437.66 L-545.2 438.44 L-546.41 439.39 L-547.59 440.33 L-548.53 441.07 L-549.67 441.98 L-550.8 442.87 L-551.68 443.58 L-552.78 444.44 L-553.85 445.3 L-554.7 445.97 L-555.74 446.79 L-556.76 447.61 L-557.56 448.24 L-558.55 449.02 L-559.32 449.64 L-560.27 450.38 L-561.19 451.11 L-561.91 451.68 L-562.8 452.38 L-563.66 453.06 L-564.34 453.6 L-565.18 454.26 L-565.99 454.9 L-566.79 455.52 L-567.42 456.01 L-568.2 456.61 L-568.8 457.08 L-569.56 457.66 L-570.29 458.22 L-570.88 458.65 L-571.6 459.19 L-572.31 459.7 L-572.88 460.11 L-573.59 460.59 L-574.3 461.06 L-574.86 461.43 L-575.56 461.87 L-576.26 462.29 L-576.82 462.61 L-577.52 463.01 L-578.22 463.38 L-578.78 463.67 L-579.49 464.02 L-580.2 464.36 L-580.77 464.61 L-581.48 464.92 L-582.21 465.2 L-582.79 465.42 L-583.53 465.67 L-584.27 465.9 L-584.86 466.07 L-585.61 466.26 L-586.36 466.44 L-586.97 466.57 L-587.74 466.71 L-588.52 466.84 L-589.15 466.94 L-589.95 467.04 L-590.76 467.13 L-591.42 467.19 L-592.24 467.25 L-593.07 467.29 L-593.74 467.3 L-594.57 467.31 L-595.4 467.28 L-596.06 467.25 L-596.88 467.19 L-597.7 467.1 L-598.35 467.02 L-599.17 466.89 L-599.98 466.74 L-600.63 466.6 L-601.44 466.41 L-602.26 466.2 L-602.9 466.02 L-603.71 465.77 L-604.52 465.5 L-605.17 465.27 L-605.97 464.96 L-606.78 464.63 L-607.42 464.35 L-608.21 463.98 L-609.0 463.59 L-609.62 463.26 L-610.39 462.83 L-611.15 462.38 L-611.74 462.0 L-612.48 461.51 L-613.2 461.0 L-613.77 460.57 L-614.47 460.02 L-615.02 459.57 L-615.7 458.98 L-616.36 458.37 L-616.87 457.88 L-617.51 457.24 L-618.13 456.58 L-618.62 456.04 L-619.22 455.36 L-619.8 454.65 L-620.26 454.08 L-620.81 453.34 L-621.35 452.6 L-621.77 451.99 L-622.28 451.21 L-622.77 450.42 L-623.15 449.78 L-623.6 448.97 L-624.03 448.15 L-624.36 447.48 L-624.75 446.65 L-625.12 445.8 L-625.4 445.12 L-625.73 444.26 L-626.04 443.39 L-626.27 442.68 L-626.53 441.8 L-626.77 440.91 L-626.94 440.19 L-627.13 439.29 L-627.3 438.39 L-627.41 437.66 L-627.53 436.75 L-627.62 435.83 L-627.67 435.1 L-627.71 434.18 L-627.72 433.27 L-627.71 432.53 L-627.67 431.62 L-627.63 430.88 L-627.55 429.95 L-627.46 429.02 L-627.38 428.27 L-627.26 427.32 L-627.14 426.36 L-627.03 425.59 L-626.89 424.6 L-626.74 423.61 L-626.61 422.81 L-626.45 421.79 L-626.29 420.76 L-626.16 419.92 L-625.98 418.87 L-625.81 417.8 L-625.67 416.93 L-625.49 415.82 L-625.31 414.7 L-625.17 413.79 L-624.98 412.62 L-624.79 411.44 L-624.64 410.48 L-624.44 409.26 L-624.24 408.03 L-624.08 407.02 L-623.88 405.75 L-623.67 404.45 L-623.5 403.4 L-623.28 402.07 L-623.06 400.72 L-622.88 399.62 L-622.66 398.23 L-622.44 396.82 L-622.25 395.68 L-622.02 394.24 L-621.79 392.77 L-621.6 391.59 L-621.36 390.1 L-621.12 388.59 L-620.92 387.38 L-620.68 385.85 L-620.43 384.3 L-620.23 383.05 L-619.98 381.47 L-619.72 379.88 L-619.52 378.59 L-619.26 376.97 L-618.99 375.34 L-618.78 374.03 L-618.52 372.4 L-618.26 370.77 L-618.06 369.47 L-617.8 367.84 L-617.6 366.54 L-617.34 364.93 L-617.09 363.32 L-616.89 362.04 L-616.64 360.45 L-616.39 358.88 L-616.19 357.62 L-615.95 356.06 L-615.7 354.52 L-615.51 353.28 L-615.27 351.75 L-615.03 350.23 L-614.84 349.02 L-614.61 347.51 L-614.37 346.01 L-614.19 344.82 L-613.95 343.34 L-613.72 341.87 L-613.54 340.7 L-613.31 339.24 L-613.08 337.79 L-612.89 336.64 L-612.66 335.21 L-612.43 333.78 L-612.24 332.64 L-612.0 331.23 L-611.76 329.82 L-611.57 328.69 L-611.31 327.28 L-611.04 325.88 L-610.81 324.75 L-610.51 323.35 L-610.25 322.23 L-609.91 320.84 L-609.54 319.46 L-609.15 318.09 L-608.82 317.0 L-608.38 315.65 L-607.92 314.3 L-607.54 313.24 L-607.03 311.91 L-606.61 310.86 L-606.06 309.56 L-605.48 308.26 L-605.0 307.23 L-604.37 305.95 L-603.73 304.68 L-603.19 303.68 L-602.5 302.42 L-601.79 301.18 L-601.2 300.2 L-600.44 298.98 L-599.66 297.77 L-599.02 296.81 L-598.2 295.62 L-597.35 294.43 L-596.65 293.48 L-595.76 292.3 L-594.86 291.11 L-594.12 290.16 L-593.18 288.96 L-592.24 287.75 L-591.47 286.77 L-590.49 285.54 L-589.51 284.31 L-588.71 283.32 L-587.7 282.07 L-586.89 281.06 L-585.86 279.79 L-584.82 278.51 L-583.98 277.48 L-582.92 276.18 L-581.85 274.86 L-580.99 273.81 L-579.9 272.47 L-578.8 271.13 L-577.91 270.05 L-576.79 268.68 L-575.67 267.31 L-574.76 266.2 L-573.61 264.81 L-572.45 263.4 L-571.52 262.27 L-570.34 260.85 L-569.15 259.42 L-568.2 258.27 L-567.0 256.82 L-565.79 255.37 L-564.82 254.2 L-563.6 252.73 L-562.38 251.26 L-561.39 250.07 L-560.15 248.58 L-558.9 247.08 L-557.9 245.87 L-556.64 244.35 L-555.38 242.82 L-554.36 241.59 L-553.08 240.04 L-552.05 238.8 L-550.76 237.24 L-549.46 235.66 L-548.42 234.4 L-547.11 232.81 L-545.79 231.21 L-544.73 229.92 L-543.4 228.31 L-542.07 226.68 L-540.99 225.37 L-539.65 223.73 L-538.29 222.07 L-537.2 220.74 L-535.84 219.07 L-534.47 217.4 L-533.37 216.05 L-531.98 214.35 L-530.59 212.65 L-529.48 211.28 L-528.08 209.56 L-526.67 207.84 L-525.54 206.45 L-524.12 204.71 L-522.7 202.97 L-521.56 201.56 L-520.12 199.8 L-518.97 198.39 L-517.52 196.62 L-516.07 194.84 L-514.9 193.42 L-513.44 191.64 L-511.99 189.87 L-510.54 188.1 L-509.37 186.69 L-507.92 184.94 L-506.77 183.53 L-505.32 181.78 L-503.87 180.04 L-502.72 178.65 L-501.28 176.91 L-499.84 175.18 L-498.69 173.79 L-497.26 172.07 L-495.83 170.35 L-494.69 168.97 L-493.26 167.26 L-491.84 165.54 L-490.7 164.18 L-489.28 162.47 L-487.87 160.77 L-486.75 159.41 L-485.34 157.71 L-483.94 156.02 L-482.82 154.66 L-481.43 152.97 L-480.04 151.29 L-478.93 149.94 L-477.55 148.26 L-476.44 146.92 L-475.06 145.24 L-473.69 143.57 L-472.32 141.9 L-471.23 140.56 L-469.86 138.9 L-468.5 137.24 L-467.42 135.91 L-466.06 134.26 L-464.98 132.94 L-463.63 131.29 L-462.29 129.64 L-461.21 128.33 L-459.87 126.69 L-458.53 125.06 L-457.46 123.75 L-456.13 122.12 L-454.8 120.5 L-453.74 119.2 L-452.42 117.58 L-451.1 115.97 L-450.04 114.68 L-448.72 113.07 L-447.41 111.47 L-446.36 110.19 L-445.05 108.59 L-443.75 107.0 L-442.7 105.73 L-441.4 104.14 L-440.36 102.88 L-439.06 101.3 L-437.76 99.72 L-436.73 98.47 L-435.44 96.9 L-434.15 95.34 L-433.12 94.09 L-431.84 92.54 L-430.56 90.99 L-429.54 89.75 L-428.27 88.21 L-427.0 86.68 L-425.99 85.46 L-424.74 83.94 L-423.5 82.44 L-422.53 81.26 L-421.32 79.79 L-420.12 78.33 L-419.17 77.18 L-418.0 75.75 L-416.84 74.33 L-415.93 73.21 L-414.79 71.82 L-413.67 70.45 L-412.78 69.35 L-411.67 68.01 L-410.58 66.67 L-409.71 65.62 L-408.63 64.31 L-407.57 63.03 L-406.72 62.0 L-405.68 60.74 L-404.64 59.49 L-403.82 58.5 L-402.8 57.28 L-401.79 56.06 L-400.99 55.1 L-400.0 53.91 L-399.21 52.96 L-398.23 51.79 L-397.26 50.62 L-396.49 49.69 L-395.54 48.54 L-394.59 47.39 L-393.83 46.48 L-392.9 45.35 L-391.98 44.23 L-391.24 43.34 L-390.33 42.24 L-389.43 41.15 L-388.71 40.28 L-387.83 39.21 L-386.95 38.15 L-386.26 37.31 L-385.4 36.26 L-384.56 35.23 L-383.89 34.42 L-383.05 33.4 L-382.23 32.4 L-381.59 31.61 L-380.79 30.64 L-380.01 29.69 L-379.39 28.93 L-378.63 28.01 L-377.89 27.1 L-377.31 26.39 L-376.59 25.51 L-376.03 24.82 L-375.34 23.98 L-374.66 23.15 L-374.14 22.5 L-373.49 21.71 L-372.85 20.93 L-372.36 20.32 L-371.75 19.58 L-371.17 18.86 L-370.71 18.3 L-370.14 17.61 L-369.6 16.94 L-369.17 16.41 L-368.65 15.77 L-368.14 15.15 L-367.74 14.66 L-367.26 14.07 L-366.79 13.49 L-366.42 13.04 L-365.98 12.49 L-365.54 11.96 L-365.2 11.54 L-364.79 11.04 L-364.39 10.55 L-364.09 10.16 L-363.71 9.7 L-363.35 9.24 L-363.06 8.89 L-362.72 8.46 L-362.39 8.04 L-362.13 7.71 L-361.82 7.3 L-361.59 6.98 L-361.3 6.57 L-361.03 6.16 L-360.76 5.74 L-360.56 5.41 L-360.32 4.99 L-360.1 4.57 L-359.93 4.23 L-359.72 3.8 L-359.53 3.36 L-359.39 3.01 L-359.23 2.57 L-359.08 2.13 L-358.96 1.77 L-358.83 1.31 L-358.73 0.94 L-358.62 0.45 L-358.52 -0.04 L-358.44 -0.45 L-358.36 -0.97 L-358.28 -1.51 L-358.23 -1.95 L-358.17 -2.52 L-358.12 -3.1 L-358.09 -3.58 L-358.06 -4.2 L-358.04 -4.83 L-358.03 -5.34 L-358.03 -6.0 L-358.05 -6.68 L-358.06 -7.23 L-358.09 -7.94 L-358.12 -8.67 L-358.15 -9.26 L-358.2 -10.01 L-358.26 -10.77 L-358.31 -11.4 L-358.39 -12.19 L-358.47 -12.99 L-358.55 -13.64 L-358.66 -14.47 L-358.78 -15.31 L-358.89 -15.99 L-359.04 -16.86 L-359.2 -17.73 L-359.34 -18.44 L-359.52 -19.34 L-359.72 -20.25 L-359.89 -20.99 L-360.12 -21.91 L-360.31 -22.66 L-360.57 -23.6 L-360.84 -24.56 L-361.14 -25.52 L-361.39 -26.3 L-361.72 -27.27 L-362.06 -28.26 L-362.36 -29.06 L-362.75 -30.06 L-363.15 -31.07 L-363.5 -31.89 L-363.94 -32.92 L-364.31 -33.76 L-364.79 -34.81 L-365.29 -35.89 L-365.7 -36.76 L-366.22 -37.86 L-366.75 -38.98 L-367.18 -39.88 L-367.73 -41.03 L-368.29 -42.2 L-368.75 -43.14 L-369.33 -44.34 L-369.91 -45.55 L-370.39 -46.53 L-370.99 -47.77 L-371.6 -49.03 L-372.1 -50.05 L-372.72 -51.34 L-373.36 -52.65 L-373.88 -53.7 L-374.53 -55.03 L-375.06 -56.11 L-375.72 -57.47 L-376.39 -58.83 L-376.93 -59.93 L-377.61 -61.32 L-378.3 -62.72 L-378.85 -63.85 L-379.56 -65.28 L-380.26 -66.72 L-380.84 -67.88 L-381.56 -69.34 L-382.29 -70.82 L-382.87 -72.01 L-383.61 -73.51 L-384.36 -75.02 L-384.96 -76.24 L-385.72 -77.78 L-386.48 -79.33 L-387.1 -80.58 L-387.88 -82.16 L-388.66 -83.75 L-389.29 -85.03 L-390.09 -86.64 L-390.73 -87.94 L-391.54 -89.58 L-392.35 -91.22 L-393.01 -92.55 L-393.83 -94.21 L-394.66 -95.88 L-395.32 -97.23 L-396.16 -98.92 L-396.99 -100.62 L-397.67 -101.99 L-398.51 -103.7 L-399.34 -105.42 L-400.01 -106.79 L-400.84 -108.5 L-401.66 -110.21 L-402.32 -111.58 L-403.13 -113.29 L-403.77 -114.66 L-404.58 -116.37 L-405.37 -118.08 L-406.0 -119.45 L-406.78 -121.17 L-407.54 -122.89 L-408.15 -124.27 L-408.89 -125.99 L-409.62 -127.73 L-410.19 -129.12 L-410.88 -130.87 L-411.55 -132.62 L-412.08 -134.03 L-412.71 -135.79 L-413.32 -137.56 L-413.79 -138.99 L-414.36 -140.77 L-414.9 -142.56 L-415.32 -143.99 L-415.82 -145.78 L-416.3 -147.58 L-416.68 -149.02 L-417.13 -150.83 L-417.58 -152.64 L-417.93 -154.08 L-418.35 -155.89 L-418.77 -157.71 L-419.09 -159.16 L-419.49 -160.99 L-419.79 -162.44 L-420.16 -164.27 L-420.51 -166.1 L-420.78 -167.57 L-421.1 -169.41 L-421.39 -171.25 L-421.61 -172.72 L-421.87 -174.57 L-422.1 -176.42 L-422.27 -177.91 L-422.46 -179.76 L-422.63 -181.62 L-422.75 -183.11 L-422.88 -184.98 L-422.98 -186.84 L-423.05 -188.34 L-423.11 -190.2 L-423.15 -192.07 L-423.16 -193.57 L-423.17 -195.44 L-423.15 -197.31 L-423.12 -198.81 L-423.07 -200.69 L-423.01 -202.18 L-422.92 -204.06 L-422.81 -205.93 L-422.69 -207.8 L-422.57 -209.3 L-422.41 -211.17 L-422.27 -212.66 L-422.08 -214.53 L-421.87 -216.39 L-421.69 -217.88 L-421.45 -219.74 L-421.2 -221.6 L-420.93 -223.45 L-420.71 -224.93 L-420.41 -226.77 L-420.16 -228.24 L-419.84 -230.08 L-419.5 -231.9 L-419.22 -233.36 L-418.85 -235.18 L-418.46 -236.99 L-418.14 -238.44 L-417.73 -240.23 L-417.3 -242.03 L-416.94 -243.46 L-416.47 -245.24 L-416.0 -247.01 L-415.6 -248.42 L-415.09 -250.18 L-414.57 -251.93 L-414.14 -253.32 L-413.6 -255.06 L-413.03 -256.78 L-412.57 -258.16 L-411.98 -259.87 L-411.37 -261.58 L-410.87 -262.94 L-410.23 -264.63 L-409.57 -266.3 L-409.02 -267.64 L-408.33 -269.29 L-407.61 -270.93 L-407.02 -272.24 L-406.27 -273.85 L-405.65 -275.14 L-404.85 -276.73 L-404.04 -278.3 L-403.38 -279.55 L-402.53 -281.1 L-401.66 -282.63 L-400.94 -283.84 L-400.04 -285.34 L-399.11 -286.83 L-398.36 -288.01 L-397.4 -289.46 L-396.42 -290.9 L-395.62 -292.03 L-394.61 -293.44 L-393.57 -294.82 L-392.73 -295.92 L-391.66 -297.26 L-390.57 -298.59 L-389.69 -299.64 L-388.57 -300.93 L-387.66 -301.94 L-386.51 -303.19 L-385.34 -304.42 L-384.4 -305.39 L-383.21 -306.58 L-382.01 -307.75 L-381.03 -308.68 L-379.81 -309.82 L-378.57 -310.94 L-377.58 -311.83 L-376.32 -312.92 L-375.05 -313.99 L-374.02 -314.83 L-372.73 -315.86 L-371.42 -316.87 L-370.36 -317.66 L-369.03 -318.62 L-367.69 -319.56 L-366.61 -320.3 L-365.25 -321.19 L-363.87 -322.07 L-362.77 -322.75 L-361.38 -323.58 L-360.27 -324.23 L-358.87 -325.02 L-357.46 -325.79 L-356.34 -326.4 L-354.93 -327.14 L-353.51 -327.86 L-352.38 -328.43 L-350.96 -329.13 L-349.54 -329.82 L-348.4 -330.36 L-346.98 -331.03 L-345.56 -331.68 L-344.42 -332.2 L-343.0 -332.84 L-341.57 -333.47 L-340.43 -333.96 L-339.01 -334.57 L-337.86 -335.05 L-336.44 -335.64 L-335.01 -336.21 L-333.87 -336.67 L-332.44 -337.22 L-331.01 -337.77 L-329.87 -338.19 L-328.44 -338.72 L-327.02 -339.24 L-325.88 -339.65 L-324.45 -340.15 L-323.03 -340.64 L-321.89 -341.03 L-320.47 -341.51 L-319.05 -341.98 L-317.91 -342.35 L-316.48 -342.81 L-315.06 -343.25 L-313.91 -343.59 L-312.48 -344.02 L-311.33 -344.35 L-309.9 -344.74 L-308.46 -345.13 L-307.31 -345.42 L-305.86 -345.78 L-304.42 -346.12 L-303.27 -346.39 L-301.82 -346.71 L-300.37 -347.03 L-299.21 -347.27 L-297.76 -347.56 L-296.31 -347.84 L-295.14 -348.05 L-293.69 -348.3 L-292.23 -348.54 L-291.06 -348.72 L-289.6 -348.94 L-288.14 -349.13 L-286.96 -349.28 L-285.5 -349.44 L-284.03 -349.59 L-282.86 -349.7 L-281.39 -349.81 L-279.92 -349.9 L-278.74 -349.96 L-277.27 -350.01 L-275.79 -350.03 L-274.62 -350.03 L-273.15 -350.01 L-271.68 -349.97 L-270.5 -349.92 L-269.03 -349.84 L-267.57 -349.73 L-266.4 -349.64 L-264.93 -349.5 L-263.76 -349.37 L-262.3 -349.2 L-260.84 -349.01 L-259.68 -348.85 L-258.22 -348.62 L-256.77 -348.38 L-255.61 -348.17 L-254.16 -347.89 L-252.71 -347.58 L-251.56 -347.33 L-250.12 -346.98 L-248.69 -346.62 L-247.54 -346.31 L-246.12 -345.9 L-244.7 -345.47 L-243.57 -345.11 L-242.17 -344.64 L-240.77 -344.14 L-239.66 -343.73 L-238.27 -343.19 L-236.9 -342.63 L-235.81 -342.16 L-234.45 -341.57 L-233.11 -340.95 L-232.03 -340.44 L-230.7 -339.79 L-229.38 -339.12 L-228.33 -338.57 L-227.02 -337.87 L-225.98 -337.3 L-224.68 -336.56 L-223.4 -335.82 L-222.38 -335.21 L-221.11 -334.43 L-219.85 -333.64 L-218.85 -333.0 L-217.61 -332.18 L-216.38 -331.35 L-215.4 -330.67 L-214.18 -329.81 L-212.97 -328.93 L-212.02 -328.21 L-210.84 -327.29 L-209.67 -326.36 L-208.75 -325.6 L-207.62 -324.63 L-206.5 -323.63 L-205.61 -322.82 L-204.53 -321.79 L-203.47 -320.74 L-202.63 -319.88 L-201.61 -318.79 L-200.61 -317.69 L-199.82 -316.8 L-198.85 -315.67 L-198.09 -314.76 L-197.15 -313.61 L-196.22 -312.45 L-195.29 -311.28 L-194.55 -310.35 L-193.63 -309.17 L-192.9 -308.22 L-191.98 -307.02 L-191.07 -305.82 L-190.35 -304.85 L-189.44 -303.62 L-188.52 -302.39 L-187.79 -301.39 L-186.86 -300.13 L-185.93 -298.86 L-185.18 -297.83 L-184.24 -296.54 L-183.29 -295.23 L-182.53 -294.18 L-181.58 -292.85 L-180.62 -291.51 L-179.85 -290.43 L-178.88 -289.06 L-177.91 -287.69 L-177.12 -286.58 L-176.14 -285.18 L-175.15 -283.77 L-174.35 -282.64 L-173.35 -281.21 L-172.54 -280.06 L-171.52 -278.61 L-170.5 -277.15 L-169.67 -275.98 L-168.64 -274.5 L-167.59 -273.01 L-166.76 -271.81 L-165.7 -270.31 L-164.64 -268.79 L-163.78 -267.57 L-162.71 -266.04 L-161.62 -264.51 L-160.75 -263.27 L-159.65 -261.72 L-158.55 -260.16 L-157.66 -258.9 L-156.56 -257.34 L-155.45 -255.78 L-154.57 -254.54 L-153.47 -252.99 L-152.37 -251.45 L-151.49 -250.22 L-150.4 -248.69 L-149.3 -247.16 L-148.43 -245.94 L-147.34 -244.41 L-146.47 -243.2 L-145.38 -241.68 L-144.3 -240.17 L-143.44 -238.97 L-142.37 -237.47 L-141.31 -235.98 L-140.47 -234.8 L-139.43 -233.34 L-138.4 -231.89 L-137.59 -230.75 L-136.59 -229.34 L-135.59 -227.95 L-134.81 -226.85 L-133.85 -225.49 L-132.9 -224.16 L-132.15 -223.1 L-131.24 -221.8 L-130.33 -220.53 L-129.62 -219.52 L-128.74 -218.28 L-127.88 -217.05 L-127.21 -216.09 L-126.37 -214.91 L-125.55 -213.75 L-124.91 -212.83 L-124.12 -211.71 L-123.34 -210.6 L-122.73 -209.74 L-121.98 -208.67 L-121.25 -207.62 L-120.67 -206.8 L-119.96 -205.79 L-119.41 -205.0 L-118.73 -204.03 L-118.07 -203.08 L-117.42 -202.16 L-116.91 -201.43 L-116.29 -200.55 L-115.81 -199.86 L-115.21 -199.01 L-114.63 -198.19 L-114.18 -197.55 L-113.63 -196.76 L-113.09 -196.0 L-112.67 -195.41 L-112.16 -194.68 L-111.66 -193.98 L-111.27 -193.43 L-110.8 -192.77 L-110.34 -192.12 L-109.98 -191.62 L-109.53 -191.01 L-109.1 -190.42 L-108.76 -189.96 L-108.35 -189.4 L-107.94 -188.86 L-107.62 -188.45 L-107.22 -187.95 L-106.83 -187.47 L-106.52 -187.09 L-106.14 -186.64 L-105.75 -186.2 L-105.45 -185.86 L-105.07 -185.44 L-104.7 -185.04 L-104.4 -184.73 L-104.03 -184.36 L-103.66 -184.0 L-103.36 -183.72 L-102.98 -183.38 L-102.59 -183.04 L-102.28 -182.79 L-101.89 -182.47 L-101.49 -182.17 L-101.17 -181.94 L-100.76 -181.65 L-100.34 -181.38 L-100.01 -181.16 L-99.59 -180.91 L-99.17 -180.67 L-98.83 -180.49 L-98.4 -180.28 L-97.96 -180.08 L-97.61 -179.93 L-97.17 -179.75 L-96.82 -179.62 L-96.37 -179.47 L-95.92 -179.33 L-95.56 -179.22 L-95.1 -179.11 L-94.65 -179.0 L-94.28 -178.93 L-93.82 -178.85 L-93.36 -178.78 L-93.0 -178.73 L-92.54 -178.68 L-92.08 -178.64 L-91.71 -178.62 L-91.25 -178.61 L-90.79 -178.6 L-90.43 -178.6 L-89.97 -178.62 L-89.61 -178.64 L-89.15 -178.67 L-88.7 -178.72 L-88.26 -178.77 L-87.9 -178.82 L-87.46 -178.9 L-87.02 -178.98 L-86.67 -179.06 L-86.23 -179.16 L-85.89 -179.25 L-85.46 -179.38 L-85.04 -179.51 L-84.7 -179.62 L-84.26 -179.78 L-83.82 -179.95 L-83.46 -180.09 L-82.99 -180.29 L-82.51 -180.51 L-82.12 -180.69 L-81.63 -180.95 L-81.12 -181.22 L-80.71 -181.45 L-80.19 -181.76 L-79.66 -182.1 L-79.22 -182.38 L-78.67 -182.76 L-78.1 -183.16 L-77.64 -183.49 L-77.05 -183.93 L-76.45 -184.38 L-75.96 -184.76 L-75.34 -185.25 L-74.72 -185.75 L-74.21 -186.17 L-73.56 -186.72 L-72.91 -187.28 L-72.38 -187.74 L-71.71 -188.34 L-71.03 -188.96 L-70.48 -189.47 L-69.8 -190.13 L-69.1 -190.81 L-68.55 -191.37 L-67.84 -192.09 L-67.13 -192.83 L-66.56 -193.44 L-65.84 -194.22 L-65.12 -195.02 L-64.54 -195.68 L-63.81 -196.52 L-63.08 -197.38 L-62.49 -198.08 L-61.75 -198.99 L-61.17 -199.72 L-60.43 -200.67 L-59.69 -201.63 L-59.1 -202.42 L-58.37 -203.43 L-57.63 -204.47 L-57.05 -205.31 L-56.32 -206.38 L-55.59 -207.48 L-55.01 -208.38 L-54.29 -209.52 L-53.58 -210.68 L-53.01 -211.63 L-52.32 -212.85 L-51.63 -214.09 L-51.09 -215.1 L-50.42 -216.37 L-49.76 -217.66 L-49.24 -218.71 L-48.6 -220.05 L-47.98 -221.41 L-47.49 -222.51 L-46.89 -223.9 L-46.3 -225.32 L-45.83 -226.46 L-45.26 -227.92 L-44.71 -229.39 L-44.27 -230.58 L-43.74 -232.08 L-43.22 -233.61 L-42.82 -234.85 L-42.33 -236.41 L-41.86 -237.99 L-41.5 -239.27 L-41.06 -240.89 L-40.65 -242.53 L-40.33 -243.85 L-39.94 -245.52 L-39.58 -247.22 L-39.31 -248.58 L-38.99 -250.31 L-38.69 -252.06 L-38.47 -253.46 L-38.21 -255.24 L-38.02 -256.67 L-37.8 -258.46 L-37.6 -260.26 L-37.47 -261.71 L-37.32 -263.54 L-37.19 -265.38 L-37.11 -266.86 L-37.04 -268.72 L-36.99 -270.6 L-36.97 -272.11 L-36.97 -274.0 L-36.99 -275.91 L-37.02 -277.45 L-37.09 -279.37 L-37.18 -281.31 L-37.27 -282.87 L-37.4 -284.83 L-37.55 -286.8 L-37.68 -288.39 L-37.85 -290.38 L-38.02 -292.38 L-38.17 -293.99 L-38.35 -296.02 L-38.55 -298.05 L-38.71 -299.68 L-38.93 -301.74 L-39.14 -303.8 L-39.32 -305.46 L-39.55 -307.53 L-39.73 -309.19 L-39.96 -311.26 L-40.2 -313.33 L-40.39 -314.99 L-40.63 -317.08 L-40.88 -319.17 L-41.08 -320.85 L-41.34 -322.96 L-41.6 -325.09 L-41.8 -326.8 L-42.06 -328.93 L-42.32 -331.07 L-42.53 -332.78 L-42.78 -334.91 L-43.04 -337.04 L-43.24 -338.74 L-43.5 -340.86 L-43.75 -342.97 L-43.95 -344.66 L-44.2 -346.77 L-44.45 -348.87 L-44.65 -350.55 L-44.9 -352.65 L-45.15 -354.75 L-45.35 -356.42 L-45.6 -358.5 L-45.8 -360.17 L-46.04 -362.25 L-46.29 -364.32 L-46.54 -366.39 L-46.73 -368.04 L-46.98 -370.11 L-47.22 -372.17 L-47.41 -373.81 L-47.65 -375.87 L-47.89 -377.92 L-48.08 -379.55 L-48.31 -381.59 L-48.55 -383.63 L-48.73 -385.26 L-48.97 -387.29 L-49.2 -389.32 L-49.38 -390.94 L-49.61 -392.97 L-49.83 -394.99 L-50.01 -396.6 L-50.22 -398.62 L-50.39 -400.23 L-50.59 -402.23 L-50.79 -404.24 L-50.94 -405.85 L-51.13 -407.85 L-51.29 -409.86 L-51.41 -411.46 L-51.55 -413.46 L-51.66 -415.46 L-51.74 -417.06 L-51.82 -419.05 L-51.87 -421.04 L-51.9 -422.63 L-51.91 -424.62 L-51.9 -426.6 L-51.87 -428.18 L-51.81 -430.15 L-51.72 -432.12 L-51.63 -433.69 L-51.5 -435.65 L-51.34 -437.6 L-51.19 -439.16 L-50.97 -441.1 L-50.73 -443.03 L-50.51 -444.57 L-50.21 -446.49 L-49.88 -448.4 L-49.59 -449.92 L-49.2 -451.8 L-48.78 -453.68 L-48.42 -455.17 L-47.95 -457.03 L-47.45 -458.87 L-47.02 -460.33 L-46.47 -462.15 L-45.88 -463.95 L-45.4 -465.38 L-44.76 -467.15 L-44.11 -468.91 L-43.57 -470.31 L-42.89 -472.05 L-42.19 -473.78 L-41.62 -475.16 L-40.9 -476.88 L-40.32 -478.24 L-39.58 -479.95 L-38.83 -481.65 L-38.22 -483.0 L-37.44 -484.7 L-36.66 -486.39 L-36.01 -487.75 L-35.2 -489.45 L-34.37 -491.16 L-33.7 -492.53 L-32.84 -494.25 L-31.97 -495.97 L-31.26 -497.35 L-30.37 -499.08 L-29.46 -500.82 L-28.74 -502.22 L-27.82 -503.98 L-26.89 -505.74 L-26.14 -507.16 L-25.2 -508.94 L-24.25 -510.73 L-23.48 -512.16 L-22.51 -513.97 L-21.54 -515.78 L-20.75 -517.23 L-19.76 -519.06 L-18.97 -520.53 L-17.98 -522.38 L-16.98 -524.24 L-16.18 -525.73 L-15.17 -527.61 L-14.16 -529.5 L-13.35 -531.02 L-12.34 -532.93 L-11.32 -534.85 L-10.5 -536.39 L-9.47 -538.33 L-8.44 -540.27 L-7.61 -541.84 L-6.56 -543.8 L-5.52 -545.78 L-4.68 -547.36 L-3.62 -549.35 L-2.56 -551.35 L-1.71 -552.96 L-0.65 -554.97 L0.42 -556.99 L1.28 -558.62 L2.36 -560.66 L3.23 -562.29 L4.32 -564.35 L5.4 -566.4 L6.27 -568.03 L7.35 -570.08 L8.43 -572.12 L9.29 -573.75 L10.37 -575.78 L11.44 -577.81 L12.29 -579.42 L13.35 -581.42 L14.39 -583.41 L15.22 -584.98 L16.25 -586.94 L17.28 -588.87 L18.09 -590.41 L19.09 -592.31 L20.09 -594.2 L20.89 -595.69 L21.87 -597.55 L22.65 -599.01 L23.62 -600.83 L24.59 -602.63 L25.55 -604.41 L26.32 -605.82 L27.29 -607.57 L28.26 -609.3 L29.04 -610.67 L30.02 -612.37 L30.82 -613.72 L31.83 -615.39 L32.85 -617.03 L33.67 -618.34 L34.71 -619.95 L35.76 -621.55 L36.61 -622.81 L37.68 -624.38 L38.76 -625.93 L39.63 -627.16 L40.73 -628.68 L41.84 -630.19 L42.73 -631.4 L43.86 -632.89 L44.99 -634.37 L45.9 -635.55 L47.05 -637.02 L48.2 -638.47 L49.13 -639.63 L50.3 -641.07 L51.24 -642.22 L52.43 -643.64 L53.62 -645.06 L54.82 -646.47 L55.79 -647.59 L57.02 -648.98 L58.01 -650.09 L59.25 -651.46 L60.51 -652.83 L61.52 -653.92 L62.8 -655.27 L64.1 -656.61 L65.14 -657.68 L66.46 -659.0 L67.78 -660.31 L68.85 -661.36 L70.2 -662.65 L71.29 -663.68 L72.66 -664.96 L74.04 -666.23 L75.15 -667.24 L76.55 -668.49 L77.96 -669.75 L79.1 -670.74 L80.54 -671.98 L81.98 -673.21 L83.15 -674.18 L84.62 -675.39 L86.1 -676.58 L87.3 -677.53 L88.8 -678.71 L90.32 -679.89 L91.55 -680.82 L93.11 -681.99 L94.67 -683.15 L95.94 -684.08 L97.54 -685.25 L99.15 -686.41 L100.45 -687.34 L102.09 -688.5 L103.75 -689.66 L105.08 -690.58 L106.77 -691.73 L108.12 -692.66 L109.83 -693.81 L111.55 -694.97 L112.93 -695.9 L114.67 -697.06 L116.42 -698.23 L117.83 -699.17 L119.6 -700.35 L121.38 -701.53 L122.81 -702.49 L124.6 -703.68 L126.41 -704.88 L127.85 -705.85 L129.67 -707.07 L131.5 -708.29 L132.96 -709.28 L134.8 -710.51 L136.65 -711.76 L138.13 -712.76 L139.99 -714.01 L141.48 -715.02 L143.35 -716.3 L145.23 -717.57 L146.74 -718.6 L148.63 -719.89 L150.53 -721.19 L152.05 -722.23 L153.95 -723.54 L155.87 -724.86 L157.4 -725.92 L159.33 -727.25 L161.26 -728.58 L162.81 -729.65 L164.75 -730.99 L166.7 -732.34 L168.26 -733.42 L170.21 -734.76 L172.15 -736.11 L173.71 -737.18 L175.66 -738.53 L177.61 -739.88 L179.17 -740.95 L181.12 -742.3 L183.08 -743.65 L184.64 -744.73 L186.6 -746.08 L188.55 -747.43 L190.11 -748.5 L192.03 -749.82 L193.93 -751.14 L195.44 -752.18 L197.3 -753.46 L199.14 -754.74 L200.59 -755.75 L202.39 -756.99 L204.17 -758.22 L205.57 -759.2 L207.3 -760.4 L208.67 -761.34 L210.36 -762.51 L212.02 -763.66 L213.34 -764.57 L214.96 -765.69 L216.57 -766.79 L217.83 -767.66 L219.39 -768.73 L220.93 -769.79 L222.15 -770.63 L223.66 -771.66 L225.15 -772.69 L226.32 -773.5 L227.78 -774.5 L229.21 -775.49 L230.35 -776.27 L231.75 -777.24 L233.13 -778.2 L234.23 -778.95 L235.58 -779.89 L236.92 -780.81 L237.98 -781.54 L239.29 -782.44 L240.58 -783.33 L241.6 -784.03 L242.87 -784.9 L243.86 -785.58 L245.1 -786.43 L246.31 -787.26 L247.26 -787.92 L248.45 -788.73 L249.61 -789.52 L250.53 -790.16 L251.66 -790.94 L252.78 -791.71 L253.67 -792.32 L254.76 -793.08 L255.84 -793.82 L256.7 -794.42 L257.75 -795.14 L258.79 -795.86 L259.61 -796.43 L260.62 -797.13 L261.61 -797.82 L262.4 -798.37 L263.36 -799.04 L264.3 -799.69 L265.05 -800.21 L265.96 -800.85 L266.86 -801.48 L267.57 -801.97 L268.43 -802.57 L269.28 -803.17 L269.95 -803.64 L270.78 -804.21 L271.59 -804.78 L272.22 -805.23 L273.01 -805.77 L273.77 -806.31 L274.38 -806.73 L275.12 -807.25 L275.84 -807.76 L276.41 -808.16 L277.11 -808.65 L277.8 -809.13 L278.34 -809.51 L279.0 -809.97 L279.64 -810.42 L280.15 -810.78 L280.77 -811.21 L281.38 -811.64 L281.86 -811.97 L282.44 -812.38 L283.02 -812.78 L283.47 -813.09 L284.04 -813.47 L284.59 -813.84 L285.04 -814.14 L285.6 -814.49 L286.16 -814.84 L286.61 -815.12 L287.18 -815.45 L287.76 -815.77 L288.22 -816.02 L288.81 -816.32 L289.28 -816.55 L289.87 -816.82 L290.47 -817.08 L290.95 -817.28 L291.56 -817.51 L292.17 -817.72 L292.66 -817.88 L293.27 -818.07 L293.89 -818.24 L294.39 -818.36 L295.01 -818.5 L295.63 -818.62 L296.13 -818.71 L296.76 -818.8 L297.38 -818.87 L297.88 -818.92 L298.5 -818.96 L299.12 -818.98 L299.62 -818.99 L300.23 -818.98 L300.85 -818.96 L301.33 -818.92 L301.94 -818.87 L302.43 -818.81 L303.03 -818.72 L303.62 -818.62 L304.1 -818.52 L304.69 -818.37 L305.27 -818.21 L305.75 -818.07 L306.34 -817.88 L306.95 -817.67 L307.43 -817.48 L308.05 -817.23 L308.66 -816.97 L309.16 -816.73 L309.79 -816.43 L310.42 -816.1 L310.92 -815.83 L311.55 -815.47 L312.19 -815.1 L312.71 -814.79 L313.36 -814.4 L314.03 -813.99 L314.57 -813.65 L315.26 -813.23 L315.97 -812.79 L316.54 -812.44 L317.28 -811.98 L318.02 -811.52 L318.63 -811.14 L319.41 -810.67 L320.05 -810.28 L320.85 -809.78 L321.67 -809.28 L322.34 -808.87 L323.19 -808.35 L324.06 -807.82 L324.76 -807.39 L325.65 -806.84 L326.56 -806.29 L327.3 -805.84 L328.24 -805.26 L329.19 -804.68 L329.96 -804.2 L330.94 -803.6 L331.92 -802.98 L332.72 -802.48 L333.74 -801.84 L334.76 -801.19 L335.59 -800.67 L336.64 -800.01 L337.5 -799.48 L338.57 -798.8 L339.67 -798.11 L340.55 -797.56 L341.67 -796.86 L342.81 -796.15 L343.73 -795.58 L344.89 -794.86 L346.07 -794.13 L347.03 -793.53 L348.23 -792.79 L349.45 -792.03 L350.44 -791.42 L351.68 -790.66 L352.94 -789.88 L353.95 -789.26 L355.22 -788.48 L356.5 -787.69 L357.54 -787.06 L358.84 -786.26 L360.15 -785.45 L361.21 -784.81 L362.54 -783.99 L363.89 -783.17 L364.97 -782.51 L366.34 -781.67 L367.43 -781.0 L368.81 -780.15 L370.21 -779.3 L371.61 -778.44 L372.74 -777.75 L374.17 -776.88 L375.6 -776.0 L376.76 -775.3 L378.21 -774.41 L379.67 -773.52 L380.85 -772.8 L382.34 -771.89 L383.83 -770.98 L385.04 -770.25 L386.55 -769.32 L387.77 -768.58 L389.3 -767.64 L390.84 -766.7 L392.08 -765.94 L393.64 -764.99 L395.21 -764.03 L396.47 -763.26 L398.05 -762.29 L399.64 -761.31 L400.92 -760.52 L402.53 -759.54 L404.13 -758.55 L405.43 -757.76 L407.05 -756.77 L408.68 -755.78 L410.0 -754.98 L411.64 -753.98 L413.3 -752.98 L414.63 -752.18 L416.28 -751.18 L417.94 -750.18 L419.25 -749.39 L420.9 -748.4 L422.21 -747.61 L423.85 -746.62 L425.48 -745.64 L426.79 -744.85 L428.41 -743.87 L430.02 -742.89 L431.31 -742.11 L432.92 -741.13 L434.51 -740.15 L435.78 -739.37 L437.37 -738.39 L438.94 -737.4 L440.19 -736.61 L441.75 -735.62 L443.3 -734.63 L444.53 -733.83 L446.06 -732.82 L447.28 -732.01 L448.79 -731.0 L450.29 -729.98 L451.48 -729.16 L452.96 -728.13 L454.43 -727.1 L455.6 -726.26 L457.04 -725.21 L458.47 -724.15 L459.61 -723.3 L461.01 -722.23 L462.39 -721.16 L463.48 -720.31 L464.84 -719.24 L466.17 -718.18 L467.22 -717.34 L468.52 -716.29 L469.8 -715.24 L470.81 -714.41 L472.06 -713.38 L473.28 -712.35 L474.25 -711.53 L475.43 -710.52 L476.59 -709.51 L477.51 -708.7 L478.62 -707.7 L479.5 -706.91 L480.58 -705.93 L481.64 -704.96 L482.46 -704.19 L483.47 -703.24 L484.46 -702.31 L485.23 -701.57 L486.17 -700.66 L487.09 -699.77 L487.81 -699.06 L488.7 -698.19 L489.55 -697.33 L490.23 -696.65 L491.05 -695.81 L491.85 -694.98 L492.48 -694.33 L493.25 -693.52 L494.0 -692.73 L494.58 -692.1 L495.3 -691.33 L496.0 -690.57 L496.55 -689.97 L497.22 -689.23 L497.75 -688.65 L498.4 -687.93 L499.03 -687.23 L499.53 -686.67 L500.14 -685.99 L500.75 -685.31 L501.22 -684.78 L501.8 -684.12 L502.37 -683.47 L502.82 -682.96 L503.37 -682.32 L503.91 -681.7 L504.34 -681.21 L504.86 -680.6 L505.38 -680.0 L505.79 -679.52 L506.28 -678.92 L506.77 -678.32 L507.16 -677.84 L507.63 -677.24 L508.0 -676.75 L508.46 -676.14 L508.9 -675.52 L509.24 -675.03 L509.66 -674.4 L510.07 -673.77 L510.38 -673.26 L510.77 -672.62 L511.13 -671.98 L511.42 -671.45 L511.77 -670.79 L512.11 -670.12 L512.37 -669.58 L512.7 -668.89 L513.02 -668.19 L513.27 -667.62 L513.58 -666.89 L513.89 -666.16 L514.12 -665.56 L514.4 -664.81 L514.67 -664.04 L514.88 -663.42 L515.13 -662.64 L515.36 -661.85 L515.54 -661.21 L515.76 -660.4 L515.96 -659.59 L516.11 -658.93 L516.28 -658.1 L516.45 -657.26 L516.57 -656.58 L516.71 -655.73 L516.81 -655.04 L516.92 -654.18 L517.02 -653.31 L517.09 -652.61 L517.17 -651.73 L517.23 -650.84 L517.28 -649.95 L517.31 -649.23 L517.33 -648.32 L517.33 -647.59 L517.33 -646.68 L517.3 -645.76 L517.27 -645.03 L517.22 -644.1 L517.15 -643.18 L517.08 -642.43 L516.97 -641.5 L516.85 -640.57 L516.74 -639.82 L516.59 -638.88 L516.42 -637.94 L516.28 -637.19 L516.07 -636.26 L515.85 -635.32 L515.66 -634.57 L515.41 -633.63 L515.13 -632.7 L514.9 -631.95 L514.59 -631.02 L514.26 -630.09 L513.98 -629.36 L513.62 -628.44 L513.23 -627.53 L512.91 -626.8 L512.49 -625.9 L512.05 -625.01 L511.69 -624.3 L511.22 -623.42 L510.83 -622.72 L510.33 -621.85 L509.81 -620.99 L509.38 -620.31 L508.83 -619.47 L508.27 -618.63 L507.81 -617.96 L507.22 -617.14 L506.62 -616.32 L506.13 -615.67 L505.5 -614.86 L504.85 -614.07 L504.33 -613.44 L503.65 -612.66 L502.96 -611.89 L502.4 -611.29 L501.69 -610.54 L500.95 -609.81 L500.36 -609.23 L499.6 -608.52 L498.82 -607.82 L498.19 -607.27 L497.38 -606.6 L496.56 -605.94 L495.9 -605.43 L495.05 -604.8 L494.36 -604.31 L493.49 -603.71 L492.6 -603.14 L491.88 -602.69 L490.96 -602.14 L490.03 -601.61 L489.08 -601.1 L488.32 -600.7 L487.34 -600.22 L486.56 -599.85 L485.56 -599.4 L484.56 -598.97 L483.75 -598.64 L482.72 -598.24 L481.7 -597.85 L480.87 -597.55 L479.84 -597.18 L478.8 -596.82 L477.96 -596.53 L476.92 -596.16 L475.87 -595.8 L475.02 -595.5 L473.96 -595.13 L472.91 -594.76 L472.06 -594.45 L471.0 -594.07 L469.93 -593.67 L469.08 -593.35 L468.01 -592.93 L466.94 -592.51 L466.08 -592.17 L465.0 -591.73 L463.92 -591.28 L463.06 -590.92 L461.98 -590.45 L461.12 -590.07 L460.04 -589.59 L458.95 -589.1 L458.09 -588.7 L457.01 -588.19 L455.93 -587.66 L455.06 -587.23 L453.98 -586.69 L452.91 -586.13 L452.04 -585.68 L450.97 -585.1 L449.9 -584.51 L449.04 -584.03 L447.98 -583.41 L446.91 -582.78 L446.06 -582.27 L445.0 -581.62 L443.95 -580.95 L443.11 -580.41 L442.05 -579.73 L441.21 -579.17 L440.17 -578.46 L439.12 -577.75 L438.29 -577.17 L437.25 -576.43 L436.21 -575.69 L435.18 -574.93 L434.36 -574.32 L433.34 -573.55 L432.53 -572.93 L431.51 -572.13 L430.51 -571.33 L429.71 -570.67 L428.72 -569.85 L427.73 -569.01 L426.95 -568.33 L425.99 -567.48 L425.04 -566.61 L424.29 -565.92 L423.36 -565.04 L422.63 -564.33 L421.73 -563.43 L420.84 -562.53 L419.97 -561.61 L419.28 -560.88 L418.44 -559.95 L417.61 -559.01 L416.96 -558.25 L416.16 -557.3 L415.53 -556.53 L414.76 -555.56 L414.01 -554.59 L413.43 -553.8 L412.71 -552.81 L412.01 -551.8 L411.47 -550.99 L410.8 -549.97 L410.15 -548.94 L409.65 -548.11 L409.04 -547.07 L408.44 -546.01 L407.98 -545.16 L407.42 -544.09 L406.87 -543.01 L406.45 -542.13 L405.94 -541.04 L405.45 -539.93 L405.07 -539.04 L404.61 -537.91 L404.17 -536.78 L403.82 -535.87 L403.41 -534.72 L403.01 -533.56 L402.7 -532.64 L402.33 -531.47 L401.98 -530.29 L401.71 -529.35 L401.39 -528.16 L401.14 -527.2 L400.85 -526.0 L400.57 -524.8 L400.37 -523.83 L400.13 -522.61 L399.91 -521.39 L399.74 -520.41 L399.55 -519.18 L399.39 -517.94 L399.27 -516.95 L399.14 -515.71 L399.03 -514.46 L398.96 -513.47 L398.9 -512.21 L398.85 -510.96 L398.83 -509.95 L398.83 -508.69 L398.84 -507.43 L398.87 -506.42 L398.92 -505.16 L399.0 -503.89 L399.07 -502.88 L399.18 -501.62 L399.28 -500.61 L399.43 -499.36 L399.6 -498.11 L399.74 -497.12 L399.94 -495.88 L400.16 -494.65 L400.35 -493.67 L400.6 -492.45 L400.87 -491.24 L401.11 -490.27 L401.41 -489.08 L401.73 -487.9 L402.01 -486.96 L402.36 -485.79 L402.73 -484.64 L403.03 -483.73 L403.43 -482.59 L403.84 -481.47 L404.19 -480.58 L404.63 -479.48 L405.08 -478.39 L405.46 -477.53 L405.94 -476.46 L406.44 -475.41 L406.84 -474.58 L407.36 -473.55 L407.88 -472.55 L408.3 -471.77 L408.84 -470.81 L409.26 -470.07 L409.8 -469.15 L410.33 -468.26 L410.76 -467.56 L411.29 -466.71 L411.81 -465.88 L412.23 -465.24 L412.74 -464.45 L413.24 -463.69 L413.64 -463.1 L414.12 -462.37 L414.6 -461.67 L414.97 -461.12 L415.43 -460.46 L415.87 -459.82 L416.22 -459.32 L416.65 -458.72 L417.06 -458.13 L417.39 -457.68 L417.78 -457.13 L418.17 -456.61 L418.47 -456.2 L418.84 -455.7 L419.2 -455.22 L419.48 -454.85 L419.83 -454.39 L420.17 -453.95 L420.44 -453.61 L420.77 -453.19 L421.1 -452.78 L421.36 -452.47 L421.68 -452.08 L421.99 -451.7 L422.25 -451.41 L422.56 -451.06 L422.87 -450.71 L423.12 -450.44 L423.43 -450.11 L423.75 -449.79 L424.01 -449.54 L424.33 -449.23 L424.65 -448.94 L424.92 -448.7 L425.25 -448.42 L425.52 -448.2 L425.85 -447.94 L426.19 -447.69 L426.47 -447.49 L426.81 -447.25 L427.16 -447.02 L427.45 -446.85 L427.8 -446.64 L428.16 -446.44 L428.45 -446.29 L428.82 -446.11 L429.19 -445.94 L429.49 -445.8 L429.87 -445.65 L430.26 -445.5 L430.57 -445.38 L430.97 -445.25 L431.3 -445.15 L431.72 -445.03 L432.15 -444.91 L432.5 -444.83 L432.95 -444.73 L433.4 -444.65 L433.77 -444.59 L434.24 -444.53 L434.72 -444.48 L435.1 -444.45 L435.59 -444.43 L436.08 -444.43 L436.47 -444.43 L436.97 -444.46 L437.48 -444.5 L437.89 -444.55 L438.4 -444.62 L438.93 -444.71 L439.35 -444.79 L439.89 -444.91 L440.42 -445.04 L440.85 -445.15 L441.39 -445.31 L441.82 -445.46 L442.36 -445.65 L442.89 -445.86 L443.32 -446.04 L443.85 -446.28 L444.38 -446.55 L444.79 -446.78 L445.31 -447.08 L445.82 -447.41 L446.32 -447.76 L446.73 -448.05 L447.23 -448.44 L447.63 -448.77 L448.14 -449.2 L448.64 -449.65 L449.04 -450.03 L449.56 -450.53 L450.08 -451.04 L450.5 -451.48 L451.03 -452.04 L451.58 -452.63 L452.02 -453.12 L452.58 -453.76 L453.15 -454.42 L453.61 -454.96 L454.2 -455.63 L454.68 -456.17 L455.29 -456.85 L455.9 -457.53 L456.4 -458.08 L457.04 -458.78 L457.68 -459.5 L458.21 -460.09 L458.88 -460.84 L459.57 -461.6 L460.13 -462.22 L460.85 -463.01 L461.59 -463.8 L462.19 -464.44 L462.94 -465.26 L463.71 -466.08 L464.34 -466.75 L465.13 -467.61 L465.76 -468.31 L466.57 -469.19 L467.38 -470.09 L468.04 -470.82 L468.88 -471.75 L469.73 -472.7 L470.42 -473.46 L471.29 -474.43 L472.18 -475.41 L472.89 -476.21 L473.8 -477.22 L474.72 -478.24 L475.46 -479.07 L476.4 -480.12 L477.35 -481.19 L478.12 -482.05 L479.1 -483.14 L480.08 -484.23 L480.88 -485.12 L481.89 -486.24 L482.91 -487.37 L483.73 -488.29 L484.77 -489.43 L485.82 -490.58 L486.67 -491.5 L487.75 -492.66 L488.85 -493.83 L489.73 -494.77 L490.85 -495.94 L491.98 -497.12 L492.9 -498.08 L494.07 -499.27 L495.25 -500.47 L496.21 -501.43 L497.43 -502.63 L498.43 -503.58 L499.69 -504.78 L500.97 -505.97 L502.02 -506.92 L503.34 -508.1 L504.69 -509.28 L505.78 -510.21 L507.17 -511.37 L508.58 -512.53 L509.71 -513.45 L511.14 -514.61 L512.59 -515.76 L513.75 -516.69 L515.22 -517.86 L516.7 -519.03 L517.9 -519.97 L519.4 -521.13 L520.91 -522.29 L522.13 -523.2 L523.65 -524.32 L525.18 -525.42 L526.4 -526.3 L527.93 -527.37 L529.45 -528.43 L530.67 -529.26 L532.18 -530.29 L533.69 -531.3 L534.89 -532.09 L536.39 -533.07 L537.87 -534.02 L539.06 -534.78 L540.53 -535.7 L541.99 -536.61 L543.16 -537.32 L544.6 -538.19 L546.04 -539.05 L547.18 -539.72 L548.6 -540.54 L550.01 -541.34 L551.13 -541.96 L552.52 -542.73 L553.62 -543.32 L555.0 -544.05 L556.36 -544.76 L557.45 -545.32 L558.78 -545.99 L560.11 -546.66 L561.15 -547.18 L562.44 -547.82 L563.72 -548.44 L564.73 -548.92 L565.98 -549.51 L567.22 -550.08 L568.2 -550.53 L569.42 -551.06 L570.63 -551.58 L571.59 -551.98 L572.79 -552.46 L573.98 -552.91 L574.94 -553.26 L576.13 -553.68 L577.32 -554.07 L578.27 -554.37 L579.46 -554.72 L580.64 -555.04 L581.59 -555.29 L582.77 -555.58 L583.95 -555.86 L584.89 -556.08 L586.05 -556.33 L587.21 -556.57 L588.13 -556.75 L589.28 -556.96 L590.41 -557.16 L591.32 -557.31 L592.44 -557.49 L593.34 -557.62 L594.46 -557.77 L595.57 -557.91 L596.46 -558.01 L597.57 -558.12 L598.68 -558.21 L599.56 -558.27 L600.65 -558.33 L601.74 -558.38 L602.6 -558.4 L603.68 -558.41 L604.75 -558.4 L605.6 -558.38 L606.65 -558.34 L607.7 -558.29 L608.54 -558.23 L609.57 -558.15 L610.6 -558.05 L611.41 -557.96 L612.42 -557.85 L613.42 -557.72 L614.21 -557.62 L615.19 -557.48 L616.16 -557.33 L616.93 -557.2 L617.89 -557.03 L618.83 -556.85 L619.58 -556.7 L620.52 -556.49 L621.25 -556.33 L622.17 -556.11 L623.07 -555.88 L623.79 -555.69 L624.68 -555.44 L625.55 -555.19 L626.25 -554.98 L627.11 -554.72 L627.96 -554.45 L628.63 -554.23 L629.46 -553.95 L630.28 -553.66 L630.92 -553.43 L631.72 -553.13 L632.51 -552.82 L633.13 -552.57 L633.89 -552.25 L634.65 -551.93 L635.24 -551.67 L635.97 -551.34 L636.69 -551.0 L637.25 -550.73 L637.95 -550.39 L638.64 -550.05 L639.18 -549.78 L639.85 -549.43 L640.5 -549.08 L641.02 -548.8 L641.65 -548.45 L642.16 -548.17 L642.78 -547.82 L643.4 -547.46 L643.89 -547.18 L644.5 -546.82 L645.1 -546.45 L645.58 -546.16 L646.17 -545.79 L646.75 -545.41 L647.22 -545.11 L647.79 -544.72 L648.35 -544.34 L648.8 -544.02 L649.35 -543.63 L649.9 -543.23 L650.33 -542.91 L650.86 -542.51 L651.39 -542.1 L651.81 -541.78 L652.32 -541.37 L652.83 -540.95 L653.23 -540.62 L653.73 -540.2 L654.22 -539.78 L654.6 -539.44 L655.08 -539.01 L655.55 -538.58 L655.92 -538.24 L656.38 -537.8 L656.83 -537.36 L657.18 -537.0 L657.62 -536.55 L657.96 -536.19 L658.38 -535.72 L658.79 -535.25 L659.11 -534.86 L659.51 -534.37 L659.9 -533.86 L660.21 -533.45 L660.59 -532.92 L660.97 -532.39 L661.26 -531.95 L661.63 -531.39 L661.99 -530.82 L662.28 -530.35 L662.62 -529.76 L662.96 -529.15 L663.22 -528.65 L663.54 -528.02 L663.85 -527.38 L664.09 -526.87 L664.39 -526.21 L664.67 -525.54 L664.89 -525.0 L665.15 -524.31 L665.4 -523.61 L665.6 -523.05 L665.83 -522.33 L666.05 -521.61 L666.22 -521.02 L666.42 -520.28 L666.57 -519.68 L666.74 -518.92 L666.9 -518.16 L667.02 -517.54 L667.15 -516.76 L667.27 -515.98 L667.35 -515.35 L667.44 -514.55 L667.51 -513.75 L667.57 -512.94 L667.6 -512.29 L667.63 -511.48 L667.64 -510.65 L667.63 -509.99 L667.61 -509.17 L667.57 -508.34 L667.52 -507.67 L667.45 -506.83 L667.38 -506.16 L667.27 -505.32 L667.15 -504.48 L667.03 -503.81 L666.88 -502.97 L666.7 -502.14 L666.55 -501.47 L666.35 -500.63 L666.13 -499.79 L665.94 -499.12 L665.7 -498.28 L665.43 -497.44 L665.2 -496.78 L664.9 -495.94 L664.58 -495.11 L664.31 -494.45 L663.95 -493.63 L663.57 -492.82 L663.25 -492.17 L662.84 -491.36 L662.39 -490.57 L662.03 -489.93 L661.55 -489.15 L661.05 -488.38 L660.63 -487.77 L660.09 -487.01 L659.52 -486.26 L659.06 -485.66 L658.45 -484.92 L657.83 -484.19 L657.31 -483.61 L656.65 -482.89 L655.96 -482.18 L655.39 -481.62 L654.67 -480.92 L654.07 -480.37 L653.31 -479.69 L652.52 -479.02 L651.71 -478.34 L651.05 -477.81 L650.21 -477.14 L649.52 -476.6 L648.65 -475.92 L647.75 -475.25 L647.02 -474.7 L646.09 -474.02 L645.15 -473.33 L644.38 -472.76 L643.42 -472.05 L642.44 -471.32 L641.64 -470.74 L640.63 -469.99 L639.61 -469.23 L638.78 -468.61 L637.74 -467.83 L636.67 -467.04 L635.81 -466.39 L634.73 -465.58 L633.62 -464.75 L632.73 -464.08 L631.6 -463.23 L630.46 -462.37 L629.53 -461.68 L628.36 -460.8 L627.18 -459.91 L626.22 -459.19 L625.02 -458.29 L624.05 -457.57 L622.82 -456.66 L621.59 -455.74 L620.59 -455.0 L619.33 -454.07 L618.06 -453.13 L617.04 -452.38 L615.75 -451.42 L614.45 -450.46 L613.39 -449.68 L612.07 -448.71 L610.73 -447.72 L609.65 -446.93 L608.3 -445.93 L606.93 -444.92 L605.82 -444.11 L604.43 -443.08 L603.03 -442.05 L601.89 -441.22 L600.47 -440.18 L599.04 -439.12 L597.88 -438.27 L596.43 -437.2 L594.96 -436.12 L593.79 -435.26 L592.32 -434.18 L590.84 -433.08 L589.64 -432.2 L588.15 -431.1 L586.64 -429.98 L585.43 -429.09 L583.91 -427.96 L582.68 -427.06 L581.15 -425.92 L579.6 -424.78 L578.35 -423.86 L576.79 -422.7 L575.22 -421.54 L573.96 -420.6 L572.37 -419.43 L570.77 -418.25 L569.49 -417.3 L567.88 -416.1 L566.26 -414.91 L564.96 -413.94 L563.32 -412.73 L561.67 -411.51 L560.35 -410.53 L558.69 -409.3 L557.02 -408.06 L555.68 -407.07 L553.99 -405.81 L552.3 -404.56 L550.94 -403.54 L549.23 -402.27 L547.52 -400.99 L546.14 -399.97 L544.41 -398.68 L542.67 -397.38 L541.27 -396.34 L539.52 -395.03 L537.75 -393.71 L536.34 -392.66 L534.56 -391.33 L532.78 -390.0 L531.35 -388.93 L529.56 -387.59 L528.12 -386.52 L526.32 -385.17 L524.51 -383.82 L523.06 -382.74 L521.25 -381.37 L519.42 -380.0 L517.96 -378.9 L516.13 -377.52 L514.29 -376.13 L512.81 -375.01 L510.97 -373.61 L509.11 -372.21 L507.62 -371.08 L505.76 -369.66 L503.89 -368.24 L502.39 -367.09 L500.51 -365.66 L498.62 -364.21 L497.11 -363.06 L495.21 -361.6 L493.31 -360.14 L491.79 -358.97 L489.87 -357.5 L487.96 -356.02 L486.42 -354.84 L484.49 -353.35 L482.55 -351.86 L481.0 -350.66 L479.05 -349.16 L477.1 -347.65 L475.54 -346.43 L473.57 -344.91 L471.61 -343.39 L470.03 -342.17 L468.04 -340.63 L466.05 -339.1 L464.46 -337.86 L462.45 -336.32 L460.44 -334.77 L458.83 -333.54 L456.81 -331.98 L454.78 -330.43 L453.15 -329.18 L451.1 -327.62 L449.05 -326.05 L447.41 -324.8 L445.34 -323.23 L443.28 -321.66 L441.62 -320.4 L439.53 -318.82 L437.45 -317.23 L435.78 -315.96 L433.68 -314.37 L431.58 -312.77 L429.9 -311.49 L427.79 -309.88 L425.68 -308.27 L423.99 -306.98 L421.87 -305.36 L419.74 -303.73 L418.04 -302.43 L415.92 -300.81 L413.78 -299.17 L412.08 -297.86 L409.94 -296.23 L407.79 -294.58 L406.07 -293.27 L403.92 -291.62 L401.77 -289.97 L400.04 -288.64 L397.87 -286.98 L395.7 -285.32 L393.96 -283.99 L391.79 -282.32 L389.61 -280.65 L387.86 -279.31 L385.67 -277.63 L383.92 -276.28 L381.72 -274.59 L379.53 -272.9 L377.76 -271.55 L375.56 -269.85 L373.35 -268.15 L371.58 -266.78 L369.36 -265.07 L367.14 -263.36 L365.36 -261.99 L363.13 -260.27 L360.89 -258.54 L359.1 -257.16 L356.86 -255.43 L354.62 -253.7 L352.82 -252.31 L350.57 -250.57 L348.31 -248.82 L346.5 -247.42 L344.24 -245.67 L341.97 -243.91 L340.15 -242.51 L337.88 -240.74 L335.6 -238.98 L333.77 -237.56 L331.48 -235.8 L329.18 -234.03 L327.34 -232.61 L325.04 -230.84 L322.73 -229.06 L320.87 -227.64 L318.56 -225.85 L316.23 -224.07 L314.37 -222.64 L312.04 -220.86 L309.7 -219.07 L307.83 -217.63 L305.48 -215.84 L303.13 -214.04 L301.25 -212.6 L298.89 -210.8 L297.0 -209.35 L294.63 -207.55 L292.26 -205.74 L290.37 -204.29 L287.99 -202.47 L285.61 -200.65 L283.7 -199.19 L281.32 -197.37 L278.92 -195.54 L277.01 -194.08 L274.61 -192.24 L272.21 -190.41 L270.28 -188.94 L267.87 -187.1 L265.45 -185.26 L263.52 -183.79 L261.09 -181.95 L258.67 -180.1 L256.72 -178.63 L254.29 -176.78 L251.86 -174.94 L249.91 -173.46 L247.48 -171.61 L245.04 -169.76 L243.08 -168.28 L240.64 -166.42 L238.69 -164.93 L236.25 -163.07 L233.81 -161.2 L231.86 -159.7 L229.42 -157.81 L226.97 -155.93 L225.02 -154.42 L222.57 -152.53 L220.12 -150.63 L218.16 -149.12 L215.7 -147.22 L213.25 -145.33 L211.28 -143.81 L208.81 -141.91 L206.34 -140.02 L204.37 -138.5 L201.9 -136.6 L199.42 -134.7 L197.44 -133.17 L194.96 -131.27 L192.48 -129.36 L190.49 -127.83 L188.01 -125.92 L186.02 -124.39 L183.53 -122.47 L181.03 -120.55 L179.04 -119.02 L176.54 -117.1 L174.04 -115.17 L172.04 -113.63 L169.54 -111.71 L167.03 -109.78 L165.03 -108.24 L162.51 -106.31 L160.0 -104.38 L157.99 -102.83 L155.47 -100.9 L152.96 -98.96 L150.94 -97.41 L148.42 -95.46 L145.89 -93.52 L143.87 -91.97 L141.34 -90.02 L139.31 -88.46 L136.78 -86.51 L134.24 -84.57 L132.21 -83.0 L129.67 -81.05 L127.13 -79.1 L125.09 -77.53 L122.55 -75.58 L120.0 -73.62 L117.96 -72.05 L115.4 -70.09 L112.84 -68.13 L110.79 -66.56 L108.22 -64.6 L105.64 -62.65 L103.58 -61.09 L101.0 -59.13 L98.42 -57.18 L96.35 -55.62 L93.77 -53.66 L91.18 -51.7 L89.11 -50.12 L86.52 -48.16 L83.93 -46.19 L81.86 -44.61 L79.26 -42.63 L76.67 -40.66 L74.59 -39.07 L71.99 -37.09 L69.4 -35.11 L67.31 -33.52 L64.71 -31.53 L62.11 -29.54 L60.02 -27.95 L57.41 -25.96 L54.8 -23.96 L52.72 -22.36 L50.1 -20.36 L47.49 -18.36 L45.4 -16.76 L42.78 -14.75 L40.68 -13.14 L38.06 -11.13 L35.44 -9.12 L33.34 -7.51 L30.71 -5.5 L28.08 -3.49 L25.97 -1.88 L23.33 0.14 L20.69 2.16 L18.58 3.77 L15.94 5.79 L13.29 7.81 L11.17 9.42 L8.53 11.45 L6.4 13.06L1.37 16.78" fill="#bebebe" id="track-outline" stroke="black" stroke-width="0.3px"></path><line fill="black" stroke="black" stroke-width="5px" x1="1.374332532286644" x2="-6.987306131422519" y1="16.78334840536117" y2="4.800412061810493"></line></g></g></svg>