<svg height="100%" id="track-svg" width="100%" xmlns="http://www.w3.org/2000/svg" xmlns:xlink="http://www.w3.org/1999/xlink" xmlns:ev="http://www.w3.org/2001/xml-events" style="overflow: hidden; "><g id="viewport-20250804124748708" class="svg-pan-zoom_viewport" transform="matrix(0.48714122339049454,0,0,0.48714122339049454,446.46007967684795,549.4958255070339)" style="transform: matrix(0.487141, 0, 0, 0.487141, 446.46, 549.496);"><g id="debug"><polyline fill="none" id="bb" points="-911.4900512695312,-339.6198120117188 357.1359252929688,-339.6198120117188 357.1359252929688,725.2979736328125 -911.4900512695312,725.2979736328125 -911.4900512695312,-339.6198120117188" stroke="none" stroke-width="3px"></polyline><circle cx="-277.17706298828125" cy="192.839111328125" fill="none" id="centerpoint" r="5" stroke="none"></circle></g><g id="track"><path d="M-12.59 5.68 L-12.19 6.41 L-13.58 3.93 L-14.68 1.95 L-16.06 -0.53 L-17.44 -2.99 L-18.82 -5.45 L-20.19 -7.91 L-21.28 -9.87 L-22.65 -12.31 L-24.02 -14.75 L-25.39 -17.19 L-26.47 -19.13 L-27.83 -21.56 L-29.18 -23.98 L-30.53 -26.39 L-31.61 -28.32 L-32.95 -30.73 L-34.29 -33.13 L-35.63 -35.53 L-36.7 -37.44 L-38.03 -39.83 L-39.36 -42.21 L-40.68 -44.58 L-41.74 -46.47 L-43.06 -48.84 L-44.37 -51.2 L-45.42 -53.08 L-46.73 -55.43 L-48.03 -57.78 L-49.07 -59.65 L-50.36 -61.98 L-51.65 -64.31 L-52.94 -66.64 L-53.96 -68.49 L-55.24 -70.8 L-56.52 -73.11 L-57.79 -75.41 L-58.81 -77.24 L-60.07 -79.53 L-61.34 -81.82 L-62.34 -83.64 L-63.6 -85.91 L-64.85 -88.18 L-66.09 -90.44 L-67.09 -92.24 L-68.33 -94.49 L-69.57 -96.73 L-70.8 -98.96 L-71.79 -100.74 L-73.02 -102.96 L-74.25 -105.18 L-75.47 -107.38 L-76.45 -109.14 L-77.67 -111.34 L-78.88 -113.52 L-79.85 -115.26 L-81.06 -117.44 L-82.27 -119.6 L-83.47 -121.76 L-84.43 -123.48 L-85.63 -125.62 L-86.83 -127.76 L-88.02 -129.89 L-89.21 -132.01 L-90.16 -133.7 L-91.34 -135.81 L-92.52 -137.91 L-93.69 -140.01 L-94.63 -141.68 L-95.8 -143.77 L-96.97 -145.86 L-98.14 -147.94 L-99.3 -150.01 L-100.22 -151.66 L-101.38 -153.72 L-102.53 -155.77 L-103.67 -157.81 L-104.81 -159.85 L-105.72 -161.47 L-106.85 -163.49 L-107.97 -165.5 L-109.09 -167.51 L-109.99 -169.11 L-111.1 -171.1 L-112.21 -173.08 L-113.31 -175.05 L-114.41 -177.02 L-115.28 -178.58 L-116.38 -180.53 L-117.46 -182.47 L-118.55 -184.4 L-119.41 -185.94 L-120.48 -187.85 L-121.55 -189.76 L-122.62 -191.66 L-123.47 -193.17 L-124.52 -195.05 L-125.57 -196.93 L-126.62 -198.79 L-127.66 -200.65 L-128.49 -202.12 L-129.52 -203.96 L-130.54 -205.79 L-131.56 -207.62 L-132.57 -209.43 L-133.38 -210.87 L-134.38 -212.67 L-135.38 -214.46 L-136.37 -216.23 L-137.16 -217.65 L-138.14 -219.41 L-139.11 -221.17 L-139.89 -222.56 L-140.85 -224.3 L-141.8 -226.03 L-142.56 -227.4 L-143.5 -229.11 L-144.44 -230.81 L-145.37 -232.5 L-146.12 -233.85 L-147.04 -235.54 L-147.96 -237.21 L-148.88 -238.88 L-149.61 -240.21 L-150.51 -241.86 L-151.41 -243.5 L-152.3 -245.13 L-153.19 -246.75 L-153.89 -248.03 L-154.77 -249.63 L-155.64 -251.22 L-156.5 -252.79 L-157.35 -254.36 L-158.03 -255.6 L-158.87 -257.15 L-159.71 -258.68 L-160.37 -259.9 L-161.19 -261.41 L-162.01 -262.91 L-162.82 -264.4 L-163.62 -265.88 L-164.25 -267.05 L-165.04 -268.5 L-165.82 -269.94 L-166.6 -271.37 L-167.21 -272.51 L-167.97 -273.91 L-168.73 -275.3 L-169.48 -276.68 L-170.07 -277.77 L-170.81 -279.13 L-171.54 -280.46 L-172.12 -281.52 L-172.85 -282.84 L-173.56 -284.14 L-174.13 -285.16 L-174.83 -286.44 L-175.53 -287.69 L-176.22 -288.93 L-176.77 -289.91 L-177.45 -291.13 L-178.13 -292.33 L-178.8 -293.51 L-179.46 -294.68 L-179.99 -295.6 L-180.65 -296.74 L-181.3 -297.87 L-181.81 -298.76 L-182.45 -299.87 L-183.08 -300.95 L-183.72 -302.01 L-184.36 -303.05 L-184.87 -303.86 L-185.52 -304.85 L-186.18 -305.81 L-186.86 -306.75 L-187.54 -307.67 L-188.09 -308.39 L-188.78 -309.26 L-189.49 -310.11 L-190.2 -310.93 L-190.92 -311.73 L-191.5 -312.36 L-192.24 -313.13 L-193.0 -313.88 L-193.77 -314.62 L-194.4 -315.2 L-195.2 -315.91 L-196.01 -316.6 L-196.83 -317.28 L-197.67 -317.94 L-198.35 -318.45 L-199.21 -319.08 L-200.08 -319.69 L-200.97 -320.28 L-201.68 -320.74 L-202.58 -321.3 L-203.5 -321.84 L-204.42 -322.37 L-205.35 -322.87 L-206.11 -323.27 L-207.06 -323.74 L-208.01 -324.2 L-208.98 -324.64 L-209.75 -324.97 L-210.73 -325.38 L-211.71 -325.76 L-212.7 -326.13 L-213.5 -326.41 L-214.5 -326.74 L-215.51 -327.05 L-216.52 -327.35 L-217.53 -327.62 L-218.35 -327.82 L-219.37 -328.06 L-220.4 -328.27 L-221.43 -328.47 L-222.26 -328.61 L-223.3 -328.78 L-224.34 -328.92 L-225.38 -329.04 L-226.21 -329.13 L-227.25 -329.22 L-228.3 -329.29 L-229.34 -329.34 L-230.38 -329.38 L-231.21 -329.39 L-232.26 -329.39 L-233.3 -329.37 L-234.13 -329.33 L-235.17 -329.28 L-236.2 -329.2 L-237.03 -329.13 L-238.06 -329.02 L-239.09 -328.88 L-240.11 -328.73 L-240.93 -328.6 L-241.94 -328.41 L-242.95 -328.21 L-243.96 -327.98 L-244.76 -327.79 L-245.76 -327.53 L-246.75 -327.25 L-247.73 -326.95 L-248.51 -326.7 L-249.48 -326.36 L-250.44 -326.01 L-251.4 -325.64 L-252.16 -325.33 L-253.1 -324.93 L-254.03 -324.5 L-254.77 -324.15 L-255.68 -323.7 L-256.59 -323.23 L-257.49 -322.75 L-258.2 -322.35 L-259.08 -321.83 L-259.94 -321.3 L-260.63 -320.86 L-261.48 -320.31 L-262.32 -319.73 L-263.15 -319.15 L-263.8 -318.67 L-264.61 -318.06 L-265.4 -317.43 L-266.18 -316.79 L-266.95 -316.14 L-267.56 -315.61 L-268.3 -314.94 L-269.04 -314.25 L-269.76 -313.54 L-270.47 -312.82 L-271.03 -312.24 L-271.71 -311.49 L-272.39 -310.72 L-273.06 -309.94 L-273.71 -309.15 L-274.22 -308.51 L-274.86 -307.69 L-275.47 -306.86 L-275.96 -306.19 L-276.55 -305.33 L-277.14 -304.46 L-277.71 -303.58 L-278.26 -302.69 L-278.7 -301.97 L-279.24 -301.05 L-279.77 -300.12 L-280.19 -299.37 L-280.71 -298.42 L-281.24 -297.45 L-281.77 -296.47 L-282.3 -295.46 L-282.73 -294.65 L-283.27 -293.62 L-283.82 -292.57 L-284.38 -291.5 L-284.94 -290.41 L-285.4 -289.53 L-285.99 -288.4 L-286.59 -287.24 L-287.2 -286.05 L-287.82 -284.83 L-288.33 -283.84 L-288.98 -282.56 L-289.64 -281.27 L-290.31 -279.94 L-290.86 -278.85 L-291.56 -277.46 L-292.28 -276.05 L-292.86 -274.89 L-293.61 -273.42 L-294.37 -271.92 L-294.99 -270.69 L-295.79 -269.14 L-296.6 -267.55 L-297.43 -265.94 L-298.1 -264.62 L-298.96 -262.95 L-299.83 -261.25 L-300.53 -259.86 L-301.43 -258.11 L-302.35 -256.32 L-303.28 -254.49 L-304.04 -253.01 L-305.0 -251.13 L-305.97 -249.22 L-306.96 -247.27 L-307.76 -245.69 L-308.78 -243.69 L-309.81 -241.67 L-310.86 -239.62 L-311.91 -237.55 L-312.76 -235.9 L-313.81 -233.83 L-314.87 -231.77 L-315.71 -230.13 L-316.75 -228.08 L-317.8 -226.04 L-318.84 -224.02 L-319.87 -222.0 L-320.7 -220.39 L-321.73 -218.38 L-322.75 -216.38 L-323.77 -214.4 L-324.59 -212.81 L-325.6 -210.84 L-326.61 -208.88 L-327.62 -206.92 L-328.42 -205.36 L-329.42 -203.42 L-330.41 -201.49 L-331.4 -199.57 L-332.39 -197.66 L-333.17 -196.13 L-334.15 -194.24 L-335.12 -192.35 L-336.09 -190.47 L-337.06 -188.6 L-337.83 -187.12 L-338.79 -185.27 L-339.74 -183.42 L-340.69 -181.59 L-341.45 -180.14 L-342.4 -178.32 L-343.34 -176.52 L-344.28 -174.73 L-345.02 -173.3 L-345.95 -171.53 L-346.88 -169.76 L-347.79 -168.01 L-348.7 -166.26 L-349.43 -164.87 L-350.33 -163.15 L-351.23 -161.43 L-352.12 -159.72 L-352.83 -158.36 L-353.72 -156.67 L-354.61 -154.98 L-355.49 -153.29 L-356.19 -151.96 L-357.06 -150.29 L-357.93 -148.64 L-358.78 -147.0 L-359.46 -145.69 L-360.31 -144.07 L-361.15 -142.46 L-361.98 -140.86 L-362.64 -139.59 L-363.45 -138.01 L-364.26 -136.43 L-365.05 -134.87 L-365.68 -133.63 L-366.45 -132.09 L-367.22 -130.56 L-367.82 -129.34 L-368.57 -127.83 L-369.31 -126.32 L-369.89 -125.13 L-370.61 -123.64 L-371.32 -122.17 L-372.01 -120.71 L-372.55 -119.55 L-373.2 -118.1 L-373.84 -116.65 L-374.47 -115.2 L-374.97 -114.03 L-375.6 -112.57 L-376.24 -111.1 L-376.91 -109.64 L-377.46 -108.47 L-378.16 -107.01 L-378.88 -105.56 L-379.61 -104.12 L-380.21 -102.97 L-380.95 -101.53 L-381.7 -100.09 L-382.3 -98.94 L-383.05 -97.49 L-383.8 -96.04 L-384.4 -94.88 L-385.15 -93.42 L-385.91 -91.96 L-386.66 -90.49 L-387.27 -89.32 L-388.03 -87.85 L-388.8 -86.37 L-389.56 -84.88 L-390.18 -83.69 L-390.96 -82.2 L-391.74 -80.7 L-392.52 -79.2 L-393.3 -77.69 L-393.94 -76.48 L-394.73 -74.97 L-395.53 -73.44 L-396.33 -71.91 L-397.13 -70.38 L-397.78 -69.14 L-398.59 -67.6 L-399.4 -66.04 L-400.22 -64.48 L-400.88 -63.22 L-401.7 -61.64 L-402.53 -60.06 L-403.36 -58.47 L-404.19 -56.88 L-404.85 -55.6 L-405.69 -54.0 L-406.53 -52.39 L-407.2 -51.11 L-408.04 -49.49 L-408.88 -47.88 L-409.72 -46.26 L-410.4 -44.96 L-411.24 -43.33 L-412.09 -41.7 L-412.76 -40.39 L-413.6 -38.74 L-414.44 -37.1 L-415.29 -35.44 L-415.96 -34.12 L-416.81 -32.45 L-417.66 -30.79 L-418.51 -29.12 L-419.19 -27.78 L-420.05 -26.11 L-420.9 -24.44 L-421.57 -23.11 L-422.41 -21.46 L-423.24 -19.82 L-424.07 -18.19 L-424.89 -16.57 L-425.7 -14.96 L-426.35 -13.68 L-427.15 -12.1 L-427.95 -10.52 L-428.74 -8.96 L-429.52 -7.41 L-430.14 -6.17 L-430.91 -4.65 L-431.67 -3.13 L-432.43 -1.62 L-433.03 -0.43 L-433.78 1.05 L-434.52 2.52 L-435.1 3.69 L-435.83 5.13 L-436.55 6.57 L-437.12 7.7 L-437.84 9.11 L-438.54 10.5 L-439.24 11.88 L-439.8 12.98 L-440.49 14.33 L-441.19 15.67 L-441.89 16.99 L-442.59 18.29 L-443.15 19.31 L-443.84 20.58 L-444.53 21.83 L-445.22 23.07 L-445.78 24.05 L-446.49 25.26 L-447.21 26.45 L-447.96 27.63 L-448.73 28.79 L-449.36 29.71 L-450.17 30.83 L-451.0 31.94 L-451.85 33.03 L-452.54 33.89 L-453.42 34.95 L-454.32 35.99 L-455.24 37.02 L-456.17 38.03 L-456.92 38.82 L-457.88 39.8 L-458.85 40.76 L-459.84 41.71 L-460.65 42.46 L-461.67 43.37 L-462.71 44.26 L-463.77 45.13 L-464.63 45.82 L-465.72 46.65 L-466.83 47.45 L-467.96 48.23 L-468.87 48.84 L-470.03 49.58 L-471.19 50.3 L-472.13 50.85 L-473.32 51.52 L-474.51 52.18 L-475.72 52.81 L-476.69 53.3 L-477.91 53.89 L-479.13 54.46 L-480.37 55.01 L-481.37 55.42 L-482.62 55.92 L-483.89 56.4 L-485.16 56.84 L-486.19 57.18 L-487.49 57.57 L-488.79 57.93 L-490.1 58.27 L-491.42 58.57 L-492.48 58.79 L-493.82 59.04 L-495.17 59.26 L-496.53 59.44 L-497.62 59.57 L-498.99 59.7 L-500.37 59.8 L-501.48 59.85 L-502.87 59.9 L-504.26 59.91 L-505.66 59.9 L-506.78 59.87 L-508.18 59.81 L-509.59 59.72 L-510.99 59.6 L-512.4 59.46 L-513.53 59.33 L-514.94 59.14 L-516.36 58.93 L-517.78 58.71 L-519.21 58.46 L-520.35 58.25 L-521.79 57.97 L-523.24 57.69 L-524.71 57.4 L-526.19 57.11 L-527.39 56.87 L-528.9 56.57 L-530.44 56.27 L-531.69 56.02 L-533.27 55.71 L-534.88 55.4 L-536.51 55.08 L-538.16 54.75 L-539.51 54.49 L-541.21 54.15 L-542.94 53.82 L-544.7 53.48 L-546.48 53.13 L-547.93 52.86 L-549.77 52.5 L-551.63 52.15 L-553.51 51.79 L-555.42 51.42 L-556.95 51.13 L-558.88 50.75 L-560.82 50.38 L-562.37 50.08 L-564.31 49.7 L-566.26 49.32 L-568.22 48.94 L-570.18 48.56 L-571.75 48.25 L-573.71 47.87 L-575.69 47.49 L-577.66 47.1 L-579.25 46.79 L-581.23 46.41 L-583.23 46.02 L-585.22 45.63 L-586.82 45.32 L-588.83 44.92 L-590.84 44.53 L-592.85 44.13 L-594.87 43.74 L-596.49 43.42 L-598.51 43.02 L-600.54 42.62 L-602.57 42.22 L-604.2 41.89 L-606.24 41.49 L-608.29 41.08 L-610.34 40.67 L-611.98 40.34 L-614.03 39.93 L-616.09 39.51 L-618.16 39.1 L-620.23 38.69 L-621.89 38.35 L-623.96 37.94 L-626.04 37.52 L-628.13 37.11 L-630.22 36.69 L-631.89 36.36 L-633.99 35.94 L-636.09 35.53 L-638.18 35.12 L-640.26 34.7 L-641.92 34.38 L-643.98 33.97 L-646.03 33.56 L-648.08 33.15 L-649.7 32.83 L-651.72 32.43 L-653.74 32.04 L-655.74 31.64 L-657.73 31.25 L-659.32 30.94 L-661.29 30.56 L-663.25 30.17 L-665.2 29.79 L-666.76 29.49 L-668.69 29.11 L-670.61 28.74 L-672.14 28.44 L-674.04 28.07 L-675.93 27.71 L-677.44 27.41 L-679.33 27.04 L-681.2 26.68 L-683.06 26.32 L-684.54 26.03 L-686.38 25.67 L-688.21 25.31 L-690.03 24.95 L-691.47 24.67 L-693.26 24.32 L-695.04 23.97 L-696.81 23.62 L-698.22 23.34 L-699.96 23.0 L-701.69 22.66 L-703.07 22.39 L-704.78 22.05 L-706.47 21.71 L-708.15 21.38 L-709.82 21.05 L-711.14 20.79 L-712.78 20.46 L-714.41 20.14 L-716.02 19.82 L-717.62 19.51 L-718.89 19.25 L-720.47 18.94 L-722.03 18.63 L-723.27 18.38 L-724.8 18.08 L-726.32 17.77 L-727.52 17.53 L-729.01 17.23 L-730.49 16.93 L-731.66 16.7 L-733.13 16.4 L-734.59 16.1 L-735.74 15.87 L-737.16 15.57 L-738.57 15.28 L-739.96 14.99 L-741.07 14.77 L-742.43 14.48 L-743.77 14.2 L-745.1 13.92 L-746.4 13.65 L-747.69 13.38 L-748.71 13.17 L-749.97 12.91 L-751.21 12.66 L-752.42 12.41 L-753.62 12.17 L-754.57 11.98 L-755.74 11.76 L-756.89 11.55 L-758.03 11.35 L-758.93 11.2 L-760.04 11.02 L-761.14 10.86 L-762.01 10.74 L-763.08 10.61 L-764.14 10.49 L-765.18 10.39 L-766.01 10.33 L-767.04 10.27 L-768.06 10.22 L-768.87 10.2 L-769.87 10.19 L-770.87 10.19 L-771.67 10.22 L-772.65 10.26 L-773.63 10.32 L-774.61 10.4 L-775.38 10.48 L-776.35 10.59 L-777.31 10.72 L-778.26 10.86 L-779.02 10.99 L-779.97 11.17 L-780.71 11.32 L-781.65 11.52 L-782.57 11.73 L-783.48 11.96 L-784.21 12.16 L-785.11 12.41 L-786.0 12.68 L-786.71 12.91 L-787.6 13.21 L-788.48 13.52 L-789.18 13.78 L-790.06 14.13 L-790.93 14.49 L-791.8 14.86 L-792.5 15.18 L-793.36 15.58 L-794.22 16.01 L-795.08 16.45 L-795.76 16.81 L-796.61 17.28 L-797.45 17.77 L-798.29 18.27 L-798.95 18.69 L-799.78 19.22 L-800.59 19.77 L-801.4 20.34 L-802.21 20.93 L-802.85 21.41 L-803.64 22.02 L-804.42 22.65 L-805.19 23.3 L-805.8 23.83 L-806.56 24.51 L-807.31 25.2 L-808.05 25.91 L-808.63 26.49 L-809.35 27.23 L-810.06 27.98 L-810.76 28.75 L-811.45 29.53 L-812.0 30.17 L-812.66 30.98 L-813.32 31.8 L-813.97 32.64 L-814.48 33.32 L-815.11 34.19 L-815.73 35.06 L-816.34 35.95 L-816.82 36.67 L-817.43 37.58 L-818.02 38.5 L-818.62 39.42 L-819.1 40.16 L-819.69 41.1 L-820.29 42.05 L-820.9 43.01 L-821.39 43.78 L-822.0 44.77 L-822.63 45.77 L-823.27 46.79 L-823.91 47.82 L-824.44 48.66 L-825.1 49.73 L-825.78 50.82 L-826.34 51.71 L-827.04 52.83 L-827.76 53.98 L-828.5 55.15 L-829.1 56.1 L-829.86 57.31 L-830.63 58.53 L-831.42 59.79 L-832.06 60.8 L-832.88 62.09 L-833.71 63.4 L-834.56 64.74 L-835.42 66.09 L-836.12 67.2 L-837.0 68.6 L-837.9 70.02 L-838.81 71.47 L-839.73 72.94 L-840.48 74.14 L-841.43 75.65 L-842.4 77.18 L-843.38 78.74 L-844.17 80.01 L-845.17 81.6 L-846.19 83.22 L-847.21 84.85 L-848.24 86.48 L-849.07 87.79 L-850.1 89.43 L-851.13 91.06 L-852.15 92.68 L-852.97 93.97 L-853.98 95.57 L-854.99 97.16 L-855.99 98.74 L-856.78 100.0 L-857.77 101.56 L-858.75 103.11 L-859.73 104.65 L-860.5 105.88 L-861.47 107.4 L-862.43 108.91 L-863.38 110.4 L-864.32 111.89 L-865.07 113.07 L-866.0 114.54 L-866.93 115.99 L-867.85 117.43 L-868.76 118.86 L-869.48 120.0 L-870.38 121.41 L-871.27 122.8 L-872.16 124.19 L-873.04 125.56 L-873.74 126.64 L-874.6 127.99 L-875.46 129.33 L-876.31 130.65 L-877.15 131.96 L-877.82 133.0 L-878.65 134.29 L-879.47 135.56 L-880.29 136.82 L-880.93 137.81 L-881.73 139.05 L-882.52 140.27 L-883.14 141.23 L-883.91 142.43 L-884.67 143.62 L-885.26 144.56 L-885.99 145.73 L-886.71 146.88 L-887.41 148.03 L-887.96 148.94 L-888.64 150.07 L-889.3 151.19 L-889.82 152.08 L-890.46 153.18 L-891.09 154.27 L-891.57 155.14 L-892.17 156.21 L-892.75 157.28 L-893.3 158.34 L-893.73 159.18 L-894.25 160.23 L-894.75 161.27 L-895.14 162.1 L-895.61 163.13 L-896.05 164.15 L-896.48 165.17 L-896.81 165.99 L-897.2 167.01 L-897.57 168.04 L-897.92 169.07 L-898.18 169.9 L-898.49 170.93 L-898.72 171.76 L-898.99 172.8 L-899.24 173.85 L-899.47 174.89 L-899.64 175.73 L-899.83 176.78 L-899.99 177.83 L-900.14 178.88 L-900.23 179.72 L-900.34 180.78 L-900.42 181.83 L-900.48 182.89 L-900.52 183.94 L-900.54 184.79 L-900.55 185.85 L-900.53 186.91 L-900.48 187.97 L-900.42 189.04 L-900.35 189.89 L-900.25 190.96 L-900.12 192.03 L-900.0 192.89 L-899.83 193.96 L-899.64 195.03 L-899.43 196.1 L-899.19 197.17 L-898.99 198.03 L-898.71 199.1 L-898.48 199.95 L-898.16 201.02 L-897.83 202.09 L-897.47 203.15 L-897.17 204.01 L-896.78 205.07 L-896.36 206.13 L-895.92 207.2 L-895.47 208.26 L-895.08 209.1 L-894.59 210.16 L-894.18 211.01 L-893.65 212.07 L-893.1 213.14 L-892.65 214.0 L-892.07 215.09 L-891.48 216.19 L-890.87 217.31 L-890.37 218.21 L-889.73 219.36 L-889.09 220.53 L-888.43 221.72 L-887.9 222.69 L-887.22 223.91 L-886.53 225.16 L-885.82 226.44 L-885.25 227.48 L-884.52 228.8 L-883.78 230.14 L-883.17 231.24 L-882.41 232.63 L-881.63 234.04 L-880.84 235.48 L-880.2 236.64 L-879.38 238.12 L-878.56 239.62 L-877.88 240.83 L-877.03 242.38 L-876.17 243.94 L-875.29 245.53 L-874.39 247.14 L-873.67 248.44 L-872.75 250.09 L-871.82 251.76 L-870.88 253.44 L-870.13 254.8 L-869.19 256.5 L-868.25 258.2 L-867.5 259.55 L-866.57 261.22 L-865.65 262.89 L-864.74 264.55 L-864.01 265.87 L-863.11 267.51 L-862.22 269.14 L-861.33 270.76 L-860.63 272.04 L-859.75 273.64 L-858.88 275.22 L-858.01 276.79 L-857.31 278.04 L-856.45 279.58 L-855.59 281.12 L-854.74 282.64 L-854.06 283.85 L-853.22 285.35 L-852.39 286.83 L-851.55 288.31 L-850.73 289.77 L-850.07 290.92 L-849.25 292.36 L-848.44 293.77 L-847.79 294.9 L-846.98 296.28 L-846.17 297.66 L-845.36 299.01 L-844.71 300.08 L-843.91 301.4 L-843.1 302.71 L-842.46 303.74 L-841.65 305.01 L-840.84 306.26 L-840.19 307.24 L-839.38 308.45 L-838.56 309.63 L-837.74 310.79 L-837.07 311.71 L-836.22 312.83 L-835.35 313.94 L-834.65 314.82 L-833.75 315.91 L-832.83 316.97 L-832.09 317.82 L-831.14 318.85 L-830.37 319.67 L-829.39 320.67 L-828.4 321.65 L-827.38 322.62 L-826.35 323.56 L-825.52 324.31 L-824.46 325.22 L-823.38 326.11 L-822.51 326.81 L-821.41 327.67 L-820.29 328.51 L-819.16 329.33 L-818.25 329.97 L-817.09 330.76 L-815.93 331.52 L-814.75 332.27 L-813.8 332.85 L-812.6 333.56 L-811.39 334.25 L-810.17 334.93 L-809.19 335.45 L-807.96 336.09 L-806.72 336.71 L-805.72 337.19 L-804.46 337.78 L-803.19 338.34 L-801.92 338.88 L-800.64 339.4 L-799.6 339.8 L-798.31 340.28 L-797.01 340.74 L-795.7 341.17 L-794.64 341.5 L-793.32 341.89 L-792.0 342.26 L-790.93 342.54 L-789.59 342.87 L-788.25 343.18 L-787.17 343.41 L-785.82 343.67 L-784.47 343.91 L-783.11 344.13 L-782.02 344.29 L-780.66 344.47 L-779.29 344.63 L-777.92 344.77 L-776.82 344.86 L-775.45 344.95 L-774.07 345.03 L-772.68 345.09 L-771.57 345.12 L-770.19 345.14 L-768.8 345.15 L-767.41 345.14 L-766.3 345.12 L-764.91 345.07 L-763.52 345.01 L-762.4 344.94 L-761.0 344.84 L-759.6 344.73 L-758.19 344.6 L-757.06 344.48 L-755.64 344.33 L-754.22 344.17 L-752.78 344.0 L-751.33 343.83 L-750.15 343.68 L-748.67 343.49 L-747.16 343.3 L-745.64 343.1 L-744.4 342.94 L-742.83 342.73 L-741.25 342.52 L-739.96 342.35 L-738.33 342.14 L-736.68 341.92 L-735.34 341.75 L-733.64 341.53 L-731.92 341.31 L-730.17 341.09 L-728.75 340.91 L-726.96 340.68 L-725.14 340.45 L-723.3 340.22 L-721.43 339.99 L-719.92 339.81 L-718.01 339.57 L-716.07 339.34 L-714.11 339.1 L-712.52 338.91 L-710.51 338.67 L-708.49 338.43 L-706.44 338.18 L-704.37 337.94 L-702.71 337.74 L-700.61 337.49 L-698.51 337.24 L-696.39 336.99 L-694.25 336.73 L-692.54 336.53 L-690.38 336.27 L-688.22 336.02 L-686.04 335.76 L-684.28 335.55 L-682.08 335.28 L-679.87 335.02 L-677.64 334.75 L-675.85 334.54 L-673.6 334.28 L-671.35 334.02 L-669.08 333.75 L-666.81 333.49 L-665.0 333.27 L-662.72 333.0 L-660.44 332.74 L-658.15 332.47 L-655.86 332.19 L-654.03 331.97 L-651.73 331.7 L-649.42 331.42 L-647.12 331.14 L-645.26 330.91 L-642.95 330.63 L-640.62 330.35 L-638.3 330.06 L-636.43 329.83 L-634.1 329.54 L-631.75 329.25 L-629.41 328.96 L-627.53 328.72 L-625.17 328.43 L-622.81 328.13 L-620.44 327.84 L-618.07 327.55 L-616.17 327.31 L-613.79 327.02 L-611.4 326.73 L-609.01 326.44 L-607.09 326.2 L-604.69 325.9 L-602.28 325.6 L-599.87 325.3 L-597.94 325.05 L-595.53 324.74 L-593.11 324.43 L-590.71 324.11 L-588.31 323.8 L-586.4 323.55 L-584.02 323.23 L-581.64 322.91 L-579.28 322.59 L-576.92 322.28 L-575.03 322.02 L-572.67 321.71 L-570.32 321.4 L-568.44 321.16 L-566.09 320.86 L-563.74 320.57 L-561.39 320.28 L-559.52 320.06 L-557.17 319.79 L-554.82 319.54 L-552.48 319.3 L-550.6 319.13 L-548.25 318.92 L-545.89 318.74 L-543.54 318.58 L-541.19 318.43 L-539.31 318.32 L-536.96 318.2 L-534.61 318.09 L-532.27 317.99 L-530.39 317.91 L-528.04 317.83 L-525.7 317.76 L-523.35 317.71 L-521.47 317.67 L-519.12 317.64 L-516.77 317.63 L-514.41 317.64 L-512.53 317.66 L-510.16 317.7 L-507.8 317.76 L-505.43 317.84 L-503.06 317.94 L-501.16 318.03 L-498.77 318.16 L-496.39 318.3 L-494.0 318.46 L-491.6 318.64 L-489.67 318.79 L-487.26 318.98 L-484.83 319.17 L-482.38 319.37 L-480.4 319.53 L-477.92 319.73 L-475.41 319.94 L-472.89 320.14 L-470.86 320.31 L-468.3 320.53 L-465.73 320.74 L-463.14 320.96 L-461.05 321.13 L-458.43 321.34 L-455.78 321.56 L-453.12 321.78 L-450.44 321.99 L-448.29 322.17 L-445.59 322.38 L-442.89 322.6 L-440.73 322.76 L-438.03 322.97 L-435.35 323.17 L-432.67 323.38 L-430.0 323.57 L-427.86 323.73 L-425.2 323.93 L-422.54 324.13 L-419.9 324.32 L-417.26 324.52 L-415.15 324.67 L-412.52 324.87 L-409.9 325.06 L-407.28 325.25 L-405.19 325.4 L-402.59 325.59 L-399.99 325.77 L-397.41 325.96 L-394.83 326.14 L-392.77 326.28 L-390.2 326.46 L-387.64 326.63 L-385.08 326.8 L-383.04 326.93 L-380.5 327.1 L-377.97 327.27 L-375.44 327.44 L-372.92 327.61 L-370.91 327.75 L-368.4 327.93 L-365.9 328.12 L-363.41 328.33 L-361.42 328.51 L-358.94 328.75 L-356.47 329.0 L-354.51 329.22 L-352.05 329.5 L-349.61 329.81 L-347.18 330.12 L-345.24 330.39 L-342.83 330.73 L-340.43 331.1 L-338.03 331.48 L-335.65 331.88 L-333.74 332.21 L-331.36 332.64 L-329.0 333.09 L-326.64 333.54 L-324.76 333.91 L-322.42 334.39 L-320.09 334.88 L-317.77 335.38 L-315.91 335.79 L-313.6 336.31 L-311.3 336.85 L-309.01 337.39 L-307.18 337.83 L-304.9 338.39 L-302.63 338.96 L-300.82 339.43 L-298.56 340.03 L-296.31 340.64 L-294.52 341.15 L-292.28 341.8 L-290.5 342.33 L-288.28 343.02 L-286.07 343.72 L-283.86 344.44 L-281.67 345.18 L-279.92 345.78 L-277.74 346.55 L-275.58 347.33 L-273.42 348.12 L-271.69 348.77 L-269.55 349.59 L-267.41 350.44 L-265.71 351.13 L-263.59 352.01 L-261.48 352.92 L-259.37 353.84 L-257.28 354.79 L-255.6 355.56 L-253.52 356.54 L-251.44 357.53 L-249.38 358.52 L-247.33 359.53 L-245.7 360.34 L-243.68 361.36 L-241.67 362.38 L-239.67 363.41 L-238.08 364.23 L-236.11 365.27 L-234.15 366.3 L-232.2 367.33 L-230.26 368.36 L-228.71 369.19 L-226.79 370.21 L-224.88 371.24 L-223.36 372.05 L-221.46 373.06 L-219.57 374.07 L-217.69 375.07 L-215.82 376.06 L-214.33 376.86 L-212.48 377.84 L-210.63 378.83 L-208.8 379.81 L-206.98 380.79 L-205.53 381.57 L-203.72 382.54 L-201.93 383.51 L-200.15 384.48 L-198.37 385.45 L-196.97 386.23 L-195.22 387.2 L-193.49 388.19 L-191.77 389.18 L-190.08 390.17 L-188.73 390.97 L-187.06 391.98 L-185.41 392.99 L-183.77 394.01 L-182.48 394.83 L-180.87 395.85 L-179.29 396.88 L-177.71 397.91 L-176.47 398.74 L-174.93 399.78 L-173.4 400.82 L-171.89 401.87 L-170.4 402.91 L-168.93 403.96 L-167.76 404.8 L-166.31 405.84 L-164.87 406.89 L-163.46 407.93 L-162.05 408.98 L-160.94 409.82 L-159.57 410.86 L-158.21 411.91 L-156.87 412.96 L-155.81 413.8 L-154.49 414.85 L-153.2 415.9 L-152.17 416.74 L-150.9 417.79 L-149.65 418.84 L-148.41 419.9 L-147.42 420.74 L-146.2 421.8 L-144.99 422.86 L-144.03 423.71 L-142.84 424.77 L-141.66 425.83 L-140.72 426.67 L-139.57 427.72 L-138.43 428.77 L-137.52 429.61 L-136.4 430.65 L-135.29 431.69 L-134.19 432.72 L-133.11 433.76 L-132.25 434.58 L-131.19 435.61 L-130.14 436.63 L-129.1 437.65 L-128.28 438.46 L-127.26 439.47 L-126.26 440.48 L-125.28 441.49 L-124.3 442.5 L-123.53 443.3 L-122.59 444.3 L-121.66 445.3 L-120.74 446.3 L-120.02 447.09 L-119.13 448.08 L-118.26 449.07 L-117.57 449.86 L-116.73 450.84 L-115.9 451.82 L-115.09 452.8 L-114.45 453.57 L-113.67 454.54 L-112.9 455.51 L-112.15 456.47 L-111.55 457.23 L-110.83 458.18 L-110.11 459.13 L-109.41 460.09 L-108.86 460.86 L-108.18 461.81 L-107.52 462.77 L-106.99 463.54 L-106.36 464.5 L-105.74 465.47 L-105.13 466.43 L-104.54 467.4 L-104.08 468.17 L-103.52 469.13 L-102.97 470.1 L-102.44 471.07 L-102.03 471.84 L-101.52 472.81 L-101.03 473.78 L-100.55 474.75 L-100.17 475.52 L-99.71 476.48 L-99.26 477.44 L-98.83 478.39 L-98.49 479.14 L-98.08 480.08 L-97.69 481.0 L-97.38 481.72 L-97.0 482.62 L-96.63 483.51 L-96.27 484.37 L-95.98 485.06 L-95.64 485.9 L-95.3 486.72 L-94.96 487.51 L-94.62 488.29 L-94.35 488.9 L-94.02 489.65 L-93.68 490.37 L-93.35 491.08 L-93.08 491.63 L-92.75 492.3 L-92.42 492.94 L-92.09 493.56 L-91.83 494.04 L-91.48 494.63 L-91.13 495.19 L-90.76 495.74 L-90.46 496.16 L-90.07 496.68 L-89.67 497.17 L-89.26 497.65 L-88.93 498.02 L-88.49 498.48 L-88.03 498.92 L-87.56 499.35 L-87.17 499.68 L-86.66 500.09 L-86.14 500.48 L-85.72 500.78 L-85.17 501.14 L-84.61 501.49 L-84.15 501.76 L-83.56 502.09 L-82.97 502.4 L-82.36 502.69 L-81.86 502.92 L-81.24 503.18 L-80.6 503.43 L-79.95 503.67 L-79.29 503.89 L-78.75 504.05 L-78.07 504.24 L-77.39 504.42 L-76.69 504.58 L-75.98 504.73 L-75.41 504.83 L-74.68 504.96 L-73.95 505.06 L-73.2 505.16 L-72.59 505.23 L-71.81 505.3 L-71.01 505.36 L-70.36 505.41 L-69.52 505.46 L-68.66 505.51 L-67.77 505.56 L-67.04 505.6 L-66.11 505.65 L-65.16 505.69 L-64.19 505.74 L-63.39 505.78 L-62.37 505.83 L-61.34 505.89 L-60.28 505.94 L-59.2 506.0 L-58.32 506.04 L-57.21 506.1 L-56.09 506.15 L-55.18 506.2 L-54.04 506.25 L-52.88 506.3 L-51.94 506.35 L-50.76 506.4 L-49.57 506.45 L-48.36 506.51 L-47.38 506.56 L-46.15 506.63 L-44.91 506.71 L-43.66 506.81 L-42.65 506.9 L-41.39 507.03 L-40.13 507.18 L-38.88 507.35 L-37.63 507.54 L-36.63 507.71 L-35.39 507.93 L-34.16 508.18 L-32.93 508.45 L-31.71 508.75 L-30.74 509.0 L-29.53 509.33 L-28.33 509.68 L-27.38 509.98 L-26.19 510.37 L-25.02 510.79 L-24.08 511.14 L-22.92 511.59 L-21.76 512.07 L-20.61 512.57 L-19.69 512.98 L-18.54 513.51 L-17.41 514.06 L-16.27 514.63 L-15.37 515.1 L-14.24 515.7 L-13.11 516.32 L-11.97 516.95 L-11.06 517.47 L-9.92 518.13 L-8.77 518.8 L-7.61 519.49 L-6.44 520.19 L-5.49 520.76 L-4.29 521.48 L-3.08 522.22 L-1.84 522.97 L-0.84 523.58 L0.42 524.35 L1.71 525.14 L3.02 525.93 L4.09 526.58 L5.44 527.4 L6.81 528.24 L8.21 529.08 L9.63 529.94 L10.78 530.64 L12.24 531.53 L13.72 532.43 L15.23 533.34 L16.45 534.08 L18.0 535.03 L19.58 535.99 L21.19 536.96 L22.5 537.76 L24.16 538.77 L25.85 539.8 L27.57 540.85 L28.97 541.7 L30.74 542.77 L32.54 543.87 L33.99 544.75 L35.84 545.88 L37.72 547.02 L39.62 548.17 L41.16 549.1 L43.09 550.28 L45.05 551.47 L46.62 552.42 L48.57 553.6 L50.52 554.78 L52.08 555.72 L54.01 556.89 L55.94 558.06 L57.87 559.22 L59.78 560.37 L61.31 561.29 L63.21 562.44 L65.1 563.58 L66.61 564.49 L68.48 565.62 L70.35 566.75 L72.21 567.87 L73.69 568.77 L75.53 569.88 L77.37 570.99 L78.83 571.88 L80.65 572.98 L82.45 574.08 L84.25 575.18 L86.05 576.26 L87.47 577.13 L89.25 578.21 L91.01 579.28 L92.77 580.35 L94.52 581.41 L95.91 582.26 L97.64 583.31 L99.36 584.36 L100.73 585.19 L102.44 586.22 L104.13 587.25 L105.82 588.28 L107.16 589.09 L108.83 590.1 L110.49 591.11 L112.14 592.1 L113.46 592.9 L115.09 593.88 L116.72 594.86 L118.35 595.85 L119.65 596.63 L121.26 597.6 L122.86 598.57 L124.45 599.53 L126.03 600.49 L127.28 601.26 L128.84 602.21 L130.39 603.15 L131.92 604.09 L133.14 604.84 L134.65 605.77 L136.15 606.71 L137.63 607.65 L138.8 608.41 L140.24 609.36 L141.67 610.32 L143.07 611.28 L144.46 612.26 L145.55 613.04 L146.9 614.04 L148.24 615.05 L149.55 616.07 L150.59 616.9 L151.87 617.95 L153.13 619.01 L154.37 620.08 L155.36 620.94 L156.58 622.02 L157.78 623.11 L158.74 623.98 L159.92 625.08 L161.09 626.19 L162.24 627.31 L163.39 628.45 L164.29 629.36 L165.41 630.51 L166.51 631.67 L167.62 632.82 L168.72 633.98 L169.61 634.91 L170.72 636.08 L171.83 637.25 L172.94 638.41 L174.06 639.57 L174.94 640.49 L176.05 641.64 L177.14 642.77 L178.23 643.89 L179.31 645.01 L180.17 645.89 L181.23 646.97 L182.28 648.05 L183.32 649.12 L184.35 650.17 L185.17 651.0 L186.19 652.03 L187.19 653.05 L188.19 654.06 L188.99 654.86 L189.98 655.86 L190.96 656.85 L191.93 657.82 L192.7 658.58 L193.65 659.52 L194.59 660.45 L195.52 661.36 L196.43 662.26 L197.16 662.97 L198.05 663.85 L198.93 664.71 L199.63 665.39 L200.49 666.24 L201.34 667.07 L202.18 667.9 L203.01 668.72 L203.67 669.37 L204.49 670.17 L205.29 670.97 L206.09 671.75 L206.72 672.37 L207.5 673.12 L208.27 673.84 L209.04 674.54 L209.66 675.08 L210.44 675.73 L211.23 676.36 L211.88 676.84 L212.72 677.44 L213.57 678.01 L214.27 678.46 L215.16 679.02 L216.08 679.57 L216.82 680.02 L217.76 680.59 L218.71 681.17 L219.68 681.76 L220.47 682.23 L221.47 682.84 L222.49 683.45 L223.52 684.08 L224.36 684.59 L225.43 685.23 L226.51 685.89 L227.61 686.55 L228.73 687.23 L229.63 687.78 L230.78 688.47 L231.94 689.18 L233.11 689.89 L234.3 690.62 L235.26 691.2 L236.48 691.95 L237.72 692.7 L238.96 693.46 L239.96 694.07 L241.21 694.84 L242.46 695.62 L243.45 696.23 L244.69 697.0 L245.91 697.76 L247.13 698.52 L248.33 699.28 L249.28 699.88 L250.46 700.62 L251.64 701.35 L252.81 702.07 L253.97 702.77 L254.9 703.33 L256.05 704.01 L257.2 704.68 L258.35 705.33 L259.27 705.85 L260.41 706.47 L261.55 707.07 L262.46 707.54 L263.59 708.11 L264.73 708.65 L265.86 709.18 L266.76 709.58 L267.89 710.06 L269.02 710.52 L270.15 710.95 L271.06 711.27 L272.2 711.65 L273.35 712.0 L274.5 712.33 L275.66 712.63 L276.59 712.84 L277.76 713.09 L278.93 713.31 L280.11 713.5 L281.05 713.64 L282.23 713.78 L283.41 713.89 L284.36 713.96 L285.54 714.03 L286.73 714.06 L287.91 714.07 L289.09 714.06 L290.03 714.03 L291.21 713.97 L292.38 713.88 L293.31 713.8 L294.48 713.66 L295.64 713.51 L296.56 713.36 L297.71 713.16 L298.86 712.94 L299.99 712.7 L300.9 712.49 L302.03 712.2 L303.14 711.9 L304.25 711.57 L305.35 711.22 L306.22 710.93 L307.3 710.54 L308.37 710.13 L309.23 709.79 L310.28 709.34 L311.33 708.87 L312.36 708.38 L313.18 707.97 L314.2 707.45 L315.0 707.01 L316.0 706.45 L316.98 705.87 L317.75 705.39 L318.71 704.77 L319.65 704.13 L320.58 703.47 L321.31 702.93 L322.21 702.24 L323.09 701.53 L323.96 700.81 L324.81 700.06 L325.48 699.46 L326.3 698.68 L327.11 697.89 L327.9 697.08 L328.52 696.42 L329.27 695.59 L330.01 694.74 L330.59 694.05 L331.3 693.18 L331.99 692.3 L332.66 691.4 L333.31 690.48 L333.81 689.75 L334.43 688.81 L335.03 687.87 L335.6 686.91 L336.16 685.95 L336.6 685.17 L337.12 684.19 L337.63 683.19 L338.11 682.19 L338.57 681.19 L338.93 680.38 L339.36 679.35 L339.76 678.33 L340.14 677.29 L340.5 676.25 L340.77 675.41 L341.09 674.36 L341.39 673.3 L341.61 672.45 L341.86 671.38 L342.09 670.31 L342.3 669.23 L342.48 668.15 L342.64 667.07 L342.75 666.2 L342.87 665.11 L342.96 664.02 L343.04 662.93 L343.09 661.85 L343.12 660.98 L343.14 659.9 L343.13 658.82 L343.11 657.74 L343.08 656.88 L343.02 655.81 L342.94 654.75 L342.85 653.69 L342.76 652.84 L342.63 651.79 L342.48 650.75 L342.31 649.71 L342.16 648.89 L341.95 647.86 L341.72 646.84 L341.48 645.83 L341.27 645.02 L340.99 644.03 L340.69 643.04 L340.37 642.06 L340.04 641.08 L339.76 640.31 L339.39 639.34 L339.01 638.37 L338.61 637.41 L338.28 636.64 L337.85 635.68 L337.4 634.72 L336.95 633.77 L336.57 633.0 L336.08 632.05 L335.58 631.09 L335.07 630.12 L334.65 629.35 L334.12 628.37 L333.57 627.38 L333.02 626.38 L332.57 625.57 L332.0 624.55 L331.42 623.51 L330.83 622.47 L330.23 621.41 L329.75 620.56 L329.15 619.48 L328.53 618.39 L328.03 617.5 L327.4 616.39 L326.77 615.26 L326.12 614.11 L325.6 613.19 L324.94 612.02 L324.28 610.84 L323.74 609.88 L323.07 608.68 L322.39 607.46 L321.84 606.48 L321.14 605.24 L320.44 603.99 L319.87 602.98 L319.16 601.71 L318.44 600.42 L317.71 599.12 L317.13 598.06 L316.38 596.74 L315.64 595.39 L314.88 594.04 L314.27 592.94 L313.5 591.55 L312.72 590.16 L311.93 588.74 L311.3 587.6 L310.49 586.16 L309.68 584.7 L309.03 583.52 L308.2 582.03 L307.35 580.51 L306.5 578.98 L305.64 577.43 L304.95 576.18 L304.07 574.61 L303.19 573.01 L302.3 571.41 L301.58 570.11 L300.67 568.47 L299.75 566.82 L298.83 565.15 L297.89 563.47 L297.14 562.1 L296.19 560.39 L295.23 558.66 L294.26 556.91 L293.48 555.49 L292.5 553.71 L291.51 551.91 L290.5 550.1 L289.69 548.63 L288.67 546.78 L287.64 544.91 L286.59 543.03 L285.54 541.11 L284.68 539.57 L283.61 537.62 L282.52 535.65 L281.42 533.65 L280.53 532.04 L279.4 530.01 L278.26 527.95 L277.11 525.87 L275.94 523.77 L275.0 522.07 L273.8 519.92 L272.59 517.75 L271.62 515.99 L270.39 513.78 L269.15 511.55 L267.9 509.3 L266.89 507.49 L265.61 505.2 L264.33 502.9 L263.04 500.57 L261.73 498.23 L260.68 496.34 L259.35 493.96 L258.0 491.55 L256.65 489.13 L255.55 487.17 L254.16 484.69 L252.76 482.19 L251.35 479.66 L250.2 477.61 L248.76 475.03 L247.3 472.42 L246.12 470.31 L244.63 467.65 L243.12 464.96 L241.6 462.24 L240.37 460.05 L238.82 457.28 L237.26 454.5 L235.69 451.69 L234.42 449.42 L232.83 446.58 L231.23 443.72 L229.95 441.42 L228.34 438.55 L226.73 435.67 L225.12 432.79 L223.83 430.47 L222.21 427.58 L220.59 424.68 L218.96 421.77 L217.33 418.85 L216.03 416.52 L214.39 413.59 L212.75 410.66 L211.11 407.72 L209.47 404.78 L207.82 401.83 L206.49 399.47 L204.84 396.5 L203.18 393.53 L201.52 390.56 L200.19 388.17 L198.53 385.19 L196.87 382.19 L195.2 379.2 L193.54 376.21 L191.88 373.22 L190.55 370.83 L188.89 367.84 L187.23 364.86 L185.58 361.88 L184.25 359.49 L182.6 356.51 L180.95 353.54 L179.3 350.56 L177.99 348.18 L176.34 345.21 L174.7 342.24 L173.06 339.28 L171.74 336.91 L170.11 333.95 L168.47 330.99 L166.83 328.03 L165.52 325.67 L163.89 322.71 L162.25 319.76 L160.95 317.4 L159.32 314.46 L157.69 311.51 L156.06 308.57 L154.76 306.22 L153.13 303.29 L151.51 300.36 L149.88 297.43 L148.58 295.08 L146.96 292.16 L145.33 289.24 L143.71 286.32 L142.41 283.99 L140.79 281.07 L139.17 278.16 L137.88 275.84 L136.27 272.93 L134.65 270.02 L133.04 267.12 L131.43 264.22 L130.15 261.9 L128.55 259.0 L126.95 256.11 L125.67 253.8 L124.07 250.91 L122.47 248.02 L120.87 245.14 L119.59 242.83 L118.0 239.96 L116.4 237.08 L114.81 234.21 L113.53 231.92 L111.94 229.05 L110.35 226.18 L109.07 223.88 L107.48 221.02 L105.89 218.16 L104.3 215.29 L102.71 212.44 L101.44 210.15 L99.85 207.3 L98.27 204.45 L96.69 201.61 L95.11 198.76 L93.85 196.49 L92.28 193.65 L90.71 190.81 L89.14 187.98 L87.57 185.15 L86.32 182.89 L84.75 180.06 L83.19 177.24 L81.63 174.42 L80.39 172.17 L78.83 169.36 L77.28 166.55 L75.72 163.75 L74.48 161.51 L72.93 158.71 L71.38 155.92 L69.83 153.13 L68.28 150.34 L67.04 148.11 L65.49 145.34 L63.95 142.56 L62.4 139.79 L61.17 137.58 L59.62 134.81 L58.08 132.06 L56.53 129.3 L55.3 127.1 L53.75 124.36 L52.21 121.61 L50.98 119.42 L49.45 116.68 L47.91 113.95 L46.69 111.77 L45.16 109.04 L43.94 106.86 L42.41 104.14 L40.89 101.42 L39.37 98.71 L38.16 96.54 L36.64 93.83 L35.13 91.13 L33.92 88.97 L32.41 86.27 L30.9 83.58 L29.69 81.43 L28.18 78.75 L26.68 76.07 L25.18 73.39 L23.68 70.72 L22.48 68.59 L20.98 65.93 L19.48 63.27 L17.99 60.61 L16.5 57.96 L15.31 55.84 L13.82 53.2 L12.34 50.55 L10.86 47.92 L9.68 45.81 L8.21 43.17 L6.75 40.54 L5.28 37.92 L3.83 35.29 L2.66 33.2 L1.21 30.58 L-0.24 27.97 L-1.68 25.36 L-3.13 22.76 L-4.57 20.16 L-5.72 18.08 L-7.15 15.49 L-8.59 12.9 L-10.02 10.32 L-11.16 8.25 L-12.59 5.68L2.43 4.92 L3.84 7.48 L5.26 10.04 L6.4 12.1 L7.82 14.67 L9.25 17.25 L10.68 19.83 L12.12 22.42 L13.27 24.49 L14.71 27.08 L16.16 29.67 L17.61 32.27 L18.77 34.36 L20.22 36.96 L21.68 39.58 L23.14 42.19 L24.31 44.29 L25.77 46.91 L27.23 49.54 L28.7 52.17 L29.88 54.28 L31.35 56.92 L32.82 59.56 L34.3 62.21 L35.49 64.33 L36.97 66.99 L38.45 69.64 L39.94 72.31 L41.13 74.44 L42.62 77.11 L44.12 79.78 L45.61 82.46 L46.81 84.6 L48.32 87.28 L49.82 89.97 L51.33 92.66 L52.53 94.82 L54.04 97.52 L55.25 99.68 L56.76 102.39 L58.27 105.1 L59.78 107.82 L61.3 110.54 L62.51 112.72 L64.03 115.45 L65.55 118.18 L67.07 120.91 L68.28 123.1 L69.81 125.85 L71.33 128.59 L72.86 131.34 L74.38 134.1 L75.61 136.3 L77.14 139.06 L78.67 141.83 L80.2 144.6 L81.74 147.37 L82.97 149.58 L84.52 152.36 L86.06 155.14 L87.61 157.92 L89.17 160.7 L90.41 162.93 L91.97 165.72 L93.53 168.51 L95.09 171.31 L96.34 173.55 L97.91 176.35 L99.47 179.16 L101.04 181.97 L102.61 184.78 L103.87 187.03 L105.44 189.85 L107.01 192.67 L108.59 195.49 L109.86 197.75 L111.44 200.58 L113.02 203.42 L114.29 205.69 L115.87 208.53 L117.46 211.37 L119.05 214.21 L120.32 216.49 L121.91 219.34 L123.5 222.2 L125.09 225.05 L126.37 227.34 L127.97 230.2 L129.57 233.06 L130.86 235.36 L132.46 238.22 L134.07 241.09 L135.68 243.97 L137.3 246.84 L138.59 249.15 L140.2 252.03 L141.82 254.91 L143.44 257.8 L145.06 260.69 L146.35 263.0 L147.97 265.9 L149.59 268.8 L151.22 271.7 L152.52 274.02 L154.14 276.93 L155.77 279.84 L157.07 282.17 L158.7 285.09 L160.33 288.0 L161.96 290.93 L163.26 293.27 L164.89 296.19 L166.52 299.12 L168.15 302.06 L169.45 304.41 L171.09 307.34 L172.72 310.28 L174.36 313.23 L175.67 315.58 L177.31 318.53 L178.95 321.48 L180.59 324.43 L181.9 326.8 L183.55 329.75 L185.19 332.71 L186.51 335.08 L188.16 338.04 L189.81 341.0 L191.46 343.97 L192.78 346.34 L194.43 349.3 L196.07 352.25 L197.71 355.2 L199.02 357.55 L200.65 360.49 L202.28 363.41 L203.91 366.34 L205.21 368.67 L206.83 371.58 L208.45 374.48 L210.06 377.38 L211.35 379.69 L212.95 382.56 L214.55 385.43 L216.14 388.29 L217.41 390.57 L218.99 393.42 L220.57 396.26 L222.14 399.08 L223.71 401.9 L224.96 404.15 L226.52 406.94 L228.08 409.73 L229.63 412.51 L230.87 414.73 L232.42 417.49 L233.96 420.24 L235.19 422.43 L236.72 425.17 L238.24 427.9 L239.76 430.62 L241.28 433.33 L242.49 435.5 L243.99 438.2 L245.5 440.89 L246.99 443.57 L248.49 446.25 L249.68 448.39 L251.16 451.05 L252.64 453.71 L254.12 456.36 L255.3 458.47 L256.76 461.1 L258.23 463.73 L259.69 466.35 L260.85 468.44 L262.3 471.04 L263.75 473.63 L264.9 475.69 L266.33 478.26 L267.75 480.81 L269.16 483.35 L270.57 485.88 L271.69 487.89 L273.07 490.39 L274.45 492.87 L275.82 495.34 L276.91 497.29 L278.26 499.73 L279.6 502.14 L280.94 504.54 L282.0 506.44 L283.31 508.81 L284.62 511.15 L285.91 513.47 L286.94 515.32 L288.22 517.61 L289.48 519.88 L290.74 522.13 L291.99 524.36 L292.98 526.13 L294.21 528.33 L295.42 530.51 L296.39 532.25 L297.59 534.4 L298.78 536.53 L299.96 538.64 L300.9 540.32 L302.06 542.4 L302.98 544.05 L304.12 546.1 L305.25 548.13 L306.36 550.14 L307.25 551.74 L308.35 553.71 L309.44 555.67 L310.52 557.61 L311.58 559.53 L312.43 561.06 L313.48 562.95 L314.52 564.82 L315.56 566.67 L316.58 568.5 L317.39 569.95 L318.39 571.75 L319.38 573.53 L320.17 574.95 L321.14 576.69 L322.1 578.42 L323.05 580.12 L323.8 581.47 L324.73 583.14 L325.65 584.78 L326.55 586.41 L327.45 588.01 L328.16 589.28 L329.03 590.85 L329.9 592.4 L330.75 593.94 L331.6 595.45 L332.27 596.65 L333.1 598.14 L333.91 599.61 L334.72 601.06 L335.36 602.2 L336.15 603.62 L336.93 605.03 L337.7 606.41 L338.31 607.51 L339.07 608.87 L339.82 610.21 L340.55 611.53 L341.28 612.84 L341.86 613.88 L342.57 615.16 L343.27 616.43 L343.97 617.68 L344.65 618.92 L345.19 619.9 L345.86 621.12 L346.51 622.32 L347.16 623.52 L347.66 624.48 L348.28 625.67 L348.89 626.86 L349.47 628.04 L350.05 629.23 L350.49 630.17 L351.03 631.35 L351.56 632.53 L352.07 633.71 L352.46 634.66 L352.94 635.84 L353.39 637.03 L353.81 638.23 L354.21 639.43 L354.52 640.39 L354.87 641.6 L355.2 642.81 L355.5 644.03 L355.72 645.0 L355.97 646.22 L356.2 647.43 L356.41 648.66 L356.59 649.88 L356.72 650.87 L356.86 652.1 L356.98 653.34 L357.07 654.58 L357.12 655.57 L357.17 656.82 L357.2 658.06 L357.2 659.31 L357.19 660.31 L357.15 661.56 L357.08 662.81 L357.0 664.06 L356.88 665.31 L356.78 666.3 L356.63 667.55 L356.45 668.79 L356.25 670.04 L356.03 671.28 L355.84 672.27 L355.58 673.5 L355.29 674.73 L354.98 675.95 L354.72 676.92 L354.37 678.13 L354.0 679.34 L353.6 680.53 L353.27 681.48 L352.83 682.66 L352.38 683.84 L351.9 685.0 L351.41 686.15 L350.99 687.07 L350.46 688.21 L349.9 689.33 L349.44 690.23 L348.85 691.34 L348.24 692.43 L347.61 693.52 L346.97 694.59 L346.44 695.44 L345.77 696.5 L345.08 697.55 L344.37 698.58 L343.8 699.4 L343.06 700.41 L342.31 701.41 L341.54 702.4 L340.92 703.18 L340.12 704.15 L339.3 705.1 L338.47 706.04 L337.62 706.96 L336.93 707.69 L336.05 708.58 L335.15 709.45 L334.23 710.31 L333.49 710.98 L332.54 711.8 L331.58 712.6 L330.6 713.38 L329.81 713.99 L328.81 714.73 L327.79 715.46 L326.76 716.16 L325.71 716.84 L324.86 717.38 L323.8 718.02 L322.72 718.65 L321.63 719.25 L320.53 719.84 L319.64 720.3 L318.52 720.85 L317.39 721.38 L316.48 721.79 L315.33 722.29 L314.18 722.77 L313.02 723.23 L311.85 723.67 L310.91 724.01 L309.73 724.42 L308.77 724.73 L307.58 725.1 L306.37 725.45 L305.16 725.78 L304.19 726.03 L302.98 726.32 L301.75 726.58 L300.53 726.82 L299.54 727.0 L298.31 727.2 L297.07 727.37 L296.08 727.5 L294.84 727.63 L293.59 727.74 L292.35 727.83 L291.35 727.89 L290.11 727.94 L288.86 727.96 L287.61 727.97 L286.62 727.95 L285.37 727.91 L284.13 727.85 L283.13 727.79 L281.89 727.69 L280.65 727.57 L279.42 727.42 L278.43 727.29 L277.2 727.11 L275.98 726.91 L274.76 726.69 L273.54 726.46 L272.57 726.27 L271.36 726.01 L270.15 725.73 L268.94 725.43 L267.74 725.11 L266.79 724.84 L265.59 724.47 L264.41 724.09 L263.24 723.68 L262.08 723.24 L261.15 722.88 L260.0 722.4 L258.87 721.9 L257.74 721.37 L256.85 720.93 L255.75 720.36 L254.66 719.77 L253.57 719.17 L252.71 718.67 L251.64 718.03 L250.57 717.38 L249.5 716.72 L248.65 716.18 L247.57 715.5 L246.49 714.81 L245.41 714.12 L244.54 713.55 L243.46 712.84 L242.37 712.11 L241.28 711.39 L240.4 710.8 L239.29 710.07 L238.18 709.33 L237.28 708.74 L236.15 708.0 L235.02 707.26 L234.12 706.67 L232.99 705.94 L231.87 705.21 L230.75 704.49 L229.63 703.77 L228.73 703.19 L227.61 702.47 L226.48 701.75 L225.35 701.03 L224.23 700.31 L223.33 699.74 L222.21 699.02 L221.1 698.3 L219.99 697.6 L219.12 697.04 L218.04 696.34 L216.97 695.65 L215.9 694.98 L215.06 694.44 L214.02 693.77 L212.99 693.12 L212.17 692.6 L211.15 691.95 L210.14 691.31 L209.14 690.68 L208.35 690.17 L207.36 689.55 L206.38 688.93 L205.41 688.31 L204.64 687.83 L203.69 687.23 L202.74 686.63 L201.81 686.03 L200.88 685.45 L200.15 684.98 L199.24 684.39 L198.34 683.8 L197.44 683.2 L196.57 682.59 L195.87 682.09 L195.02 681.45 L194.19 680.79 L193.38 680.1 L192.74 679.53 L191.97 678.81 L191.36 678.22 L190.62 677.46 L189.89 676.7 L189.17 675.92 L188.6 675.3 L187.89 674.5 L187.17 673.7 L186.6 673.05 L185.9 672.23 L185.19 671.41 L184.49 670.57 L183.93 669.9 L183.24 669.05 L182.54 668.19 L181.99 667.5 L181.3 666.63 L180.61 665.75 L179.92 664.88 L179.36 664.17 L178.67 663.28 L177.97 662.39 L177.42 661.68 L176.73 660.79 L176.03 659.89 L175.34 659.0 L174.79 658.28 L174.1 657.38 L173.4 656.48 L172.7 655.59 L172.14 654.89 L171.42 654.03 L170.68 653.18 L169.93 652.34 L169.32 651.68 L168.53 650.84 L167.75 650.01 L166.95 649.17 L166.16 648.33 L165.52 647.66 L164.73 646.82 L163.93 645.98 L163.12 645.14 L162.48 644.47 L161.67 643.63 L160.86 642.78 L160.05 641.93 L159.39 641.24 L158.57 640.38 L157.74 639.52 L156.91 638.65 L156.08 637.79 L155.24 636.92 L154.56 636.22 L153.71 635.36 L152.86 634.49 L152.17 633.8 L151.3 632.94 L150.42 632.09 L149.71 631.41 L148.82 630.57 L147.91 629.73 L146.99 628.91 L146.05 628.1 L145.29 627.46 L144.33 626.66 L143.36 625.88 L142.37 625.11 L141.37 624.35 L140.55 623.76 L139.53 623.02 L138.49 622.29 L137.44 621.57 L136.58 621.0 L135.5 620.3 L134.41 619.59 L133.3 618.88 L132.17 618.16 L131.25 617.58 L130.09 616.86 L128.91 616.13 L127.72 615.39 L126.5 614.65 L125.52 614.05 L124.27 613.3 L123.02 612.53 L121.75 611.77 L120.48 611.0 L119.46 610.39 L118.16 609.61 L116.86 608.83 L115.54 608.04 L114.2 607.24 L113.12 606.6 L111.77 605.79 L110.4 604.97 L109.01 604.15 L107.9 603.48 L106.49 602.64 L105.07 601.79 L103.93 601.11 L102.5 600.24 L101.05 599.37 L99.59 598.49 L98.41 597.78 L96.93 596.89 L95.44 595.99 L93.94 595.08 L92.43 594.16 L91.21 593.42 L89.68 592.49 L88.13 591.56 L86.58 590.62 L85.33 589.86 L83.76 588.9 L82.17 587.93 L80.58 586.96 L78.98 585.98 L77.69 585.19 L76.07 584.2 L74.45 583.21 L72.82 582.21 L71.51 581.41 L69.87 580.41 L68.22 579.4 L66.89 578.59 L65.22 577.57 L63.54 576.55 L61.85 575.52 L60.17 574.5 L58.82 573.68 L57.14 572.66 L55.46 571.64 L54.12 570.82 L52.45 569.81 L50.79 568.79 L49.12 567.78 L47.79 566.98 L46.14 565.97 L44.48 564.97 L43.16 564.17 L41.52 563.17 L39.88 562.17 L38.57 561.37 L36.94 560.38 L35.31 559.39 L33.7 558.41 L32.1 557.44 L30.83 556.67 L29.27 555.72 L27.73 554.78 L26.21 553.86 L25.02 553.13 L23.54 552.23 L22.09 551.35 L20.66 550.47 L19.53 549.79 L18.13 548.93 L16.75 548.1 L15.39 547.27 L14.31 546.62 L12.98 545.81 L11.66 545.01 L10.36 544.23 L9.08 543.45 L8.06 542.83 L6.81 542.07 L5.56 541.32 L4.33 540.57 L3.36 539.98 L2.15 539.25 L0.96 538.53 L-0.22 537.82 L-1.37 537.12 L-2.29 536.56 L-3.42 535.88 L-4.53 535.2 L-5.63 534.53 L-6.72 533.88 L-7.57 533.36 L-8.62 532.72 L-9.66 532.09 L-10.68 531.47 L-11.69 530.86 L-12.49 530.38 L-13.47 529.8 L-14.43 529.22 L-15.39 528.66 L-16.14 528.21 L-17.08 527.67 L-18.0 527.13 L-18.92 526.61 L-19.64 526.2 L-20.54 525.71 L-21.43 525.23 L-22.32 524.77 L-23.02 524.41 L-23.9 523.97 L-24.78 523.55 L-25.65 523.15 L-26.53 522.77 L-27.23 522.48 L-28.1 522.13 L-28.98 521.79 L-29.86 521.48 L-30.75 521.18 L-31.46 520.96 L-32.34 520.7 L-33.23 520.46 L-34.12 520.23 L-35.01 520.02 L-35.73 519.87 L-36.64 519.68 L-37.55 519.52 L-38.48 519.36 L-39.24 519.25 L-40.19 519.11 L-41.16 518.98 L-42.13 518.86 L-42.93 518.76 L-43.92 518.66 L-44.93 518.55 L-45.75 518.48 L-46.78 518.4 L-47.82 518.32 L-48.87 518.25 L-49.72 518.21 L-50.79 518.16 L-51.87 518.12 L-52.95 518.09 L-54.05 518.08 L-54.93 518.07 L-56.04 518.07 L-57.16 518.07 L-58.29 518.06 L-59.43 518.06 L-60.34 518.04 L-61.49 518.02 L-62.63 517.98 L-63.54 517.95 L-64.67 517.89 L-65.78 517.83 L-66.67 517.78 L-67.76 517.7 L-68.85 517.6 L-69.92 517.5 L-70.99 517.38 L-71.84 517.27 L-72.88 517.13 L-73.92 516.97 L-74.95 516.81 L-75.97 516.63 L-76.77 516.48 L-77.77 516.28 L-78.76 516.06 L-79.74 515.82 L-80.52 515.61 L-81.48 515.34 L-82.44 515.04 L-83.38 514.73 L-84.13 514.46 L-85.05 514.11 L-85.96 513.73 L-86.85 513.33 L-87.73 512.91 L-88.42 512.56 L-89.26 512.11 L-90.1 511.63 L-90.91 511.13 L-91.55 510.72 L-92.33 510.18 L-93.1 509.63 L-93.84 509.05 L-94.43 508.58 L-95.13 507.97 L-95.82 507.34 L-96.48 506.69 L-97.12 506.03 L-97.62 505.49 L-98.22 504.8 L-98.79 504.09 L-99.35 503.37 L-99.88 502.64 L-100.29 502.05 L-100.79 501.3 L-101.28 500.54 L-101.75 499.76 L-102.21 498.98 L-102.57 498.34 L-103.01 497.52 L-103.43 496.7 L-103.76 496.03 L-104.16 495.18 L-104.54 494.33 L-104.92 493.46 L-105.21 492.76 L-105.58 491.88 L-105.95 491.0 L-106.32 490.11 L-106.7 489.21 L-107.01 488.49 L-107.4 487.59 L-107.81 486.68 L-108.22 485.76 L-108.64 484.84 L-108.99 484.1 L-109.43 483.17 L-109.88 482.24 L-110.26 481.5 L-110.74 480.56 L-111.23 479.63 L-111.63 478.87 L-112.15 477.93 L-112.68 476.99 L-113.22 476.05 L-113.67 475.29 L-114.24 474.34 L-114.82 473.4 L-115.42 472.45 L-116.03 471.5 L-116.53 470.74 L-117.17 469.79 L-117.82 468.85 L-118.49 467.91 L-119.18 466.97 L-119.75 466.22 L-120.46 465.28 L-121.2 464.35 L-121.95 463.42 L-122.56 462.68 L-123.34 461.76 L-124.14 460.83 L-124.94 459.9 L-125.59 459.16 L-126.41 458.22 L-127.23 457.27 L-128.05 456.32 L-128.88 455.36 L-129.54 454.59 L-130.37 453.64 L-131.22 452.69 L-132.08 451.75 L-132.78 451.0 L-133.67 450.07 L-134.56 449.13 L-135.48 448.2 L-136.21 447.45 L-137.14 446.52 L-138.08 445.58 L-139.03 444.65 L-140.0 443.72 L-140.77 442.97 L-141.75 442.04 L-142.75 441.1 L-143.75 440.16 L-144.76 439.22 L-145.58 438.47 L-146.62 437.52 L-147.67 436.56 L-148.72 435.61 L-149.78 434.66 L-150.64 433.89 L-151.73 432.93 L-152.83 431.96 L-153.95 430.98 L-154.85 430.19 L-156.0 429.21 L-157.16 428.22 L-158.11 427.42 L-159.3 426.43 L-160.51 425.44 L-161.73 424.44 L-162.97 423.44 L-163.97 422.64 L-165.23 421.65 L-166.52 420.65 L-167.82 419.65 L-168.87 418.85 L-170.19 417.85 L-171.54 416.86 L-172.62 416.06 L-174.0 415.07 L-175.38 414.08 L-176.51 413.28 L-177.92 412.29 L-179.35 411.3 L-180.51 410.51 L-181.96 409.53 L-183.44 408.54 L-184.92 407.56 L-186.43 406.58 L-187.64 405.8 L-189.17 404.83 L-190.72 403.86 L-192.27 402.89 L-193.83 401.94 L-195.07 401.19 L-196.63 400.26 L-198.2 399.34 L-199.45 398.62 L-201.02 397.72 L-202.59 396.84 L-203.85 396.14 L-205.42 395.27 L-206.98 394.41 L-208.54 393.56 L-210.1 392.71 L-211.33 392.04 L-212.87 391.2 L-214.39 390.37 L-215.91 389.55 L-217.12 388.9 L-218.62 388.09 L-220.11 387.29 L-221.59 386.5 L-223.06 385.72 L-224.23 385.09 L-225.69 384.32 L-227.14 383.56 L-228.58 382.8 L-230.02 382.05 L-231.45 381.3 L-232.59 380.71 L-234.02 379.96 L-235.44 379.21 L-236.57 378.6 L-237.98 377.84 L-239.38 377.07 L-240.77 376.31 L-241.89 375.7 L-243.28 374.94 L-244.67 374.18 L-245.78 373.59 L-247.18 372.85 L-248.58 372.13 L-249.99 371.42 L-251.12 370.85 L-252.54 370.16 L-253.97 369.47 L-255.4 368.79 L-256.84 368.12 L-257.99 367.59 L-259.44 366.93 L-260.89 366.28 L-262.35 365.64 L-263.51 365.13 L-264.96 364.5 L-266.42 363.88 L-267.58 363.39 L-269.04 362.78 L-270.49 362.19 L-271.95 361.6 L-273.12 361.13 L-274.59 360.56 L-276.05 359.99 L-277.52 359.43 L-278.7 358.99 L-280.17 358.44 L-281.65 357.9 L-283.13 357.36 L-284.32 356.94 L-285.8 356.43 L-287.29 355.91 L-288.49 355.51 L-289.98 355.01 L-291.49 354.52 L-292.99 354.04 L-294.2 353.66 L-295.71 353.19 L-297.22 352.73 L-298.44 352.36 L-299.97 351.91 L-301.5 351.47 L-302.73 351.11 L-304.28 350.68 L-305.83 350.25 L-307.38 349.83 L-308.95 349.42 L-310.2 349.09 L-311.78 348.69 L-313.37 348.3 L-314.96 347.92 L-316.24 347.62 L-317.85 347.25 L-319.47 346.89 L-321.1 346.54 L-322.73 346.19 L-324.05 345.93 L-325.7 345.6 L-327.37 345.28 L-329.04 344.98 L-330.73 344.68 L-332.08 344.45 L-333.79 344.16 L-335.5 343.89 L-337.23 343.62 L-338.97 343.37 L-340.36 343.17 L-342.12 342.92 L-343.89 342.69 L-345.67 342.46 L-347.1 342.29 L-348.9 342.08 L-350.71 341.89 L-352.53 341.7 L-354.0 341.56 L-355.85 341.39 L-357.71 341.22 L-359.59 341.07 L-361.48 340.91 L-363.01 340.79 L-364.92 340.64 L-366.46 340.52 L-368.39 340.37 L-370.32 340.22 L-372.26 340.07 L-374.21 339.91 L-375.78 339.79 L-377.75 339.63 L-379.74 339.47 L-381.33 339.35 L-383.34 339.19 L-385.35 339.02 L-387.38 338.86 L-389.01 338.73 L-391.05 338.56 L-393.11 338.4 L-395.17 338.23 L-396.84 338.09 L-398.92 337.92 L-401.02 337.75 L-403.12 337.57 L-405.24 337.4 L-406.94 337.26 L-409.07 337.08 L-411.21 336.9 L-413.37 336.72 L-415.53 336.54 L-417.27 336.39 L-419.45 336.21 L-421.64 336.02 L-423.85 335.83 L-426.06 335.64 L-427.83 335.49 L-430.06 335.3 L-432.29 335.11 L-434.54 334.92 L-436.34 334.76 L-438.61 334.56 L-440.88 334.37 L-443.16 334.17 L-445.45 333.97 L-447.29 333.81 L-449.59 333.62 L-451.91 333.42 L-454.23 333.23 L-456.09 333.07 L-458.43 332.88 L-460.77 332.69 L-463.1 332.51 L-464.96 332.36 L-467.28 332.18 L-469.6 332.0 L-471.91 331.82 L-474.22 331.64 L-476.06 331.5 L-478.36 331.33 L-480.66 331.17 L-482.96 331.01 L-485.25 330.85 L-487.08 330.73 L-489.36 330.58 L-491.64 330.45 L-493.91 330.32 L-496.19 330.19 L-498.0 330.11 L-500.27 330.01 L-502.55 329.92 L-504.82 329.84 L-507.1 329.77 L-508.92 329.72 L-511.2 329.67 L-513.47 329.63 L-515.75 329.61 L-517.58 329.6 L-519.86 329.6 L-522.14 329.62 L-524.43 329.65 L-526.71 329.71 L-528.55 329.76 L-530.84 329.85 L-533.14 329.96 L-535.43 330.08 L-537.73 330.22 L-539.58 330.35 L-541.88 330.52 L-544.19 330.72 L-546.49 330.93 L-548.81 331.16 L-550.66 331.35 L-552.98 331.61 L-555.31 331.87 L-557.65 332.14 L-559.53 332.36 L-561.89 332.64 L-564.25 332.92 L-566.14 333.14 L-568.52 333.43 L-570.9 333.71 L-573.29 334.01 L-575.21 334.24 L-577.62 334.54 L-580.04 334.83 L-581.97 335.07 L-584.4 335.37 L-586.84 335.67 L-589.28 335.97 L-591.24 336.21 L-593.7 336.51 L-596.16 336.82 L-598.61 337.12 L-600.57 337.36 L-603.02 337.65 L-605.46 337.95 L-607.41 338.19 L-609.85 338.49 L-612.27 338.78 L-614.7 339.08 L-616.63 339.31 L-619.05 339.6 L-621.46 339.9 L-623.87 340.19 L-625.79 340.42 L-628.18 340.71 L-630.57 341.0 L-632.96 341.29 L-634.86 341.52 L-637.23 341.8 L-639.59 342.09 L-641.93 342.37 L-643.79 342.59 L-646.12 342.86 L-648.43 343.14 L-650.27 343.36 L-652.57 343.63 L-654.86 343.9 L-657.15 344.18 L-659.43 344.45 L-661.25 344.66 L-663.52 344.94 L-665.79 345.21 L-668.05 345.48 L-669.85 345.7 L-672.11 345.97 L-674.35 346.25 L-676.15 346.46 L-678.39 346.74 L-680.62 347.01 L-682.4 347.23 L-684.63 347.51 L-686.85 347.78 L-688.62 348.0 L-690.83 348.28 L-693.04 348.55 L-695.24 348.83 L-697.0 349.05 L-699.19 349.32 L-701.37 349.59 L-703.54 349.86 L-705.69 350.12 L-707.83 350.39 L-709.53 350.6 L-711.64 350.86 L-713.72 351.12 L-715.79 351.38 L-717.44 351.59 L-719.48 351.84 L-721.5 352.09 L-723.5 352.34 L-725.08 352.54 L-727.05 352.78 L-728.98 353.02 L-730.89 353.26 L-732.78 353.49 L-734.27 353.68 L-736.1 353.9 L-737.91 354.13 L-739.69 354.35 L-741.1 354.52 L-742.83 354.74 L-744.53 354.94 L-746.21 355.15 L-747.87 355.35 L-749.17 355.51 L-750.78 355.7 L-752.37 355.89 L-753.94 356.07 L-755.49 356.25 L-756.72 356.38 L-758.25 356.54 L-759.76 356.68 L-761.26 356.8 L-762.46 356.89 L-763.95 356.99 L-765.43 357.06 L-766.92 357.12 L-768.4 357.16 L-769.58 357.17 L-771.05 357.17 L-772.52 357.15 L-773.98 357.1 L-775.45 357.03 L-776.61 356.97 L-778.07 356.86 L-779.53 356.72 L-780.98 356.57 L-782.14 356.43 L-783.58 356.23 L-785.02 356.01 L-786.46 355.76 L-787.89 355.5 L-789.04 355.27 L-790.46 354.96 L-791.89 354.63 L-793.3 354.29 L-794.43 353.99 L-795.84 353.6 L-797.24 353.2 L-798.64 352.76 L-799.75 352.4 L-801.14 351.93 L-802.51 351.44 L-803.88 350.93 L-804.96 350.5 L-806.31 349.95 L-807.66 349.38 L-808.99 348.79 L-810.05 348.31 L-811.37 347.69 L-812.69 347.05 L-813.99 346.4 L-815.29 345.74 L-816.33 345.19 L-817.62 344.49 L-818.89 343.77 L-820.16 343.03 L-821.42 342.27 L-822.42 341.65 L-823.65 340.85 L-824.88 340.04 L-825.85 339.37 L-827.04 338.51 L-828.23 337.64 L-829.4 336.74 L-830.32 336.01 L-831.46 335.08 L-832.59 334.13 L-833.7 333.16 L-834.57 332.37 L-835.66 331.37 L-836.72 330.36 L-837.78 329.32 L-838.61 328.48 L-839.63 327.42 L-840.64 326.34 L-841.63 325.24 L-842.41 324.35 L-843.38 323.23 L-844.32 322.09 L-845.25 320.93 L-845.98 320.0 L-846.87 318.81 L-847.75 317.62 L-848.61 316.4 L-849.45 315.18 L-850.1 314.19 L-850.91 312.93 L-851.69 311.67 L-852.46 310.4 L-853.07 309.39 L-853.82 308.11 L-854.57 306.85 L-855.17 305.84 L-855.94 304.58 L-856.71 303.33 L-857.5 302.07 L-858.28 300.8 L-858.9 299.78 L-859.67 298.5 L-860.42 297.21 L-861.16 295.9 L-861.75 294.86 L-862.47 293.55 L-863.2 292.24 L-863.92 290.92 L-864.65 289.61 L-865.24 288.55 L-865.98 287.22 L-866.72 285.89 L-867.47 284.56 L-868.07 283.49 L-868.82 282.15 L-869.58 280.8 L-870.33 279.44 L-870.94 278.35 L-871.71 276.98 L-872.47 275.61 L-873.09 274.51 L-873.86 273.12 L-874.64 271.73 L-875.41 270.34 L-876.04 269.21 L-876.82 267.8 L-877.61 266.38 L-878.4 264.96 L-879.04 263.82 L-879.84 262.38 L-880.65 260.94 L-881.46 259.49 L-882.27 258.04 L-882.93 256.87 L-883.74 255.41 L-884.39 254.25 L-885.2 252.81 L-886.01 251.38 L-886.8 249.96 L-887.43 248.84 L-888.21 247.46 L-888.97 246.1 L-889.58 245.02 L-890.33 243.69 L-891.07 242.38 L-891.8 241.08 L-892.52 239.8 L-893.09 238.79 L-893.8 237.54 L-894.49 236.3 L-895.18 235.06 L-895.86 233.83 L-896.4 232.84 L-897.05 231.59 L-897.69 230.34 L-898.31 229.09 L-898.79 228.09 L-899.39 226.85 L-899.99 225.63 L-900.6 224.41 L-901.22 223.2 L-901.72 222.23 L-902.35 221.02 L-902.97 219.81 L-903.58 218.59 L-904.18 217.36 L-904.64 216.38 L-905.21 215.14 L-905.75 213.91 L-906.28 212.67 L-906.69 211.67 L-907.19 210.41 L-907.67 209.16 L-908.12 207.89 L-908.55 206.62 L-908.88 205.6 L-909.27 204.32 L-909.64 203.04 L-909.98 201.75 L-910.24 200.72 L-910.54 199.42 L-910.82 198.13 L-911.03 197.09 L-911.27 195.79 L-911.49 194.48 L-911.68 193.17 L-911.81 192.12 L-911.95 190.81 L-912.07 189.5 L-912.16 188.19 L-912.22 186.88 L-912.25 185.83 L-912.26 184.52 L-912.25 183.21 L-912.21 181.91 L-912.16 180.86 L-912.07 179.56 L-911.96 178.27 L-911.81 176.97 L-911.68 175.95 L-911.49 174.66 L-911.27 173.39 L-911.02 172.12 L-910.81 171.11 L-910.51 169.85 L-910.19 168.6 L-909.92 167.61 L-909.55 166.37 L-909.16 165.13 L-908.75 163.91 L-908.4 162.94 L-907.94 161.73 L-907.45 160.53 L-907.05 159.58 L-906.53 158.4 L-905.98 157.23 L-905.52 156.3 L-904.94 155.15 L-904.33 154.01 L-903.72 152.88 L-903.23 151.98 L-902.62 150.87 L-902.02 149.75 L-901.42 148.62 L-900.95 147.71 L-900.34 146.57 L-899.73 145.43 L-899.09 144.3 L-898.44 143.17 L-897.91 142.27 L-897.24 141.15 L-896.56 140.05 L-895.87 138.94 L-895.32 138.05 L-894.62 136.94 L-893.93 135.82 L-893.22 134.7 L-892.66 133.8 L-891.95 132.67 L-891.23 131.53 L-890.65 130.62 L-889.93 129.48 L-889.2 128.33 L-888.47 127.17 L-887.88 126.24 L-887.14 125.07 L-886.39 123.89 L-885.64 122.71 L-885.03 121.76 L-884.27 120.56 L-883.5 119.36 L-882.73 118.15 L-882.11 117.18 L-881.33 115.96 L-880.55 114.73 L-879.77 113.49 L-879.13 112.5 L-878.34 111.25 L-877.55 109.99 L-876.75 108.72 L-876.11 107.7 L-875.31 106.42 L-874.51 105.14 L-873.86 104.1 L-873.05 102.8 L-872.23 101.49 L-871.41 100.17 L-870.74 99.11 L-869.91 97.78 L-869.07 96.44 L-868.23 95.1 L-867.55 94.02 L-866.7 92.66 L-865.84 91.29 L-864.97 89.92 L-864.28 88.82 L-863.4 87.43 L-862.52 86.04 L-861.82 84.92 L-860.93 83.52 L-860.03 82.11 L-859.14 80.71 L-858.43 79.58 L-857.55 78.19 L-856.67 76.8 L-855.81 75.41 L-854.94 74.04 L-854.26 72.94 L-853.4 71.59 L-852.56 70.25 L-851.73 68.93 L-851.08 67.88 L-850.27 66.59 L-849.47 65.32 L-848.68 64.07 L-848.07 63.09 L-847.3 61.88 L-846.56 60.7 L-845.97 59.76 L-845.25 58.61 L-844.53 57.48 L-843.83 56.36 L-843.14 55.25 L-842.59 54.38 L-841.91 53.3 L-841.24 52.24 L-840.58 51.19 L-840.06 50.36 L-839.42 49.34 L-838.79 48.33 L-838.16 47.33 L-837.67 46.55 L-837.06 45.58 L-836.46 44.62 L-835.87 43.67 L-835.39 42.92 L-834.79 41.99 L-834.18 41.07 L-833.69 40.34 L-833.06 39.45 L-832.43 38.56 L-831.8 37.69 L-831.3 36.99 L-830.7 36.13 L-830.1 35.26 L-829.51 34.38 L-829.05 33.68 L-828.47 32.79 L-827.88 31.9 L-827.41 31.19 L-826.82 30.3 L-826.21 29.42 L-825.59 28.54 L-824.95 27.67 L-824.43 26.98 L-823.77 26.13 L-823.09 25.28 L-822.54 24.61 L-821.84 23.78 L-821.12 22.96 L-820.54 22.31 L-819.8 21.51 L-819.05 20.71 L-818.29 19.92 L-817.52 19.13 L-816.89 18.51 L-816.1 17.74 L-815.3 16.98 L-814.48 16.22 L-813.82 15.62 L-812.99 14.88 L-812.15 14.15 L-811.29 13.42 L-810.59 12.85 L-809.71 12.14 L-808.82 11.45 L-807.91 10.77 L-807.17 10.24 L-806.24 9.59 L-805.29 8.95 L-804.52 8.45 L-803.55 7.85 L-802.56 7.26 L-801.56 6.7 L-800.55 6.15 L-799.74 5.73 L-798.71 5.22 L-797.67 4.73 L-796.62 4.25 L-795.78 3.88 L-794.72 3.44 L-793.65 3.01 L-792.57 2.59 L-791.49 2.19 L-790.61 1.88 L-789.51 1.51 L-788.41 1.16 L-787.29 0.82 L-786.4 0.56 L-785.27 0.26 L-784.14 -0.02 L-783.22 -0.24 L-782.08 -0.48 L-780.93 -0.71 L-779.77 -0.91 L-778.61 -1.09 L-777.68 -1.22 L-776.51 -1.36 L-775.33 -1.48 L-774.16 -1.57 L-773.21 -1.63 L-772.03 -1.69 L-770.85 -1.72 L-769.9 -1.73 L-768.71 -1.72 L-767.53 -1.69 L-766.58 -1.64 L-765.4 -1.57 L-764.22 -1.48 L-763.06 -1.37 L-762.13 -1.28 L-760.98 -1.14 L-759.84 -0.99 L-758.7 -0.83 L-757.56 -0.66 L-756.43 -0.47 L-755.54 -0.32 L-754.42 -0.13 L-753.3 0.05 L-752.42 0.19 L-751.32 0.36 L-750.21 0.51 L-749.09 0.67 L-747.97 0.84 L-747.07 0.98 L-745.95 1.17 L-744.83 1.36 L-743.71 1.56 L-742.81 1.73 L-741.69 1.94 L-740.56 2.16 L-739.43 2.38 L-738.29 2.6 L-737.38 2.79 L-736.24 3.01 L-735.08 3.24 L-733.92 3.48 L-732.75 3.71 L-731.81 3.9 L-730.63 4.13 L-729.43 4.37 L-728.23 4.61 L-727.02 4.85 L-726.04 5.05 L-724.82 5.29 L-723.58 5.54 L-722.34 5.79 L-721.34 5.99 L-720.08 6.24 L-718.82 6.5 L-717.54 6.75 L-716.52 6.96 L-715.23 7.22 L-713.94 7.48 L-712.64 7.74 L-711.59 7.95 L-710.28 8.21 L-708.95 8.48 L-707.62 8.75 L-706.28 9.01 L-705.21 9.23 L-703.85 9.5 L-702.5 9.77 L-701.13 10.04 L-699.75 10.32 L-698.65 10.54 L-697.26 10.82 L-695.86 11.1 L-694.74 11.32 L-693.33 11.6 L-691.92 11.88 L-690.78 12.11 L-689.36 12.39 L-688.22 12.61 L-686.78 12.9 L-685.34 13.18 L-684.18 13.41 L-682.72 13.7 L-681.26 13.99 L-680.08 14.22 L-678.61 14.51 L-677.13 14.8 L-675.64 15.09 L-674.45 15.32 L-672.95 15.61 L-671.45 15.9 L-669.95 16.2 L-668.75 16.43 L-667.25 16.71 L-665.76 17.0 L-664.28 17.29 L-662.8 17.57 L-661.63 17.79 L-660.18 18.07 L-658.75 18.35 L-657.62 18.57 L-656.21 18.84 L-654.83 19.11 L-653.46 19.37 L-652.11 19.63 L-651.05 19.83 L-649.73 20.09 L-648.44 20.34 L-647.16 20.58 L-646.15 20.78 L-644.91 21.02 L-643.68 21.25 L-642.46 21.48 L-641.27 21.72 L-640.33 21.9 L-639.16 22.12 L-638.01 22.34 L-636.88 22.56 L-635.98 22.74 L-634.87 22.95 L-633.77 23.17 L-632.68 23.38 L-631.82 23.55 L-630.74 23.76 L-629.67 23.96 L-628.82 24.13 L-627.76 24.34 L-626.7 24.55 L-625.85 24.73 L-624.8 24.95 L-623.74 25.18 L-622.69 25.43 L-621.65 25.68 L-620.81 25.9 L-619.78 26.17 L-618.76 26.45 L-617.94 26.67 L-616.92 26.94 L-615.9 27.2 L-614.88 27.44 L-614.06 27.63 L-613.03 27.85 L-611.98 28.07 L-610.93 28.28 L-610.07 28.45 L-609.0 28.67 L-607.92 28.89 L-606.83 29.11 L-605.95 29.29 L-604.83 29.52 L-603.69 29.75 L-602.52 29.99 L-601.34 30.24 L-600.38 30.43 L-599.16 30.68 L-597.93 30.94 L-596.67 31.19 L-595.4 31.45 L-594.37 31.66 L-593.06 31.93 L-591.74 32.2 L-590.39 32.47 L-589.03 32.74 L-587.93 32.96 L-586.54 33.23 L-585.13 33.51 L-583.7 33.79 L-582.55 34.02 L-581.09 34.31 L-579.64 34.59 L-578.17 34.88 L-576.99 35.11 L-575.49 35.4 L-573.99 35.7 L-572.46 36.0 L-570.92 36.3 L-569.68 36.54 L-568.12 36.84 L-566.54 37.15 L-565.26 37.4 L-563.66 37.71 L-562.04 38.03 L-560.4 38.35 L-559.09 38.61 L-557.43 38.93 L-555.76 39.26 L-554.07 39.6 L-552.72 39.86 L-551.03 40.2 L-549.36 40.53 L-547.7 40.87 L-546.4 41.13 L-544.79 41.45 L-543.21 41.76 L-541.67 42.07 L-540.46 42.32 L-538.97 42.61 L-537.81 42.85 L-536.39 43.13 L-535.0 43.41 L-533.65 43.68 L-532.32 43.95 L-531.02 44.21 L-530.0 44.41 L-528.75 44.66 L-527.53 44.9 L-526.33 45.13 L-525.39 45.32 L-524.24 45.54 L-523.11 45.77 L-521.99 45.99 L-521.12 46.16 L-520.03 46.36 L-518.96 46.56 L-517.9 46.75 L-517.05 46.9 L-516.0 47.08 L-514.96 47.25 L-513.93 47.4 L-513.1 47.52 L-512.08 47.65 L-511.06 47.77 L-510.04 47.87 L-509.23 47.93 L-508.21 48.0 L-507.2 48.05 L-506.18 48.08 L-505.38 48.09 L-504.37 48.09 L-503.37 48.06 L-502.36 48.02 L-501.56 47.97 L-500.56 47.89 L-499.55 47.79 L-498.54 47.66 L-497.54 47.52 L-496.73 47.4 L-495.72 47.23 L-494.72 47.03 L-493.71 46.82 L-492.91 46.64 L-491.91 46.4 L-490.92 46.13 L-489.93 45.85 L-489.14 45.6 L-488.15 45.28 L-487.18 44.94 L-486.2 44.58 L-485.43 44.28 L-484.47 43.88 L-483.51 43.47 L-482.57 43.03 L-481.82 42.67 L-480.88 42.2 L-479.96 41.72 L-479.04 41.21 L-478.13 40.69 L-477.41 40.25 L-476.51 39.7 L-475.63 39.13 L-474.75 38.54 L-474.05 38.06 L-473.19 37.45 L-472.34 36.82 L-471.51 36.17 L-470.85 35.64 L-470.03 34.96 L-469.23 34.26 L-468.45 33.55 L-467.67 32.82 L-467.07 32.23 L-466.32 31.47 L-465.59 30.69 L-464.87 29.9 L-464.3 29.26 L-463.62 28.44 L-462.94 27.61 L-462.28 26.77 L-461.64 25.91 L-461.14 25.21 L-460.52 24.32 L-459.9 23.42 L-459.3 22.51 L-458.82 21.76 L-458.23 20.82 L-457.64 19.87 L-457.18 19.1 L-456.6 18.12 L-456.03 17.13 L-455.47 16.12 L-454.9 15.1 L-454.46 14.26 L-453.89 13.21 L-453.33 12.14 L-452.76 11.06 L-452.19 9.96 L-451.74 9.07 L-451.16 7.94 L-450.58 6.8 L-450.12 5.87 L-449.53 4.7 L-448.94 3.51 L-448.45 2.55 L-447.85 1.33 L-447.23 0.1 L-446.6 -1.14 L-446.1 -2.15 L-445.46 -3.42 L-444.81 -4.71 L-444.15 -6.01 L-443.49 -7.32 L-442.95 -8.39 L-442.27 -9.72 L-441.59 -11.06 L-440.9 -12.4 L-440.34 -13.49 L-439.64 -14.86 L-438.93 -16.24 L-438.22 -17.64 L-437.49 -19.05 L-436.91 -20.18 L-436.17 -21.61 L-435.42 -23.06 L-434.82 -24.22 L-434.06 -25.69 L-433.3 -27.17 L-432.52 -28.66 L-431.9 -29.87 L-431.12 -31.38 L-430.32 -32.91 L-429.53 -34.44 L-428.88 -35.68 L-428.08 -37.24 L-427.26 -38.81 L-426.44 -40.4 L-425.78 -41.67 L-424.94 -43.27 L-424.1 -44.89 L-423.26 -46.52 L-422.58 -47.82 L-421.72 -49.47 L-420.86 -51.13 L-419.99 -52.8 L-419.29 -54.14 L-418.41 -55.82 L-417.53 -57.52 L-416.64 -59.23 L-415.92 -60.6 L-415.02 -62.33 L-414.11 -64.07 L-413.2 -65.81 L-412.47 -67.22 L-411.55 -68.98 L-410.62 -70.75 L-409.69 -72.53 L-408.94 -73.97 L-408.01 -75.76 L-407.08 -77.55 L-406.14 -79.36 L-405.2 -81.17 L-404.44 -82.63 L-403.5 -84.47 L-402.54 -86.31 L-401.59 -88.17 L-400.63 -90.03 L-399.86 -91.53 L-398.9 -93.41 L-397.93 -95.31 L-396.96 -97.21 L-396.18 -98.74 L-395.19 -100.65 L-394.21 -102.58 L-393.22 -104.52 L-392.23 -106.46 L-391.43 -108.03 L-390.43 -109.99 L-389.43 -111.96 L-388.42 -113.94 L-387.61 -115.53 L-386.6 -117.53 L-385.58 -119.53 L-384.56 -121.54 L-383.54 -123.57 L-382.72 -125.19 L-381.68 -127.23 L-380.65 -129.28 L-379.61 -131.33 L-378.77 -132.98 L-377.72 -135.05 L-376.66 -137.12 L-375.6 -139.2 L-374.54 -141.29 L-373.68 -142.97 L-372.61 -145.07 L-371.53 -147.18 L-370.45 -149.3 L-369.58 -151.0 L-368.5 -153.13 L-367.4 -155.26 L-366.31 -157.41 L-365.21 -159.56 L-364.32 -161.29 L-363.22 -163.45 L-362.11 -165.62 L-360.99 -167.8 L-360.09 -169.55 L-358.97 -171.73 L-357.85 -173.93 L-356.94 -175.69 L-355.81 -177.9 L-354.67 -180.11 L-353.53 -182.33 L-352.62 -184.12 L-351.47 -186.35 L-350.32 -188.58 L-349.17 -190.82 L-348.25 -192.61 L-347.1 -194.84 L-345.95 -197.08 L-344.8 -199.32 L-343.65 -201.56 L-342.73 -203.35 L-341.58 -205.59 L-340.43 -207.83 L-339.29 -210.05 L-338.38 -211.83 L-337.25 -214.03 L-336.13 -216.22 L-335.24 -217.96 L-334.13 -220.13 L-333.04 -222.28 L-331.95 -224.41 L-330.87 -226.52 L-330.01 -228.2 L-328.94 -230.28 L-327.89 -232.35 L-326.84 -234.39 L-325.8 -236.42 L-324.98 -238.02 L-323.95 -240.01 L-322.94 -241.98 L-321.94 -243.94 L-321.15 -245.49 L-320.16 -247.41 L-319.19 -249.31 L-318.22 -251.2 L-317.27 -253.06 L-316.51 -254.55 L-315.58 -256.38 L-314.84 -257.84 L-313.92 -259.64 L-313.01 -261.43 L-312.1 -263.2 L-311.39 -264.6 L-310.5 -266.33 L-309.63 -268.04 L-308.76 -269.74 L-308.08 -271.07 L-307.23 -272.73 L-306.4 -274.36 L-305.57 -275.98 L-304.92 -277.25 L-304.11 -278.83 L-303.32 -280.39 L-302.68 -281.61 L-301.91 -283.13 L-301.14 -284.62 L-300.39 -286.09 L-299.79 -287.25 L-299.06 -288.68 L-298.34 -290.09 L-297.63 -291.47 L-297.07 -292.56 L-296.38 -293.9 L-295.7 -295.22 L-295.03 -296.52 L-294.38 -297.81 L-293.86 -298.82 L-293.21 -300.07 L-292.7 -301.05 L-292.06 -302.26 L-291.43 -303.45 L-290.79 -304.61 L-290.15 -305.76 L-289.64 -306.65 L-289.0 -307.76 L-288.35 -308.84 L-287.7 -309.9 L-287.03 -310.95 L-286.49 -311.77 L-285.79 -312.79 L-285.09 -313.79 L-284.37 -314.77 L-283.78 -315.55 L-283.03 -316.5 L-282.27 -317.44 L-281.65 -318.17 L-280.85 -319.08 L-280.05 -319.97 L-279.39 -320.67 L-278.56 -321.52 L-277.72 -322.36 L-276.86 -323.18 L-276.17 -323.83 L-275.29 -324.61 L-274.39 -325.38 L-273.48 -326.14 L-272.74 -326.73 L-271.81 -327.46 L-270.85 -328.17 L-269.88 -328.87 L-269.1 -329.42 L-268.11 -330.1 L-267.1 -330.76 L-266.08 -331.4 L-265.26 -331.9 L-264.21 -332.51 L-263.16 -333.11 L-262.09 -333.68 L-261.23 -334.13 L-260.14 -334.67 L-259.03 -335.2 L-257.92 -335.7 L-257.02 -336.09 L-255.9 -336.56 L-254.76 -337.0 L-253.62 -337.42 L-252.71 -337.74 L-251.56 -338.12 L-250.4 -338.48 L-249.48 -338.75 L-248.31 -339.07 L-247.14 -339.36 L-246.2 -339.58 L-245.03 -339.83 L-243.84 -340.06 L-242.66 -340.27 L-241.71 -340.42 L-240.52 -340.59 L-239.32 -340.73 L-238.12 -340.85 L-236.93 -340.95 L-235.96 -341.02 L-234.76 -341.08 L-233.56 -341.12 L-232.35 -341.14 L-231.38 -341.15 L-230.17 -341.13 L-228.97 -341.09 L-228.0 -341.05 L-226.8 -340.97 L-225.6 -340.88 L-224.41 -340.77 L-223.22 -340.64 L-222.28 -340.52 L-221.1 -340.36 L-219.93 -340.18 L-218.99 -340.02 L-217.83 -339.81 L-216.68 -339.57 L-215.53 -339.32 L-214.62 -339.1 L-213.49 -338.81 L-212.36 -338.5 L-211.24 -338.18 L-210.36 -337.9 L-209.26 -337.54 L-208.17 -337.15 L-207.3 -336.83 L-206.23 -336.42 L-205.16 -335.98 L-204.11 -335.52 L-203.27 -335.14 L-202.23 -334.65 L-201.19 -334.13 L-200.17 -333.6 L-199.36 -333.16 L-198.35 -332.6 L-197.35 -332.02 L-196.35 -331.42 L-195.57 -330.93 L-194.59 -330.3 L-193.62 -329.66 L-192.66 -329.0 L-191.9 -328.47 L-190.95 -327.78 L-190.01 -327.07 L-189.09 -326.35 L-188.36 -325.76 L-187.45 -325.01 L-186.56 -324.24 L-185.68 -323.45 L-184.99 -322.81 L-184.14 -321.99 L-183.31 -321.15 L-182.65 -320.47 L-181.85 -319.6 L-181.06 -318.72 L-180.29 -317.82 L-179.69 -317.1 L-178.95 -316.17 L-178.23 -315.24 L-177.66 -314.49 L-176.95 -313.55 L-176.26 -312.6 L-175.58 -311.63 L-175.04 -310.84 L-174.38 -309.85 L-173.73 -308.84 L-173.09 -307.81 L-172.59 -306.98 L-171.96 -305.93 L-171.32 -304.87 L-170.82 -304.0 L-170.18 -302.91 L-169.54 -301.81 L-168.9 -300.69 L-168.38 -299.78 L-167.74 -298.64 L-167.09 -297.48 L-166.44 -296.31 L-165.78 -295.13 L-165.25 -294.18 L-164.58 -292.98 L-163.91 -291.77 L-163.36 -290.8 L-162.68 -289.57 L-161.99 -288.33 L-161.29 -287.08 L-160.73 -286.08 L-160.02 -284.81 L-159.31 -283.53 L-158.6 -282.24 L-158.02 -281.2 L-157.29 -279.89 L-156.56 -278.57 L-155.83 -277.24 L-155.23 -276.17 L-154.49 -274.82 L-153.74 -273.47 L-152.98 -272.1 L-152.37 -271.0 L-151.61 -269.62 L-150.84 -268.22 L-150.06 -266.82 L-149.44 -265.7 L-148.65 -264.28 L-147.86 -262.85 L-147.23 -261.7 L-146.43 -260.26 L-145.63 -258.81 L-144.82 -257.35 L-144.17 -256.18 L-143.35 -254.7 L-142.52 -253.22 L-141.86 -252.02 L-141.02 -250.52 L-140.18 -249.02 L-139.34 -247.5 L-138.66 -246.28 L-137.8 -244.75 L-136.94 -243.21 L-136.07 -241.66 L-135.36 -240.41 L-134.48 -238.84 L-133.58 -237.26 L-132.68 -235.67 L-131.96 -234.4 L-131.04 -232.79 L-130.12 -231.17 L-129.2 -229.56 L-128.46 -228.26 L-127.52 -226.64 L-126.58 -225.0 L-125.64 -223.36 L-124.68 -221.71 L-123.91 -220.38 L-122.95 -218.71 L-121.98 -217.03 L-121.0 -215.34 L-120.21 -213.98 L-119.22 -212.27 L-118.23 -210.55 L-117.23 -208.83 L-116.42 -207.44 L-115.4 -205.7 L-114.38 -203.96 L-113.34 -202.21 L-112.3 -200.44 L-111.46 -199.03 L-110.4 -197.25 L-109.34 -195.46 L-108.27 -193.67 L-107.41 -192.23 L-106.34 -190.42 L-105.27 -188.62 L-104.2 -186.82 L-103.34 -185.38 L-102.28 -183.57 L-101.23 -181.76 L-100.19 -179.94 L-99.16 -178.11 L-98.35 -176.64 L-97.34 -174.79 L-96.34 -172.94 L-95.33 -171.08 L-94.32 -169.21 L-93.51 -167.72 L-92.47 -165.85 L-91.43 -163.97 L-90.59 -162.46 L-89.53 -160.56 L-88.46 -158.66 L-87.4 -156.74 L-86.33 -154.82 L-85.46 -153.28 L-84.38 -151.34 L-83.29 -149.39 L-82.42 -147.83 L-81.32 -145.87 L-80.22 -143.9 L-79.12 -141.92 L-78.01 -139.94 L-77.11 -138.34 L-76.0 -136.34 L-74.88 -134.33 L-73.75 -132.31 L-72.84 -130.69 L-71.71 -128.66 L-70.57 -126.62 L-69.43 -124.58 L-68.28 -122.53 L-67.37 -120.89 L-66.22 -118.84 L-65.06 -116.77 L-63.91 -114.7 L-62.75 -112.62 L-61.82 -110.96 L-60.65 -108.86 L-59.48 -106.77 L-58.3 -104.66 L-57.36 -102.97 L-56.18 -100.85 L-54.99 -98.72 L-53.81 -96.59 L-52.85 -94.87 L-51.66 -92.73 L-50.46 -90.57 L-49.25 -88.41 L-48.04 -86.24 L-47.07 -84.5 L-45.86 -82.32 L-44.64 -80.13 L-43.42 -77.94 L-42.2 -75.74 L-41.21 -73.97 L-39.98 -71.76 L-38.75 -69.54 L-37.51 -67.31 L-36.52 -65.52 L-35.27 -63.28 L-34.03 -61.04 L-33.02 -59.24 L-31.77 -56.98 L-30.51 -54.72 L-29.25 -52.45 L-28.24 -50.62 L-26.97 -48.34 L-25.7 -46.06 L-24.43 -43.76 L-23.4 -41.92 L-22.12 -39.62 L-20.84 -37.31 L-19.55 -34.99 L-18.52 -33.14 L-17.23 -30.81 L-15.93 -28.48 L-14.89 -26.6 L-13.59 -24.26 L-12.28 -21.91 L-10.97 -19.56 L-9.66 -17.19 L-8.61 -15.3 L-7.29 -12.93 L-5.98 -10.55 L-4.65 -8.17 L-3.59 -6.25 L-2.27 -3.86 L-0.93 -1.46L2.43 4.92" fill="#bebebe" id="track-outline" stroke="black" stroke-width="0.3px"></path><line fill="black" stroke="black" stroke-width="5px" x1="2.426705239713192" x2="-12.58814610540867" y1="4.915563076734543" y2="5.680011077970266"></line></g></g></svg>