<svg width="50" height="50" viewBox="0 0 755 394" fill="none"><path fill-rule="evenodd" clip-rule="evenodd" d="M127.444 4.28558C138.077 6.71958 138.895 6.80357 133.444 4.90057C130.419 3.84457 126.594 2.99056 124.944 3.00356C122.882 3.01956 123.664 3.41958 127.444 4.28558ZM616.922 5.32757C612.43 6.74757 600.444 12.6106 600.444 13.3876C600.444 13.6626 603.257 12.4656 606.694 10.7276C610.132 8.98956 615.644 6.76758 618.944 5.78958C622.244 4.81158 624.044 4.02156 622.944 4.03356C621.844 4.04656 619.134 4.62857 616.922 5.32757ZM683.131 6.79757C691.613 9.85157 698.259 13.9256 705.815 20.7026L712.944 27.0966L705.768 20.0416C700.446 14.8096 696.421 11.9366 690.195 8.92257C685.576 6.68757 680.931 4.87459 679.871 4.89459C678.811 4.91459 680.278 5.77057 683.131 6.79757ZM152.444 13.2426C152.444 13.5426 155.707 15.9026 159.694 18.4856C163.681 21.0686 168.857 24.4806 171.194 26.0686C173.531 27.6556 175.444 28.7376 175.444 28.4726C175.444 27.9576 162.433 18.8576 156.194 15.0086C154.132 13.7366 152.444 12.9416 152.444 13.2426ZM46.4758 21.6086C42.2268 25.8706 38.2068 30.4836 37.5418 31.8586C36.5668 33.8756 36.7608 33.7786 38.5438 31.3586C39.7598 29.7086 44.1008 25.0966 48.1908 21.1086C52.2808 17.1206 55.3068 13.8586 54.9138 13.8586C54.5218 13.8586 50.7248 17.3466 46.4758 21.6086ZM589.444 19.9976C584.398 23.6366 579.65 27.7996 583.444 25.2566C593.89 18.2566 596.444 16.4756 596.444 16.1926C596.444 15.2986 594.47 16.3716 589.444 19.9976ZM637.444 16.8546C634.969 17.2366 638.794 17.3316 645.944 17.0646C653.094 16.7986 659.132 16.4176 659.361 16.2196C660.073 15.6026 642.192 16.1206 637.444 16.8546ZM108.944 17.5146C126.051 19.5486 129.478 20.3276 138.694 24.2786C144.637 26.8256 143.048 25.2816 136.767 22.4066C130.61 19.5876 116.663 16.7686 110.063 17.0086C106.897 17.1236 106.638 17.2406 108.944 17.5146ZM74.8528 20.6646C72.6028 21.5966 69.6778 23.1546 68.3528 24.1276C66.6318 25.3916 67.2278 25.2736 70.4438 23.7126C72.9188 22.5116 76.7438 20.9586 78.9438 20.2606C81.1438 19.5636 82.0438 18.9876 80.9438 18.9816C79.8438 18.9756 77.1028 19.7326 74.8528 20.6646ZM57.5908 32.6086C53.9348 36.3206 49.9028 41.2716 48.6298 43.6086C45.2468 49.8226 46.5808 48.7966 50.8238 41.9216C52.8388 38.6566 57.0658 33.7136 60.2158 30.9366C63.3658 28.1586 65.5598 25.8806 65.0908 25.8726C64.6208 25.8646 61.2458 28.8966 57.5908 32.6086ZM176.444 28.5586C176.444 29.7366 183.917 33.5026 187.944 34.3546C189.594 34.7036 188.345 33.8796 185.168 32.5246C181.992 31.1696 178.729 29.5106 177.918 28.8376C177.108 28.1646 176.444 28.0386 176.444 28.5586ZM590.944 37.4786C584.37 42.0936 577.222 45.7596 570.444 47.9946C566.75 49.2126 566.093 49.6256 568.444 49.2506C573.269 48.4816 583.105 43.8426 590.372 38.9076C593.711 36.6396 596.444 34.5756 596.444 34.3216C596.444 33.6306 596.344 33.6876 590.944 37.4786ZM371.944 36.8626L200.944 37.3676L372.635 37.6126C467.065 37.7476 544.558 37.4836 544.841 37.0256C545.124 36.5666 544.813 36.2296 544.15 36.2756C543.487 36.3206 465.994 36.5856 371.944 36.8626ZM722.667 46.1086C724.866 51.1956 727.939 58.7336 729.497 62.8586C731.055 66.9836 732.355 69.7806 732.387 69.0746C732.453 67.5826 724.102 46.1356 721.303 40.6086C717.893 33.8776 718.584 36.6586 722.667 46.1086ZM165.444 40.4076C165.444 41.2626 179.585 47.6916 182.944 48.3646C184.594 48.6956 182.665 47.6326 178.657 46.0026C174.649 44.3736 170.278 42.3246 168.942 41.4496C166.391 39.7776 165.444 39.4956 165.444 40.4076ZM635.176 71.8136C641.602 74.1266 645.245 76.6616 650.016 82.1406C652.036 84.4606 653.213 85.4306 652.632 84.2956C649.758 78.6906 637.083 69.8806 631.944 69.9166C630.844 69.9246 632.298 70.7786 635.176 71.8136ZM143.826 72.3366C147.675 73.8326 162.075 81.0136 178.444 89.6006C202.095 102.008 211.676 113.361 214.447 132.261C215.081 136.587 215.213 136.819 215.319 133.791C215.47 129.482 213.054 120.996 209.93 114.859C206.878 108.862 197.034 99.3146 188.7 94.2686C178.212 87.9176 146.291 71.9276 142.944 71.3486C140.436 70.9136 140.581 71.0756 143.826 72.3366ZM732.843 72.1226C733.145 73.0926 734.841 79.0436 736.611 85.3466C738.382 91.6486 740.016 96.6196 740.243 96.3926C740.789 95.8476 734.514 73.7886 733.264 71.8586C732.469 70.6296 732.392 70.6776 732.843 72.1226ZM110.844 74.6866C108.699 76.2426 105.484 79.1806 103.7 81.2146C100.484 84.8826 95.9688 92.7166 96.6678 93.4156C96.8678 93.6156 97.8898 92.1096 98.9388 90.0696C102.011 84.0946 107.053 78.3056 112.093 74.9676C114.675 73.2576 116.327 71.8586 115.765 71.8586C115.204 71.8586 112.989 73.1316 110.844 74.6866ZM601.444 74.2476C583.714 83.4596 567.664 92.2696 563.124 95.2826C555.932 100.057 547.263 109.309 544.06 115.63C540.209 123.23 540.899 123.39 545.048 115.859C552.564 102.215 559.029 97.4676 596.29 78.2326C603.081 74.7266 608.031 71.8706 607.29 71.8846C606.55 71.8986 603.919 72.9616 601.444 74.2476ZM132.944 85.1256C135.694 85.7396 145.753 90.2386 155.298 95.1226C164.842 100.007 172.421 103.633 172.139 103.181C171.858 102.729 163.824 98.4286 154.286 93.6246C142.495 87.6856 135.504 84.7486 132.444 84.4486L127.944 84.0076L132.944 85.1256ZM615.944 85.4406C613.744 86.2336 611.317 87.1126 610.551 87.3936C609.785 87.6756 609.409 88.1566 609.715 88.4636C610.022 88.7696 611.249 88.4986 612.442 87.8596C613.635 87.2216 617.386 86.0956 620.777 85.3586C625.522 84.3266 626.137 84.0156 623.444 84.0086C621.519 84.0036 618.144 84.6486 615.944 85.4406ZM121.828 85.8406C119.027 86.9716 113.281 94.2426 110.75 99.8586C108.086 105.772 105.123 114.872 105.682 115.43C105.925 115.673 106.685 113.956 107.371 111.615C109.287 105.075 113.57 95.7316 116.383 91.9536C117.777 90.0806 120.724 87.7286 122.931 86.7256C126.885 84.9296 125.947 84.1766 121.828 85.8406ZM655.012 89.8586C655.994 91.7836 658.533 98.0836 660.655 103.859C662.777 109.634 664.237 113.009 663.899 111.359C662.833 106.15 656.311 89.4236 654.736 87.8586C653.602 86.7316 653.671 87.2296 655.012 89.8586ZM592.444 96.7106C574.499 106.314 567.938 110.567 563.445 115.51L559.947 119.359L563.945 115.752C569.585 110.665 575.537 106.819 587.529 100.514C602.369 92.7096 609.097 88.8906 607.944 88.9236C607.394 88.9386 600.419 92.4436 592.444 96.7106ZM10.1938 107.51C7.8268 118.121 8.09979 120.348 10.5468 110.386C11.6238 106 12.3778 101.793 12.2238 101.036C12.0698 100.279 11.1558 103.192 10.1938 107.51ZM173.444 104.286C173.444 104.52 176.031 106.186 179.194 107.987C182.357 109.788 187.411 113.534 190.427 116.31C193.442 119.087 195.266 120.459 194.478 119.359C191.839 115.671 188.634 112.942 181.591 108.386C174.917 104.068 173.444 103.327 173.444 104.286ZM728.444 116.223C728.444 116.606 729.569 123.011 730.944 130.456C732.319 137.901 733.511 145.425 733.594 147.176C733.737 150.222 733.762 150.24 734.162 147.593C734.556 144.988 729.897 116.979 728.905 115.987C728.651 115.733 728.444 115.839 728.444 116.223ZM196.989 125.359C199.168 131.843 199.623 134.983 199.162 140.359C198.77 144.936 198.882 145.766 199.636 143.859C201.018 140.365 200.041 129.818 198.011 126.297C197.079 124.681 196.619 124.259 196.989 125.359ZM653.333 147.528C652.346 159.118 648.143 164.212 637.72 166.451C634.543 167.133 633.069 167.727 634.444 167.77C646.218 168.138 655.079 157.974 654.247 145.057C653.979 140.897 653.874 141.18 653.333 147.528ZM150.944 165.904C148.514 166.366 150.281 166.456 155.444 166.134C160.119 165.841 164.132 165.435 164.361 165.231C165.066 164.602 155.18 165.098 150.944 165.904ZM93.4278 173.19C97.2198 177.268 107.508 182.918 110.854 182.76C112.12 182.7 111.334 182.153 108.86 181.372C102.915 179.494 98.8688 177.22 94.1338 173.094L89.9438 169.443L93.4278 173.19ZM658.422 173.715C656.509 175.286 653.144 177.516 650.944 178.671C648.744 179.826 647.394 180.786 647.944 180.805C649.567 180.862 658.782 175.27 660.849 172.975C663.489 170.043 662.542 170.331 658.422 173.715ZM736.853 188.359C736.852 197.709 737.002 201.669 737.187 197.158C737.372 192.648 737.373 184.998 737.189 180.158C737.006 175.319 736.854 179.009 736.853 188.359ZM16.8728 201.359C16.8728 214.009 17.0168 219.046 17.1908 212.553C17.3658 206.059 17.3648 195.709 17.1898 189.553C17.0148 183.396 16.8718 188.709 16.8728 201.359ZM0.542797 201.442C0.597797 213.497 0.962808 227.184 1.35481 231.859C1.74681 236.534 1.8668 226.859 1.6208 210.359C1.3748 193.859 1.00979 180.172 0.808788 179.942C0.607788 179.713 0.488797 189.388 0.542797 201.442ZM152.225 181.411C151.922 181.714 143.184 182.357 132.809 182.84L113.944 183.717L133.444 183.263C144.169 183.014 154.744 182.423 156.944 181.95L160.944 181.089L156.861 180.974C154.615 180.911 152.529 181.107 152.225 181.411ZM597.944 181.836C603.407 182.88 618.557 183.804 615.444 182.903C614.069 182.506 608.669 181.931 603.444 181.626C597.949 181.305 595.63 181.394 597.944 181.836ZM627.944 182.859L617.944 183.472L627.944 183.566C633.444 183.617 639.069 183.299 640.444 182.859L642.944 182.058L640.444 182.152C639.069 182.204 633.444 182.522 627.944 182.859ZM752.87 203.359C752.871 215.459 753.015 220.272 753.191 214.054C753.367 207.836 753.366 197.936 753.19 192.054C753.013 186.172 752.869 191.259 752.87 203.359ZM736.826 217.359C736.828 223.959 736.99 226.529 737.185 223.07C737.381 219.611 737.38 214.211 737.182 211.07C736.984 207.929 736.824 210.759 736.826 217.359ZM562.142 227.955C552.759 230.163 539.54 239.014 536.214 245.317C535.621 246.44 537.793 244.625 541.04 241.283C547.61 234.522 554.854 230.586 564.697 228.429C568.133 227.676 569.819 227.06 568.444 227.06C567.069 227.06 564.233 227.462 562.142 227.955ZM141.444 228.881C139.43 229.317 141.553 229.415 146.444 229.112C151.119 228.822 155.132 228.421 155.361 228.222C156.103 227.576 145.05 228.099 141.444 228.881ZM199.972 232.218C209.63 236.87 216.345 244.207 221.854 256.123C224.202 261.203 226.647 266.484 227.289 267.859L228.455 270.359L227.852 267.859C227.52 266.484 225.116 260.84 222.508 255.318C219.065 248.027 216.334 243.844 212.538 240.048C207.757 235.267 197.284 228.859 194.251 228.859C193.563 228.859 196.138 230.37 199.972 232.218ZM116.944 235.511C114.194 236.918 110.199 239.709 108.067 241.714C104.075 245.468 98.4368 253.438 98.4528 255.305C98.4588 255.885 99.7648 254.109 101.357 251.359C105.179 244.756 109.649 240.607 117.493 236.38C124.906 232.386 124.453 231.668 116.944 235.511ZM638.887 236.766C639.263 237.375 640.815 238.516 642.335 239.303C646.32 241.363 652.387 249.179 655.076 255.717C656.352 258.82 657.407 260.643 657.42 259.769C657.468 256.547 651.263 245.947 647.062 242.074C642.579 237.942 637.626 234.726 638.887 236.766ZM183.444 242.833C190.303 243.721 194.713 245.912 200.321 251.218C203.824 254.531 204.343 254.798 202.919 252.552C199.232 246.736 189.388 241.755 182.045 241.99C178.261 242.111 178.369 242.176 183.444 242.833ZM563.05 243.427C558.699 245.021 550.998 250.955 549.397 253.946C548.823 255.019 550.286 253.967 552.649 251.607C557.593 246.669 562.697 243.994 569.303 242.878C573.431 242.181 573.557 242.089 570.444 242.047C568.519 242.021 565.192 242.642 563.05 243.427ZM749.944 249.859C749.549 254.322 749.44 258.189 749.703 258.451C749.965 258.713 750.499 255.272 750.888 250.803C751.278 246.335 751.387 242.468 751.13 242.211C750.873 241.954 750.339 245.396 749.944 249.859ZM136.594 244.982C133.652 245.471 130.502 246.349 129.594 246.934C128.267 247.789 128.433 247.873 130.444 247.363C131.819 247.015 136.769 246.134 141.444 245.404C146.487 244.617 148.317 244.081 145.944 244.085C143.744 244.09 139.537 244.493 136.594 244.982ZM121.522 250.695C117.574 253.347 113.466 258.214 113.451 260.257C113.447 260.751 114.468 259.626 115.721 257.757C116.973 255.888 120.174 252.897 122.834 251.109C125.494 249.321 127.237 247.859 126.707 247.859C126.178 247.859 123.845 249.135 121.522 250.695ZM530.957 255.261C526.247 265.597 526.579 266.376 531.43 256.372C533.561 251.979 535.116 248.198 534.887 247.969C534.658 247.739 532.889 251.021 530.957 255.261ZM541.981 269.648C540.4 273.339 536.662 281.309 533.674 287.359C530.686 293.409 528.712 297.909 529.288 297.359C531.43 295.314 546.033 264.114 545.226 263.307C545.022 263.103 543.562 265.957 541.981 269.648ZM521.279 276.694C518.164 283.11 514.632 289.821 513.431 291.609C512.23 293.397 511.503 294.859 511.815 294.859C513.536 294.859 528.378 266.455 527.245 265.329C527.08 265.164 524.395 270.279 521.279 276.694ZM228.444 271.381C228.444 271.668 230.296 275.606 232.56 280.131C237.045 289.098 243.854 299.2 247.541 302.359C249.024 303.63 248.684 302.901 246.608 300.359C241.375 293.954 236.501 286.187 232.73 278.246C229.584 271.621 228.444 269.795 228.444 271.381ZM745.549 281.964C744.868 286.416 744.508 290.256 744.749 290.497C744.99 290.738 745.753 287.301 746.444 282.859C747.135 278.417 747.495 274.577 747.244 274.326C746.994 274.075 746.231 277.512 745.549 281.964ZM640.941 283.609C640.597 286.221 640.117 289.709 639.875 291.359C639.53 293.703 639.624 293.922 640.303 292.359C641.344 289.961 642.804 278.859 642.077 278.859C641.796 278.859 641.285 280.997 640.941 283.609ZM727.571 292.859C726.361 299.184 725.101 305.709 724.771 307.359C724.441 309.009 724.435 310.119 724.758 309.825C725.625 309.036 730.603 283.835 730.155 282.5C729.944 281.873 728.781 286.534 727.571 292.859ZM507.881 298.95C503.658 303.395 499.93 305.881 493.552 308.505C490.467 309.773 488.619 310.818 489.444 310.825C493.827 310.866 505.449 303.665 509.68 298.286C512.339 294.906 511.391 295.256 507.881 298.95ZM524.615 303.109C521.722 307.312 514.284 314.689 509.444 318.156C507.05 319.871 507.084 319.87 510.265 318.153C514.47 315.881 523.71 306.769 526.357 302.282C529.173 297.509 528.128 298.005 524.615 303.109ZM230.285 306.541C234.02 311.393 241.518 317.852 246.194 320.246C251.113 322.765 250.084 321.421 244.694 318.287C242.082 316.768 237.046 312.563 233.505 308.942C229.125 304.465 228.095 303.697 230.285 306.541ZM251.508 305.436C253.313 307.611 262.467 310.96 267.756 311.38L272.944 311.793L267.444 310.82C264.419 310.285 259.371 308.584 256.226 307.04C253.082 305.495 250.958 304.774 251.508 305.436ZM30.0008 314.291C31.1938 322.089 41.1618 354.475 42.0848 353.552C42.2798 353.356 41.3538 350.083 40.0258 346.278C38.6988 342.472 35.7638 332.834 33.5058 324.859C31.2478 316.884 29.6708 312.129 30.0008 314.291ZM251.444 322.75C252.269 323.343 255.295 324.52 258.168 325.364C262.757 326.713 277.363 326.867 378.168 326.629C468.609 326.416 493.474 326.089 495.444 325.088C497.909 323.834 497.902 323.826 494.944 324.53C493.294 324.923 440.731 325.39 378.138 325.568C261.53 325.9 261.913 325.91 251.944 322.379C250.337 321.809 250.239 321.882 251.444 322.75ZM630.136 331.214C629.206 335.45 628.476 339.916 628.514 341.137C628.553 342.359 629.445 339.309 630.497 334.359C631.548 329.409 632.278 324.944 632.119 324.436C631.959 323.928 631.067 326.978 630.136 331.214ZM716.1 340.015C714.034 346.657 712.517 352.265 712.729 352.477C712.941 352.69 714.81 347.433 716.882 340.797C718.953 334.16 720.47 328.552 720.253 328.334C720.035 328.117 718.167 333.373 716.1 340.015ZM733.098 338.013C731.565 343.538 730.489 348.237 730.707 348.455C730.925 348.674 732.365 344.338 733.906 338.821C735.446 333.303 736.522 328.604 736.296 328.378C736.071 328.152 734.631 332.488 733.098 338.013ZM727.508 356.438C723.868 367.292 720.654 372.827 714.576 378.71C707.985 385.09 698.852 389.624 690.047 390.889L683.944 391.766L689.96 391.429C701.594 390.776 715.899 381.764 722.101 371.181C725.149 365.98 730.637 351.939 730.17 350.537C729.983 349.976 728.785 352.631 727.508 356.438ZM644.445 357.031C644.444 359.591 650.55 367.026 654.459 369.224C658.418 371.451 657.626 370.478 652.321 366.6C650.329 365.143 647.742 362.018 646.572 359.655C645.403 357.292 644.445 356.112 644.445 357.031ZM628.508 357.931C628.345 361.914 632.035 369.344 636.721 374.472C641.259 379.437 650.354 385.825 652.921 385.85C653.459 385.855 651.031 384.172 647.526 382.109C639.264 377.246 633.527 370.584 630.758 362.635C629.556 359.183 628.544 357.066 628.508 357.931ZM124.048 361.299C122.38 367.947 116.888 374.787 107.294 382.167C105.027 383.91 105.062 383.91 108.274 382.167C115.545 378.22 126.512 363.562 125.181 359.57C124.962 358.912 124.452 359.691 124.048 361.299ZM44.4528 360.413C44.4348 362.503 50.3058 370.651 53.5888 373.09C55.4338 374.461 58.4738 376.095 60.3428 376.721C64.9448 378.262 77.0328 378.025 81.9438 376.299C84.1438 375.526 84.8188 375.146 83.4438 375.455C76.2828 377.065 65.5288 377.048 60.6238 375.419C53.9728 373.21 50.9958 370.75 47.4148 364.506C45.7908 361.675 44.4588 359.833 44.4528 360.413ZM703.368 368.491C698.86 373.386 691.915 375.838 682.527 375.849C677.898 375.855 674.361 376.109 674.666 376.415C674.972 376.72 678.618 376.97 682.768 376.97C691.759 376.97 698.477 374.483 703.508 369.293C705.339 367.404 706.601 365.859 706.314 365.859C706.027 365.859 704.702 367.044 703.368 368.491ZM33.5398 373.825C35.6918 378.226 45.2718 386.891 50.7668 389.406C56.1618 391.876 65.7858 394.221 64.9448 392.86C64.6958 392.458 62.7118 391.89 60.5358 391.598C51.7108 390.414 41.5228 383.649 34.5768 374.359C32.8138 372.001 32.5918 371.887 33.5398 373.825ZM655.665 386.817C658.477 388.629 672.444 391.869 676.854 391.732C680.229 391.628 679.841 391.462 674.637 390.787C669.244 390.086 663.765 388.777 655.731 386.266C654.068 385.747 654.063 385.785 655.665 386.817Z M87.4439 0.877384C78.8429 2.07938 66.0939 6.15638 60.1919 9.59238C54.6659 12.8094 43.5819 21.9194 43.4999 23.3114C43.4689 23.8354 45.2439 22.5064 47.4439 20.3584C53.3569 14.5844 52.3029 16.6794 46.1369 22.9564C43.2179 25.9274 39.8089 29.7084 38.5629 31.3584C37.3159 33.0084 36.6299 33.6834 37.0379 32.8584C37.4459 32.0334 39.0919 29.6714 40.6959 27.6084C42.2999 25.5464 43.2369 23.8684 42.7779 23.8794C41.9719 23.9004 38.7689 28.1414 34.8629 34.3584C33.0129 37.3034 33.0129 37.3304 34.8779 35.8584C36.4829 34.5914 36.4049 35.0074 34.3769 38.5414C31.9889 42.7034 30.2689 43.9224 32.3979 39.9444C33.0119 38.7974 33.2829 37.8584 32.9999 37.8584C31.8869 37.8584 28.3369 46.1384 28.8629 47.5074C29.1699 48.3074 29.0289 48.7204 28.5499 48.4234C26.6489 47.2494 18.5499 70.3034 12.4149 94.3504C10.2309 102.91 8.49586 110.688 8.55886 111.636C8.62186 112.583 9.48486 110.208 10.4769 106.358C11.4689 102.508 12.2989 100.258 12.3199 101.358C12.3419 102.458 11.5359 106.733 10.5279 110.858C9.25988 116.052 8.57586 117.589 8.30486 115.858C7.78886 112.563 3.82688 135.012 1.73888 153.063C-0.331117 170.957 -0.629142 229.213 1.25686 247.358C4.53186 278.874 11.3559 313.249 20.0159 341.858C27.5989 366.91 30.6699 373.291 39.2929 381.914C46.7509 389.372 52.8069 392.664 60.3809 393.378L64.9439 393.808L60.6199 392.872C50.2999 390.64 37.2869 381.486 33.5399 373.824C32.5919 371.886 32.8139 372 34.5769 374.358C41.5229 383.648 51.7109 390.413 60.5359 391.597C62.7119 391.889 64.7329 392.517 65.0269 392.993C65.6689 394.031 77.7129 393.935 81.9439 392.858L84.9439 392.095L82.0269 391.976C78.0769 391.816 79.0139 391.259 84.4439 390.541C87.4489 390.144 88.2789 390.241 86.9439 390.832C85.4769 391.482 85.3629 391.736 86.5189 391.788C90.1269 391.949 103.037 386.617 109.592 382.259C120.231 375.187 125.666 366.74 127.314 354.716C128.535 345.799 127.234 337.226 121.413 315.848C115.162 292.89 112.105 276.129 112.935 269.358C114.275 258.413 120.226 251.713 131.503 248.451C139.161 246.237 161.828 243.877 175.444 243.877C185.391 243.878 187.62 244.192 191.951 246.209C194.705 247.492 198.503 250.3 200.39 252.45C202.278 254.599 204.149 256.358 204.55 256.358C204.95 256.358 205.652 256.768 206.111 257.268C206.595 257.797 206.42 257.877 205.694 257.459C204.045 256.51 204.117 257.326 206.007 260.979C206.866 262.641 209.679 269.261 212.257 275.69C223.585 303.94 236.705 318.976 255.829 325.627L262.919 328.092L375.334 327.932C450.158 327.825 489.454 327.416 492.847 326.71C500.01 325.217 509.355 320.596 515.763 315.376C521.26 310.898 529.151 301.232 528.137 300.218C527.837 299.918 526.922 300.968 526.103 302.551C524.138 306.351 514.455 315.888 510.265 318.152C507.084 319.869 507.05 319.87 509.444 318.155C514.292 314.682 521.724 307.308 524.629 303.087C526.246 300.739 527.963 299.061 528.445 299.359C529.417 299.96 536.985 287.065 536.15 286.23C535.861 285.942 534.428 288.103 532.964 291.032C531.5 293.961 529.862 296.807 529.325 297.356C528.788 297.904 531.667 291.379 535.722 282.856C539.777 274.332 543.626 266.233 544.275 264.858L545.455 262.358L544.921 264.858C544.627 266.233 545.729 264.883 547.368 261.858C550.587 255.921 551.067 254.355 549.344 255.42C546.568 257.135 550.801 251.699 554.78 248.439C559.681 244.423 566.187 241.801 570.82 241.976C573.303 242.069 572.992 242.254 569.303 242.877C566.75 243.308 563.132 244.387 561.264 245.273C557.055 247.27 550.444 252.638 550.444 254.058C550.444 254.638 552.392 253.317 554.773 251.123C561.124 245.268 567.215 243.576 581.331 243.745C593.867 243.896 618.139 246.319 622.843 247.89C626.92 249.251 627.502 248.951 623.944 247.322C622.294 246.566 621.619 245.938 622.444 245.925C624.853 245.888 632.635 249.74 632.053 250.682C631.761 251.154 633.098 253.068 635.023 254.935C639.765 259.53 641.855 266.845 641.115 276.258C640.741 281.016 640.853 282.533 641.453 280.858C642.064 279.151 642.162 280.261 641.76 284.358C641.436 287.658 640.808 291.258 640.364 292.358C639.862 293.602 639.724 292.467 639.999 289.358C640.292 286.055 639.625 287.921 638.031 294.858C636.705 300.633 633.733 312.783 631.427 321.858C624.642 348.561 625.022 359.661 633.132 371.617C638.515 379.551 646.411 384.855 659.885 389.586C665.425 391.53 669.634 392.173 679.444 392.571C690.517 393.02 692.685 392.827 698.435 390.876C710.765 386.694 720.167 377.987 725.991 365.358C734.058 347.867 744.618 304.261 749.968 266.358C756.326 221.307 755.77 169.971 748.464 127.358C742.58 93.0394 728.65 49.7654 718.286 33.6124C716.611 31.0024 714.867 29.0964 714.411 29.3784C713.955 29.6604 713.257 29.3644 712.859 28.7204C712.381 27.9464 712.571 27.8184 713.419 28.3434C716.374 30.1694 713.525 26.3964 707.001 19.8444C694.369 7.15636 678.505 1.08837 655.444 0.121372C648.215 -0.181628 639.149 0.0983806 633.944 0.786381C624.498 2.03338 613.928 4.67538 614.819 5.56638C615.107 5.85438 616.782 5.58737 618.542 4.97437C620.302 4.36037 622.463 3.89236 623.343 3.93436C624.224 3.97636 622.244 4.81137 618.944 5.78937C615.644 6.76737 610.132 8.98936 606.694 10.7274C603.257 12.4654 600.444 13.6624 600.444 13.3864C600.444 13.1114 603.482 11.3274 607.194 9.42136C610.906 7.51536 613.595 5.93438 613.169 5.90738C611.383 5.79438 598.413 12.9984 598.921 13.8214C599.227 14.3154 598.95 15.0454 598.306 15.4434C597.532 15.9214 597.404 15.7314 597.929 14.8834C598.458 14.0274 598.259 13.7534 597.333 14.0624C596.569 14.3164 595.944 15.0174 595.944 15.6194C595.944 16.6384 591.686 20.0184 585.194 24.1534C579.911 27.5184 582.495 24.8984 588.444 20.8584C591.744 18.6174 594.444 16.5724 594.444 16.3134C594.444 16.0544 591.304 17.9304 587.466 20.4824C583.629 23.0344 580.773 25.5824 581.121 26.1444C581.479 26.7244 581.262 26.8644 580.619 26.4664C579.311 25.6584 575.162 27.5924 575.843 28.6944C576.093 29.0984 575.543 29.4724 574.621 29.5254C573.698 29.5774 570.244 30.6264 566.944 31.8564C562.949 33.3454 557.268 34.3504 549.944 34.8624C543.894 35.2864 461.994 35.5704 367.944 35.4954L196.944 35.3584L188.944 32.6394C183.417 30.7614 176.616 27.0914 166.944 20.7694C142.582 4.84438 131.696 1.08238 107.944 0.381382C100.244 0.154382 91.0189 0.377384 87.4439 0.877384ZM127.444 4.28537C138.077 6.71937 138.895 6.80336 133.444 4.90036C130.419 3.84436 126.594 2.99036 124.944 3.00336C122.882 3.01936 123.664 3.41937 127.444 4.28537ZM683.131 6.79737C691.613 9.85137 698.259 13.9254 705.815 20.7024L712.944 27.0964L705.768 20.0414C700.446 14.8094 696.421 11.9364 690.195 8.92237C685.576 6.68737 680.931 4.87438 679.871 4.89438C678.811 4.91438 680.278 5.77037 683.131 6.79737ZM152.444 13.2424C152.444 13.5424 155.707 15.9024 159.694 18.4854C163.681 21.0684 168.857 24.4804 171.194 26.0684C173.531 27.6554 175.444 28.7374 175.444 28.4724C175.444 27.9574 162.433 18.8574 156.194 15.0084C154.132 13.7364 152.444 12.9414 152.444 13.2424ZM637.444 16.8544C634.969 17.2364 638.794 17.3314 645.944 17.0644C653.094 16.7984 659.132 16.4174 659.361 16.2194C660.073 15.6024 642.192 16.1204 637.444 16.8544ZM113.444 17.9774C124.086 19.1974 130.338 20.6324 134.944 22.9114C137.144 24.0004 138.044 24.5974 136.944 24.2384C116.349 17.5164 95.7659 16.6724 78.4439 21.8374C64.9349 25.8654 54.8849 34.8914 47.9819 49.1954C41.0389 63.5814 31.4169 93.6224 27.4309 113.358C26.7639 116.658 25.5949 119.718 24.8319 120.158C24.0679 120.598 23.4889 121.948 23.5439 123.158C23.6379 125.234 23.6929 125.217 24.5299 122.858C25.5929 119.857 25.3569 122.075 22.5079 141.858C16.7459 181.855 17.1049 229.332 23.4869 271.521C29.7579 312.968 43.2889 359.529 51.7349 368.72C52.9499 370.042 55.2939 371.963 56.9439 372.987C58.5939 374.012 59.4479 374.852 58.8419 374.854C56.2529 374.863 50.7059 369.894 47.6939 364.869C45.9059 361.886 44.4439 359.901 44.4439 360.456C44.4439 362.525 50.3489 370.681 53.5889 373.089C55.4339 374.46 58.4739 376.094 60.3429 376.72C64.9449 378.261 77.0329 378.024 81.9439 376.298C84.1439 375.525 84.8189 375.148 83.4439 375.461C78.4019 376.607 64.8729 377.007 62.4439 376.081C60.6379 375.392 62.0259 375.256 67.4439 375.591C76.1679 376.13 85.9229 374.169 93.4199 370.37C99.3579 367.361 101.096 367.108 96.9439 369.858C95.2939 370.951 94.2969 371.848 94.7289 371.851C96.1769 371.864 100.432 368.648 99.9659 367.894C99.7129 367.484 100.661 366.071 102.072 364.753C110.078 357.281 110.354 349.329 103.534 322.601C95.3419 290.496 93.1319 276.525 94.5779 265.973C95.5559 258.837 99.6169 248.907 102.681 246.161C104.041 244.942 103.68 245.961 101.568 249.304C99.8499 252.024 98.4479 254.724 98.4529 255.304C98.4589 255.884 99.7649 254.108 101.357 251.358C105.179 244.755 109.649 240.606 117.493 236.379C125.022 232.322 124.782 231.658 117.161 235.461C114.292 236.893 110.257 239.685 108.194 241.664C106.132 243.644 104.444 244.737 104.444 244.093C104.444 242.472 114.091 235.341 119.49 232.971C124.566 230.743 137.984 227.793 142.152 227.99C144.721 228.111 144.665 228.182 141.444 228.88C139.43 229.316 141.553 229.414 146.444 229.111C156.381 228.494 158.027 227.913 150.361 227.727L144.944 227.595L151.944 226.729C155.794 226.252 165.019 225.773 172.444 225.664C192.433 225.371 200.744 228.029 212.286 238.406C217.464 243.062 221.894 250.96 231.046 271.858C235.983 283.132 241.784 293.003 246.566 298.269C249.108 301.068 251.133 303.808 251.066 304.358C250.841 306.199 261.857 310.889 267.483 311.347L272.944 311.792L267.487 310.803C261.538 309.726 250.762 305.207 251.761 304.208C252.102 303.867 253.431 304.275 254.714 305.115C255.997 305.956 259.274 307.424 261.995 308.377C266.585 309.984 274.88 310.097 376.444 309.939C449.81 309.824 487.262 309.418 489.938 308.709C496.627 306.935 501.606 303.869 507.364 297.979C510.387 294.888 512.515 292.921 512.093 293.608C511.671 294.296 511.564 294.858 511.854 294.858C512.978 294.858 519.336 283.862 523.294 275.071C529.314 261.702 528.327 262.425 521.537 276.358C518.32 282.958 514.952 289.258 514.052 290.358C513.152 291.458 514.237 288.916 516.462 284.709C518.688 280.502 522.927 271.389 525.882 264.457C532.837 248.146 535.075 244.443 541.845 238.04C553.344 227.165 566.334 224.018 592.439 225.783C620.411 227.675 629.128 229.386 638.944 234.916C650.226 241.272 657.779 252.593 659.718 266.057C661.06 275.368 658.774 289.831 650.935 321.638C647.915 333.891 645.444 346.168 645.444 348.92C645.444 357.79 649.871 364.947 657.918 369.084C662.942 371.667 673.861 374.814 678.441 375L681.944 375.142L677.944 375.858L673.944 376.574L678.444 376.813C690.592 377.458 697.789 375.259 703.562 369.141C705.422 367.17 706.323 365.913 705.564 366.347C703.981 367.253 704.024 367.128 707.667 360.205C711.318 353.269 718.637 329.15 723.4 308.358C725.543 299.008 727.329 292.169 727.37 293.161C727.411 294.152 726.726 298.121 725.848 301.981C724.97 305.841 724.458 309.206 724.711 309.458C725.207 309.954 729.069 291.919 729.872 285.358C730.321 281.688 730.249 281.77 728.999 286.358C726.925 293.967 727.179 290.979 730.375 270.143C731.987 259.634 733.847 243.734 734.509 234.81C736.009 214.582 735.168 168.296 732.983 150.858C726.757 101.169 709.436 47.7614 695.068 33.9504C693.117 32.0754 691.799 30.0934 692.137 29.5454C692.476 28.9974 692.328 28.8124 691.809 29.1324C691.29 29.4534 688.895 28.3934 686.487 26.7754C681.539 23.4524 672.321 20.3564 662.889 18.8494C656.103 17.7654 626.829 17.9104 630.67 19.0084C632.892 19.6444 632.895 19.6614 630.79 19.7584C626.347 19.9644 613.861 24.9284 606.753 29.3144C599.017 34.0884 597.873 34.5914 599.039 32.7034C599.485 31.9824 599.313 31.8214 598.582 32.2734C597.938 32.6714 597.67 33.4154 597.986 33.9264C598.302 34.4384 594.372 37.5694 589.252 40.8854C578.339 47.9544 568.317 51.4664 555.079 52.8614C542.264 54.2114 205.019 54.1704 196.444 52.8174C187.997 51.4854 178.556 48.3904 170.444 44.2964C164.945 41.5214 146.885 30.4244 140.764 26.0604C139.114 24.8834 139.107 24.8104 140.694 25.2794C144.179 26.3074 142.322 24.9494 136.767 22.4064C130.643 19.6024 116.724 16.7784 110.063 16.9884C107.23 17.0774 108.285 17.3864 113.444 17.9774ZM74.8529 20.6644C72.6029 21.5964 69.6779 23.1544 68.3529 24.1274C66.6319 25.3914 67.2279 25.2734 70.4439 23.7124C72.9189 22.5114 76.7439 20.9584 78.9439 20.2604C81.1439 19.5634 82.0439 18.9874 80.9439 18.9814C79.8439 18.9754 77.1029 19.7324 74.8529 20.6644ZM57.5909 32.6084C53.9349 36.3204 49.9029 41.2714 48.6299 43.6084C45.2469 49.8224 46.5809 48.7964 50.8239 41.9214C52.8389 38.6564 57.0659 33.7134 60.2159 30.9364C63.3659 28.1584 65.5599 25.8804 65.0909 25.8724C64.6209 25.8644 61.2459 28.8964 57.5909 32.6084ZM176.444 28.5584C176.444 29.7364 183.917 33.5024 187.944 34.3544C189.594 34.7034 188.345 33.8794 185.168 32.5244C181.992 31.1694 178.729 29.5104 177.918 28.8374C177.108 28.1644 176.444 28.0384 176.444 28.5584ZM590.944 37.4784C584.37 42.0934 577.222 45.7594 570.444 47.9944C566.75 49.2124 566.093 49.6254 568.444 49.2504C573.269 48.4814 583.105 43.8424 590.372 38.9074C593.711 36.6394 596.444 34.5754 596.444 34.3214C596.444 33.6304 596.344 33.6874 590.944 37.4784ZM371.944 36.8624L200.944 37.3674L372.635 37.6124C467.065 37.7474 544.558 37.4834 544.841 37.0254C545.124 36.5664 544.813 36.2294 544.15 36.2754C543.487 36.3204 465.994 36.5854 371.944 36.8624ZM722.667 46.1084C724.866 51.1954 727.939 58.7334 729.497 62.8584C731.055 66.9834 732.355 69.7804 732.387 69.0744C732.453 67.5824 724.102 46.1354 721.303 40.6084C717.893 33.8774 718.584 36.6584 722.667 46.1084ZM165.444 40.4074C165.444 41.2624 179.585 47.6914 182.944 48.3644C184.594 48.6954 182.665 47.6324 178.657 46.0024C174.649 44.3734 170.278 42.3244 168.942 41.4494C166.391 39.7774 165.444 39.4954 165.444 40.4074ZM121.591 68.9334C108.327 71.5414 98.8789 82.2644 91.6299 102.937C83.2859 126.731 80.5759 151.603 85.1559 162.358C86.3269 165.108 87.7549 167.251 88.3289 167.12C88.9019 166.989 89.1429 167.479 88.8629 168.21C88.5819 168.94 89.1349 170.172 90.0899 170.948C91.6029 172.176 91.7139 172.164 90.9479 170.858C90.4629 170.033 91.9249 171.02 94.1959 173.051C98.8229 177.191 102.84 179.47 108.86 181.371C111.106 182.08 112.044 182.7 110.944 182.749C107.984 182.881 99.3399 178.584 95.1289 174.886C93.1019 173.107 91.4439 172.094 91.4439 172.636C91.4439 174.156 97.8519 178.691 104.209 181.67C109.599 184.196 110.845 184.362 124.944 184.441L139.944 184.525L126.944 183.942L113.944 183.358L131.944 182.598C141.844 182.18 152.419 181.643 155.444 181.404C160.085 181.038 160.397 181.108 157.444 181.853C150.523 183.597 169.781 181.737 178.894 179.781C188.295 177.763 200.968 172.514 200.045 171.021C199.747 170.539 201.403 168.698 203.724 166.929L207.944 163.713L204.027 167.286C201.873 169.25 200.578 170.858 201.15 170.858C203.105 170.858 210.621 161.714 213.08 156.343C218.623 144.233 218.225 130.376 211.949 117.078C205.564 103.546 196.679 96.6304 164.944 80.4864C140.995 68.3044 134.115 66.4704 121.591 68.9334ZM612.165 69.3674C608.986 70.1694 605.161 71.5364 603.665 72.4054C602.168 73.2744 601.844 73.6814 602.944 73.3084C609.069 71.2354 607.73 72.2214 596.444 78.0974C574.02 89.7724 570.032 91.9814 563.444 96.3794C554.936 102.058 549.449 107.868 545.048 115.858C540.899 123.389 540.209 123.229 544.06 115.629C547.262 109.31 555.932 100.056 563.12 95.2854C566.064 93.3314 575.328 88.1134 583.708 83.6894C599.15 75.5374 606.363 70.9574 594.444 76.8734C580.342 83.8724 565.616 92.3564 559.103 97.2344C551.876 102.646 544.346 111.667 541.444 118.387C536.102 130.761 536.309 145.7 541.98 156.858C544.621 162.056 551.073 169.858 552.73 169.858C553.352 169.858 552.054 167.945 549.847 165.608C547.639 163.271 545.209 160.458 544.447 159.358C543.684 158.258 545.509 160.031 548.502 163.299C551.495 166.566 553.944 169.679 553.944 170.215C553.944 170.752 554.569 171.4 555.333 171.654C556.259 171.963 556.458 171.689 555.929 170.833C555.404 169.985 555.532 169.795 556.306 170.273C556.95 170.671 557.211 171.425 556.887 171.95C556.1 173.223 566.13 177.582 574.1 179.43C583.252 181.553 601.86 183.882 608.38 183.72C612.799 183.611 612.013 183.411 604.556 182.749C599.392 182.29 594.892 181.639 594.556 181.302C593.951 180.696 604.732 181.391 613.444 182.52C617.011 182.983 617.53 183.271 615.944 183.911C612.038 185.486 637.731 184.934 643.974 183.308C652.938 180.973 664.691 172.684 662.974 169.907C662.601 169.303 662.842 168.932 663.511 169.083C666.613 169.784 671.445 155.66 671.443 145.898C671.439 132.584 663.165 100.154 657.5 91.2554C656.074 89.0144 655.854 88.3114 661.066 102.649C662.924 107.759 664.421 112.484 664.392 113.149C664.364 113.814 662.643 109.633 660.569 103.858C658.494 98.0834 655.973 91.7834 654.966 89.8584C653.188 86.4604 653.189 86.4024 654.976 87.8584C658.408 90.6554 653.392 82.9094 648.64 78.0764C639.995 69.2814 625.869 65.9084 612.165 69.3674ZM635.176 71.8134C641.602 74.1264 645.245 76.6614 650.016 82.1404C652.036 84.4604 653.213 85.4304 652.632 84.2954C649.758 78.6904 637.083 69.8804 631.944 69.9164C630.844 69.9244 632.298 70.7784 635.176 71.8134ZM143.826 72.3364C147.675 73.8324 162.075 81.0134 178.444 89.6004C202.095 102.007 211.676 113.36 214.447 132.26C215.081 136.586 215.213 136.818 215.319 133.79C215.47 129.481 213.054 120.995 209.93 114.858C206.878 108.861 197.034 99.3144 188.7 94.2684C178.212 87.9174 146.291 71.9274 142.944 71.3484C140.436 70.9134 140.581 71.0754 143.826 72.3364ZM732.843 72.1224C733.145 73.0924 734.841 79.0434 736.611 85.3464C738.382 91.6484 740.016 96.6194 740.243 96.3924C740.789 95.8474 734.514 73.7884 733.264 71.8584C732.469 70.6294 732.392 70.6774 732.843 72.1224ZM110.844 74.6864C108.699 76.2424 105.484 79.1804 103.7 81.2144C100.484 84.8824 95.9689 92.7164 96.6679 93.4154C96.8679 93.6154 97.8899 92.1094 98.9389 90.0694C102.011 84.0944 107.053 78.3054 112.093 74.9674C114.675 73.2574 116.327 71.8584 115.765 71.8584C115.204 71.8584 112.989 73.1314 110.844 74.6864ZM133.27 85.3144C139.534 86.9174 141.607 88.3474 136.203 87.3384C131.903 86.5344 131.169 86.4864 126.562 86.7004C118.585 87.0724 111.309 99.4114 105.397 122.596C100.094 143.391 100.381 155.633 106.3 161.152C111.047 165.577 115.184 166.205 135.914 165.645C146.381 165.362 153.369 165.467 151.444 165.879C148.578 166.492 148.849 166.56 152.944 166.252C155.694 166.045 159.519 165.801 161.444 165.71C164.411 165.569 164.183 165.439 159.944 164.858C154.999 164.18 154.988 164.17 158.944 164.002C161.144 163.908 167.219 162.944 172.444 161.858C183.424 159.577 184.216 159.52 179.444 161.358C177.519 162.099 176.49 162.74 177.156 162.782C179.361 162.92 189.238 158.812 190.575 157.2C191.459 156.135 190.751 156.31 188.417 157.734C186.507 158.898 184.494 159.834 183.944 159.814C183.394 159.794 184.294 159.068 185.944 158.201C200.151 150.735 202.525 131.804 190.976 118.078C187.678 114.159 180.673 109.556 166.944 102.287C144.964 90.6484 139.96 87.8914 140.784 87.8754C141.245 87.8664 148.63 91.5314 157.193 96.0204C165.756 100.51 172.507 103.772 172.195 103.27C171.883 102.769 163.824 98.4284 154.286 93.6244C142.681 87.7794 135.455 84.7354 132.444 84.4204L127.944 83.9514L133.27 85.3144ZM614.944 85.8134C612.194 86.8034 610.021 88.0124 610.115 88.4994C610.209 88.9864 606.272 91.5434 601.365 94.1814C596.459 96.8184 592.444 98.7514 592.444 98.4764C592.444 98.2014 596.156 95.9324 600.694 93.4354C613.673 86.2924 608.835 88.0994 593.666 96.0594C576.644 104.993 567.972 110.564 563.444 115.475C561.519 117.563 560.732 118.673 561.694 117.942C564.101 116.114 563.887 117.116 560.946 121.451C559.571 123.476 557.945 126.983 557.332 129.245C556.068 133.907 556.768 144.726 558.549 148.055C559.47 149.774 559.458 150.353 558.495 150.674C557.203 151.105 565.781 159.858 567.495 159.858C569.182 159.858 568.516 159.098 565.022 157.036C563.14 155.926 561.058 153.969 560.396 152.688C559.399 150.756 559.77 150.904 562.569 153.554C571.289 161.811 587.746 165.139 620.508 165.274L641.072 165.358L645.199 162.633C648.559 160.414 649.653 158.872 651.082 154.338C652.63 149.427 652.699 147.681 651.667 139.563C650.201 128.036 644.737 108.354 640.591 99.6664C638.857 96.0334 635.874 91.6874 633.963 90.0084C628.685 85.3744 623.65 84.9954 612.823 88.4154C611.056 88.9734 611.051 88.9404 612.731 87.8634C613.714 87.2334 617.314 86.1104 620.731 85.3674C625.461 84.3394 626.109 84.0174 623.444 84.0154C621.519 84.0144 617.694 84.8234 614.944 85.8134ZM121.828 85.8404C119.027 86.9714 113.281 94.2424 110.75 99.8584C108.086 105.771 105.123 114.871 105.682 115.429C105.925 115.672 106.685 113.955 107.371 111.614C109.287 105.074 113.57 95.7314 116.383 91.9534C117.777 90.0804 120.724 87.7284 122.931 86.7254C126.885 84.9294 125.947 84.1764 121.828 85.8404ZM579.073 105.114C574.193 107.997 568.568 111.827 566.573 113.624C564.261 115.707 566.421 114.618 572.524 110.625C577.794 107.178 583.869 103.365 586.024 102.152C588.18 100.939 589.494 99.9304 588.944 99.9094C588.394 99.8884 583.952 102.23 579.073 105.114ZM173.444 104.285C173.444 104.519 176.031 106.185 179.194 107.986C182.357 109.787 187.411 113.533 190.427 116.309C193.442 119.086 195.266 120.458 194.478 119.358C191.839 115.67 188.634 112.941 181.591 108.385C174.917 104.067 173.444 103.326 173.444 104.285ZM728.444 116.222C728.444 116.605 729.569 123.01 730.944 130.455C732.319 137.9 733.511 145.424 733.594 147.175C733.737 150.221 733.762 150.239 734.162 147.592C734.556 144.987 729.897 116.978 728.905 115.986C728.651 115.732 728.444 115.838 728.444 116.222ZM196.989 125.358C199.168 131.842 199.623 134.982 199.162 140.358C198.77 144.935 198.882 145.765 199.636 143.858C201.018 140.364 200.041 129.817 198.011 126.296C197.079 124.68 196.619 124.258 196.989 125.358ZM653.333 147.527C652.346 159.117 648.143 164.211 637.72 166.45C634.543 167.132 633.069 167.726 634.444 167.769C646.218 168.137 655.079 157.973 654.247 145.056C653.979 140.896 653.874 141.179 653.333 147.527ZM658.422 173.714C656.509 175.285 653.144 177.515 650.944 178.67C648.744 179.825 647.394 180.785 647.944 180.804C649.567 180.861 658.782 175.269 660.849 172.974C663.489 170.042 662.542 170.33 658.422 173.714ZM736.853 188.358C736.852 197.708 737.002 201.668 737.187 197.157C737.372 192.647 737.373 184.997 737.189 180.157C737.006 175.318 736.854 179.008 736.853 188.358ZM16.8729 201.358C16.8729 214.008 17.0169 219.045 17.1909 212.552C17.3659 206.058 17.3649 195.708 17.1899 189.552C17.0149 183.395 16.8719 188.708 16.8729 201.358ZM0.542869 201.441C0.597869 213.496 0.962881 227.183 1.35488 231.858C1.74688 236.533 1.86687 226.858 1.62087 210.358C1.37487 193.858 1.00986 180.171 0.80886 179.941C0.60786 179.712 0.488869 189.387 0.542869 201.441ZM627.944 182.858L617.944 183.471L627.944 183.565C633.444 183.616 639.069 183.298 640.444 182.858L642.944 182.057L640.444 182.151C639.069 182.203 633.444 182.521 627.944 182.858ZM752.87 203.358C752.871 215.458 753.015 220.271 753.191 214.053C753.367 207.835 753.366 197.935 753.19 192.053C753.013 186.171 752.869 191.258 752.87 203.358ZM736.826 217.358C736.828 223.958 736.99 226.528 737.185 223.069C737.381 219.61 737.38 214.21 737.182 211.069C736.984 207.928 736.824 210.758 736.826 217.358ZM562.142 227.954C552.759 230.162 539.54 239.013 536.214 245.316C535.621 246.439 537.793 244.624 541.04 241.282C547.61 234.521 554.854 230.585 564.697 228.428C568.133 227.675 569.819 227.059 568.444 227.059C567.069 227.059 564.233 227.461 562.142 227.954ZM199.972 232.217C209.63 236.869 216.345 244.206 221.854 256.122C224.202 261.202 226.647 266.483 227.289 267.858L228.455 270.358L227.852 267.858C227.52 266.483 225.116 260.839 222.508 255.317C219.065 248.026 216.334 243.843 212.538 240.047C207.757 235.266 197.284 228.858 194.251 228.858C193.563 228.858 196.138 230.369 199.972 232.217ZM638.887 236.765C639.263 237.374 640.815 238.515 642.335 239.302C646.32 241.362 652.387 249.178 655.076 255.716C656.352 258.819 657.407 260.642 657.42 259.768C657.468 256.546 651.263 245.946 647.062 242.073C642.579 237.941 637.626 234.725 638.887 236.765ZM183.444 242.832C190.303 243.72 194.713 245.911 200.321 251.217C203.824 254.53 204.343 254.797 202.919 252.551C199.232 246.735 189.388 241.754 182.045 241.989C178.261 242.11 178.369 242.175 183.444 242.832ZM749.944 249.858C749.549 254.321 749.44 258.188 749.703 258.45C749.965 258.712 750.499 255.271 750.888 250.802C751.278 246.334 751.387 242.467 751.13 242.21C750.873 241.953 750.339 245.395 749.944 249.858ZM136.594 244.981C133.652 245.47 130.502 246.348 129.594 246.933C128.267 247.788 128.433 247.872 130.444 247.362C131.819 247.014 136.769 246.133 141.444 245.403C146.487 244.616 148.317 244.08 145.944 244.084C143.744 244.089 139.537 244.492 136.594 244.981ZM121.522 250.694C117.574 253.346 113.466 258.213 113.451 260.256C113.447 260.75 114.468 259.625 115.721 257.756C116.973 255.887 120.174 252.896 122.834 251.108C125.494 249.32 127.237 247.858 126.707 247.858C126.178 247.858 123.845 249.134 121.522 250.694ZM530.957 255.26C526.247 265.596 526.579 266.375 531.43 256.371C533.561 251.978 535.116 248.197 534.887 247.968C534.658 247.738 532.889 251.02 530.957 255.26ZM540.111 276.025C538.092 280.514 536.599 284.347 536.794 284.541C536.989 284.736 538.819 281.241 540.861 276.775C542.902 272.308 544.395 268.476 544.177 268.258C543.96 268.04 542.13 271.535 540.111 276.025ZM228.444 271.38C228.444 271.667 230.296 275.605 232.56 280.13C237.045 289.097 243.854 299.199 247.541 302.358C249.024 303.629 248.684 302.9 246.608 300.358C241.375 293.953 236.501 286.186 232.73 278.245C229.584 271.62 228.444 269.794 228.444 271.38ZM745.549 281.963C744.868 286.415 744.508 290.255 744.749 290.496C744.99 290.737 745.753 287.3 746.444 282.858C747.135 278.416 747.495 274.576 747.244 274.325C746.994 274.074 746.231 277.511 745.549 281.963ZM507.881 298.949C503.658 303.394 499.93 305.88 493.552 308.504C490.467 309.772 488.619 310.817 489.444 310.824C493.827 310.865 505.449 303.664 509.68 298.285C512.339 294.905 511.391 295.255 507.881 298.949ZM230.285 306.54C234.02 311.392 241.518 317.851 246.194 320.245C251.113 322.764 250.084 321.42 244.694 318.286C242.082 316.767 237.046 312.562 233.505 308.941C229.125 304.464 228.095 303.696 230.285 306.54ZM30.0009 314.29C31.1939 322.088 41.1619 354.474 42.0849 353.551C42.2799 353.355 41.3539 350.082 40.0259 346.277C38.6989 342.471 35.7639 332.833 33.5059 324.858C31.2479 316.883 29.6709 312.128 30.0009 314.29ZM251.444 322.749C252.269 323.342 255.295 324.519 258.168 325.363C262.757 326.712 277.363 326.866 378.168 326.628C468.609 326.415 493.474 326.088 495.444 325.087C497.909 323.833 497.902 323.825 494.944 324.529C493.294 324.922 440.731 325.389 378.138 325.567C261.53 325.899 261.913 325.909 251.944 322.378C250.337 321.808 250.239 321.881 251.444 322.749ZM630.136 331.213C629.206 335.449 628.476 339.915 628.514 341.136C628.553 342.358 629.445 339.308 630.497 334.358C631.548 329.408 632.278 324.943 632.119 324.435C631.959 323.927 631.067 326.977 630.136 331.213ZM716.1 340.014C714.034 346.656 712.517 352.264 712.729 352.476C712.941 352.689 714.81 347.432 716.882 340.796C718.953 334.159 720.47 328.551 720.253 328.333C720.035 328.116 718.167 333.372 716.1 340.014ZM733.098 338.012C731.565 343.537 730.489 348.236 730.707 348.454C730.925 348.673 732.365 344.337 733.906 338.82C735.446 333.302 736.522 328.603 736.296 328.377C736.071 328.151 734.631 332.487 733.098 338.012ZM727.508 356.437C723.868 367.291 720.654 372.826 714.576 378.709C707.985 385.089 698.852 389.623 690.047 390.888L683.944 391.765L689.96 391.428C701.594 390.775 715.899 381.763 722.101 371.18C725.149 365.979 730.637 351.938 730.17 350.536C729.983 349.975 728.785 352.63 727.508 356.437ZM644.445 357.03C644.444 359.59 650.55 367.025 654.459 369.223C658.418 371.45 657.626 370.477 652.321 366.599C650.329 365.142 647.742 362.017 646.572 359.654C645.403 357.291 644.445 356.111 644.445 357.03ZM628.508 357.93C628.345 361.913 632.035 369.343 636.721 374.471C641.259 379.436 650.354 385.824 652.921 385.849C653.459 385.854 651.031 384.171 647.526 382.108C639.264 377.245 633.527 370.583 630.758 362.634C629.556 359.182 628.544 357.065 628.508 357.93ZM124.048 361.298C122.38 367.946 116.888 374.786 107.294 382.166C105.027 383.909 105.062 383.909 108.274 382.166C115.545 378.219 126.512 363.561 125.181 359.569C124.962 358.911 124.452 359.69 124.048 361.298ZM702.951 367.846C701.561 370.096 693.027 374.136 688.163 374.846C683.203 375.571 683.143 375.614 686.944 375.723C691.477 375.854 699.931 372.28 702.849 369C703.897 367.822 704.486 366.858 704.158 366.858C703.83 366.858 703.287 367.303 702.951 367.846ZM655.665 386.816C658.477 388.628 672.444 391.868 676.854 391.731C680.229 391.627 679.841 391.461 674.637 390.786C669.244 390.085 663.765 388.776 655.731 386.265C654.068 385.746 654.063 385.784 655.665 386.816Z" fill="#FFFFFF99"></path></svg>